<svg viewBox="0 0 25 25" fill="none" xmlns="http://www.w3.org/2000/svg">
<path d="M8.00006 14L8.00006 17.75C8.00006 17.9489 8.07908 18.1397 8.21973 18.2803C8.36038 18.421 8.55115 18.5 8.75006 18.5H17.7892L21.5001 21.5V9.5C21.5001 9.30109 21.421 9.11032 21.2804 8.96967C21.1397 8.82902 20.949 8.75 20.7501 8.75H17.0001M7.21096 14L3.50006 17L3.50006 5C3.50006 4.80109 3.57908 4.61032 3.71973 4.46967C3.86038 4.32902 4.05115 4.25 4.25006 4.25L16.2501 4.25C16.449 4.25 16.6397 4.32902 16.7804 4.46967C16.921 4.61032 17.0001 4.80109 17.0001 5V13.25C17.0001 13.4489 16.921 13.6397 16.7804 13.7803C16.6397 13.921 16.449 14 16.2501 14L7.21096 14Z" stroke="#B3B9B5" stroke-width="1.5" stroke-linecap="round" stroke-linejoin="round"/>
</svg>
