<svg width="18" height="18" viewBox="0 0 18 18" fill="none" xmlns="http://www.w3.org/2000/svg">
<rect width="18" height="18" fill="black"/>
<path d="M15.9604 13.818C15.6995 14.4206 15.3907 14.9754 15.0329 15.4854C14.5453 16.1807 14.146 16.662 13.8382 16.9293C13.3612 17.368 12.8501 17.5926 12.3028 17.6054C11.9099 17.6054 11.4361 17.4936 10.8845 17.2668C10.3312 17.0411 9.82263 16.9293 9.35764 16.9293C8.86997 16.9293 8.34695 17.0411 7.78751 17.2668C7.22722 17.4936 6.77586 17.6118 6.43077 17.6235C5.90593 17.6459 5.38281 17.4148 4.86064 16.9293C4.52736 16.6386 4.1105 16.1403 3.61112 15.4343C3.07532 14.6805 2.63482 13.8063 2.28972 12.8096C1.92014 11.7331 1.73486 10.6907 1.73486 9.68151C1.73486 8.52548 1.98466 7.52842 2.485 6.69288C2.87823 6.02175 3.40135 5.49234 4.05609 5.1037C4.71082 4.71505 5.41827 4.517 6.18012 4.50433C6.59698 4.50433 7.14364 4.63328 7.82297 4.8867C8.50038 5.14097 8.93535 5.26991 9.12605 5.26991C9.26862 5.26991 9.75182 5.11914 10.571 4.81855C11.3456 4.53979 11.9994 4.42437 12.535 4.46983C13.9862 4.58696 15.0766 5.15907 15.8017 6.18977C14.5037 6.97622 13.8617 8.07774 13.8744 9.49081C13.8862 10.5915 14.2855 11.5074 15.0702 12.2346C15.4258 12.5722 15.823 12.8331 16.2649 13.0183C16.1691 13.2962 16.0679 13.5624 15.9604 13.818ZM12.6318 0.720098C12.6318 1.58279 12.3167 2.38829 11.6884 3.13385C10.9303 4.02018 10.0133 4.53234 9.01893 4.45152C9.00626 4.34802 8.99892 4.23909 8.99892 4.12463C8.99892 3.29644 9.35945 2.41012 9.9997 1.68543C10.3194 1.31851 10.7259 1.01341 11.2189 0.770036C11.7108 0.530289 12.1761 0.397705 12.6137 0.375C12.6265 0.490329 12.6318 0.605665 12.6318 0.720087V0.720098Z" fill="white"/>
</svg>
