<svg width="108" height="30" viewBox="0 0 108 30" fill="none" xmlns="http://www.w3.org/2000/svg">
<path d="M16.2494 12.7615L16.2494 12.7632C16.2505 13.8228 16.5648 14.8585 17.153 15.7412C17.72 16.5923 18.5174 17.2649 19.4518 17.6818C19.0796 18.8467 18.5303 19.9482 17.8226 20.9476L17.8226 20.9475L17.8209 20.9501C17.3252 21.6886 16.8257 22.4056 16.2488 22.9421C15.6745 23.4762 15.0316 23.8237 14.2485 23.8364L14.2476 23.8364C13.4915 23.8538 12.9841 23.6386 12.4323 23.4045L12.4008 23.3911C11.8332 23.1505 11.2206 22.8983 10.2767 22.8983C9.32588 22.8983 8.70136 23.1334 8.12877 23.3716C8.08793 23.3886 8.04743 23.4056 8.00714 23.4224C7.48468 23.6413 6.99887 23.8448 6.31061 23.8733C5.57446 23.9003 4.91395 23.5319 4.30125 22.9592C3.68835 22.3863 3.13932 21.624 2.62565 20.8925C1.61082 19.4156 0.706299 17.3309 0.321659 15.1588C-0.0631916 12.9856 0.0748718 10.7403 1.12483 8.92976L1.12484 8.92976L1.12582 8.92801C1.60929 8.06273 2.3096 7.33688 3.15856 6.82122C4.00731 6.30568 4.97568 6.01783 5.96936 5.98573C6.72673 5.97038 7.4628 6.22525 8.14351 6.49301C8.23257 6.52804 8.32097 6.5634 8.40839 6.59838C8.65161 6.69568 8.88723 6.78994 9.1083 6.86551C9.40882 6.96825 9.69679 7.04179 9.95928 7.04179C10.2198 7.04179 10.528 6.95325 10.8597 6.83403C11.0428 6.76822 11.2431 6.68909 11.4521 6.60651C11.619 6.54059 11.7914 6.47247 11.9651 6.40717C12.7633 6.10706 13.6548 5.83973 14.553 5.93363L14.5529 5.93397L14.5621 5.93425C15.4138 5.96079 16.2476 6.18476 16.9971 6.58835C17.7078 6.97099 18.3242 7.50509 18.8027 8.15189C18.049 8.63878 17.4232 9.29955 16.979 10.079C16.5126 10.8975 16.2616 11.8203 16.2494 12.7615Z" fill="black" stroke="black" stroke-width="0.250967"/>
<path d="M13.2562 3.76669L13.2562 3.76668L13.2548 3.76837C12.8367 4.28629 12.306 4.703 11.7027 4.9871C11.1349 5.25449 10.5167 5.39783 9.88953 5.40806C9.864 4.79364 9.95286 4.17946 10.152 3.59663C10.3638 2.9766 10.6962 2.4042 11.1303 1.91215L11.1304 1.91211C11.9909 0.9359 13.1783 0.306735 14.4691 0.139973C14.5372 1.45609 14.1052 2.75154 13.2562 3.76669Z" fill="black" stroke="black" stroke-width="0.250967"/>
<path d="M35.252 17.1085L35.2226 17.0219H35.1311H30.0066H29.9152L29.8858 17.1085L28.6846 20.6411H26.7875L31.5488 7.50657H33.6249L38.3862 20.6411H36.4522L35.252 17.1085ZM30.4166 15.4383L30.359 15.6072H30.5374H34.5994H34.7778L34.7202 15.4384L32.7178 9.5648L32.6883 9.47834H32.5969H32.5409H32.4495L32.42 9.56478L30.4166 15.4383Z" fill="black" stroke="black" stroke-width="0.255322"/>
<path d="M44.9628 20.745V20.7448L44.9562 20.7451C44.3568 20.7764 43.7607 20.6388 43.2362 20.3484C42.7117 20.0579 42.28 19.6262 41.9905 19.1029L41.9541 19.037H41.8788H41.8323H41.7046V19.1647V23.8723H39.948V11.1359H41.6401V12.6319V12.7596H41.7678H41.8048H41.8782L41.9151 12.6961C42.2185 12.1743 42.6583 11.7441 43.1877 11.4514C43.7171 11.1586 44.3164 11.0142 44.9217 11.0337L44.9217 11.0338L44.9258 11.0338C46.1334 11.0338 47.1286 11.5078 47.8242 12.3451C48.5217 13.1847 48.9256 14.3994 48.9256 15.8899C48.9256 17.3849 48.524 18.5994 47.8322 19.4376C47.1423 20.2735 46.1564 20.745 44.9628 20.745ZM47.113 15.8899C47.113 14.8808 46.8513 14.0316 46.3771 13.4316C45.9008 12.8289 45.2163 12.4864 44.3951 12.4864C43.5861 12.4864 42.9066 12.837 42.4325 13.4423C41.9603 14.0452 41.6962 14.8939 41.6962 15.8899C41.6962 16.8946 41.9602 17.7455 42.4325 18.3484C42.9068 18.9538 43.5863 19.3018 44.3951 19.3018C45.216 19.3018 45.9006 18.9619 46.3771 18.3591C46.8514 17.7591 47.113 16.9077 47.113 15.8899Z" fill="black" stroke="black" stroke-width="0.255322"/>
<path d="M55.748 20.745V20.7448L55.7413 20.7451C55.1419 20.7764 54.5459 20.6388 54.0214 20.3484C53.4969 20.0579 53.0652 19.6262 52.7757 19.1029L52.7392 19.037H52.664H52.6174H52.4898V19.1647V23.8723H50.7331V11.1359H52.4253V12.6319V12.7596H52.5529H52.5899H52.6634L52.7003 12.6961C53.0037 12.1743 53.4434 11.7441 53.9728 11.4514C54.5023 11.1586 55.1015 11.0142 55.7068 11.0337L55.7068 11.0338L55.7109 11.0338C56.9185 11.0338 57.9139 11.5078 58.6097 12.3451C59.3073 13.1847 59.7113 14.3994 59.7113 15.8899C59.7113 17.3849 59.3095 18.5994 58.6176 19.4376C57.9276 20.2735 56.9415 20.745 55.748 20.745ZM57.8982 15.8899C57.8982 14.8808 57.6364 14.0316 57.1623 13.4316C56.686 12.8289 56.0014 12.4864 55.1802 12.4864C54.3712 12.4864 53.6918 12.837 53.2176 13.4423C52.7455 14.0452 52.4813 14.8939 52.4813 15.8899C52.4813 16.8946 52.7453 17.7455 53.2177 18.3484C53.692 18.9538 54.3715 19.3018 55.1802 19.3018C56.0011 19.3018 56.6858 18.9619 57.1623 18.3591C57.6365 17.7591 57.8982 16.9077 57.8982 15.8899Z" fill="black" stroke="black" stroke-width="0.255322"/>
<path d="M66.9697 17.0386C67.1188 18.3664 68.4139 19.2382 70.1838 19.2382C71.8796 19.2382 73.0997 18.3664 73.0997 17.1691C73.0997 16.1298 72.3638 15.5075 70.6215 15.081L68.8791 14.663C66.4105 14.0691 65.2644 12.9193 65.2644 11.0534C65.2644 8.7431 67.2859 7.15625 70.1552 7.15625C72.9971 7.15625 74.9446 8.7431 75.0101 11.0534H72.9791C72.8576 9.71711 71.7485 8.91053 70.1277 8.91053C68.507 8.91053 67.3979 9.7266 67.3979 10.9144C67.3979 11.861 68.1063 12.418 69.8391 12.8445L71.3203 13.2067C74.0787 13.8564 75.2237 14.9599 75.2237 16.9185C75.2237 19.4235 73.2212 20.9925 70.0346 20.9925C67.0532 20.9925 65.0402 19.4604 64.9102 17.0385L66.9697 17.0386Z" fill="black"/>
<path fill-rule="evenodd" clip-rule="evenodd" d="M70.6215 15.081C72.3638 15.5075 73.0997 16.1298 73.0997 17.1691C73.0997 18.3664 71.8796 19.2382 70.1838 19.2382C68.4139 19.2382 67.1188 18.3664 66.9697 17.0386L64.9102 17.0385C64.9148 17.1247 64.9218 17.2099 64.9312 17.2938C65.1848 19.5675 67.1594 20.9925 70.0346 20.9925C73.2212 20.9925 75.2237 19.4235 75.2237 16.9185C75.2237 14.9599 74.0787 13.8564 71.3203 13.2067L69.8391 12.8445C68.1063 12.418 67.3979 11.861 67.3979 10.9144C67.3979 9.7266 68.507 8.91053 70.1277 8.91053C71.7485 8.91053 72.8576 9.71711 72.9791 11.0534H75.0101C75.0077 10.9672 75.0026 10.8821 74.995 10.798C74.7981 8.62699 72.8912 7.15625 70.1552 7.15625C67.2859 7.15625 65.2644 8.7431 65.2644 11.0534C65.2644 12.9193 66.4105 14.0691 68.8791 14.663L70.6215 15.081ZM68.9388 14.4148L70.6822 14.833C71.5663 15.0494 72.2317 15.3232 72.6785 15.7001C73.14 16.0892 73.355 16.5771 73.355 17.1691C73.355 17.8639 72.9981 18.4536 72.4256 18.8607C71.8566 19.2653 71.0728 19.4936 70.1838 19.4936C68.4419 19.4936 67.036 18.6702 66.752 17.2939L65.1882 17.2938C65.3084 18.3076 65.7929 19.1326 66.5587 19.7212C67.3959 20.3648 68.5856 20.7371 70.0346 20.7371C71.5892 20.7371 72.8251 20.3542 73.6665 19.694C74.5012 19.0391 74.9684 18.0959 74.9684 16.9185C74.9684 15.9953 74.7016 15.3015 74.1301 14.7565C73.5474 14.2007 72.6236 13.776 71.2618 13.4552L71.2596 13.4547L69.7784 13.0925C68.9024 12.8769 68.2481 12.6205 67.8105 12.2749C67.356 11.916 67.1426 11.4665 67.1426 10.9144C67.1426 10.2319 67.4646 9.65738 68.0039 9.26127C68.5378 8.86903 69.2773 8.65521 70.1277 8.65521C70.9784 8.65521 71.7185 8.86679 72.2681 9.27608C72.7632 9.64478 73.0903 10.1646 73.2025 10.798H74.7386C74.6452 9.8341 74.1912 9.02386 73.4636 8.43723C72.6673 7.79531 71.5301 7.41157 70.1552 7.41157C68.7656 7.41157 67.6025 7.79587 66.7925 8.43848C65.9867 9.07777 65.5197 9.97967 65.5197 11.0534C65.5197 11.9282 65.7857 12.614 66.3265 13.1546C66.8751 13.7031 67.7279 14.1234 68.9388 14.4148Z" fill="black"/>
<path d="M77.5443 12.4687H76.2468V11.1371H77.5443H77.6719V11.0095V8.82688H79.4381V11.0095V11.1371H79.5658H81.302V12.4687H79.5658H79.4381V12.5963V17.9781C79.4381 18.4123 79.5347 18.7577 79.7631 18.9934C79.9924 19.2299 80.3306 19.3315 80.7583 19.3315L80.7606 19.3315C80.9383 19.3284 81.1157 19.3179 81.2925 19.3002V20.6277C80.9664 20.6818 80.6358 20.706 80.305 20.6999L80.305 20.6998H80.3027C79.3212 20.6998 78.6731 20.5152 78.2676 20.1274C77.8635 19.741 77.672 19.1254 77.672 18.1919V12.5963V12.4687H77.5443Z" fill="black" stroke="black" stroke-width="0.255322"/>
<path d="M82.6394 15.8874C82.6394 14.3766 83.0858 13.1598 83.8673 12.3218C84.6479 11.4848 85.7744 11.0134 87.1604 11.0134C88.5513 11.0134 89.678 11.4849 90.4576 12.3218C91.2382 13.1596 91.6826 14.3764 91.6826 15.8874C91.6826 17.4029 91.2404 18.6196 90.4612 19.4563C89.6829 20.2919 88.5563 20.7615 87.1604 20.7615C85.7651 20.7615 84.6388 20.2919 83.8606 19.4563C83.0815 18.6196 82.6394 17.4029 82.6394 15.8874ZM89.8879 15.8874C89.8879 14.8163 89.6417 13.9476 89.1725 13.3437C88.7001 12.7356 88.0115 12.4092 87.1604 12.4092C86.3091 12.4092 85.6206 12.7382 85.1483 13.3473C84.6792 13.9523 84.433 14.821 84.433 15.8874C84.433 16.9626 84.6791 17.8312 85.1485 18.4339C85.6211 19.0408 86.3097 19.3646 87.1604 19.3646C88.0112 19.3646 88.6998 19.0408 89.1724 18.4339C89.6417 17.8312 89.8879 16.9626 89.8879 15.8874Z" fill="black" stroke="black" stroke-width="0.255322"/>
<path d="M95.3511 14.9872V20.6427H93.5945L93.5945 11.1358H95.2581V12.6697V12.7974H95.3857H95.4323H95.5319L95.5561 12.7007C95.6788 12.2103 95.9673 11.7769 96.3732 11.4732C96.7791 11.1695 97.2777 11.0143 97.7851 11.0336L97.7851 11.0337L97.7904 11.0337C97.9787 11.033 98.1666 11.0502 98.3516 11.0849V12.688C98.0981 12.6266 97.8373 12.5991 97.576 12.6063C97.2669 12.5944 96.9588 12.649 96.6727 12.7663C96.3852 12.8842 96.1267 13.0627 95.915 13.2896C95.7032 13.5164 95.5432 13.7862 95.446 14.0806C95.3496 14.3725 95.3172 14.6817 95.3511 14.9872Z" fill="black" stroke="black" stroke-width="0.255322"/>
<path d="M107.601 18.0284C107.272 19.64 105.646 20.7615 103.533 20.7615C102.137 20.7615 101.018 20.2964 100.247 19.4691C99.4749 18.6408 99.0398 17.4358 99.0398 15.9338C99.0398 14.427 99.4773 13.1977 100.241 12.3468C101.004 11.4972 102.102 11.0134 103.449 11.0134C104.774 11.0134 105.842 11.4659 106.58 12.2697C107.319 13.0748 107.738 14.2451 107.738 15.701V16.2599H100.943H100.815V16.3876V16.5031C100.783 16.8786 100.83 17.2568 100.955 17.6127C101.08 17.9704 101.281 18.2974 101.543 18.572C101.804 18.8467 102.122 19.0626 102.474 19.2056C102.824 19.3476 103.199 19.4144 103.576 19.4017C104.076 19.4466 104.578 19.3305 105.006 19.0703C105.413 18.8237 105.734 18.4601 105.928 18.0284L107.601 18.0284ZM100.825 14.9875L100.825 15.1148H100.953H105.853H105.974L105.98 14.9943C105.999 14.6536 105.948 14.3127 105.828 13.9929C105.709 13.6732 105.524 13.3815 105.286 13.1362C105.048 12.8909 104.762 12.6973 104.445 12.5675C104.129 12.4379 103.789 12.3747 103.448 12.3818C103.104 12.38 102.763 12.4459 102.445 12.5757C102.126 12.7058 101.836 12.8975 101.592 13.1397C101.348 13.3819 101.155 13.6699 101.023 13.9871C100.891 14.3042 100.824 14.6442 100.825 14.9875Z" fill="black" stroke="black" stroke-width="0.255322"/>
</svg>
