<svg width="108" height="30" viewBox="0 0 108 30" fill="none" xmlns="http://www.w3.org/2000/svg">
<path d="M16.3158 12.7615L16.3158 12.7632C16.3169 13.8228 16.6312 14.8585 17.2194 15.7412C17.7864 16.5923 18.5838 17.2649 19.5182 17.6818C19.1461 18.8467 18.5967 19.9482 17.889 20.9476L17.889 20.9475L17.8873 20.9501C17.3916 21.6886 16.8921 22.4056 16.3152 22.9421C15.7409 23.4762 15.098 23.8237 14.3149 23.8364L14.314 23.8364C13.5579 23.8538 13.0505 23.6386 12.4987 23.4045L12.4672 23.3911C11.8996 23.1505 11.2871 22.8983 10.3431 22.8983C9.39228 22.8983 8.76777 23.1334 8.19517 23.3716C8.15433 23.3886 8.11382 23.4056 8.07352 23.4225C7.55118 23.6413 7.06547 23.8447 6.37744 23.8733C5.64112 23.9004 4.98047 23.532 4.36765 22.9592C3.75476 22.3863 3.20572 21.624 2.69206 20.8925C1.67723 19.4156 0.772706 17.3309 0.388065 15.1588C0.00321471 12.9856 0.141278 10.7403 1.19123 8.92976L1.19125 8.92976L1.19223 8.92801C1.6757 8.06273 2.376 7.33688 3.22496 6.82122C4.07371 6.30568 5.04209 6.01783 6.03577 5.98573C6.79314 5.97038 7.52921 6.22525 8.20992 6.49301C8.29897 6.52804 8.38737 6.5634 8.47479 6.59837C8.71801 6.69567 8.95363 6.78994 9.17471 6.86551C9.47523 6.96825 9.7632 7.04179 10.0257 7.04179C10.2862 7.04179 10.5944 6.95325 10.9261 6.83403C11.1092 6.76822 11.3095 6.68909 11.5185 6.60651C11.6854 6.54059 11.8578 6.47247 12.0315 6.40717C12.8297 6.10706 13.7212 5.83973 14.6194 5.93363L14.6193 5.93397L14.6285 5.93425C15.4802 5.96079 16.314 6.18476 17.0635 6.58835C17.7742 6.97099 18.3906 7.50509 18.8691 8.15189C18.1154 8.63878 17.4896 9.29955 17.0454 10.079C16.579 10.8975 16.328 11.8203 16.3158 12.7615Z" fill="black" stroke="black" stroke-width="0.250967"/>
<path d="M13.3226 3.76669L13.3226 3.76668L13.3212 3.76838C12.9031 4.28629 12.3724 4.703 11.7691 4.9871C11.2013 5.25449 10.5831 5.39783 9.95593 5.40806C9.93041 4.79364 10.0193 4.17946 10.2184 3.59663C10.4302 2.9766 10.7626 2.4042 11.1967 1.91215L11.1968 1.91211C12.0573 0.9359 13.2447 0.306735 14.5355 0.139973C14.6036 1.45609 14.1716 2.75154 13.3226 3.76669Z" fill="black" stroke="black" stroke-width="0.250967"/>
<path d="M35.3184 17.1085L35.289 17.0219H35.1975H30.073H29.9816L29.9522 17.1085L28.751 20.6411H26.8539L31.6152 7.50657H33.6913L38.4526 20.6411H36.5186L35.3184 17.1085ZM30.483 15.4383L30.4254 15.6072H30.6038H34.6658H34.8442L34.7866 15.4384L32.7842 9.5648L32.7547 9.47834H32.6634H32.6073H32.5159L32.4864 9.56478L30.483 15.4383Z" fill="black" stroke="black" stroke-width="0.255322"/>
<path d="M45.0292 20.745V20.7448L45.0226 20.7451C44.4232 20.7764 43.8271 20.6388 43.3026 20.3484C42.7781 20.0579 42.3464 19.6262 42.0569 19.1029L42.0205 19.037H41.9452H41.8987H41.771V19.1647V23.8723H40.0144V11.1359H41.7065V12.6319V12.7596H41.8342H41.8712H41.9446L41.9815 12.6961C42.2849 12.1743 42.7247 11.7441 43.2541 11.4514C43.7835 11.1586 44.3828 11.0142 44.9881 11.0337L44.9881 11.0338L44.9922 11.0338C46.1998 11.0338 47.195 11.5078 47.8906 12.3451C48.5881 13.1847 48.9921 14.3994 48.9921 15.8899C48.9921 17.3849 48.5904 18.5994 47.8986 19.4376C47.2087 20.2735 46.2228 20.745 45.0292 20.745ZM47.1794 15.8899C47.1794 14.8808 46.9177 14.0316 46.4435 13.4316C45.9672 12.8289 45.2827 12.4864 44.4615 12.4864C43.6525 12.4864 42.973 12.837 42.4989 13.4423C42.0267 14.0452 41.7626 14.8939 41.7626 15.8899C41.7626 16.8946 42.0266 17.7455 42.4989 18.3484C42.9732 18.9538 43.6527 19.3018 44.4615 19.3018C45.2824 19.3018 45.967 18.9619 46.4435 18.3591C46.9178 17.7591 47.1794 16.9077 47.1794 15.8899Z" fill="black" stroke="black" stroke-width="0.255322"/>
<path d="M55.8144 20.745V20.7448L55.8077 20.7451C55.2083 20.7764 54.6123 20.6388 54.0878 20.3484C53.5633 20.0579 53.1316 19.6262 52.8421 19.1029L52.8056 19.037H52.7304H52.6838H52.5562V19.1647V23.8723H50.7995V11.1359H52.4917V12.6319V12.7596H52.6193H52.6563H52.7298L52.7667 12.6961C53.0701 12.1743 53.5098 11.7441 54.0393 11.4514C54.5687 11.1586 55.1679 11.0142 55.7732 11.0337L55.7732 11.0338L55.7773 11.0338C56.9849 11.0338 57.9803 11.5078 58.6761 12.3451C59.3737 13.1847 59.7777 14.3994 59.7777 15.8899C59.7777 17.3849 59.3759 18.5994 58.684 19.4376C57.994 20.2735 57.0079 20.745 55.8144 20.745ZM57.9646 15.8899C57.9646 14.8808 57.7028 14.0316 57.2287 13.4316C56.7524 12.8289 56.0678 12.4864 55.2466 12.4864C54.4376 12.4864 53.7582 12.837 53.284 13.4423C52.8119 14.0452 52.5477 14.8939 52.5477 15.8899C52.5477 16.8946 52.8117 17.7455 53.2841 18.3484C53.7584 18.9538 54.4379 19.3018 55.2466 19.3018C56.0675 19.3018 56.7522 18.9619 57.2287 18.3591C57.7029 17.7591 57.9646 16.9077 57.9646 15.8899Z" fill="black" stroke="black" stroke-width="0.255322"/>
<path d="M65.1133 17.1662C65.2074 18.2787 65.7182 19.1851 66.5473 19.8225C67.412 20.4871 68.6312 20.8648 70.1011 20.8648C71.675 20.8648 72.9416 20.4772 73.8117 19.7944C74.6785 19.1143 75.1624 18.1335 75.1624 16.9185C75.1624 15.9673 74.8859 15.2376 74.2847 14.6641C73.6778 14.0853 72.7279 13.6537 71.3574 13.3309L71.3564 13.3307L71.3564 13.3307L69.8752 12.9685L69.875 12.9684C69.0038 12.754 68.3717 12.5029 67.956 12.1747C67.5319 11.8398 67.3367 11.4271 67.3367 10.9144C67.3367 10.2762 67.6363 9.73845 68.1459 9.36415C68.6528 8.99179 69.3637 8.78287 70.1941 8.78287C71.0247 8.78287 71.736 8.98948 72.2583 9.37847C72.7538 9.74749 73.0718 10.2755 73.1596 10.9257H74.9431C74.8784 9.86598 74.3993 8.97406 73.6101 8.33784C72.7868 7.67414 71.6195 7.28391 70.2216 7.28391C68.8095 7.28391 67.6166 7.67442 66.7795 8.33847C65.9446 9.00086 65.4585 9.93895 65.4585 11.0534C65.4585 11.9573 65.7347 12.6771 66.3027 13.2449C66.8745 13.8166 67.7527 14.2447 68.9753 14.5389L65.1133 17.1662ZM65.1133 17.1662L66.9248 17.1662C67.1432 18.5202 68.496 19.3659 70.2502 19.3659C71.1187 19.3659 71.875 19.1428 72.418 18.7567C72.9628 18.3693 73.2937 17.8158 73.2937 17.1691C73.2937 16.6133 73.0943 16.1616 72.6627 15.7977C72.2383 15.4398 71.5959 15.1719 70.7182 14.957L70.7177 14.9569L68.9754 14.5389L65.1133 17.1662Z" fill="black" stroke="black" stroke-width="0.255322"/>
<path d="M77.6107 12.4687H76.3132V11.1371H77.6107H77.7383V11.0095V8.82688H79.5045V11.0095V11.1371H79.6322H81.3684V12.4687H79.6322H79.5045V12.5963V17.9781C79.5045 18.4123 79.6011 18.7577 79.8295 18.9934C80.0588 19.2299 80.397 19.3315 80.8248 19.3315L80.827 19.3315C81.0047 19.3284 81.1821 19.3179 81.3589 19.3002V20.6277C81.0328 20.6818 80.7022 20.706 80.3714 20.6999L80.3714 20.6998H80.3691C79.3876 20.6998 78.7395 20.5152 78.334 20.1274C77.9299 19.741 77.7384 19.1254 77.7384 18.1919V12.5963V12.4687H77.6107Z" fill="black" stroke="black" stroke-width="0.255322"/>
<path d="M82.7058 15.8874C82.7058 14.3766 83.1522 13.1598 83.9337 12.3218C84.7143 11.4848 85.8408 11.0134 87.2269 11.0134C88.6177 11.0134 89.7444 11.4849 90.524 12.3218C91.3046 13.1596 91.749 14.3764 91.749 15.8874C91.749 17.4029 91.3068 18.6196 90.5276 19.4563C89.7493 20.2919 88.6227 20.7615 87.2269 20.7615C85.8315 20.7615 84.7052 20.2919 83.927 19.4563C83.1479 18.6196 82.7058 17.4029 82.7058 15.8874ZM89.9543 15.8874C89.9543 14.8163 89.7081 13.9476 89.2389 13.3437C88.7665 12.7356 88.0779 12.4092 87.2268 12.4092C86.3755 12.4092 85.687 12.7382 85.2147 13.3473C84.7456 13.9523 84.4994 14.821 84.4994 15.8874C84.4994 16.9626 84.7455 17.8312 85.2149 18.4339C85.6875 19.0408 86.3761 19.3646 87.2268 19.3646C88.0776 19.3646 88.7662 19.0408 89.2388 18.4339C89.7081 17.8312 89.9543 16.9626 89.9543 15.8874Z" fill="black" stroke="black" stroke-width="0.255322"/>
<path d="M95.4175 14.9872V20.6427H93.6609L93.6609 11.1358H95.3245V12.6697V12.7974H95.4521H95.4987H95.5983L95.6225 12.7007C95.7452 12.2103 96.0337 11.7769 96.4396 11.4732C96.8455 11.1695 97.3441 11.0143 97.8515 11.0336L97.8515 11.0337L97.8568 11.0337C98.0451 11.033 98.2331 11.0502 98.418 11.0849V12.688C98.1645 12.6266 97.9037 12.5991 97.6424 12.6063C97.3333 12.5944 97.0252 12.649 96.7391 12.7663C96.4516 12.8842 96.1931 13.0627 95.9814 13.2896C95.7696 13.5164 95.6096 13.7862 95.5124 14.0806C95.416 14.3725 95.3836 14.6817 95.4175 14.9872Z" fill="black" stroke="black" stroke-width="0.255322"/>
<path d="M107.668 18.0284C107.338 19.64 105.712 20.7615 103.6 20.7615C102.204 20.7615 101.084 20.2964 100.313 19.4691C99.5413 18.6408 99.1062 17.4358 99.1062 15.9338C99.1062 14.427 99.5438 13.1977 100.308 12.3468C101.071 11.4972 102.169 11.0134 103.515 11.0134C104.841 11.0134 105.909 11.4659 106.647 12.2697C107.386 13.0748 107.805 14.2451 107.805 15.701V16.2599H101.009H100.882V16.3876V16.5031C100.849 16.8786 100.897 17.2568 101.022 17.6127C101.147 17.9704 101.347 18.2974 101.609 18.572C101.871 18.8467 102.188 19.0626 102.54 19.2056C102.89 19.3476 103.266 19.4144 103.643 19.4017C104.143 19.4466 104.644 19.3305 105.073 19.0703C105.479 18.8237 105.8 18.4601 105.994 18.0284L107.668 18.0284ZM100.891 14.9875L100.892 15.1148H101.019H105.919H106.04L106.047 14.9943C106.066 14.6536 106.014 14.3127 105.894 13.9929C105.775 13.6732 105.59 13.3815 105.352 13.1362C105.114 12.8909 104.828 12.6973 104.511 12.5675C104.195 12.4379 103.856 12.3747 103.514 12.3818C103.17 12.38 102.83 12.4459 102.511 12.5757C102.193 12.7058 101.903 12.8975 101.659 13.1397C101.415 13.3819 101.221 13.6699 101.09 13.9871C100.958 14.3042 100.89 14.6442 100.891 14.9875Z" fill="black" stroke="black" stroke-width="0.255322"/>
</svg>
