<svg width="current" height="current" viewBox="0 0 24 24" fill="none" xmlns="http://www.w3.org/2000/svg"><defs>
<linearGradient id='gradient' gradientUnits='userSpaceOnUse' x1='-5.19%' y1='93.4%' x2='105.19%' y2='6.6%'>
<stop offset='.112' stop-color='#7CEFA7'/>
<stop offset='.893' stop-color='#8FD3F4'/>
</linearGradient>
</defs>
<path d="M15.75 3.80438V3C15.75 2.40326 15.5129 1.83097 15.091 1.40901C14.669 0.987053 14.0967 0.75 13.5 0.75H10.5C9.90326 0.75 9.33097 0.987053 8.90901 1.40901C8.48705 1.83097 8.25 2.40326 8.25 3V3.80438C7.00133 3.98638 5.85973 4.61133 5.0336 5.56518C4.20746 6.51902 3.75188 7.73813 3.75 9V20.25C3.75 20.6478 3.90804 21.0294 4.18934 21.3107C4.47064 21.592 4.85218 21.75 5.25 21.75H18.75C19.1478 21.75 19.5294 21.592 19.8107 21.3107C20.092 21.0294 20.25 20.6478 20.25 20.25V9C20.2481 7.73813 19.7925 6.51902 18.9664 5.56518C18.1403 4.61133 16.9987 3.98638 15.75 3.80438ZM10.5 2.25H13.5C13.6989 2.25 13.8897 2.32902 14.0303 2.46967C14.171 2.61032 14.25 2.80109 14.25 3V3.75H9.75V3C9.75 2.80109 9.82902 2.61032 9.96967 2.46967C10.1103 2.32902 10.3011 2.25 10.5 2.25ZM15.75 15H8.25V14.25C8.25 14.0511 8.32902 13.8603 8.46967 13.7197C8.61032 13.579 8.80109 13.5 9 13.5H15C15.1989 13.5 15.3897 13.579 15.5303 13.7197C15.671 13.8603 15.75 14.0511 15.75 14.25V15ZM8.25 16.5H12.75V17.25C12.75 17.4489 12.829 17.6397 12.9697 17.7803C13.1103 17.921 13.3011 18 13.5 18C13.6989 18 13.8897 17.921 14.0303 17.7803C14.171 17.6397 14.25 17.4489 14.25 17.25V16.5H15.75V20.25H8.25V16.5ZM18.75 20.25H17.25V14.25C17.25 13.6533 17.0129 13.081 16.591 12.659C16.169 12.2371 15.5967 12 15 12H9C8.40326 12 7.83097 12.2371 7.40901 12.659C6.98705 13.081 6.75 13.6533 6.75 14.25V20.25H5.25V9C5.25 8.00544 5.64509 7.05161 6.34835 6.34835C7.05161 5.64509 8.00544 5.25 9 5.25H15C15.9946 5.25 16.9484 5.64509 17.6517 6.34835C18.3549 7.05161 18.75 8.00544 18.75 9V20.25ZM14.25 8.25C14.25 8.44891 14.171 8.63968 14.0303 8.78033C13.8897 8.92098 13.6989 9 13.5 9H10.5C10.3011 9 10.1103 8.92098 9.96967 8.78033C9.82902 8.63968 9.75 8.44891 9.75 8.25C9.75 8.05109 9.82902 7.86032 9.96967 7.71967C10.1103 7.57902 10.3011 7.5 10.5 7.5H13.5C13.6989 7.5 13.8897 7.57902 14.0303 7.71967C14.171 7.86032 14.25 8.05109 14.25 8.25Z" fill="current"/>
</svg>
