<svg width="current" height="current" viewBox="0 0 25 25" fill="none" xmlns="http://www.w3.org/2000/svg">
<rect x="9.73962" y="3.10791" width="6.26728" height="3.5023" rx="1.75115" stroke="#FFB800" stroke-width="1.47465"/>
<path d="M16.8364 22.1863V22.6471H17.2972H19.5092C19.827 22.6471 20.1317 22.5209 20.3564 22.2962C20.5811 22.0715 20.7074 21.7667 20.7074 21.449V10.3891C20.7074 9.09352 20.1927 7.85106 19.2767 6.93498C18.3606 6.0189 17.1181 5.50426 15.8226 5.50426H9.92396C8.62844 5.50426 7.38597 6.0189 6.46989 6.93498C5.55382 7.85106 5.03917 9.09352 5.03917 10.3891V21.449C5.03917 21.7667 5.1654 22.0715 5.3901 22.2962L5.71596 21.9703L5.3901 22.2962C5.6148 22.5209 5.91956 22.6471 6.23733 22.6471H8.44931H8.91014V22.1863V15.5503C8.91014 15.2815 9.01695 15.0236 9.20708 14.8335C9.39721 14.6433 9.65508 14.5365 9.92396 14.5365H15.8226C16.0915 14.5365 16.3493 14.6433 16.5395 14.8335C16.7296 15.0236 16.8364 15.2815 16.8364 15.5503V22.1863Z" fill="#FFDC3F" stroke="#FFDC3F" stroke-width="0.921659"/>
<rect x="8.35712" y="17.2092" width="9.03226" height="5.89862" fill="#FFFCE6"/>
<rect x="16.0069" y="16.4719" width="2.39631" height="1.29032" rx="0.645161" transform="rotate(90 16.0069 16.4719)" fill="#83794B"/>
<path d="M8.35712 15.6424C8.35712 14.7262 9.09987 13.9834 10.0161 13.9834H15.7304C16.6466 13.9834 17.3894 14.7262 17.3894 15.6424V17.2092H8.35712V15.6424Z" fill="#FFB800"/>
<rect x="10.1083" y="8.63794" width="5.52995" height="1.65899" rx="0.829493" fill="#83794B"/>
</svg>
