<svg width="current" height="current" viewBox="0 0 24 24" fill="none" xmlns="http://www.w3.org/2000/svg">
<path d="M8.99982 18.0001V18.7501C8.99982 19.5458 9.31589 20.3088 9.8785 20.8714C10.4411 21.434 11.2042 21.7501 11.9998 21.7501C12.7955 21.7501 13.5585 21.434 14.1211 20.8714C14.6837 20.3088 14.9998 19.5458 14.9998 18.7501V18.0001M17.1966 2.24903C18.7227 3.21246 19.9529 4.57885 20.7515 6.19736M3.24817 6.19736C4.04669 4.57885 5.27691 3.21245 6.80303 2.24902M5.26885 10.5001C5.26638 9.61457 5.43867 8.73723 5.77584 7.91837C6.11301 7.09952 6.60845 6.35524 7.23376 5.72818C7.85906 5.10112 8.60196 4.60361 9.41987 4.26415C10.2378 3.92469 11.1146 3.74996 12.0002 3.74996C12.8857 3.74996 13.7626 3.92469 14.5805 4.26415C15.3984 4.60361 16.1413 5.10112 16.7666 5.72818C17.3919 6.35524 17.8874 7.09952 18.2245 7.91837C18.5617 8.73723 18.734 9.61457 18.7315 10.5001C18.7315 13.8578 19.434 15.8063 20.0527 16.8712C20.1194 16.985 20.1549 17.1143 20.1556 17.2462C20.1563 17.3781 20.1222 17.5078 20.0568 17.6223C19.9913 17.7368 19.8969 17.832 19.7829 17.8983C19.6689 17.9647 19.5395 17.9998 19.4076 18.0001H4.59203C4.46015 17.9998 4.33068 17.9647 4.2167 17.8983C4.10272 17.832 4.00825 17.7367 3.94282 17.6222C3.8774 17.5077 3.84333 17.378 3.84406 17.2461C3.84479 17.1142 3.88029 16.9848 3.94697 16.871C4.56603 15.8061 5.26885 13.8577 5.26885 10.5001Z" stroke="current" stroke-width="1.5" stroke-linecap="round" stroke-linejoin="round"/>
</svg>
