<svg width="current" height="current" viewBox="0 0 25 25" fill="none" xmlns="http://www.w3.org/2000/svg">
<rect x="8.53125" y="3.92041" width="7.9375" height="4.1875" rx="2" stroke="#604136" stroke-width="2"/>
<path d="M2.75 11.1704H22.25V19.4954C22.25 20.4895 21.4441 21.2954 20.45 21.2954H4.55C3.55589 21.2954 2.75 20.4895 2.75 19.4954V11.1704Z" fill="#604136"/>
<path d="M2.75 8.15791C2.75 7.1638 3.55589 6.35791 4.55 6.35791H20.45C21.4441 6.35791 22.25 7.1638 22.25 8.15791V12.0142H2.75V8.15791Z" fill="#795548"/>
<path d="M22.25 11.9411C22.25 12.3667 17.8848 13.6704 12.5 13.6704C7.11522 13.6704 2.75 12.3667 2.75 11.9411C2.75 11.5155 7.11522 11.1704 12.5 11.1704C17.8848 11.1704 22.25 11.5155 22.25 11.9411Z" fill="#795548"/>
<rect x="11.1875" y="12.0142" width="2.625" height="4.0625" rx="0.6" fill="#D9D9D9"/>
<rect x="10.4688" y="13.4673" width="4.06" height="1.00781" rx="0.503906" fill="#7C7370"/>
</svg>
