<svg width="current" height="current" viewBox="0 0 16 16" fill="none" xmlns="http://www.w3.org/2000/svg">
<g id="Icon">
<path id="Vector" d="M8.31251 14.8744H1.72396C1.56511 14.8744 1.41276 14.8113 1.30043 14.699C1.1881 14.5866 1.125 14.4343 1.125 14.2754V7.68687C1.125 6.743 1.31091 5.80837 1.67211 4.93634C2.03332 4.06432 2.56275 3.27197 3.23017 2.60456C3.89759 1.93714 4.68993 1.40771 5.56195 1.0465C6.43398 0.685299 7.36861 0.49939 8.31249 0.49939H8.3125C9.25638 0.49939 10.191 0.6853 11.063 1.04651C11.9351 1.40771 12.7274 1.93714 13.3948 2.60456C14.0623 3.27198 14.5917 4.06433 14.9529 4.93635C15.3141 5.80838 15.5 6.74301 15.5 7.68689V7.6869C15.5 9.59314 14.7427 11.4213 13.3948 12.7692C12.0469 14.1171 10.2188 14.8744 8.31251 14.8744Z" stroke="#666F6A" stroke-linecap="round" stroke-linejoin="round"/>
</g>
</svg>
