<svg width="20" height="20" viewBox="0 0 20 20" fill="none" xmlns="http://www.w3.org/2000/svg">
<path d="M15.625 16.25V3.75C15.625 3.40482 15.3452 3.125 15 3.125H11.875C11.5298 3.125 11.25 3.40482 11.25 3.75V16.25C11.25 16.5952 11.5298 16.875 11.875 16.875H15C15.3452 16.875 15.625 16.5952 15.625 16.25Z" stroke="current" stroke-linecap="round" stroke-linejoin="round"/>
<path d="M8.75 16.25V3.75C8.75 3.40482 8.47018 3.125 8.125 3.125H5C4.65482 3.125 4.375 3.40482 4.375 3.75V16.25C4.375 16.5952 4.65482 16.875 5 16.875H8.125C8.47018 16.875 8.75 16.5952 8.75 16.25Z" stroke="current" stroke-linecap="round" stroke-linejoin="round"/>
</svg>
