<svg viewBox="0 0 57 56" fill="none" xmlns="http://www.w3.org/2000/svg">
<path d="M27.9346 11.342C35.2959 11.5848 39.792 16.0651 42.6735 21.2068C43.0936 21.9514 43.4711 22.7184 43.8124 23.4981C43.9929 23.9135 44.1701 24.3289 44.3408 24.7508C46.4313 29.8797 47.8327 35.5264 45.8176 41.0132C42.5849 49.8139 33.6516 50.9548 23.4777 50.3604C21.6976 50.259 19.9416 49.9104 18.2628 49.325C16.7002 48.7941 15.2411 48.0097 13.9471 47.005C10.0515 43.8893 8.50902 39.5432 8.46307 35.4337C8.40728 30.2536 10.0843 26.7704 12.5031 22.2103C14.5083 18.4203 18.4827 14.2052 22.9789 12.3294C24.5352 11.6468 26.2279 11.3096 27.9346 11.342Z" fill="white"/>
<path d="M37.5596 14.8867C38.6183 15.7588 39.5778 16.7391 40.4214 17.8107C41.2647 18.8827 42.0187 20.0187 42.6761 21.2076C43.0962 21.9522 43.4736 22.7192 43.8149 23.4989C43.9954 23.9143 44.1727 24.3297 44.3433 24.7516C46.4339 29.8805 47.8352 35.5272 45.8202 41.014C42.5875 49.8147 29.5879 52.1763 19.0005 49.5655" stroke="#868686" stroke-width="1.3" stroke-linecap="round" stroke-linejoin="round"/>
<path d="M25.1786 11.5727C26.0179 11.3945 26.8765 11.3172 27.7352 11.3426C30.1965 11.397 32.6094 12.0203 34.7748 13.1609" stroke="#868686" stroke-width="1.3" stroke-linecap="round" stroke-linejoin="round"/>
<path d="M13.7445 47.0055C6.48819 41.2023 7.58106 31.1873 11.3454 23.8278C13.6001 19.4146 17.0067 15.2508 21.5915 12.8828" stroke="#868686" stroke-width="1.3" stroke-linecap="round" stroke-linejoin="round"/>
<path d="M30.8672 30.0832C30.6156 29.5253 30.2082 29.0518 29.6941 28.7197C29.1799 28.3876 28.5809 28.2109 27.9688 28.2109C27.3567 28.2109 26.7577 28.3876 26.2436 28.7197C25.7294 29.0518 25.3221 29.5253 25.0704 30.0832C25.5338 31.3327 26.6682 32.7899 27.9688 32.7899C29.2694 32.7899 30.4039 31.3327 30.8672 30.0832Z" fill="#FFAFA7"/>
<path d="M29.6836 13.1189C30.2692 12.412 30.6847 11.58 30.8979 10.6871C31.3357 8.89114 30.9491 7.13995 30.016 6.02148C28.6706 6.58391 27.5202 7.95163 27.0824 9.75396C26.6446 11.5563 27.0281 13.3011 27.9612 14.4164" fill="#FFF8F2"/>
<path d="M29.6836 13.1189C30.2692 12.412 30.6847 11.58 30.8979 10.6871C31.3357 8.89114 30.9491 7.13995 30.016 6.02148C28.6706 6.58391 27.5202 7.95163 27.0824 9.75396C26.6446 11.5563 27.0281 13.3011 27.9612 14.4164" stroke="#868686" stroke-width="1.3" stroke-linecap="round" stroke-linejoin="round"/>
<path d="M22.8243 25.0664L25.1667 26.0347L22.8243 27.1627" stroke="#868686" stroke-width="1.3" stroke-linecap="round" stroke-linejoin="round"/>
<path d="M33.1132 25.0664L30.7677 26.0347L33.1132 27.1627" stroke="#868686" stroke-width="1.3" stroke-linecap="round" stroke-linejoin="round"/>
<path d="M16.3029 4.42657L16.1208 4.36905L15.945 4.31792C15.4433 4.17108 14.9038 4.22882 14.4446 4.47852C13.9853 4.72822 13.6435 5.14957 13.494 5.65049L13.4428 5.82625L13.4141 5.91892L13.3214 5.89336L13.1456 5.83903C12.6431 5.69113 12.1024 5.7483 11.6418 5.99803C11.1813 6.24776 10.8384 6.66972 10.6882 7.1716L10.6371 7.35056L10.5828 7.52951C10.4369 8.0308 10.4951 8.56943 10.7447 9.02797C10.9944 9.48651 11.4151 9.82777 11.9153 9.97735L12.0943 10.0285L12.187 10.0572L16.3413 11.278L16.843 9.5779L17.562 7.14284L17.5875 7.05017L17.6419 6.87121C17.7865 6.3695 17.7269 5.83095 17.4761 5.373C17.2253 4.91505 16.8036 4.57484 16.3029 4.42657Z" fill="#FFE1FE" stroke="#868686" stroke-width="1.3" stroke-linecap="round" stroke-linejoin="round"/>
<path d="M44.5142 15.694L48.8009 16.1559L48.8967 16.1645C49.4657 16.2243 50.0353 16.0563 50.4808 15.6972C50.9262 15.3381 51.2113 14.8171 51.2735 14.2483C51.3344 13.6799 51.1672 13.1106 50.8086 12.6654C50.45 12.2202 49.9294 11.9356 49.3611 11.874L49.2648 11.8623L49.2734 11.7665C49.3334 11.1983 49.1659 10.6295 48.8074 10.1845C48.449 9.73948 47.9289 9.45462 47.3609 9.39224C46.7927 9.33221 46.2238 9.49974 45.7788 9.85817C45.3339 10.2166 45.049 10.7367 44.9866 11.3047L44.9749 11.401L44.5165 15.7066" fill="#FFE1FE"/>
<path d="M44.5142 15.694L48.8009 16.1559L48.8967 16.1645C49.4657 16.2243 50.0353 16.0563 50.4808 15.6972C50.9262 15.3381 51.2113 14.8171 51.2735 14.2483C51.3344 13.6799 51.1672 13.1106 50.8086 12.6654C50.45 12.2202 49.9294 11.9356 49.3611 11.874L49.2648 11.8623L49.2734 11.7665C49.3334 11.1983 49.1659 10.6295 48.8074 10.1845C48.449 9.73948 47.9289 9.45462 47.3609 9.39224C46.7927 9.33221 46.2238 9.49974 45.7788 9.85817C45.3339 10.2166 45.049 10.7367 44.9866 11.3047L44.9749 11.401L44.5165 15.7066" stroke="#868686" stroke-width="1.3" stroke-linecap="round" stroke-linejoin="round"/>
<path d="M20.1753 32.561C21.7531 32.561 23.0322 31.8557 23.0322 30.9856C23.0322 30.1155 21.7531 29.4102 20.1753 29.4102C18.5975 29.4102 17.3185 30.1155 17.3185 30.9856C17.3185 31.8557 18.5975 32.561 20.1753 32.561Z" fill="#FFD1F6"/>
<path d="M35.7554 32.561C37.3332 32.561 38.6123 31.8557 38.6123 30.9856C38.6123 30.1155 37.3332 29.4102 35.7554 29.4102C34.1776 29.4102 32.8985 30.1155 32.8985 30.9856C32.8985 31.8557 34.1776 32.561 35.7554 32.561Z" fill="#FFD1F6"/>
<path d="M16.2043 30.2579C16.4215 30.8349 16.4866 31.4582 16.3931 32.0677C16.2996 32.6772 16.0508 33.2524 15.6706 33.7379C15.5175 33.9354 15.4152 34.1675 15.3729 34.4138C15.3305 34.6601 15.3494 34.913 15.4278 35.1503C15.5946 35.6692 15.6408 36.2193 15.5627 36.7587C15.4846 37.2981 15.2843 37.8126 14.9772 38.2629C14.1879 39.5123 10.2221 39.6721 10.0464 38.2053C9.69485 35.2845 9.37209 31.6703 10.2605 29.8456C10.89 28.5386 15.7633 28.8742 16.2043 30.2579Z" fill="#FFFCBB"/>
<path d="M15.551 36.3482C15.9057 37.946 13.1894 40.8444 8.6325 42.3528C8.32279 42.4738 7.98998 42.5243 7.65831 42.5005C7.32663 42.4768 7.00442 42.3793 6.71514 42.2154C6.04725 41.7935 5.73728 40.9818 5.5743 40.2405C5.04064 37.8182 5.54554 35.495 6.79503 33.3859C7.75371 31.7881 9.24286 30.2957 10.2047 28.7586C10.7576 27.8767 11.2689 26.9787 11.729 26.0711C11.8357 25.8493 12.0016 25.6613 12.2084 25.5279C12.4621 25.3564 12.7697 25.2835 13.0734 25.323C13.377 25.3624 13.6558 25.5114 13.8573 25.742C14.3532 26.2674 14.6631 26.9409 14.7393 27.6593C14.9374 29.4553 14.3143 31.1202 11.7802 32.3633" fill="#FFFCBB"/>
<path d="M15.551 36.3482C15.9057 37.946 13.1894 40.8444 8.6325 42.3528C8.32279 42.4738 7.98998 42.5243 7.65831 42.5005C7.32663 42.4768 7.00442 42.3793 6.71514 42.2154C6.04725 41.7935 5.73728 40.9818 5.5743 40.2405C5.04064 37.8182 5.54554 35.495 6.79503 33.3859C7.75371 31.7881 9.24286 30.2957 10.2047 28.7586C10.7576 27.8767 11.2689 26.9787 11.729 26.0711C11.8357 25.8493 12.0016 25.6613 12.2084 25.5279C12.4621 25.3564 12.7697 25.2835 13.0734 25.323C13.377 25.3624 13.6558 25.5114 13.8573 25.742C14.3532 26.2674 14.6631 26.9409 14.7393 27.6593C14.9374 29.4553 14.3143 31.1202 11.7802 32.3633" stroke="#868686" stroke-width="1.3" stroke-linecap="round" stroke-linejoin="round"/>
<path d="M16.1995 31.2793C16.3526 31.7899 16.3459 32.3352 16.1803 32.842C15.7361 34.1649 13.9242 35.4911 11.9141 35.9193" fill="#FFFCBB"/>
<path d="M16.1995 31.2793C16.3526 31.7899 16.3459 32.3352 16.1803 32.842C15.7361 34.1649 13.9242 35.4911 11.9141 35.9193" stroke="#868686" stroke-width="1.3" stroke-linecap="round" stroke-linejoin="round"/>
<path d="M37.8303 29.6816C37.5589 30.2352 37.4344 30.8491 37.4685 31.4647C37.5026 32.0802 37.6943 32.6766 38.0252 33.1968C38.1587 33.4079 38.2382 33.6487 38.2566 33.8978C38.275 34.147 38.2317 34.3968 38.1307 34.6252C37.9153 35.1265 37.8172 35.6703 37.8438 36.2152C37.8704 36.7601 38.0209 37.2918 38.2841 37.7697C38.9519 39.0863 43.1094 38.9489 43.4258 37.5077C44.0649 34.6316 42.9912 31.6533 42.2818 29.7487C41.7801 28.4034 38.4055 28.3554 37.8303 29.6816Z" fill="#FFFCBB"/>
<path d="M37.8277 35.8902C37.3228 37.4369 39.7451 40.5941 44.1359 42.5371C44.4344 42.6897 44.7635 42.7732 45.0987 42.7815C45.4339 42.7898 45.7667 42.7227 46.0724 42.585C46.7755 42.2271 47.1621 41.4506 47.3954 40.7283C48.1592 38.37 47.8843 36.0084 46.8426 33.7907C46.0437 32.0938 44.7079 30.4768 43.8962 28.8535C43.4211 27.9139 42.9961 26.9734 42.6212 26.0317C42.5324 25.7981 42.3809 25.5936 42.1834 25.4405C41.9468 25.2453 41.6472 25.143 41.3406 25.153C41.0341 25.163 40.7417 25.2846 40.5184 25.4949C39.9781 25.9663 39.6066 26.6015 39.4607 27.3036C39.0868 29.0708 39.547 30.7868 41.9501 32.2664" fill="#FFFCBB"/>
<path d="M37.8277 35.8902C37.3228 37.4369 39.7451 40.5941 44.1359 42.5371C44.4344 42.6897 44.7635 42.7732 45.0987 42.7815C45.4339 42.7898 45.7667 42.7227 46.0724 42.585C46.7755 42.2271 47.1621 41.4506 47.3954 40.7283C48.1592 38.37 47.8843 36.0084 46.8426 33.7907C46.0437 32.0938 44.7079 30.4768 43.8962 28.8535C43.4211 27.9139 42.9961 26.9734 42.6212 26.0317C42.5324 25.7981 42.3809 25.5936 42.1834 25.4405C41.9468 25.2453 41.6472 25.143 41.3406 25.153C41.0341 25.163 40.7417 25.2846 40.5184 25.4949C39.9781 25.9663 39.6066 26.6015 39.4607 27.3036C39.0868 29.0708 39.547 30.7868 41.9501 32.2664" stroke="#868686" stroke-width="1.3" stroke-linecap="round" stroke-linejoin="round"/>
<path d="M37.6659 30.7715C37.4626 31.2654 37.4168 31.81 37.5349 32.3309C37.8545 33.6859 39.5258 35.1814 41.4815 35.8046" fill="#FFFCBB"/>
<path d="M37.6659 30.7715C37.4626 31.2654 37.4168 31.81 37.5349 32.3309C37.8545 33.6859 39.5258 35.1814 41.4815 35.8046" stroke="#868686" stroke-width="1.3" stroke-linecap="round" stroke-linejoin="round"/>
</svg>
