<svg width="120" height="120" viewBox="0 0 120 120" fill="none" xmlns="http://www.w3.org/2000/svg">
<rect x="6.62646" y="2.52734" width="4.21663" height="56.8421" rx="2.10831" fill="#DFE2E1"/>
<rect x="26.001" y="2.52734" width="4.14316" height="24" rx="2.07158" fill="#DFE2E1"/>
<rect x="45.3022" y="2.52734" width="4.14316" height="15.1579" rx="2.07158" fill="#DFE2E1"/>
<path fill-rule="evenodd" clip-rule="evenodd" d="M65.7935 24.3823C90.2784 31.8647 91.2983 57.7862 98.7708 68.3004C118.402 95.9229 84.2305 111.331 57.1047 110.761C18.8608 109.957 -3.79047 93.4068 15.3821 61.4163C19.2781 32.574 42.535 18.1246 65.7935 24.3823Z" fill="#E2F7F2"/>
<path d="M70.8121 34.8129C72.3266 30.4217 72.3201 26.235 69.7041 22.1434C67.4954 18.6878 64.6548 16.2919 60.7755 15.3582C60.3676 15.2651 59.948 15.2278 59.5285 15.2473C58.9332 15.3754 59.6042 18.8641 59.6722 19.5621C60.49 28.0354 60.6411 33.8164 70.8121 34.8129Z" fill="#B2F9ED"/>
<path d="M74.7604 80.3212L78.1293 78.4365C79.4099 77.7185 79.6739 76.1734 78.6971 75.1196L75.7725 71.9628C75.2919 71.471 74.6507 71.168 73.9657 71.109C73.2806 71.05 72.5971 71.2388 72.0395 71.6412L68.6084 74.2289C67.4605 75.101 67.4509 76.6688 68.5882 77.5973L71.5762 80.0401C72.0212 80.3935 72.5601 80.6084 73.1261 80.6584C73.6922 80.7084 74.2604 80.5911 74.7604 80.3212Z" fill="#F9D2D2"/>
<path d="M61.361 57.8327L61.261 57.793C61.2955 57.7061 61.3468 57.6269 61.412 57.5599C61.4771 57.4929 61.5548 57.4393 61.6406 57.4023C61.7265 57.3654 61.8188 57.3456 61.9122 57.3443C62.0057 57.343 62.0985 57.3601 62.1853 57.3946C62.2722 57.4291 62.3514 57.4804 62.4184 57.5456C62.4854 57.6107 62.5389 57.6884 62.5759 57.7743C62.6129 57.8601 62.6326 57.9524 62.634 58.0459C62.6353 58.1393 62.6182 58.2321 62.5837 58.319L62.5836 58.3192C62.2522 59.1462 61.7271 59.8814 61.0524 60.4632M61.361 57.8327L61.2611 57.7925C60.8997 58.6895 60.241 59.435 59.3955 59.9043C58.5499 60.3736 57.5688 60.5381 56.6164 60.3703L56.6165 60.3702L56.6126 60.3697C56.4315 60.3444 56.2477 60.3901 56.0994 60.4972C55.9512 60.6043 55.8501 60.7645 55.8172 60.9443C55.7842 61.1242 55.8221 61.3098 55.9227 61.4625C56.0234 61.6151 56.1791 61.723 56.3575 61.7635L56.3574 61.7636L56.3623 61.7645C57.6375 61.9932 58.9525 61.7738 60.0843 61.1434L60.0844 61.1433C60.4297 60.9508 60.7542 60.7228 61.0524 60.4632M61.361 57.8327C61.3903 57.759 61.4338 57.6918 61.4891 57.6349C61.5444 57.578 61.6104 57.5326 61.6832 57.5012C61.7561 57.4698 61.8344 57.453 61.9137 57.4519C61.9931 57.4508 62.0718 57.4653 62.1456 57.4946C62.2193 57.5239 62.2865 57.5675 62.3434 57.6228C62.4003 57.6781 62.4457 57.744 62.4771 57.8169C62.5085 57.8897 62.5253 57.9681 62.5264 58.0474C62.5275 58.1267 62.513 58.2055 62.4837 58.2792L61.361 57.8327ZM61.0524 60.4632C61.0524 60.4633 61.0523 60.4633 61.0522 60.4634L60.982 60.3819L61.0526 60.4631C61.0526 60.4631 61.0525 60.4632 61.0524 60.4632Z" fill="#07BEB8" stroke="#07BEB8" stroke-width="0.215213"/>
<path d="M61.3158 69.3962C62.6476 69.3962 63.7273 68.1362 63.7273 66.5819C63.7273 65.0276 62.6476 63.7676 61.3158 63.7676C59.984 63.7676 58.9043 65.0276 58.9043 66.5819C58.9043 68.1362 59.984 69.3962 61.3158 69.3962Z" fill="#07BEB8"/>
<path d="M15.3818 61.4169C-3.79077 93.4074 18.8605 109.957 57.1044 110.761C63.1533 110.888 69.5525 110.221 75.6274 108.801C39.3209 111.777 11.4277 77.2398 21.9793 42.3731L22.2063 41.623C18.8104 47.13 16.4151 53.7672 15.3818 61.4169Z" fill="#DCEFEB" fill-opacity="0.5"/>
<path d="M82.6183 58.3432C81.4881 57.6823 80.5569 56.7214 79.9029 55.5428L79.9027 55.5426C79.8371 55.4236 79.7963 55.2901 79.7818 55.1502C79.7674 55.0104 79.7795 54.8665 79.817 54.7267C79.8545 54.5869 79.9167 54.4535 80 54.3338C80.0833 54.2141 80.1863 54.1101 80.3036 54.0279C80.4209 53.9457 80.5505 53.8866 80.6853 53.8546C80.8202 53.8227 80.9577 53.8185 81.0898 53.8433C81.222 53.868 81.3458 53.9212 81.4536 53.9998C81.5614 54.0784 81.6505 54.1804 81.7162 54.2994L81.622 54.3514L81.7159 54.299C82.4379 55.5925 83.5857 56.5278 84.9671 56.9503C86.349 57.3728 87.8844 57.2576 89.3166 56.6195L89.3166 56.6195L89.32 56.6181C89.5748 56.515 89.8503 56.5153 90.0878 56.6246C90.3255 56.7341 90.5012 56.9419 90.5805 57.2007C90.6596 57.4589 90.637 57.7477 90.5215 58.0076C90.406 58.2676 90.2049 58.4824 89.9581 58.6067L89.9581 58.6068L89.9538 58.6088C88.0722 59.4538 86.0445 59.6112 84.2142 59.0498L84.214 59.0497C83.6542 58.8767 83.1194 58.6399 82.6183 58.3432ZM82.6183 58.3432C82.6184 58.3433 82.6185 58.3433 82.6185 58.3434L82.6728 58.2505L82.618 58.3431C82.6181 58.3431 82.6182 58.3432 82.6183 58.3432Z" fill="#07BEB8" stroke="#07BEB8" stroke-width="0.215213"/>
<path d="M86.2445 70.5786C88.5735 70.5786 90.4616 68.5646 90.4616 66.0803C90.4616 63.596 88.5735 61.582 86.2445 61.582C83.9154 61.582 82.0273 63.596 82.0273 66.0803C82.0273 68.5646 83.9154 70.5786 86.2445 70.5786Z" fill="#07BEB8"/>
<path d="M99.2857 75.9682C97.966 74.4439 98.0204 72.1664 99.4114 70.7068V70.7068C100.754 69.2984 102.927 69.0898 104.512 70.2171L113.77 76.7993C116.39 78.6623 116.751 82.4153 114.533 84.7428V84.7428C112.384 86.9977 108.76 86.9111 106.721 84.5562L99.2857 75.9682Z" fill="#07BEB8"/>
<path d="M98.4937 53.7024C103.478 58.5385 102.322 65.3064 97.7429 70.0262C93.1634 74.7461 86.2032 76.3428 81.2188 71.5066C76.2345 66.6705 76.3669 58.449 80.9464 53.7292C85.5259 49.0093 93.5093 48.8662 98.4937 53.7024Z" fill="#E2F7F2" fill-opacity="0.44"/>
<path d="M95.7553 58.4368C98.5314 61.1303 99.4862 63.2523 98.7922 63.9676C98.0982 64.6828 95.9135 63.8285 93.1374 61.1349C90.3613 58.4414 88.7432 55.606 89.4372 54.8908C90.1312 54.1755 92.9792 55.7432 95.7553 58.4368Z" fill="#FFFDFA" fill-opacity="0.8"/>
<path fill-rule="evenodd" clip-rule="evenodd" d="M101.699 74.239C108.603 67.1228 110.39 56.9624 102.955 49.7488C95.5207 42.5351 83.5492 42.8139 76.6447 49.93C69.7402 57.0461 69.4754 69.3786 76.9102 76.5922C84.3449 83.8059 94.7941 81.3551 101.699 74.239ZM97.581 70.3116C102.161 65.5918 103.316 58.8239 98.3318 53.9878C93.3474 49.1516 85.364 49.2947 80.7845 54.0146C76.205 58.7344 76.0726 66.9559 81.0569 71.792C86.0413 76.6282 93.0015 75.0315 97.581 70.3116Z" fill="#07BEB8"/>
</svg>
