<svg width="current" height="current" viewBox="0 0 33 32" fill="none" xmlns="http://www.w3.org/2000/svg">
<path fill-rule="evenodd" clip-rule="evenodd" d="M3.26898 12.3258C3.26898 18.1991 7.66631 21.5871 11.4103 24.4724C11.7996 24.7724 12.1823 25.0658 12.5516 25.3578C13.9356 26.4484 15.269 27.4764 16.6023 27.4764V7.47644C10.6023 1.24444 3.26898 5.84177 3.26898 12.3258Z" fill="#FF9292"/>
<path d="M19.269 10.1431L16.6023 7.47644V27.4764C17.9356 27.4764 19.269 26.4498 20.653 25.3564C21.0223 25.0658 21.405 24.7724 21.7943 24.4724C25.5383 21.5871 29.9356 18.1991 29.9356 12.3258C29.9356 6.37644 23.761 2.01377 18.1076 6.15244L20.6823 8.7271C20.8701 8.91452 20.9757 9.16886 20.976 9.43416C20.9762 9.69946 20.8711 9.954 20.6836 10.1418C20.4962 10.3295 20.2419 10.4352 19.9766 10.4354C19.7113 10.4357 19.4568 10.3305 19.269 10.1431Z" fill="#F95454"/>
</svg>
