<svg width="current" height="current" viewBox="0 0 24 24" fill="none" xmlns="http://www.w3.org/2000/svg">
<path d="M20.2501 12.5759L22.5673 11.4173C22.6564 11.3727 22.7357 11.3109 22.8007 11.2353C22.8656 11.1598 22.9148 11.0721 22.9455 10.9773C22.9762 10.8826 22.9876 10.7827 22.9793 10.6834C22.9709 10.5842 22.9428 10.4876 22.8967 10.3993L20.5912 5.98394C20.5001 5.80964 20.3443 5.67806 20.1572 5.61752C19.9702 5.55699 19.7668 5.57234 19.5909 5.66027L17.2501 6.83071M20.2501 12.5759L17.2501 6.83071M20.2501 12.5759L18.7501 14.3307M17.2501 6.83071L13.4357 6.83071C13.3372 6.83071 13.2397 6.8501 13.1487 6.8878C13.0577 6.92549 12.975 6.98073 12.9054 7.05038L9.23653 10.7192C9.16055 10.7952 9.10179 10.8866 9.06421 10.9873C9.02664 11.088 9.01113 11.1955 9.01875 11.3027C9.02637 11.4099 9.05693 11.5142 9.10836 11.6086C9.15979 11.7029 9.2309 11.7851 9.31686 11.8496L9.82506 12.2307C10.3443 12.6202 10.9759 12.8307 11.6251 12.8307C12.2742 12.8307 12.9058 12.6202 13.4251 12.2307L14.6251 11.3307L18.7501 14.3307M18.7501 14.3307L15.3003 17.7804C15.2087 17.872 15.095 17.9383 14.9702 17.9729C14.8454 18.0075 14.7137 18.0091 14.5881 17.9777L9.15463 16.6194C9.05272 16.5939 8.9573 16.5473 8.87454 16.4826L3.75006 12.4754M3.75006 12.4754L1.43278 11.3168C1.34369 11.2722 1.26437 11.2104 1.19944 11.1349C1.13452 11.0593 1.08528 10.9716 1.05462 10.8769C1.02395 10.7821 1.01247 10.6822 1.02084 10.5829C1.02921 10.4837 1.05727 10.3871 1.10337 10.2988L3.40896 5.88346C3.49997 5.70916 3.65579 5.57758 3.84287 5.51704C4.02995 5.4565 4.23332 5.47185 4.40919 5.55979L6.75006 6.73022L3.75006 12.4754ZM10.5001 19.9557L7.67449 19.2493C7.55982 19.2206 7.45356 19.1653 7.36436 19.0878L5.25006 17.2499M6.80391 6.73022L11.6152 5.32758C11.787 5.27748 11.9711 5.2905 12.1342 5.3643L15.3751 6.83071" stroke="current" stroke-width="1.5" stroke-linecap="round" stroke-linejoin="round"/>
</svg>
