<svg viewBox="0 0 25 25" fill="none" xmlns="http://www.w3.org/2000/svg">
<path d="M14.7495 19.9991V15.4991C14.7495 15.3001 14.6704 15.1094 14.5298 14.9687C14.3891 14.8281 14.1984 14.7491 13.9995 14.7491L10.9995 14.7491C10.8005 14.7491 10.6098 14.8281 10.4691 14.9687C10.3285 15.1094 10.2495 15.3001 10.2495 15.4991L10.2495 19.9991C10.2495 20.198 10.1704 20.3888 10.0298 20.5294C9.88918 20.6701 9.69844 20.7491 9.49954 20.7491L5.00009 20.7497C4.90159 20.7498 4.80406 20.7304 4.71305 20.6927C4.62205 20.655 4.53936 20.5998 4.4697 20.5301C4.40005 20.4605 4.3448 20.3778 4.3071 20.2868C4.2694 20.1958 4.25 20.0982 4.25 19.9997L4.25 11.3316C4.25 11.2271 4.27183 11.1238 4.3141 11.0282C4.35637 10.9326 4.41814 10.847 4.49545 10.7767L11.9949 3.95778C12.133 3.83226 12.3129 3.7627 12.4995 3.7627C12.686 3.76269 12.8659 3.83223 13.004 3.95775L20.5045 10.7767C20.5818 10.847 20.6436 10.9326 20.6859 11.0282C20.7282 11.1238 20.75 11.2271 20.75 11.3316V19.9997C20.75 20.0982 20.7306 20.1958 20.6929 20.2868C20.6552 20.3778 20.6 20.4605 20.5303 20.5301C20.4606 20.5998 20.378 20.655 20.2869 20.6927C20.1959 20.7304 20.0984 20.7498 19.9999 20.7497L15.4994 20.7492C15.3005 20.7491 15.1097 20.6701 14.9691 20.5295C14.8285 20.3888 14.7494 20.198 14.7495 19.9991V19.9991Z" stroke-width="1.5" stroke-linecap="round" stroke-linejoin="round"/>
</svg>
