<svg viewBox="0 0 12 13" fill="none" xmlns="http://www.w3.org/2000/svg">
<path d="M4.00048 6.00197C4.00048 4.89708 4.89567 4.00116 6.00024 4.00116C7.10481 4.00116 8.00048 4.89708 8.00048 6.00197C8.00048 7.10686 7.10481 8.00279 6.00024 8.00279C4.89567 8.00279 4.00048 7.10686 4.00048 6.00197ZM2.91919 6.00197C2.91919 7.70413 4.29857 9.08391 6.00024 9.08391C7.70191 9.08391 9.08129 7.70413 9.08129 6.00197C9.08129 4.29981 7.70191 2.92003 6.00024 2.92003C4.29857 2.92003 2.91919 4.29981 2.91919 6.00197ZM8.48324 2.79783C8.48318 2.94028 8.52535 3.07955 8.60442 3.19802C8.68349 3.3165 8.79591 3.40886 8.92745 3.46342C9.059 3.51799 9.20377 3.53231 9.34345 3.50457C9.48314 3.47684 9.61146 3.40829 9.7122 3.30761C9.81294 3.20692 9.88156 3.07861 9.9094 2.93891C9.93724 2.79921 9.92304 2.65439 9.86859 2.52276C9.81415 2.39114 9.72191 2.27861 9.60353 2.19942C9.48515 2.12024 9.34596 2.07794 9.20355 2.07788H9.20326C9.01238 2.07797 8.82933 2.15384 8.69433 2.28883C8.55932 2.42382 8.4834 2.60689 8.48324 2.79783ZM3.57614 10.8874C2.99114 10.8608 2.67318 10.7633 2.46187 10.681C2.18174 10.5719 1.98186 10.4419 1.7717 10.232C1.56155 10.0221 1.43147 9.82235 1.32288 9.54213C1.24051 9.33086 1.14307 9.01271 1.11648 8.42754C1.08739 7.79488 1.08158 7.60484 1.08158 6.00202C1.08158 4.39921 1.08787 4.20969 1.11648 3.5765C1.14312 2.99134 1.24128 2.67381 1.32288 2.46191C1.43195 2.18169 1.56184 1.98176 1.7717 1.77154C1.98157 1.56133 2.18126 1.43121 2.46187 1.32259C2.67308 1.2402 2.99114 1.14273 3.57614 1.11613C4.20862 1.08703 4.39861 1.08122 6.00024 1.08122C7.60187 1.08122 7.79206 1.08751 8.42506 1.11613C9.01006 1.14278 9.32749 1.24097 9.53933 1.32259C9.81946 1.43121 10.0193 1.56162 10.2295 1.77154C10.4396 1.98147 10.5693 2.18169 10.6783 2.46191C10.7607 2.67318 10.8581 2.99134 10.8847 3.5765C10.9138 4.20969 10.9196 4.39921 10.9196 6.00202C10.9196 7.60484 10.9138 7.79435 10.8847 8.42754C10.8581 9.01271 10.7602 9.33076 10.6783 9.54213C10.5693 9.82235 10.4394 10.0223 10.2295 10.232C10.0196 10.4418 9.81946 10.5719 9.53933 10.681C9.32812 10.7634 9.01006 10.8608 8.42506 10.8874C7.79258 10.9165 7.60259 10.9223 6.00024 10.9223C4.39789 10.9223 4.20842 10.9165 3.57614 10.8874ZM3.52646 0.0363479C2.8877 0.0654455 2.45122 0.166759 2.07003 0.315128C1.67527 0.468346 1.34108 0.673901 1.00713 1.00742C0.673179 1.34094 0.468211 1.67575 0.315037 2.07063C0.166711 2.45217 0.0654266 2.88853 0.0363375 3.52748C0.00676827 4.16743 0 4.37203 0 6.00197C0 7.63192 0.00676827 7.83651 0.0363375 8.47647C0.0654266 9.11546 0.166711 9.55178 0.315037 9.93331C0.468211 10.328 0.673227 10.6632 1.00713 10.9965C1.34103 11.3299 1.67527 11.5352 2.07003 11.6888C2.45194 11.8372 2.8877 11.9385 3.52646 11.9676C4.16657 11.9967 4.37077 12.0039 6.00024 12.0039C7.62971 12.0039 7.83425 11.9972 8.47402 11.9676C9.11283 11.9385 9.54902 11.8372 9.93045 11.6888C10.325 11.5352 10.6594 11.33 10.9934 10.9965C11.3273 10.663 11.5318 10.328 11.6854 9.93331C11.8338 9.55178 11.9355 9.11541 11.9641 8.47647C11.9932 7.83603 12 7.63192 12 6.00197C12 4.37203 11.9932 4.16743 11.9641 3.52748C11.9351 2.88849 11.8338 2.45193 11.6854 2.07063C11.5318 1.67599 11.3268 1.34146 10.9934 1.00742C10.6599 0.673373 10.325 0.468346 9.93093 0.315128C9.54902 0.166759 9.11278 0.0649654 8.4745 0.0363479C7.83473 0.00725038 7.63019 0 6.00072 0C4.37125 0 4.16657 0.00677023 3.52646 0.0363479Z" fill="#807F7D"/>
<path d="M4.00048 6.00197C4.00048 4.89708 4.89567 4.00116 6.00024 4.00116C7.10481 4.00116 8.00048 4.89708 8.00048 6.00197C8.00048 7.10686 7.10481 8.00279 6.00024 8.00279C4.89567 8.00279 4.00048 7.10686 4.00048 6.00197ZM2.91919 6.00197C2.91919 7.70413 4.29857 9.08391 6.00024 9.08391C7.70191 9.08391 9.08129 7.70413 9.08129 6.00197C9.08129 4.29981 7.70191 2.92003 6.00024 2.92003C4.29857 2.92003 2.91919 4.29981 2.91919 6.00197ZM8.48324 2.79783C8.48318 2.94028 8.52535 3.07955 8.60442 3.19802C8.68349 3.3165 8.79591 3.40886 8.92745 3.46342C9.059 3.51799 9.20377 3.53231 9.34345 3.50457C9.48314 3.47684 9.61146 3.40829 9.7122 3.30761C9.81294 3.20692 9.88156 3.07861 9.9094 2.93891C9.93724 2.79921 9.92304 2.65439 9.86859 2.52276C9.81415 2.39114 9.72191 2.27861 9.60353 2.19942C9.48515 2.12024 9.34596 2.07794 9.20355 2.07788H9.20326C9.01238 2.07797 8.82933 2.15384 8.69433 2.28883C8.55932 2.42382 8.4834 2.60689 8.48324 2.79783ZM3.57614 10.8874C2.99114 10.8608 2.67318 10.7633 2.46187 10.681C2.18174 10.5719 1.98186 10.4419 1.7717 10.232C1.56155 10.0221 1.43147 9.82235 1.32288 9.54213C1.24051 9.33086 1.14307 9.01271 1.11648 8.42754C1.08739 7.79488 1.08158 7.60484 1.08158 6.00202C1.08158 4.39921 1.08787 4.20969 1.11648 3.5765C1.14312 2.99134 1.24128 2.67381 1.32288 2.46191C1.43195 2.18169 1.56184 1.98176 1.7717 1.77154C1.98157 1.56133 2.18126 1.43121 2.46187 1.32259C2.67308 1.2402 2.99114 1.14273 3.57614 1.11613C4.20862 1.08703 4.39861 1.08122 6.00024 1.08122C7.60187 1.08122 7.79206 1.08751 8.42506 1.11613C9.01006 1.14278 9.32749 1.24097 9.53933 1.32259C9.81946 1.43121 10.0193 1.56162 10.2295 1.77154C10.4396 1.98147 10.5693 2.18169 10.6783 2.46191C10.7607 2.67318 10.8581 2.99134 10.8847 3.5765C10.9138 4.20969 10.9196 4.39921 10.9196 6.00202C10.9196 7.60484 10.9138 7.79435 10.8847 8.42754C10.8581 9.01271 10.7602 9.33076 10.6783 9.54213C10.5693 9.82235 10.4394 10.0223 10.2295 10.232C10.0196 10.4418 9.81946 10.5719 9.53933 10.681C9.32812 10.7634 9.01006 10.8608 8.42506 10.8874C7.79258 10.9165 7.60259 10.9223 6.00024 10.9223C4.39789 10.9223 4.20842 10.9165 3.57614 10.8874ZM3.52646 0.0363479C2.8877 0.0654455 2.45122 0.166759 2.07003 0.315128C1.67527 0.468346 1.34108 0.673901 1.00713 1.00742C0.673179 1.34094 0.468211 1.67575 0.315037 2.07063C0.166711 2.45217 0.0654266 2.88853 0.0363375 3.52748C0.00676827 4.16743 0 4.37203 0 6.00197C0 7.63192 0.00676827 7.83651 0.0363375 8.47647C0.0654266 9.11546 0.166711 9.55178 0.315037 9.93331C0.468211 10.328 0.673227 10.6632 1.00713 10.9965C1.34103 11.3299 1.67527 11.5352 2.07003 11.6888C2.45194 11.8372 2.8877 11.9385 3.52646 11.9676C4.16657 11.9967 4.37077 12.0039 6.00024 12.0039C7.62971 12.0039 7.83425 11.9972 8.47402 11.9676C9.11283 11.9385 9.54902 11.8372 9.93045 11.6888C10.325 11.5352 10.6594 11.33 10.9934 10.9965C11.3273 10.663 11.5318 10.328 11.6854 9.93331C11.8338 9.55178 11.9355 9.11541 11.9641 8.47647C11.9932 7.83603 12 7.63192 12 6.00197C12 4.37203 11.9932 4.16743 11.9641 3.52748C11.9351 2.88849 11.8338 2.45193 11.6854 2.07063C11.5318 1.67599 11.3268 1.34146 10.9934 1.00742C10.6599 0.673373 10.325 0.468346 9.93093 0.315128C9.54902 0.166759 9.11278 0.0649654 8.4745 0.0363479C7.83473 0.00725038 7.63019 0 6.00072 0C4.37125 0 4.16657 0.00677023 3.52646 0.0363479Z" fill="#807F7D"/>
</svg>
