<svg viewBox="0 0 1560 976" fill="none" xmlns="http://www.w3.org/2000/svg">
<g clip-path="url(#clip0_2764_29487)">
<path d="M136.874 662.548C200.039 649.584 247.462 678.542 282.509 716.396C287.598 721.896 292.377 727.621 296.848 733.569C299.262 736.74 301.591 739.911 303.892 743.138C332.177 782.423 355.636 827.741 349.659 878.531C340.146 959.907 259.331 993.019 184.101 1000.48C178.292 1001.07 172.483 1001.49 166.647 1001.69C128.877 1003.12 84.7377 997.368 54.9653 973.965C30.9553 954.85 15.2694 927.188 11.1906 896.77C5.71877 857.934 14.5298 817.723 29.5423 780.711C33.583 770.75 37.9605 761.069 42.8431 751.612C58.5009 720.746 80.2199 688.841 112.181 671.639C119.926 667.425 128.245 664.362 136.874 662.548Z" fill="white"/>
<path fill-rule="evenodd" clip-rule="evenodd" d="M266.451 708.016C238.738 682.218 204.477 663.732 162.153 665.181C159.055 665.287 156.458 662.862 156.352 659.764C156.246 656.667 158.671 654.069 161.769 653.963C207.949 652.382 244.961 672.676 274.099 699.8C276.368 701.912 276.495 705.463 274.383 707.732C272.271 710.001 268.72 710.128 266.451 708.016Z" fill="#9D9D9D"/>
<path d="M15.9353 922.108C12.9289 913.939 10.8029 905.473 9.59362 896.853C4.17791 857.933 13.1012 817.834 28.254 780.822C32.3228 770.889 36.8405 761.18 41.667 751.752C57.4371 720.885 79.3244 689.008 111.454 671.807" stroke="#9D9D9D" stroke-width="11.2243" stroke-linecap="round" stroke-linejoin="round"/>
<path fill-rule="evenodd" clip-rule="evenodd" d="M346.315 825.909C349.341 825.239 352.337 827.15 353.007 830.176C356.527 846.074 357.355 862.45 355.459 878.623L355.458 878.634C350.363 921.332 326.404 951.323 294.283 971.436C262.319 991.451 222.169 1001.79 183.85 1005.65L183.823 1005.65C177.874 1006.22 171.931 1006.65 165.942 1006.88C127.61 1008.38 81.5705 1002.76 50.0315 978.196L50.0248 978.191C44.9042 974.191 40.1184 969.779 35.7152 965C33.6149 962.721 33.7601 959.171 36.0395 957.07C38.3189 954.97 41.8693 955.115 43.9696 957.395C47.9586 961.724 52.2941 965.72 56.933 969.345C85.2755 991.415 127.961 997.132 165.503 995.66L165.508 995.66C171.243 995.441 176.967 995.028 182.741 994.476C220.042 990.724 258.329 980.707 288.326 961.923C318.169 943.236 339.696 915.985 344.312 877.309C346.061 862.385 345.296 847.273 342.048 832.602C341.378 829.575 343.289 826.579 346.315 825.909Z" fill="#9D9D9D"/>
<path d="M170.437 684.181C176.947 674.837 178.603 659.628 170.774 645.654C163.11 632.863 151.711 622.727 138.111 616.611C132.331 630.165 123.043 659.853 150.486 678.962" fill="url(#paint0_linear_2764_29487)"/>
<path fill-rule="evenodd" clip-rule="evenodd" d="M136.069 611.385C137.473 610.836 139.038 610.876 140.413 611.494C155.059 618.08 167.335 628.995 175.588 642.771C175.616 642.817 175.643 642.864 175.67 642.912C184.498 658.67 182.84 676.197 175.042 687.39C173.27 689.934 169.772 690.559 167.229 688.787C164.686 687.015 164.061 683.517 165.832 680.974C171.044 673.494 172.701 660.638 165.917 648.468C159.864 638.394 151.299 630.109 141.105 624.398C139.01 630.397 137.192 637.853 137.449 645.516C137.783 655.479 141.6 665.937 153.693 674.357C156.237 676.129 156.863 679.626 155.092 682.17C153.32 684.714 149.823 685.34 147.279 683.569C131.928 672.88 126.668 658.939 126.231 645.892C125.804 633.161 129.948 621.447 132.949 614.41C133.54 613.024 134.665 611.934 136.069 611.385Z" fill="#9D9D9D"/>
<path d="M398.965 741.118C391.052 717.687 379.323 700.458 372.869 702.674L272.243 726.189C264.33 728.995 265.733 754.25 275.386 782.816C285.039 811.382 299.294 832.427 307.207 829.874L333.921 817.92L357.969 807.144L401.519 787.502C408.001 785.313 406.878 764.548 398.965 741.118Z" fill="white"/>
<path d="M205.511 811.128C204.369 805.953 201.76 801.217 197.995 797.487C194.23 793.758 189.47 791.193 184.284 790.1C179.098 789.007 173.708 789.433 168.758 791.326C163.808 793.219 159.509 796.5 156.376 800.774V800.914C158.06 812.335 165.159 826.73 176.019 828.975C186.878 831.22 199.281 820.978 205.427 811.213L205.511 811.128Z" fill="#FFAFA7"/>
<path fill-rule="evenodd" clip-rule="evenodd" d="M211.729 771.621C214.271 769.846 217.769 770.468 219.544 773.009C222.273 776.917 224.47 777.258 225.334 777.293C225.923 777.316 226.425 777.204 226.767 777.089C226.929 777.035 227.037 776.986 227.08 776.965C229.707 775.458 233.072 776.308 234.66 778.908C236.276 781.553 235.442 785.007 232.797 786.623L229.871 781.834C232.797 786.623 232.793 786.625 232.79 786.627L232.783 786.631L232.769 786.64L232.738 786.659L232.666 786.701C232.614 786.731 232.553 786.766 232.484 786.804C232.346 786.88 232.172 786.97 231.967 787.07C231.556 787.268 231.007 787.505 230.338 787.73C229.008 788.176 227.13 788.597 224.889 788.508C220.091 788.318 214.824 785.853 210.342 779.435C208.567 776.894 209.188 773.395 211.729 771.621Z" fill="#9D9D9D"/>
<path fill-rule="evenodd" clip-rule="evenodd" d="M144.186 757.365C146.728 755.59 150.226 756.212 152.001 758.753C154.73 762.661 156.927 763.003 157.791 763.037C158.38 763.06 158.882 762.948 159.224 762.833C159.386 762.779 159.494 762.73 159.537 762.709C162.164 761.202 165.529 762.052 167.117 764.653C168.733 767.298 167.899 770.752 165.254 772.367L162.328 767.578C165.254 772.367 165.25 772.369 165.247 772.371L165.24 772.376L165.226 772.384L165.195 772.403L165.123 772.445C165.071 772.475 165.01 772.51 164.941 772.548C164.803 772.624 164.629 772.715 164.424 772.814C164.013 773.012 163.464 773.249 162.795 773.474C161.465 773.92 159.587 774.341 157.346 774.252C152.549 774.062 147.281 771.597 142.799 765.179C141.024 762.638 141.645 759.14 144.186 757.365Z" fill="#9D9D9D"/>
<path fill-rule="evenodd" clip-rule="evenodd" d="M406.612 785.179C407.879 788.008 406.613 791.328 403.784 792.595L319.686 830.252C316.857 831.519 313.537 830.253 312.27 827.424C311.004 824.595 312.27 821.275 315.099 820.008L399.197 782.351C402.025 781.084 405.346 782.35 406.612 785.179Z" fill="#9D9D9D"/>
<path fill-rule="evenodd" clip-rule="evenodd" d="M378.249 701.374C378.952 704.393 377.074 707.41 374.056 708.113L274.294 731.34C274.176 731.516 273.992 731.851 273.778 732.444C273.216 734.006 272.793 736.511 272.732 740.037C272.61 747.025 273.922 756.709 276.752 767.758C277.837 771.987 279.142 776.359 280.672 780.875C281.666 783.811 280.092 786.997 277.157 787.991C274.221 788.986 271.035 787.412 270.041 784.476C268.428 779.714 267.04 775.07 265.879 770.544L265.879 770.543C262.901 758.919 261.364 748.175 261.509 739.842C261.581 735.707 262.07 731.829 263.218 728.641C264.335 725.539 266.471 722.083 270.475 720.732C270.646 720.674 270.821 720.624 270.997 720.583L371.51 697.181C374.529 696.478 377.546 698.355 378.249 701.374ZM274.428 731.172C274.429 731.173 274.421 731.182 274.404 731.196C274.42 731.178 274.428 731.171 274.428 731.172Z" fill="#9D9D9D"/>
<path d="M372.781 702.647C379.291 700.458 390.965 717.659 398.85 741.09C406.735 764.521 407.857 785.285 401.375 787.474C394.893 789.663 383.22 772.462 375.307 749.031C367.394 725.6 366.411 704.835 372.781 702.647Z" fill="white"/>
<path fill-rule="evenodd" clip-rule="evenodd" d="M373.731 708.053C373.731 708.052 373.747 708.055 373.78 708.066C373.748 708.06 373.732 708.055 373.731 708.053ZM374.864 708.724C374.918 708.764 374.974 708.807 375.031 708.852C376.517 710.016 378.453 712.163 380.655 715.411C385.015 721.837 389.703 731.504 393.531 742.879C397.359 754.255 399.475 764.793 399.896 772.552C400.109 776.472 399.87 779.355 399.393 781.182C399.372 781.263 399.351 781.34 399.331 781.413C399.271 781.368 399.209 781.321 399.145 781.27C397.661 780.106 395.726 777.957 393.522 774.709C389.162 768.28 384.466 758.611 380.624 747.235C376.786 735.871 374.698 725.338 374.293 717.58C374.088 713.661 374.331 710.769 374.808 708.932C374.827 708.859 374.846 708.79 374.864 708.724ZM398.846 782.604C398.845 782.603 398.855 782.588 398.877 782.564C398.857 782.593 398.846 782.605 398.846 782.604ZM400.388 782.054C400.421 782.06 400.437 782.066 400.438 782.068C400.438 782.069 400.422 782.066 400.388 782.054ZM375.331 707.527C375.349 707.5 375.359 707.488 375.36 707.49C375.36 707.491 375.351 707.505 375.331 707.527ZM389.945 709.11C395.021 716.594 400.112 727.244 404.169 739.299C408.225 751.354 410.614 762.914 411.104 771.943C411.347 776.416 411.145 780.599 410.255 784.013C409.435 787.157 407.566 791.306 403.171 792.791C398.773 794.276 394.772 792.106 392.216 790.1C389.441 787.923 386.748 784.717 384.233 781.009C379.158 773.527 374.061 762.88 369.99 750.826C365.914 738.759 363.555 727.195 363.084 718.165C362.85 713.69 363.061 709.516 363.944 706.112C364.751 703.001 366.59 698.839 370.958 697.339L370.993 697.326L370.993 697.327C375.387 695.849 379.387 698.006 381.953 700.016C384.733 702.195 387.429 705.402 389.945 709.11Z" fill="#9D9D9D"/>
<path fill-rule="evenodd" clip-rule="evenodd" d="M477.648 695.394C480.319 700.61 481.035 707.155 479.439 714.493L479.433 714.521C476.243 728.794 467.859 739.392 454.821 745.786C458.285 747.703 462.214 749.338 466.496 750.684C477.314 754.085 489.686 755.411 500.594 755.04C511.76 754.66 520.392 752.536 524.358 749.886C526.614 748.379 529.663 748.986 531.17 751.242C532.676 753.497 532.069 756.546 529.814 758.053C523.468 762.292 512.5 764.461 500.928 764.855C489.098 765.258 475.594 763.84 463.55 760.053C456.222 757.75 449.165 754.482 443.367 750.007C428.344 754 409.199 753.933 386.352 749.91C383.681 749.44 381.897 746.894 382.367 744.223C382.838 741.552 385.384 739.768 388.055 740.238C407.228 743.613 422.937 743.956 435.284 741.743C434.896 741.199 434.523 740.644 434.167 740.077C427.71 729.807 427.257 716.773 434.691 701.33C434.725 701.261 434.759 701.193 434.796 701.125C442.08 687.648 454.478 682.036 465.176 685.074C470.463 686.576 474.967 690.158 477.648 695.394ZM445.736 738.986C445.838 738.949 445.94 738.911 446.041 738.874C459.194 733.998 466.997 725.115 469.845 712.393C471.052 706.83 470.347 702.684 468.906 699.87C467.473 697.072 465.171 695.283 462.492 694.522C457.275 693.04 449.14 695.322 443.49 705.695C437.189 718.846 438.264 728.142 442.481 734.849C443.395 736.303 444.485 737.682 445.736 738.986Z" fill="#9D9D9D"/>
<path d="M300.303 829.369C301.232 834.703 300.778 840.187 298.985 845.296C297.192 850.405 294.12 854.969 290.061 858.552C288.426 860.011 287.172 861.848 286.409 863.902C285.646 865.956 285.397 868.165 285.683 870.338C286.283 875.087 285.788 879.91 284.237 884.438C282.685 888.966 280.118 893.079 276.732 896.462C274.751 898.539 272.181 899.958 269.369 900.528C266.556 901.098 263.636 900.793 261.003 899.652C258.37 898.511 256.15 896.59 254.642 894.148C253.134 891.706 252.412 888.861 252.572 885.996C254.105 863.2 261.871 841.263 275.02 822.579C276.691 820.29 279.016 818.562 281.688 817.62C284.36 816.678 287.255 816.568 289.991 817.303C292.727 818.037 295.177 819.584 297.017 821.737C298.858 823.891 300.004 826.552 300.303 829.369Z" fill="#FBFFE7"/>
<path d="M284.843 880.888C285.32 895.171 257.204 915.88 215.449 921.548C212.557 922.114 209.575 922.022 206.724 921.279C203.873 920.535 201.225 919.16 198.978 917.255C193.927 912.541 192.552 905.02 192.327 898.37C191.626 876.595 199.735 857.373 213.934 841.182C224.793 828.808 240.03 818.425 250.834 806.724C257.026 799.989 262.853 793.077 268.316 785.987C269.64 784.275 271.405 782.956 273.423 782.171C275.913 781.104 278.705 780.974 281.283 781.804C283.862 782.634 286.053 784.369 287.453 786.689C290.862 791.987 292.448 798.253 291.971 804.535C290.792 820.361 282.739 833.718 258.859 840.341" fill="#FBFFE7"/>
<path d="M284.843 880.888C285.32 895.171 257.204 915.88 215.449 921.548C212.557 922.114 209.575 922.022 206.724 921.279C203.873 920.535 201.225 919.16 198.978 917.255C193.927 912.541 192.552 905.02 192.327 898.37C191.626 876.595 199.735 857.373 213.934 841.182C224.793 828.808 240.03 818.425 250.834 806.724C257.026 799.989 262.853 793.077 268.316 785.987C269.64 784.275 271.405 782.956 273.423 782.171C275.913 781.104 278.705 780.974 281.283 781.804C283.862 782.634 286.053 784.369 287.453 786.689C290.862 791.987 292.448 798.253 291.971 804.535C290.792 820.361 282.739 833.718 258.859 840.341" stroke="#9D9D9D" stroke-width="11.2243" stroke-linecap="round" stroke-linejoin="round"/>
<path d="M298.621 838.066C299.137 842.723 298.206 847.426 295.955 851.536C289.978 862.227 272.188 870.757 254.145 871.178" fill="#FBFFE7"/>
<path d="M298.621 838.066C299.137 842.723 298.206 847.426 295.955 851.536C289.978 862.227 272.188 870.757 254.145 871.178" stroke="#9D9D9D" stroke-width="11.2243" stroke-linecap="round" stroke-linejoin="round"/>
<path d="M407.269 832.342C408.214 837.681 407.768 843.173 405.974 848.289C404.18 853.405 401.099 857.974 397.027 861.553C395.388 863.009 394.131 864.845 393.368 866.9C392.605 868.955 392.358 871.166 392.649 873.339C393.255 878.088 392.764 882.913 391.212 887.442C389.66 891.971 387.089 896.084 383.698 899.463C381.722 901.533 379.16 902.949 376.356 903.521C373.552 904.093 370.64 903.794 368.011 902.664C365.382 901.534 363.162 899.628 361.647 897.2C360.132 894.772 359.396 891.939 359.538 889.081C361.071 866.285 368.836 844.348 381.986 825.664C383.65 823.379 385.965 821.65 388.628 820.703C391.291 819.756 394.178 819.636 396.911 820.358C399.644 821.08 402.095 822.61 403.943 824.748C405.791 826.887 406.95 829.534 407.269 832.342Z" fill="#FBFFE7"/>
<path d="M391.805 883.889C392.282 898.172 364.166 918.881 322.411 924.549C319.52 925.115 316.538 925.023 313.686 924.28C310.835 923.536 308.187 922.161 305.94 920.256C300.889 915.514 299.514 908.022 299.289 901.371C298.616 879.596 306.697 860.346 320.896 844.183C331.755 831.809 346.992 821.426 357.796 809.725C364.007 802.99 369.834 796.078 375.278 788.988C376.592 787.228 378.37 785.867 380.413 785.06C382.881 783.989 385.655 783.857 388.213 784.689C390.771 785.521 392.937 787.26 394.303 789.577C397.716 794.874 399.302 801.141 398.821 807.424C397.67 823.222 389.589 836.579 365.709 843.229" fill="#FBFFE7"/>
<path d="M391.805 883.889C392.282 898.172 364.166 918.881 322.411 924.549C319.52 925.115 316.538 925.023 313.686 924.28C310.835 923.536 308.187 922.161 305.94 920.256C300.889 915.514 299.514 908.022 299.289 901.371C298.616 879.596 306.697 860.346 320.896 844.183C331.755 831.809 346.992 821.426 357.796 809.725C364.007 802.99 369.834 796.078 375.278 788.988C376.592 787.228 378.37 785.867 380.413 785.06C382.881 783.989 385.655 783.857 388.213 784.689C390.771 785.521 392.937 787.26 394.303 789.577C397.716 794.874 399.302 801.141 398.821 807.424C397.67 823.222 389.589 836.579 365.709 843.229" stroke="#9D9D9D" stroke-width="11.2243" stroke-linecap="round" stroke-linejoin="round"/>
<path d="M405.616 841.098C406.074 845.768 405.095 850.468 402.81 854.567C396.833 865.258 379.043 873.76 361.028 874.209" fill="#FBFFE7"/>
<path d="M405.616 841.098C406.074 845.768 405.095 850.468 402.81 854.567C396.833 865.258 379.043 873.76 361.028 874.209" stroke="#9D9D9D" stroke-width="11.2243" stroke-linecap="round" stroke-linejoin="round"/>
<path d="M527.188 753.906C642.688 695.406 829.634 683.127 987.765 582.975C1097.33 513.584 1179.11 446.751 1217.53 391M1217.53 391C1248.43 346.168 1262.48 305.673 1269.6 269.398C1280.28 214.986 1261.87 79.1609 1175.19 133.655C1099.95 180.964 1072.52 374.393 1217.53 391ZM1217.53 391C1223.57 391.691 1229.91 392.076 1236.56 392.131C1402.8 393.502 1504.53 317.302 1536.56 292.765C1562.19 273.136 1648.44 200.958 1661 168.759" stroke="#9D9D9D" stroke-width="9.8" stroke-linecap="round" stroke-dasharray="24 24"/>
</g>
<defs>
<linearGradient id="paint0_linear_2764_29487" x1="131.812" y1="688.925" x2="189.521" y2="659.245" gradientUnits="userSpaceOnUse">
<stop offset="0.046875" stop-color="#7CEFA7"/>
<stop offset="1" stop-color="#8FD3F4"/>
</linearGradient>
<clipPath id="clip0_2764_29487">
<rect width="1560" height="976" fill="white"/>
</clipPath>
</defs>
</svg>
