<svg viewBox="0 0 325 142" fill="none" xmlns="http://www.w3.org/2000/svg">
<rect width="325" height="142" rx="28" fill="#FFFDFA"/>
<path d="M69.159 41.945C72.024 41.945 73.644 43.31 73.644 45.5C73.644 47.555 72.234 48.875 69.714 49.04V51.89H75.024C75.294 51.89 75.414 52.1 75.414 52.37C75.414 52.625 75.294 52.835 75.024 52.835H63.294C63.024 52.835 62.904 52.625 62.904 52.37C62.904 52.1 63.024 51.89 63.294 51.89H68.619V49.04C66.084 48.875 64.674 47.555 64.674 45.5C64.674 43.31 66.294 41.945 69.159 41.945ZM69.159 42.875C66.864 42.875 65.769 44 65.769 45.5C65.769 47 66.864 48.125 69.159 48.125C71.454 48.125 72.549 47 72.549 45.5C72.549 44 71.454 42.875 69.159 42.875ZM86.1863 42.2C86.9663 42.2 87.2213 42.44 87.2213 43.205V45.155C87.2213 45.92 86.9663 46.16 86.1863 46.16H79.7513C79.5413 46.16 79.4663 46.235 79.4663 46.445V48.02C79.4663 48.215 79.5413 48.29 79.7513 48.29H87.2063C87.4613 48.29 87.5813 48.5 87.5813 48.755C87.5813 49.01 87.4613 49.235 87.2063 49.235H83.3663V51.89H88.6763C88.9463 51.89 89.0663 52.1 89.0663 52.37C89.0663 52.625 88.9463 52.835 88.6763 52.835H76.9463C76.6763 52.835 76.5563 52.625 76.5563 52.37C76.5563 52.1 76.6763 51.89 76.9463 51.89H82.2713V49.235H79.4213C78.6413 49.235 78.3863 48.995 78.3863 48.23V46.265C78.3863 45.5 78.6413 45.26 79.4213 45.26H85.8713C86.0663 45.26 86.1563 45.185 86.1563 44.975V43.415C86.1563 43.205 86.0663 43.13 85.8713 43.13H78.7313C78.4763 43.13 78.3563 42.92 78.3563 42.665C78.3563 42.41 78.4763 42.2 78.7313 42.2H86.1863ZM97.9787 42.455C98.2337 42.455 98.3537 42.665 98.3537 42.935C98.3537 43.19 98.2337 43.415 97.9787 43.415H95.1887V45.14C95.1887 46.475 95.4587 47.15 96.4037 48.125C97.0787 48.8 97.7687 49.46 98.3087 49.925C98.5337 50.12 98.4737 50.435 98.3087 50.615C98.1137 50.795 97.8437 50.87 97.6187 50.66C97.1237 50.24 96.5387 49.67 95.8637 48.995C94.9187 48.05 94.7237 47.66 94.6487 47.33H94.6337C94.5587 47.675 94.3487 48.065 93.4187 49.01C92.7437 49.685 92.1437 50.255 91.4537 50.855C91.2137 51.065 90.9287 50.975 90.7637 50.795C90.5837 50.585 90.5387 50.285 90.7637 50.105C91.5137 49.445 92.1887 48.8 92.8637 48.125C93.8087 47.15 94.0787 46.475 94.0787 45.14V43.415H91.2287C90.9737 43.415 90.8537 43.19 90.8537 42.935C90.8537 42.665 90.9737 42.455 91.2287 42.455H97.9787ZM100.784 41.39C101.069 41.39 101.339 41.525 101.339 41.84V53.78C101.339 54.095 101.069 54.23 100.784 54.23C100.514 54.23 100.244 54.095 100.244 53.78V41.84C100.244 41.525 100.514 41.39 100.784 41.39ZM108.826 42.305C109.111 42.305 109.381 42.44 109.381 42.755V49.475C109.381 49.685 109.456 49.76 109.666 49.76C111.826 49.76 113.611 49.64 115.396 49.4C115.636 49.37 115.801 49.535 115.846 49.805C115.876 50.075 115.771 50.33 115.531 50.36C113.971 50.57 112.111 50.705 109.306 50.705C108.526 50.705 108.271 50.465 108.271 49.7V42.755C108.271 42.44 108.541 42.305 108.826 42.305ZM117.541 41.39C117.826 41.39 118.096 41.525 118.096 41.84V46.025H120.001C120.271 46.025 120.391 46.25 120.391 46.505C120.391 46.775 120.271 47 120.001 47H118.096V53.78C118.096 54.095 117.826 54.23 117.541 54.23C117.271 54.23 117.001 54.095 117.001 53.78V41.84C117.001 41.525 117.271 41.39 117.541 41.39ZM130.893 42.2C131.673 42.2 131.928 42.44 131.928 43.205V45.155C131.928 45.92 131.673 46.16 130.893 46.16H124.458C124.248 46.16 124.173 46.235 124.173 46.445V48.02C124.173 48.215 124.248 48.29 124.458 48.29H131.913C132.168 48.29 132.288 48.5 132.288 48.755C132.288 49.01 132.168 49.235 131.913 49.235H128.073V51.89H133.383C133.653 51.89 133.773 52.1 133.773 52.37C133.773 52.625 133.653 52.835 133.383 52.835H121.653C121.383 52.835 121.263 52.625 121.263 52.37C121.263 52.1 121.383 51.89 121.653 51.89H126.978V49.235H124.128C123.348 49.235 123.093 48.995 123.093 48.23V46.265C123.093 45.5 123.348 45.26 124.128 45.26H130.578C130.773 45.26 130.863 45.185 130.863 44.975V43.415C130.863 43.205 130.773 43.13 130.578 43.13H123.438C123.183 43.13 123.063 42.92 123.063 42.665C123.063 42.41 123.183 42.2 123.438 42.2H130.893ZM142.656 42.08C144.951 42.08 146.046 43.58 146.046 45.485C146.046 47.375 144.951 48.875 142.656 48.875C140.361 48.875 139.266 47.375 139.266 45.485C139.266 43.58 140.361 42.08 142.656 42.08ZM142.656 43.025C140.991 43.025 140.331 44.165 140.331 45.485C140.331 46.79 140.991 47.93 142.656 47.93C144.321 47.93 144.981 46.79 144.981 45.485C144.981 44.165 144.321 43.025 142.656 43.025ZM149.256 41.39C149.526 41.39 149.796 41.525 149.796 41.84V50.99C149.796 51.305 149.526 51.44 149.256 51.44C148.971 51.44 148.701 51.305 148.701 50.99V41.84C148.701 41.525 148.971 41.39 149.256 41.39ZM141.846 50.27C142.131 50.27 142.401 50.405 142.401 50.72V53.66C142.401 53.855 142.476 53.93 142.686 53.93H149.796C150.066 53.93 150.186 54.155 150.186 54.41C150.186 54.665 150.066 54.89 149.796 54.89H142.326C141.546 54.89 141.291 54.65 141.291 53.885V50.72C141.291 50.405 141.561 50.27 141.846 50.27ZM155.723 45.515C157.568 45.515 158.483 46.76 158.483 48.35C158.483 49.94 157.568 51.185 155.723 51.185C153.878 51.185 152.978 49.94 152.978 48.35C152.978 46.76 153.878 45.515 155.723 45.515ZM155.723 41.48C155.993 41.48 156.263 41.615 156.263 41.93V43.445H158.723C158.993 43.445 159.113 43.655 159.113 43.91C159.113 44.18 158.993 44.39 158.723 44.39H152.543C152.288 44.39 152.168 44.18 152.168 43.91C152.168 43.655 152.288 43.445 152.543 43.445H155.183V41.93C155.183 41.615 155.453 41.48 155.723 41.48ZM155.723 46.445C154.508 46.445 153.953 47.285 153.953 48.35C153.953 49.43 154.508 50.27 155.723 50.27C156.953 50.27 157.508 49.43 157.508 48.35C157.508 47.285 156.953 46.445 155.723 46.445ZM163.358 41.39C163.628 41.39 163.883 41.525 163.883 41.825V53.795C163.883 54.095 163.628 54.23 163.358 54.23C163.103 54.23 162.848 54.095 162.848 53.795V47.195H160.883V53.165C160.883 53.465 160.628 53.6 160.358 53.6C160.103 53.6 159.848 53.465 159.848 53.165V41.975C159.848 41.675 160.103 41.54 160.358 41.54C160.628 41.54 160.883 41.675 160.883 41.975V46.25H162.848V41.825C162.848 41.525 163.103 41.39 163.358 41.39ZM175.585 42.44C176.365 42.44 176.62 42.68 176.62 43.445V45.14C176.62 47.645 175.855 48.395 171.205 51.26C170.98 51.395 170.695 51.305 170.545 51.08C170.395 50.855 170.395 50.525 170.635 50.375C175 47.72 175.54 47.165 175.54 45.095V43.67C175.54 43.475 175.465 43.4 175.255 43.4H170.98C170.71 43.4 170.59 43.175 170.59 42.92C170.59 42.665 170.71 42.44 170.98 42.44H175.585ZM180.295 41.39C180.58 41.39 180.85 41.525 180.85 41.84V53.78C180.85 54.095 180.58 54.23 180.295 54.23C180.025 54.23 179.755 54.095 179.755 53.78V41.84C179.755 41.525 180.025 41.39 180.295 41.39ZM194.443 41.39C194.698 41.39 194.953 41.525 194.953 41.84V48.68C194.953 48.98 194.698 49.115 194.443 49.115C194.158 49.115 193.918 48.98 193.918 48.68V45.605H191.863V47.3C191.863 48.065 191.638 48.29 190.843 48.29H189.328C188.533 48.29 188.308 48.065 188.308 47.3V42.485C188.308 42.215 188.548 42.095 188.788 42.095C189.028 42.095 189.268 42.215 189.268 42.485V44.42H190.903V42.485C190.903 42.215 191.143 42.095 191.383 42.095C191.623 42.095 191.863 42.215 191.863 42.485V44.66H193.918V41.84C193.918 41.525 194.158 41.39 194.443 41.39ZM187.873 49.565C188.143 49.565 188.398 49.7 188.398 50.015V50.825C188.398 51.815 188.563 52.175 189.253 52.955C189.508 53.24 189.808 53.57 190.078 53.81C190.243 53.975 190.363 53.975 190.543 53.81C190.798 53.57 191.113 53.24 191.368 52.955C192.043 52.175 192.208 51.815 192.208 50.825V50.015C192.208 49.7 192.478 49.565 192.748 49.565C193.018 49.565 193.288 49.7 193.288 50.015V50.825C193.288 51.83 193.468 52.22 194.278 52.955C194.653 53.315 195.208 53.75 195.748 54.155C195.943 54.305 195.943 54.575 195.778 54.8C195.598 55.01 195.343 55.07 195.103 54.89C194.593 54.5 194.143 54.125 193.798 53.825C193.108 53.225 192.838 52.895 192.748 52.595H192.733C192.643 52.91 192.418 53.18 191.743 53.9C191.488 54.17 191.233 54.425 190.978 54.665C190.468 55.13 190.153 55.13 189.628 54.665C189.373 54.425 189.133 54.17 188.863 53.9C188.188 53.18 187.978 52.91 187.888 52.595H187.873C187.783 52.91 187.513 53.24 186.808 53.84C186.478 54.125 186.013 54.515 185.503 54.905C185.278 55.07 185.008 55.025 184.843 54.8C184.663 54.59 184.678 54.305 184.858 54.155C185.413 53.75 185.953 53.315 186.343 52.955C187.153 52.22 187.333 51.83 187.333 50.825V50.015C187.333 49.7 187.603 49.565 187.873 49.565ZM184.318 42.095C184.558 42.095 184.798 42.215 184.798 42.485V44.42H186.448V42.485C186.448 42.215 186.673 42.095 186.913 42.095C187.153 42.095 187.408 42.215 187.408 42.485V47.3C187.408 48.065 187.168 48.29 186.373 48.29H184.858C184.078 48.29 183.838 48.065 183.838 47.3V42.485C183.838 42.215 184.078 42.095 184.318 42.095ZM184.798 47.135C184.798 47.33 184.873 47.39 185.068 47.39H186.178C186.373 47.39 186.448 47.33 186.448 47.135V45.32H184.798V47.135ZM189.268 47.135C189.268 47.33 189.343 47.39 189.523 47.39H190.648C190.828 47.39 190.903 47.33 190.903 47.135V45.32H189.268V47.135ZM203.76 42.275C204.03 42.275 204.15 42.485 204.15 42.74C204.15 43.01 204.03 43.22 203.76 43.22H199.245C199.035 43.22 198.96 43.295 198.96 43.49V47.84C198.96 48.05 199.035 48.125 199.245 48.125C201.45 48.125 203.235 48.005 205.02 47.765C205.26 47.735 205.425 47.9 205.47 48.17C205.5 48.44 205.395 48.695 205.155 48.725C203.595 48.935 201.735 49.07 198.9 49.07C198.12 49.07 197.865 48.83 197.865 48.065V43.28C197.865 42.515 198.12 42.275 198.9 42.275H203.76ZM207.705 41.39C207.975 41.39 208.245 41.525 208.245 41.84V50.99C208.245 51.305 207.975 51.44 207.705 51.44C207.42 51.44 207.165 51.305 207.165 50.99V45.95H203.745C203.475 45.95 203.355 45.74 203.355 45.47C203.355 45.215 203.475 45.005 203.745 45.005H207.165V41.84C207.165 41.525 207.42 41.39 207.705 41.39ZM200.235 50.36C200.52 50.36 200.79 50.495 200.79 50.81V53.66C200.79 53.855 200.865 53.93 201.075 53.93H208.245C208.515 53.93 208.635 54.155 208.635 54.41C208.635 54.665 208.515 54.89 208.245 54.89H200.715C199.935 54.89 199.68 54.65 199.68 53.885V50.81C199.68 50.495 199.95 50.36 200.235 50.36ZM220.682 41.645C220.967 41.645 221.237 41.795 221.237 42.11V42.905C221.237 43.865 221.732 44.465 222.812 44.975C223.862 45.47 224.747 45.86 225.632 46.235C225.902 46.355 225.917 46.67 225.842 46.88C225.737 47.12 225.512 47.27 225.197 47.135C224.327 46.775 223.427 46.37 222.512 45.935C221.267 45.335 220.802 44.84 220.697 44.465H220.682C220.577 44.87 220.112 45.35 218.867 45.95C217.952 46.385 217.052 46.79 216.152 47.165C215.852 47.285 215.627 47.12 215.522 46.88C215.432 46.67 215.462 46.355 215.732 46.235C216.617 45.86 217.502 45.47 218.552 44.975C219.632 44.465 220.127 43.865 220.127 42.905V42.11C220.127 41.795 220.397 41.645 220.682 41.645ZM226.562 48.455C226.817 48.455 226.937 48.665 226.937 48.92C226.937 49.175 226.817 49.385 226.562 49.385H221.372V51.8C221.372 52.1 221.132 52.22 220.832 52.22C220.547 52.22 220.292 52.1 220.292 51.8V49.385H214.802C214.547 49.385 214.427 49.175 214.427 48.92C214.427 48.665 214.547 48.455 214.802 48.455H226.562ZM216.767 50.84C217.052 50.84 217.307 50.975 217.307 51.29V53.735C217.307 53.945 217.397 54.02 217.592 54.02H225.032C225.287 54.02 225.407 54.23 225.407 54.485C225.407 54.74 225.287 54.95 225.032 54.95H217.247C216.467 54.95 216.212 54.71 216.212 53.945V51.29C216.212 50.975 216.467 50.84 216.767 50.84ZM233.615 42.305C234.395 42.305 234.65 42.545 234.65 43.31V44.525C234.65 46.655 233.84 47.24 229.22 49.565C228.995 49.685 228.695 49.58 228.575 49.325C228.455 49.1 228.455 48.77 228.725 48.65C233.06 46.52 233.57 46.085 233.57 44.465V43.535C233.57 43.34 233.495 43.265 233.285 43.265H229.04C228.77 43.265 228.65 43.04 228.65 42.785C228.65 42.53 228.77 42.305 229.04 42.305H233.615ZM238.01 41.39C238.295 41.39 238.565 41.525 238.565 41.84V45.32H240.47C240.74 45.32 240.86 45.545 240.86 45.815C240.86 46.07 240.74 46.295 240.47 46.295H238.565V50.99C238.565 51.305 238.295 51.44 238.01 51.44C237.74 51.44 237.47 51.305 237.47 50.99V41.84C237.47 41.525 237.74 41.39 238.01 41.39ZM230.765 50.27C231.05 50.27 231.32 50.405 231.32 50.72V53.66C231.32 53.855 231.395 53.93 231.605 53.93H238.565C238.835 53.93 238.955 54.155 238.955 54.41C238.955 54.665 238.835 54.89 238.565 54.89H231.245C230.465 54.89 230.21 54.65 230.21 53.885V50.72C230.21 50.405 230.48 50.27 230.765 50.27ZM247.987 41.735C250.822 41.735 252.427 42.635 252.427 44.405C252.427 46.175 250.822 47.075 247.987 47.075C245.152 47.075 243.547 46.175 243.547 44.405C243.547 42.635 245.152 41.735 247.987 41.735ZM247.987 42.65C245.707 42.65 244.642 43.31 244.642 44.405C244.642 45.5 245.707 46.16 247.987 46.16C250.267 46.16 251.332 45.5 251.332 44.405C251.332 43.31 250.267 42.65 247.987 42.65ZM253.852 48.605C254.122 48.605 254.242 48.815 254.242 49.085C254.242 49.34 254.122 49.55 253.852 49.55H242.122C241.852 49.55 241.732 49.34 241.732 49.085C241.732 48.815 241.852 48.605 242.122 48.605H253.852ZM244.072 50.84C244.357 50.84 244.612 50.975 244.612 51.29V53.735C244.612 53.945 244.702 54.02 244.897 54.02H252.337C252.592 54.02 252.712 54.23 252.712 54.485C252.712 54.74 252.592 54.95 252.337 54.95H244.552C243.772 54.95 243.517 54.71 243.517 53.945V51.29C243.517 50.975 243.772 50.84 244.072 50.84ZM258.639 42.11C260.619 42.11 261.834 43.175 261.834 44.81V44.975C261.834 45.98 261.309 46.67 260.274 47.6C259.044 48.71 258.909 49.115 258.909 49.865C258.909 50.135 258.654 50.285 258.399 50.285C258.114 50.285 257.859 50.15 257.859 49.85C257.859 48.83 258.039 48.29 259.299 47.165C260.394 46.19 260.739 45.695 260.739 44.975V44.855C260.739 43.805 259.974 43.1 258.654 43.1C257.649 43.1 256.974 43.475 256.404 44C256.179 44.18 255.909 44.15 255.729 43.925C255.534 43.715 255.534 43.43 255.759 43.235C256.389 42.635 257.424 42.11 258.639 42.11ZM258.384 51.725C258.864 51.725 259.224 52.1 259.224 52.565C259.224 53.03 258.864 53.39 258.384 53.39C257.919 53.39 257.544 53.03 257.544 52.565C257.544 52.1 257.919 51.725 258.384 51.725Z" fill="#07BEB8"/>
<path d="M53.6084 89.018C53.8744 89.018 54.1264 89.144 54.1264 89.438V95.71C54.1264 95.906 54.1964 95.976 54.3924 95.976C56.4084 95.976 58.0744 95.864 59.7404 95.64C59.9644 95.612 60.1184 95.766 60.1604 96.018C60.1884 96.27 60.0904 96.508 59.8664 96.536C58.4104 96.732 56.6744 96.858 54.0564 96.858C53.3284 96.858 53.0904 96.634 53.0904 95.92V89.438C53.0904 89.144 53.3424 89.018 53.6084 89.018ZM61.7424 88.164C62.0084 88.164 62.2604 88.29 62.2604 88.584V92.49H64.0384C64.2904 92.49 64.4024 92.7 64.4024 92.938C64.4024 93.19 64.2904 93.4 64.0384 93.4H62.2604V99.728C62.2604 100.022 62.0084 100.148 61.7424 100.148C61.4904 100.148 61.2384 100.022 61.2384 99.728V88.584C61.2384 88.29 61.4904 88.164 61.7424 88.164ZM74.2046 88.92C74.9326 88.92 75.1706 89.144 75.1706 89.858V91.678C75.1706 92.392 74.9326 92.616 74.2046 92.616H68.1986C68.0026 92.616 67.9326 92.686 67.9326 92.882V94.352C67.9326 94.534 68.0026 94.604 68.1986 94.604H75.1566C75.3946 94.604 75.5066 94.8 75.5066 95.038C75.5066 95.276 75.3946 95.486 75.1566 95.486H71.5726V97.964H76.5286C76.7806 97.964 76.8926 98.16 76.8926 98.412C76.8926 98.65 76.7806 98.846 76.5286 98.846H65.5806C65.3286 98.846 65.2166 98.65 65.2166 98.412C65.2166 98.16 65.3286 97.964 65.5806 97.964H70.5506V95.486H67.8906C67.1626 95.486 66.9246 95.262 66.9246 94.548V92.714C66.9246 92 67.1626 91.776 67.8906 91.776H73.9106C74.0926 91.776 74.1766 91.706 74.1766 91.51V90.054C74.1766 89.858 74.0926 89.788 73.9106 89.788H67.2466C67.0086 89.788 66.8966 89.592 66.8966 89.354C66.8966 89.116 67.0086 88.92 67.2466 88.92H74.2046ZM87.2968 88.486C89.9428 88.486 91.4408 89.326 91.4408 90.978C91.4408 92.518 90.1248 93.358 87.8008 93.456V95.08H92.7848C93.0228 95.08 93.1348 95.276 93.1348 95.514C93.1348 95.752 93.0228 95.948 92.7848 95.948H81.8088C81.5708 95.948 81.4588 95.752 81.4588 95.514C81.4588 95.276 81.5708 95.08 81.8088 95.08H86.7928V93.456C84.4548 93.358 83.1528 92.518 83.1528 90.978C83.1528 89.326 84.6508 88.486 87.2968 88.486ZM87.2968 89.34C85.1688 89.34 84.1748 89.956 84.1748 90.978C84.1748 92 85.1688 92.616 87.2968 92.616C89.4248 92.616 90.4188 92 90.4188 90.978C90.4188 89.956 89.4248 89.34 87.2968 89.34ZM83.6428 96.984C83.9088 96.984 84.1468 97.11 84.1468 97.404V99.686C84.1468 99.882 84.2308 99.952 84.4128 99.952H91.3568C91.5948 99.952 91.7068 100.148 91.7068 100.386C91.7068 100.624 91.5948 100.82 91.3568 100.82H84.0908C83.3628 100.82 83.1248 100.596 83.1248 99.882V97.404C83.1248 97.11 83.3628 96.984 83.6428 96.984ZM101.257 89.032C101.495 89.032 101.607 89.228 101.607 89.48C101.607 89.718 101.495 89.928 101.257 89.928H98.7229V91.02C98.7229 92.014 99.0449 92.672 99.7729 93.302C100.403 93.82 101.061 94.324 101.509 94.674C101.733 94.842 101.747 95.094 101.593 95.318C101.453 95.514 101.187 95.584 100.949 95.416C100.515 95.08 99.9829 94.674 99.3389 94.156C98.5969 93.554 98.2889 93.106 98.2189 92.784H98.2049C98.1349 93.12 97.8129 93.582 97.0709 94.184C96.4409 94.716 95.8109 95.192 95.2369 95.612C94.9989 95.78 94.7469 95.682 94.6069 95.5C94.4529 95.304 94.4389 95.024 94.6769 94.842C95.2929 94.394 96.0069 93.848 96.6369 93.316C97.3649 92.7 97.6869 92.028 97.6869 91.034V89.928H95.0689C94.8309 89.928 94.7189 89.718 94.7189 89.48C94.7189 89.228 94.8309 89.032 95.0689 89.032H101.257ZM104.169 88.164C104.421 88.164 104.673 88.29 104.673 88.584V97.124C104.673 97.418 104.421 97.544 104.169 97.544C103.903 97.544 103.665 97.418 103.665 97.124V92.588H101.271C101.033 92.588 100.921 92.392 100.921 92.14C100.921 91.902 101.033 91.692 101.271 91.692H103.665V88.584C103.665 88.29 103.903 88.164 104.169 88.164ZM97.1969 96.452C97.4629 96.452 97.7149 96.578 97.7149 96.872V99.616C97.7149 99.798 97.7849 99.868 97.9809 99.868H104.673C104.925 99.868 105.037 100.078 105.037 100.316C105.037 100.554 104.925 100.764 104.673 100.764H97.6449C96.9169 100.764 96.6789 100.54 96.6789 99.826V96.872C96.6789 96.578 96.9309 96.452 97.1969 96.452ZM111.059 92C112.907 92 113.999 93.134 113.999 94.702C113.999 96.27 112.907 97.404 111.059 97.404C109.211 97.404 108.119 96.27 108.119 94.702C108.119 93.134 109.211 92 111.059 92ZM111.059 88.164C111.325 88.164 111.577 88.29 111.577 88.584V89.998H114.405C114.643 89.998 114.755 90.194 114.755 90.432C114.755 90.684 114.643 90.88 114.405 90.88H107.573C107.321 90.88 107.209 90.684 107.209 90.432C107.209 90.194 107.321 89.998 107.573 89.998H110.541V88.584C110.541 88.29 110.807 88.164 111.059 88.164ZM111.059 92.854C109.813 92.854 109.071 93.61 109.071 94.702C109.071 95.794 109.813 96.55 111.059 96.55C112.305 96.55 113.047 95.794 113.047 94.702C113.047 93.61 112.305 92.854 111.059 92.854ZM116.813 88.164C117.079 88.164 117.331 88.29 117.331 88.584V99.728C117.331 100.022 117.079 100.148 116.813 100.148C116.561 100.148 116.309 100.022 116.309 99.728V88.584C116.309 88.29 116.561 88.164 116.813 88.164ZM126.433 88.248C126.699 88.248 126.937 88.374 126.937 88.654V90.012H129.009C129.261 90.012 129.373 90.208 129.373 90.446C129.373 90.698 129.261 90.894 129.009 90.894H126.937V92.154C126.937 93.302 127.189 93.89 127.889 94.674C128.421 95.262 128.939 95.794 129.289 96.13C129.457 96.284 129.429 96.578 129.247 96.746C129.079 96.928 128.827 96.942 128.645 96.774C128.253 96.396 127.819 95.948 127.427 95.528C126.797 94.856 126.517 94.408 126.461 94.03H126.447C126.377 94.422 126.083 94.884 125.453 95.556C125.061 95.976 124.557 96.494 123.997 97.04C123.829 97.194 123.549 97.18 123.381 97.012C123.199 96.816 123.171 96.55 123.325 96.382C123.913 95.822 124.459 95.262 124.977 94.674C125.691 93.89 125.929 93.302 125.929 92.154V90.894H123.675C123.423 90.894 123.311 90.698 123.311 90.446C123.311 90.208 123.423 90.012 123.675 90.012H125.929V88.654C125.929 88.374 126.181 88.248 126.433 88.248ZM133.489 88.164C133.741 88.164 133.979 88.29 133.979 88.57V99.742C133.979 100.022 133.741 100.148 133.489 100.148C133.251 100.148 133.013 100.022 133.013 99.742V93.442H131.151V99.154C131.151 99.434 130.913 99.56 130.661 99.56C130.423 99.56 130.185 99.434 130.185 99.154V88.71C130.185 88.43 130.423 88.304 130.661 88.304C130.913 88.304 131.151 88.43 131.151 88.71V92.56H133.013V88.57C133.013 88.29 133.251 88.164 133.489 88.164ZM140.268 88.584C142.438 88.584 143.516 89.676 143.516 91.118C143.516 92.574 142.438 93.666 140.268 93.666C138.098 93.666 137.02 92.574 137.02 91.118C137.02 89.676 138.098 88.584 140.268 88.584ZM140.268 89.438C138.728 89.438 138.014 90.18 138.014 91.118C138.014 92.07 138.728 92.798 140.268 92.798C141.808 92.798 142.522 92.07 142.522 91.118C142.522 90.18 141.808 89.438 140.268 89.438ZM146.064 88.164C146.316 88.164 146.568 88.29 146.568 88.584V99.728C146.568 100.022 146.316 100.148 146.064 100.148C145.798 100.148 145.56 100.022 145.56 99.728V97.754H142.984C142.76 97.754 142.648 97.558 142.648 97.32C142.648 97.082 142.76 96.886 142.984 96.886H145.56V88.584C145.56 88.29 145.798 88.164 146.064 88.164ZM144.258 94.604C144.482 94.59 144.622 94.744 144.65 94.982C144.664 95.234 144.552 95.444 144.342 95.458C143.11 95.57 141.92 95.64 140.702 95.696V99.588C140.702 99.882 140.45 100.008 140.198 100.008C139.946 100.008 139.694 99.882 139.694 99.588V95.724C138.644 95.752 137.594 95.766 136.474 95.766C136.222 95.766 136.11 95.57 136.11 95.332C136.11 95.094 136.222 94.898 136.474 94.898C139.036 94.898 141.43 94.856 144.258 94.604ZM155.894 89.032C156.132 89.032 156.244 89.228 156.244 89.48C156.244 89.718 156.132 89.928 155.894 89.928H153.318V90.922C153.318 91.916 153.654 92.588 154.382 93.204C155.012 93.736 155.698 94.268 156.146 94.59C156.384 94.758 156.384 95.024 156.23 95.234C156.09 95.43 155.824 95.5 155.586 95.332C155.152 95.024 154.592 94.59 153.948 94.058C153.206 93.456 152.884 93.008 152.814 92.7H152.8C152.73 93.022 152.394 93.484 151.652 94.086C151.022 94.618 150.364 95.122 149.79 95.528C149.552 95.696 149.3 95.612 149.16 95.43C149.006 95.22 148.978 94.94 149.23 94.772C149.846 94.324 150.588 93.75 151.218 93.218C151.946 92.602 152.282 91.93 152.282 90.936V89.928H149.622C149.384 89.928 149.272 89.718 149.272 89.48C149.272 89.228 149.384 89.032 149.622 89.032H155.894ZM158.554 88.164C158.806 88.164 159.058 88.29 159.058 88.584V97.124C159.058 97.418 158.806 97.544 158.554 97.544C158.288 97.544 158.036 97.418 158.036 97.124V88.584C158.036 88.29 158.288 88.164 158.554 88.164ZM151.638 96.452C151.904 96.452 152.156 96.578 152.156 96.872V99.616C152.156 99.798 152.226 99.868 152.422 99.868H159.058C159.31 99.868 159.422 100.078 159.422 100.316C159.422 100.554 159.31 100.764 159.058 100.764H152.086C151.358 100.764 151.12 100.54 151.12 99.826V96.872C151.12 96.578 151.372 96.452 151.638 96.452ZM168.972 90.978C170.792 90.978 171.814 91.706 171.814 92.84C171.814 93.862 170.974 94.562 169.476 94.688V95.962C170.498 95.92 171.562 95.85 172.668 95.752C172.878 95.738 173.032 95.878 173.046 96.13C173.06 96.354 172.962 96.564 172.738 96.592C170.274 96.802 167.852 96.858 165.248 96.858C165.01 96.858 164.898 96.662 164.898 96.438C164.898 96.214 165.01 96.018 165.248 96.018C166.312 96.018 167.376 96.018 168.482 95.99V94.688C166.97 94.562 166.13 93.876 166.13 92.84C166.13 91.706 167.152 90.978 168.972 90.978ZM174.432 88.164C174.698 88.164 174.936 88.29 174.936 88.584V92.434H176.532C176.784 92.434 176.896 92.644 176.896 92.882C176.896 93.134 176.784 93.344 176.532 93.344H174.936V97.572C174.936 97.866 174.698 97.992 174.432 97.992C174.166 97.992 173.928 97.866 173.928 97.572V88.584C173.928 88.29 174.166 88.164 174.432 88.164ZM167.362 97.656C167.614 97.656 167.866 97.782 167.866 98.076V99.686C167.866 99.882 167.936 99.938 168.132 99.938H174.964C175.188 99.938 175.3 100.134 175.3 100.372C175.3 100.596 175.188 100.792 174.964 100.792H167.81C167.082 100.792 166.844 100.568 166.844 99.854V98.076C166.844 97.782 167.096 97.656 167.362 97.656ZM168.972 87.982C169.238 87.982 169.49 88.108 169.49 88.388V89.312H172.276C172.514 89.312 172.626 89.508 172.626 89.746C172.626 89.984 172.514 90.166 172.276 90.166H165.57C165.332 90.166 165.22 89.984 165.22 89.746C165.22 89.508 165.332 89.312 165.57 89.312H168.454V88.388C168.454 88.108 168.706 87.982 168.972 87.982ZM168.972 91.762C167.684 91.762 167.068 92.21 167.068 92.84C167.068 93.47 167.684 93.918 168.972 93.918C170.26 93.918 170.876 93.47 170.876 92.84C170.876 92.21 170.26 91.762 168.972 91.762ZM182.022 91.524C183.898 91.524 184.99 92.406 184.99 93.68C184.99 94.968 183.898 95.836 182.022 95.836C180.132 95.836 179.04 94.968 179.04 93.68C179.04 92.406 180.132 91.524 182.022 91.524ZM182.022 88.262C182.288 88.262 182.526 88.388 182.526 88.682V89.718H185.438C185.676 89.718 185.788 89.914 185.788 90.152C185.788 90.404 185.676 90.6 185.438 90.6H178.494C178.256 90.6 178.144 90.404 178.144 90.152C178.144 89.914 178.256 89.718 178.494 89.718H181.504V88.682C181.504 88.388 181.756 88.262 182.022 88.262ZM182.022 92.35C180.678 92.35 179.978 92.924 179.978 93.68C179.978 94.45 180.678 95.024 182.022 95.024C183.366 95.024 184.052 94.45 184.052 93.68C184.052 92.924 183.366 92.35 182.022 92.35ZM187.79 88.164C188.042 88.164 188.294 88.29 188.294 88.584V99.728C188.294 100.022 188.042 100.148 187.79 100.148C187.524 100.148 187.286 100.022 187.286 99.728V88.584C187.286 88.29 187.524 88.164 187.79 88.164ZM185.998 96.956C186.222 96.928 186.362 97.096 186.376 97.334C186.404 97.586 186.292 97.796 186.082 97.81C183.478 98.034 181 98.118 178.2 98.118C177.948 98.118 177.836 97.922 177.836 97.684C177.836 97.446 177.948 97.236 178.2 97.236C180.776 97.236 183.17 97.208 185.998 96.956ZM199.356 88.43C200.084 88.43 200.322 88.654 200.322 89.368V90.25C200.322 90.964 200.084 91.188 199.356 91.188H193.35C193.196 91.188 193.126 91.258 193.126 91.412V92.154C193.126 92.308 193.196 92.364 193.35 92.364H200.322C200.546 92.364 200.658 92.56 200.658 92.77C200.658 92.994 200.546 93.176 200.322 93.176H193.098C192.37 93.176 192.132 92.952 192.132 92.238V91.342C192.132 90.628 192.37 90.404 193.098 90.404H199.104C199.272 90.404 199.342 90.348 199.342 90.194V89.452C199.342 89.298 199.272 89.242 199.104 89.242H192.44C192.216 89.242 192.104 89.046 192.104 88.822C192.104 88.612 192.216 88.43 192.44 88.43H199.356ZM201.736 94.282C201.96 94.282 202.072 94.478 202.072 94.702C202.072 94.94 201.96 95.122 201.736 95.122H190.732C190.508 95.122 190.396 94.94 190.396 94.702C190.396 94.478 190.508 94.282 190.732 94.282H201.736ZM199.426 96.228C200.154 96.228 200.392 96.452 200.392 97.166V98.062C200.392 98.776 200.154 99 199.426 99H193.28C193.112 99 193.042 99.056 193.042 99.224V99.952C193.042 100.12 193.112 100.176 193.28 100.176H200.406C200.63 100.176 200.728 100.372 200.728 100.582C200.728 100.792 200.63 100.988 200.406 100.988H193.028C192.3 100.988 192.062 100.778 192.062 100.064V99.154C192.062 98.44 192.3 98.216 193.028 98.216H199.188C199.342 98.216 199.412 98.16 199.412 97.992V97.264C199.412 97.11 199.342 97.04 199.188 97.04H192.37C192.146 97.04 192.034 96.858 192.034 96.634C192.034 96.424 192.146 96.228 192.37 96.228H199.426ZM210.026 89.158C210.278 89.158 210.39 89.354 210.39 89.592C210.39 89.844 210.278 90.04 210.026 90.04H208.514C208.318 90.04 208.248 90.11 208.248 90.292V95.78C208.248 95.962 208.318 96.032 208.514 96.032C209.116 96.032 209.788 95.99 210.334 95.892C210.544 95.85 210.698 96.004 210.726 96.242C210.768 96.494 210.67 96.718 210.446 96.76C209.746 96.872 208.962 96.914 208.22 96.914C207.492 96.914 207.254 96.69 207.254 95.976V90.096C207.254 89.382 207.492 89.158 208.22 89.158H210.026ZM214.016 89.158C214.268 89.158 214.38 89.354 214.38 89.592C214.38 89.844 214.268 90.04 214.016 90.04H212.448C212.252 90.04 212.182 90.11 212.182 90.292V95.78C212.182 95.962 212.252 96.032 212.448 96.032C213.12 96.032 213.96 95.99 214.52 95.878C214.73 95.836 214.884 95.99 214.912 96.228C214.954 96.48 214.856 96.704 214.632 96.746C213.904 96.872 212.966 96.914 212.154 96.914C211.426 96.914 211.188 96.69 211.188 95.976V90.096C211.188 89.382 211.426 89.158 212.154 89.158H214.016ZM216.774 88.164C217.04 88.164 217.278 88.29 217.278 88.584V99.728C217.278 100.022 217.04 100.148 216.774 100.148C216.522 100.148 216.284 100.022 216.284 99.728V93.344H214.478C214.226 93.344 214.114 93.148 214.114 92.896C214.114 92.644 214.226 92.448 214.478 92.448H216.284V88.584C216.284 88.29 216.522 88.164 216.774 88.164ZM225.219 88.318C227.865 88.318 229.363 89.018 229.363 90.502C229.363 91.874 228.047 92.574 225.723 92.658V93.946H230.721C230.945 93.946 231.057 94.142 231.057 94.38C231.057 94.604 230.945 94.8 230.721 94.8H219.717C219.493 94.8 219.381 94.604 219.381 94.38C219.381 94.142 219.493 93.946 219.717 93.946H224.715V92.658C222.377 92.574 221.075 91.874 221.075 90.502C221.075 89.018 222.573 88.318 225.219 88.318ZM228.411 95.948C229.139 95.948 229.377 96.172 229.377 96.886V97.922C229.377 98.636 229.139 98.86 228.411 98.86H222.265C222.111 98.86 222.041 98.916 222.041 99.084V99.952C222.041 100.106 222.111 100.162 222.265 100.162H229.391C229.615 100.162 229.713 100.358 229.713 100.568C229.713 100.792 229.615 100.988 229.391 100.988H222.013C221.285 100.988 221.047 100.764 221.047 100.05V99C221.047 98.286 221.285 98.062 222.013 98.062H228.159C228.327 98.062 228.397 98.006 228.397 97.852V96.984C228.397 96.83 228.327 96.76 228.159 96.76H221.355C221.131 96.76 221.019 96.578 221.019 96.354C221.019 96.144 221.131 95.948 221.355 95.948H228.411ZM225.219 89.158C223.091 89.158 222.097 89.62 222.097 90.502C222.097 91.37 223.091 91.846 225.219 91.846C227.347 91.846 228.341 91.37 228.341 90.502C228.341 89.62 227.347 89.158 225.219 89.158ZM237.261 89.06C237.989 89.06 238.227 89.284 238.227 89.998V92.588C238.227 93.302 237.989 93.526 237.261 93.526H234.181C233.985 93.526 233.915 93.596 233.915 93.778V96.088C233.915 96.27 233.985 96.34 234.181 96.34C236.029 96.34 237.835 96.284 239.375 96.116C239.585 96.088 239.753 96.242 239.781 96.48C239.809 96.76 239.697 96.984 239.473 96.998C238.129 97.152 236.309 97.222 233.873 97.222C233.145 97.222 232.907 96.998 232.907 96.284V93.61C232.907 92.896 233.145 92.672 233.873 92.672H236.953C237.135 92.672 237.219 92.602 237.219 92.406V90.194C237.219 90.012 237.135 89.942 236.953 89.942H233.257C233.019 89.942 232.907 89.746 232.907 89.494C232.907 89.256 233.019 89.06 233.257 89.06H237.261ZM242.091 88.164C242.343 88.164 242.595 88.29 242.595 88.584V99.728C242.595 100.022 242.343 100.148 242.091 100.148C241.839 100.148 241.587 100.022 241.587 99.728V94.702H239.515C239.263 94.702 239.151 94.492 239.151 94.254C239.151 94.016 239.263 93.82 239.515 93.82H241.587V91.776H239.515C239.263 91.776 239.151 91.566 239.151 91.328C239.151 91.09 239.263 90.894 239.515 90.894H241.587V88.584C241.587 88.29 241.839 88.164 242.091 88.164ZM252.593 96.816C252.803 96.788 252.957 96.956 252.971 97.194C252.985 97.446 252.887 97.656 252.663 97.67C250.199 97.88 247.791 97.95 245.215 97.95C244.963 97.95 244.851 97.754 244.851 97.516C244.851 97.278 244.963 97.068 245.215 97.068C246.237 97.068 247.259 97.068 248.309 97.054V94.59H246.657C245.929 94.59 245.691 94.366 245.691 93.652V89.354C245.691 89.074 245.943 88.948 246.181 88.948C246.447 88.948 246.699 89.074 246.699 89.354V90.978H250.913V89.354C250.913 89.074 251.165 88.948 251.403 88.948C251.669 88.948 251.921 89.074 251.921 89.354V93.652C251.921 94.366 251.683 94.59 250.955 94.59H249.317V97.012C250.367 96.984 251.445 96.928 252.593 96.816ZM254.385 88.164C254.651 88.164 254.889 88.29 254.889 88.584V92.91H256.485C256.737 92.91 256.849 93.12 256.849 93.358C256.849 93.61 256.737 93.82 256.485 93.82H254.889V99.728C254.889 100.022 254.651 100.148 254.385 100.148C254.119 100.148 253.881 100.022 253.881 99.728V88.584C253.881 88.29 254.119 88.164 254.385 88.164ZM246.699 93.484C246.699 93.652 246.769 93.722 246.937 93.722H250.661C250.843 93.722 250.913 93.652 250.913 93.484V91.832H246.699V93.484ZM263.445 88.682C266.119 88.682 267.631 89.914 267.631 91.93C267.631 93.946 266.119 95.178 263.445 95.178C260.771 95.178 259.259 93.946 259.259 91.93C259.259 89.914 260.771 88.682 263.445 88.682ZM263.445 89.55C261.303 89.55 260.281 90.558 260.281 91.93C260.281 93.288 261.303 94.296 263.445 94.296C265.587 94.296 266.609 93.288 266.609 91.93C266.609 90.558 265.587 89.55 263.445 89.55ZM261.219 95.5C261.499 95.5 261.737 95.626 261.737 95.92V97.978H265.153V95.92C265.153 95.626 265.391 95.5 265.657 95.5C265.923 95.5 266.175 95.626 266.175 95.92V97.978H268.933C269.171 97.978 269.283 98.174 269.283 98.412C269.283 98.65 269.171 98.846 268.933 98.846H257.957C257.719 98.846 257.607 98.65 257.607 98.412C257.607 98.174 257.719 97.978 257.957 97.978H260.715V95.92C260.715 95.626 260.967 95.5 261.219 95.5ZM271.427 97.782C271.889 97.782 272.225 98.132 272.225 98.58C272.225 99.014 271.889 99.364 271.427 99.364C270.979 99.364 270.629 99.014 270.629 98.58C270.629 98.132 270.979 97.782 271.427 97.782Z" fill="#808983"/>
</svg>
