<svg viewBox="0 0 415 664" fill="none" xmlns="http://www.w3.org/2000/svg">
<g filter="url(#filter0_d_1850_24764)">
<g clip-path="url(#clip0_1850_24764)">
<path d="M20 52C20 32.1178 36.1177 16 56 16H359C378.882 16 395 32.1177 395 52V664H20V52Z" fill="#FFFDFA"/>
<circle cx="208" cy="434" r="203.5" stroke="url(#paint0_linear_1850_24764)" stroke-dasharray="4 4"/>
<g filter="url(#filter1_d_1850_24764)">
<path d="M86.2744 602.748C84.8995 607.201 79.2891 608.473 76.1757 605.039L61.5818 588.942C58.4684 585.508 60.187 579.942 64.6753 578.924L85.7142 574.151C90.2025 573.133 94.0943 577.426 92.7193 581.878L86.2744 602.748Z" fill="url(#paint1_linear_1850_24764)"/>
</g>
<g filter="url(#filter2_d_1850_24764)">
<path d="M334.683 569.646C330.937 572.603 325.367 570.45 324.659 565.771L321.072 542.083C320.363 537.403 325.046 533.708 329.502 535.431L352.057 544.151C356.513 545.874 357.398 551.723 353.652 554.679L334.683 569.646Z" fill="url(#paint2_linear_1850_24764)"/>
</g>
<g filter="url(#filter3_d_1850_24764)">
<path d="M72.7887 280.931C70.2332 280.485 69.1239 277.463 70.7921 275.493L82.0522 262.194C83.7203 260.224 86.9148 260.783 87.8021 263.2L93.7921 279.514C94.6795 281.931 92.5943 284.394 90.0387 283.947L72.7887 280.931Z" fill="url(#paint3_linear_1850_24764)"/>
</g>
<g filter="url(#filter4_d_1850_24764)">
<path d="M369 300.5C369 304.642 365.642 308 361.5 308C357.358 308 354 304.642 354 300.5C354 296.358 357.358 293 361.5 293C365.642 293 369 296.358 369 300.5Z" fill="url(#paint4_linear_1850_24764)"/>
</g>
<rect width="375" height="65.9979" transform="translate(20 26)" fill="#FFFDFA"/>
<path d="M125.708 71.2689C125.536 71.1135 125.31 71.0326 125.078 71.0438C124.847 71.0549 124.629 71.1573 124.473 71.3284C123.4 72.5114 122.102 72.9361 120.909 72.5114C120.319 72.2916 119.81 71.8979 119.449 71.3824C120.053 71.313 120.635 71.114 121.156 70.7989C121.676 70.4838 122.122 70.0601 122.464 69.5567C123.383 68.1918 123.463 66.2415 122.654 64.9203C122.474 64.6168 122.232 64.3552 121.943 64.1531C121.654 63.951 121.325 63.8131 120.979 63.7485C120.591 63.686 120.195 63.7059 119.815 63.807C119.436 63.908 119.082 64.0879 118.777 64.335C117.517 65.3135 116.798 67.1526 116.901 69.1332C117.025 71.4992 118.361 73.4776 120.318 74.173C120.803 74.3447 121.313 74.4317 121.827 74.4303C123.233 74.4303 124.635 73.7641 125.773 72.5103C125.851 72.4246 125.911 72.3245 125.949 72.2156C125.988 72.1068 126.005 71.9914 125.999 71.8761C125.993 71.7607 125.964 71.6477 125.914 71.5435C125.864 71.4393 125.794 71.346 125.708 71.2689ZM118.782 69.6466H118.727C118.692 69.4445 118.669 69.2404 118.658 69.0355C118.587 67.6637 119.068 66.3302 119.856 65.7179C119.967 65.6243 120.096 65.5543 120.235 65.5122C120.374 65.4701 120.52 65.4568 120.664 65.473C120.767 65.4943 120.864 65.538 120.948 65.6012C121.032 65.6643 121.101 65.7452 121.149 65.8381C121.593 66.5639 121.526 67.7907 121 68.5737C120.761 68.9236 120.436 69.206 120.056 69.3939C119.676 69.5818 119.254 69.6688 118.831 69.6466H118.782Z" fill="#07BEB8"/>
<path d="M113.898 64.1788C113.623 63.9699 113.301 63.831 112.96 63.7741C112.619 63.7171 112.27 63.7438 111.941 63.8518C111.314 64.0804 110.783 64.5163 110.437 65.0876C110.091 64.5166 109.56 64.0807 108.933 63.8518C108.604 63.7432 108.254 63.7163 107.912 63.7732C107.571 63.8302 107.248 63.9694 106.972 64.1788C105.547 65.2146 105.329 67.0582 105.184 68.2782C105 69.8364 104.821 71.68 104.898 73.5494C104.907 73.7763 105.003 73.9907 105.167 74.1479C105.331 74.3052 105.549 74.393 105.776 74.3931H105.812C105.927 74.3885 106.041 74.3612 106.145 74.3128C106.25 74.2644 106.344 74.1958 106.422 74.111C106.501 74.0262 106.561 73.9268 106.601 73.8185C106.641 73.7102 106.659 73.5951 106.655 73.4798C106.584 71.7328 106.755 69.9757 106.931 68.4872C107.075 67.275 107.268 66.1425 108.007 65.6022C108.056 65.5559 108.117 65.524 108.183 65.5102C108.249 65.4963 108.318 65.5009 108.381 65.5235C108.671 65.619 108.993 65.9999 109.116 66.3908C109.238 66.7818 109.27 67.548 109.3 68.2288C109.342 69.1646 109.38 70.0465 109.607 70.6936C109.667 70.8659 109.779 71.0152 109.928 71.1208C110.076 71.2265 110.254 71.2832 110.437 71.2832C110.619 71.2832 110.797 71.2265 110.945 71.1208C111.094 71.0152 111.206 70.8659 111.266 70.6936C111.491 70.0465 111.532 69.1646 111.573 68.2299C111.603 67.548 111.638 66.7762 111.758 66.3908C111.878 66.0055 112.208 65.619 112.493 65.5235C112.557 65.5009 112.625 65.4964 112.691 65.5105C112.757 65.5246 112.818 65.5567 112.867 65.6033C113.61 66.1425 113.799 67.275 113.943 68.4872C114.12 69.9757 114.29 71.7328 114.22 73.4798C114.215 73.5951 114.233 73.7102 114.273 73.8185C114.313 73.9268 114.373 74.0262 114.452 74.111C114.53 74.1958 114.624 74.2644 114.729 74.3128C114.834 74.3612 114.947 74.3885 115.062 74.3931H115.098C115.325 74.393 115.543 74.3052 115.707 74.1479C115.871 73.9907 115.967 73.7763 115.977 73.5494C116.053 71.68 115.874 69.8364 115.69 68.2782C115.542 67.0582 115.324 65.2146 113.898 64.1788Z" fill="#07BEB8"/>
<path d="M55.4454 70.5297C55.3363 70.4908 55.2207 70.4738 55.105 70.4799C54.9894 70.4859 54.8761 70.5147 54.7716 70.5648C54.6672 70.6148 54.5737 70.685 54.4965 70.7713C54.4194 70.8577 54.36 70.9584 54.322 71.0678C54.1891 71.4306 53.9731 71.7572 53.6911 72.0213C53.4092 72.2855 53.0693 72.4799 52.6987 72.5889C52.3501 72.6913 51.9819 72.707 51.6259 72.6345C51.2699 72.5621 50.9371 72.4037 50.6563 72.1733C50.4701 72.0171 50.3232 71.8192 50.2276 71.5958C50.1319 71.3723 50.0902 71.1295 50.1058 70.8869C50.1766 68.4839 50.608 66.1988 51.1776 63.9002C50.5956 63.8133 50.0133 63.7242 49.4306 63.6328C48.8566 65.9774 48.4196 68.3255 48.3477 70.8352C48.3224 71.3524 48.4196 71.8682 48.6314 72.3406C48.8432 72.8131 49.1637 73.2288 49.5666 73.554C50.0669 73.9575 50.6573 74.234 51.2876 74.36C51.9179 74.486 52.5693 74.4577 53.1862 74.2775C53.8269 74.093 54.4144 73.7586 54.9002 73.3021C55.386 72.8456 55.7562 72.2799 55.9802 71.652C56.0579 71.4322 56.0453 71.1906 55.945 70.9802C55.8447 70.7697 55.6651 70.6077 55.4454 70.5297Z" fill="#07BEB8"/>
<path d="M53.8323 62.9035C55.6837 62.8115 57.4964 62.3392 59.1573 61.5161C60.0302 61.0723 60.9155 60.5387 61.3176 59.3636C61.4472 58.9645 61.4708 58.5387 61.3862 58.1278C60.8132 58.2469 60.2392 58.3611 59.664 58.4704C59.6874 58.5778 59.684 58.6894 59.6539 58.7951C59.4786 59.3051 59.0922 59.5748 58.3586 59.95C56.9184 60.6564 55.35 61.0635 53.7481 61.1465C53.1389 61.1753 52.5285 61.1671 51.9203 61.1218C52.009 60.8027 52.0967 60.4836 52.1876 60.1623C52.3494 59.5815 52.5146 58.9939 52.6775 58.3963C53.3729 55.8337 54.8715 53.9059 57.5261 52.1409C59.3 50.9624 61.0278 49.7716 62.6759 48.165C62.9623 47.8853 63.1657 47.7876 63.251 47.764C63.3246 47.9342 63.3585 48.119 63.3499 48.3043C63.3443 50.3603 61.6704 52.1859 59.537 52.4611C59.4225 52.4759 59.3121 52.513 59.212 52.5705C59.1118 52.6279 59.024 52.7045 58.9535 52.7959C58.883 52.8873 58.8312 52.9916 58.801 53.1031C58.7708 53.2145 58.7628 53.3308 58.7776 53.4452C58.7924 53.5597 58.8295 53.6702 58.887 53.7703C58.9444 53.8704 59.021 53.9583 59.1124 54.0288C59.2038 54.0993 59.3081 54.1511 59.4195 54.1813C59.531 54.2115 59.6472 54.2194 59.7617 54.2047C62.7534 53.8205 65.1024 51.232 65.1103 48.31C65.1103 47.0742 64.507 46.1754 63.5667 46.0226C62.8927 45.9103 62.1546 46.2181 61.4491 46.9068C59.9078 48.4055 58.2541 49.5458 56.5566 50.6759C53.5593 52.6656 51.7877 54.9698 50.9766 57.9267C50.8137 58.521 50.6497 59.1052 50.489 59.6826C50.3767 60.0871 50.2644 60.4859 50.152 60.8847C48.6994 60.6083 47.3592 60.1342 46.3324 59.4905C46.1348 59.3719 45.8986 59.3355 45.6746 59.3893C45.4505 59.443 45.2564 59.5825 45.1341 59.7778C45.0118 59.9731 44.971 60.2086 45.0205 60.4337C45.07 60.6587 45.2059 60.8554 45.3988 60.9813C47.3716 62.2171 50.1531 62.9193 52.9763 62.9193C53.2605 62.9249 53.547 62.9181 53.8323 62.9035Z" fill="#07BEB8"/>
<path d="M61.5949 55.2548C61.1144 55.5962 60.5587 55.8167 59.9749 55.8974C59.3334 56.0098 58.6852 56.0042 57.9741 56.0098C57.7408 56.0098 57.5171 56.1024 57.3521 56.2674C57.1872 56.4324 57.0945 56.6561 57.0945 56.8894C57.0945 57.1227 57.1872 57.3465 57.3521 57.5114C57.5171 57.6764 57.7408 57.7691 57.9741 57.7691H58.1123C58.832 57.7841 59.5517 57.7383 60.2636 57.632C61.2163 57.4725 62.024 57.1411 62.6644 56.649C63.4923 56.012 64.0001 55.0987 64.0203 54.2066C64.0278 53.8301 63.945 53.4572 63.7788 53.1191C63.2725 53.4449 62.7636 53.7681 62.2521 54.0887C62.257 54.1139 62.2604 54.1394 62.2622 54.1651C62.2566 54.5201 61.9937 54.9481 61.5949 55.2548Z" fill="#07BEB8"/>
<path d="M100.977 70.7275C101.009 70.4459 101.006 70.1613 100.967 69.8805C100.967 69.8299 100.967 69.7805 100.967 69.7299C100.951 67.9987 100.933 66.036 100.743 64.5969C100.712 64.3658 100.59 64.1565 100.405 64.0151C100.22 63.8736 99.9857 63.8115 99.7547 63.8425C99.5236 63.8735 99.3143 63.995 99.1728 64.1803C99.0314 64.3656 98.9693 64.5995 99.0003 64.8306C99.0216 64.9946 99.0407 65.1676 99.0587 65.3462C98.541 65.0269 97.9447 64.8581 97.3365 64.8587C95.3548 64.8587 93.7416 66.6697 93.7416 68.8963C93.7416 70.0411 94.2977 71.2803 95.0638 71.8431C95.1569 71.9115 95.2625 71.9609 95.3747 71.9884C95.4868 72.016 95.6033 72.0211 95.7175 72.0036C95.8316 71.9861 95.9412 71.9462 96.0399 71.8863C96.1387 71.8264 96.2246 71.7476 96.2928 71.6544C96.3611 71.5611 96.4102 71.4553 96.4375 71.343C96.4648 71.2307 96.4696 71.1142 96.4518 71C96.4339 70.8858 96.3937 70.7763 96.3335 70.6777C96.2733 70.5791 96.1942 70.4933 96.1007 70.4253C95.8536 70.2445 95.4963 69.5951 95.4963 68.8963C95.4963 67.6403 96.3243 66.618 97.341 66.618C98.3577 66.618 99.1845 67.6403 99.1845 68.8963C99.1851 68.9476 99.1904 68.9988 99.2002 69.0491C99.2002 69.2839 99.2059 69.5176 99.2081 69.7468C99.2081 70.0333 99.2081 70.3085 99.2171 70.5882C99.1616 70.9224 99.0047 71.2315 98.7677 71.4735C98.0105 72.2858 96.6085 72.6599 95.6559 72.597C94.0763 72.4846 92.8867 71.387 92.6957 69.8524C92.6496 69.476 92.6339 69.066 92.617 68.6413C92.5507 66.9483 92.4508 64.3913 89.4344 64.07C88.5125 63.9769 87.5844 64.1703 86.7764 64.6239C86.748 64.399 86.6336 64.1938 86.4573 64.0514C86.281 63.909 86.0564 63.8403 85.8306 63.8597C85.6048 63.8792 85.3953 63.9853 85.2459 64.1558C85.0966 64.3263 85.019 64.548 85.0295 64.7744C85.0632 65.3912 85.0733 66.2349 85.0632 67.0707C85.0462 67.2056 85.0372 67.3414 85.0362 67.4774C85.0361 67.5351 85.0417 67.5927 85.0531 67.6493C85.0407 68.2043 85.0182 68.7323 84.9879 69.1558C84.9677 69.4434 84.9654 69.7524 84.9632 70.0703C84.9632 70.9691 84.9553 71.9027 84.4386 72.3408C84.3189 72.445 84.1782 72.522 84.0259 72.5666C83.8737 72.6112 83.7136 72.6224 83.5567 72.5992C83.3675 72.5698 83.1865 72.5014 83.0251 72.3986C82.8636 72.2957 82.7253 72.1605 82.6186 72.0015C82.0682 71.187 81.976 70.0748 81.9232 68.9098C81.885 68.0728 81.8873 67.2112 81.8907 66.3776C81.8907 65.7866 81.8907 65.1957 81.8828 64.6048C81.8828 64.5722 81.8749 64.5418 81.8716 64.5104C81.8682 64.4789 81.8716 64.461 81.8626 64.4374C81.8519 64.3857 81.8361 64.3353 81.8154 64.2868C81.8155 64.2842 81.8155 64.2816 81.8154 64.279C81.753 64.1189 81.6432 63.9818 81.5006 63.886C81.358 63.7902 81.1895 63.7403 81.0178 63.7431H80.9886C80.9593 63.7431 80.9324 63.7498 80.9032 63.7532C80.874 63.7566 80.847 63.7532 80.82 63.7633C80.7931 63.7734 80.765 63.7801 80.738 63.7891C80.7111 63.7981 80.6819 63.8049 80.656 63.8161C80.6313 63.8279 80.6073 63.841 80.5841 63.8554C80.5583 63.87 80.5313 63.8824 80.5066 63.8992C80.4819 63.9161 80.4662 63.9329 80.4459 63.9498C80.4257 63.9666 80.3988 63.9869 80.3774 64.0071C80.3561 64.0273 80.3448 64.0487 80.3269 64.0689C80.3089 64.0891 80.2887 64.1138 80.2718 64.1385C80.255 64.1632 80.246 64.1868 80.2325 64.2116C80.2178 64.2362 80.2047 64.2617 80.1932 64.2879C80.1819 64.316 80.1752 64.3452 80.1662 64.3733C80.1572 64.4014 80.1482 64.4261 80.1426 64.4531C80.1379 64.4851 80.1349 64.5174 80.1336 64.5497C80.1336 64.5744 80.1258 64.598 80.1258 64.6227C80.1258 66.5393 79.9505 68.1975 79.591 69.6951C79.1417 71.5499 78.5024 72.4711 77.5689 72.5936C76.8701 72.6846 76.268 72.3577 75.7164 71.5634C76.3218 70.7204 76.8129 69.8009 77.1768 68.8289C77.5857 67.7441 77.8545 66.6115 77.9767 65.4586C78.2014 63.451 77.9834 61.6692 77.3453 60.1638C76.8578 59.0145 76.0511 58.355 75.1311 58.355C74.5569 58.3731 74.0126 58.615 73.6145 59.0291C73.0303 59.5987 72.7517 60.3458 72.5753 60.9322C71.8058 63.4757 71.8833 66.3618 72.8 69.2805C73.0108 69.9886 73.2706 70.6812 73.5774 71.3533C73.0438 71.8964 72.3843 72.2993 71.6575 72.5262C70.2319 72.9464 68.7961 72.5633 67.9008 71.5757C69.5601 69.3974 70.3139 66.3371 70.4374 63.651C70.4768 62.8061 70.4925 61.8152 70.3094 60.8738C69.9577 59.0617 68.8691 58.0169 67.5424 58.218C65.6326 58.5044 64.69 60.8715 64.4676 62.8117C64.2924 64.325 64.4193 65.8877 64.5496 67.0808C64.7372 68.8064 65.1113 70.2265 65.6933 71.3859C65.2528 71.7894 64.7437 72.1108 64.1901 72.3352C62.8611 72.8655 61.4097 72.7947 60.402 72.1498C60.1004 71.9578 59.8363 71.7127 59.6223 71.4263C60.2316 71.359 60.819 71.1599 61.3438 70.8429C61.8685 70.526 62.318 70.0986 62.6612 69.5906C63.5801 68.2256 63.6599 66.2753 62.851 64.9553C62.6727 64.6514 62.4316 64.3891 62.1436 64.186C61.8557 63.983 61.5277 63.8438 61.1816 63.7779C60.7938 63.7162 60.3974 63.7365 60.0179 63.8375C59.6385 63.9385 59.2844 64.118 58.9786 64.3643C57.7193 65.344 57.0014 67.1819 57.1036 69.1626C57.2362 71.6937 58.4517 72.9823 59.4527 73.6249C60.3315 74.1731 61.349 74.4581 62.3848 74.4462C63.2271 74.442 64.0608 74.2777 64.8417 73.9619C65.5142 73.6925 66.1389 73.3165 66.692 72.8486C68.0401 74.2417 70.1431 74.7989 72.1518 74.208C73.0253 73.9455 73.8307 73.4945 74.5109 72.8868C75.2771 73.8395 76.3365 74.5259 77.7947 74.3361C79.2911 74.1406 80.1539 73.0621 80.6583 72.006C80.7875 72.3513 80.9564 72.6804 81.1616 72.9868C81.4054 73.3511 81.7232 73.66 82.0942 73.8934C82.4652 74.1268 82.8812 74.2796 83.3151 74.3417C83.7169 74.3984 84.126 74.369 84.5155 74.2555C84.9051 74.142 85.266 73.947 85.5743 73.6833C86.709 72.7217 86.7157 71.2567 86.7213 70.0793C86.7213 69.8018 86.7213 69.5322 86.7404 69.2828C86.782 68.7211 86.8078 67.9886 86.818 67.2404C86.8716 66.9153 87.0378 66.6194 87.2875 66.4045C87.7684 65.9709 88.539 65.7361 89.2502 65.8158C90.632 65.9641 90.7825 66.6843 90.8623 68.7076C90.8791 69.157 90.8971 69.6165 90.9533 70.0658C91.2453 72.4251 93.1316 74.1855 95.539 74.3495C95.6435 74.3563 95.7502 74.3596 95.8615 74.3596C97.0799 74.3476 98.2692 73.9857 99.2879 73.3171C99.3103 74.8191 99.1823 76.338 98.4318 77.3098C97.6814 78.2816 96.3209 78.4029 95.3863 78.085C95.1234 77.9962 94.2628 77.6469 94.2628 76.9189C94.2628 76.6856 94.1702 76.4618 94.0052 76.2968C93.8402 76.1319 93.6165 76.0392 93.3832 76.0392C93.1499 76.0392 92.9262 76.1319 92.7612 76.2968C92.5962 76.4618 92.5036 76.6856 92.5036 76.9189C92.5036 78.1794 93.3899 79.2646 94.8156 79.7499C95.3124 79.9162 95.833 80.0001 96.3569 79.9982C97.5926 79.9982 98.9284 79.5421 99.8215 78.385C101.106 76.72 101.109 74.3316 101.01 72.2228C100.995 71.7825 100.985 71.2758 100.977 70.7275ZM59.028 69.685H58.9157C58.883 69.4826 58.8616 69.2786 58.8517 69.0738C58.7798 67.701 59.2606 66.3674 60.0492 65.7552C60.1599 65.6612 60.2887 65.5909 60.4276 65.5488C60.5666 65.5067 60.7127 65.4935 60.857 65.5103C60.9596 65.5319 61.0563 65.5759 61.1401 65.639C61.224 65.702 61.293 65.7827 61.3423 65.8754C61.7916 66.6011 61.7197 67.8279 61.1929 68.6121C60.9532 68.9605 60.6286 69.2419 60.2498 69.4296C59.8709 69.6174 59.4504 69.7053 59.028 69.685ZM66.292 66.8854C66.1718 65.7833 66.055 64.3464 66.2089 63.0072C66.3707 61.5973 67.0088 60.0694 67.7963 59.9514H67.8367C68.2007 59.9514 68.4771 60.6907 68.5771 61.2063C68.7254 61.9658 68.7096 62.8252 68.6748 63.5656C68.5816 65.6001 68.0569 68.0144 66.938 69.8456C66.6042 68.8888 66.3887 67.8946 66.2965 66.8854H66.292ZM74.8064 69.7243C74.6941 69.4247 74.5817 69.0993 74.4694 68.748C73.9077 66.9505 73.4077 64.2194 74.2503 61.4366C74.3627 61.0513 74.539 60.5716 74.8356 60.2806C74.9121 60.194 75.0146 60.1345 75.1277 60.111C75.2659 60.111 75.5265 60.3862 75.7209 60.8468C76.241 62.0725 76.4106 63.56 76.2242 65.2642C76.1179 66.2691 75.8838 67.2564 75.5276 68.202C75.3301 68.7279 75.0904 69.237 74.8109 69.7243H74.8064Z" fill="#07BEB8"/>
<path d="M81.037 62.8912C81.2382 62.8912 81.435 62.8315 81.6023 62.7196C81.7697 62.6078 81.9001 62.4488 81.9772 62.2628C82.0542 62.0768 82.0743 61.8722 82.0351 61.6747C81.9958 61.4773 81.8989 61.2959 81.7566 61.1536C81.6142 61.0112 81.4329 60.9143 81.2355 60.875C81.0381 60.8358 80.8335 60.8559 80.6475 60.9329C80.4616 61.01 80.3026 61.1404 80.1908 61.3078C80.079 61.4752 80.0193 61.672 80.0193 61.8733C80.0193 62.1433 80.1265 62.4022 80.3174 62.593C80.5082 62.7839 80.7671 62.8912 81.037 62.8912Z" fill="#07BEB8"/>
<path d="M350.903 59.5854C351.072 59.2292 351.269 58.8917 351.494 58.5636L351.456 56.1261C351.456 55.9011 351.55 55.6854 351.728 55.5354C352.6 54.8042 353.594 54.2136 354.691 53.8198C354.906 53.7448 355.141 53.7636 355.328 53.8854L357.419 55.1417C357.813 55.1136 358.206 55.1136 358.6 55.1417L360.691 53.8854C360.888 53.7729 361.122 53.7448 361.338 53.8198C362.406 54.2042 363.41 54.7761 364.3 55.5261C364.469 55.6667 364.572 55.8917 364.563 56.1167L364.525 58.5542C364.75 58.8823 364.947 59.2198 365.116 59.5761L367.244 60.7573C367.441 60.8698 367.581 61.0573 367.619 61.2823C367.816 62.3979 367.825 63.5604 367.619 64.6948C367.581 64.9198 367.441 65.1073 367.244 65.2198L365.116 66.4011C364.947 66.7573 364.75 67.0948 364.525 67.4229L364.563 69.8604C364.563 70.0854 364.469 70.3011 364.291 70.4511C363.419 71.1823 362.425 71.7729 361.328 72.1667C361.113 72.2417 360.878 72.2229 360.691 72.1011L358.6 70.8448C358.206 70.8729 357.813 70.8729 357.419 70.8448L355.328 72.1011C355.131 72.2136 354.897 72.2417 354.681 72.1667C353.613 71.7823 352.61 71.2104 351.719 70.4604C351.55 70.3198 351.447 70.0948 351.456 69.8698L351.494 67.4323C351.269 67.1042 351.072 66.7667 350.903 66.4104L348.775 65.2292C348.578 65.1167 348.438 64.9292 348.4 64.7042C348.203 63.5886 348.194 62.4261 348.4 61.2917C348.438 61.0667 348.578 60.8792 348.775 60.7667L350.903 59.5854Z" stroke="#666F6A" stroke-width="1.5" stroke-miterlimit="10" stroke-linecap="round" stroke-linejoin="round"/>
<path d="M358 67.498C360.485 67.498 362.5 65.4832 362.5 62.998C362.5 60.5127 360.485 58.498 358 58.498C355.515 58.498 353.5 60.5127 353.5 62.998C353.5 65.4832 355.515 67.498 358 67.498Z" stroke="#666F6A" stroke-width="1.5" stroke-miterlimit="10" stroke-linecap="round" stroke-linejoin="round"/>
<g filter="url(#filter5_d_1850_24764)">
<rect x="147" y="134" width="121" height="34" rx="8" fill="#FFFDFA"/>
<path d="M162.492 146.204C164.316 146.204 165.216 147.416 165.216 148.988C165.216 150.572 164.316 151.784 162.492 151.784C160.668 151.784 159.768 150.572 159.768 148.988C159.768 147.416 160.668 146.204 162.492 146.204ZM162.492 147.224C161.352 147.224 160.92 148.028 160.92 148.988C160.92 149.948 161.352 150.764 162.492 150.764C163.632 150.764 164.064 149.948 164.064 148.988C164.064 148.028 163.632 147.224 162.492 147.224ZM167.952 145.664C168.252 145.664 168.54 145.82 168.54 146.168V153.272C168.54 153.62 168.252 153.776 167.952 153.776C167.652 153.776 167.352 153.62 167.352 153.272V150.728H165.96C165.672 150.728 165.552 150.488 165.552 150.212C165.552 149.936 165.672 149.696 165.96 149.696H167.352V148.34H165.96C165.672 148.34 165.552 148.112 165.552 147.824C165.552 147.548 165.672 147.32 165.96 147.32H167.352V146.168C167.352 145.82 167.652 145.664 167.952 145.664ZM162.096 152.768C162.396 152.768 162.696 152.924 162.696 153.272V155.3C162.696 155.48 162.756 155.54 162.948 155.54H168.396C168.696 155.54 168.828 155.78 168.828 156.068C168.828 156.344 168.696 156.584 168.396 156.584H162.408C161.712 156.584 161.484 156.368 161.484 155.684V153.272C161.484 152.924 161.772 152.768 162.096 152.768ZM175.382 145.82C175.706 145.82 175.994 145.976 175.994 146.336V146.804C175.994 147.524 176.354 147.908 177.206 148.304C177.962 148.64 178.622 148.928 179.33 149.204C179.582 149.312 179.618 149.624 179.522 149.876C179.438 150.116 179.174 150.296 178.886 150.188C178.25 149.936 177.554 149.636 176.894 149.348C175.838 148.868 175.478 148.508 175.394 148.208H175.382C175.298 148.544 174.938 148.892 173.87 149.372C173.21 149.66 172.538 149.96 171.914 150.2C171.602 150.32 171.35 150.152 171.242 149.9C171.134 149.648 171.158 149.312 171.434 149.204C172.142 148.928 172.802 148.64 173.558 148.304C174.41 147.908 174.77 147.524 174.77 146.804V146.336C174.77 145.976 175.058 145.82 175.382 145.82ZM175.382 149.72C175.682 149.72 175.97 149.864 175.97 150.212V151.184H180.014C180.29 151.184 180.422 151.412 180.422 151.688C180.422 151.964 180.29 152.192 180.014 152.192H170.75C170.474 152.192 170.342 151.964 170.342 151.688C170.342 151.412 170.474 151.184 170.75 151.184H174.794V150.212C174.794 149.864 175.082 149.72 175.382 149.72ZM178.142 153.128C178.838 153.128 179.066 153.344 179.066 154.028V156.368C179.066 156.716 178.766 156.872 178.454 156.872C178.154 156.872 177.866 156.716 177.866 156.368V154.388C177.866 154.196 177.794 154.136 177.614 154.136H171.974C171.686 154.136 171.566 153.908 171.566 153.632C171.566 153.356 171.686 153.128 171.974 153.128H178.142Z" fill="#808983"/>
<path d="M187.452 146.36C187.812 146.36 188.076 146.516 188.076 146.876V154.508C188.076 154.856 187.8 155.012 187.476 155.012C187.164 155.012 186.876 154.856 186.876 154.508V147.776L185.076 148.88C184.776 149.048 184.476 148.916 184.32 148.64C184.188 148.388 184.212 148.064 184.5 147.908L186.648 146.624C186.972 146.444 187.212 146.36 187.452 146.36Z" fill="#07BEB8"/>
<path d="M194.636 145.988C196.472 145.988 197.432 147.044 197.432 148.448C197.432 149.864 196.472 150.92 194.636 150.92C192.8 150.92 191.84 149.864 191.84 148.448C191.84 147.044 192.8 145.988 194.636 145.988ZM194.636 146.972C193.484 146.972 192.992 147.656 192.992 148.448C192.992 149.252 193.484 149.936 194.636 149.936C195.788 149.936 196.28 149.252 196.28 148.448C196.28 147.656 195.788 146.972 194.636 146.972ZM199.868 145.664C200.18 145.664 200.468 145.82 200.468 146.168V150.824C200.468 151.172 200.18 151.328 199.868 151.328C199.556 151.328 199.268 151.172 199.268 150.824V146.168C199.268 145.82 199.556 145.664 199.868 145.664ZM199.544 151.844C200.24 151.844 200.468 152.06 200.468 152.744V153.848C200.468 154.532 200.24 154.748 199.544 154.748H194.9C194.72 154.748 194.648 154.808 194.648 155V155.516C194.648 155.696 194.72 155.768 194.9 155.768H200.336C200.612 155.768 200.732 155.996 200.732 156.248C200.732 156.5 200.612 156.728 200.336 156.728H194.408C193.712 156.728 193.484 156.512 193.484 155.828V154.724C193.484 154.04 193.712 153.824 194.408 153.824H199.04C199.232 153.824 199.292 153.764 199.292 153.572V153.056C199.292 152.876 199.232 152.816 199.04 152.816H193.856C193.58 152.816 193.46 152.588 193.46 152.324C193.46 152.072 193.58 151.844 193.856 151.844H199.544ZM207.91 146.624C208.198 146.624 208.33 146.864 208.33 147.14C208.33 147.416 208.198 147.644 207.91 147.644H207.178V148.76C207.178 149.744 207.226 150.212 207.574 150.908C207.826 151.388 208.114 151.892 208.366 152.3C208.522 152.552 208.438 152.84 208.222 152.984C208.018 153.104 207.718 153.128 207.55 152.864C207.334 152.528 207.166 152.216 206.95 151.832C206.746 151.46 206.674 151.244 206.638 151.004H206.626C206.59 151.256 206.506 151.484 206.302 151.88C206.134 152.204 205.954 152.552 205.726 152.9C205.498 153.236 205.186 153.236 204.958 152.9C204.742 152.552 204.55 152.204 204.394 151.88C204.19 151.484 204.094 151.256 204.058 151.004H204.046C204.01 151.256 203.938 151.472 203.734 151.844C203.518 152.228 203.338 152.552 203.086 152.924C202.918 153.2 202.618 153.176 202.414 153.044C202.198 152.9 202.114 152.612 202.27 152.36C202.546 151.916 202.858 151.388 203.11 150.908C203.47 150.176 203.506 149.744 203.506 148.76V147.644H202.798C202.498 147.644 202.366 147.416 202.366 147.14C202.366 146.864 202.498 146.624 202.798 146.624H207.91ZM204.586 148.76C204.586 149.672 204.646 150.128 204.814 150.584C204.946 150.908 205.054 151.172 205.21 151.46C205.318 151.676 205.366 151.676 205.486 151.46C205.63 151.172 205.75 150.908 205.882 150.584C206.05 150.128 206.098 149.672 206.098 148.76V147.644H204.586V148.76ZM211.378 145.664C211.666 145.664 211.918 145.808 211.918 146.12V155.576C211.918 155.888 211.666 156.032 211.378 156.032C211.102 156.032 210.85 155.888 210.85 155.576V150.368H209.794V155.072C209.794 155.384 209.542 155.528 209.266 155.528C208.978 155.528 208.726 155.384 208.726 155.072V146.24C208.726 145.928 208.978 145.784 209.266 145.784C209.542 145.784 209.794 145.928 209.794 146.24V149.348H210.85V146.12C210.85 145.808 211.102 145.664 211.378 145.664ZM221.472 146.228C221.76 146.228 221.892 146.468 221.892 146.744C221.892 147.02 221.76 147.26 221.472 147.26H218.16C217.98 147.26 217.908 147.32 217.908 147.5V149.876C217.908 150.068 217.98 150.128 218.16 150.128C219.732 150.128 221.064 150.044 222.36 149.876C222.636 149.84 222.816 150.032 222.84 150.308C222.876 150.596 222.768 150.86 222.504 150.884C221.388 151.04 219.96 151.148 217.632 151.148C216.936 151.148 216.708 150.932 216.708 150.248V147.128C216.708 146.444 216.936 146.228 217.632 146.228H221.472ZM224.196 145.664C224.508 145.664 224.796 145.82 224.796 146.168V148.16H226.116C226.428 148.16 226.56 148.4 226.56 148.676C226.56 148.976 226.428 149.204 226.116 149.204H224.796V151.1C224.796 151.448 224.508 151.604 224.196 151.604C223.884 151.604 223.596 151.448 223.596 151.1V146.168C223.596 145.82 223.884 145.664 224.196 145.664ZM218.484 152.12C218.784 152.12 219.084 152.276 219.084 152.612V153.62H223.62V152.612C223.62 152.276 223.908 152.12 224.196 152.12C224.508 152.12 224.796 152.276 224.796 152.612V155.768C224.796 156.452 224.568 156.668 223.872 156.668H218.832C218.136 156.668 217.908 156.452 217.908 155.768V152.612C217.908 152.276 218.196 152.12 218.484 152.12ZM219.084 154.58V155.432C219.084 155.612 219.144 155.684 219.336 155.684H223.368C223.548 155.684 223.62 155.612 223.62 155.432V154.58H219.084ZM228.35 146.252C228.65 146.252 228.938 146.408 228.938 146.744V148.208H231.602V146.744C231.602 146.408 231.89 146.252 232.178 146.252C232.478 146.252 232.778 146.408 232.778 146.744V150.884C232.778 151.568 232.55 151.784 231.854 151.784H228.686C227.99 151.784 227.762 151.568 227.762 150.884V146.744C227.762 146.408 228.05 146.252 228.35 146.252ZM228.938 150.536C228.938 150.716 229.01 150.788 229.19 150.788H231.35C231.53 150.788 231.602 150.716 231.602 150.536V149.204H228.938V150.536ZM235.718 145.664C236.018 145.664 236.306 145.82 236.306 146.168V153.272C236.306 153.62 236.018 153.776 235.718 153.776C235.418 153.776 235.118 153.62 235.118 153.272V150.776H233.726C233.438 150.776 233.318 150.548 233.318 150.26C233.318 149.984 233.438 149.756 233.726 149.756H235.118V148.4H233.726C233.438 148.4 233.318 148.172 233.318 147.884C233.318 147.608 233.438 147.38 233.726 147.38H235.118V146.168C235.118 145.82 235.418 145.664 235.718 145.664ZM229.862 152.84C230.162 152.84 230.462 152.996 230.462 153.344V155.3C230.462 155.48 230.522 155.54 230.714 155.54H236.162C236.462 155.54 236.594 155.78 236.594 156.068C236.594 156.344 236.462 156.584 236.162 156.584H230.174C229.478 156.584 229.25 156.368 229.25 155.684V153.344C229.25 152.996 229.538 152.84 229.862 152.84ZM250.78 150.8C251.056 150.8 251.188 151.028 251.188 151.304C251.188 151.58 251.056 151.808 250.78 151.808H246.736V152.828C248.692 152.924 249.82 153.584 249.82 154.868C249.82 156.284 248.464 156.932 246.148 156.932C243.832 156.932 242.476 156.284 242.476 154.868C242.476 153.584 243.604 152.924 245.56 152.828V151.808H241.516C241.24 151.808 241.108 151.58 241.108 151.304C241.108 151.028 241.24 150.8 241.516 150.8H250.78ZM249.532 146.06C249.82 146.06 249.952 146.288 249.952 146.564C249.952 146.84 249.82 147.068 249.532 147.068H246.76V147.248C246.76 147.728 247.023 148.064 247.828 148.388C248.632 148.7 249.316 148.952 249.976 149.18C250.252 149.264 250.336 149.588 250.24 149.828C250.132 150.092 249.892 150.236 249.592 150.14C248.992 149.948 248.296 149.684 247.576 149.396C246.544 149 246.256 148.688 246.16 148.4H246.148C246.052 148.7 245.752 149.024 244.72 149.42C244.012 149.708 243.304 149.972 242.716 150.164C242.404 150.26 242.164 150.116 242.056 149.84C241.96 149.6 242.032 149.264 242.32 149.18C242.98 148.952 243.664 148.7 244.468 148.388C245.272 148.064 245.536 147.728 245.536 147.248V147.068H242.764C242.476 147.068 242.344 146.84 242.344 146.564C242.344 146.288 242.476 146.06 242.764 146.06H249.532ZM246.148 153.764C244.42 153.764 243.664 154.16 243.664 154.868C243.664 155.576 244.42 155.972 246.148 155.972C247.876 155.972 248.632 155.576 248.632 154.868C248.632 154.16 247.876 153.764 246.148 153.764ZM253.421 146.12C253.817 146.12 254.093 146.288 254.081 146.696L253.937 152.36C253.925 152.744 253.685 152.876 253.421 152.876C253.157 152.876 252.917 152.744 252.917 152.36L252.761 146.696C252.761 146.288 253.025 146.12 253.421 146.12ZM253.421 153.86C253.865 153.86 254.213 154.196 254.213 154.64C254.213 155.084 253.865 155.432 253.421 155.432C252.977 155.432 252.629 155.084 252.629 154.64C252.629 154.196 252.977 153.86 253.421 153.86Z" fill="#808983"/>
</g>
<rect x="145" y="264" width="125" height="30" rx="15" fill="#F9F7F2"/>
<path d="M162.6 274.288C164.28 274.288 165.156 275.212 165.156 276.4V276.508C165.156 277.396 164.808 278.044 164.016 278.908L161.028 282.196H165.204C165.432 282.196 165.528 282.364 165.528 282.568C165.528 282.784 165.432 282.952 165.204 282.952H160.536C160.056 282.952 159.876 282.796 159.876 282.484C159.876 282.328 159.948 282.196 160.2 281.908L163.26 278.548C164.076 277.648 164.28 277.192 164.28 276.532V276.46C164.28 275.62 163.704 275.08 162.624 275.08C161.736 275.08 161.172 275.488 160.716 276.184C160.596 276.364 160.368 276.412 160.176 276.28C159.984 276.148 159.924 275.932 160.044 275.728C160.548 274.912 161.376 274.288 162.6 274.288ZM169.795 274.288C171.907 274.288 172.747 275.692 172.747 278.356V279.016C172.747 281.68 171.907 283.084 169.795 283.084C167.683 283.084 166.843 281.68 166.843 279.016V278.356C166.843 275.692 167.683 274.288 169.795 274.288ZM169.795 275.104C168.223 275.104 167.719 276.16 167.719 278.44V278.932C167.719 281.212 168.223 282.268 169.795 282.268C171.367 282.268 171.871 281.212 171.871 278.932V278.44C171.871 276.16 171.367 275.104 169.795 275.104ZM176.991 274.288C178.671 274.288 179.547 275.212 179.547 276.4V276.508C179.547 277.396 179.199 278.044 178.407 278.908L175.419 282.196H179.595C179.823 282.196 179.919 282.364 179.919 282.568C179.919 282.784 179.823 282.952 179.595 282.952H174.927C174.447 282.952 174.267 282.796 174.267 282.484C174.267 282.328 174.339 282.196 174.591 281.908L177.651 278.548C178.467 277.648 178.671 277.192 178.671 276.532V276.46C178.671 275.62 178.095 275.08 177.015 275.08C176.127 275.08 175.563 275.488 175.107 276.184C174.987 276.364 174.759 276.412 174.567 276.28C174.375 276.148 174.315 275.932 174.435 275.728C174.939 274.912 175.767 274.288 176.991 274.288ZM184.054 274.288C185.722 274.288 186.67 275.212 186.67 276.46V276.52C186.67 277.264 186.274 278.128 185.146 278.5C186.262 278.668 187.018 279.388 187.018 280.48V280.6C187.018 281.884 186.106 283.084 184.126 283.084C183.166 283.084 182.266 282.784 181.594 282.316C181.39 282.172 181.354 281.944 181.486 281.728C181.618 281.512 181.822 281.464 182.038 281.608C182.65 282.04 183.334 282.292 184.09 282.292C185.53 282.292 186.142 281.44 186.142 280.576V280.48C186.142 279.208 185.026 278.908 184.09 278.908H183.346C183.13 278.908 183.034 278.74 183.034 278.524C183.034 278.308 183.13 278.128 183.346 278.128H184.03C184.894 278.128 185.818 277.672 185.818 276.532V276.496C185.818 275.656 185.206 275.068 184.054 275.068C183.298 275.068 182.758 275.38 182.326 275.92C182.17 276.088 181.942 276.088 181.786 275.92C181.618 275.764 181.606 275.548 181.738 275.38C182.194 274.768 182.986 274.288 184.054 274.288ZM189.377 274.324C189.605 274.324 189.821 274.432 189.821 274.684V278.968C189.821 279.136 189.881 279.196 190.049 279.196C191.585 279.196 193.157 279.148 194.477 279.004C194.669 278.98 194.801 279.112 194.825 279.328C194.861 279.556 194.753 279.748 194.561 279.76C193.409 279.892 191.813 279.952 189.761 279.952C189.137 279.952 188.933 279.76 188.933 279.148V274.684C188.933 274.432 189.149 274.324 189.377 274.324ZM196.781 273.712C196.997 273.712 197.213 273.82 197.213 274.072V281.392C197.213 281.644 196.997 281.752 196.781 281.752C196.565 281.752 196.349 281.644 196.349 281.392V277.84H193.361C193.157 277.84 193.061 277.672 193.061 277.456C193.061 277.252 193.157 277.084 193.361 277.084H196.349V275.932H193.361C193.157 275.932 193.061 275.764 193.061 275.548C193.061 275.344 193.157 275.176 193.361 275.176H196.349V274.072C196.349 273.82 196.565 273.712 196.781 273.712ZM190.805 280.888C191.033 280.888 191.249 280.996 191.249 281.248V283.528C191.249 283.684 191.309 283.744 191.477 283.744H197.213C197.429 283.744 197.525 283.924 197.525 284.128C197.525 284.332 197.429 284.512 197.213 284.512H191.189C190.565 284.512 190.361 284.32 190.361 283.708V281.248C190.361 280.996 190.577 280.888 190.805 280.888ZM205.303 274.288C207.415 274.288 208.255 275.692 208.255 278.356V279.016C208.255 281.68 207.415 283.084 205.303 283.084C203.191 283.084 202.351 281.68 202.351 279.016V278.356C202.351 275.692 203.191 274.288 205.303 274.288ZM205.303 275.104C203.731 275.104 203.227 276.16 203.227 278.44V278.932C203.227 281.212 203.731 282.268 205.303 282.268C206.875 282.268 207.379 281.212 207.379 278.932V278.44C207.379 276.16 206.875 275.104 205.303 275.104ZM212.366 274.288C214.034 274.288 214.982 275.212 214.982 276.46V276.52C214.982 277.264 214.586 278.128 213.458 278.5C214.574 278.668 215.33 279.388 215.33 280.48V280.6C215.33 281.884 214.418 283.084 212.438 283.084C211.478 283.084 210.578 282.784 209.906 282.316C209.702 282.172 209.666 281.944 209.798 281.728C209.93 281.512 210.134 281.464 210.35 281.608C210.962 282.04 211.646 282.292 212.402 282.292C213.842 282.292 214.454 281.44 214.454 280.576V280.48C214.454 279.208 213.338 278.908 212.402 278.908H211.658C211.442 278.908 211.346 278.74 211.346 278.524C211.346 278.308 211.442 278.128 211.658 278.128H212.342C213.206 278.128 214.13 277.672 214.13 276.532V276.496C214.13 275.656 213.518 275.068 212.366 275.068C211.61 275.068 211.07 275.38 210.638 275.92C210.482 276.088 210.254 276.088 210.098 275.92C209.93 275.764 209.918 275.548 210.05 275.38C210.506 274.768 211.298 274.288 212.366 274.288ZM220.306 273.772C222.154 273.772 223.054 274.444 223.054 275.404C223.054 276.376 222.154 277.036 220.306 277.036C218.458 277.036 217.558 276.376 217.558 275.404C217.558 274.444 218.458 273.772 220.306 273.772ZM220.306 274.48C218.986 274.48 218.398 274.864 218.398 275.404C218.398 275.956 218.986 276.34 220.306 276.34C221.614 276.34 222.214 275.956 222.214 275.404C222.214 274.864 221.614 274.48 220.306 274.48ZM225.238 273.712C225.454 273.712 225.67 273.82 225.67 274.072V279.964C225.67 280.204 225.466 280.3 225.226 280.3C224.998 280.3 224.806 280.204 224.806 279.964V279.712H222.586C222.394 279.712 222.31 279.544 222.31 279.376C222.31 279.184 222.394 279.028 222.586 279.028H224.806V274.072C224.806 273.82 225.01 273.712 225.238 273.712ZM223.678 277.54C223.87 277.516 224.002 277.648 224.026 277.84C224.038 278.044 223.954 278.212 223.762 278.236C222.814 278.356 221.734 278.428 220.618 278.476V279.832C220.618 280.072 220.414 280.18 220.174 280.18C219.946 280.18 219.742 280.072 219.742 279.832V278.512C218.83 278.536 217.894 278.548 217.006 278.548C216.802 278.548 216.706 278.392 216.706 278.188C216.706 277.996 216.802 277.84 217.006 277.84C219.094 277.84 221.434 277.804 223.678 277.54ZM224.842 280.816C225.466 280.816 225.67 281.008 225.67 281.62V282.268C225.67 282.88 225.466 283.072 224.842 283.072H219.574C219.442 283.072 219.394 283.12 219.394 283.252V283.816C219.394 283.936 219.442 283.984 219.574 283.984H225.67C225.862 283.984 225.958 284.152 225.958 284.332C225.958 284.512 225.862 284.68 225.67 284.68H219.37C218.746 284.68 218.542 284.488 218.542 283.876V283.216C218.542 282.604 218.746 282.412 219.37 282.412H224.638C224.77 282.412 224.83 282.364 224.83 282.244V281.68C224.83 281.548 224.77 281.5 224.638 281.5H218.806C218.614 281.5 218.518 281.344 218.518 281.152C218.518 280.972 218.614 280.816 218.806 280.816H224.842ZM233.616 274.288C235.728 274.288 236.568 275.692 236.568 278.356V279.016C236.568 281.68 235.728 283.084 233.616 283.084C231.504 283.084 230.664 281.68 230.664 279.016V278.356C230.664 275.692 231.504 274.288 233.616 274.288ZM233.616 275.104C232.044 275.104 231.54 276.16 231.54 278.44V278.932C231.54 281.212 232.044 282.268 233.616 282.268C235.188 282.268 235.692 281.212 235.692 278.932V278.44C235.692 276.16 235.188 275.104 233.616 275.104ZM241.567 274.372C241.843 274.372 242.035 274.48 242.035 274.756V282.64C242.035 282.892 241.831 283 241.591 283C241.363 283 241.159 282.892 241.159 282.64V275.428L239.119 276.724C238.903 276.844 238.699 276.748 238.579 276.556C238.471 276.376 238.483 276.148 238.687 276.016L240.955 274.6C241.195 274.456 241.399 274.372 241.567 274.372ZM248.054 274.048C249.866 274.048 250.766 275.092 250.766 276.448C250.766 277.792 249.866 278.836 248.054 278.836C246.242 278.836 245.342 277.792 245.342 276.448C245.342 275.092 246.242 274.048 248.054 274.048ZM248.054 274.78C246.758 274.78 246.194 275.548 246.194 276.448C246.194 277.336 246.758 278.104 248.054 278.104C249.35 278.104 249.914 277.336 249.914 276.448C249.914 275.548 249.35 274.78 248.054 274.78ZM253.322 273.712C253.55 273.712 253.766 273.82 253.766 274.072V278.968C253.766 279.22 253.55 279.328 253.322 279.328C253.106 279.328 252.89 279.22 252.89 278.968V274.072C252.89 273.82 253.106 273.712 253.322 273.712ZM252.938 279.928C253.562 279.928 253.766 280.12 253.766 280.732V281.836C253.766 282.448 253.562 282.64 252.938 282.64H248.066C247.91 282.64 247.838 282.688 247.838 282.856V283.708C247.838 283.876 247.91 283.936 248.066 283.936H253.766C253.958 283.936 254.054 284.104 254.054 284.296C254.054 284.488 253.958 284.656 253.766 284.656H247.814C247.19 284.656 246.986 284.464 246.986 283.852V282.736C246.986 282.124 247.19 281.932 247.814 281.932H252.686C252.854 281.932 252.914 281.884 252.914 281.716V280.864C252.914 280.708 252.854 280.648 252.686 280.648H247.25C247.058 280.648 246.962 280.48 246.962 280.288C246.962 280.096 247.058 279.928 247.25 279.928H252.938Z" fill="#807F7D"/>
<g filter="url(#filter6_d_1850_24764)">
<rect x="45" y="346" width="325" height="142" rx="28" fill="#FFFDFA"/>
<path d="M114.159 387.945C117.024 387.945 118.644 389.31 118.644 391.5C118.644 393.555 117.234 394.875 114.714 395.04V397.89H120.024C120.294 397.89 120.414 398.1 120.414 398.37C120.414 398.625 120.294 398.835 120.024 398.835H108.294C108.024 398.835 107.904 398.625 107.904 398.37C107.904 398.1 108.024 397.89 108.294 397.89H113.619V395.04C111.084 394.875 109.674 393.555 109.674 391.5C109.674 389.31 111.294 387.945 114.159 387.945ZM114.159 388.875C111.864 388.875 110.769 390 110.769 391.5C110.769 393 111.864 394.125 114.159 394.125C116.454 394.125 117.549 393 117.549 391.5C117.549 390 116.454 388.875 114.159 388.875ZM131.186 388.2C131.966 388.2 132.221 388.44 132.221 389.205V391.155C132.221 391.92 131.966 392.16 131.186 392.16H124.751C124.541 392.16 124.466 392.235 124.466 392.445V394.02C124.466 394.215 124.541 394.29 124.751 394.29H132.206C132.461 394.29 132.581 394.5 132.581 394.755C132.581 395.01 132.461 395.235 132.206 395.235H128.366V397.89H133.676C133.946 397.89 134.066 398.1 134.066 398.37C134.066 398.625 133.946 398.835 133.676 398.835H121.946C121.676 398.835 121.556 398.625 121.556 398.37C121.556 398.1 121.676 397.89 121.946 397.89H127.271V395.235H124.421C123.641 395.235 123.386 394.995 123.386 394.23V392.265C123.386 391.5 123.641 391.26 124.421 391.26H130.871C131.066 391.26 131.156 391.185 131.156 390.975V389.415C131.156 389.205 131.066 389.13 130.871 389.13H123.731C123.476 389.13 123.356 388.92 123.356 388.665C123.356 388.41 123.476 388.2 123.731 388.2H131.186ZM142.979 388.455C143.234 388.455 143.354 388.665 143.354 388.935C143.354 389.19 143.234 389.415 142.979 389.415H140.189V391.14C140.189 392.475 140.459 393.15 141.404 394.125C142.079 394.8 142.769 395.46 143.309 395.925C143.534 396.12 143.474 396.435 143.309 396.615C143.114 396.795 142.844 396.87 142.619 396.66C142.124 396.24 141.539 395.67 140.864 394.995C139.919 394.05 139.724 393.66 139.649 393.33H139.634C139.559 393.675 139.349 394.065 138.419 395.01C137.744 395.685 137.144 396.255 136.454 396.855C136.214 397.065 135.929 396.975 135.764 396.795C135.584 396.585 135.539 396.285 135.764 396.105C136.514 395.445 137.189 394.8 137.864 394.125C138.809 393.15 139.079 392.475 139.079 391.14V389.415H136.229C135.974 389.415 135.854 389.19 135.854 388.935C135.854 388.665 135.974 388.455 136.229 388.455H142.979ZM145.784 387.39C146.069 387.39 146.339 387.525 146.339 387.84V399.78C146.339 400.095 146.069 400.23 145.784 400.23C145.514 400.23 145.244 400.095 145.244 399.78V387.84C145.244 387.525 145.514 387.39 145.784 387.39ZM153.826 388.305C154.111 388.305 154.381 388.44 154.381 388.755V395.475C154.381 395.685 154.456 395.76 154.666 395.76C156.826 395.76 158.611 395.64 160.396 395.4C160.636 395.37 160.801 395.535 160.846 395.805C160.876 396.075 160.771 396.33 160.531 396.36C158.971 396.57 157.111 396.705 154.306 396.705C153.526 396.705 153.271 396.465 153.271 395.7V388.755C153.271 388.44 153.541 388.305 153.826 388.305ZM162.541 387.39C162.826 387.39 163.096 387.525 163.096 387.84V392.025H165.001C165.271 392.025 165.391 392.25 165.391 392.505C165.391 392.775 165.271 393 165.001 393H163.096V399.78C163.096 400.095 162.826 400.23 162.541 400.23C162.271 400.23 162.001 400.095 162.001 399.78V387.84C162.001 387.525 162.271 387.39 162.541 387.39ZM175.893 388.2C176.673 388.2 176.928 388.44 176.928 389.205V391.155C176.928 391.92 176.673 392.16 175.893 392.16H169.458C169.248 392.16 169.173 392.235 169.173 392.445V394.02C169.173 394.215 169.248 394.29 169.458 394.29H176.913C177.168 394.29 177.288 394.5 177.288 394.755C177.288 395.01 177.168 395.235 176.913 395.235H173.073V397.89H178.383C178.653 397.89 178.773 398.1 178.773 398.37C178.773 398.625 178.653 398.835 178.383 398.835H166.653C166.383 398.835 166.263 398.625 166.263 398.37C166.263 398.1 166.383 397.89 166.653 397.89H171.978V395.235H169.128C168.348 395.235 168.093 394.995 168.093 394.23V392.265C168.093 391.5 168.348 391.26 169.128 391.26H175.578C175.773 391.26 175.863 391.185 175.863 390.975V389.415C175.863 389.205 175.773 389.13 175.578 389.13H168.438C168.183 389.13 168.063 388.92 168.063 388.665C168.063 388.41 168.183 388.2 168.438 388.2H175.893ZM187.656 388.08C189.951 388.08 191.046 389.58 191.046 391.485C191.046 393.375 189.951 394.875 187.656 394.875C185.361 394.875 184.266 393.375 184.266 391.485C184.266 389.58 185.361 388.08 187.656 388.08ZM187.656 389.025C185.991 389.025 185.331 390.165 185.331 391.485C185.331 392.79 185.991 393.93 187.656 393.93C189.321 393.93 189.981 392.79 189.981 391.485C189.981 390.165 189.321 389.025 187.656 389.025ZM194.256 387.39C194.526 387.39 194.796 387.525 194.796 387.84V396.99C194.796 397.305 194.526 397.44 194.256 397.44C193.971 397.44 193.701 397.305 193.701 396.99V387.84C193.701 387.525 193.971 387.39 194.256 387.39ZM186.846 396.27C187.131 396.27 187.401 396.405 187.401 396.72V399.66C187.401 399.855 187.476 399.93 187.686 399.93H194.796C195.066 399.93 195.186 400.155 195.186 400.41C195.186 400.665 195.066 400.89 194.796 400.89H187.326C186.546 400.89 186.291 400.65 186.291 399.885V396.72C186.291 396.405 186.561 396.27 186.846 396.27ZM200.723 391.515C202.568 391.515 203.483 392.76 203.483 394.35C203.483 395.94 202.568 397.185 200.723 397.185C198.878 397.185 197.978 395.94 197.978 394.35C197.978 392.76 198.878 391.515 200.723 391.515ZM200.723 387.48C200.993 387.48 201.263 387.615 201.263 387.93V389.445H203.723C203.993 389.445 204.113 389.655 204.113 389.91C204.113 390.18 203.993 390.39 203.723 390.39H197.543C197.288 390.39 197.168 390.18 197.168 389.91C197.168 389.655 197.288 389.445 197.543 389.445H200.183V387.93C200.183 387.615 200.453 387.48 200.723 387.48ZM200.723 392.445C199.508 392.445 198.953 393.285 198.953 394.35C198.953 395.43 199.508 396.27 200.723 396.27C201.953 396.27 202.508 395.43 202.508 394.35C202.508 393.285 201.953 392.445 200.723 392.445ZM208.358 387.39C208.628 387.39 208.883 387.525 208.883 387.825V399.795C208.883 400.095 208.628 400.23 208.358 400.23C208.103 400.23 207.848 400.095 207.848 399.795V393.195H205.883V399.165C205.883 399.465 205.628 399.6 205.358 399.6C205.103 399.6 204.848 399.465 204.848 399.165V387.975C204.848 387.675 205.103 387.54 205.358 387.54C205.628 387.54 205.883 387.675 205.883 387.975V392.25H207.848V387.825C207.848 387.525 208.103 387.39 208.358 387.39ZM220.585 388.44C221.365 388.44 221.62 388.68 221.62 389.445V391.14C221.62 393.645 220.855 394.395 216.205 397.26C215.98 397.395 215.695 397.305 215.545 397.08C215.395 396.855 215.395 396.525 215.635 396.375C220 393.72 220.54 393.165 220.54 391.095V389.67C220.54 389.475 220.465 389.4 220.255 389.4H215.98C215.71 389.4 215.59 389.175 215.59 388.92C215.59 388.665 215.71 388.44 215.98 388.44H220.585ZM225.295 387.39C225.58 387.39 225.85 387.525 225.85 387.84V399.78C225.85 400.095 225.58 400.23 225.295 400.23C225.025 400.23 224.755 400.095 224.755 399.78V387.84C224.755 387.525 225.025 387.39 225.295 387.39ZM239.443 387.39C239.698 387.39 239.953 387.525 239.953 387.84V394.68C239.953 394.98 239.698 395.115 239.443 395.115C239.158 395.115 238.918 394.98 238.918 394.68V391.605H236.863V393.3C236.863 394.065 236.638 394.29 235.843 394.29H234.328C233.533 394.29 233.308 394.065 233.308 393.3V388.485C233.308 388.215 233.548 388.095 233.788 388.095C234.028 388.095 234.268 388.215 234.268 388.485V390.42H235.903V388.485C235.903 388.215 236.143 388.095 236.383 388.095C236.623 388.095 236.863 388.215 236.863 388.485V390.66H238.918V387.84C238.918 387.525 239.158 387.39 239.443 387.39ZM232.873 395.565C233.143 395.565 233.398 395.7 233.398 396.015V396.825C233.398 397.815 233.563 398.175 234.253 398.955C234.508 399.24 234.808 399.57 235.078 399.81C235.243 399.975 235.363 399.975 235.543 399.81C235.798 399.57 236.113 399.24 236.368 398.955C237.043 398.175 237.208 397.815 237.208 396.825V396.015C237.208 395.7 237.478 395.565 237.748 395.565C238.018 395.565 238.288 395.7 238.288 396.015V396.825C238.288 397.83 238.468 398.22 239.278 398.955C239.653 399.315 240.208 399.75 240.748 400.155C240.943 400.305 240.943 400.575 240.778 400.8C240.598 401.01 240.343 401.07 240.103 400.89C239.593 400.5 239.143 400.125 238.798 399.825C238.108 399.225 237.838 398.895 237.748 398.595H237.733C237.643 398.91 237.418 399.18 236.743 399.9C236.488 400.17 236.233 400.425 235.978 400.665C235.468 401.13 235.153 401.13 234.628 400.665C234.373 400.425 234.133 400.17 233.863 399.9C233.188 399.18 232.978 398.91 232.888 398.595H232.873C232.783 398.91 232.513 399.24 231.808 399.84C231.478 400.125 231.013 400.515 230.503 400.905C230.278 401.07 230.008 401.025 229.843 400.8C229.663 400.59 229.678 400.305 229.858 400.155C230.413 399.75 230.953 399.315 231.343 398.955C232.153 398.22 232.333 397.83 232.333 396.825V396.015C232.333 395.7 232.603 395.565 232.873 395.565ZM229.318 388.095C229.558 388.095 229.798 388.215 229.798 388.485V390.42H231.448V388.485C231.448 388.215 231.673 388.095 231.913 388.095C232.153 388.095 232.408 388.215 232.408 388.485V393.3C232.408 394.065 232.168 394.29 231.373 394.29H229.858C229.078 394.29 228.838 394.065 228.838 393.3V388.485C228.838 388.215 229.078 388.095 229.318 388.095ZM229.798 393.135C229.798 393.33 229.873 393.39 230.068 393.39H231.178C231.373 393.39 231.448 393.33 231.448 393.135V391.32H229.798V393.135ZM234.268 393.135C234.268 393.33 234.343 393.39 234.523 393.39H235.648C235.828 393.39 235.903 393.33 235.903 393.135V391.32H234.268V393.135ZM248.76 388.275C249.03 388.275 249.15 388.485 249.15 388.74C249.15 389.01 249.03 389.22 248.76 389.22H244.245C244.035 389.22 243.96 389.295 243.96 389.49V393.84C243.96 394.05 244.035 394.125 244.245 394.125C246.45 394.125 248.235 394.005 250.02 393.765C250.26 393.735 250.425 393.9 250.47 394.17C250.5 394.44 250.395 394.695 250.155 394.725C248.595 394.935 246.735 395.07 243.9 395.07C243.12 395.07 242.865 394.83 242.865 394.065V389.28C242.865 388.515 243.12 388.275 243.9 388.275H248.76ZM252.705 387.39C252.975 387.39 253.245 387.525 253.245 387.84V396.99C253.245 397.305 252.975 397.44 252.705 397.44C252.42 397.44 252.165 397.305 252.165 396.99V391.95H248.745C248.475 391.95 248.355 391.74 248.355 391.47C248.355 391.215 248.475 391.005 248.745 391.005H252.165V387.84C252.165 387.525 252.42 387.39 252.705 387.39ZM245.235 396.36C245.52 396.36 245.79 396.495 245.79 396.81V399.66C245.79 399.855 245.865 399.93 246.075 399.93H253.245C253.515 399.93 253.635 400.155 253.635 400.41C253.635 400.665 253.515 400.89 253.245 400.89H245.715C244.935 400.89 244.68 400.65 244.68 399.885V396.81C244.68 396.495 244.95 396.36 245.235 396.36ZM265.682 387.645C265.967 387.645 266.237 387.795 266.237 388.11V388.905C266.237 389.865 266.732 390.465 267.812 390.975C268.862 391.47 269.747 391.86 270.632 392.235C270.902 392.355 270.917 392.67 270.842 392.88C270.737 393.12 270.512 393.27 270.197 393.135C269.327 392.775 268.427 392.37 267.512 391.935C266.267 391.335 265.802 390.84 265.697 390.465H265.682C265.577 390.87 265.112 391.35 263.867 391.95C262.952 392.385 262.052 392.79 261.152 393.165C260.852 393.285 260.627 393.12 260.522 392.88C260.432 392.67 260.462 392.355 260.732 392.235C261.617 391.86 262.502 391.47 263.552 390.975C264.632 390.465 265.127 389.865 265.127 388.905V388.11C265.127 387.795 265.397 387.645 265.682 387.645ZM271.562 394.455C271.817 394.455 271.937 394.665 271.937 394.92C271.937 395.175 271.817 395.385 271.562 395.385H266.372V397.8C266.372 398.1 266.132 398.22 265.832 398.22C265.547 398.22 265.292 398.1 265.292 397.8V395.385H259.802C259.547 395.385 259.427 395.175 259.427 394.92C259.427 394.665 259.547 394.455 259.802 394.455H271.562ZM261.767 396.84C262.052 396.84 262.307 396.975 262.307 397.29V399.735C262.307 399.945 262.397 400.02 262.592 400.02H270.032C270.287 400.02 270.407 400.23 270.407 400.485C270.407 400.74 270.287 400.95 270.032 400.95H262.247C261.467 400.95 261.212 400.71 261.212 399.945V397.29C261.212 396.975 261.467 396.84 261.767 396.84ZM278.615 388.305C279.395 388.305 279.65 388.545 279.65 389.31V390.525C279.65 392.655 278.84 393.24 274.22 395.565C273.995 395.685 273.695 395.58 273.575 395.325C273.455 395.1 273.455 394.77 273.725 394.65C278.06 392.52 278.57 392.085 278.57 390.465V389.535C278.57 389.34 278.495 389.265 278.285 389.265H274.04C273.77 389.265 273.65 389.04 273.65 388.785C273.65 388.53 273.77 388.305 274.04 388.305H278.615ZM283.01 387.39C283.295 387.39 283.565 387.525 283.565 387.84V391.32H285.47C285.74 391.32 285.86 391.545 285.86 391.815C285.86 392.07 285.74 392.295 285.47 392.295H283.565V396.99C283.565 397.305 283.295 397.44 283.01 397.44C282.74 397.44 282.47 397.305 282.47 396.99V387.84C282.47 387.525 282.74 387.39 283.01 387.39ZM275.765 396.27C276.05 396.27 276.32 396.405 276.32 396.72V399.66C276.32 399.855 276.395 399.93 276.605 399.93H283.565C283.835 399.93 283.955 400.155 283.955 400.41C283.955 400.665 283.835 400.89 283.565 400.89H276.245C275.465 400.89 275.21 400.65 275.21 399.885V396.72C275.21 396.405 275.48 396.27 275.765 396.27ZM292.987 387.735C295.822 387.735 297.427 388.635 297.427 390.405C297.427 392.175 295.822 393.075 292.987 393.075C290.152 393.075 288.547 392.175 288.547 390.405C288.547 388.635 290.152 387.735 292.987 387.735ZM292.987 388.65C290.707 388.65 289.642 389.31 289.642 390.405C289.642 391.5 290.707 392.16 292.987 392.16C295.267 392.16 296.332 391.5 296.332 390.405C296.332 389.31 295.267 388.65 292.987 388.65ZM298.852 394.605C299.122 394.605 299.242 394.815 299.242 395.085C299.242 395.34 299.122 395.55 298.852 395.55H287.122C286.852 395.55 286.732 395.34 286.732 395.085C286.732 394.815 286.852 394.605 287.122 394.605H298.852ZM289.072 396.84C289.357 396.84 289.612 396.975 289.612 397.29V399.735C289.612 399.945 289.702 400.02 289.897 400.02H297.337C297.592 400.02 297.712 400.23 297.712 400.485C297.712 400.74 297.592 400.95 297.337 400.95H289.552C288.772 400.95 288.517 400.71 288.517 399.945V397.29C288.517 396.975 288.772 396.84 289.072 396.84ZM303.639 388.11C305.619 388.11 306.834 389.175 306.834 390.81V390.975C306.834 391.98 306.309 392.67 305.274 393.6C304.044 394.71 303.909 395.115 303.909 395.865C303.909 396.135 303.654 396.285 303.399 396.285C303.114 396.285 302.859 396.15 302.859 395.85C302.859 394.83 303.039 394.29 304.299 393.165C305.394 392.19 305.739 391.695 305.739 390.975V390.855C305.739 389.805 304.974 389.1 303.654 389.1C302.649 389.1 301.974 389.475 301.404 390C301.179 390.18 300.909 390.15 300.729 389.925C300.534 389.715 300.534 389.43 300.759 389.235C301.389 388.635 302.424 388.11 303.639 388.11ZM303.384 397.725C303.864 397.725 304.224 398.1 304.224 398.565C304.224 399.03 303.864 399.39 303.384 399.39C302.919 399.39 302.544 399.03 302.544 398.565C302.544 398.1 302.919 397.725 303.384 397.725Z" fill="#07BEB8"/>
<path d="M98.6084 435.018C98.8744 435.018 99.1264 435.144 99.1264 435.438V441.71C99.1264 441.906 99.1964 441.976 99.3924 441.976C101.408 441.976 103.074 441.864 104.74 441.64C104.964 441.612 105.118 441.766 105.16 442.018C105.188 442.27 105.09 442.508 104.866 442.536C103.41 442.732 101.674 442.858 99.0564 442.858C98.3284 442.858 98.0904 442.634 98.0904 441.92V435.438C98.0904 435.144 98.3424 435.018 98.6084 435.018ZM106.742 434.164C107.008 434.164 107.26 434.29 107.26 434.584V438.49H109.038C109.29 438.49 109.402 438.7 109.402 438.938C109.402 439.19 109.29 439.4 109.038 439.4H107.26V445.728C107.26 446.022 107.008 446.148 106.742 446.148C106.49 446.148 106.238 446.022 106.238 445.728V434.584C106.238 434.29 106.49 434.164 106.742 434.164ZM119.205 434.92C119.933 434.92 120.171 435.144 120.171 435.858V437.678C120.171 438.392 119.933 438.616 119.205 438.616H113.199C113.003 438.616 112.933 438.686 112.933 438.882V440.352C112.933 440.534 113.003 440.604 113.199 440.604H120.157C120.395 440.604 120.507 440.8 120.507 441.038C120.507 441.276 120.395 441.486 120.157 441.486H116.573V443.964H121.529C121.781 443.964 121.893 444.16 121.893 444.412C121.893 444.65 121.781 444.846 121.529 444.846H110.581C110.329 444.846 110.217 444.65 110.217 444.412C110.217 444.16 110.329 443.964 110.581 443.964H115.551V441.486H112.891C112.163 441.486 111.925 441.262 111.925 440.548V438.714C111.925 438 112.163 437.776 112.891 437.776H118.911C119.093 437.776 119.177 437.706 119.177 437.51V436.054C119.177 435.858 119.093 435.788 118.911 435.788H112.247C112.009 435.788 111.897 435.592 111.897 435.354C111.897 435.116 112.009 434.92 112.247 434.92H119.205ZM132.297 434.486C134.943 434.486 136.441 435.326 136.441 436.978C136.441 438.518 135.125 439.358 132.801 439.456V441.08H137.785C138.023 441.08 138.135 441.276 138.135 441.514C138.135 441.752 138.023 441.948 137.785 441.948H126.809C126.571 441.948 126.459 441.752 126.459 441.514C126.459 441.276 126.571 441.08 126.809 441.08H131.793V439.456C129.455 439.358 128.153 438.518 128.153 436.978C128.153 435.326 129.651 434.486 132.297 434.486ZM132.297 435.34C130.169 435.34 129.175 435.956 129.175 436.978C129.175 438 130.169 438.616 132.297 438.616C134.425 438.616 135.419 438 135.419 436.978C135.419 435.956 134.425 435.34 132.297 435.34ZM128.643 442.984C128.909 442.984 129.147 443.11 129.147 443.404V445.686C129.147 445.882 129.231 445.952 129.413 445.952H136.357C136.595 445.952 136.707 446.148 136.707 446.386C136.707 446.624 136.595 446.82 136.357 446.82H129.091C128.363 446.82 128.125 446.596 128.125 445.882V443.404C128.125 443.11 128.363 442.984 128.643 442.984ZM146.257 435.032C146.495 435.032 146.607 435.228 146.607 435.48C146.607 435.718 146.495 435.928 146.257 435.928H143.723V437.02C143.723 438.014 144.045 438.672 144.773 439.302C145.403 439.82 146.061 440.324 146.509 440.674C146.733 440.842 146.747 441.094 146.593 441.318C146.453 441.514 146.187 441.584 145.949 441.416C145.515 441.08 144.983 440.674 144.339 440.156C143.597 439.554 143.289 439.106 143.219 438.784H143.205C143.135 439.12 142.813 439.582 142.071 440.184C141.441 440.716 140.811 441.192 140.237 441.612C139.999 441.78 139.747 441.682 139.607 441.5C139.453 441.304 139.439 441.024 139.677 440.842C140.293 440.394 141.007 439.848 141.637 439.316C142.365 438.7 142.687 438.028 142.687 437.034V435.928H140.069C139.831 435.928 139.719 435.718 139.719 435.48C139.719 435.228 139.831 435.032 140.069 435.032H146.257ZM149.169 434.164C149.421 434.164 149.673 434.29 149.673 434.584V443.124C149.673 443.418 149.421 443.544 149.169 443.544C148.903 443.544 148.665 443.418 148.665 443.124V438.588H146.271C146.033 438.588 145.921 438.392 145.921 438.14C145.921 437.902 146.033 437.692 146.271 437.692H148.665V434.584C148.665 434.29 148.903 434.164 149.169 434.164ZM142.197 442.452C142.463 442.452 142.715 442.578 142.715 442.872V445.616C142.715 445.798 142.785 445.868 142.981 445.868H149.673C149.925 445.868 150.037 446.078 150.037 446.316C150.037 446.554 149.925 446.764 149.673 446.764H142.645C141.917 446.764 141.679 446.54 141.679 445.826V442.872C141.679 442.578 141.931 442.452 142.197 442.452ZM156.059 438C157.907 438 158.999 439.134 158.999 440.702C158.999 442.27 157.907 443.404 156.059 443.404C154.211 443.404 153.119 442.27 153.119 440.702C153.119 439.134 154.211 438 156.059 438ZM156.059 434.164C156.325 434.164 156.577 434.29 156.577 434.584V435.998H159.405C159.643 435.998 159.755 436.194 159.755 436.432C159.755 436.684 159.643 436.88 159.405 436.88H152.573C152.321 436.88 152.209 436.684 152.209 436.432C152.209 436.194 152.321 435.998 152.573 435.998H155.541V434.584C155.541 434.29 155.807 434.164 156.059 434.164ZM156.059 438.854C154.813 438.854 154.071 439.61 154.071 440.702C154.071 441.794 154.813 442.55 156.059 442.55C157.305 442.55 158.047 441.794 158.047 440.702C158.047 439.61 157.305 438.854 156.059 438.854ZM161.813 434.164C162.079 434.164 162.331 434.29 162.331 434.584V445.728C162.331 446.022 162.079 446.148 161.813 446.148C161.561 446.148 161.309 446.022 161.309 445.728V434.584C161.309 434.29 161.561 434.164 161.813 434.164ZM171.433 434.248C171.699 434.248 171.937 434.374 171.937 434.654V436.012H174.009C174.261 436.012 174.373 436.208 174.373 436.446C174.373 436.698 174.261 436.894 174.009 436.894H171.937V438.154C171.937 439.302 172.189 439.89 172.889 440.674C173.421 441.262 173.939 441.794 174.289 442.13C174.457 442.284 174.429 442.578 174.247 442.746C174.079 442.928 173.827 442.942 173.645 442.774C173.253 442.396 172.819 441.948 172.427 441.528C171.797 440.856 171.517 440.408 171.461 440.03H171.447C171.377 440.422 171.083 440.884 170.453 441.556C170.061 441.976 169.557 442.494 168.997 443.04C168.829 443.194 168.549 443.18 168.381 443.012C168.199 442.816 168.171 442.55 168.325 442.382C168.913 441.822 169.459 441.262 169.977 440.674C170.691 439.89 170.929 439.302 170.929 438.154V436.894H168.675C168.423 436.894 168.311 436.698 168.311 436.446C168.311 436.208 168.423 436.012 168.675 436.012H170.929V434.654C170.929 434.374 171.181 434.248 171.433 434.248ZM178.489 434.164C178.741 434.164 178.979 434.29 178.979 434.57V445.742C178.979 446.022 178.741 446.148 178.489 446.148C178.251 446.148 178.013 446.022 178.013 445.742V439.442H176.151V445.154C176.151 445.434 175.913 445.56 175.661 445.56C175.423 445.56 175.185 445.434 175.185 445.154V434.71C175.185 434.43 175.423 434.304 175.661 434.304C175.913 434.304 176.151 434.43 176.151 434.71V438.56H178.013V434.57C178.013 434.29 178.251 434.164 178.489 434.164ZM185.268 434.584C187.438 434.584 188.516 435.676 188.516 437.118C188.516 438.574 187.438 439.666 185.268 439.666C183.098 439.666 182.02 438.574 182.02 437.118C182.02 435.676 183.098 434.584 185.268 434.584ZM185.268 435.438C183.728 435.438 183.014 436.18 183.014 437.118C183.014 438.07 183.728 438.798 185.268 438.798C186.808 438.798 187.522 438.07 187.522 437.118C187.522 436.18 186.808 435.438 185.268 435.438ZM191.064 434.164C191.316 434.164 191.568 434.29 191.568 434.584V445.728C191.568 446.022 191.316 446.148 191.064 446.148C190.798 446.148 190.56 446.022 190.56 445.728V443.754H187.984C187.76 443.754 187.648 443.558 187.648 443.32C187.648 443.082 187.76 442.886 187.984 442.886H190.56V434.584C190.56 434.29 190.798 434.164 191.064 434.164ZM189.258 440.604C189.482 440.59 189.622 440.744 189.65 440.982C189.664 441.234 189.552 441.444 189.342 441.458C188.11 441.57 186.92 441.64 185.702 441.696V445.588C185.702 445.882 185.45 446.008 185.198 446.008C184.946 446.008 184.694 445.882 184.694 445.588V441.724C183.644 441.752 182.594 441.766 181.474 441.766C181.222 441.766 181.11 441.57 181.11 441.332C181.11 441.094 181.222 440.898 181.474 440.898C184.036 440.898 186.43 440.856 189.258 440.604ZM200.894 435.032C201.132 435.032 201.244 435.228 201.244 435.48C201.244 435.718 201.132 435.928 200.894 435.928H198.318V436.922C198.318 437.916 198.654 438.588 199.382 439.204C200.012 439.736 200.698 440.268 201.146 440.59C201.384 440.758 201.384 441.024 201.23 441.234C201.09 441.43 200.824 441.5 200.586 441.332C200.152 441.024 199.592 440.59 198.948 440.058C198.206 439.456 197.884 439.008 197.814 438.7H197.8C197.73 439.022 197.394 439.484 196.652 440.086C196.022 440.618 195.364 441.122 194.79 441.528C194.552 441.696 194.3 441.612 194.16 441.43C194.006 441.22 193.978 440.94 194.23 440.772C194.846 440.324 195.588 439.75 196.218 439.218C196.946 438.602 197.282 437.93 197.282 436.936V435.928H194.622C194.384 435.928 194.272 435.718 194.272 435.48C194.272 435.228 194.384 435.032 194.622 435.032H200.894ZM203.554 434.164C203.806 434.164 204.058 434.29 204.058 434.584V443.124C204.058 443.418 203.806 443.544 203.554 443.544C203.288 443.544 203.036 443.418 203.036 443.124V434.584C203.036 434.29 203.288 434.164 203.554 434.164ZM196.638 442.452C196.904 442.452 197.156 442.578 197.156 442.872V445.616C197.156 445.798 197.226 445.868 197.422 445.868H204.058C204.31 445.868 204.422 446.078 204.422 446.316C204.422 446.554 204.31 446.764 204.058 446.764H197.086C196.358 446.764 196.12 446.54 196.12 445.826V442.872C196.12 442.578 196.372 442.452 196.638 442.452ZM213.972 436.978C215.792 436.978 216.814 437.706 216.814 438.84C216.814 439.862 215.974 440.562 214.476 440.688V441.962C215.498 441.92 216.562 441.85 217.668 441.752C217.878 441.738 218.032 441.878 218.046 442.13C218.06 442.354 217.962 442.564 217.738 442.592C215.274 442.802 212.852 442.858 210.248 442.858C210.01 442.858 209.898 442.662 209.898 442.438C209.898 442.214 210.01 442.018 210.248 442.018C211.312 442.018 212.376 442.018 213.482 441.99V440.688C211.97 440.562 211.13 439.876 211.13 438.84C211.13 437.706 212.152 436.978 213.972 436.978ZM219.432 434.164C219.698 434.164 219.936 434.29 219.936 434.584V438.434H221.532C221.784 438.434 221.896 438.644 221.896 438.882C221.896 439.134 221.784 439.344 221.532 439.344H219.936V443.572C219.936 443.866 219.698 443.992 219.432 443.992C219.166 443.992 218.928 443.866 218.928 443.572V434.584C218.928 434.29 219.166 434.164 219.432 434.164ZM212.362 443.656C212.614 443.656 212.866 443.782 212.866 444.076V445.686C212.866 445.882 212.936 445.938 213.132 445.938H219.964C220.188 445.938 220.3 446.134 220.3 446.372C220.3 446.596 220.188 446.792 219.964 446.792H212.81C212.082 446.792 211.844 446.568 211.844 445.854V444.076C211.844 443.782 212.096 443.656 212.362 443.656ZM213.972 433.982C214.238 433.982 214.49 434.108 214.49 434.388V435.312H217.276C217.514 435.312 217.626 435.508 217.626 435.746C217.626 435.984 217.514 436.166 217.276 436.166H210.57C210.332 436.166 210.22 435.984 210.22 435.746C210.22 435.508 210.332 435.312 210.57 435.312H213.454V434.388C213.454 434.108 213.706 433.982 213.972 433.982ZM213.972 437.762C212.684 437.762 212.068 438.21 212.068 438.84C212.068 439.47 212.684 439.918 213.972 439.918C215.26 439.918 215.876 439.47 215.876 438.84C215.876 438.21 215.26 437.762 213.972 437.762ZM227.022 437.524C228.898 437.524 229.99 438.406 229.99 439.68C229.99 440.968 228.898 441.836 227.022 441.836C225.132 441.836 224.04 440.968 224.04 439.68C224.04 438.406 225.132 437.524 227.022 437.524ZM227.022 434.262C227.288 434.262 227.526 434.388 227.526 434.682V435.718H230.438C230.676 435.718 230.788 435.914 230.788 436.152C230.788 436.404 230.676 436.6 230.438 436.6H223.494C223.256 436.6 223.144 436.404 223.144 436.152C223.144 435.914 223.256 435.718 223.494 435.718H226.504V434.682C226.504 434.388 226.756 434.262 227.022 434.262ZM227.022 438.35C225.678 438.35 224.978 438.924 224.978 439.68C224.978 440.45 225.678 441.024 227.022 441.024C228.366 441.024 229.052 440.45 229.052 439.68C229.052 438.924 228.366 438.35 227.022 438.35ZM232.79 434.164C233.042 434.164 233.294 434.29 233.294 434.584V445.728C233.294 446.022 233.042 446.148 232.79 446.148C232.524 446.148 232.286 446.022 232.286 445.728V434.584C232.286 434.29 232.524 434.164 232.79 434.164ZM230.998 442.956C231.222 442.928 231.362 443.096 231.376 443.334C231.404 443.586 231.292 443.796 231.082 443.81C228.478 444.034 226 444.118 223.2 444.118C222.948 444.118 222.836 443.922 222.836 443.684C222.836 443.446 222.948 443.236 223.2 443.236C225.776 443.236 228.17 443.208 230.998 442.956ZM244.356 434.43C245.084 434.43 245.322 434.654 245.322 435.368V436.25C245.322 436.964 245.084 437.188 244.356 437.188H238.35C238.196 437.188 238.126 437.258 238.126 437.412V438.154C238.126 438.308 238.196 438.364 238.35 438.364H245.322C245.546 438.364 245.658 438.56 245.658 438.77C245.658 438.994 245.546 439.176 245.322 439.176H238.098C237.37 439.176 237.132 438.952 237.132 438.238V437.342C237.132 436.628 237.37 436.404 238.098 436.404H244.104C244.272 436.404 244.342 436.348 244.342 436.194V435.452C244.342 435.298 244.272 435.242 244.104 435.242H237.44C237.216 435.242 237.104 435.046 237.104 434.822C237.104 434.612 237.216 434.43 237.44 434.43H244.356ZM246.736 440.282C246.96 440.282 247.072 440.478 247.072 440.702C247.072 440.94 246.96 441.122 246.736 441.122H235.732C235.508 441.122 235.396 440.94 235.396 440.702C235.396 440.478 235.508 440.282 235.732 440.282H246.736ZM244.426 442.228C245.154 442.228 245.392 442.452 245.392 443.166V444.062C245.392 444.776 245.154 445 244.426 445H238.28C238.112 445 238.042 445.056 238.042 445.224V445.952C238.042 446.12 238.112 446.176 238.28 446.176H245.406C245.63 446.176 245.728 446.372 245.728 446.582C245.728 446.792 245.63 446.988 245.406 446.988H238.028C237.3 446.988 237.062 446.778 237.062 446.064V445.154C237.062 444.44 237.3 444.216 238.028 444.216H244.188C244.342 444.216 244.412 444.16 244.412 443.992V443.264C244.412 443.11 244.342 443.04 244.188 443.04H237.37C237.146 443.04 237.034 442.858 237.034 442.634C237.034 442.424 237.146 442.228 237.37 442.228H244.426ZM255.026 435.158C255.278 435.158 255.39 435.354 255.39 435.592C255.39 435.844 255.278 436.04 255.026 436.04H253.514C253.318 436.04 253.248 436.11 253.248 436.292V441.78C253.248 441.962 253.318 442.032 253.514 442.032C254.116 442.032 254.788 441.99 255.334 441.892C255.544 441.85 255.698 442.004 255.726 442.242C255.768 442.494 255.67 442.718 255.446 442.76C254.746 442.872 253.962 442.914 253.22 442.914C252.492 442.914 252.254 442.69 252.254 441.976V436.096C252.254 435.382 252.492 435.158 253.22 435.158H255.026ZM259.016 435.158C259.268 435.158 259.38 435.354 259.38 435.592C259.38 435.844 259.268 436.04 259.016 436.04H257.448C257.252 436.04 257.182 436.11 257.182 436.292V441.78C257.182 441.962 257.252 442.032 257.448 442.032C258.12 442.032 258.96 441.99 259.52 441.878C259.73 441.836 259.884 441.99 259.912 442.228C259.954 442.48 259.856 442.704 259.632 442.746C258.904 442.872 257.966 442.914 257.154 442.914C256.426 442.914 256.188 442.69 256.188 441.976V436.096C256.188 435.382 256.426 435.158 257.154 435.158H259.016ZM261.774 434.164C262.04 434.164 262.278 434.29 262.278 434.584V445.728C262.278 446.022 262.04 446.148 261.774 446.148C261.522 446.148 261.284 446.022 261.284 445.728V439.344H259.478C259.226 439.344 259.114 439.148 259.114 438.896C259.114 438.644 259.226 438.448 259.478 438.448H261.284V434.584C261.284 434.29 261.522 434.164 261.774 434.164ZM270.219 434.318C272.865 434.318 274.363 435.018 274.363 436.502C274.363 437.874 273.047 438.574 270.723 438.658V439.946H275.721C275.945 439.946 276.057 440.142 276.057 440.38C276.057 440.604 275.945 440.8 275.721 440.8H264.717C264.493 440.8 264.381 440.604 264.381 440.38C264.381 440.142 264.493 439.946 264.717 439.946H269.715V438.658C267.377 438.574 266.075 437.874 266.075 436.502C266.075 435.018 267.573 434.318 270.219 434.318ZM273.411 441.948C274.139 441.948 274.377 442.172 274.377 442.886V443.922C274.377 444.636 274.139 444.86 273.411 444.86H267.265C267.111 444.86 267.041 444.916 267.041 445.084V445.952C267.041 446.106 267.111 446.162 267.265 446.162H274.391C274.615 446.162 274.713 446.358 274.713 446.568C274.713 446.792 274.615 446.988 274.391 446.988H267.013C266.285 446.988 266.047 446.764 266.047 446.05V445C266.047 444.286 266.285 444.062 267.013 444.062H273.159C273.327 444.062 273.397 444.006 273.397 443.852V442.984C273.397 442.83 273.327 442.76 273.159 442.76H266.355C266.131 442.76 266.019 442.578 266.019 442.354C266.019 442.144 266.131 441.948 266.355 441.948H273.411ZM270.219 435.158C268.091 435.158 267.097 435.62 267.097 436.502C267.097 437.37 268.091 437.846 270.219 437.846C272.347 437.846 273.341 437.37 273.341 436.502C273.341 435.62 272.347 435.158 270.219 435.158ZM282.261 435.06C282.989 435.06 283.227 435.284 283.227 435.998V438.588C283.227 439.302 282.989 439.526 282.261 439.526H279.181C278.985 439.526 278.915 439.596 278.915 439.778V442.088C278.915 442.27 278.985 442.34 279.181 442.34C281.029 442.34 282.835 442.284 284.375 442.116C284.585 442.088 284.753 442.242 284.781 442.48C284.809 442.76 284.697 442.984 284.473 442.998C283.129 443.152 281.309 443.222 278.873 443.222C278.145 443.222 277.907 442.998 277.907 442.284V439.61C277.907 438.896 278.145 438.672 278.873 438.672H281.953C282.135 438.672 282.219 438.602 282.219 438.406V436.194C282.219 436.012 282.135 435.942 281.953 435.942H278.257C278.019 435.942 277.907 435.746 277.907 435.494C277.907 435.256 278.019 435.06 278.257 435.06H282.261ZM287.091 434.164C287.343 434.164 287.595 434.29 287.595 434.584V445.728C287.595 446.022 287.343 446.148 287.091 446.148C286.839 446.148 286.587 446.022 286.587 445.728V440.702H284.515C284.263 440.702 284.151 440.492 284.151 440.254C284.151 440.016 284.263 439.82 284.515 439.82H286.587V437.776H284.515C284.263 437.776 284.151 437.566 284.151 437.328C284.151 437.09 284.263 436.894 284.515 436.894H286.587V434.584C286.587 434.29 286.839 434.164 287.091 434.164ZM297.593 442.816C297.803 442.788 297.957 442.956 297.971 443.194C297.985 443.446 297.887 443.656 297.663 443.67C295.199 443.88 292.791 443.95 290.215 443.95C289.963 443.95 289.851 443.754 289.851 443.516C289.851 443.278 289.963 443.068 290.215 443.068C291.237 443.068 292.259 443.068 293.309 443.054V440.59H291.657C290.929 440.59 290.691 440.366 290.691 439.652V435.354C290.691 435.074 290.943 434.948 291.181 434.948C291.447 434.948 291.699 435.074 291.699 435.354V436.978H295.913V435.354C295.913 435.074 296.165 434.948 296.403 434.948C296.669 434.948 296.921 435.074 296.921 435.354V439.652C296.921 440.366 296.683 440.59 295.955 440.59H294.317V443.012C295.367 442.984 296.445 442.928 297.593 442.816ZM299.385 434.164C299.651 434.164 299.889 434.29 299.889 434.584V438.91H301.485C301.737 438.91 301.849 439.12 301.849 439.358C301.849 439.61 301.737 439.82 301.485 439.82H299.889V445.728C299.889 446.022 299.651 446.148 299.385 446.148C299.119 446.148 298.881 446.022 298.881 445.728V434.584C298.881 434.29 299.119 434.164 299.385 434.164ZM291.699 439.484C291.699 439.652 291.769 439.722 291.937 439.722H295.661C295.843 439.722 295.913 439.652 295.913 439.484V437.832H291.699V439.484ZM308.445 434.682C311.119 434.682 312.631 435.914 312.631 437.93C312.631 439.946 311.119 441.178 308.445 441.178C305.771 441.178 304.259 439.946 304.259 437.93C304.259 435.914 305.771 434.682 308.445 434.682ZM308.445 435.55C306.303 435.55 305.281 436.558 305.281 437.93C305.281 439.288 306.303 440.296 308.445 440.296C310.587 440.296 311.609 439.288 311.609 437.93C311.609 436.558 310.587 435.55 308.445 435.55ZM306.219 441.5C306.499 441.5 306.737 441.626 306.737 441.92V443.978H310.153V441.92C310.153 441.626 310.391 441.5 310.657 441.5C310.923 441.5 311.175 441.626 311.175 441.92V443.978H313.933C314.171 443.978 314.283 444.174 314.283 444.412C314.283 444.65 314.171 444.846 313.933 444.846H302.957C302.719 444.846 302.607 444.65 302.607 444.412C302.607 444.174 302.719 443.978 302.957 443.978H305.715V441.92C305.715 441.626 305.967 441.5 306.219 441.5ZM316.427 443.782C316.889 443.782 317.225 444.132 317.225 444.58C317.225 445.014 316.889 445.364 316.427 445.364C315.979 445.364 315.629 445.014 315.629 444.58C315.629 444.132 315.979 443.782 316.427 443.782Z" fill="#808983"/>
</g>
<g filter="url(#filter7_d_1850_24764)">
<rect x="180" y="524" width="55" height="55" rx="20" fill="#FFFDFA"/>
<path d="M197.303 567.663C207.242 567.715 211.947 564.431 209.974 562.356C208.001 560.281 195.743 556.099 195.496 553.046C195.141 548.673 207.69 542.808 221.982 541.98" stroke="url(#paint5_linear_1850_24764)" stroke-opacity="0.5" stroke-width="1.8" stroke-linecap="round"/>
<path d="M194.271 539.477C194.309 539.407 194.41 539.407 194.449 539.477L194.839 540.19C194.848 540.207 194.862 540.221 194.879 540.231L195.592 540.621C195.663 540.659 195.663 540.76 195.592 540.799L194.879 541.189C194.862 541.198 194.848 541.212 194.839 541.229L194.449 541.942C194.41 542.013 194.309 542.013 194.271 541.942L193.881 541.229C193.872 541.212 193.858 541.198 193.841 541.189L193.127 540.799C193.057 540.76 193.057 540.659 193.127 540.621L193.841 540.231C193.858 540.221 193.872 540.207 193.881 540.19L194.271 539.477Z" fill="#07BEB8"/>
<path d="M216.169 544.148C215.655 544.513 215.061 544.748 214.436 544.834C213.75 544.954 213.057 544.948 212.296 544.954C212.047 544.954 211.807 545.054 211.631 545.23C211.455 545.406 211.355 545.645 211.355 545.895C211.355 546.144 211.455 546.383 211.631 546.559C211.807 546.736 212.047 546.835 212.296 546.835H212.444C213.214 546.851 213.984 546.802 214.745 546.688C215.764 546.518 216.628 546.164 217.313 545.638C218.198 544.957 218.741 543.981 218.763 543.027C218.771 542.625 218.682 542.226 218.505 541.865C217.963 542.213 217.419 542.559 216.872 542.901C216.877 542.928 216.881 542.956 216.882 542.983C216.876 543.362 216.595 543.82 216.169 544.148Z" fill="#07BEB8"/>
<path d="M219.843 555.678C219.86 555.635 219.92 555.635 219.937 555.678L220.391 556.829C220.396 556.842 220.406 556.852 220.419 556.858L221.57 557.311C221.613 557.328 221.613 557.389 221.57 557.406L220.419 557.86C220.406 557.865 220.396 557.875 220.391 557.888L219.937 559.039C219.92 559.082 219.86 559.082 219.843 559.039L219.389 557.888C219.384 557.875 219.373 557.865 219.36 557.86L218.21 557.406C218.167 557.389 218.167 557.328 218.21 557.311L219.36 556.858C219.373 556.852 219.384 556.842 219.389 556.829L219.843 555.678Z" fill="#07BEB8"/>
<path d="M207.856 552.248C209.846 552.15 211.795 551.65 213.58 550.779C214.518 550.309 215.469 549.744 215.902 548.501C216.041 548.078 216.066 547.627 215.975 547.193C215.36 547.319 214.743 547.439 214.124 547.555C214.15 547.669 214.146 547.787 214.113 547.899C213.925 548.439 213.51 548.724 212.721 549.121C211.173 549.869 209.488 550.3 207.766 550.388C207.111 550.418 206.455 550.41 205.801 550.362C205.897 550.024 205.991 549.686 206.089 549.346C206.263 548.731 206.44 548.109 206.615 547.477C207.363 544.764 208.973 542.724 211.827 540.856C213.733 539.608 215.59 538.348 217.362 536.647C217.669 536.351 217.888 536.248 217.98 536.223C218.059 536.403 218.095 536.598 218.086 536.795C218.08 538.971 216.281 540.903 213.988 541.194C213.865 541.21 213.746 541.249 213.639 541.31C213.531 541.371 213.436 541.452 213.361 541.549C213.285 541.646 213.229 541.756 213.197 541.874C213.164 541.992 213.156 542.115 213.172 542.236C213.187 542.357 213.227 542.474 213.289 542.58C213.351 542.686 213.433 542.779 213.531 542.854C213.63 542.928 213.742 542.983 213.862 543.015C213.981 543.047 214.106 543.056 214.229 543.04C217.445 542.633 219.97 539.894 219.978 536.801C219.978 535.492 219.33 534.541 218.319 534.379C217.595 534.261 216.801 534.586 216.043 535.315C214.386 536.902 212.609 538.109 210.784 539.305C207.563 541.411 205.659 543.85 204.787 546.98C204.612 547.609 204.436 548.227 204.263 548.838C204.142 549.266 204.021 549.689 203.901 550.111C202.339 549.818 200.899 549.316 199.795 548.635C199.583 548.509 199.329 548.471 199.088 548.528C198.847 548.585 198.639 548.732 198.507 548.939C198.376 549.146 198.332 549.395 198.385 549.633C198.439 549.872 198.585 550.08 198.792 550.213C200.912 551.521 203.902 552.264 206.936 552.264C207.242 552.27 207.55 552.263 207.856 552.248Z" fill="#07BEB8"/>
<path d="M204.914 552.783L203.569 552.635C203.341 552.609 203.131 552.766 203.092 552.992C202.072 558.958 203.566 562.989 203.73 563.502C203.898 564.025 204.534 563.86 204.777 564.459C205.261 565.649 205.801 566.405 206.154 566.315C206.507 566.225 205.805 565.511 205.705 564.07C205.666 563.501 206.211 563.401 206.06 562.851C205.447 560.61 204.76 557.772 205.304 553.279C205.333 553.035 205.159 552.81 204.914 552.783Z" fill="#07BEB8"/>
</g>
<g filter="url(#filter8_d_1850_24764)">
<path fill-rule="evenodd" clip-rule="evenodd" d="M208.705 331.006C216.838 331.112 225.882 333.138 228.407 340.578C230.939 348.04 224.944 354.891 218.4 359.577C211.531 364.497 202.805 368.553 195.634 364.05C187.516 358.952 183.845 348.761 187.294 340.043C190.359 332.294 200.09 330.894 208.705 331.006Z" fill="url(#paint6_linear_1850_24764)"/>
</g>
</g>
</g>
<defs>
<filter id="filter0_d_1850_24764" x="0" y="0" width="415" height="688" filterUnits="userSpaceOnUse" color-interpolation-filters="sRGB">
<feFlood flood-opacity="0" result="BackgroundImageFix"/>
<feColorMatrix in="SourceAlpha" type="matrix" values="0 0 0 0 0 0 0 0 0 0 0 0 0 0 0 0 0 0 127 0" result="hardAlpha"/>
<feOffset dy="4"/>
<feGaussianBlur stdDeviation="10"/>
<feComposite in2="hardAlpha" operator="out"/>
<feColorMatrix type="matrix" values="0 0 0 0 0 0 0 0 0 0 0 0 0 0 0 0 0 0 0.08 0"/>
<feBlend mode="normal" in2="BackgroundImageFix" result="effect1_dropShadow_1850_24764"/>
<feBlend mode="normal" in="SourceGraphic" in2="effect1_dropShadow_1850_24764" result="shape"/>
</filter>
<filter id="filter1_d_1850_24764" x="40" y="558" width="73" height="73" filterUnits="userSpaceOnUse" color-interpolation-filters="sRGB">
<feFlood flood-opacity="0" result="BackgroundImageFix"/>
<feColorMatrix in="SourceAlpha" type="matrix" values="0 0 0 0 0 0 0 0 0 0 0 0 0 0 0 0 0 0 127 0" result="hardAlpha"/>
<feOffset dy="4"/>
<feGaussianBlur stdDeviation="10"/>
<feComposite in2="hardAlpha" operator="out"/>
<feColorMatrix type="matrix" values="0 0 0 0 0.679896 0 0 0 0 0.891667 0 0 0 0 0.823153 0 0 0 0.9 0"/>
<feBlend mode="normal" in2="BackgroundImageFix" result="effect1_dropShadow_1850_24764"/>
<feBlend mode="normal" in="SourceGraphic" in2="effect1_dropShadow_1850_24764" result="shape"/>
</filter>
<filter id="filter2_d_1850_24764" x="301" y="519" width="75" height="76" filterUnits="userSpaceOnUse" color-interpolation-filters="sRGB">
<feFlood flood-opacity="0" result="BackgroundImageFix"/>
<feColorMatrix in="SourceAlpha" type="matrix" values="0 0 0 0 0 0 0 0 0 0 0 0 0 0 0 0 0 0 127 0" result="hardAlpha"/>
<feOffset dy="4"/>
<feGaussianBlur stdDeviation="10"/>
<feComposite in2="hardAlpha" operator="out"/>
<feColorMatrix type="matrix" values="0 0 0 0 0.679896 0 0 0 0 0.891667 0 0 0 0 0.823153 0 0 0 0.9 0"/>
<feBlend mode="normal" in2="BackgroundImageFix" result="effect1_dropShadow_1850_24764"/>
<feBlend mode="normal" in="SourceGraphic" in2="effect1_dropShadow_1850_24764" result="shape"/>
</filter>
<filter id="filter3_d_1850_24764" x="50" y="245" width="64" height="63" filterUnits="userSpaceOnUse" color-interpolation-filters="sRGB">
<feFlood flood-opacity="0" result="BackgroundImageFix"/>
<feColorMatrix in="SourceAlpha" type="matrix" values="0 0 0 0 0 0 0 0 0 0 0 0 0 0 0 0 0 0 127 0" result="hardAlpha"/>
<feOffset dy="4"/>
<feGaussianBlur stdDeviation="10"/>
<feComposite in2="hardAlpha" operator="out"/>
<feColorMatrix type="matrix" values="0 0 0 0 0.679896 0 0 0 0 0.891667 0 0 0 0 0.823153 0 0 0 0.9 0"/>
<feBlend mode="normal" in2="BackgroundImageFix" result="effect1_dropShadow_1850_24764"/>
<feBlend mode="normal" in="SourceGraphic" in2="effect1_dropShadow_1850_24764" result="shape"/>
</filter>
<filter id="filter4_d_1850_24764" x="334" y="277" width="55" height="55" filterUnits="userSpaceOnUse" color-interpolation-filters="sRGB">
<feFlood flood-opacity="0" result="BackgroundImageFix"/>
<feColorMatrix in="SourceAlpha" type="matrix" values="0 0 0 0 0 0 0 0 0 0 0 0 0 0 0 0 0 0 127 0" result="hardAlpha"/>
<feOffset dy="4"/>
<feGaussianBlur stdDeviation="10"/>
<feComposite in2="hardAlpha" operator="out"/>
<feColorMatrix type="matrix" values="0 0 0 0 0.679896 0 0 0 0 0.891667 0 0 0 0 0.823153 0 0 0 0.9 0"/>
<feBlend mode="normal" in2="BackgroundImageFix" result="effect1_dropShadow_1850_24764"/>
<feBlend mode="normal" in="SourceGraphic" in2="effect1_dropShadow_1850_24764" result="shape"/>
</filter>
<filter id="filter5_d_1850_24764" x="127" y="118" width="161" height="74" filterUnits="userSpaceOnUse" color-interpolation-filters="sRGB">
<feFlood flood-opacity="0" result="BackgroundImageFix"/>
<feColorMatrix in="SourceAlpha" type="matrix" values="0 0 0 0 0 0 0 0 0 0 0 0 0 0 0 0 0 0 127 0" result="hardAlpha"/>
<feOffset dy="4"/>
<feGaussianBlur stdDeviation="10"/>
<feComposite in2="hardAlpha" operator="out"/>
<feColorMatrix type="matrix" values="0 0 0 0 0 0 0 0 0 0 0 0 0 0 0 0 0 0 0.08 0"/>
<feBlend mode="normal" in2="BackgroundImageFix" result="effect1_dropShadow_1850_24764"/>
<feBlend mode="normal" in="SourceGraphic" in2="effect1_dropShadow_1850_24764" result="shape"/>
</filter>
<filter id="filter6_d_1850_24764" x="25" y="330" width="365" height="182" filterUnits="userSpaceOnUse" color-interpolation-filters="sRGB">
<feFlood flood-opacity="0" result="BackgroundImageFix"/>
<feColorMatrix in="SourceAlpha" type="matrix" values="0 0 0 0 0 0 0 0 0 0 0 0 0 0 0 0 0 0 127 0" result="hardAlpha"/>
<feOffset dy="4"/>
<feGaussianBlur stdDeviation="10"/>
<feComposite in2="hardAlpha" operator="out"/>
<feColorMatrix type="matrix" values="0 0 0 0 0 0 0 0 0 0 0 0 0 0 0 0 0 0 0.08 0"/>
<feBlend mode="normal" in2="BackgroundImageFix" result="effect1_dropShadow_1850_24764"/>
<feBlend mode="normal" in="SourceGraphic" in2="effect1_dropShadow_1850_24764" result="shape"/>
</filter>
<filter id="filter7_d_1850_24764" x="164" y="512" width="87" height="87" filterUnits="userSpaceOnUse" color-interpolation-filters="sRGB">
<feFlood flood-opacity="0" result="BackgroundImageFix"/>
<feColorMatrix in="SourceAlpha" type="matrix" values="0 0 0 0 0 0 0 0 0 0 0 0 0 0 0 0 0 0 127 0" result="hardAlpha"/>
<feOffset dy="4"/>
<feGaussianBlur stdDeviation="8"/>
<feComposite in2="hardAlpha" operator="out"/>
<feColorMatrix type="matrix" values="0 0 0 0 0 0 0 0 0 0 0 0 0 0 0 0 0 0 0.08 0"/>
<feBlend mode="normal" in2="BackgroundImageFix" result="effect1_dropShadow_1850_24764"/>
<feBlend mode="normal" in="SourceGraphic" in2="effect1_dropShadow_1850_24764" result="shape"/>
</filter>
<filter id="filter8_d_1850_24764" x="166" y="315" width="83" height="75" filterUnits="userSpaceOnUse" color-interpolation-filters="sRGB">
<feFlood flood-opacity="0" result="BackgroundImageFix"/>
<feColorMatrix in="SourceAlpha" type="matrix" values="0 0 0 0 0 0 0 0 0 0 0 0 0 0 0 0 0 0 127 0" result="hardAlpha"/>
<feOffset dy="4"/>
<feGaussianBlur stdDeviation="10"/>
<feComposite in2="hardAlpha" operator="out"/>
<feColorMatrix type="matrix" values="0 0 0 0 0.679896 0 0 0 0 0.891667 0 0 0 0 0.823153 0 0 0 0.9 0"/>
<feBlend mode="normal" in2="BackgroundImageFix" result="effect1_dropShadow_1850_24764"/>
<feBlend mode="normal" in="SourceGraphic" in2="effect1_dropShadow_1850_24764" result="shape"/>
</filter>
<linearGradient id="paint0_linear_1850_24764" x1="4.00002" y1="666.64" x2="420.284" y2="339.32" gradientUnits="userSpaceOnUse">
<stop offset="0.046875" stop-color="#7CEFA7"/>
<stop offset="1" stop-color="#8FD3F4"/>
</linearGradient>
<linearGradient id="paint1_linear_1850_24764" x1="60" y1="609.317" x2="93.67" y2="582.842" gradientUnits="userSpaceOnUse">
<stop offset="0.046875" stop-color="#7CEFA7"/>
<stop offset="1" stop-color="#8FD3F4"/>
</linearGradient>
<linearGradient id="paint2_linear_1850_24764" x1="311.899" y1="567.747" x2="354.622" y2="550.171" gradientUnits="userSpaceOnUse">
<stop offset="0.046875" stop-color="#7CEFA7"/>
<stop offset="1" stop-color="#8FD3F4"/>
</linearGradient>
<linearGradient id="paint3_linear_1850_24764" x1="70" y1="285.615" x2="93.6834" y2="266.183" gradientUnits="userSpaceOnUse">
<stop offset="0.046875" stop-color="#7CEFA7"/>
<stop offset="1" stop-color="#8FD3F4"/>
</linearGradient>
<linearGradient id="paint4_linear_1850_24764" x1="354" y1="309.053" x2="369.305" y2="297.019" gradientUnits="userSpaceOnUse">
<stop offset="0.046875" stop-color="#7CEFA7"/>
<stop offset="1" stop-color="#8FD3F4"/>
</linearGradient>
<linearGradient id="paint5_linear_1850_24764" x1="197.6" y1="567.806" x2="213.521" y2="538.658" gradientUnits="userSpaceOnUse">
<stop stop-color="#07BEB8"/>
<stop offset="0.0001" stop-color="#07BEB8" stop-opacity="0.765716"/>
<stop offset="1" stop-color="#E8E8E8" stop-opacity="0.3"/>
</linearGradient>
<linearGradient id="paint6_linear_1850_24764" x1="195.717" y1="358.062" x2="235.46" y2="326.226" gradientUnits="userSpaceOnUse">
<stop stop-color="#B0F5CA"/>
<stop offset="1" stop-color="#8FD3F4"/>
</linearGradient>
<clipPath id="clip0_1850_24764">
<path d="M20 52C20 32.1178 36.1177 16 56 16H359C378.882 16 395 32.1177 395 52V664H20V52Z" fill="white"/>
</clipPath>
</defs>
</svg>
