<svg viewBox="0 0 325 142" fill="none" xmlns="http://www.w3.org/2000/svg">
<rect width="325" height="142" rx="28" fill="#FFFDFA"/>
<path d="M67.7736 42.455C68.0286 42.455 68.1486 42.665 68.1486 42.935C68.1486 43.19 68.0286 43.415 67.7736 43.415H64.9836V45.14C64.9836 46.475 65.2536 47.15 66.1986 48.125C66.8736 48.8 67.5636 49.46 68.1036 49.925C68.3286 50.12 68.2686 50.435 68.1036 50.615C67.9086 50.795 67.6386 50.87 67.4136 50.66C66.9186 50.24 66.3336 49.67 65.6586 48.995C64.7136 48.05 64.5186 47.66 64.4436 47.33H64.4286C64.3536 47.675 64.1436 48.065 63.2136 49.01C62.5386 49.685 61.9386 50.255 61.2486 50.855C61.0086 51.065 60.7236 50.975 60.5586 50.795C60.3786 50.585 60.3336 50.285 60.5586 50.105C61.3086 49.445 61.9836 48.8 62.6586 48.125C63.6036 47.15 63.8736 46.475 63.8736 45.14V43.415H61.0236C60.7686 43.415 60.6486 43.19 60.6486 42.935C60.6486 42.665 60.7686 42.455 61.0236 42.455H67.7736ZM70.5786 41.39C70.8636 41.39 71.1336 41.525 71.1336 41.84V53.78C71.1336 54.095 70.8636 54.23 70.5786 54.23C70.3086 54.23 70.0386 54.095 70.0386 53.78V41.84C70.0386 41.525 70.3086 41.39 70.5786 41.39ZM83.3459 50.06C84.1259 50.06 84.3809 50.3 84.3809 51.065V54.02C84.3809 54.785 84.1259 55.025 83.3459 55.025H76.4759C75.6959 55.025 75.4409 54.785 75.4409 54.02V51.065C75.4409 50.3 75.6959 50.06 76.4759 50.06H83.3459ZM85.7759 47.06C86.0459 47.06 86.1659 47.27 86.1659 47.54C86.1659 47.795 86.0459 48.005 85.7759 48.005H74.0459C73.7759 48.005 73.6559 47.795 73.6559 47.54C73.6559 47.27 73.7759 47.06 74.0459 47.06H82.7309C83.0009 46.055 83.1509 44.99 83.1509 43.865V43.19C83.1509 42.995 83.0759 42.92 82.8659 42.92H75.6959C75.4409 42.92 75.3209 42.71 75.3209 42.44C75.3209 42.185 75.4409 41.975 75.6959 41.975H83.1959C83.9759 41.975 84.2309 42.215 84.2309 42.98V43.79C84.2309 44.96 84.0509 46.16 83.7959 47.06H85.7759ZM76.8059 50.975C76.5959 50.975 76.5209 51.05 76.5209 51.245V53.84C76.5209 54.035 76.5959 54.11 76.8059 54.11H83.0159C83.2259 54.11 83.3009 54.035 83.3009 53.84V51.245C83.3009 51.05 83.2259 50.975 83.0159 50.975H76.8059ZM93.7733 42.455C94.5533 42.455 94.8083 42.695 94.8083 43.46V45.305C94.8083 47.735 94.5833 48.755 91.8983 51.62C91.6883 51.845 91.4033 51.815 91.1783 51.62C90.9833 51.425 90.9383 51.17 91.1183 50.96C93.5483 48.335 93.7583 47.42 93.7583 45.26V43.685C93.7583 43.49 93.6683 43.415 93.4733 43.415H92.0183C91.7483 43.415 91.6283 43.19 91.6283 42.935C91.6283 42.68 91.7483 42.455 92.0183 42.455H93.7733ZM89.9633 42.455C90.7733 42.455 90.9983 42.665 90.9983 43.46V44.93C90.9983 47.285 90.8783 47.915 88.2083 50.495C87.9983 50.705 87.7283 50.675 87.5183 50.465C87.3083 50.27 87.2633 50 87.4733 49.805C89.8583 47.48 89.9483 46.955 89.9483 44.87V43.685C89.9483 43.49 89.8583 43.415 89.6633 43.415H88.0733C87.8033 43.415 87.6833 43.19 87.6833 42.935C87.6833 42.68 87.8033 42.455 88.0733 42.455H89.9633ZM97.4333 41.39C97.7183 41.39 97.9733 41.525 97.9733 41.84V46.025H99.6983C99.9683 46.025 100.088 46.25 100.088 46.505C100.088 46.76 99.9683 46.985 99.6983 46.985H97.9733V53.78C97.9733 54.095 97.7183 54.23 97.4333 54.23C97.1633 54.23 96.9083 54.095 96.9083 53.78V41.84C96.9083 41.525 97.1633 41.39 97.4333 41.39ZM108.731 42.455C108.986 42.455 109.106 42.665 109.106 42.935C109.106 43.19 108.986 43.415 108.731 43.415H105.941V45.14C105.941 46.475 106.211 47.15 107.156 48.125C107.831 48.8 108.521 49.46 109.061 49.925C109.286 50.12 109.226 50.435 109.061 50.615C108.866 50.795 108.596 50.87 108.371 50.66C107.876 50.24 107.291 49.67 106.616 48.995C105.671 48.05 105.476 47.66 105.401 47.33H105.386C105.311 47.675 105.101 48.065 104.171 49.01C103.496 49.685 102.896 50.255 102.206 50.855C101.966 51.065 101.681 50.975 101.516 50.795C101.336 50.585 101.291 50.285 101.516 50.105C102.266 49.445 102.941 48.8 103.616 48.125C104.561 47.15 104.831 46.475 104.831 45.14V43.415H101.981C101.726 43.415 101.606 43.19 101.606 42.935C101.606 42.665 101.726 42.455 101.981 42.455H108.731ZM111.536 41.39C111.821 41.39 112.091 41.525 112.091 41.84V53.78C112.091 54.095 111.821 54.23 111.536 54.23C111.266 54.23 110.996 54.095 110.996 53.78V41.84C110.996 41.525 111.266 41.39 111.536 41.39ZM119.203 42.185C121.558 42.185 122.743 43.58 122.743 45.38C122.743 47.165 121.558 48.56 119.203 48.56C116.848 48.56 115.663 47.165 115.663 45.38C115.663 43.58 116.848 42.185 119.203 42.185ZM119.203 43.13C117.523 43.13 116.728 44.135 116.728 45.38C116.728 46.625 117.523 47.63 119.203 47.63C120.883 47.63 121.678 46.625 121.678 45.38C121.678 44.135 120.883 43.13 119.203 43.13ZM123.538 50.555C123.778 50.525 123.928 50.705 123.958 50.96C123.973 51.23 123.853 51.47 123.628 51.485C120.838 51.725 118.198 51.815 115.198 51.815C114.928 51.815 114.808 51.605 114.808 51.335C114.808 51.08 114.928 50.855 115.198 50.855C117.943 50.855 120.508 50.825 123.538 50.555ZM125.473 41.39C125.743 41.39 126.013 41.525 126.013 41.84V53.78C126.013 54.095 125.743 54.23 125.473 54.23C125.188 54.23 124.933 54.095 124.933 53.78V41.84C124.933 41.525 125.188 41.39 125.473 41.39ZM133.23 42.305C133.515 42.305 133.785 42.44 133.785 42.755V49.475C133.785 49.685 133.86 49.76 134.07 49.76C136.23 49.76 138.015 49.64 139.8 49.4C140.04 49.37 140.205 49.535 140.25 49.805C140.28 50.075 140.175 50.33 139.935 50.36C138.375 50.57 136.515 50.705 133.71 50.705C132.93 50.705 132.675 50.465 132.675 49.7V42.755C132.675 42.44 132.945 42.305 133.23 42.305ZM141.945 41.39C142.23 41.39 142.5 41.525 142.5 41.84V46.025H144.405C144.675 46.025 144.795 46.25 144.795 46.505C144.795 46.775 144.675 47 144.405 47H142.5V53.78C142.5 54.095 142.23 54.23 141.945 54.23C141.675 54.23 141.405 54.095 141.405 53.78V41.84C141.405 41.525 141.675 41.39 141.945 41.39ZM150.258 42.185C152.613 42.185 153.798 43.58 153.798 45.38C153.798 47.165 152.613 48.56 150.258 48.56C147.903 48.56 146.718 47.165 146.718 45.38C146.718 43.58 147.903 42.185 150.258 42.185ZM150.258 43.13C148.578 43.13 147.783 44.135 147.783 45.38C147.783 46.625 148.578 47.63 150.258 47.63C151.938 47.63 152.733 46.625 152.733 45.38C152.733 44.135 151.938 43.13 150.258 43.13ZM154.593 50.555C154.833 50.525 154.983 50.705 155.013 50.96C155.028 51.23 154.908 51.47 154.683 51.485C151.893 51.725 149.253 51.815 146.253 51.815C145.983 51.815 145.863 51.605 145.863 51.335C145.863 51.08 145.983 50.855 146.253 50.855C148.998 50.855 151.563 50.825 154.593 50.555ZM156.528 41.39C156.798 41.39 157.068 41.525 157.068 41.84V53.78C157.068 54.095 156.798 54.23 156.528 54.23C156.243 54.23 155.988 54.095 155.988 53.78V41.84C155.988 41.525 156.243 41.39 156.528 41.39ZM167.06 42.08C169.355 42.08 170.45 43.58 170.45 45.485C170.45 47.375 169.355 48.875 167.06 48.875C164.765 48.875 163.67 47.375 163.67 45.485C163.67 43.58 164.765 42.08 167.06 42.08ZM167.06 43.025C165.395 43.025 164.735 44.165 164.735 45.485C164.735 46.79 165.395 47.93 167.06 47.93C168.725 47.93 169.385 46.79 169.385 45.485C169.385 44.165 168.725 43.025 167.06 43.025ZM173.66 41.39C173.93 41.39 174.2 41.525 174.2 41.84V50.99C174.2 51.305 173.93 51.44 173.66 51.44C173.375 51.44 173.105 51.305 173.105 50.99V41.84C173.105 41.525 173.375 41.39 173.66 41.39ZM166.25 50.27C166.535 50.27 166.805 50.405 166.805 50.72V53.66C166.805 53.855 166.88 53.93 167.09 53.93H174.2C174.47 53.93 174.59 54.155 174.59 54.41C174.59 54.665 174.47 54.89 174.2 54.89H166.73C165.95 54.89 165.695 54.65 165.695 53.885V50.72C165.695 50.405 165.965 50.27 166.25 50.27ZM180.127 41.93C180.412 41.93 180.682 42.065 180.682 42.38V43.91C180.682 44.945 180.832 45.545 181.597 46.295C182.197 46.88 182.692 47.315 183.187 47.75C183.397 47.93 183.382 48.23 183.217 48.425C183.037 48.635 182.752 48.695 182.512 48.5C182.107 48.155 181.612 47.72 181.132 47.255C180.457 46.61 180.217 46.235 180.157 45.935H180.142C180.067 46.265 179.857 46.61 179.152 47.3C178.537 47.885 178.072 48.275 177.517 48.755C177.292 48.935 176.992 48.875 176.812 48.665C176.647 48.47 176.632 48.155 176.842 47.975C177.412 47.495 178.072 46.91 178.687 46.31C179.437 45.575 179.587 44.96 179.587 43.94V42.38C179.587 42.065 179.857 41.93 180.127 41.93ZM187.762 41.39C188.032 41.39 188.287 41.525 188.287 41.825V49.22C188.287 49.52 188.032 49.64 187.762 49.64C187.507 49.64 187.252 49.52 187.252 49.22V45.77H185.257V48.59C185.257 48.89 185.002 49.01 184.732 49.01C184.477 49.01 184.222 48.89 184.222 48.59V41.9C184.222 41.6 184.477 41.465 184.732 41.465C185.002 41.465 185.257 41.6 185.257 41.9V44.825H187.252V41.825C187.252 41.525 187.507 41.39 187.762 41.39ZM183.847 49.775C186.667 49.775 188.272 50.735 188.272 52.52C188.272 54.305 186.667 55.265 183.847 55.265C181.027 55.265 179.422 54.305 179.422 52.52C179.422 50.735 181.027 49.775 183.847 49.775ZM183.847 50.675C181.582 50.675 180.517 51.38 180.517 52.52C180.517 53.66 181.582 54.365 183.847 54.365C186.112 54.365 187.177 53.66 187.177 52.52C187.177 51.38 186.112 50.675 183.847 50.675ZM196.63 41.555C199.465 41.555 201.07 42.305 201.07 43.895C201.07 45.47 199.465 46.22 196.63 46.22C193.795 46.22 192.19 45.47 192.19 43.895C192.19 42.305 193.795 41.555 196.63 41.555ZM196.63 42.455C194.35 42.455 193.285 42.95 193.285 43.895C193.285 44.825 194.35 45.335 196.63 45.335C198.91 45.335 199.975 44.825 199.975 43.895C199.975 42.95 198.91 42.455 196.63 42.455ZM202.51 47.39C202.765 47.39 202.885 47.6 202.885 47.855C202.885 48.11 202.765 48.32 202.51 48.32H190.75C190.495 48.32 190.375 48.11 190.375 47.855C190.375 47.6 190.495 47.39 190.75 47.39H202.51ZM200.05 49.73C200.83 49.73 201.085 49.97 201.085 50.735V51.845C201.085 52.61 200.83 52.85 200.05 52.85H193.465C193.3 52.85 193.225 52.91 193.225 53.09V54.02C193.225 54.185 193.3 54.245 193.465 54.245H201.1C201.34 54.245 201.445 54.455 201.445 54.68C201.445 54.92 201.34 55.13 201.1 55.13H193.195C192.415 55.13 192.16 54.89 192.16 54.125V53C192.16 52.235 192.415 51.995 193.195 51.995H199.78C199.96 51.995 200.035 51.935 200.035 51.77V50.84C200.035 50.675 199.96 50.6 199.78 50.6H192.49C192.25 50.6 192.13 50.405 192.13 50.165C192.13 49.94 192.25 49.73 192.49 49.73H200.05ZM218.067 42.035C218.337 42.035 218.457 42.245 218.457 42.5C218.457 42.77 218.337 42.98 218.067 42.98H210.957C210.747 42.98 210.672 43.055 210.672 43.25V46.22C210.672 46.43 210.747 46.49 210.957 46.49H218.217C218.487 46.49 218.607 46.715 218.607 46.97C218.607 47.225 218.487 47.45 218.217 47.45H210.612C209.832 47.45 209.577 47.21 209.577 46.445V43.04C209.577 42.275 209.832 42.035 210.612 42.035H218.067ZM219.897 49.37C220.167 49.37 220.287 49.58 220.287 49.85C220.287 50.105 220.167 50.315 219.897 50.315H214.587V54.83C214.587 55.145 214.317 55.28 214.032 55.28C213.762 55.28 213.492 55.145 213.492 54.83V50.315H208.167C207.897 50.315 207.777 50.105 207.777 49.85C207.777 49.58 207.897 49.37 208.167 49.37H219.897ZM231.764 42.275C232.034 42.275 232.154 42.485 232.154 42.74C232.154 43.01 232.034 43.22 231.764 43.22H227.189C226.979 43.22 226.904 43.295 226.904 43.49V47.495C226.904 47.705 226.979 47.765 227.189 47.765C229.394 47.765 231.179 47.66 232.964 47.42C233.204 47.39 233.369 47.555 233.414 47.81C233.444 48.08 233.339 48.335 233.099 48.365C231.539 48.59 229.679 48.725 226.844 48.725C226.064 48.725 225.809 48.485 225.809 47.72V43.28C225.809 42.515 226.064 42.275 226.844 42.275H231.764ZM235.109 41.39C235.394 41.39 235.664 41.525 235.664 41.84V45.32H237.569C237.839 45.32 237.959 45.545 237.959 45.815C237.959 46.07 237.839 46.295 237.569 46.295H235.664V50.99C235.664 51.305 235.394 51.44 235.109 51.44C234.839 51.44 234.569 51.305 234.569 50.99V41.84C234.569 41.525 234.839 41.39 235.109 41.39ZM227.864 50.27C228.149 50.27 228.419 50.405 228.419 50.72V53.66C228.419 53.855 228.494 53.93 228.704 53.93H235.664C235.934 53.93 236.054 54.155 236.054 54.41C236.054 54.665 235.934 54.89 235.664 54.89H228.344C227.564 54.89 227.309 54.65 227.309 53.885V50.72C227.309 50.405 227.579 50.27 227.864 50.27ZM247.187 41.54C247.442 41.54 247.697 41.675 247.697 41.975V53.165C247.697 53.465 247.442 53.6 247.187 53.6C246.917 53.6 246.662 53.465 246.662 53.165V48.785H244.817C244.562 48.785 244.442 48.575 244.442 48.305C244.442 48.05 244.562 47.84 244.817 47.84H246.662V45.395H244.337C244.307 47.93 243.767 48.38 239.867 51.14C239.657 51.29 239.357 51.215 239.192 50.99C239.042 50.765 239.042 50.435 239.252 50.285C242.987 47.69 243.272 47.435 243.272 45.08V43.775C243.272 43.58 243.197 43.505 242.987 43.505H239.627C239.357 43.505 239.237 43.28 239.237 43.025C239.237 42.77 239.357 42.545 239.627 42.545H243.302C244.082 42.545 244.337 42.785 244.337 43.55V44.465H246.662V41.975C246.662 41.675 246.917 41.54 247.187 41.54ZM249.872 41.39C250.142 41.39 250.397 41.525 250.397 41.825V53.795C250.397 54.095 250.142 54.23 249.872 54.23C249.617 54.23 249.362 54.095 249.362 53.795V41.825C249.362 41.525 249.617 41.39 249.872 41.39ZM262.114 42.2C262.894 42.2 263.149 42.44 263.149 43.205V45.155C263.149 45.92 262.894 46.16 262.114 46.16H255.679C255.469 46.16 255.394 46.235 255.394 46.445V48.02C255.394 48.215 255.469 48.29 255.679 48.29H263.134C263.389 48.29 263.509 48.5 263.509 48.755C263.509 49.01 263.389 49.235 263.134 49.235H259.294V51.89H264.604C264.874 51.89 264.994 52.1 264.994 52.37C264.994 52.625 264.874 52.835 264.604 52.835H252.874C252.604 52.835 252.484 52.625 252.484 52.37C252.484 52.1 252.604 51.89 252.874 51.89H258.199V49.235H255.349C254.569 49.235 254.314 48.995 254.314 48.23V46.265C254.314 45.5 254.569 45.26 255.349 45.26H261.799C261.994 45.26 262.084 45.185 262.084 44.975V43.415C262.084 43.205 261.994 43.13 261.799 43.13H254.659C254.404 43.13 254.284 42.92 254.284 42.665C254.284 42.41 254.404 42.2 254.659 42.2H262.114Z" fill="#07BEB8"/>
<path d="M38.6893 63.305C38.9743 63.305 39.2443 63.44 39.2443 63.755V70.475C39.2443 70.685 39.3193 70.76 39.5293 70.76C41.6893 70.76 43.4743 70.64 45.2593 70.4C45.4993 70.37 45.6643 70.535 45.7093 70.805C45.7393 71.075 45.6343 71.33 45.3943 71.36C43.8343 71.57 41.9743 71.705 39.1693 71.705C38.3893 71.705 38.1343 71.465 38.1343 70.7V63.755C38.1343 63.44 38.4043 63.305 38.6893 63.305ZM47.4043 62.39C47.6893 62.39 47.9593 62.525 47.9593 62.84V67.025H49.8643C50.1343 67.025 50.2543 67.25 50.2543 67.505C50.2543 67.775 50.1343 68 49.8643 68H47.9593V74.78C47.9593 75.095 47.6893 75.23 47.4043 75.23C47.1343 75.23 46.8643 75.095 46.8643 74.78V62.84C46.8643 62.525 47.1343 62.39 47.4043 62.39ZM53.4966 62.765C53.7816 62.765 54.0366 62.9 54.0366 63.215V66.485C54.0366 66.68 54.1266 66.755 54.3216 66.755H61.7016C61.9566 66.755 62.0766 66.965 62.0766 67.22C62.0766 67.475 61.9566 67.7 61.7016 67.7H53.9766C53.1966 67.7 52.9416 67.46 52.9416 66.695V63.215C52.9416 62.9 53.1966 62.765 53.4966 62.765ZM63.2616 69.365C63.5166 69.365 63.6366 69.59 63.6366 69.845C63.6366 70.085 63.5166 70.31 63.2616 70.31H58.0716V72.8C58.0716 73.1 57.8316 73.22 57.5316 73.22C57.2466 73.22 56.9916 73.1 56.9916 72.8V70.31H51.5016C51.2466 70.31 51.1266 70.085 51.1266 69.845C51.1266 69.59 51.2466 69.365 51.5016 69.365H63.2616ZM53.4666 71.84C53.7516 71.84 54.0066 71.975 54.0066 72.29V74.735C54.0066 74.945 54.0966 75.02 54.2916 75.02H61.7316C61.9866 75.02 62.1066 75.23 62.1066 75.485C62.1066 75.74 61.9866 75.95 61.7316 75.95H53.9466C53.1666 75.95 52.9116 75.71 52.9116 74.945V72.29C52.9116 71.975 53.1666 71.84 53.4666 71.84ZM71.424 63.425C71.694 63.425 71.814 63.635 71.814 63.89C71.814 64.16 71.694 64.37 71.424 64.37H66.789C66.579 64.37 66.504 64.445 66.504 64.655V70.535C66.504 70.745 66.579 70.82 66.789 70.82C68.994 70.82 70.779 70.7 72.564 70.46C72.804 70.43 72.969 70.595 73.014 70.865C73.044 71.135 72.939 71.39 72.699 71.42C71.139 71.63 69.279 71.765 66.444 71.765C65.664 71.765 65.409 71.525 65.409 70.76V64.43C65.409 63.665 65.664 63.425 66.444 63.425H71.424ZM74.709 62.39C74.994 62.39 75.264 62.525 75.264 62.84V67.025H77.169C77.439 67.025 77.559 67.25 77.559 67.505C77.559 67.775 77.439 68 77.169 68H75.264V74.78C75.264 75.095 74.994 75.23 74.709 75.23C74.439 75.23 74.169 75.095 74.169 74.78V62.84C74.169 62.525 74.439 62.39 74.709 62.39ZM84.2363 63.275C85.0163 63.275 85.2713 63.515 85.2713 64.28V68.69C85.2713 69.455 85.0163 69.695 84.2363 69.695H80.2463C79.4663 69.695 79.2113 69.455 79.2113 68.69V64.28C79.2113 63.515 79.4663 63.275 80.2463 63.275H84.2363ZM80.5763 64.22C80.3663 64.22 80.2913 64.28 80.2913 64.49V68.465C80.2913 68.675 80.3663 68.75 80.5763 68.75H83.9213C84.1163 68.75 84.2063 68.675 84.2063 68.465V64.49C84.2063 64.28 84.1163 64.22 83.9213 64.22H80.5763ZM89.1113 62.39C89.3813 62.39 89.6513 62.525 89.6513 62.84V71.99C89.6513 72.305 89.3813 72.44 89.1113 72.44C88.8413 72.44 88.5713 72.305 88.5713 71.99V68.465H86.4263C86.1713 68.465 86.0513 68.255 86.0513 67.985C86.0513 67.73 86.1713 67.52 86.4263 67.52H88.5713V65.51H86.4263C86.1713 65.51 86.0513 65.285 86.0513 65.03C86.0513 64.775 86.1713 64.565 86.4263 64.565H88.5713V62.84C88.5713 62.525 88.8413 62.39 89.1113 62.39ZM81.6413 71.27C81.9263 71.27 82.1963 71.405 82.1963 71.72V74.66C82.1963 74.855 82.2713 74.93 82.4813 74.93H89.6513C89.9213 74.93 90.0413 75.155 90.0413 75.41C90.0413 75.665 89.9213 75.89 89.6513 75.89H82.1213C81.3413 75.89 81.0863 75.65 81.0863 74.885V71.72C81.0863 71.405 81.3563 71.27 81.6413 71.27ZM106.514 62.39C106.784 62.39 107.054 62.525 107.054 62.84V74.78C107.054 75.095 106.784 75.23 106.514 75.23C106.229 75.23 105.974 75.095 105.974 74.78V68.045H103.064C102.944 70.595 101.819 71.96 99.7187 71.96C97.4987 71.96 96.3437 70.43 96.3437 67.58C96.3437 64.73 97.4987 63.2 99.7187 63.2C101.804 63.2 102.944 64.565 103.064 67.1H105.974V62.84C105.974 62.525 106.229 62.39 106.514 62.39ZM99.7187 64.175C98.1137 64.175 97.4237 65.405 97.4237 67.58C97.4237 69.755 98.1137 70.985 99.7187 70.985C101.324 70.985 102.014 69.755 102.014 67.58C102.014 65.405 101.324 64.175 99.7187 64.175ZM111.826 63.23C112.111 63.23 112.381 63.365 112.381 63.68V68.345C112.381 68.54 112.456 68.615 112.666 68.615H120.076C120.346 68.615 120.466 68.825 120.466 69.095C120.466 69.35 120.346 69.575 120.076 69.575H112.306C111.526 69.575 111.271 69.335 111.271 68.57V63.68C111.271 63.365 111.526 63.23 111.826 63.23ZM121.606 72.875C121.876 72.875 121.996 73.1 121.996 73.37C121.996 73.625 121.876 73.835 121.606 73.835H109.876C109.606 73.835 109.486 73.625 109.486 73.37C109.486 73.1 109.606 72.875 109.876 72.875H121.606ZM131.283 63.08C131.568 63.08 131.838 63.215 131.838 63.545V65.96C131.838 67.295 132.153 67.985 133.098 68.99C133.758 69.68 134.403 70.31 135.003 70.85C135.213 71.03 135.153 71.345 134.973 71.54C134.808 71.705 134.508 71.78 134.298 71.57C133.758 71.09 133.218 70.55 132.558 69.875C131.613 68.9 131.373 68.48 131.298 68.135H131.283C131.208 68.495 130.953 68.915 130.008 69.89C129.363 70.565 128.793 71.135 128.088 71.765C127.848 71.975 127.563 71.885 127.383 71.705C127.203 71.495 127.188 71.21 127.398 71.015C128.133 70.34 128.808 69.68 129.468 68.99C130.413 67.985 130.728 67.295 130.728 65.96V63.545C130.728 63.215 130.998 63.08 131.283 63.08ZM137.463 62.39C137.748 62.39 138.018 62.525 138.018 62.84V74.78C138.018 75.095 137.748 75.23 137.463 75.23C137.193 75.23 136.923 75.095 136.923 74.78V62.84C136.923 62.525 137.193 62.39 137.463 62.39ZM148.101 63.2C148.356 63.2 148.476 63.41 148.476 63.665C148.476 63.935 148.356 64.145 148.101 64.145H145.386V65.195C145.386 66.2 145.656 66.785 146.451 67.4C147.156 67.94 147.801 68.405 148.356 68.78C148.611 68.96 148.611 69.26 148.461 69.47C148.311 69.665 148.056 69.77 147.801 69.59C147.366 69.305 146.676 68.81 146.046 68.33C145.251 67.73 144.921 67.295 144.846 66.98H144.831C144.756 67.31 144.426 67.76 143.631 68.36C142.941 68.885 142.221 69.395 141.621 69.8C141.366 69.965 141.111 69.86 140.961 69.665C140.811 69.455 140.796 69.155 141.066 68.975C141.756 68.495 142.476 68 143.211 67.415C144.006 66.8 144.276 66.215 144.276 65.21V64.145H141.471C141.216 64.145 141.096 63.935 141.096 63.665C141.096 63.41 141.216 63.2 141.471 63.2H148.101ZM151.221 62.39C151.491 62.39 151.761 62.525 151.761 62.84V69.665C151.761 69.98 151.491 70.115 151.221 70.115C150.936 70.115 150.681 69.98 150.681 69.665V66.8H148.116C147.861 66.8 147.741 66.59 147.741 66.32C147.741 66.065 147.861 65.84 148.116 65.84H150.681V62.84C150.681 62.525 150.936 62.39 151.221 62.39ZM144.231 70.88H150.726C151.506 70.88 151.761 71.12 151.761 71.885V74.99C151.761 75.755 151.506 75.995 150.726 75.995H144.231C143.451 75.995 143.196 75.755 143.196 74.99V71.885C143.196 71.12 143.451 70.88 144.231 70.88ZM144.576 71.81C144.366 71.81 144.291 71.885 144.291 72.095V74.78C144.291 74.99 144.366 75.065 144.576 75.065H150.396C150.591 75.065 150.681 74.99 150.681 74.78V72.095C150.681 71.885 150.591 71.81 150.396 71.81H144.576ZM162.593 62.54C162.848 62.54 163.103 62.675 163.103 62.975V74.165C163.103 74.465 162.848 74.6 162.593 74.6C162.323 74.6 162.068 74.465 162.068 74.165V68.045H160.193C160.103 70.55 159.173 71.855 157.298 71.855C155.303 71.855 154.373 70.385 154.373 67.58C154.373 64.775 155.303 63.305 157.298 63.305C159.173 63.305 160.088 64.61 160.193 67.1H162.068V62.975C162.068 62.675 162.323 62.54 162.593 62.54ZM157.298 64.28C155.933 64.28 155.408 65.45 155.408 67.58C155.408 69.71 155.933 70.88 157.298 70.88C158.663 70.88 159.173 69.71 159.173 67.58C159.173 65.45 158.663 64.28 157.298 64.28ZM165.233 62.39C165.503 62.39 165.758 62.525 165.758 62.825V74.795C165.758 75.095 165.503 75.23 165.233 75.23C164.978 75.23 164.723 75.095 164.723 74.795V62.825C164.723 62.525 164.978 62.39 165.233 62.39ZM183.715 69.32C183.985 69.32 184.105 69.53 184.105 69.8C184.105 70.055 183.985 70.265 183.715 70.265H178.405V75.83C178.405 76.145 178.135 76.28 177.85 76.28C177.58 76.28 177.31 76.145 177.31 75.83V70.265H171.985C171.715 70.265 171.595 70.055 171.595 69.8C171.595 69.53 171.715 69.32 171.985 69.32H180.625C180.955 67.94 181.105 66.575 181.105 65.06V64.355C181.105 64.145 181.03 64.085 180.82 64.085H173.62C173.365 64.085 173.245 63.86 173.245 63.605C173.245 63.335 173.365 63.125 173.62 63.125H181.15C181.93 63.125 182.185 63.365 182.185 64.13V65C182.185 66.575 182.035 68.06 181.705 69.32H183.715ZM187.588 62.735C187.873 62.735 188.128 62.87 188.128 63.17V64.55H194.878V63.17C194.878 62.87 195.133 62.735 195.403 62.735C195.688 62.735 195.943 62.87 195.943 63.17V67.025C195.943 67.79 195.688 68.03 194.908 68.03H188.098C187.318 68.03 187.063 67.79 187.063 67.025V63.17C187.063 62.87 187.318 62.735 187.588 62.735ZM188.128 66.875C188.128 67.055 188.203 67.115 188.383 67.115H194.623C194.803 67.115 194.878 67.055 194.878 66.875V65.48H188.128V66.875ZM197.383 69.59C197.638 69.59 197.758 69.8 197.758 70.055C197.758 70.31 197.638 70.52 197.383 70.52H192.193V72.8C192.193 73.1 191.953 73.235 191.653 73.235C191.368 73.235 191.113 73.1 191.113 72.8V70.52H185.623C185.368 70.52 185.248 70.31 185.248 70.055C185.248 69.8 185.368 69.59 185.623 69.59H197.383ZM187.588 71.93C187.873 71.93 188.128 72.065 188.128 72.395V74.735C188.128 74.945 188.218 75.02 188.413 75.02H195.853C196.108 75.02 196.228 75.23 196.228 75.485C196.228 75.74 196.108 75.95 195.853 75.95H188.068C187.288 75.95 187.033 75.71 187.033 74.945V72.395C187.033 72.065 187.288 71.93 187.588 71.93ZM203.16 62.96C203.445 62.96 203.715 63.095 203.715 63.41V65.165C203.715 66.185 204 66.92 204.765 67.58C205.515 68.21 206.13 68.705 206.7 69.125C206.955 69.32 206.94 69.635 206.79 69.83C206.625 70.04 206.355 70.13 206.1 69.935C205.575 69.56 204.96 69.065 204.255 68.465C203.505 67.835 203.25 67.415 203.175 67.1H203.16C203.085 67.43 202.83 67.865 202.065 68.51C201.36 69.11 200.64 69.68 199.965 70.16C199.71 70.355 199.44 70.25 199.275 70.04C199.125 69.845 199.095 69.53 199.35 69.335C200.085 68.81 200.805 68.24 201.54 67.595C202.305 66.935 202.605 66.215 202.605 65.195V63.41C202.605 63.095 202.86 62.96 203.16 62.96ZM209.58 62.39C209.85 62.39 210.12 62.525 210.12 62.84V71.99C210.12 72.305 209.85 72.44 209.58 72.44C209.295 72.44 209.04 72.305 209.04 71.99V66.5H206.355C206.1 66.5 205.98 66.29 205.98 66.02C205.98 65.765 206.1 65.54 206.355 65.54H209.04V62.84C209.04 62.525 209.295 62.39 209.58 62.39ZM202.11 71.27C202.395 71.27 202.665 71.405 202.665 71.72V74.66C202.665 74.855 202.74 74.93 202.95 74.93H210.12C210.39 74.93 210.51 75.155 210.51 75.41C210.51 75.665 210.39 75.89 210.12 75.89H202.59C201.81 75.89 201.555 75.65 201.555 74.885V71.72C201.555 71.405 201.825 71.27 202.11 71.27ZM218.807 62.555C221.642 62.555 223.247 63.305 223.247 64.895C223.247 66.47 221.642 67.22 218.807 67.22C215.972 67.22 214.367 66.47 214.367 64.895C214.367 63.305 215.972 62.555 218.807 62.555ZM218.807 63.455C216.527 63.455 215.462 63.95 215.462 64.895C215.462 65.825 216.527 66.335 218.807 66.335C221.087 66.335 222.152 65.825 222.152 64.895C222.152 63.95 221.087 63.455 218.807 63.455ZM224.687 68.39C224.942 68.39 225.062 68.6 225.062 68.855C225.062 69.11 224.942 69.32 224.687 69.32H212.927C212.672 69.32 212.552 69.11 212.552 68.855C212.552 68.6 212.672 68.39 212.927 68.39H224.687ZM222.227 70.73C223.007 70.73 223.262 70.97 223.262 71.735V72.845C223.262 73.61 223.007 73.85 222.227 73.85H215.642C215.477 73.85 215.402 73.91 215.402 74.09V75.02C215.402 75.185 215.477 75.245 215.642 75.245H223.277C223.517 75.245 223.622 75.455 223.622 75.68C223.622 75.92 223.517 76.13 223.277 76.13H215.372C214.592 76.13 214.337 75.89 214.337 75.125V74C214.337 73.235 214.592 72.995 215.372 72.995H221.957C222.137 72.995 222.212 72.935 222.212 72.77V71.84C222.212 71.675 222.137 71.6 221.957 71.6H214.667C214.427 71.6 214.307 71.405 214.307 71.165C214.307 70.94 214.427 70.73 214.667 70.73H222.227ZM239.63 70.73C240.41 70.73 240.665 70.97 240.665 71.735V72.845C240.665 73.61 240.41 73.85 239.63 73.85H233.045C232.88 73.85 232.805 73.91 232.805 74.09V75.02C232.805 75.185 232.88 75.245 233.045 75.245H240.68C240.92 75.245 241.025 75.455 241.025 75.68C241.025 75.92 240.92 76.13 240.68 76.13H232.775C231.995 76.13 231.74 75.89 231.74 75.125V74C231.74 73.235 231.995 72.995 232.775 72.995H239.36C239.54 72.995 239.615 72.935 239.615 72.77V71.84C239.615 71.675 239.54 71.6 239.36 71.6H232.07C231.83 71.6 231.71 71.405 231.71 71.165C231.71 70.94 231.83 70.73 232.07 70.73H235.67V69.215H230.315C230.075 69.215 229.955 69.005 229.955 68.75C229.955 68.51 230.075 68.315 230.315 68.315H242.105C242.345 68.315 242.465 68.51 242.465 68.75C242.465 69.005 242.345 69.215 242.105 69.215H236.75V70.73H239.63ZM240.245 62.735C240.5 62.735 240.62 62.93 240.62 63.185C240.62 63.44 240.5 63.65 240.245 63.65H233.15C232.94 63.65 232.865 63.71 232.865 63.92V65.825C232.865 66.035 232.94 66.095 233.15 66.095H240.395C240.65 66.095 240.77 66.305 240.77 66.56C240.77 66.815 240.65 67.01 240.395 67.01H232.805C232.025 67.01 231.77 66.77 231.77 66.005V63.74C231.77 62.975 232.025 62.735 232.805 62.735H240.245ZM254.287 62.39C254.557 62.39 254.827 62.525 254.827 62.84V71.99C254.827 72.305 254.557 72.44 254.287 72.44C254.002 72.44 253.747 72.305 253.747 71.99V66.95H250.117C249.682 68.105 248.377 68.855 244.957 70.565C244.732 70.685 244.432 70.58 244.312 70.325C244.192 70.1 244.192 69.77 244.462 69.65C248.797 67.52 249.247 67.13 249.247 65.465V64.535C249.247 64.34 249.172 64.265 248.962 64.265H244.777C244.507 64.265 244.387 64.04 244.387 63.785C244.387 63.53 244.507 63.305 244.777 63.305H249.292C250.072 63.305 250.327 63.545 250.327 64.31V65.525C250.327 65.705 250.312 65.855 250.312 66.005H253.747V62.84C253.747 62.525 254.002 62.39 254.287 62.39ZM246.817 71.27C247.102 71.27 247.372 71.405 247.372 71.72V74.66C247.372 74.855 247.447 74.93 247.657 74.93H254.827C255.097 74.93 255.217 75.155 255.217 75.41C255.217 75.665 255.097 75.89 254.827 75.89H247.297C246.517 75.89 246.262 75.65 246.262 74.885V71.72C246.262 71.405 246.532 71.27 246.817 71.27ZM262.794 63.455C263.574 63.455 263.829 63.695 263.829 64.46V66.125C263.829 68.63 263.079 69.38 258.444 72.245C258.219 72.38 257.934 72.29 257.784 72.065C257.634 71.84 257.634 71.51 257.874 71.36C262.224 68.705 262.749 68.15 262.749 66.08V64.685C262.749 64.49 262.674 64.415 262.464 64.415H258.219C257.949 64.415 257.829 64.19 257.829 63.935C257.829 63.68 257.949 63.455 258.219 63.455H262.794ZM267.189 62.39C267.474 62.39 267.744 62.525 267.744 62.84V67.025H269.649C269.919 67.025 270.039 67.25 270.039 67.505C270.039 67.775 269.919 68 269.649 68H267.744V74.78C267.744 75.095 267.474 75.23 267.189 75.23C266.919 75.23 266.649 75.095 266.649 74.78V62.84C266.649 62.525 266.919 62.39 267.189 62.39ZM277.167 62.945C280.032 62.945 281.652 64.265 281.652 66.425C281.652 68.585 280.032 69.905 277.167 69.905C274.302 69.905 272.682 68.585 272.682 66.425C272.682 64.265 274.302 62.945 277.167 62.945ZM277.167 63.875C274.872 63.875 273.777 64.955 273.777 66.425C273.777 67.88 274.872 68.96 277.167 68.96C279.462 68.96 280.557 67.88 280.557 66.425C280.557 64.955 279.462 63.875 277.167 63.875ZM274.782 70.25C275.082 70.25 275.337 70.385 275.337 70.7V72.905H278.997V70.7C278.997 70.385 279.252 70.25 279.537 70.25C279.822 70.25 280.092 70.385 280.092 70.7V72.905H283.047C283.302 72.905 283.422 73.115 283.422 73.37C283.422 73.625 283.302 73.835 283.047 73.835H271.287C271.032 73.835 270.912 73.625 270.912 73.37C270.912 73.115 271.032 72.905 271.287 72.905H274.242V70.7C274.242 70.385 274.512 70.25 274.782 70.25ZM287.819 63.11C289.799 63.11 291.014 64.175 291.014 65.81V65.975C291.014 66.98 290.489 67.67 289.454 68.6C288.224 69.71 288.089 70.115 288.089 70.865C288.089 71.135 287.834 71.285 287.579 71.285C287.294 71.285 287.039 71.15 287.039 70.85C287.039 69.83 287.219 69.29 288.479 68.165C289.574 67.19 289.919 66.695 289.919 65.975V65.855C289.919 64.805 289.154 64.1 287.834 64.1C286.829 64.1 286.154 64.475 285.584 65C285.359 65.18 285.089 65.15 284.909 64.925C284.714 64.715 284.714 64.43 284.939 64.235C285.569 63.635 286.604 63.11 287.819 63.11ZM287.564 72.725C288.044 72.725 288.404 73.1 288.404 73.565C288.404 74.03 288.044 74.39 287.564 74.39C287.099 74.39 286.724 74.03 286.724 73.565C286.724 73.1 287.099 72.725 287.564 72.725Z" fill="#07BEB8"/>
<path d="M58.3124 95.752C58.5784 95.752 58.8304 95.892 58.8304 96.186V97.096C58.8304 98.412 59.1104 99.014 60.2444 99.756C61.0704 100.288 62.0084 100.848 63.0444 101.422C63.2404 101.52 63.2544 101.828 63.1284 102.038C63.0024 102.248 62.7504 102.36 62.5404 102.234C61.6724 101.758 60.6644 101.17 59.8664 100.652C58.8304 99.994 58.4384 99.518 58.3264 99.14H58.3124C58.2004 99.532 57.8084 100.008 56.7724 100.666C55.9604 101.184 54.9664 101.772 54.0984 102.248C53.8744 102.374 53.6364 102.262 53.4964 102.038C53.3704 101.828 53.3844 101.52 53.5804 101.422C54.6164 100.848 55.5544 100.288 56.3804 99.756C57.5144 99.014 57.7944 98.412 57.7944 97.096V96.186C57.7944 95.892 58.0464 95.752 58.3124 95.752ZM63.7864 104.95C64.0384 104.95 64.1504 105.16 64.1504 105.412C64.1504 105.65 64.0384 105.846 63.7864 105.846H52.8384C52.5864 105.846 52.4744 105.65 52.4744 105.412C52.4744 105.16 52.5864 104.95 52.8384 104.95H63.7864ZM71.0546 95.752C71.3206 95.752 71.5726 95.892 71.5726 96.186V97.096C71.5726 98.412 71.8526 99.014 72.9866 99.756C73.8126 100.288 74.7506 100.848 75.7866 101.422C75.9826 101.52 75.9966 101.828 75.8706 102.038C75.7446 102.248 75.4926 102.36 75.2826 102.234C74.4146 101.758 73.4066 101.17 72.6086 100.652C71.5726 99.994 71.1806 99.518 71.0686 99.14H71.0546C70.9426 99.532 70.5506 100.008 69.5146 100.666C68.7026 101.184 67.7086 101.772 66.8406 102.248C66.6166 102.374 66.3786 102.262 66.2386 102.038C66.1126 101.828 66.1266 101.52 66.3226 101.422C67.3586 100.848 68.2966 100.288 69.1226 99.756C70.2566 99.014 70.5366 98.412 70.5366 97.096V96.186C70.5366 95.892 70.7886 95.752 71.0546 95.752ZM76.5286 104.95C76.7806 104.95 76.8926 105.16 76.8926 105.412C76.8926 105.65 76.7806 105.846 76.5286 105.846H65.5806C65.3286 105.846 65.2166 105.65 65.2166 105.412C65.2166 105.16 65.3286 104.95 65.5806 104.95H76.5286ZM86.9468 95.92C87.6748 95.92 87.9128 96.144 87.9128 96.858V98.678C87.9128 99.392 87.6748 99.616 86.9468 99.616H80.9408C80.7448 99.616 80.6748 99.686 80.6748 99.882V101.352C80.6748 101.534 80.7448 101.604 80.9408 101.604H87.8988C88.1368 101.604 88.2488 101.8 88.2488 102.038C88.2488 102.276 88.1368 102.486 87.8988 102.486H84.3148V104.964H89.2708C89.5228 104.964 89.6348 105.16 89.6348 105.412C89.6348 105.65 89.5228 105.846 89.2708 105.846H78.3228C78.0708 105.846 77.9588 105.65 77.9588 105.412C77.9588 105.16 78.0708 104.964 78.3228 104.964H83.2928V102.486H80.6328C79.9048 102.486 79.6668 102.262 79.6668 101.548V99.714C79.6668 99 79.9048 98.776 80.6328 98.776H86.6528C86.8348 98.776 86.9188 98.706 86.9188 98.51V97.054C86.9188 96.858 86.8348 96.788 86.6528 96.788H79.9888C79.7508 96.788 79.6388 96.592 79.6388 96.354C79.6388 96.116 79.7508 95.92 79.9888 95.92H86.9468ZM103.133 96.116C103.861 96.116 104.099 96.34 104.099 97.054V98.328C104.099 100.33 103.959 101.954 103.609 103.564C103.567 103.816 103.301 103.928 103.007 103.872C102.755 103.83 102.573 103.648 102.615 103.396C102.797 102.472 102.937 101.59 103.007 100.722L95.9649 100.82C95.6989 100.834 95.5869 100.638 95.5869 100.386C95.5729 100.12 95.6849 99.91 95.9369 99.91L103.063 99.84C103.077 99.406 103.091 98.958 103.091 98.51V97.278C103.091 97.082 103.021 97.012 102.825 97.012H96.2169C95.9789 97.012 95.8669 96.816 95.8669 96.564C95.8669 96.312 95.9789 96.116 96.2169 96.116H103.133ZM105.513 104.95C105.765 104.95 105.877 105.16 105.877 105.412C105.877 105.65 105.765 105.846 105.513 105.846H94.5649C94.3129 105.846 94.2009 105.65 94.2009 105.412C94.2009 105.16 94.3129 104.95 94.5649 104.95H105.513ZM114.699 95.304C114.937 95.304 115.175 95.43 115.175 95.71V106.154C115.175 106.434 114.937 106.56 114.699 106.56C114.447 106.56 114.209 106.434 114.209 106.154V100.442H111.969C111.605 101.632 110.611 102.374 107.937 104.264C107.741 104.404 107.447 104.334 107.307 104.124C107.153 103.914 107.153 103.606 107.363 103.466C110.863 101.044 111.157 100.778 111.157 98.608V97.39C111.157 97.208 111.073 97.138 110.891 97.138H107.699C107.447 97.138 107.335 96.928 107.335 96.69C107.335 96.452 107.447 96.242 107.699 96.242H111.185C111.913 96.242 112.151 96.466 112.151 97.18V98.65C112.151 98.986 112.137 99.294 112.109 99.56H114.209V95.71C114.209 95.43 114.447 95.304 114.699 95.304ZM117.247 95.164C117.499 95.164 117.737 95.29 117.737 95.57V106.742C117.737 107.022 117.499 107.148 117.247 107.148C117.009 107.148 116.771 107.022 116.771 106.742V95.57C116.771 95.29 117.009 95.164 117.247 95.164ZM124.417 95.878C124.683 95.878 124.935 96.004 124.935 96.284V98.23H128.575V96.284C128.575 96.004 128.813 95.878 129.065 95.878C129.331 95.878 129.569 96.004 129.569 96.284V101.198C129.569 101.912 129.331 102.136 128.603 102.136H124.893C124.165 102.136 123.927 101.912 123.927 101.198V96.284C123.927 96.004 124.179 95.878 124.417 95.878ZM124.935 101.002C124.935 101.198 125.005 101.268 125.201 101.268H128.309C128.491 101.268 128.575 101.198 128.575 101.002V99.098H124.935V101.002ZM133.153 95.164C133.405 95.164 133.657 95.29 133.657 95.584V104.124C133.657 104.418 133.405 104.544 133.153 104.544C132.901 104.544 132.649 104.418 132.649 104.124V100.876H130.647C130.409 100.876 130.297 100.68 130.297 100.442C130.297 100.204 130.409 99.994 130.647 99.994H132.649V98.132H130.647C130.409 98.132 130.297 97.936 130.297 97.698C130.297 97.46 130.409 97.25 130.647 97.25H132.649V95.584C132.649 95.29 132.901 95.164 133.153 95.164ZM126.181 103.536C126.447 103.536 126.699 103.662 126.699 103.956V106.616C126.699 106.798 126.769 106.868 126.965 106.868H133.657C133.909 106.868 134.021 107.078 134.021 107.316C134.021 107.554 133.909 107.764 133.657 107.764H126.629C125.901 107.764 125.663 107.54 125.663 106.826V103.956C125.663 103.662 125.915 103.536 126.181 103.536ZM143.684 104.04C143.894 104.026 144.034 104.18 144.062 104.432C144.09 104.67 143.978 104.88 143.754 104.894C141.29 105.104 138.868 105.174 136.278 105.174C136.026 105.174 135.914 104.978 135.914 104.74C135.914 104.502 136.026 104.306 136.278 104.306C137.314 104.306 138.35 104.306 139.428 104.278V102.64C137.888 102.5 137.034 101.702 137.034 100.554C137.034 99.294 138.084 98.44 139.932 98.44C141.78 98.44 142.83 99.294 142.83 100.554C142.83 101.702 141.962 102.5 140.436 102.64V104.25C141.472 104.208 142.55 104.138 143.684 104.04ZM145.448 95.164C145.714 95.164 145.952 95.29 145.952 95.584V99.91H147.548C147.8 99.91 147.912 100.12 147.912 100.358C147.912 100.61 147.8 100.82 147.548 100.82H145.952V106.728C145.952 107.022 145.714 107.148 145.448 107.148C145.182 107.148 144.944 107.022 144.944 106.728V95.584C144.944 95.29 145.182 95.164 145.448 95.164ZM139.932 99.266C138.616 99.266 137.972 99.812 137.972 100.554C137.972 101.31 138.616 101.856 139.932 101.856C141.248 101.856 141.892 101.31 141.892 100.554C141.892 99.812 141.248 99.266 139.932 99.266ZM139.932 95.206C140.198 95.206 140.45 95.332 140.45 95.626V96.662H143.278C143.53 96.662 143.642 96.858 143.642 97.096C143.642 97.348 143.53 97.544 143.278 97.544H136.488C136.236 97.544 136.124 97.348 136.124 97.096C136.124 96.858 136.236 96.662 136.488 96.662H139.414V95.626C139.414 95.332 139.68 95.206 139.932 95.206ZM152.464 98.538C154.284 98.538 155.362 99.448 155.362 100.82C155.362 102.192 154.284 103.102 152.464 103.102C150.644 103.102 149.566 102.192 149.566 100.82C149.566 99.448 150.644 98.538 152.464 98.538ZM152.464 95.136C152.73 95.136 152.982 95.262 152.982 95.556V96.662H155.768C156.02 96.662 156.132 96.858 156.132 97.096C156.132 97.348 156.02 97.544 155.768 97.544H149.02C148.768 97.544 148.656 97.348 148.656 97.096C148.656 96.858 148.768 96.662 149.02 96.662H151.946V95.556C151.946 95.262 152.212 95.136 152.464 95.136ZM152.464 99.364C151.204 99.364 150.504 99.952 150.504 100.82C150.504 101.688 151.204 102.276 152.464 102.276C153.724 102.276 154.424 101.688 154.424 100.82C154.424 99.952 153.724 99.364 152.464 99.364ZM157.952 95.164C158.204 95.164 158.456 95.29 158.456 95.584V98.986H160.234C160.486 98.986 160.598 99.196 160.598 99.434C160.598 99.672 160.486 99.882 160.234 99.882H158.456V104.264C158.456 104.558 158.204 104.684 157.952 104.684C157.686 104.684 157.448 104.558 157.448 104.264V95.584C157.448 95.29 157.686 95.164 157.952 95.164ZM151.176 103.984C151.442 103.984 151.694 104.11 151.694 104.404V106.616C151.694 106.798 151.764 106.868 151.96 106.868H158.456C158.708 106.868 158.82 107.078 158.82 107.316C158.82 107.554 158.708 107.764 158.456 107.764H151.624C150.896 107.764 150.658 107.54 150.658 106.826V104.404C150.658 104.11 150.91 103.984 151.176 103.984ZM169.014 95.808C169.28 95.808 169.532 95.934 169.532 96.242V98.496C169.532 99.742 169.826 100.386 170.708 101.324C171.324 101.968 171.926 102.556 172.486 103.06C172.682 103.228 172.626 103.522 172.458 103.704C172.304 103.858 172.024 103.928 171.828 103.732C171.324 103.284 170.82 102.78 170.204 102.15C169.322 101.24 169.098 100.848 169.028 100.526H169.014C168.944 100.862 168.706 101.254 167.824 102.164C167.222 102.794 166.69 103.326 166.032 103.914C165.808 104.11 165.542 104.026 165.374 103.858C165.206 103.662 165.192 103.396 165.388 103.214C166.074 102.584 166.704 101.968 167.32 101.324C168.202 100.386 168.496 99.742 168.496 98.496V96.242C168.496 95.934 168.748 95.808 169.014 95.808ZM174.782 95.164C175.048 95.164 175.3 95.29 175.3 95.584V106.728C175.3 107.022 175.048 107.148 174.782 107.148C174.53 107.148 174.278 107.022 174.278 106.728V95.584C174.278 95.29 174.53 95.164 174.782 95.164ZM184.71 95.92C184.948 95.92 185.06 96.116 185.06 96.354C185.06 96.606 184.948 96.802 184.71 96.802H182.176V97.782C182.176 98.72 182.428 99.266 183.17 99.84C183.828 100.344 184.43 100.778 184.948 101.128C185.186 101.296 185.186 101.576 185.046 101.772C184.906 101.954 184.668 102.052 184.43 101.884C184.024 101.618 183.38 101.156 182.792 100.708C182.05 100.148 181.742 99.742 181.672 99.448H181.658C181.588 99.756 181.28 100.176 180.538 100.736C179.894 101.226 179.222 101.702 178.662 102.08C178.424 102.234 178.186 102.136 178.046 101.954C177.906 101.758 177.892 101.478 178.144 101.31C178.788 100.862 179.46 100.4 180.146 99.854C180.888 99.28 181.14 98.734 181.14 97.796V96.802H178.522C178.284 96.802 178.172 96.606 178.172 96.354C178.172 96.116 178.284 95.92 178.522 95.92H184.71ZM187.622 95.164C187.874 95.164 188.126 95.29 188.126 95.584V101.954C188.126 102.248 187.874 102.374 187.622 102.374C187.356 102.374 187.118 102.248 187.118 101.954V99.28H184.724C184.486 99.28 184.374 99.084 184.374 98.832C184.374 98.594 184.486 98.384 184.724 98.384H187.118V95.584C187.118 95.29 187.356 95.164 187.622 95.164ZM181.098 103.088H187.16C187.888 103.088 188.126 103.312 188.126 104.026V106.924C188.126 107.638 187.888 107.862 187.16 107.862H181.098C180.37 107.862 180.132 107.638 180.132 106.924V104.026C180.132 103.312 180.37 103.088 181.098 103.088ZM181.42 103.956C181.224 103.956 181.154 104.026 181.154 104.222V106.728C181.154 106.924 181.224 106.994 181.42 106.994H186.852C187.034 106.994 187.118 106.924 187.118 106.728V104.222C187.118 104.026 187.034 103.956 186.852 103.956H181.42ZM196.234 95.318C198.88 95.318 200.378 96.018 200.378 97.502C200.378 98.972 198.88 99.672 196.234 99.672C193.588 99.672 192.09 98.972 192.09 97.502C192.09 96.018 193.588 95.318 196.234 95.318ZM196.234 96.158C194.106 96.158 193.112 96.62 193.112 97.502C193.112 98.37 194.106 98.846 196.234 98.846C198.362 98.846 199.356 98.37 199.356 97.502C199.356 96.62 198.362 96.158 196.234 96.158ZM201.722 100.764C201.96 100.764 202.072 100.96 202.072 101.198C202.072 101.436 201.96 101.632 201.722 101.632H190.746C190.508 101.632 190.396 101.436 190.396 101.198C190.396 100.96 190.508 100.764 190.746 100.764H201.722ZM199.426 102.948C200.154 102.948 200.392 103.172 200.392 103.886V104.922C200.392 105.636 200.154 105.86 199.426 105.86H193.28C193.126 105.86 193.056 105.916 193.056 106.084V106.952C193.056 107.106 193.126 107.162 193.28 107.162H200.406C200.63 107.162 200.728 107.358 200.728 107.568C200.728 107.792 200.63 107.988 200.406 107.988H193.028C192.3 107.988 192.062 107.764 192.062 107.05V106C192.062 105.286 192.3 105.062 193.028 105.062H199.174C199.342 105.062 199.412 105.006 199.412 104.852V103.984C199.412 103.83 199.342 103.76 199.174 103.76H192.37C192.146 103.76 192.034 103.578 192.034 103.354C192.034 103.144 192.146 102.948 192.37 102.948H199.426ZM210.026 96.158C210.278 96.158 210.39 96.354 210.39 96.592C210.39 96.844 210.278 97.04 210.026 97.04H208.514C208.318 97.04 208.248 97.11 208.248 97.292V102.78C208.248 102.962 208.318 103.032 208.514 103.032C209.116 103.032 209.788 102.99 210.334 102.892C210.544 102.85 210.698 103.004 210.726 103.242C210.768 103.494 210.67 103.718 210.446 103.76C209.746 103.872 208.962 103.914 208.22 103.914C207.492 103.914 207.254 103.69 207.254 102.976V97.096C207.254 96.382 207.492 96.158 208.22 96.158H210.026ZM214.016 96.158C214.268 96.158 214.38 96.354 214.38 96.592C214.38 96.844 214.268 97.04 214.016 97.04H212.448C212.252 97.04 212.182 97.11 212.182 97.292V102.78C212.182 102.962 212.252 103.032 212.448 103.032C213.12 103.032 213.96 102.99 214.52 102.878C214.73 102.836 214.884 102.99 214.912 103.228C214.954 103.48 214.856 103.704 214.632 103.746C213.904 103.872 212.966 103.914 212.154 103.914C211.426 103.914 211.188 103.69 211.188 102.976V97.096C211.188 96.382 211.426 96.158 212.154 96.158H214.016ZM216.774 95.164C217.04 95.164 217.278 95.29 217.278 95.584V106.728C217.278 107.022 217.04 107.148 216.774 107.148C216.522 107.148 216.284 107.022 216.284 106.728V100.344H214.478C214.226 100.344 214.114 100.148 214.114 99.896C214.114 99.644 214.226 99.448 214.478 99.448H216.284V95.584C216.284 95.29 216.522 95.164 216.774 95.164ZM225.219 95.318C227.865 95.318 229.363 96.018 229.363 97.502C229.363 98.874 228.047 99.574 225.723 99.658V100.946H230.721C230.945 100.946 231.057 101.142 231.057 101.38C231.057 101.604 230.945 101.8 230.721 101.8H219.717C219.493 101.8 219.381 101.604 219.381 101.38C219.381 101.142 219.493 100.946 219.717 100.946H224.715V99.658C222.377 99.574 221.075 98.874 221.075 97.502C221.075 96.018 222.573 95.318 225.219 95.318ZM228.411 102.948C229.139 102.948 229.377 103.172 229.377 103.886V104.922C229.377 105.636 229.139 105.86 228.411 105.86H222.265C222.111 105.86 222.041 105.916 222.041 106.084V106.952C222.041 107.106 222.111 107.162 222.265 107.162H229.391C229.615 107.162 229.713 107.358 229.713 107.568C229.713 107.792 229.615 107.988 229.391 107.988H222.013C221.285 107.988 221.047 107.764 221.047 107.05V106C221.047 105.286 221.285 105.062 222.013 105.062H228.159C228.327 105.062 228.397 105.006 228.397 104.852V103.984C228.397 103.83 228.327 103.76 228.159 103.76H221.355C221.131 103.76 221.019 103.578 221.019 103.354C221.019 103.144 221.131 102.948 221.355 102.948H228.411ZM225.219 96.158C223.091 96.158 222.097 96.62 222.097 97.502C222.097 98.37 223.091 98.846 225.219 98.846C227.347 98.846 228.341 98.37 228.341 97.502C228.341 96.62 227.347 96.158 225.219 96.158ZM237.261 96.06C237.989 96.06 238.227 96.284 238.227 96.998V99.588C238.227 100.302 237.989 100.526 237.261 100.526H234.181C233.985 100.526 233.915 100.596 233.915 100.778V103.088C233.915 103.27 233.985 103.34 234.181 103.34C236.029 103.34 237.835 103.284 239.375 103.116C239.585 103.088 239.753 103.242 239.781 103.48C239.809 103.76 239.697 103.984 239.473 103.998C238.129 104.152 236.309 104.222 233.873 104.222C233.145 104.222 232.907 103.998 232.907 103.284V100.61C232.907 99.896 233.145 99.672 233.873 99.672H236.953C237.135 99.672 237.219 99.602 237.219 99.406V97.194C237.219 97.012 237.135 96.942 236.953 96.942H233.257C233.019 96.942 232.907 96.746 232.907 96.494C232.907 96.256 233.019 96.06 233.257 96.06H237.261ZM242.091 95.164C242.343 95.164 242.595 95.29 242.595 95.584V106.728C242.595 107.022 242.343 107.148 242.091 107.148C241.839 107.148 241.587 107.022 241.587 106.728V101.702H239.515C239.263 101.702 239.151 101.492 239.151 101.254C239.151 101.016 239.263 100.82 239.515 100.82H241.587V98.776H239.515C239.263 98.776 239.151 98.566 239.151 98.328C239.151 98.09 239.263 97.894 239.515 97.894H241.587V95.584C241.587 95.29 241.839 95.164 242.091 95.164ZM252.593 103.816C252.803 103.788 252.957 103.956 252.971 104.194C252.985 104.446 252.887 104.656 252.663 104.67C250.199 104.88 247.791 104.95 245.215 104.95C244.963 104.95 244.851 104.754 244.851 104.516C244.851 104.278 244.963 104.068 245.215 104.068C246.237 104.068 247.259 104.068 248.309 104.054V101.59H246.657C245.929 101.59 245.691 101.366 245.691 100.652V96.354C245.691 96.074 245.943 95.948 246.181 95.948C246.447 95.948 246.699 96.074 246.699 96.354V97.978H250.913V96.354C250.913 96.074 251.165 95.948 251.403 95.948C251.669 95.948 251.921 96.074 251.921 96.354V100.652C251.921 101.366 251.683 101.59 250.955 101.59H249.317V104.012C250.367 103.984 251.445 103.928 252.593 103.816ZM254.385 95.164C254.651 95.164 254.889 95.29 254.889 95.584V99.91H256.485C256.737 99.91 256.849 100.12 256.849 100.358C256.849 100.61 256.737 100.82 256.485 100.82H254.889V106.728C254.889 107.022 254.651 107.148 254.385 107.148C254.119 107.148 253.881 107.022 253.881 106.728V95.584C253.881 95.29 254.119 95.164 254.385 95.164ZM246.699 100.484C246.699 100.652 246.769 100.722 246.937 100.722H250.661C250.843 100.722 250.913 100.652 250.913 100.484V98.832H246.699V100.484ZM263.445 95.682C266.119 95.682 267.631 96.914 267.631 98.93C267.631 100.946 266.119 102.178 263.445 102.178C260.771 102.178 259.259 100.946 259.259 98.93C259.259 96.914 260.771 95.682 263.445 95.682ZM263.445 96.55C261.303 96.55 260.281 97.558 260.281 98.93C260.281 100.288 261.303 101.296 263.445 101.296C265.587 101.296 266.609 100.288 266.609 98.93C266.609 97.558 265.587 96.55 263.445 96.55ZM261.219 102.5C261.499 102.5 261.737 102.626 261.737 102.92V104.978H265.153V102.92C265.153 102.626 265.391 102.5 265.657 102.5C265.923 102.5 266.175 102.626 266.175 102.92V104.978H268.933C269.171 104.978 269.283 105.174 269.283 105.412C269.283 105.65 269.171 105.846 268.933 105.846H257.957C257.719 105.846 257.607 105.65 257.607 105.412C257.607 105.174 257.719 104.978 257.957 104.978H260.715V102.92C260.715 102.626 260.967 102.5 261.219 102.5ZM271.427 104.782C271.889 104.782 272.225 105.132 272.225 105.58C272.225 106.014 271.889 106.364 271.427 106.364C270.979 106.364 270.629 106.014 270.629 105.58C270.629 105.132 270.979 104.782 271.427 104.782Z" fill="#808983"/>
</svg>
