<svg viewBox="0 0 365 182" fill="none" xmlns="http://www.w3.org/2000/svg">
<g filter="url(#filter0_d_2249_24610)">
<rect x="20" y="16" width="325" height="142" rx="28" fill="#FFFDFA"/>
<path d="M85.844 58.395C86.129 58.395 86.399 58.53 86.399 58.845V65.385C86.399 65.595 86.474 65.67 86.684 65.67C87.974 65.67 89.699 65.565 90.839 65.385C91.064 65.355 91.229 65.52 91.274 65.79C91.304 66.06 91.199 66.315 90.959 66.345C90.059 66.495 88.274 66.615 86.324 66.615C85.544 66.615 85.289 66.375 85.289 65.61V58.845C85.289 58.53 85.559 58.395 85.844 58.395ZM95.819 57.39C96.089 57.39 96.344 57.525 96.344 57.825V69.795C96.344 70.095 96.089 70.23 95.819 70.23C95.564 70.23 95.309 70.095 95.309 69.795V63.045H93.224V69.165C93.224 69.465 92.969 69.6 92.699 69.6C92.444 69.6 92.189 69.465 92.189 69.165V57.975C92.189 57.675 92.444 57.54 92.699 57.54C92.969 57.54 93.224 57.675 93.224 57.975V62.1H95.309V57.825C95.309 57.525 95.564 57.39 95.819 57.39ZM103.966 58.455C104.746 58.455 105.001 58.695 105.001 59.46V61.125C105.001 63.63 104.251 64.38 99.6163 67.245C99.3913 67.38 99.1063 67.29 98.9563 67.065C98.8063 66.84 98.8063 66.51 99.0463 66.36C103.396 63.705 103.921 63.15 103.921 61.08V59.685C103.921 59.49 103.846 59.415 103.636 59.415H99.3913C99.1213 59.415 99.0013 59.19 99.0013 58.935C99.0013 58.68 99.1213 58.455 99.3913 58.455H103.966ZM108.361 57.39C108.646 57.39 108.916 57.525 108.916 57.84V62.025H110.821C111.091 62.025 111.211 62.25 111.211 62.505C111.211 62.775 111.091 63 110.821 63H108.916V69.78C108.916 70.095 108.646 70.23 108.361 70.23C108.091 70.23 107.821 70.095 107.821 69.78V57.84C107.821 57.525 108.091 57.39 108.361 57.39ZM122.089 57.795C124.939 57.795 126.559 58.86 126.559 60.78C126.559 62.7 124.939 63.765 122.089 63.765C119.239 63.765 117.619 62.7 117.619 60.78C117.619 58.86 119.239 57.795 122.089 57.795ZM122.089 58.74C119.809 58.74 118.714 59.535 118.714 60.78C118.714 62.025 119.809 62.82 122.089 62.82C124.369 62.82 125.464 62.025 125.464 60.78C125.464 59.535 124.369 58.74 122.089 58.74ZM127.969 65.37C128.224 65.37 128.344 65.58 128.344 65.835C128.344 66.09 128.224 66.3 127.969 66.3H124.804V70.755C124.804 71.07 124.549 71.205 124.279 71.205C124.009 71.205 123.754 71.07 123.754 70.755V66.3H120.424V70.755C120.424 71.07 120.169 71.205 119.899 71.205C119.629 71.205 119.374 71.07 119.374 70.755V66.3H116.209C115.954 66.3 115.834 66.09 115.834 65.835C115.834 65.58 115.954 65.37 116.209 65.37H127.969ZM131.856 57.705C132.141 57.705 132.396 57.84 132.396 58.155V61.125C132.396 61.335 132.486 61.395 132.681 61.395H140.061C140.316 61.395 140.436 61.62 140.436 61.86C140.436 62.115 140.316 62.34 140.061 62.34H132.336C131.556 62.34 131.301 62.1 131.301 61.335V58.155C131.301 57.84 131.556 57.705 131.856 57.705ZM141.621 63.945C141.876 63.945 141.996 64.155 141.996 64.425C141.996 64.68 141.876 64.89 141.621 64.89H129.861C129.606 64.89 129.486 64.68 129.486 64.425C129.486 64.155 129.606 63.945 129.861 63.945H141.621ZM135.741 66.345C138.591 66.345 140.211 67.155 140.211 68.835C140.211 70.515 138.591 71.325 135.741 71.325C132.891 71.325 131.271 70.515 131.271 68.835C131.271 67.155 132.891 66.345 135.741 66.345ZM135.741 67.23C133.446 67.23 132.366 67.8 132.366 68.835C132.366 69.87 133.446 70.44 135.741 70.44C138.036 70.44 139.116 69.87 139.116 68.835C139.116 67.8 138.036 67.23 135.741 67.23ZM147.233 61.5C149.198 61.5 150.368 62.715 150.368 64.395C150.368 66.075 149.198 67.29 147.233 67.29C145.268 67.29 144.098 66.075 144.098 64.395C144.098 62.715 145.268 61.5 147.233 61.5ZM147.233 57.39C147.518 57.39 147.788 57.525 147.788 57.84V59.355H150.803C151.058 59.355 151.178 59.565 151.178 59.82C151.178 60.09 151.058 60.3 150.803 60.3H143.513C143.243 60.3 143.123 60.09 143.123 59.82C143.123 59.565 143.243 59.355 143.513 59.355H146.678V57.84C146.678 57.525 146.963 57.39 147.233 57.39ZM147.233 62.415C145.913 62.415 145.118 63.225 145.118 64.395C145.118 65.565 145.913 66.375 147.233 66.375C148.553 66.375 149.348 65.565 149.348 64.395C149.348 63.225 148.553 62.415 147.233 62.415ZM153.083 57.39C153.353 57.39 153.623 57.525 153.623 57.84V62.175H155.528C155.798 62.175 155.918 62.4 155.918 62.655C155.918 62.925 155.798 63.15 155.528 63.15H153.623V69.78C153.623 70.095 153.353 70.23 153.083 70.23C152.798 70.23 152.543 70.095 152.543 69.78V57.84C152.543 57.525 152.798 57.39 153.083 57.39ZM163.436 58.425C163.706 58.425 163.826 58.635 163.826 58.89C163.826 59.16 163.706 59.37 163.436 59.37H158.801C158.591 59.37 158.516 59.445 158.516 59.655V65.535C158.516 65.745 158.591 65.82 158.801 65.82C161.006 65.82 162.791 65.7 164.576 65.46C164.816 65.43 164.981 65.595 165.026 65.865C165.056 66.135 164.951 66.39 164.711 66.42C163.151 66.63 161.291 66.765 158.456 66.765C157.676 66.765 157.421 66.525 157.421 65.76V59.43C157.421 58.665 157.676 58.425 158.456 58.425H163.436ZM166.721 57.39C167.006 57.39 167.276 57.525 167.276 57.84V62.025H169.181C169.451 62.025 169.571 62.25 169.571 62.505C169.571 62.775 169.451 63 169.181 63H167.276V69.78C167.276 70.095 167.006 70.23 166.721 70.23C166.451 70.23 166.181 70.095 166.181 69.78V57.84C166.181 57.525 166.451 57.39 166.721 57.39ZM180.133 58.38C180.913 58.38 181.168 58.62 181.168 59.385V60.765C181.168 62.595 180.973 64.005 180.643 65.505C180.583 65.775 180.313 65.895 179.998 65.85C179.713 65.79 179.518 65.595 179.578 65.34C179.893 63.81 180.088 62.445 180.088 60.72V59.625C180.088 59.415 179.998 59.34 179.803 59.34H172.423C172.168 59.34 172.048 59.13 172.048 58.86C172.048 58.59 172.168 58.38 172.423 58.38H180.133ZM175.783 62.715C176.068 62.715 176.323 62.85 176.323 63.165V67.89H182.563C182.833 67.89 182.953 68.1 182.953 68.37C182.953 68.625 182.833 68.835 182.563 68.835H170.833C170.563 68.835 170.443 68.625 170.443 68.37C170.443 68.1 170.563 67.89 170.833 67.89H175.243V63.165C175.243 62.85 175.498 62.715 175.783 62.715ZM190.185 58.23C190.47 58.23 190.74 58.365 190.74 58.68V63.345C190.74 63.54 190.815 63.615 191.025 63.615H198.435C198.705 63.615 198.825 63.825 198.825 64.095C198.825 64.35 198.705 64.575 198.435 64.575H190.665C189.885 64.575 189.63 64.335 189.63 63.57V58.68C189.63 58.365 189.885 58.23 190.185 58.23ZM199.965 67.875C200.235 67.875 200.355 68.1 200.355 68.37C200.355 68.625 200.235 68.835 199.965 68.835H188.235C187.965 68.835 187.845 68.625 187.845 68.37C187.845 68.1 187.965 67.875 188.235 67.875H199.965ZM212.358 57.39C212.643 57.39 212.898 57.525 212.898 57.84V64.77C212.898 65.07 212.643 65.205 212.358 65.205C212.088 65.205 211.833 65.07 211.833 64.77V63.21H209.823C209.553 63.21 209.448 63 209.448 62.745C209.448 62.49 209.553 62.265 209.823 62.265H211.833V60.585H209.118C209.088 62.46 208.698 62.865 206.493 64.77C206.283 64.965 205.968 64.905 205.803 64.695C205.623 64.47 205.608 64.23 205.833 64.02C207.903 62.22 208.053 61.98 208.053 60.345V59.415C208.053 59.205 207.978 59.13 207.768 59.13H206.343C206.073 59.13 205.953 58.92 205.953 58.665C205.953 58.395 206.073 58.185 206.343 58.185H208.083C208.863 58.185 209.118 58.425 209.118 59.19V59.655H211.833V57.84C211.833 57.525 212.088 57.39 212.358 57.39ZM205.998 65.655C206.268 65.655 206.523 65.79 206.523 66.105V66.825C206.523 67.815 206.688 68.175 207.378 68.955C207.633 69.24 207.933 69.57 208.203 69.81C208.368 69.975 208.488 69.975 208.668 69.81C208.923 69.57 209.238 69.24 209.493 68.955C210.168 68.175 210.333 67.815 210.333 66.825V66.105C210.333 65.79 210.603 65.655 210.873 65.655C211.143 65.655 211.413 65.79 211.413 66.105V66.825C211.413 67.83 211.593 68.22 212.403 68.955C212.778 69.315 213.333 69.75 213.873 70.155C214.068 70.305 214.068 70.575 213.903 70.8C213.723 71.01 213.468 71.07 213.228 70.89C212.718 70.5 212.268 70.125 211.923 69.825C211.233 69.225 210.963 68.895 210.873 68.595H210.858C210.768 68.91 210.543 69.18 209.868 69.9C209.613 70.17 209.358 70.425 209.103 70.665C208.593 71.13 208.278 71.13 207.753 70.665C207.498 70.425 207.258 70.17 206.988 69.9C206.313 69.18 206.103 68.91 206.013 68.595H205.998C205.908 68.91 205.638 69.24 204.933 69.84C204.603 70.125 204.138 70.515 203.628 70.905C203.403 71.07 203.133 71.025 202.968 70.8C202.788 70.59 202.803 70.305 202.983 70.155C203.538 69.75 204.078 69.315 204.468 68.955C205.278 68.22 205.458 67.83 205.458 66.825V66.105C205.458 65.79 205.728 65.655 205.998 65.655ZM204.348 58.185C205.143 58.185 205.383 58.395 205.383 59.19V60.18C205.383 61.98 204.963 62.355 202.563 64.215C202.338 64.395 202.053 64.335 201.888 64.11C201.723 63.9 201.708 63.615 201.948 63.435C204.138 61.71 204.318 61.545 204.318 60.12V59.415C204.318 59.205 204.243 59.13 204.033 59.13H202.413C202.143 59.13 202.023 58.92 202.023 58.665C202.023 58.395 202.143 58.185 202.413 58.185H204.348ZM221.885 58.275C222.155 58.275 222.275 58.485 222.275 58.74C222.275 59.01 222.155 59.22 221.885 59.22H217.37C217.16 59.22 217.085 59.295 217.085 59.49V63.84C217.085 64.05 217.16 64.125 217.37 64.125C219.575 64.125 221.36 64.005 223.145 63.765C223.385 63.735 223.55 63.9 223.595 64.17C223.625 64.44 223.52 64.695 223.28 64.725C221.72 64.935 219.86 65.07 217.025 65.07C216.245 65.07 215.99 64.83 215.99 64.065V59.28C215.99 58.515 216.245 58.275 217.025 58.275H221.885ZM225.83 57.39C226.1 57.39 226.37 57.525 226.37 57.84V66.99C226.37 67.305 226.1 67.44 225.83 67.44C225.545 67.44 225.29 67.305 225.29 66.99V61.95H221.87C221.6 61.95 221.48 61.74 221.48 61.47C221.48 61.215 221.6 61.005 221.87 61.005H225.29V57.84C225.29 57.525 225.545 57.39 225.83 57.39ZM218.36 66.36C218.645 66.36 218.915 66.495 218.915 66.81V69.66C218.915 69.855 218.99 69.93 219.2 69.93H226.37C226.64 69.93 226.76 70.155 226.76 70.41C226.76 70.665 226.64 70.89 226.37 70.89H218.84C218.06 70.89 217.805 70.65 217.805 69.885V66.81C217.805 66.495 218.075 66.36 218.36 66.36ZM238.807 57.645C239.092 57.645 239.362 57.795 239.362 58.11V58.905C239.362 59.865 239.857 60.465 240.937 60.975C241.987 61.47 242.872 61.86 243.757 62.235C244.027 62.355 244.042 62.67 243.967 62.88C243.862 63.12 243.637 63.27 243.322 63.135C242.452 62.775 241.552 62.37 240.637 61.935C239.392 61.335 238.927 60.84 238.822 60.465H238.807C238.702 60.87 238.237 61.35 236.992 61.95C236.077 62.385 235.177 62.79 234.277 63.165C233.977 63.285 233.752 63.12 233.647 62.88C233.557 62.67 233.587 62.355 233.857 62.235C234.742 61.86 235.627 61.47 236.677 60.975C237.757 60.465 238.252 59.865 238.252 58.905V58.11C238.252 57.795 238.522 57.645 238.807 57.645ZM244.687 64.455C244.942 64.455 245.062 64.665 245.062 64.92C245.062 65.175 244.942 65.385 244.687 65.385H239.497V67.8C239.497 68.1 239.257 68.22 238.957 68.22C238.672 68.22 238.417 68.1 238.417 67.8V65.385H232.927C232.672 65.385 232.552 65.175 232.552 64.92C232.552 64.665 232.672 64.455 232.927 64.455H244.687ZM234.892 66.84C235.177 66.84 235.432 66.975 235.432 67.29V69.735C235.432 69.945 235.522 70.02 235.717 70.02H243.157C243.412 70.02 243.532 70.23 243.532 70.485C243.532 70.74 243.412 70.95 243.157 70.95H235.372C234.592 70.95 234.337 70.71 234.337 69.945V67.29C234.337 66.975 234.592 66.84 234.892 66.84ZM251.74 58.305C252.52 58.305 252.775 58.545 252.775 59.31V60.525C252.775 62.655 251.965 63.24 247.345 65.565C247.12 65.685 246.82 65.58 246.7 65.325C246.58 65.1 246.58 64.77 246.85 64.65C251.185 62.52 251.695 62.085 251.695 60.465V59.535C251.695 59.34 251.62 59.265 251.41 59.265H247.165C246.895 59.265 246.775 59.04 246.775 58.785C246.775 58.53 246.895 58.305 247.165 58.305H251.74ZM256.135 57.39C256.42 57.39 256.69 57.525 256.69 57.84V61.32H258.595C258.865 61.32 258.985 61.545 258.985 61.815C258.985 62.07 258.865 62.295 258.595 62.295H256.69V66.99C256.69 67.305 256.42 67.44 256.135 67.44C255.865 67.44 255.595 67.305 255.595 66.99V57.84C255.595 57.525 255.865 57.39 256.135 57.39ZM248.89 66.27C249.175 66.27 249.445 66.405 249.445 66.72V69.66C249.445 69.855 249.52 69.93 249.73 69.93H256.69C256.96 69.93 257.08 70.155 257.08 70.41C257.08 70.665 256.96 70.89 256.69 70.89H249.37C248.59 70.89 248.335 70.65 248.335 69.885V66.72C248.335 66.405 248.605 66.27 248.89 66.27ZM266.112 57.735C268.947 57.735 270.552 58.635 270.552 60.405C270.552 62.175 268.947 63.075 266.112 63.075C263.277 63.075 261.672 62.175 261.672 60.405C261.672 58.635 263.277 57.735 266.112 57.735ZM266.112 58.65C263.832 58.65 262.767 59.31 262.767 60.405C262.767 61.5 263.832 62.16 266.112 62.16C268.392 62.16 269.457 61.5 269.457 60.405C269.457 59.31 268.392 58.65 266.112 58.65ZM271.977 64.605C272.247 64.605 272.367 64.815 272.367 65.085C272.367 65.34 272.247 65.55 271.977 65.55H260.247C259.977 65.55 259.857 65.34 259.857 65.085C259.857 64.815 259.977 64.605 260.247 64.605H271.977ZM262.197 66.84C262.482 66.84 262.737 66.975 262.737 67.29V69.735C262.737 69.945 262.827 70.02 263.022 70.02H270.462C270.717 70.02 270.837 70.23 270.837 70.485C270.837 70.74 270.717 70.95 270.462 70.95H262.677C261.897 70.95 261.642 70.71 261.642 69.945V67.29C261.642 66.975 261.897 66.84 262.197 66.84ZM276.764 58.11C278.744 58.11 279.959 59.175 279.959 60.81V60.975C279.959 61.98 279.434 62.67 278.399 63.6C277.169 64.71 277.034 65.115 277.034 65.865C277.034 66.135 276.779 66.285 276.524 66.285C276.239 66.285 275.984 66.15 275.984 65.85C275.984 64.83 276.164 64.29 277.424 63.165C278.519 62.19 278.864 61.695 278.864 60.975V60.855C278.864 59.805 278.099 59.1 276.779 59.1C275.774 59.1 275.099 59.475 274.529 60C274.304 60.18 274.034 60.15 273.854 59.925C273.659 59.715 273.659 59.43 273.884 59.235C274.514 58.635 275.549 58.11 276.764 58.11ZM276.509 67.725C276.989 67.725 277.349 68.1 277.349 68.565C277.349 69.03 276.989 69.39 276.509 69.39C276.044 69.39 275.669 69.03 275.669 68.565C275.669 68.1 276.044 67.725 276.509 67.725Z" fill="#07BEB8"/>
<path d="M84.2176 91.906C86.3176 91.906 87.3956 93.348 87.3956 96.008C87.3956 98.668 86.3176 100.11 84.2176 100.11C82.1176 100.11 81.0256 98.668 81.0256 96.008C81.0256 93.348 82.1176 91.906 84.2176 91.906ZM84.2176 92.816C82.6916 92.816 82.0336 93.978 82.0336 96.008C82.0336 98.038 82.6916 99.2 84.2176 99.2C85.7436 99.2 86.4016 98.038 86.4016 96.008C86.4016 93.978 85.7436 92.816 84.2176 92.816ZM90.3356 91.164C90.6016 91.164 90.8536 91.29 90.8536 91.584V102.728C90.8536 103.022 90.6016 103.148 90.3356 103.148C90.0836 103.148 89.8316 103.022 89.8316 102.728V91.584C89.8316 91.29 90.0836 91.164 90.3356 91.164ZM98.4018 92.06C99.1298 92.06 99.3678 92.284 99.3678 92.998V95.574C99.3678 96.288 99.1298 96.512 98.4018 96.512H95.2658C95.0698 96.512 94.9998 96.582 94.9998 96.764V99.06C94.9998 99.242 95.0698 99.312 95.2658 99.312C97.2258 99.312 98.9198 99.228 100.558 98.99C100.782 98.962 100.936 99.13 100.978 99.368C101.006 99.62 100.908 99.858 100.684 99.886C99.2418 100.082 97.4918 100.194 94.9578 100.194C94.2298 100.194 93.9918 99.97 93.9918 99.256V96.596C93.9918 95.882 94.2298 95.658 94.9578 95.658H98.0938C98.2758 95.658 98.3598 95.588 98.3598 95.392V93.194C98.3598 93.012 98.2758 92.942 98.0938 92.942H94.3418C94.1038 92.942 93.9918 92.746 93.9918 92.494C93.9918 92.256 94.1038 92.06 94.3418 92.06H98.4018ZM103.176 91.164C103.428 91.164 103.68 91.29 103.68 91.584V102.728C103.68 103.022 103.428 103.148 103.176 103.148C102.91 103.148 102.672 103.022 102.672 102.728V96.33H100.656C100.404 96.33 100.292 96.12 100.292 95.868C100.292 95.63 100.404 95.434 100.656 95.434H102.672V91.584C102.672 91.29 102.91 91.164 103.176 91.164ZM109.744 94.538C111.564 94.538 112.642 95.448 112.642 96.82C112.642 98.192 111.564 99.102 109.744 99.102C107.924 99.102 106.846 98.192 106.846 96.82C106.846 95.448 107.924 94.538 109.744 94.538ZM109.744 91.136C110.01 91.136 110.262 91.262 110.262 91.556V92.662H113.048C113.3 92.662 113.412 92.858 113.412 93.096C113.412 93.348 113.3 93.544 113.048 93.544H106.3C106.048 93.544 105.936 93.348 105.936 93.096C105.936 92.858 106.048 92.662 106.3 92.662H109.226V91.556C109.226 91.262 109.492 91.136 109.744 91.136ZM109.744 95.364C108.484 95.364 107.784 95.952 107.784 96.82C107.784 97.688 108.484 98.276 109.744 98.276C111.004 98.276 111.704 97.688 111.704 96.82C111.704 95.952 111.004 95.364 109.744 95.364ZM115.232 91.164C115.484 91.164 115.736 91.29 115.736 91.584V94.986H117.514C117.766 94.986 117.878 95.196 117.878 95.434C117.878 95.672 117.766 95.882 117.514 95.882H115.736V100.264C115.736 100.558 115.484 100.684 115.232 100.684C114.966 100.684 114.728 100.558 114.728 100.264V91.584C114.728 91.29 114.966 91.164 115.232 91.164ZM108.456 99.984C108.722 99.984 108.974 100.11 108.974 100.404V102.616C108.974 102.798 109.044 102.868 109.24 102.868H115.736C115.988 102.868 116.1 103.078 116.1 103.316C116.1 103.554 115.988 103.764 115.736 103.764H108.904C108.176 103.764 107.938 103.54 107.938 102.826V100.404C107.938 100.11 108.19 99.984 108.456 99.984ZM128.03 91.402C128.296 91.402 128.548 91.542 128.548 91.836V92.578C128.548 93.474 129.01 94.034 130.018 94.51C130.998 94.972 131.824 95.336 132.65 95.686C132.902 95.798 132.916 96.092 132.846 96.288C132.748 96.512 132.538 96.652 132.244 96.526C131.432 96.19 130.592 95.812 129.738 95.406C128.576 94.846 128.142 94.384 128.044 94.034H128.03C127.932 94.412 127.498 94.86 126.336 95.42C125.482 95.826 124.642 96.204 123.802 96.554C123.522 96.666 123.312 96.512 123.214 96.288C123.13 96.092 123.158 95.798 123.41 95.686C124.236 95.336 125.062 94.972 126.042 94.51C127.05 94.034 127.512 93.474 127.512 92.578V91.836C127.512 91.542 127.764 91.402 128.03 91.402ZM133.518 97.758C133.756 97.758 133.868 97.954 133.868 98.192C133.868 98.43 133.756 98.626 133.518 98.626H128.674V100.88C128.674 101.16 128.45 101.272 128.17 101.272C127.904 101.272 127.666 101.16 127.666 100.88V98.626H122.542C122.304 98.626 122.192 98.43 122.192 98.192C122.192 97.954 122.304 97.758 122.542 97.758H133.518ZM124.376 99.984C124.642 99.984 124.88 100.11 124.88 100.404V102.686C124.88 102.882 124.964 102.952 125.146 102.952H132.09C132.328 102.952 132.44 103.148 132.44 103.386C132.44 103.624 132.328 103.82 132.09 103.82H124.824C124.096 103.82 123.858 103.596 123.858 102.882V100.404C123.858 100.11 124.096 99.984 124.376 99.984ZM140.1 92.018C140.828 92.018 141.066 92.242 141.066 92.956V94.09C141.066 96.078 140.31 96.624 135.998 98.794C135.788 98.906 135.508 98.808 135.396 98.57C135.284 98.36 135.284 98.052 135.536 97.94C139.582 95.952 140.058 95.546 140.058 94.034V93.166C140.058 92.984 139.988 92.914 139.792 92.914H135.83C135.578 92.914 135.466 92.704 135.466 92.466C135.466 92.228 135.578 92.018 135.83 92.018H140.1ZM144.202 91.164C144.468 91.164 144.72 91.29 144.72 91.584V94.832H146.498C146.75 94.832 146.862 95.042 146.862 95.294C146.862 95.532 146.75 95.742 146.498 95.742H144.72V100.124C144.72 100.418 144.468 100.544 144.202 100.544C143.95 100.544 143.698 100.418 143.698 100.124V91.584C143.698 91.29 143.95 91.164 144.202 91.164ZM137.44 99.452C137.706 99.452 137.958 99.578 137.958 99.872V102.616C137.958 102.798 138.028 102.868 138.224 102.868H144.72C144.972 102.868 145.084 103.078 145.084 103.316C145.084 103.554 144.972 103.764 144.72 103.764H137.888C137.16 103.764 136.922 103.54 136.922 102.826V99.872C136.922 99.578 137.174 99.452 137.44 99.452ZM153.515 91.486C156.161 91.486 157.659 92.326 157.659 93.978C157.659 95.63 156.161 96.47 153.515 96.47C150.869 96.47 149.371 95.63 149.371 93.978C149.371 92.326 150.869 91.486 153.515 91.486ZM153.515 92.34C151.387 92.34 150.393 92.956 150.393 93.978C150.393 95 151.387 95.616 153.515 95.616C155.643 95.616 156.637 95 156.637 93.978C156.637 92.956 155.643 92.34 153.515 92.34ZM158.989 97.898C159.241 97.898 159.353 98.094 159.353 98.346C159.353 98.584 159.241 98.78 158.989 98.78H148.041C147.789 98.78 147.677 98.584 147.677 98.346C147.677 98.094 147.789 97.898 148.041 97.898H158.989ZM149.861 99.984C150.127 99.984 150.365 100.11 150.365 100.404V102.686C150.365 102.882 150.449 102.952 150.631 102.952H157.575C157.813 102.952 157.925 103.148 157.925 103.386C157.925 103.624 157.813 103.82 157.575 103.82H150.309C149.581 103.82 149.343 103.596 149.343 102.882V100.404C149.343 100.11 149.581 99.984 149.861 99.984ZM169.757 91.542C172.417 91.542 173.929 92.536 173.929 94.328C173.929 96.12 172.417 97.114 169.757 97.114C167.097 97.114 165.585 96.12 165.585 94.328C165.585 92.536 167.097 91.542 169.757 91.542ZM169.757 92.424C167.629 92.424 166.607 93.166 166.607 94.328C166.607 95.49 167.629 96.232 169.757 96.232C171.885 96.232 172.907 95.49 172.907 94.328C172.907 93.166 171.885 92.424 169.757 92.424ZM175.231 98.612C175.483 98.612 175.595 98.808 175.595 99.06C175.595 99.298 175.483 99.494 175.231 99.494H170.275V103.708C170.275 104.002 170.023 104.128 169.757 104.128C169.505 104.128 169.253 104.002 169.253 103.708V99.494H164.283C164.031 99.494 163.919 99.298 163.919 99.06C163.919 98.808 164.031 98.612 164.283 98.612H175.231ZM182.163 92.046C182.891 92.046 183.129 92.27 183.129 92.984V95.574C183.129 96.288 182.891 96.512 182.163 96.512H178.803C178.607 96.512 178.537 96.582 178.537 96.764V99.074C178.537 99.256 178.607 99.326 178.803 99.326C181.015 99.326 182.681 99.228 184.347 98.99C184.571 98.962 184.725 99.13 184.767 99.368C184.795 99.62 184.697 99.858 184.473 99.886C183.017 100.082 181.281 100.208 178.495 100.208C177.767 100.208 177.529 99.984 177.529 99.27V96.596C177.529 95.882 177.767 95.658 178.495 95.658H181.855C182.037 95.658 182.121 95.588 182.121 95.392V93.18C182.121 92.998 182.037 92.928 181.855 92.928H177.879C177.641 92.928 177.529 92.732 177.529 92.48C177.529 92.242 177.641 92.046 177.879 92.046H182.163ZM186.531 91.164C186.797 91.164 187.049 91.29 187.049 91.584V102.728C187.049 103.022 186.797 103.148 186.531 103.148C186.279 103.148 186.027 103.022 186.027 102.728V91.584C186.027 91.29 186.279 91.164 186.531 91.164ZM197.243 91.304C197.481 91.304 197.719 91.43 197.719 91.71V102.154C197.719 102.434 197.481 102.56 197.243 102.56C196.991 102.56 196.753 102.434 196.753 102.154V96.442H195.003C194.919 98.78 194.051 99.998 192.301 99.998C190.439 99.998 189.571 98.626 189.571 96.008C189.571 93.39 190.439 92.018 192.301 92.018C194.051 92.018 194.905 93.236 195.003 95.56H196.753V91.71C196.753 91.43 196.991 91.304 197.243 91.304ZM192.301 92.928C191.027 92.928 190.537 94.02 190.537 96.008C190.537 97.996 191.027 99.088 192.301 99.088C193.575 99.088 194.051 97.996 194.051 96.008C194.051 94.02 193.575 92.928 192.301 92.928ZM199.707 91.164C199.959 91.164 200.197 91.29 200.197 91.57V102.742C200.197 103.022 199.959 103.148 199.707 103.148C199.469 103.148 199.231 103.022 199.231 102.742V91.57C199.231 91.29 199.469 91.164 199.707 91.164ZM209.901 91.304C210.139 91.304 210.377 91.43 210.377 91.71V102.154C210.377 102.434 210.139 102.56 209.901 102.56C209.649 102.56 209.411 102.434 209.411 102.154V96.442H207.171C206.807 97.632 205.813 98.374 203.139 100.264C202.943 100.404 202.649 100.334 202.509 100.124C202.355 99.914 202.355 99.606 202.565 99.466C206.065 97.044 206.359 96.778 206.359 94.608V93.39C206.359 93.208 206.275 93.138 206.093 93.138H202.901C202.649 93.138 202.537 92.928 202.537 92.69C202.537 92.452 202.649 92.242 202.901 92.242H206.387C207.115 92.242 207.353 92.466 207.353 93.18V94.65C207.353 94.986 207.339 95.294 207.311 95.56H209.411V91.71C209.411 91.43 209.649 91.304 209.901 91.304ZM212.449 91.164C212.701 91.164 212.939 91.29 212.939 91.57V102.742C212.939 103.022 212.701 103.148 212.449 103.148C212.211 103.148 211.973 103.022 211.973 102.742V91.57C211.973 91.29 212.211 91.164 212.449 91.164ZM219.381 92.102C219.647 92.102 219.899 92.228 219.899 92.522V98.626C219.899 98.822 219.969 98.892 220.165 98.892C221.369 98.892 222.979 98.794 224.043 98.626C224.253 98.598 224.407 98.752 224.449 99.004C224.477 99.256 224.379 99.494 224.155 99.522C223.315 99.662 221.649 99.774 219.829 99.774C219.101 99.774 218.863 99.55 218.863 98.836V92.522C218.863 92.228 219.115 92.102 219.381 92.102ZM228.691 91.164C228.943 91.164 229.181 91.29 229.181 91.57V102.742C229.181 103.022 228.943 103.148 228.691 103.148C228.453 103.148 228.215 103.022 228.215 102.742V96.442H226.269V102.154C226.269 102.434 226.031 102.56 225.779 102.56C225.541 102.56 225.303 102.434 225.303 102.154V91.71C225.303 91.43 225.541 91.304 225.779 91.304C226.031 91.304 226.269 91.43 226.269 91.71V95.56H228.215V91.57C228.215 91.29 228.453 91.164 228.691 91.164ZM238.186 91.92C238.424 91.92 238.536 92.116 238.536 92.354C238.536 92.606 238.424 92.802 238.186 92.802H235.652V93.796C235.652 94.762 235.918 95.35 236.632 95.924C237.332 96.47 237.99 96.96 238.424 97.268C238.662 97.45 238.676 97.716 238.522 97.912C238.396 98.094 238.144 98.206 237.892 98.024C237.556 97.8 236.912 97.31 236.254 96.806C235.526 96.218 235.218 95.826 235.148 95.532H235.134C235.064 95.84 234.756 96.246 234.014 96.834C233.37 97.352 232.698 97.842 232.152 98.22C231.914 98.388 231.662 98.276 231.522 98.094C231.382 97.898 231.368 97.618 231.62 97.45C232.292 96.974 232.936 96.498 233.636 95.938C234.35 95.364 234.616 94.776 234.616 93.824V92.802H231.998C231.76 92.802 231.648 92.606 231.648 92.354C231.648 92.116 231.76 91.92 231.998 91.92H238.186ZM241.098 91.164C241.35 91.164 241.602 91.29 241.602 91.584V98.234C241.602 98.528 241.35 98.654 241.098 98.654C240.832 98.654 240.594 98.528 240.594 98.234V95.35H238.2C237.962 95.35 237.85 95.154 237.85 94.902C237.85 94.664 237.962 94.454 238.2 94.454H240.594V91.584C240.594 91.29 240.832 91.164 241.098 91.164ZM240.636 99.368C241.364 99.368 241.602 99.592 241.602 100.306V103.652C241.602 103.946 241.35 104.072 241.084 104.072C240.832 104.072 240.58 103.946 240.58 103.652V100.502C240.58 100.32 240.51 100.25 240.314 100.25H233.706C233.468 100.25 233.356 100.054 233.356 99.816C233.356 99.564 233.468 99.368 233.706 99.368H240.636ZM253.21 99.522C255.87 99.522 257.382 100.278 257.382 101.846C257.382 103.414 255.87 104.17 253.21 104.17C250.55 104.17 249.038 103.414 249.038 101.846C249.038 100.278 250.55 99.522 253.21 99.522ZM256.976 91.626C257.214 91.626 257.326 91.822 257.326 92.046C257.326 92.284 257.214 92.48 256.976 92.48H250.354C250.158 92.48 250.088 92.55 250.088 92.746V94.776C250.088 94.972 250.158 95.042 250.354 95.042H257.116C257.354 95.042 257.466 95.238 257.466 95.462C257.466 95.7 257.354 95.896 257.116 95.896H253.714V97.548H258.698C258.936 97.548 259.048 97.744 259.048 97.982C259.048 98.22 258.936 98.416 258.698 98.416H247.722C247.484 98.416 247.372 98.22 247.372 97.982C247.372 97.744 247.484 97.548 247.722 97.548H252.706V95.896H250.032C249.304 95.896 249.066 95.672 249.066 94.958V92.564C249.066 91.85 249.304 91.626 250.032 91.626H256.976ZM253.21 100.348C251.068 100.348 250.06 100.88 250.06 101.846C250.06 102.812 251.068 103.344 253.21 103.344C255.352 103.344 256.36 102.812 256.36 101.846C256.36 100.88 255.352 100.348 253.21 100.348ZM265.588 92.144C266.316 92.144 266.554 92.368 266.554 93.082V94.664C266.554 97.002 265.84 97.702 261.5 100.376C261.29 100.502 261.024 100.418 260.884 100.208C260.744 99.998 260.744 99.69 260.968 99.55C265.042 97.072 265.546 96.554 265.546 94.622V93.292C265.546 93.11 265.476 93.04 265.28 93.04H261.29C261.038 93.04 260.926 92.83 260.926 92.592C260.926 92.354 261.038 92.144 261.29 92.144H265.588ZM269.984 91.164C270.25 91.164 270.502 91.29 270.502 91.584V102.728C270.502 103.022 270.25 103.148 269.984 103.148C269.732 103.148 269.48 103.022 269.48 102.728V91.584C269.48 91.29 269.732 91.164 269.984 91.164ZM281.816 91.43C282.544 91.43 282.782 91.654 282.782 92.368V93.25C282.782 93.964 282.544 94.188 281.816 94.188H275.81C275.656 94.188 275.586 94.258 275.586 94.412V95.154C275.586 95.308 275.656 95.364 275.81 95.364H282.782C283.006 95.364 283.118 95.56 283.118 95.77C283.118 95.994 283.006 96.176 282.782 96.176H275.558C274.83 96.176 274.592 95.952 274.592 95.238V94.342C274.592 93.628 274.83 93.404 275.558 93.404H281.564C281.732 93.404 281.802 93.348 281.802 93.194V92.452C281.802 92.298 281.732 92.242 281.564 92.242H274.9C274.676 92.242 274.564 92.046 274.564 91.822C274.564 91.612 274.676 91.43 274.9 91.43H281.816ZM284.196 97.282C284.42 97.282 284.532 97.478 284.532 97.702C284.532 97.94 284.42 98.122 284.196 98.122H273.192C272.968 98.122 272.856 97.94 272.856 97.702C272.856 97.478 272.968 97.282 273.192 97.282H284.196ZM281.886 99.228C282.614 99.228 282.852 99.452 282.852 100.166V101.062C282.852 101.776 282.614 102 281.886 102H275.74C275.572 102 275.502 102.056 275.502 102.224V102.952C275.502 103.12 275.572 103.176 275.74 103.176H282.866C283.09 103.176 283.188 103.372 283.188 103.582C283.188 103.792 283.09 103.988 282.866 103.988H275.488C274.76 103.988 274.522 103.778 274.522 103.064V102.154C274.522 101.44 274.76 101.216 275.488 101.216H281.648C281.802 101.216 281.872 101.16 281.872 100.992V100.264C281.872 100.11 281.802 100.04 281.648 100.04H274.83C274.606 100.04 274.494 99.858 274.494 99.634C274.494 99.424 274.606 99.228 274.83 99.228H281.886Z" fill="#808983"/>
<path d="M74.7603 114.342C76.5523 114.342 77.5883 115.21 77.5883 116.526C77.5883 117.842 76.5523 118.71 74.7603 118.71C72.9683 118.71 71.9323 117.842 71.9323 116.526C71.9323 115.21 72.9683 114.342 74.7603 114.342ZM74.7603 111.024C75.0263 111.024 75.2783 111.15 75.2783 111.444V112.55H77.9943C78.2463 112.55 78.3583 112.746 78.3583 112.984C78.3583 113.222 78.2463 113.432 77.9943 113.432H71.3863C71.1343 113.432 71.0223 113.222 71.0223 112.984C71.0223 112.746 71.1343 112.55 71.3863 112.55H74.2423V111.444C74.2423 111.15 74.5083 111.024 74.7603 111.024ZM74.7603 115.168C73.5423 115.168 72.8703 115.714 72.8703 116.526C72.8703 117.338 73.5423 117.884 74.7603 117.884C75.9783 117.884 76.6503 117.338 76.6503 116.526C76.6503 115.714 75.9783 115.168 74.7603 115.168ZM80.8363 111.164C81.0883 111.164 81.3263 111.29 81.3263 111.584V118.948C81.3263 119.228 81.0883 119.354 80.8363 119.354C80.5703 119.354 80.3183 119.228 80.3183 118.948V117.674H78.5823C78.3443 117.674 78.2323 117.492 78.2323 117.24C78.2323 117.002 78.3443 116.806 78.5823 116.806H80.3183V115.364H78.5123C78.2743 115.364 78.1623 115.182 78.1623 114.93C78.1623 114.706 78.2743 114.51 78.5123 114.51H80.3183V111.584C80.3183 111.29 80.5703 111.164 80.8363 111.164ZM77.4483 119.522C79.9823 119.522 81.4243 120.292 81.4243 121.818C81.4243 123.358 79.9823 124.114 77.4483 124.114C74.9143 124.114 73.4723 123.358 73.4723 121.818C73.4723 120.292 74.9143 119.522 77.4483 119.522ZM77.4483 120.362C75.4323 120.362 74.4803 120.908 74.4803 121.818C74.4803 122.742 75.4323 123.288 77.4483 123.288C79.4643 123.288 80.4163 122.742 80.4163 121.818C80.4163 120.908 79.4643 120.362 77.4483 120.362ZM87.5725 111.584C87.8385 111.584 88.0905 111.71 88.0905 112.004V113.516C88.0905 114.468 88.3705 115.098 89.0845 115.686C89.7705 116.26 90.4005 116.736 90.8765 117.072C91.1005 117.24 91.1005 117.52 90.9605 117.716C90.8205 117.912 90.5685 117.996 90.3305 117.828C89.9525 117.562 89.3225 117.086 88.6925 116.568C87.9785 116.008 87.6565 115.56 87.5865 115.28H87.5725C87.5025 115.574 87.1665 116.036 86.4525 116.61C85.8225 117.114 85.1925 117.59 84.5905 118.024C84.3525 118.192 84.0865 118.108 83.9465 117.912C83.8065 117.73 83.7925 117.422 84.0305 117.254C84.7305 116.764 85.3605 116.274 86.0605 115.714C86.7745 115.112 87.0545 114.482 87.0545 113.544V112.004C87.0545 111.71 87.2925 111.584 87.5725 111.584ZM93.5645 111.164C93.8165 111.164 94.0685 111.29 94.0685 111.584V118.402C94.0685 118.696 93.8165 118.822 93.5645 118.822C93.2985 118.822 93.0605 118.696 93.0605 118.402V114.734H90.5545C90.3165 114.734 90.2045 114.538 90.2045 114.286C90.2045 114.048 90.3165 113.852 90.5545 113.852H93.0605V111.584C93.0605 111.29 93.2985 111.164 93.5645 111.164ZM90.1765 118.99C92.7245 118.99 94.1665 119.886 94.1665 121.552C94.1665 123.218 92.7245 124.114 90.1765 124.114C87.6285 124.114 86.2005 123.218 86.2005 121.552C86.2005 119.886 87.6285 118.99 90.1765 118.99ZM90.1765 119.83C88.1605 119.83 87.2085 120.488 87.2085 121.552C87.2085 122.616 88.1605 123.274 90.1765 123.274C92.2065 123.274 93.1585 122.616 93.1585 121.552C93.1585 120.488 92.2065 119.83 90.1765 119.83ZM100.161 115C101.995 115 103.087 116.134 103.087 117.702C103.087 119.27 101.995 120.404 100.161 120.404C98.3266 120.404 97.2346 119.27 97.2346 117.702C97.2346 116.134 98.3266 115 100.161 115ZM100.161 111.164C100.427 111.164 100.679 111.29 100.679 111.584V112.998H103.493C103.731 112.998 103.843 113.194 103.843 113.432C103.843 113.684 103.731 113.88 103.493 113.88H96.6886C96.4366 113.88 96.3246 113.684 96.3246 113.432C96.3246 113.194 96.4366 112.998 96.6886 112.998H99.6426V111.584C99.6426 111.29 99.9086 111.164 100.161 111.164ZM100.161 115.854C98.9286 115.854 98.1866 116.61 98.1866 117.702C98.1866 118.794 98.9286 119.55 100.161 119.55C101.393 119.55 102.135 118.794 102.135 117.702C102.135 116.61 101.393 115.854 100.161 115.854ZM105.621 111.164C105.873 111.164 106.125 111.29 106.125 111.584V115.63H107.903C108.155 115.63 108.267 115.84 108.267 116.078C108.267 116.33 108.155 116.54 107.903 116.54H106.125V122.728C106.125 123.022 105.873 123.148 105.621 123.148C105.355 123.148 105.117 123.022 105.117 122.728V111.584C105.117 111.29 105.355 111.164 105.621 111.164ZM116.837 111.304C117.075 111.304 117.313 111.43 117.313 111.71V122.154C117.313 122.434 117.075 122.56 116.837 122.56C116.585 122.56 116.347 122.434 116.347 122.154V116.442H114.107C113.743 117.632 112.749 118.374 110.075 120.264C109.879 120.404 109.585 120.334 109.445 120.124C109.291 119.914 109.291 119.606 109.501 119.466C113.001 117.044 113.295 116.778 113.295 114.608V113.39C113.295 113.208 113.211 113.138 113.029 113.138H109.837C109.585 113.138 109.473 112.928 109.473 112.69C109.473 112.452 109.585 112.242 109.837 112.242H113.323C114.051 112.242 114.289 112.466 114.289 113.18V114.65C114.289 114.986 114.275 115.294 114.247 115.56H116.347V111.71C116.347 111.43 116.585 111.304 116.837 111.304ZM119.385 111.164C119.637 111.164 119.875 111.29 119.875 111.57V122.742C119.875 123.022 119.637 123.148 119.385 123.148C119.147 123.148 118.909 123.022 118.909 122.742V111.57C118.909 111.29 119.147 111.164 119.385 111.164ZM128.501 115.014C130.223 115.014 131.077 116.176 131.077 117.66C131.077 119.144 130.223 120.306 128.501 120.306C126.779 120.306 125.939 119.144 125.939 117.66C125.939 116.176 126.779 115.014 128.501 115.014ZM128.501 111.248C128.753 111.248 129.005 111.374 129.005 111.668V113.082H131.301C131.553 113.082 131.665 113.278 131.665 113.516C131.665 113.768 131.553 113.964 131.301 113.964H125.533C125.295 113.964 125.183 113.768 125.183 113.516C125.183 113.278 125.295 113.082 125.533 113.082H127.997V111.668C127.997 111.374 128.249 111.248 128.501 111.248ZM128.501 115.882C127.367 115.882 126.849 116.666 126.849 117.66C126.849 118.668 127.367 119.452 128.501 119.452C129.649 119.452 130.167 118.668 130.167 117.66C130.167 116.666 129.649 115.882 128.501 115.882ZM135.627 111.164C135.879 111.164 136.117 111.29 136.117 111.57V122.742C136.117 123.022 135.879 123.148 135.627 123.148C135.389 123.148 135.151 123.022 135.151 122.742V116.582H133.317V122.154C133.317 122.434 133.079 122.56 132.827 122.56C132.589 122.56 132.351 122.434 132.351 122.154V111.71C132.351 111.43 132.589 111.304 132.827 111.304C133.079 111.304 133.317 111.43 133.317 111.71V115.7H135.151V111.57C135.151 111.29 135.389 111.164 135.627 111.164ZM147.921 111.822C148.159 111.822 148.271 112.032 148.271 112.27C148.271 112.508 148.159 112.718 147.921 112.718H144.421V112.956C144.421 114.02 144.687 114.482 145.737 115.042C146.703 115.546 147.557 115.966 148.453 116.372C148.663 116.484 148.719 116.764 148.607 116.988C148.481 117.212 148.243 117.324 148.033 117.226C147.109 116.806 146.325 116.428 145.429 115.952C144.337 115.378 143.987 114.986 143.917 114.65H143.903C143.833 115 143.483 115.392 142.391 115.966C141.495 116.442 140.697 116.82 139.787 117.24C139.577 117.338 139.325 117.226 139.199 117.002C139.087 116.764 139.129 116.484 139.353 116.372C140.249 115.966 141.103 115.546 142.069 115.042C143.119 114.482 143.385 114.02 143.385 112.956V112.718H139.885C139.647 112.718 139.535 112.508 139.535 112.27C139.535 112.032 139.647 111.822 139.885 111.822H147.921ZM149.377 118.612C149.629 118.612 149.741 118.808 149.741 119.06C149.741 119.298 149.629 119.494 149.377 119.494H144.421V123.708C144.421 124.002 144.169 124.128 143.903 124.128C143.651 124.128 143.399 124.002 143.399 123.708V119.494H138.429C138.177 119.494 138.065 119.298 138.065 119.06C138.065 118.808 138.177 118.612 138.429 118.612H149.377ZM156.281 112.13C157.009 112.13 157.247 112.354 157.247 113.068V118.948C157.247 119.662 157.009 119.886 156.281 119.886H152.501C151.773 119.886 151.535 119.662 151.535 118.948V113.068C151.535 112.354 151.773 112.13 152.501 112.13H156.281ZM152.809 113.012C152.613 113.012 152.543 113.082 152.543 113.264V118.752C152.543 118.934 152.613 119.004 152.809 119.004H155.973C156.169 119.004 156.239 118.934 156.239 118.752V113.264C156.239 113.082 156.169 113.012 155.973 113.012H152.809ZM160.775 111.164C161.027 111.164 161.279 111.29 161.279 111.584V122.728C161.279 123.022 161.027 123.148 160.775 123.148C160.523 123.148 160.271 123.022 160.271 122.728V117.982H158.311C158.059 117.982 157.961 117.786 157.961 117.548C157.961 117.31 158.059 117.1 158.311 117.1H160.271V114.916H158.311C158.059 114.916 157.961 114.706 157.961 114.468C157.961 114.23 158.059 114.034 158.311 114.034H160.271V111.584C160.271 111.29 160.523 111.164 160.775 111.164ZM164.824 120.796C165.188 120.852 165.384 121.118 165.258 121.496L164.572 123.778C164.488 124.058 164.278 124.156 164.04 124.114C163.774 124.072 163.676 123.904 163.718 123.638L164.096 121.272C164.152 120.88 164.474 120.74 164.824 120.796ZM174.014 111.808C176.156 111.808 177.178 113.208 177.178 114.986C177.178 116.75 176.156 118.15 174.014 118.15C171.872 118.15 170.85 116.75 170.85 114.986C170.85 113.208 171.872 111.808 174.014 111.808ZM174.014 112.69C172.46 112.69 171.844 113.754 171.844 114.986C171.844 116.204 172.46 117.268 174.014 117.268C175.568 117.268 176.184 116.204 176.184 114.986C176.184 113.754 175.568 112.69 174.014 112.69ZM180.174 111.164C180.426 111.164 180.678 111.29 180.678 111.584V120.124C180.678 120.418 180.426 120.544 180.174 120.544C179.908 120.544 179.656 120.418 179.656 120.124V111.584C179.656 111.29 179.908 111.164 180.174 111.164ZM173.258 119.452C173.524 119.452 173.776 119.578 173.776 119.872V122.616C173.776 122.798 173.846 122.868 174.042 122.868H180.678C180.93 122.868 181.042 123.078 181.042 123.316C181.042 123.554 180.93 123.764 180.678 123.764H173.706C172.978 123.764 172.74 123.54 172.74 122.826V119.872C172.74 119.578 172.992 119.452 173.258 119.452ZM186.21 111.668C186.476 111.668 186.728 111.794 186.728 112.088V113.516C186.728 114.482 186.868 115.042 187.582 115.742C188.142 116.288 188.604 116.694 189.066 117.1C189.262 117.268 189.248 117.548 189.094 117.73C188.926 117.926 188.66 117.982 188.436 117.8C188.058 117.478 187.596 117.072 187.148 116.638C186.518 116.036 186.294 115.686 186.238 115.406H186.224C186.154 115.714 185.958 116.036 185.3 116.68C184.726 117.226 184.292 117.59 183.774 118.038C183.564 118.206 183.284 118.15 183.116 117.954C182.962 117.772 182.948 117.478 183.144 117.31C183.676 116.862 184.292 116.316 184.866 115.756C185.566 115.07 185.706 114.496 185.706 113.544V112.088C185.706 111.794 185.958 111.668 186.21 111.668ZM193.336 111.164C193.588 111.164 193.826 111.29 193.826 111.57V118.472C193.826 118.752 193.588 118.864 193.336 118.864C193.098 118.864 192.86 118.752 192.86 118.472V115.252H190.998V117.884C190.998 118.164 190.76 118.276 190.508 118.276C190.27 118.276 190.032 118.164 190.032 117.884V111.64C190.032 111.36 190.27 111.234 190.508 111.234C190.76 111.234 190.998 111.36 190.998 111.64V114.37H192.86V111.57C192.86 111.29 193.098 111.164 193.336 111.164ZM189.682 118.99C192.314 118.99 193.812 119.886 193.812 121.552C193.812 123.218 192.314 124.114 189.682 124.114C187.05 124.114 185.552 123.218 185.552 121.552C185.552 119.886 187.05 118.99 189.682 118.99ZM189.682 119.83C187.568 119.83 186.574 120.488 186.574 121.552C186.574 122.616 187.568 123.274 189.682 123.274C191.796 123.274 192.79 122.616 192.79 121.552C192.79 120.488 191.796 119.83 189.682 119.83ZM200.058 111.906C202.256 111.906 203.362 113.208 203.362 114.888C203.362 116.554 202.256 117.856 200.058 117.856C197.86 117.856 196.754 116.554 196.754 114.888C196.754 113.208 197.86 111.906 200.058 111.906ZM200.058 112.788C198.49 112.788 197.748 113.726 197.748 114.888C197.748 116.05 198.49 116.988 200.058 116.988C201.626 116.988 202.368 116.05 202.368 114.888C202.368 113.726 201.626 112.788 200.058 112.788ZM204.104 119.718C204.328 119.69 204.468 119.858 204.496 120.096C204.51 120.348 204.398 120.572 204.188 120.586C201.584 120.81 199.12 120.894 196.32 120.894C196.068 120.894 195.956 120.698 195.956 120.446C195.956 120.208 196.068 119.998 196.32 119.998C198.882 119.998 201.276 119.97 204.104 119.718ZM205.91 111.164C206.162 111.164 206.414 111.29 206.414 111.584V122.728C206.414 123.022 206.162 123.148 205.91 123.148C205.644 123.148 205.406 123.022 205.406 122.728V111.584C205.406 111.29 205.644 111.164 205.91 111.164ZM221.872 111.542C222.096 111.542 222.208 111.724 222.208 111.962C222.208 112.2 222.096 112.396 221.872 112.396H218.372V112.704C218.372 113.362 218.652 113.684 219.702 114.09C220.668 114.454 221.55 114.776 222.348 115.056C222.614 115.14 222.67 115.392 222.586 115.616C222.502 115.84 222.306 115.98 222.026 115.882C221.256 115.63 220.402 115.308 219.464 114.944C218.33 114.524 217.98 114.202 217.868 113.852H217.854C217.756 114.202 217.392 114.538 216.258 114.958C215.306 115.322 214.452 115.644 213.696 115.896C213.416 115.994 213.206 115.854 213.122 115.63C213.038 115.392 213.094 115.14 213.36 115.056C214.158 114.776 215.04 114.454 216.006 114.09C217.056 113.684 217.336 113.362 217.336 112.704V112.396H213.836C213.612 112.396 213.5 112.2 213.5 111.962C213.5 111.724 213.612 111.542 213.836 111.542H221.872ZM223.342 116.764C223.58 116.764 223.692 116.96 223.692 117.198C223.692 117.436 223.58 117.632 223.342 117.632H212.366C212.128 117.632 212.016 117.436 212.016 117.198C212.016 116.96 212.128 116.764 212.366 116.764H223.342ZM221.046 118.948C221.774 118.948 222.012 119.172 222.012 119.886V120.922C222.012 121.636 221.774 121.86 221.046 121.86H214.9C214.746 121.86 214.676 121.916 214.676 122.084V122.952C214.676 123.106 214.746 123.162 214.9 123.162H222.026C222.25 123.162 222.348 123.358 222.348 123.568C222.348 123.792 222.25 123.988 222.026 123.988H214.648C213.92 123.988 213.682 123.764 213.682 123.05V122C213.682 121.286 213.92 121.062 214.648 121.062H220.794C220.962 121.062 221.032 121.006 221.032 120.852V119.984C221.032 119.83 220.962 119.76 220.794 119.76H213.99C213.766 119.76 213.654 119.578 213.654 119.354C213.654 119.144 213.766 118.948 213.99 118.948H221.046ZM234.727 111.164C234.979 111.164 235.231 111.29 235.231 111.584V122.728C235.231 123.022 234.979 123.148 234.727 123.148C234.461 123.148 234.223 123.022 234.223 122.728V116.442H230.765C230.289 117.618 229.071 118.5 226.061 120.362C225.851 120.488 225.585 120.404 225.445 120.194C225.305 119.984 225.305 119.676 225.529 119.536C229.589 117.058 230.023 116.582 230.023 114.608V113.306C230.023 113.124 229.953 113.054 229.757 113.054H225.851C225.599 113.054 225.487 112.844 225.487 112.606C225.487 112.368 225.599 112.158 225.851 112.158H230.065C230.793 112.158 231.031 112.382 231.031 113.096V114.65C231.031 114.986 231.017 115.28 230.975 115.56H234.223V111.584C234.223 111.29 234.461 111.164 234.727 111.164ZM246.545 119.62C247.273 119.62 247.511 119.844 247.511 120.558V122.98C247.511 123.694 247.273 123.918 246.545 123.918H240.133C239.405 123.918 239.167 123.694 239.167 122.98V120.558C239.167 119.844 239.405 119.62 240.133 119.62H242.835V118.066H237.851C237.613 118.066 237.501 117.87 237.501 117.632C237.501 117.394 237.613 117.198 237.851 117.198H248.827C249.065 117.198 249.177 117.394 249.177 117.632C249.177 117.87 249.065 118.066 248.827 118.066H243.843V119.62H246.545ZM243.339 111.458C245.985 111.458 247.483 112.214 247.483 113.782C247.483 115.35 245.985 116.106 243.339 116.106C240.693 116.106 239.195 115.35 239.195 113.782C239.195 112.214 240.693 111.458 243.339 111.458ZM240.441 120.474C240.245 120.474 240.175 120.544 240.175 120.726V122.812C240.175 122.994 240.245 123.064 240.441 123.064H246.237C246.433 123.064 246.503 122.994 246.503 122.812V120.726C246.503 120.544 246.433 120.474 246.237 120.474H240.441ZM243.339 112.298C241.211 112.298 240.217 112.816 240.217 113.782C240.217 114.748 241.211 115.266 243.339 115.266C245.467 115.266 246.461 114.748 246.461 113.782C246.461 112.816 245.467 112.298 243.339 112.298ZM256.081 111.318C258.727 111.318 260.225 112.018 260.225 113.502C260.225 114.972 258.727 115.672 256.081 115.672C253.435 115.672 251.937 114.972 251.937 113.502C251.937 112.018 253.435 111.318 256.081 111.318ZM256.081 112.158C253.953 112.158 252.959 112.62 252.959 113.502C252.959 114.37 253.953 114.846 256.081 114.846C258.209 114.846 259.203 114.37 259.203 113.502C259.203 112.62 258.209 112.158 256.081 112.158ZM261.569 116.764C261.807 116.764 261.919 116.96 261.919 117.198C261.919 117.436 261.807 117.632 261.569 117.632H250.593C250.355 117.632 250.243 117.436 250.243 117.198C250.243 116.96 250.355 116.764 250.593 116.764H261.569ZM259.273 118.948C260.001 118.948 260.239 119.172 260.239 119.886V120.922C260.239 121.636 260.001 121.86 259.273 121.86H253.127C252.973 121.86 252.903 121.916 252.903 122.084V122.952C252.903 123.106 252.973 123.162 253.127 123.162H260.253C260.477 123.162 260.575 123.358 260.575 123.568C260.575 123.792 260.477 123.988 260.253 123.988H252.875C252.147 123.988 251.909 123.764 251.909 123.05V122C251.909 121.286 252.147 121.062 252.875 121.062H259.021C259.189 121.062 259.259 121.006 259.259 120.852V119.984C259.259 119.83 259.189 119.76 259.021 119.76H252.217C251.993 119.76 251.881 119.578 251.881 119.354C251.881 119.144 251.993 118.948 252.217 118.948H259.273ZM274.017 111.864C274.269 111.864 274.381 112.06 274.381 112.298C274.381 112.536 274.269 112.746 274.017 112.746H271.469V113.25C271.469 113.992 271.651 114.328 272.337 114.776C273.065 115.266 273.653 115.602 274.227 115.952C274.493 116.092 274.535 116.358 274.395 116.582C274.283 116.778 274.045 116.876 273.793 116.736C273.219 116.414 272.729 116.106 272.029 115.658C271.259 115.168 271.049 114.916 270.979 114.622H270.965C270.909 114.93 270.671 115.21 269.901 115.7C269.201 116.148 268.613 116.512 267.927 116.904C267.689 117.03 267.423 116.918 267.311 116.722C267.185 116.512 267.213 116.246 267.465 116.092C268.221 115.672 268.851 115.28 269.593 114.804C270.279 114.356 270.447 114.02 270.447 113.264V112.746H267.815C267.577 112.746 267.465 112.536 267.465 112.298C267.465 112.06 267.577 111.864 267.815 111.864H274.017ZM276.621 111.164C276.873 111.164 277.125 111.29 277.125 111.584V122.728C277.125 123.022 276.873 123.148 276.621 123.148C276.355 123.148 276.117 123.022 276.117 122.728V120.754H273.541C273.317 120.754 273.205 120.558 273.205 120.32C273.205 120.082 273.317 119.886 273.541 119.886H276.117V111.584C276.117 111.29 276.355 111.164 276.621 111.164ZM274.815 117.604C275.039 117.59 275.179 117.744 275.207 117.982C275.221 118.234 275.109 118.444 274.899 118.458C273.667 118.57 272.477 118.64 271.259 118.696V122.588C271.259 122.882 271.007 123.008 270.755 123.008C270.503 123.008 270.251 122.882 270.251 122.588V118.724C269.201 118.752 268.151 118.766 267.031 118.766C266.779 118.766 266.667 118.57 266.667 118.332C266.667 118.094 266.779 117.898 267.031 117.898C269.593 117.898 271.987 117.856 274.815 117.604ZM285.065 111.682C287.739 111.682 289.251 112.914 289.251 114.93C289.251 116.946 287.739 118.178 285.065 118.178C282.391 118.178 280.879 116.946 280.879 114.93C280.879 112.914 282.391 111.682 285.065 111.682ZM285.065 112.55C282.923 112.55 281.901 113.558 281.901 114.93C281.901 116.288 282.923 117.296 285.065 117.296C287.207 117.296 288.229 116.288 288.229 114.93C288.229 113.558 287.207 112.55 285.065 112.55ZM282.839 118.5C283.119 118.5 283.357 118.626 283.357 118.92V120.978H286.773V118.92C286.773 118.626 287.011 118.5 287.277 118.5C287.543 118.5 287.795 118.626 287.795 118.92V120.978H290.553C290.791 120.978 290.903 121.174 290.903 121.412C290.903 121.65 290.791 121.846 290.553 121.846H279.577C279.339 121.846 279.227 121.65 279.227 121.412C279.227 121.174 279.339 120.978 279.577 120.978H282.335V118.92C282.335 118.626 282.587 118.5 282.839 118.5ZM293.048 120.782C293.51 120.782 293.846 121.132 293.846 121.58C293.846 122.014 293.51 122.364 293.048 122.364C292.6 122.364 292.25 122.014 292.25 121.58C292.25 121.132 292.6 120.782 293.048 120.782Z" fill="#808983"/>
</g>
<defs>
<filter id="filter0_d_2249_24610" x="0" y="0" width="365" height="182" filterUnits="userSpaceOnUse" color-interpolation-filters="sRGB">
<feFlood flood-opacity="0" result="BackgroundImageFix"/>
<feColorMatrix in="SourceAlpha" type="matrix" values="0 0 0 0 0 0 0 0 0 0 0 0 0 0 0 0 0 0 127 0" result="hardAlpha"/>
<feOffset dy="4"/>
<feGaussianBlur stdDeviation="10"/>
<feComposite in2="hardAlpha" operator="out"/>
<feColorMatrix type="matrix" values="0 0 0 0 0 0 0 0 0 0 0 0 0 0 0 0 0 0 0.08 0"/>
<feBlend mode="normal" in2="BackgroundImageFix" result="effect1_dropShadow_2249_24610"/>
<feBlend mode="normal" in="SourceGraphic" in2="effect1_dropShadow_2249_24610" result="shape"/>
</filter>
</defs>
</svg>
