<svg viewBox="0 0 325 142" fill="none" xmlns="http://www.w3.org/2000/svg">
<rect width="325" height="142" rx="28" fill="#FFFDFA"/>
<path d="M34.9393 42.305C35.2243 42.305 35.4943 42.44 35.4943 42.755V49.475C35.4943 49.685 35.5693 49.76 35.7793 49.76C37.9393 49.76 39.7243 49.64 41.5093 49.4C41.7493 49.37 41.9143 49.535 41.9593 49.805C41.9893 50.075 41.8843 50.33 41.6443 50.36C40.0843 50.57 38.2243 50.705 35.4193 50.705C34.6393 50.705 34.3843 50.465 34.3843 49.7V42.755C34.3843 42.44 34.6543 42.305 34.9393 42.305ZM43.6543 41.39C43.9393 41.39 44.2093 41.525 44.2093 41.84V46.025H46.1143C46.3843 46.025 46.5043 46.25 46.5043 46.505C46.5043 46.775 46.3843 47 46.1143 47H44.2093V53.78C44.2093 54.095 43.9393 54.23 43.6543 54.23C43.3843 54.23 43.1143 54.095 43.1143 53.78V41.84C43.1143 41.525 43.3843 41.39 43.6543 41.39ZM49.7466 41.765C50.0316 41.765 50.2866 41.9 50.2866 42.215V45.485C50.2866 45.68 50.3766 45.755 50.5716 45.755H57.9516C58.2066 45.755 58.3266 45.965 58.3266 46.22C58.3266 46.475 58.2066 46.7 57.9516 46.7H50.2266C49.4466 46.7 49.1916 46.46 49.1916 45.695V42.215C49.1916 41.9 49.4466 41.765 49.7466 41.765ZM59.4966 48.53C59.7666 48.53 59.8866 48.74 59.8866 49.01C59.8866 49.265 59.7666 49.475 59.4966 49.475H47.7666C47.4966 49.475 47.3766 49.265 47.3766 49.01C47.3766 48.74 47.4966 48.53 47.7666 48.53H59.4966ZM49.7166 50.84C50.0016 50.84 50.2566 50.975 50.2566 51.29V53.735C50.2566 53.945 50.3466 54.02 50.5416 54.02H57.9816C58.2366 54.02 58.3566 54.23 58.3566 54.485C58.3566 54.74 58.2366 54.95 57.9816 54.95H50.1966C49.4166 54.95 49.1616 54.71 49.1616 53.945V51.29C49.1616 50.975 49.4166 50.84 49.7166 50.84ZM75.459 41.39C75.729 41.39 75.999 41.525 75.999 41.84V53.78C75.999 54.095 75.729 54.23 75.459 54.23C75.174 54.23 74.919 54.095 74.919 53.78V47.045H72.009C71.889 49.595 70.764 50.96 68.664 50.96C66.444 50.96 65.289 49.43 65.289 46.58C65.289 43.73 66.444 42.2 68.664 42.2C70.749 42.2 71.889 43.565 72.009 46.1H74.919V41.84C74.919 41.525 75.174 41.39 75.459 41.39ZM68.664 43.175C67.059 43.175 66.369 44.405 66.369 46.58C66.369 48.755 67.059 49.985 68.664 49.985C70.269 49.985 70.959 48.755 70.959 46.58C70.959 44.405 70.269 43.175 68.664 43.175ZM86.2763 42.305C86.5463 42.305 86.6663 42.515 86.6663 42.77C86.6663 43.04 86.5463 43.25 86.2763 43.25H84.6263C84.4163 43.25 84.3413 43.325 84.3413 43.52V47.78C84.3413 47.975 84.4163 48.05 84.6263 48.05C85.3463 48.05 86.2763 48.005 86.8763 47.885C87.1013 47.84 87.2663 48.005 87.2963 48.26C87.3413 48.53 87.2363 48.77 86.9963 48.815C86.2163 48.95 85.2863 48.995 84.3113 48.995C83.5313 48.995 83.2763 48.755 83.2763 47.99V43.31C83.2763 42.545 83.5313 42.305 84.3113 42.305H86.2763ZM82.0313 42.305C82.3013 42.305 82.4213 42.515 82.4213 42.77C82.4213 43.04 82.3013 43.25 82.0313 43.25H80.4413C80.2313 43.25 80.1563 43.325 80.1563 43.52V47.78C80.1563 47.975 80.2313 48.05 80.4413 48.05C81.0863 48.05 81.7763 48.005 82.3613 47.9C82.5863 47.855 82.7513 48.02 82.7813 48.275C82.8263 48.545 82.7213 48.785 82.4813 48.83C81.7313 48.95 81.0113 48.995 80.1263 48.995C79.3463 48.995 79.0913 48.755 79.0913 47.99V43.31C79.0913 42.545 79.3463 42.305 80.1263 42.305H82.0313ZM89.2913 41.39C89.5763 41.39 89.8313 41.525 89.8313 41.84V51.005C89.8313 51.305 89.5763 51.44 89.2913 51.44C89.0213 51.44 88.7663 51.305 88.7663 51.005V45.98H86.8313C86.5613 45.98 86.4413 45.77 86.4413 45.5C86.4413 45.245 86.5613 45.035 86.8313 45.035H88.7663V41.84C88.7663 41.525 89.0213 41.39 89.2913 41.39ZM81.7013 50.36C81.9863 50.36 82.2563 50.495 82.2563 50.81V53.66C82.2563 53.855 82.3313 53.93 82.5413 53.93H89.8313C90.1013 53.93 90.2213 54.155 90.2213 54.41C90.2213 54.665 90.1013 54.89 89.8313 54.89H82.1813C81.4013 54.89 81.1463 54.65 81.1463 53.885V50.81C81.1463 50.495 81.4163 50.36 81.7013 50.36ZM100.574 41.465C100.859 41.465 101.129 41.6 101.129 41.915V43.25H104.024C104.294 43.25 104.414 43.475 104.414 43.73C104.414 43.985 104.294 44.21 104.024 44.21H101.129V44.84C101.129 45.755 101.384 46.13 102.179 46.67C102.899 47.15 103.574 47.6 104.144 47.93C104.414 48.095 104.414 48.395 104.279 48.605C104.144 48.815 103.904 48.92 103.634 48.755C103.154 48.485 102.479 48.035 101.834 47.615C100.994 47.06 100.694 46.745 100.604 46.43H100.589C100.514 46.76 100.154 47.135 99.3137 47.675C98.6087 48.125 97.9037 48.56 97.2587 48.935C96.9887 49.1 96.7487 48.98 96.6137 48.77C96.4787 48.56 96.4637 48.26 96.7487 48.095C97.4537 47.675 98.2037 47.21 98.9687 46.7C99.7487 46.19 100.034 45.785 100.034 44.855V44.21H97.0487C96.7787 44.21 96.6587 43.985 96.6587 43.73C96.6587 43.475 96.7787 43.25 97.0487 43.25H100.034V41.915C100.034 41.6 100.304 41.465 100.574 41.465ZM106.694 41.39C106.964 41.39 107.234 41.525 107.234 41.84V53.78C107.234 54.095 106.964 54.23 106.694 54.23C106.409 54.23 106.154 54.095 106.154 53.78V41.84C106.154 41.525 106.409 41.39 106.694 41.39ZM100.574 48.635C100.859 48.635 101.114 48.77 101.114 49.085V50.87C102.269 50.825 103.469 50.75 104.759 50.63C104.999 50.6 105.149 50.78 105.179 51.035C105.194 51.305 105.074 51.53 104.849 51.545C102.059 51.785 99.4187 51.875 96.4187 51.875C96.1487 51.875 96.0287 51.665 96.0287 51.41C96.0287 51.155 96.1487 50.93 96.4187 50.93C97.6337 50.93 98.8187 50.93 100.034 50.9V49.085C100.034 48.77 100.304 48.635 100.574 48.635ZM120.046 41.945C120.286 41.945 120.406 42.155 120.406 42.41C120.406 42.665 120.286 42.875 120.046 42.875H116.296V43.22C116.296 43.94 116.641 44.42 117.751 44.9C118.816 45.335 119.701 45.68 120.556 45.995C120.841 46.085 120.901 46.385 120.811 46.61C120.721 46.85 120.511 47 120.211 46.895C119.386 46.595 118.486 46.25 117.496 45.83C116.266 45.335 115.876 44.9 115.756 44.525H115.741C115.636 44.915 115.231 45.35 114.001 45.845C112.996 46.265 112.111 46.61 111.286 46.91C110.986 47.015 110.761 46.865 110.671 46.625C110.581 46.4 110.641 46.085 110.926 45.995C111.781 45.68 112.666 45.335 113.731 44.9C114.841 44.42 115.186 43.94 115.186 43.22V42.875H111.436C111.196 42.875 111.076 42.665 111.076 42.41C111.076 42.155 111.196 41.945 111.436 41.945H120.046ZM115.741 46.295C116.026 46.295 116.281 46.43 116.281 46.745V48.23H121.621C121.876 48.23 121.996 48.44 121.996 48.695C121.996 48.95 121.876 49.16 121.621 49.16H109.861C109.606 49.16 109.486 48.95 109.486 48.695C109.486 48.44 109.606 48.23 109.861 48.23H115.201V46.745C115.201 46.43 115.471 46.295 115.741 46.295ZM115.741 50.345C118.591 50.345 120.211 51.155 120.211 52.835C120.211 54.515 118.591 55.325 115.741 55.325C112.891 55.325 111.271 54.515 111.271 52.835C111.271 51.155 112.891 50.345 115.741 50.345ZM115.741 51.23C113.446 51.23 112.366 51.8 112.366 52.835C112.366 53.87 113.446 54.44 115.741 54.44C118.036 54.44 119.116 53.87 119.116 52.835C119.116 51.8 118.036 51.23 115.741 51.23ZM136.548 41.885C137.328 41.885 137.583 42.125 137.583 42.89V45.635C137.583 46.4 137.328 46.64 136.548 46.64H133.683V48.41H139.023C139.278 48.41 139.398 48.62 139.398 48.875C139.398 49.13 139.278 49.34 139.023 49.34H127.263C127.008 49.34 126.888 49.13 126.888 48.875C126.888 48.62 127.008 48.41 127.263 48.41H132.603V46.64H129.738C128.958 46.64 128.703 46.4 128.703 45.635V42.89C128.703 42.125 128.958 41.885 129.738 41.885H136.548ZM130.068 42.8C129.858 42.8 129.783 42.875 129.783 43.07V45.455C129.783 45.65 129.858 45.725 130.068 45.725H136.218C136.428 45.725 136.503 45.65 136.503 45.455V43.07C136.503 42.875 136.428 42.8 136.218 42.8H130.068ZM136.578 50.75C137.358 50.75 137.613 50.99 137.613 51.755V54.83C137.613 55.145 137.358 55.28 137.073 55.28C136.788 55.28 136.533 55.145 136.533 54.83V51.95C136.533 51.74 136.443 51.68 136.248 51.68H128.853C128.613 51.68 128.493 51.47 128.493 51.215C128.493 50.96 128.613 50.75 128.853 50.75H136.578ZM151.296 42.35C151.536 42.35 151.656 42.56 151.656 42.815C151.656 43.07 151.536 43.28 151.296 43.28H149.586V47.69H151.371C151.626 47.69 151.746 47.9 151.746 48.155C151.746 48.41 151.626 48.62 151.371 48.62H149.361V51.905H152.676C152.931 51.905 153.051 52.115 153.051 52.37C153.051 52.625 152.931 52.835 152.676 52.835H140.916C140.661 52.835 140.541 52.625 140.541 52.37C140.541 52.115 140.661 51.905 140.916 51.905H144.231V48.62H142.221C141.966 48.62 141.846 48.41 141.846 48.155C141.846 47.9 141.966 47.69 142.221 47.69H144.006V43.28H142.296C142.056 43.28 141.936 43.07 141.936 42.815C141.936 42.56 142.056 42.35 142.296 42.35H151.296ZM145.071 47.69H148.521V43.28H145.071V47.69ZM145.281 51.905H148.311V48.62H145.281V51.905ZM163.793 41.675C164.573 41.675 164.828 41.915 164.828 42.68V43.625C164.828 44.39 164.573 44.63 163.793 44.63H157.358C157.193 44.63 157.118 44.705 157.118 44.87V45.665C157.118 45.83 157.193 45.89 157.358 45.89H164.828C165.068 45.89 165.188 46.1 165.188 46.325C165.188 46.565 165.068 46.76 164.828 46.76H157.088C156.308 46.76 156.053 46.52 156.053 45.755V44.795C156.053 44.03 156.308 43.79 157.088 43.79H163.523C163.703 43.79 163.778 43.73 163.778 43.565V42.77C163.778 42.605 163.703 42.545 163.523 42.545H156.383C156.143 42.545 156.023 42.335 156.023 42.095C156.023 41.87 156.143 41.675 156.383 41.675H163.793ZM166.343 47.945C166.583 47.945 166.703 48.155 166.703 48.395C166.703 48.65 166.583 48.845 166.343 48.845H154.553C154.313 48.845 154.193 48.65 154.193 48.395C154.193 48.155 154.313 47.945 154.553 47.945H166.343ZM163.868 50.03C164.648 50.03 164.903 50.27 164.903 51.035V51.995C164.903 52.76 164.648 53 163.868 53H157.283C157.103 53 157.028 53.06 157.028 53.24V54.02C157.028 54.2 157.103 54.26 157.283 54.26H164.918C165.158 54.26 165.263 54.47 165.263 54.695C165.263 54.92 165.158 55.13 164.918 55.13H157.013C156.233 55.13 155.978 54.905 155.978 54.14V53.165C155.978 52.4 156.233 52.16 157.013 52.16H163.613C163.778 52.16 163.853 52.1 163.853 51.92V51.14C163.853 50.975 163.778 50.9 163.613 50.9H156.308C156.068 50.9 155.948 50.705 155.948 50.465C155.948 50.24 156.068 50.03 156.308 50.03H163.868ZM177.13 42.455C177.91 42.455 178.165 42.695 178.165 43.46V45.125C178.165 47.63 177.415 48.38 172.78 51.245C172.555 51.38 172.27 51.29 172.12 51.065C171.97 50.84 171.97 50.51 172.21 50.36C176.56 47.705 177.085 47.15 177.085 45.08V43.685C177.085 43.49 177.01 43.415 176.8 43.415H172.555C172.285 43.415 172.165 43.19 172.165 42.935C172.165 42.68 172.285 42.455 172.555 42.455H177.13ZM181.525 41.39C181.81 41.39 182.08 41.525 182.08 41.84V46.025H183.985C184.255 46.025 184.375 46.25 184.375 46.505C184.375 46.775 184.255 47 183.985 47H182.08V53.78C182.08 54.095 181.81 54.23 181.525 54.23C181.255 54.23 180.985 54.095 180.985 53.78V41.84C180.985 41.525 181.255 41.39 181.525 41.39ZM193.018 42.455C193.273 42.455 193.393 42.665 193.393 42.935C193.393 43.19 193.273 43.415 193.018 43.415H190.228V45.14C190.228 46.475 190.498 47.15 191.443 48.125C192.118 48.8 192.808 49.46 193.348 49.925C193.573 50.12 193.513 50.435 193.348 50.615C193.153 50.795 192.883 50.87 192.658 50.66C192.163 50.24 191.578 49.67 190.903 48.995C189.958 48.05 189.763 47.66 189.688 47.33H189.673C189.598 47.675 189.388 48.065 188.458 49.01C187.783 49.685 187.183 50.255 186.493 50.855C186.253 51.065 185.968 50.975 185.803 50.795C185.623 50.585 185.578 50.285 185.803 50.105C186.553 49.445 187.228 48.8 187.903 48.125C188.848 47.15 189.118 46.475 189.118 45.14V43.415H186.268C186.013 43.415 185.893 43.19 185.893 42.935C185.893 42.665 186.013 42.455 186.268 42.455H193.018ZM195.823 41.39C196.108 41.39 196.378 41.525 196.378 41.84V53.78C196.378 54.095 196.108 54.23 195.823 54.23C195.553 54.23 195.283 54.095 195.283 53.78V41.84C195.283 41.525 195.553 41.39 195.823 41.39ZM208.59 42.38C209.37 42.38 209.625 42.62 209.625 43.385V44.765C209.625 46.595 209.43 48.005 209.1 49.505C209.04 49.775 208.77 49.895 208.455 49.85C208.17 49.79 207.975 49.595 208.035 49.34C208.35 47.81 208.545 46.445 208.545 44.72V43.625C208.545 43.415 208.455 43.34 208.26 43.34H200.88C200.625 43.34 200.505 43.13 200.505 42.86C200.505 42.59 200.625 42.38 200.88 42.38H208.59ZM204.24 46.715C204.525 46.715 204.78 46.85 204.78 47.165V51.89H211.02C211.29 51.89 211.41 52.1 211.41 52.37C211.41 52.625 211.29 52.835 211.02 52.835H199.29C199.02 52.835 198.9 52.625 198.9 52.37C198.9 52.1 199.02 51.89 199.29 51.89H203.7V47.165C203.7 46.85 203.955 46.715 204.24 46.715ZM220.382 41.69C220.667 41.69 220.937 41.825 220.937 42.14V43.505C220.937 44.495 221.237 45.065 221.987 45.635C222.737 46.19 223.322 46.595 223.967 47.015C224.222 47.18 224.222 47.48 224.072 47.705C223.937 47.9 223.667 48.005 223.412 47.84C222.887 47.495 222.287 47.075 221.567 46.55C220.772 45.965 220.472 45.575 220.397 45.275H220.382C220.322 45.59 220.007 45.995 219.212 46.58C218.492 47.12 217.787 47.6 217.097 48.035C216.857 48.2 216.572 48.095 216.437 47.885C216.302 47.66 216.302 47.36 216.542 47.195C217.337 46.685 218.027 46.205 218.777 45.65C219.527 45.08 219.827 44.51 219.827 43.52V42.14C219.827 41.825 220.097 41.69 220.382 41.69ZM226.232 41.39C226.517 41.39 226.787 41.525 226.787 41.84V44.315H228.692C228.962 44.315 229.082 44.54 229.082 44.81C229.082 45.065 228.962 45.29 228.692 45.29H226.787V47.96C226.787 48.275 226.517 48.41 226.232 48.41C225.962 48.41 225.692 48.275 225.692 47.96V41.84C225.692 41.525 225.962 41.39 226.232 41.39ZM225.752 49.16C226.532 49.16 226.787 49.4 226.787 50.165V51.545C226.787 52.31 226.532 52.55 225.752 52.55H219.812C219.617 52.55 219.527 52.61 219.527 52.82V53.885C219.527 54.095 219.617 54.17 219.812 54.17H226.787C227.027 54.17 227.147 54.38 227.147 54.62C227.147 54.86 227.027 55.07 226.787 55.07H219.497C218.717 55.07 218.462 54.83 218.462 54.065V52.67C218.462 51.905 218.717 51.665 219.497 51.665H225.437C225.647 51.665 225.722 51.605 225.722 51.395V50.33C225.722 50.135 225.647 50.06 225.437 50.06H218.792C218.552 50.06 218.432 49.85 218.432 49.61C218.432 49.37 218.552 49.16 218.792 49.16H225.752ZM233.66 42.2C235.895 42.2 237.05 43.73 237.05 46.58C237.05 49.43 235.895 50.96 233.66 50.96C231.425 50.96 230.255 49.43 230.255 46.58C230.255 43.73 231.425 42.2 233.66 42.2ZM233.66 43.175C232.04 43.175 231.335 44.405 231.335 46.58C231.335 48.755 232.04 49.985 233.66 49.985C235.28 49.985 235.985 48.755 235.985 46.58C235.985 44.405 235.28 43.175 233.66 43.175ZM239.885 41.39C240.17 41.39 240.44 41.525 240.44 41.84V46.025H242.345C242.615 46.025 242.735 46.25 242.735 46.505C242.735 46.775 242.615 47 242.345 47H240.44V53.78C240.44 54.095 240.17 54.23 239.885 54.23C239.615 54.23 239.345 54.095 239.345 53.78V41.84C239.345 41.525 239.615 41.39 239.885 41.39ZM249.142 42.455C249.922 42.455 250.177 42.695 250.177 43.46V45.125C250.177 47.63 249.427 48.38 244.792 51.245C244.567 51.38 244.282 51.29 244.132 51.065C243.982 50.84 243.982 50.51 244.222 50.36C248.572 47.705 249.097 47.15 249.097 45.08V43.685C249.097 43.49 249.022 43.415 248.812 43.415H244.567C244.297 43.415 244.177 43.19 244.177 42.935C244.177 42.68 244.297 42.455 244.567 42.455H249.142ZM253.537 41.39C253.822 41.39 254.092 41.525 254.092 41.84V46.025H255.997C256.267 46.025 256.387 46.25 256.387 46.505C256.387 46.775 256.267 47 255.997 47H254.092V53.78C254.092 54.095 253.822 54.23 253.537 54.23C253.267 54.23 252.997 54.095 252.997 53.78V41.84C252.997 41.525 253.267 41.39 253.537 41.39ZM258.474 42.305C258.759 42.305 259.029 42.44 259.029 42.755V49.475C259.029 49.685 259.104 49.76 259.314 49.76C261.474 49.76 263.259 49.64 265.044 49.4C265.284 49.37 265.449 49.535 265.494 49.805C265.524 50.075 265.419 50.33 265.179 50.36C263.619 50.57 261.759 50.705 258.954 50.705C258.174 50.705 257.919 50.465 257.919 49.7V42.755C257.919 42.44 258.189 42.305 258.474 42.305ZM267.189 41.39C267.474 41.39 267.744 41.525 267.744 41.84V46.025H269.649C269.919 46.025 270.039 46.25 270.039 46.505C270.039 46.775 269.919 47 269.649 47H267.744V53.78C267.744 54.095 267.474 54.23 267.189 54.23C266.919 54.23 266.649 54.095 266.649 53.78V41.84C266.649 41.525 266.919 41.39 267.189 41.39ZM277.167 41.945C280.032 41.945 281.652 43.265 281.652 45.425C281.652 47.585 280.032 48.905 277.167 48.905C274.302 48.905 272.682 47.585 272.682 45.425C272.682 43.265 274.302 41.945 277.167 41.945ZM277.167 42.875C274.872 42.875 273.777 43.955 273.777 45.425C273.777 46.88 274.872 47.96 277.167 47.96C279.462 47.96 280.557 46.88 280.557 45.425C280.557 43.955 279.462 42.875 277.167 42.875ZM274.782 49.25C275.082 49.25 275.337 49.385 275.337 49.7V51.905H278.997V49.7C278.997 49.385 279.252 49.25 279.537 49.25C279.822 49.25 280.092 49.385 280.092 49.7V51.905H283.047C283.302 51.905 283.422 52.115 283.422 52.37C283.422 52.625 283.302 52.835 283.047 52.835H271.287C271.032 52.835 270.912 52.625 270.912 52.37C270.912 52.115 271.032 51.905 271.287 51.905H274.242V49.7C274.242 49.385 274.512 49.25 274.782 49.25ZM287.819 42.11C289.799 42.11 291.014 43.175 291.014 44.81V44.975C291.014 45.98 290.489 46.67 289.454 47.6C288.224 48.71 288.089 49.115 288.089 49.865C288.089 50.135 287.834 50.285 287.579 50.285C287.294 50.285 287.039 50.15 287.039 49.85C287.039 48.83 287.219 48.29 288.479 47.165C289.574 46.19 289.919 45.695 289.919 44.975V44.855C289.919 43.805 289.154 43.1 287.834 43.1C286.829 43.1 286.154 43.475 285.584 44C285.359 44.18 285.089 44.15 284.909 43.925C284.714 43.715 284.714 43.43 284.939 43.235C285.569 42.635 286.604 42.11 287.819 42.11ZM287.564 51.725C288.044 51.725 288.404 52.1 288.404 52.565C288.404 53.03 288.044 53.39 287.564 53.39C287.099 53.39 286.724 53.03 286.724 52.565C286.724 52.1 287.099 51.725 287.564 51.725Z" fill="#07BEB8"/>
<path d="M96.8151 76.102C97.0811 76.102 97.3331 76.228 97.3331 76.522V82.626C97.3331 82.822 97.4031 82.892 97.5991 82.892C98.8031 82.892 100.413 82.794 101.477 82.626C101.687 82.598 101.841 82.752 101.883 83.004C101.911 83.256 101.813 83.494 101.589 83.522C100.749 83.662 99.0831 83.774 97.2631 83.774C96.5351 83.774 96.2971 83.55 96.2971 82.836V76.522C96.2971 76.228 96.5491 76.102 96.8151 76.102ZM106.125 75.164C106.377 75.164 106.615 75.29 106.615 75.57V86.742C106.615 87.022 106.377 87.148 106.125 87.148C105.887 87.148 105.649 87.022 105.649 86.742V80.442H103.703V86.154C103.703 86.434 103.465 86.56 103.213 86.56C102.975 86.56 102.737 86.434 102.737 86.154V75.71C102.737 75.43 102.975 75.304 103.213 75.304C103.465 75.304 103.703 75.43 103.703 75.71V79.56H105.649V75.57C105.649 75.29 105.887 75.164 106.125 75.164ZM113.729 76.158C114.457 76.158 114.695 76.382 114.695 77.096V78.65C114.695 80.988 113.995 81.688 109.669 84.362C109.459 84.488 109.193 84.404 109.053 84.194C108.913 83.984 108.913 83.676 109.137 83.536C113.197 81.058 113.687 80.54 113.687 78.608V77.306C113.687 77.124 113.617 77.054 113.421 77.054H109.459C109.207 77.054 109.095 76.844 109.095 76.606C109.095 76.368 109.207 76.158 109.459 76.158H113.729ZM117.831 75.164C118.097 75.164 118.349 75.29 118.349 75.584V79.49H120.127C120.379 79.49 120.491 79.7 120.491 79.938C120.491 80.19 120.379 80.4 120.127 80.4H118.349V86.728C118.349 87.022 118.097 87.148 117.831 87.148C117.579 87.148 117.327 87.022 117.327 86.728V75.584C117.327 75.29 117.579 75.164 117.831 75.164ZM128.613 75.444C128.879 75.444 129.131 75.57 129.131 75.864V77.138C129.131 78.062 129.411 78.594 130.111 79.126C130.811 79.644 131.357 80.022 131.959 80.414C132.197 80.568 132.197 80.848 132.057 81.058C131.931 81.24 131.679 81.338 131.441 81.184C130.951 80.862 130.391 80.47 129.719 79.98C128.977 79.434 128.697 79.07 128.627 78.79H128.613C128.557 79.084 128.263 79.462 127.521 80.008C126.849 80.512 126.191 80.96 125.547 81.366C125.323 81.52 125.057 81.422 124.931 81.226C124.805 81.016 124.805 80.736 125.029 80.582C125.771 80.106 126.415 79.658 127.115 79.14C127.815 78.608 128.095 78.076 128.095 77.152V75.864C128.095 75.57 128.347 75.444 128.613 75.444ZM134.073 75.164C134.339 75.164 134.591 75.29 134.591 75.584V77.894H136.369C136.621 77.894 136.733 78.104 136.733 78.356C136.733 78.594 136.621 78.804 136.369 78.804H134.591V81.296C134.591 81.59 134.339 81.716 134.073 81.716C133.821 81.716 133.569 81.59 133.569 81.296V75.584C133.569 75.29 133.821 75.164 134.073 75.164ZM128.837 82.416C129.593 82.416 129.803 82.612 129.803 83.354V84.614C129.803 85.342 129.593 85.552 128.837 85.552H126.989C126.793 85.552 126.723 85.622 126.723 85.804V86.812C126.723 87.008 126.793 87.078 126.989 87.078C128.123 87.078 129.159 87.036 129.775 86.952C130.013 86.924 130.125 87.092 130.153 87.316C130.167 87.54 130.083 87.722 129.859 87.764C129.341 87.834 128.235 87.904 126.751 87.904C126.009 87.904 125.785 87.68 125.785 86.966V85.706C125.785 84.964 125.995 84.768 126.751 84.768H128.599C128.795 84.768 128.865 84.698 128.865 84.502V83.494C128.865 83.312 128.795 83.242 128.599 83.242H126.093C125.855 83.242 125.757 83.046 125.757 82.836C125.757 82.612 125.855 82.416 126.093 82.416H128.837ZM133.625 82.416C134.367 82.416 134.591 82.612 134.591 83.354V86.938C134.591 87.666 134.367 87.876 133.625 87.876H131.665C130.909 87.876 130.699 87.666 130.699 86.938V83.354C130.699 82.612 130.909 82.416 131.665 82.416H133.625ZM131.889 83.242C131.693 83.242 131.623 83.298 131.623 83.494V86.798C131.623 86.98 131.693 87.05 131.889 87.05H133.401C133.583 87.05 133.667 86.98 133.667 86.798V83.494C133.667 83.298 133.583 83.242 133.401 83.242H131.889ZM145.388 75.304C145.626 75.304 145.864 75.43 145.864 75.71V86.154C145.864 86.434 145.626 86.56 145.388 86.56C145.136 86.56 144.898 86.434 144.898 86.154V80.442H143.148C143.064 82.78 142.196 83.998 140.446 83.998C138.584 83.998 137.716 82.626 137.716 80.008C137.716 77.39 138.584 76.018 140.446 76.018C142.196 76.018 143.05 77.236 143.148 79.56H144.898V75.71C144.898 75.43 145.136 75.304 145.388 75.304ZM140.446 76.928C139.172 76.928 138.682 78.02 138.682 80.008C138.682 81.996 139.172 83.088 140.446 83.088C141.72 83.088 142.196 81.996 142.196 80.008C142.196 78.02 141.72 76.928 140.446 76.928ZM147.852 75.164C148.104 75.164 148.342 75.29 148.342 75.57V86.742C148.342 87.022 148.104 87.148 147.852 87.148C147.614 87.148 147.376 87.022 147.376 86.742V75.57C147.376 75.29 147.614 75.164 147.852 75.164ZM154.266 75.822C154.532 75.822 154.784 75.948 154.784 76.256V78.58C154.784 79.812 155.05 80.442 155.932 81.38C156.548 82.038 157.15 82.612 157.682 83.102C157.892 83.27 157.836 83.564 157.668 83.746C157.514 83.9 157.234 83.97 157.038 83.774C156.548 83.34 156.044 82.836 155.428 82.22C154.546 81.296 154.336 80.918 154.28 80.61H154.266C154.196 80.932 153.986 81.31 153.104 82.234C152.488 82.85 151.956 83.382 151.326 83.956C151.102 84.152 150.822 84.068 150.668 83.9C150.5 83.704 150.472 83.438 150.668 83.256C151.34 82.64 151.97 82.038 152.586 81.38C153.468 80.442 153.748 79.812 153.748 78.58V76.256C153.748 75.948 153.986 75.822 154.266 75.822ZM160.258 75.164C160.51 75.164 160.762 75.29 160.762 75.584V86.728C160.762 87.022 160.51 87.148 160.258 87.148C159.992 87.148 159.754 87.022 159.754 86.728V79.91H157.248C157.01 79.91 156.898 79.714 156.898 79.462C156.898 79.224 157.01 79.028 157.248 79.028H159.754V75.584C159.754 75.29 159.992 75.164 160.258 75.164ZM177.858 80.358C178.096 80.358 178.208 80.554 178.208 80.792C178.208 81.03 178.096 81.226 177.858 81.226H172.874V83.284C175.212 83.396 176.542 84.25 176.542 85.706C176.542 87.274 175.03 88.142 172.37 88.142C169.71 88.142 168.198 87.274 168.198 85.706C168.198 84.25 169.514 83.396 171.866 83.284V81.226H166.882C166.644 81.226 166.532 81.03 166.532 80.792C166.532 80.554 166.644 80.358 166.882 80.358H175.03C175.268 79.448 175.394 78.482 175.394 77.474V76.844C175.394 76.662 175.324 76.592 175.128 76.592H168.436C168.198 76.592 168.086 76.396 168.086 76.144C168.086 75.906 168.198 75.71 168.436 75.71H175.436C176.164 75.71 176.402 75.934 176.402 76.648V77.404C176.402 78.454 176.248 79.532 176.024 80.358H177.858ZM172.37 84.096C170.228 84.096 169.22 84.74 169.22 85.706C169.22 86.672 170.228 87.316 172.37 87.316C174.512 87.316 175.52 86.672 175.52 85.706C175.52 84.74 174.512 84.096 172.37 84.096ZM190.586 80.568C190.838 80.568 190.95 80.764 190.95 81.016C190.95 81.254 190.838 81.45 190.586 81.45H179.638C179.386 81.45 179.274 81.254 179.274 81.016C179.274 80.764 179.386 80.568 179.638 80.568H187.744C188.01 79.602 188.136 78.58 188.136 77.516V76.844C188.136 76.662 188.066 76.592 187.87 76.592H181.178C180.94 76.592 180.828 76.396 180.828 76.144C180.828 75.906 180.94 75.71 181.178 75.71H188.178C188.906 75.71 189.144 75.934 189.144 76.648V77.446C189.144 78.58 188.962 79.714 188.724 80.568H190.586ZM188.318 83.536C189.046 83.536 189.284 83.76 189.284 84.474V87.68C189.284 87.974 189.046 88.1 188.78 88.1C188.514 88.1 188.276 87.974 188.276 87.68V84.656C188.276 84.474 188.192 84.404 188.01 84.404H181.122C180.884 84.404 180.772 84.208 180.772 83.97C180.772 83.732 180.884 83.536 181.122 83.536H188.318ZM199.072 75.92C199.31 75.92 199.422 76.116 199.422 76.354C199.422 76.606 199.31 76.802 199.072 76.802H196.538V77.796C196.538 78.762 196.804 79.35 197.518 79.924C198.218 80.47 198.876 80.96 199.31 81.268C199.548 81.45 199.562 81.716 199.408 81.912C199.282 82.094 199.03 82.206 198.778 82.024C198.442 81.8 197.798 81.31 197.14 80.806C196.412 80.218 196.104 79.826 196.034 79.532H196.02C195.95 79.84 195.642 80.246 194.9 80.834C194.256 81.352 193.584 81.842 193.038 82.22C192.8 82.388 192.548 82.276 192.408 82.094C192.268 81.898 192.254 81.618 192.506 81.45C193.178 80.974 193.822 80.498 194.522 79.938C195.236 79.364 195.502 78.776 195.502 77.824V76.802H192.884C192.646 76.802 192.534 76.606 192.534 76.354C192.534 76.116 192.646 75.92 192.884 75.92H199.072ZM201.984 75.164C202.236 75.164 202.488 75.29 202.488 75.584V82.234C202.488 82.528 202.236 82.654 201.984 82.654C201.718 82.654 201.48 82.528 201.48 82.234V79.35H199.086C198.848 79.35 198.736 79.154 198.736 78.902C198.736 78.664 198.848 78.454 199.086 78.454H201.48V75.584C201.48 75.29 201.718 75.164 201.984 75.164ZM201.522 83.368C202.25 83.368 202.488 83.592 202.488 84.306V87.652C202.488 87.946 202.236 88.072 201.97 88.072C201.718 88.072 201.466 87.946 201.466 87.652V84.502C201.466 84.32 201.396 84.25 201.2 84.25H194.592C194.354 84.25 194.242 84.054 194.242 83.816C194.242 83.564 194.354 83.368 194.592 83.368H201.522ZM210.597 75.738C213.271 75.738 214.783 77.012 214.783 79.07C214.783 81.142 213.271 82.416 210.597 82.416C207.923 82.416 206.411 81.142 206.411 79.07C206.411 77.012 207.923 75.738 210.597 75.738ZM210.597 76.606C208.455 76.606 207.433 77.656 207.433 79.07C207.433 80.484 208.455 81.534 210.597 81.534C212.739 81.534 213.761 80.484 213.761 79.07C213.761 77.656 212.739 76.606 210.597 76.606ZM216.071 84.95C216.323 84.95 216.435 85.16 216.435 85.412C216.435 85.65 216.323 85.846 216.071 85.846H205.123C204.871 85.846 204.759 85.65 204.759 85.412C204.759 85.16 204.871 84.95 205.123 84.95H216.071ZM226.489 75.92C227.217 75.92 227.455 76.144 227.455 76.858V78.678C227.455 79.392 227.217 79.616 226.489 79.616H220.483C220.287 79.616 220.217 79.686 220.217 79.882V81.352C220.217 81.534 220.287 81.604 220.483 81.604H227.441C227.679 81.604 227.791 81.8 227.791 82.038C227.791 82.276 227.679 82.486 227.441 82.486H223.857V84.964H228.813C229.065 84.964 229.177 85.16 229.177 85.412C229.177 85.65 229.065 85.846 228.813 85.846H217.865C217.613 85.846 217.501 85.65 217.501 85.412C217.501 85.16 217.613 84.964 217.865 84.964H222.835V82.486H220.175C219.447 82.486 219.209 82.262 219.209 81.548V79.714C219.209 79 219.447 78.776 220.175 78.776H226.195C226.377 78.776 226.461 78.706 226.461 78.51V77.054C226.461 76.858 226.377 76.788 226.195 76.788H219.531C219.293 76.788 219.181 76.592 219.181 76.354C219.181 76.116 219.293 75.92 219.531 75.92H226.489Z" fill="#808983"/>
<path d="M95.4179 94.996C95.6839 94.996 95.9359 95.136 95.9359 95.43V96.438H99.5479C99.7859 96.438 99.8979 96.648 99.8979 96.886C99.8979 97.124 99.7859 97.334 99.5479 97.334H95.9359V97.628C95.9359 98.566 96.2859 99.084 97.2099 99.504C98.1619 99.938 99.1279 100.358 99.9679 100.68C100.192 100.764 100.262 101.072 100.15 101.296C100.038 101.534 99.8139 101.618 99.5899 101.534C98.8059 101.226 97.8959 100.834 97.0699 100.456C95.8099 99.896 95.5159 99.476 95.4319 99.14H95.4179C95.3339 99.49 95.0399 99.91 93.7659 100.47C92.9539 100.848 92.0439 101.24 91.2599 101.548C91.0359 101.632 90.7979 101.548 90.6859 101.31C90.5739 101.072 90.6439 100.764 90.8679 100.68C91.7079 100.358 92.6739 99.938 93.6259 99.504C94.5499 99.084 94.8999 98.566 94.8999 97.628V97.334H91.2879C91.0499 97.334 90.9379 97.124 90.9379 96.886C90.9379 96.648 91.0499 96.438 91.2879 96.438H94.8999V95.43C94.8999 95.136 95.1519 94.996 95.4179 94.996ZM100.892 102.724C101.144 102.724 101.256 102.92 101.256 103.172C101.256 103.41 101.144 103.606 100.892 103.606H95.9359V107.708C95.9359 108.002 95.6839 108.128 95.4179 108.128C95.1659 108.128 94.9139 108.002 94.9139 107.708V103.606H89.9439C89.6919 103.606 89.5799 103.41 89.5799 103.172C89.5799 102.92 89.6919 102.724 89.9439 102.724H100.892ZM113.634 101.632C113.886 101.632 113.998 101.828 113.998 102.08C113.998 102.318 113.886 102.514 113.634 102.514H108.678V107.708C108.678 108.002 108.426 108.128 108.16 108.128C107.908 108.128 107.656 108.002 107.656 107.708V102.514H102.686C102.434 102.514 102.322 102.318 102.322 102.08C102.322 101.828 102.434 101.632 102.686 101.632H110.75C111.058 100.344 111.198 99.07 111.198 97.656V96.998C111.198 96.802 111.128 96.746 110.932 96.746H104.212C103.974 96.746 103.862 96.536 103.862 96.298C103.862 96.046 103.974 95.85 104.212 95.85H111.24C111.968 95.85 112.206 96.074 112.206 96.788V97.6C112.206 99.07 112.066 100.456 111.758 101.632H113.634ZM118.886 99C120.72 99 121.812 100.134 121.812 101.702C121.812 103.27 120.72 104.404 118.886 104.404C117.052 104.404 115.96 103.27 115.96 101.702C115.96 100.134 117.052 99 118.886 99ZM118.886 95.164C119.152 95.164 119.404 95.29 119.404 95.584V96.998H122.218C122.456 96.998 122.568 97.194 122.568 97.432C122.568 97.684 122.456 97.88 122.218 97.88H115.414C115.162 97.88 115.05 97.684 115.05 97.432C115.05 97.194 115.162 96.998 115.414 96.998H118.368V95.584C118.368 95.29 118.634 95.164 118.886 95.164ZM118.886 99.854C117.654 99.854 116.912 100.61 116.912 101.702C116.912 102.794 117.654 103.55 118.886 103.55C120.118 103.55 120.86 102.794 120.86 101.702C120.86 100.61 120.118 99.854 118.886 99.854ZM124.346 95.164C124.598 95.164 124.85 95.29 124.85 95.584V99.63H126.628C126.88 99.63 126.992 99.84 126.992 100.078C126.992 100.33 126.88 100.54 126.628 100.54H124.85V106.728C124.85 107.022 124.598 107.148 124.346 107.148C124.08 107.148 123.842 107.022 123.842 106.728V95.584C123.842 95.29 124.08 95.164 124.346 95.164ZM130.018 95.514C130.284 95.514 130.522 95.64 130.522 95.934V98.986C130.522 99.168 130.606 99.238 130.788 99.238H137.676C137.914 99.238 138.026 99.434 138.026 99.672C138.026 99.91 137.914 100.12 137.676 100.12H130.466C129.738 100.12 129.5 99.896 129.5 99.182V95.934C129.5 95.64 129.738 95.514 130.018 95.514ZM139.118 101.828C139.37 101.828 139.482 102.024 139.482 102.276C139.482 102.514 139.37 102.71 139.118 102.71H128.17C127.918 102.71 127.806 102.514 127.806 102.276C127.806 102.024 127.918 101.828 128.17 101.828H139.118ZM129.99 103.984C130.256 103.984 130.494 104.11 130.494 104.404V106.686C130.494 106.882 130.578 106.952 130.76 106.952H137.704C137.942 106.952 138.054 107.148 138.054 107.386C138.054 107.624 137.942 107.82 137.704 107.82H130.438C129.71 107.82 129.472 107.596 129.472 106.882V104.404C129.472 104.11 129.71 103.984 129.99 103.984ZM154.017 95.164C154.269 95.164 154.521 95.29 154.521 95.584V103.032C154.521 103.326 154.269 103.452 154.017 103.452C153.751 103.452 153.513 103.326 153.513 103.032V99.168H150.139C149.719 100.26 148.501 100.904 145.309 102.416C145.085 102.514 144.819 102.416 144.707 102.178C144.595 101.968 144.595 101.674 144.861 101.562C148.879 99.686 149.313 99.336 149.313 97.838V97.054C149.313 96.858 149.243 96.788 149.047 96.788H145.141C144.889 96.788 144.777 96.592 144.777 96.354C144.777 96.102 144.889 95.906 145.141 95.906H149.355C150.083 95.906 150.321 96.13 150.321 96.844V97.88C150.321 98.02 150.307 98.16 150.307 98.286H153.513V95.584C153.513 95.29 153.751 95.164 154.017 95.164ZM150.517 102.682C150.783 102.682 151.035 102.808 151.035 103.102V103.788C151.035 104.782 151.343 105.23 152.337 105.776C153.135 106.21 154.003 106.63 154.871 107.008C155.067 107.106 155.123 107.358 155.011 107.582C154.899 107.82 154.689 107.918 154.437 107.806C153.625 107.456 152.855 107.064 152.127 106.686C151.091 106.126 150.643 105.734 150.545 105.37H150.531C150.433 105.748 149.971 106.14 148.935 106.7C148.207 107.078 147.437 107.47 146.625 107.82C146.373 107.932 146.163 107.834 146.037 107.596C145.939 107.372 145.981 107.106 146.191 107.008C147.045 106.63 147.927 106.21 148.725 105.776C149.705 105.23 150.013 104.782 150.013 103.788V103.102C150.013 102.808 150.265 102.682 150.517 102.682ZM162.629 95.318C165.275 95.318 166.773 96.018 166.773 97.502C166.773 98.972 165.275 99.672 162.629 99.672C159.983 99.672 158.485 98.972 158.485 97.502C158.485 96.018 159.983 95.318 162.629 95.318ZM162.629 96.158C160.501 96.158 159.507 96.62 159.507 97.502C159.507 98.37 160.501 98.846 162.629 98.846C164.757 98.846 165.751 98.37 165.751 97.502C165.751 96.62 164.757 96.158 162.629 96.158ZM168.117 100.764C168.355 100.764 168.467 100.96 168.467 101.198C168.467 101.436 168.355 101.632 168.117 101.632H157.141C156.903 101.632 156.791 101.436 156.791 101.198C156.791 100.96 156.903 100.764 157.141 100.764H168.117ZM165.821 102.948C166.549 102.948 166.787 103.172 166.787 103.886V104.922C166.787 105.636 166.549 105.86 165.821 105.86H159.675C159.521 105.86 159.451 105.916 159.451 106.084V106.952C159.451 107.106 159.521 107.162 159.675 107.162H166.801C167.025 107.162 167.123 107.358 167.123 107.568C167.123 107.792 167.025 107.988 166.801 107.988H159.423C158.695 107.988 158.457 107.764 158.457 107.05V106C158.457 105.286 158.695 105.062 159.423 105.062H165.569C165.737 105.062 165.807 105.006 165.807 104.852V103.984C165.807 103.83 165.737 103.76 165.569 103.76H158.765C158.541 103.76 158.429 103.578 158.429 103.354C158.429 103.144 158.541 102.948 158.765 102.948H165.821ZM176.211 95.668C176.477 95.668 176.729 95.794 176.729 96.088V97.516C176.729 98.482 176.869 99.042 177.583 99.742C178.143 100.288 178.605 100.694 179.067 101.1C179.263 101.268 179.249 101.548 179.095 101.73C178.927 101.926 178.661 101.982 178.437 101.8C178.059 101.478 177.597 101.072 177.149 100.638C176.519 100.036 176.295 99.686 176.239 99.406H176.225C176.155 99.714 175.959 100.036 175.301 100.68C174.727 101.226 174.293 101.59 173.775 102.038C173.565 102.206 173.285 102.15 173.117 101.954C172.963 101.772 172.949 101.478 173.145 101.31C173.677 100.862 174.293 100.316 174.867 99.756C175.567 99.07 175.707 98.496 175.707 97.544V96.088C175.707 95.794 175.959 95.668 176.211 95.668ZM183.337 95.164C183.589 95.164 183.827 95.29 183.827 95.57V102.472C183.827 102.752 183.589 102.864 183.337 102.864C183.099 102.864 182.861 102.752 182.861 102.472V99.252H180.999V101.884C180.999 102.164 180.761 102.276 180.509 102.276C180.271 102.276 180.033 102.164 180.033 101.884V95.64C180.033 95.36 180.271 95.234 180.509 95.234C180.761 95.234 180.999 95.36 180.999 95.64V98.37H182.861V95.57C182.861 95.29 183.099 95.164 183.337 95.164ZM179.683 102.99C182.315 102.99 183.813 103.886 183.813 105.552C183.813 107.218 182.315 108.114 179.683 108.114C177.051 108.114 175.553 107.218 175.553 105.552C175.553 103.886 177.051 102.99 179.683 102.99ZM179.683 103.83C177.569 103.83 176.575 104.488 176.575 105.552C176.575 106.616 177.569 107.274 179.683 107.274C181.797 107.274 182.791 106.616 182.791 105.552C182.791 104.488 181.797 103.83 179.683 103.83ZM190.941 95.906C191.669 95.906 191.907 96.13 191.907 96.844V97.88C191.907 99.868 191.109 100.386 186.839 102.416C186.615 102.514 186.349 102.416 186.237 102.178C186.125 101.968 186.125 101.674 186.391 101.562C190.409 99.686 190.899 99.294 190.899 97.838V97.054C190.899 96.858 190.829 96.788 190.633 96.788H186.671C186.419 96.788 186.307 96.592 186.307 96.354C186.307 96.102 186.419 95.906 186.671 95.906H190.941ZM195.043 95.164C195.309 95.164 195.561 95.29 195.561 95.584V98.272H197.339C197.591 98.272 197.703 98.482 197.703 98.734C197.703 98.972 197.591 99.182 197.339 99.182H195.561V102.234C195.561 102.528 195.309 102.654 195.043 102.654C194.791 102.654 194.539 102.528 194.539 102.234V95.584C194.539 95.29 194.791 95.164 195.043 95.164ZM194.595 103.368C195.323 103.368 195.561 103.592 195.561 104.306V107.652C195.561 107.946 195.309 108.072 195.043 108.072C194.791 108.072 194.539 107.946 194.539 107.652V104.502C194.539 104.32 194.469 104.25 194.273 104.25H187.861C187.623 104.25 187.511 104.054 187.511 103.816C187.511 103.564 187.623 103.368 187.861 103.368H194.595ZM201.695 99.014C203.417 99.014 204.271 100.176 204.271 101.66C204.271 103.144 203.417 104.306 201.695 104.306C199.973 104.306 199.133 103.144 199.133 101.66C199.133 100.176 199.973 99.014 201.695 99.014ZM201.695 95.248C201.947 95.248 202.199 95.374 202.199 95.668V97.082H204.495C204.747 97.082 204.859 97.278 204.859 97.516C204.859 97.768 204.747 97.964 204.495 97.964H198.727C198.489 97.964 198.377 97.768 198.377 97.516C198.377 97.278 198.489 97.082 198.727 97.082H201.191V95.668C201.191 95.374 201.443 95.248 201.695 95.248ZM201.695 99.882C200.561 99.882 200.043 100.666 200.043 101.66C200.043 102.668 200.561 103.452 201.695 103.452C202.843 103.452 203.361 102.668 203.361 101.66C203.361 100.666 202.843 99.882 201.695 99.882ZM208.821 95.164C209.073 95.164 209.311 95.29 209.311 95.57V106.742C209.311 107.022 209.073 107.148 208.821 107.148C208.583 107.148 208.345 107.022 208.345 106.742V100.582H206.511V106.154C206.511 106.434 206.273 106.56 206.021 106.56C205.783 106.56 205.545 106.434 205.545 106.154V95.71C205.545 95.43 205.783 95.304 206.021 95.304C206.273 95.304 206.511 95.43 206.511 95.71V99.7H208.345V95.57C208.345 95.29 208.583 95.164 208.821 95.164ZM218.988 103.816C219.198 103.788 219.352 103.956 219.366 104.194C219.38 104.446 219.282 104.656 219.058 104.67C216.594 104.88 214.186 104.95 211.61 104.95C211.358 104.95 211.246 104.754 211.246 104.516C211.246 104.278 211.358 104.068 211.61 104.068C212.632 104.068 213.654 104.068 214.704 104.054V101.59H213.052C212.324 101.59 212.086 101.366 212.086 100.652V96.354C212.086 96.074 212.338 95.948 212.576 95.948C212.842 95.948 213.094 96.074 213.094 96.354V97.978H217.308V96.354C217.308 96.074 217.56 95.948 217.798 95.948C218.064 95.948 218.316 96.074 218.316 96.354V100.652C218.316 101.366 218.078 101.59 217.35 101.59H215.712V104.012C216.762 103.984 217.84 103.928 218.988 103.816ZM220.78 95.164C221.046 95.164 221.284 95.29 221.284 95.584V99.91H222.88C223.132 99.91 223.244 100.12 223.244 100.358C223.244 100.61 223.132 100.82 222.88 100.82H221.284V106.728C221.284 107.022 221.046 107.148 220.78 107.148C220.514 107.148 220.276 107.022 220.276 106.728V95.584C220.276 95.29 220.514 95.164 220.78 95.164ZM213.094 100.484C213.094 100.652 213.164 100.722 213.332 100.722H217.056C217.238 100.722 217.308 100.652 217.308 100.484V98.832H213.094V100.484ZM229.84 95.682C232.514 95.682 234.026 96.914 234.026 98.93C234.026 100.946 232.514 102.178 229.84 102.178C227.166 102.178 225.654 100.946 225.654 98.93C225.654 96.914 227.166 95.682 229.84 95.682ZM229.84 96.55C227.698 96.55 226.676 97.558 226.676 98.93C226.676 100.288 227.698 101.296 229.84 101.296C231.982 101.296 233.004 100.288 233.004 98.93C233.004 97.558 231.982 96.55 229.84 96.55ZM227.614 102.5C227.894 102.5 228.132 102.626 228.132 102.92V104.978H231.548V102.92C231.548 102.626 231.786 102.5 232.052 102.5C232.318 102.5 232.57 102.626 232.57 102.92V104.978H235.328C235.566 104.978 235.678 105.174 235.678 105.412C235.678 105.65 235.566 105.846 235.328 105.846H224.352C224.114 105.846 224.002 105.65 224.002 105.412C224.002 105.174 224.114 104.978 224.352 104.978H227.11V102.92C227.11 102.626 227.362 102.5 227.614 102.5ZM237.822 104.782C238.284 104.782 238.62 105.132 238.62 105.58C238.62 106.014 238.284 106.364 237.822 106.364C237.374 106.364 237.024 106.014 237.024 105.58C237.024 105.132 237.374 104.782 237.822 104.782Z" fill="#808983"/>
</svg>
