<svg viewBox="0 0 1560 844" fill="none" xmlns="http://www.w3.org/2000/svg">
<path fill-rule="evenodd" clip-rule="evenodd" d="M179.239 550.272C281.528 575.193 308.065 676.209 329.307 716.793C393.128 838.727 274.012 871.75 178.416 878.942C67.4312 887.291 -31.8083 896.848 9.60468 691.305C23.7139 581.161 95.0094 526.375 179.239 550.272Z" fill="#E2F7F2"/>
<path d="M155.322 541.747C162.162 531.702 165.084 521.085 161.465 508.839C158.409 498.496 153.042 490.386 144.07 485.239C143.123 484.71 142.108 484.315 141.054 484.063C139.487 483.961 138.703 493.285 138.382 495.103C134.464 517.167 130.782 531.929 155.322 541.747Z" fill="#C2F2EA"/>
<path d="M185.765 697.435L196.194 693.181C200.158 691.559 201.475 687.179 199.022 683.778L191.681 673.592C190.465 671.996 188.716 670.89 186.753 670.475C184.791 670.059 182.744 670.362 180.986 671.328L170.126 677.596C166.49 679.712 165.903 684.248 168.864 687.343L176.645 695.484C177.807 696.666 179.291 697.481 180.912 697.828C182.533 698.175 184.221 698.038 185.765 697.435Z" fill="#F9D2D2"/>
<path d="M151.303 662.926L151.304 662.926C152.492 663.176 153.703 663.303 154.917 663.304C157.658 663.318 160.362 662.673 162.801 661.425L162.804 661.424C163.15 661.246 163.457 661.001 163.709 660.704C163.96 660.407 164.151 660.064 164.269 659.693C164.388 659.323 164.432 658.932 164.4 658.545C164.368 658.157 164.26 657.779 164.082 657.433L163.015 657.983L164.082 657.433C163.903 657.087 163.659 656.78 163.362 656.529L162.612 657.414L163.362 656.529C163.065 656.277 162.721 656.087 162.351 655.968C161.98 655.85 161.59 655.805 161.202 655.837C160.816 655.869 160.439 655.977 160.094 656.154C157.761 657.342 155.091 657.692 152.531 657.146C149.97 656.6 147.675 655.191 146.029 653.154L146.015 653.137L146.001 653.121C145.501 652.546 144.798 652.186 144.04 652.117C143.281 652.048 142.525 652.274 141.929 652.749C141.333 653.224 140.944 653.911 140.842 654.666C140.74 655.421 140.935 656.186 141.384 656.802L141.4 656.824L141.417 656.846C143.912 659.953 147.405 662.101 151.303 662.926Z" fill="#07BEB8" stroke="#07BEB8" stroke-width="2.4"/>
<path d="M220.505 677.171L220.508 677.172C221.698 677.422 222.911 677.549 224.128 677.55C226.869 677.565 229.573 676.92 232.013 675.671L232.015 675.67C232.361 675.492 232.668 675.247 232.92 674.95C233.171 674.653 233.362 674.31 233.48 673.939C233.599 673.569 233.643 673.178 233.611 672.791C233.579 672.403 233.471 672.025 233.292 671.679C233.114 671.334 232.87 671.026 232.573 670.775C232.276 670.523 231.932 670.333 231.562 670.214C231.191 670.096 230.801 670.051 230.413 670.083C230.027 670.116 229.65 670.223 229.305 670.401C226.972 671.588 224.302 671.938 221.742 671.392C219.181 670.846 216.885 669.437 215.24 667.4L215.226 667.384L215.212 667.367C214.712 666.792 214.009 666.432 213.251 666.363C212.492 666.294 211.735 666.52 211.14 666.995C210.544 667.47 210.154 668.157 210.053 668.912C209.951 669.667 210.145 670.432 210.595 671.048L210.611 671.07L210.628 671.092C213.121 674.196 216.611 676.344 220.505 677.171Z" fill="#07BEB8" stroke="#07BEB8" stroke-width="2.4"/>
<path d="M356.443 654.151C352.306 641.615 350.316 629.079 350.841 618.979C350.98 615.525 351.556 612.102 352.557 608.793L265.672 628.35C263.665 632.302 262.341 636.564 261.754 640.957C259.842 653.36 261.558 668.561 266.573 683.777C271.587 698.993 279.242 712.227 288.151 721.065C291.254 724.269 294.881 726.919 298.878 728.9C298.925 728.9 298.956 728.83 299.003 728.814L380.318 692.944C370.704 685.837 361.74 670.237 356.443 654.151Z" fill="white"/>
<path d="M390.886 641.224C388.925 643.622 387.137 646.157 385.535 648.808C385.247 649.317 384.861 649.763 384.398 650.12C383.935 650.477 383.406 650.738 382.841 650.887C382.276 651.037 381.687 651.071 381.109 650.99C380.53 650.908 379.974 650.711 379.472 650.411C378.971 650.111 378.535 649.713 378.189 649.242C377.844 648.771 377.596 648.235 377.461 647.667C377.326 647.098 377.305 646.509 377.402 645.932C377.498 645.356 377.708 644.805 378.021 644.311C380.664 639.904 383.768 635.791 387.282 632.041C379.846 615.218 370.569 605.926 365.602 605.926C365.248 605.924 364.897 605.977 364.56 606.083C361.896 606.96 359.929 612.202 359.561 619.403C359.09 628.484 360.924 639.837 364.732 651.386C372.967 676.373 386.122 689.693 391.536 687.93C394.2 687.06 396.167 681.818 396.535 674.61C397.005 665.537 395.164 654.176 391.364 642.634C391.2 642.148 391.051 641.694 390.886 641.224Z" fill="white"/>
<path d="M525.242 614.48C524.936 613.36 524.198 612.408 523.19 611.832C522.182 611.256 520.987 611.104 519.867 611.409C501.313 616.47 484.561 620.325 467.582 616.204C463.171 615.087 458.975 613.25 455.163 610.766C463.368 605.918 469.67 598.412 473.028 589.493C477.125 578.634 478.818 554.281 464.174 547.183C458.689 544.534 452.35 544.511 446.325 547.12C438.341 550.583 431.673 558.168 428.931 566.912C425.483 577.881 426.744 589.156 432.59 599.491C434.324 602.538 436.372 605.395 438.701 608.016C432.276 610.155 426.165 612.161 419.74 613.649C409.617 616 401.013 620.082 394.032 625.739C385.609 608.165 373.472 594.555 362.409 597.611C362.359 597.607 362.31 597.607 362.26 597.611L288.608 614.174C288.113 613.372 287.409 612.72 286.571 612.286C281.51 609.693 276.432 608.995 271.809 610.257C271.42 610.295 271.037 610.377 270.665 610.5C260.558 613.83 253.694 624.07 251.351 639.318C249.197 653.327 251.054 670.267 256.57 687.027C262.086 703.787 270.673 718.501 280.734 728.483C289.219 736.906 298.097 741.294 306.363 741.294C308.464 741.299 310.556 741.009 312.576 740.432C312.955 740.394 313.329 740.313 313.689 740.189C319.534 738.262 324.447 733.874 327.902 727.504C328.27 726.823 328.478 726.068 328.513 725.295L394.729 696.085C394.729 696.085 394.792 696.03 394.831 696.014C401.021 693.663 404.759 686.243 405.338 675.023C405.856 664.892 403.873 652.395 399.736 639.851C399.102 637.923 398.396 636.019 397.66 634.123C397.981 633.833 398.279 633.528 398.6 633.246C404.672 628.035 412.453 624.313 421.722 622.174C428.844 620.529 435.418 618.343 442.376 616.024L445.941 614.833C451.692 619.475 458.371 622.831 465.529 624.674C484.561 629.297 502.441 625.207 522.186 619.816C523.295 619.508 524.238 618.775 524.81 617.776C525.383 616.777 525.538 615.593 525.242 614.48ZM298.974 728.781C298.927 728.781 298.896 728.844 298.849 728.867C294.853 726.886 291.225 724.236 288.123 721.032C279.214 712.194 271.551 698.952 266.544 683.744C261.537 668.536 259.814 653.327 261.725 640.924C262.312 636.531 263.637 632.269 265.643 628.317L352.529 608.776C351.528 612.085 350.951 615.508 350.813 618.962C350.288 629.093 352.278 641.59 356.415 654.134C361.712 670.22 370.675 685.82 380.258 692.896L298.974 728.781ZM396.571 674.608C396.203 681.84 394.22 687.082 391.572 687.928C386.158 689.691 373.002 676.371 364.767 651.384C360.959 639.835 359.126 628.482 359.596 619.401C359.964 612.176 361.947 606.935 364.595 606.081C364.932 605.975 365.284 605.922 365.637 605.924C370.605 605.924 379.882 615.217 387.317 632.039C383.795 635.788 380.683 639.901 378.032 644.309C377.438 645.307 377.263 646.5 377.546 647.626C377.83 648.753 378.548 649.721 379.545 650.319C380.541 650.913 381.733 651.088 382.858 650.804C383.984 650.521 384.951 649.802 385.547 648.806C387.149 646.155 388.937 643.62 390.898 641.222C391.063 641.692 391.235 642.146 391.399 642.632C395.2 654.174 397.041 665.535 396.571 674.608ZM440.213 595.213C437.963 591.378 436.54 587.114 436.036 582.697C435.531 578.279 435.956 573.804 437.283 569.56C439.257 563.292 444.178 557.635 449.819 555.198C451.576 554.412 453.474 553.993 455.398 553.968C457.124 553.964 458.828 554.353 460.381 555.104C468.648 559.1 468.538 576.589 464.832 586.445C461.758 594.592 455.603 601.203 447.696 604.85C444.76 602.007 442.24 598.763 440.213 595.213Z" fill="#C2F2EA"/>
<path d="M290.495 788.66C286.969 785.252 284.407 780.973 283.07 776.256C281.732 771.538 281.666 766.551 282.879 761.8C284.399 755.908 286.405 750.212 290.229 744.429C304.559 722.788 331.999 717.648 347.285 696.979C349.636 693.845 352.833 690.781 356.296 690.773C360.668 690.773 362.979 695.514 363.692 699.98C366.56 717.907 354.58 735.975 336.762 741.272C339.411 740.144 338.674 740.716 341.323 739.587C348.531 736.492 361.271 728.485 365.299 738.099C367.304 742.886 363.833 748.786 361.107 752.602C353.71 762.905 341.354 767.489 329.107 768.554C332.096 768.264 335.106 768.264 338.094 768.554C342.31 769.087 346.87 771.61 348.915 775.457C351.548 780.401 348.131 785.471 343.634 787.704C336.081 791.465 327.117 795.281 318.679 796.323C315.003 796.751 311.293 796.803 307.607 796.479C301.173 795.944 295.125 793.191 290.495 788.691V788.66Z" fill="#C2F2EA"/>
<path d="M204.555 789.537C201.028 786.13 198.466 781.85 197.128 777.133C195.79 772.416 195.725 767.428 196.939 762.677C198.459 756.785 200.464 751.089 204.288 745.306C218.619 723.665 246.05 718.525 261.337 697.856C263.687 694.722 266.892 691.658 270.355 691.65C274.727 691.65 277.039 696.391 277.752 700.865C280.62 718.784 268.639 736.86 250.822 742.149C253.462 741.021 252.734 741.6 255.382 740.464C262.591 737.369 275.331 729.362 279.358 738.976C281.364 743.763 277.893 749.671 275.158 753.479C267.77 763.782 255.413 768.366 243.167 769.431C246.153 769.141 249.16 769.141 252.146 769.431C256.369 769.964 260.929 772.495 262.974 776.334C265.607 781.278 262.191 786.348 257.693 788.581C250.14 792.342 241.169 796.165 232.738 797.2C229.063 797.628 225.353 797.68 221.667 797.356C215.233 796.821 209.184 794.068 204.555 789.568V789.537Z" fill="#C2F2EA"/>
<path d="M522.133 615.399C612.567 588.093 826.944 549.668 985.005 451.775C1094.52 383.949 1158.96 322.9 1197.36 268.406M1197.36 268.406C1228.25 224.585 1242.3 185.004 1249.41 149.547C1260.08 96.3624 1241.68 -36.3993 1155.05 16.866C1079.84 63.1077 1052.41 252.174 1197.36 268.406ZM1197.36 268.406C1203.4 269.082 1209.74 269.458 1216.38 269.512C1382.56 270.851 1484.23 196.37 1516.25 172.387C1541.87 153.201 1628.08 82.6507 1640.64 51.1779" stroke="#C2F2EA" stroke-width="8.64" stroke-linecap="round" stroke-dasharray="24 24"/>
</svg>
