<svg viewBox="0 0 325 142" fill="none" xmlns="http://www.w3.org/2000/svg">
<rect width="325" height="142" rx="28" fill="#FFFDFA"/>
<path d="M46.8055 41.96C47.0905 41.96 47.3605 42.11 47.3605 42.425V43.355C47.3605 44.78 47.6605 45.41 48.8755 46.205C49.7605 46.775 50.7655 47.375 51.8755 47.99C52.0855 48.11 52.1005 48.425 51.9655 48.65C51.8305 48.89 51.5605 48.995 51.3355 48.875C50.4055 48.365 49.3255 47.735 48.4705 47.18C47.3605 46.46 46.9405 45.95 46.8205 45.545H46.8055C46.6855 45.965 46.2655 46.475 45.1555 47.195C44.2855 47.75 43.2205 48.38 42.2905 48.89C42.0505 49.01 41.7955 48.905 41.6455 48.665C41.5105 48.44 41.5255 48.11 41.7355 47.99C42.8455 47.375 43.8505 46.775 44.7355 46.205C45.9505 45.41 46.2505 44.78 46.2505 43.355V42.425C46.2505 42.11 46.5205 41.96 46.8055 41.96ZM46.8055 48.8C47.0905 48.8 47.3605 48.935 47.3605 49.25V51.89H52.6705C52.9405 51.89 53.0605 52.1 53.0605 52.37C53.0605 52.625 52.9405 52.835 52.6705 52.835H40.9405C40.6705 52.835 40.5505 52.625 40.5505 52.37C40.5505 52.1 40.6705 51.89 40.9405 51.89H46.2655V49.25C46.2655 48.935 46.5355 48.8 46.8055 48.8ZM60.4578 41.585C60.7428 41.585 61.0128 41.735 61.0128 42.05V42.815C61.0128 43.745 61.4328 44.27 62.5728 44.795C63.5628 45.26 64.5078 45.665 65.4078 46.025C65.6778 46.145 65.7078 46.43 65.6178 46.67C65.5278 46.895 65.2878 47.045 65.0178 46.94C64.1028 46.58 63.1878 46.175 62.2728 45.755C61.0278 45.185 60.5778 44.72 60.4728 44.33H60.4578C60.3378 44.75 59.8878 45.2 58.6578 45.77C57.7428 46.19 56.8278 46.58 55.9278 46.955C55.6278 47.075 55.4028 46.91 55.2978 46.67C55.2078 46.445 55.2378 46.145 55.5078 46.025C56.4078 45.665 57.3528 45.26 58.3428 44.795C59.4828 44.27 59.9028 43.745 59.9028 42.815V42.05C59.9028 41.735 60.1728 41.585 60.4578 41.585ZM60.4578 46.415C60.7428 46.415 60.9978 46.55 60.9978 46.865V48.41H66.3378C66.5928 48.41 66.7128 48.62 66.7128 48.875C66.7128 49.13 66.5928 49.34 66.3378 49.34H54.5778C54.3228 49.34 54.2028 49.13 54.2028 48.875C54.2028 48.62 54.3228 48.41 54.5778 48.41H59.9178V46.865C59.9178 46.55 60.1878 46.415 60.4578 46.415ZM63.8928 50.75C64.6728 50.75 64.9278 50.99 64.9278 51.755V54.83C64.9278 55.145 64.6728 55.28 64.3878 55.28C64.1028 55.28 63.8478 55.145 63.8478 54.83V51.95C63.8478 51.74 63.7578 51.68 63.5628 51.68H56.1678C55.9278 51.68 55.8078 51.47 55.8078 51.215C55.8078 50.96 55.9278 50.75 56.1678 50.75H63.8928ZM76.7802 48.53C77.0202 48.5 77.1702 48.665 77.2002 48.935C77.2152 49.19 77.0952 49.415 76.8702 49.445C74.0802 49.685 71.4402 49.76 68.4402 49.76C68.1702 49.76 68.0502 49.55 68.0502 49.295C68.0502 49.04 68.1702 48.83 68.4402 48.83C69.6252 48.83 70.7952 48.83 71.9802 48.8V46.73H70.1952C69.4152 46.73 69.1602 46.49 69.1602 45.725V43.1C69.1602 42.335 69.4152 42.095 70.1952 42.095H75.4452C75.7002 42.095 75.8202 42.305 75.8202 42.56C75.8202 42.815 75.7002 43.025 75.4452 43.025H70.5252C70.3302 43.025 70.2402 43.1 70.2402 43.31V45.515C70.2402 45.725 70.3302 45.8 70.5252 45.8H75.5952C75.8502 45.8 75.9702 46.01 75.9702 46.265C75.9702 46.52 75.8502 46.73 75.5952 46.73H73.0602V48.755C74.2452 48.71 75.4602 48.65 76.7802 48.53ZM70.9302 50.84C71.2152 50.84 71.4852 50.975 71.4852 51.29V53.705C71.4852 53.915 71.5602 53.99 71.7702 53.99H79.2702C79.5252 53.99 79.6452 54.2 79.6452 54.455C79.6452 54.71 79.5252 54.92 79.2702 54.92H71.4102C70.6302 54.92 70.3752 54.68 70.3752 53.915V51.29C70.3752 50.975 70.6452 50.84 70.9302 50.84ZM78.7152 41.39C78.9852 41.39 79.2552 41.525 79.2552 41.84V51.29C79.2552 51.605 78.9852 51.74 78.7152 51.74C78.4302 51.74 78.1752 51.605 78.1752 51.29V41.84C78.1752 41.525 78.4302 41.39 78.7152 41.39ZM92.9975 42.17C93.2525 42.17 93.3725 42.38 93.3725 42.635C93.3725 42.905 93.2525 43.115 92.9975 43.115H90.2375V44.03C90.2375 45.035 90.5225 45.62 91.3025 46.235C92.0075 46.79 92.6675 47.255 93.2525 47.645C93.5075 47.81 93.5075 48.11 93.3575 48.32C93.2075 48.53 92.9525 48.62 92.6975 48.44C92.2325 48.14 91.5275 47.645 90.8975 47.165C90.1025 46.565 89.7725 46.13 89.6975 45.815H89.6825C89.6075 46.145 89.2625 46.595 88.4825 47.195C87.7925 47.72 87.0575 48.23 86.4275 48.65C86.1725 48.83 85.9175 48.725 85.7675 48.53C85.6175 48.32 85.6025 48.005 85.8725 47.825C86.5925 47.345 87.3125 46.835 88.0625 46.25C88.8425 45.65 89.1275 45.065 89.1275 44.045V43.115H86.2775C86.0225 43.115 85.9025 42.905 85.9025 42.635C85.9025 42.38 86.0225 42.17 86.2775 42.17H92.9975ZM95.8475 41.39C96.1175 41.39 96.3875 41.525 96.3875 41.84V48.275C96.3875 48.59 96.1175 48.725 95.8475 48.725C95.5625 48.725 95.2925 48.59 95.2925 48.275V41.84C95.2925 41.525 95.5625 41.39 95.8475 41.39ZM88.4225 49.49C88.6925 49.49 88.9625 49.625 88.9625 49.925V51.44H95.3075V49.925C95.3075 49.625 95.5775 49.49 95.8475 49.49C96.1175 49.49 96.3875 49.625 96.3875 49.925V53.99C96.3875 54.755 96.1325 54.995 95.3525 54.995H88.9175C88.1375 54.995 87.8825 54.755 87.8825 53.99V49.925C87.8825 49.625 88.1525 49.49 88.4225 49.49ZM88.9625 53.795C88.9625 54.005 89.0375 54.08 89.2475 54.08H95.0225C95.2325 54.08 95.3075 54.005 95.3075 53.795V52.355H88.9625V53.795ZM105.495 42.275C105.765 42.275 105.885 42.485 105.885 42.74C105.885 43.01 105.765 43.22 105.495 43.22H100.92C100.71 43.22 100.635 43.295 100.635 43.49V47.495C100.635 47.705 100.71 47.765 100.92 47.765C103.125 47.765 104.91 47.66 106.695 47.42C106.935 47.39 107.1 47.555 107.145 47.81C107.175 48.08 107.07 48.335 106.83 48.365C105.27 48.59 103.41 48.725 100.575 48.725C99.7948 48.725 99.5398 48.485 99.5398 47.72V43.28C99.5398 42.515 99.7948 42.275 100.575 42.275H105.495ZM108.84 41.39C109.125 41.39 109.395 41.525 109.395 41.84V45.32H111.3C111.57 45.32 111.69 45.545 111.69 45.815C111.69 46.07 111.57 46.295 111.3 46.295H109.395V50.99C109.395 51.305 109.125 51.44 108.84 51.44C108.57 51.44 108.3 51.305 108.3 50.99V41.84C108.3 41.525 108.57 41.39 108.84 41.39ZM101.595 50.27C101.88 50.27 102.15 50.405 102.15 50.72V53.66C102.15 53.855 102.225 53.93 102.435 53.93H109.395C109.665 53.93 109.785 54.155 109.785 54.41C109.785 54.665 109.665 54.89 109.395 54.89H102.075C101.295 54.89 101.04 54.65 101.04 53.885V50.72C101.04 50.405 101.31 50.27 101.595 50.27ZM120.962 41.54C121.217 41.54 121.472 41.675 121.472 41.975V53.165C121.472 53.465 121.217 53.6 120.962 53.6C120.692 53.6 120.437 53.465 120.437 53.165V47.045H118.562C118.472 49.55 117.542 50.855 115.667 50.855C113.672 50.855 112.742 49.385 112.742 46.58C112.742 43.775 113.672 42.305 115.667 42.305C117.542 42.305 118.457 43.61 118.562 46.1H120.437V41.975C120.437 41.675 120.692 41.54 120.962 41.54ZM115.667 43.28C114.302 43.28 113.777 44.45 113.777 46.58C113.777 48.71 114.302 49.88 115.667 49.88C117.032 49.88 117.542 48.71 117.542 46.58C117.542 44.45 117.032 43.28 115.667 43.28ZM123.602 41.39C123.872 41.39 124.127 41.525 124.127 41.825V53.795C124.127 54.095 123.872 54.23 123.602 54.23C123.347 54.23 123.092 54.095 123.092 53.795V41.825C123.092 41.525 123.347 41.39 123.602 41.39ZM130.475 42.095C130.76 42.095 131.03 42.23 131.03 42.56V45.05C131.03 46.37 131.315 47.045 132.26 48.05C132.92 48.755 133.565 49.37 134.135 49.895C134.36 50.075 134.3 50.39 134.12 50.585C133.955 50.75 133.655 50.825 133.445 50.615C132.92 50.15 132.38 49.61 131.72 48.95C130.775 47.96 130.55 47.555 130.49 47.225H130.475C130.4 47.57 130.175 47.975 129.23 48.965C128.57 49.625 128 50.195 127.325 50.81C127.085 51.02 126.785 50.93 126.62 50.75C126.44 50.54 126.41 50.255 126.62 50.06C127.34 49.4 128.015 48.755 128.675 48.05C129.62 47.045 129.92 46.37 129.92 45.05V42.56C129.92 42.23 130.175 42.095 130.475 42.095ZM136.895 41.39C137.165 41.39 137.435 41.525 137.435 41.84V53.78C137.435 54.095 137.165 54.23 136.895 54.23C136.61 54.23 136.355 54.095 136.355 53.78V46.475H133.67C133.415 46.475 133.295 46.265 133.295 45.995C133.295 45.74 133.415 45.53 133.67 45.53H136.355V41.84C136.355 41.525 136.61 41.39 136.895 41.39ZM144.682 42.395C144.967 42.395 145.237 42.53 145.237 42.845V49.385C145.237 49.595 145.312 49.67 145.522 49.67C146.812 49.67 148.537 49.565 149.677 49.385C149.902 49.355 150.067 49.52 150.112 49.79C150.142 50.06 150.037 50.315 149.797 50.345C148.897 50.495 147.112 50.615 145.162 50.615C144.382 50.615 144.127 50.375 144.127 49.61V42.845C144.127 42.53 144.397 42.395 144.682 42.395ZM154.657 41.39C154.927 41.39 155.182 41.525 155.182 41.825V53.795C155.182 54.095 154.927 54.23 154.657 54.23C154.402 54.23 154.147 54.095 154.147 53.795V47.045H152.062V53.165C152.062 53.465 151.807 53.6 151.537 53.6C151.282 53.6 151.027 53.465 151.027 53.165V41.975C151.027 41.675 151.282 41.54 151.537 41.54C151.807 41.54 152.062 41.675 152.062 41.975V46.1H154.147V41.825C154.147 41.525 154.402 41.39 154.657 41.39ZM162.804 42.455C163.584 42.455 163.839 42.695 163.839 43.46V45.125C163.839 47.63 163.089 48.38 158.454 51.245C158.229 51.38 157.944 51.29 157.794 51.065C157.644 50.84 157.644 50.51 157.884 50.36C162.234 47.705 162.759 47.15 162.759 45.08V43.685C162.759 43.49 162.684 43.415 162.474 43.415H158.229C157.959 43.415 157.839 43.19 157.839 42.935C157.839 42.68 157.959 42.455 158.229 42.455H162.804ZM167.199 41.39C167.484 41.39 167.754 41.525 167.754 41.84V46.025H169.659C169.929 46.025 170.049 46.25 170.049 46.505C170.049 46.775 169.929 47 169.659 47H167.754V53.78C167.754 54.095 167.484 54.23 167.199 54.23C166.929 54.23 166.659 54.095 166.659 53.78V41.84C166.659 41.525 166.929 41.39 167.199 41.39ZM185.232 42.095C185.487 42.095 185.607 42.32 185.607 42.575C185.607 42.83 185.487 43.055 185.232 43.055H181.482V43.31C181.482 44.45 181.767 44.945 182.892 45.545C183.927 46.085 184.842 46.535 185.802 46.97C186.027 47.09 186.087 47.39 185.967 47.63C185.832 47.87 185.577 47.99 185.352 47.885C184.362 47.435 183.522 47.03 182.562 46.52C181.392 45.905 181.017 45.485 180.942 45.125H180.927C180.852 45.5 180.477 45.92 179.307 46.535C178.347 47.045 177.492 47.45 176.517 47.9C176.292 48.005 176.022 47.885 175.887 47.645C175.767 47.39 175.812 47.09 176.052 46.97C177.012 46.535 177.927 46.085 178.962 45.545C180.087 44.945 180.372 44.45 180.372 43.31V43.055H176.622C176.367 43.055 176.247 42.83 176.247 42.575C176.247 42.32 176.367 42.095 176.622 42.095H185.232ZM186.792 49.37C187.062 49.37 187.182 49.58 187.182 49.85C187.182 50.105 187.062 50.315 186.792 50.315H181.482V54.83C181.482 55.145 181.212 55.28 180.927 55.28C180.657 55.28 180.387 55.145 180.387 54.83V50.315H175.062C174.792 50.315 174.672 50.105 174.672 49.85C174.672 49.58 174.792 49.37 175.062 49.37H186.792ZM197.954 42.2C198.734 42.2 198.989 42.44 198.989 43.205V45.155C198.989 45.92 198.734 46.16 197.954 46.16H191.519C191.309 46.16 191.234 46.235 191.234 46.445V48.02C191.234 48.215 191.309 48.29 191.519 48.29H198.974C199.229 48.29 199.349 48.5 199.349 48.755C199.349 49.01 199.229 49.235 198.974 49.235H195.134V51.89H200.444C200.714 51.89 200.834 52.1 200.834 52.37C200.834 52.625 200.714 52.835 200.444 52.835H188.714C188.444 52.835 188.324 52.625 188.324 52.37C188.324 52.1 188.444 51.89 188.714 51.89H194.039V49.235H191.189C190.409 49.235 190.154 48.995 190.154 48.23V46.265C190.154 45.5 190.409 45.26 191.189 45.26H197.639C197.834 45.26 197.924 45.185 197.924 44.975V43.415C197.924 43.205 197.834 43.13 197.639 43.13H190.499C190.244 43.13 190.124 42.92 190.124 42.665C190.124 42.41 190.244 42.2 190.499 42.2H197.954ZM211.471 42.005C212.251 42.005 212.506 42.245 212.506 43.01V46.61C212.506 47.375 212.251 47.615 211.471 47.615H207.331C206.551 47.615 206.296 47.375 206.296 46.61V43.01C206.296 42.245 206.551 42.005 207.331 42.005H211.471ZM207.661 42.92C207.451 42.92 207.376 42.995 207.376 43.205V46.415C207.376 46.61 207.451 46.685 207.661 46.685H211.141C211.351 46.685 211.426 46.61 211.426 46.415V43.205C211.426 42.995 211.351 42.92 211.141 42.92H207.661ZM215.656 41.39C215.941 41.39 216.211 41.525 216.211 41.84V44.315H218.116C218.386 44.315 218.506 44.54 218.506 44.81C218.506 45.065 218.386 45.29 218.116 45.29H216.211V47.96C216.211 48.275 215.941 48.41 215.656 48.41C215.386 48.41 215.116 48.275 215.116 47.96V41.84C215.116 41.525 215.386 41.39 215.656 41.39ZM216.061 49.25C216.301 49.25 216.421 49.46 216.421 49.7C216.421 49.94 216.301 50.15 216.061 50.15H209.236C209.026 50.15 208.951 50.225 208.951 50.42V51.71H215.911C216.151 51.71 216.271 51.92 216.271 52.16C216.271 52.4 216.151 52.595 215.911 52.595H208.951V53.885C208.951 54.095 209.026 54.17 209.236 54.17H216.211C216.451 54.17 216.571 54.38 216.571 54.62C216.571 54.86 216.451 55.07 216.211 55.07H208.921C208.141 55.07 207.886 54.83 207.886 54.065V50.255C207.886 49.49 208.141 49.25 208.921 49.25H216.061ZM221.749 41.765C222.034 41.765 222.289 41.9 222.289 42.215V45.485C222.289 45.68 222.379 45.755 222.574 45.755H229.954C230.209 45.755 230.329 45.965 230.329 46.22C230.329 46.475 230.209 46.7 229.954 46.7H222.229C221.449 46.7 221.194 46.46 221.194 45.695V42.215C221.194 41.9 221.449 41.765 221.749 41.765ZM231.499 48.53C231.769 48.53 231.889 48.74 231.889 49.01C231.889 49.265 231.769 49.475 231.499 49.475H219.769C219.499 49.475 219.379 49.265 219.379 49.01C219.379 48.74 219.499 48.53 219.769 48.53H231.499ZM221.719 50.84C222.004 50.84 222.259 50.975 222.259 51.29V53.735C222.259 53.945 222.349 54.02 222.544 54.02H229.984C230.239 54.02 230.359 54.23 230.359 54.485C230.359 54.74 230.239 54.95 229.984 54.95H222.199C221.419 54.95 221.164 54.71 221.164 53.945V51.29C221.164 50.975 221.419 50.84 221.719 50.84ZM240.591 41.96C242.826 41.96 243.891 43.385 243.891 45.215C243.891 47.03 242.826 48.455 240.591 48.455C238.356 48.455 237.291 47.03 237.291 45.215C237.291 43.385 238.356 41.96 240.591 41.96ZM240.591 42.905C238.986 42.905 238.356 43.955 238.356 45.215C238.356 46.46 238.986 47.525 240.591 47.525C242.196 47.525 242.826 46.46 242.826 45.215C242.826 43.955 242.196 42.905 240.591 42.905ZM247.461 41.39C247.731 41.39 248.001 41.525 248.001 41.84V48.965C248.001 49.28 247.731 49.415 247.461 49.415C247.191 49.415 246.921 49.28 246.921 48.965V47.045H244.776C244.521 47.045 244.401 46.835 244.401 46.565C244.401 46.31 244.521 46.1 244.776 46.1H246.921V44.39H244.776C244.521 44.39 244.401 44.165 244.401 43.91C244.401 43.655 244.521 43.445 244.776 43.445H246.921V41.84C246.921 41.525 247.191 41.39 247.461 41.39ZM246.966 50.18C247.746 50.18 248.001 50.42 248.001 51.185V54.77C248.001 55.085 247.731 55.22 247.446 55.22C247.176 55.22 246.906 55.085 246.906 54.77V51.395C246.906 51.2 246.831 51.125 246.621 51.125H239.541C239.286 51.125 239.166 50.915 239.166 50.66C239.166 50.39 239.286 50.18 239.541 50.18H246.966ZM254.498 44.435C256.448 44.435 257.603 45.245 257.603 46.55C257.603 47.855 256.448 48.665 254.498 48.665C252.548 48.665 251.393 47.855 251.393 46.55C251.393 45.245 252.548 44.435 254.498 44.435ZM254.498 41.09C254.783 41.09 255.053 41.225 255.053 41.54V42.605H258.053C258.308 42.605 258.428 42.815 258.428 43.055C258.428 43.325 258.308 43.535 258.053 43.535H250.793C250.538 43.535 250.418 43.325 250.418 43.055C250.418 42.815 250.538 42.605 250.793 42.605H253.943V41.54C253.943 41.225 254.213 41.09 254.498 41.09ZM254.498 45.275C253.148 45.275 252.398 45.77 252.398 46.55C252.398 47.33 253.148 47.825 254.498 47.825C255.848 47.825 256.598 47.33 256.598 46.55C256.598 45.77 255.848 45.275 254.498 45.275ZM260.378 41.39C260.648 41.39 260.918 41.525 260.918 41.84V44.6H262.823C263.093 44.6 263.213 44.825 263.213 45.08C263.213 45.35 263.093 45.575 262.823 45.575H260.918V48.53C260.918 48.845 260.648 48.98 260.378 48.98C260.093 48.98 259.838 48.845 259.838 48.53V41.84C259.838 41.525 260.093 41.39 260.378 41.39ZM259.883 49.73C260.663 49.73 260.918 49.97 260.918 50.735V51.815C260.918 52.58 260.663 52.82 259.883 52.82H253.898C253.733 52.82 253.658 52.88 253.658 53.06V53.96C253.658 54.125 253.733 54.2 253.898 54.2H260.918C261.158 54.2 261.278 54.41 261.278 54.62C261.278 54.86 261.158 55.07 260.918 55.07H253.628C252.848 55.07 252.593 54.83 252.593 54.065V52.985C252.593 52.22 252.848 51.98 253.628 51.98H259.613C259.793 51.98 259.868 51.905 259.868 51.74V50.84C259.868 50.66 259.793 50.6 259.613 50.6H252.923C252.683 50.6 252.563 50.39 252.563 50.15C252.563 49.94 252.683 49.73 252.923 49.73H259.883ZM270.341 41.735C273.176 41.735 274.781 42.635 274.781 44.405C274.781 46.175 273.176 47.075 270.341 47.075C267.506 47.075 265.901 46.175 265.901 44.405C265.901 42.635 267.506 41.735 270.341 41.735ZM270.341 42.65C268.061 42.65 266.996 43.31 266.996 44.405C266.996 45.5 268.061 46.16 270.341 46.16C272.621 46.16 273.686 45.5 273.686 44.405C273.686 43.31 272.621 42.65 270.341 42.65ZM276.206 48.605C276.476 48.605 276.596 48.815 276.596 49.085C276.596 49.34 276.476 49.55 276.206 49.55H264.476C264.206 49.55 264.086 49.34 264.086 49.085C264.086 48.815 264.206 48.605 264.476 48.605H276.206ZM266.426 50.84C266.711 50.84 266.966 50.975 266.966 51.29V53.735C266.966 53.945 267.056 54.02 267.251 54.02H274.691C274.946 54.02 275.066 54.23 275.066 54.485C275.066 54.74 274.946 54.95 274.691 54.95H266.906C266.126 54.95 265.871 54.71 265.871 53.945V51.29C265.871 50.975 266.126 50.84 266.426 50.84ZM280.993 42.11C282.973 42.11 284.188 43.175 284.188 44.81V44.975C284.188 45.98 283.663 46.67 282.628 47.6C281.398 48.71 281.263 49.115 281.263 49.865C281.263 50.135 281.008 50.285 280.753 50.285C280.468 50.285 280.213 50.15 280.213 49.85C280.213 48.83 280.393 48.29 281.653 47.165C282.748 46.19 283.093 45.695 283.093 44.975V44.855C283.093 43.805 282.328 43.1 281.008 43.1C280.003 43.1 279.328 43.475 278.758 44C278.533 44.18 278.263 44.15 278.083 43.925C277.888 43.715 277.888 43.43 278.113 43.235C278.743 42.635 279.778 42.11 280.993 42.11ZM280.738 51.725C281.218 51.725 281.578 52.1 281.578 52.565C281.578 53.03 281.218 53.39 280.738 53.39C280.273 53.39 279.898 53.03 279.898 52.565C279.898 52.1 280.273 51.725 280.738 51.725Z" fill="#07BEB8"/>
<path d="M57.9064 89.144C58.6344 89.144 58.8724 89.368 58.8724 90.082V91.328C58.8724 93.204 58.7324 94.8 58.3824 96.396C58.3404 96.648 58.0744 96.774 57.7804 96.718C57.5144 96.676 57.3324 96.48 57.3884 96.242C57.7104 94.59 57.8644 93.022 57.8644 91.51V90.306C57.8644 90.11 57.7804 90.054 57.5984 90.054H50.8644C50.6124 90.054 50.5004 89.844 50.5004 89.592C50.5004 89.34 50.6124 89.144 50.8644 89.144H57.9064ZM60.2864 97.95C60.5384 97.95 60.6504 98.16 60.6504 98.412C60.6504 98.65 60.5384 98.846 60.2864 98.846H49.3384C49.0864 98.846 48.9744 98.65 48.9744 98.412C48.9744 98.16 49.0864 97.95 49.3384 97.95H60.2864ZM68.7726 88.696C70.8586 88.696 71.8526 90.026 71.8526 91.734C71.8526 93.428 70.8586 94.758 68.7726 94.758C66.6866 94.758 65.6926 93.428 65.6926 91.734C65.6926 90.026 66.6866 88.696 68.7726 88.696ZM68.7726 89.578C67.2746 89.578 66.6866 90.558 66.6866 91.734C66.6866 92.896 67.2746 93.89 68.7726 93.89C70.2706 93.89 70.8586 92.896 70.8586 91.734C70.8586 90.558 70.2706 89.578 68.7726 89.578ZM75.1846 88.164C75.4366 88.164 75.6886 88.29 75.6886 88.584V95.234C75.6886 95.528 75.4366 95.654 75.1846 95.654C74.9326 95.654 74.6806 95.528 74.6806 95.234V93.442H72.6786C72.4406 93.442 72.3286 93.246 72.3286 92.994C72.3286 92.756 72.4406 92.56 72.6786 92.56H74.6806V90.964H72.6786C72.4406 90.964 72.3286 90.754 72.3286 90.516C72.3286 90.278 72.4406 90.082 72.6786 90.082H74.6806V88.584C74.6806 88.29 74.9326 88.164 75.1846 88.164ZM74.7226 96.368C75.4506 96.368 75.6886 96.592 75.6886 97.306V100.652C75.6886 100.946 75.4366 101.072 75.1706 101.072C74.9186 101.072 74.6666 100.946 74.6666 100.652V97.502C74.6666 97.32 74.5966 97.25 74.4006 97.25H67.7926C67.5546 97.25 67.4426 97.054 67.4426 96.816C67.4426 96.564 67.5546 96.368 67.7926 96.368H74.7226ZM81.7528 91.006C83.5728 91.006 84.6508 91.762 84.6508 92.98C84.6508 94.198 83.5728 94.954 81.7528 94.954C79.9328 94.954 78.8548 94.198 78.8548 92.98C78.8548 91.762 79.9328 91.006 81.7528 91.006ZM81.7528 87.884C82.0188 87.884 82.2708 88.01 82.2708 88.304V89.298H85.0708C85.3088 89.298 85.4208 89.494 85.4208 89.718C85.4208 89.97 85.3088 90.166 85.0708 90.166H78.2948C78.0568 90.166 77.9448 89.97 77.9448 89.718C77.9448 89.494 78.0568 89.298 78.2948 89.298H81.2348V88.304C81.2348 88.01 81.4868 87.884 81.7528 87.884ZM81.7528 91.79C80.4928 91.79 79.7928 92.252 79.7928 92.98C79.7928 93.708 80.4928 94.17 81.7528 94.17C83.0128 94.17 83.7128 93.708 83.7128 92.98C83.7128 92.252 83.0128 91.79 81.7528 91.79ZM87.2408 88.164C87.4928 88.164 87.7448 88.29 87.7448 88.584V91.16H89.5228C89.7748 91.16 89.8868 91.37 89.8868 91.608C89.8868 91.86 89.7748 92.07 89.5228 92.07H87.7448V94.828C87.7448 95.122 87.4928 95.248 87.2408 95.248C86.9748 95.248 86.7368 95.122 86.7368 94.828V88.584C86.7368 88.29 86.9748 88.164 87.2408 88.164ZM86.7788 95.948C87.5068 95.948 87.7448 96.172 87.7448 96.886V97.894C87.7448 98.608 87.5068 98.832 86.7788 98.832H81.1928C81.0388 98.832 80.9688 98.888 80.9688 99.056V99.896C80.9688 100.05 81.0388 100.12 81.1928 100.12H87.7448C87.9688 100.12 88.0808 100.316 88.0808 100.512C88.0808 100.736 87.9688 100.932 87.7448 100.932H80.9408C80.2128 100.932 79.9748 100.708 79.9748 99.994V98.986C79.9748 98.272 80.2128 98.048 80.9408 98.048H86.5268C86.6948 98.048 86.7648 97.978 86.7648 97.824V96.984C86.7648 96.816 86.6948 96.76 86.5268 96.76H80.2828C80.0588 96.76 79.9468 96.564 79.9468 96.34C79.9468 96.144 80.0588 95.948 80.2828 95.948H86.7788ZM94.4529 88.906C96.5529 88.906 97.6309 90.348 97.6309 93.008C97.6309 95.668 96.5529 97.11 94.4529 97.11C92.3529 97.11 91.2609 95.668 91.2609 93.008C91.2609 90.348 92.3529 88.906 94.4529 88.906ZM94.4529 89.816C92.9269 89.816 92.2689 90.978 92.2689 93.008C92.2689 95.038 92.9269 96.2 94.4529 96.2C95.9789 96.2 96.6369 95.038 96.6369 93.008C96.6369 90.978 95.9789 89.816 94.4529 89.816ZM100.571 88.164C100.837 88.164 101.089 88.29 101.089 88.584V99.728C101.089 100.022 100.837 100.148 100.571 100.148C100.319 100.148 100.067 100.022 100.067 99.728V88.584C100.067 88.29 100.319 88.164 100.571 88.164ZM108.077 89.018C108.343 89.018 108.595 89.144 108.595 89.438V95.71C108.595 95.906 108.665 95.976 108.861 95.976C110.877 95.976 112.543 95.864 114.209 95.64C114.433 95.612 114.587 95.766 114.629 96.018C114.657 96.27 114.559 96.508 114.335 96.536C112.879 96.732 111.143 96.858 108.525 96.858C107.797 96.858 107.559 96.634 107.559 95.92V89.438C107.559 89.144 107.811 89.018 108.077 89.018ZM116.211 88.164C116.477 88.164 116.729 88.29 116.729 88.584V92.49H118.507C118.759 92.49 118.871 92.7 118.871 92.938C118.871 93.19 118.759 93.4 118.507 93.4H116.729V99.728C116.729 100.022 116.477 100.148 116.211 100.148C115.959 100.148 115.707 100.022 115.707 99.728V88.584C115.707 88.29 115.959 88.164 116.211 88.164ZM123.969 88.906C126.167 88.906 127.273 90.208 127.273 91.888C127.273 93.554 126.167 94.856 123.969 94.856C121.771 94.856 120.665 93.554 120.665 91.888C120.665 90.208 121.771 88.906 123.969 88.906ZM123.969 89.788C122.401 89.788 121.659 90.726 121.659 91.888C121.659 93.05 122.401 93.988 123.969 93.988C125.537 93.988 126.279 93.05 126.279 91.888C126.279 90.726 125.537 89.788 123.969 89.788ZM128.015 96.718C128.239 96.69 128.379 96.858 128.407 97.096C128.421 97.348 128.309 97.572 128.099 97.586C125.495 97.81 123.031 97.894 120.231 97.894C119.979 97.894 119.867 97.698 119.867 97.446C119.867 97.208 119.979 96.998 120.231 96.998C122.793 96.998 125.187 96.97 128.015 96.718ZM129.821 88.164C130.073 88.164 130.325 88.29 130.325 88.584V99.728C130.325 100.022 130.073 100.148 129.821 100.148C129.555 100.148 129.317 100.022 129.317 99.728V88.584C129.317 88.29 129.555 88.164 129.821 88.164ZM139.904 88.584C140.17 88.584 140.422 88.71 140.422 89.004V90.516C140.422 91.468 140.702 92.098 141.416 92.686C142.102 93.26 142.732 93.736 143.208 94.072C143.432 94.24 143.432 94.52 143.292 94.716C143.152 94.912 142.9 94.996 142.662 94.828C142.284 94.562 141.654 94.086 141.024 93.568C140.31 93.008 139.988 92.56 139.918 92.28H139.904C139.834 92.574 139.498 93.036 138.784 93.61C138.154 94.114 137.524 94.59 136.922 95.024C136.684 95.192 136.418 95.108 136.278 94.912C136.138 94.73 136.124 94.422 136.362 94.254C137.062 93.764 137.692 93.274 138.392 92.714C139.106 92.112 139.386 91.482 139.386 90.544V89.004C139.386 88.71 139.624 88.584 139.904 88.584ZM145.896 88.164C146.148 88.164 146.4 88.29 146.4 88.584V95.402C146.4 95.696 146.148 95.822 145.896 95.822C145.63 95.822 145.392 95.696 145.392 95.402V91.734H142.886C142.648 91.734 142.536 91.538 142.536 91.286C142.536 91.048 142.648 90.852 142.886 90.852H145.392V88.584C145.392 88.29 145.63 88.164 145.896 88.164ZM142.508 95.99C145.056 95.99 146.498 96.886 146.498 98.552C146.498 100.218 145.056 101.114 142.508 101.114C139.96 101.114 138.532 100.218 138.532 98.552C138.532 96.886 139.96 95.99 142.508 95.99ZM142.508 96.83C140.492 96.83 139.54 97.488 139.54 98.552C139.54 99.616 140.492 100.274 142.508 100.274C144.538 100.274 145.49 99.616 145.49 98.552C145.49 97.488 144.538 96.83 142.508 96.83ZM152.464 91.342C154.284 91.342 155.362 92.21 155.362 93.526C155.362 94.842 154.284 95.71 152.464 95.71C150.644 95.71 149.566 94.842 149.566 93.526C149.566 92.21 150.644 91.342 152.464 91.342ZM152.464 88.024C152.73 88.024 152.982 88.15 152.982 88.444V89.55H155.768C156.02 89.55 156.132 89.746 156.132 89.984C156.132 90.222 156.02 90.432 155.768 90.432H149.02C148.768 90.432 148.656 90.222 148.656 89.984C148.656 89.746 148.768 89.55 149.02 89.55H151.946V88.444C151.946 88.15 152.212 88.024 152.464 88.024ZM152.464 92.168C151.204 92.168 150.504 92.714 150.504 93.526C150.504 94.338 151.204 94.884 152.464 94.884C153.724 94.884 154.424 94.338 154.424 93.526C154.424 92.714 153.724 92.168 152.464 92.168ZM157.952 88.164C158.204 88.164 158.456 88.29 158.456 88.584V90.418H160.15C160.388 90.418 160.5 90.628 160.5 90.866C160.5 91.104 160.388 91.3 160.15 91.3H158.456V92.84H160.15C160.388 92.84 160.5 93.036 160.5 93.274C160.5 93.512 160.388 93.708 160.15 93.708H158.456V95.934C158.456 96.228 158.204 96.354 157.952 96.354C157.686 96.354 157.448 96.228 157.448 95.934V88.584C157.448 88.29 157.686 88.164 157.952 88.164ZM154.676 96.522C157.168 96.522 158.554 97.292 158.554 98.818C158.554 100.358 157.168 101.114 154.676 101.114C152.184 101.114 150.798 100.358 150.798 98.818C150.798 97.292 152.184 96.522 154.676 96.522ZM154.676 97.362C152.716 97.362 151.806 97.908 151.806 98.818C151.806 99.742 152.716 100.288 154.676 100.288C156.636 100.288 157.546 99.742 157.546 98.818C157.546 97.908 156.636 97.362 154.676 97.362ZM167.25 88.318C169.896 88.318 171.394 89.018 171.394 90.502C171.394 91.972 169.896 92.672 167.25 92.672C164.604 92.672 163.106 91.972 163.106 90.502C163.106 89.018 164.604 88.318 167.25 88.318ZM167.25 89.158C165.122 89.158 164.128 89.62 164.128 90.502C164.128 91.37 165.122 91.846 167.25 91.846C169.378 91.846 170.372 91.37 170.372 90.502C170.372 89.62 169.378 89.158 167.25 89.158ZM172.738 93.764C172.976 93.764 173.088 93.96 173.088 94.198C173.088 94.436 172.976 94.632 172.738 94.632H161.762C161.524 94.632 161.412 94.436 161.412 94.198C161.412 93.96 161.524 93.764 161.762 93.764H172.738ZM170.442 95.948C171.17 95.948 171.408 96.172 171.408 96.886V97.922C171.408 98.636 171.17 98.86 170.442 98.86H164.296C164.142 98.86 164.072 98.916 164.072 99.084V99.952C164.072 100.106 164.142 100.162 164.296 100.162H171.422C171.646 100.162 171.744 100.358 171.744 100.568C171.744 100.792 171.646 100.988 171.422 100.988H164.044C163.316 100.988 163.078 100.764 163.078 100.05V99C163.078 98.286 163.316 98.062 164.044 98.062H170.19C170.358 98.062 170.428 98.006 170.428 97.852V96.984C170.428 96.83 170.358 96.76 170.19 96.76H163.386C163.162 96.76 163.05 96.578 163.05 96.354C163.05 96.144 163.162 95.948 163.386 95.948H170.442ZM178.704 88.878C178.956 88.878 179.208 89.004 179.208 89.284V91.23H182.974V89.284C182.974 89.004 183.226 88.878 183.478 88.878C183.744 88.878 183.982 89.004 183.982 89.284V94.198C183.982 94.912 183.744 95.136 183.016 95.136H179.166C178.438 95.136 178.2 94.912 178.2 94.198V89.284C178.2 89.004 178.452 88.878 178.704 88.878ZM179.208 94.002C179.208 94.198 179.278 94.268 179.474 94.268H182.708C182.904 94.268 182.974 94.198 182.974 94.002V92.098H179.208V94.002ZM186.922 88.164C187.188 88.164 187.44 88.29 187.44 88.584V91.832H189.218C189.47 91.832 189.582 92.042 189.582 92.294C189.582 92.532 189.47 92.742 189.218 92.742H187.44V97.124C187.44 97.418 187.188 97.544 186.922 97.544C186.67 97.544 186.418 97.418 186.418 97.124V88.584C186.418 88.29 186.67 88.164 186.922 88.164ZM180.16 96.536C180.426 96.536 180.678 96.662 180.678 96.956V99.616C180.678 99.798 180.748 99.868 180.944 99.868H187.44C187.692 99.868 187.804 100.078 187.804 100.316C187.804 100.554 187.692 100.764 187.44 100.764H180.608C179.88 100.764 179.642 100.54 179.642 99.826V96.956C179.642 96.662 179.894 96.536 180.16 96.536ZM193.952 88.696C196.038 88.696 197.032 90.026 197.032 91.734C197.032 93.428 196.038 94.758 193.952 94.758C191.866 94.758 190.872 93.428 190.872 91.734C190.872 90.026 191.866 88.696 193.952 88.696ZM193.952 89.578C192.454 89.578 191.866 90.558 191.866 91.734C191.866 92.896 192.454 93.89 193.952 93.89C195.45 93.89 196.038 92.896 196.038 91.734C196.038 90.558 195.45 89.578 193.952 89.578ZM200.364 88.164C200.616 88.164 200.868 88.29 200.868 88.584V95.402C200.868 95.696 200.616 95.822 200.364 95.822C200.112 95.822 199.86 95.696 199.86 95.402V93.442H197.858C197.62 93.442 197.508 93.246 197.508 92.994C197.508 92.756 197.62 92.56 197.858 92.56H199.86V90.964H197.858C197.62 90.964 197.508 90.754 197.508 90.516C197.508 90.278 197.62 90.082 197.858 90.082H199.86V88.584C199.86 88.29 200.112 88.164 200.364 88.164ZM196.976 95.99C199.524 95.99 200.966 96.886 200.966 98.552C200.966 100.218 199.524 101.114 196.976 101.114C194.428 101.114 193 100.218 193 98.552C193 96.886 194.428 95.99 196.976 95.99ZM196.976 96.83C194.96 96.83 194.008 97.488 194.008 98.552C194.008 99.616 194.96 100.274 196.976 100.274C199.006 100.274 199.958 99.616 199.958 98.552C199.958 97.488 199.006 96.83 196.976 96.83ZM206.932 91.006C208.752 91.006 209.83 91.762 209.83 92.98C209.83 94.198 208.752 94.954 206.932 94.954C205.112 94.954 204.034 94.198 204.034 92.98C204.034 91.762 205.112 91.006 206.932 91.006ZM206.932 87.884C207.198 87.884 207.45 88.01 207.45 88.304V89.298H210.25C210.488 89.298 210.6 89.494 210.6 89.718C210.6 89.97 210.488 90.166 210.25 90.166H203.474C203.236 90.166 203.124 89.97 203.124 89.718C203.124 89.494 203.236 89.298 203.474 89.298H206.414V88.304C206.414 88.01 206.666 87.884 206.932 87.884ZM206.932 91.79C205.672 91.79 204.972 92.252 204.972 92.98C204.972 93.708 205.672 94.17 206.932 94.17C208.192 94.17 208.892 93.708 208.892 92.98C208.892 92.252 208.192 91.79 206.932 91.79ZM212.42 88.164C212.672 88.164 212.924 88.29 212.924 88.584V91.16H214.702C214.954 91.16 215.066 91.37 215.066 91.608C215.066 91.86 214.954 92.07 214.702 92.07H212.924V94.828C212.924 95.122 212.672 95.248 212.42 95.248C212.154 95.248 211.916 95.122 211.916 94.828V88.584C211.916 88.29 212.154 88.164 212.42 88.164ZM211.958 95.948C212.686 95.948 212.924 96.172 212.924 96.886V97.894C212.924 98.608 212.686 98.832 211.958 98.832H206.372C206.218 98.832 206.148 98.888 206.148 99.056V99.896C206.148 100.05 206.218 100.12 206.372 100.12H212.924C213.148 100.12 213.26 100.316 213.26 100.512C213.26 100.736 213.148 100.932 212.924 100.932H206.12C205.392 100.932 205.154 100.708 205.154 99.994V98.986C205.154 98.272 205.392 98.048 206.12 98.048H211.706C211.874 98.048 211.944 97.978 211.944 97.824V96.984C211.944 96.816 211.874 96.76 211.706 96.76H205.462C205.238 96.76 205.126 96.564 205.126 96.34C205.126 96.144 205.238 95.948 205.462 95.948H211.958ZM225.219 88.486C225.485 88.486 225.737 88.626 225.737 88.92V89.788C225.737 90.796 226.227 91.426 227.165 91.916C228.215 92.462 229.069 92.882 229.867 93.26C230.119 93.372 230.133 93.68 230.035 93.876C229.937 94.1 229.713 94.24 229.447 94.114C228.537 93.694 227.669 93.26 226.787 92.784C225.751 92.238 225.317 91.734 225.233 91.37H225.219C225.135 91.748 224.701 92.252 223.665 92.798C222.783 93.274 221.901 93.708 221.005 94.128C220.739 94.254 220.501 94.1 220.403 93.89C220.305 93.68 220.319 93.372 220.571 93.26C221.369 92.882 222.223 92.462 223.273 91.916C224.211 91.426 224.701 90.796 224.701 89.788V88.92C224.701 88.626 224.953 88.486 225.219 88.486ZM230.693 95.612C230.945 95.612 231.057 95.808 231.057 96.06C231.057 96.298 230.945 96.494 230.693 96.494H225.737V100.708C225.737 101.002 225.485 101.128 225.219 101.128C224.967 101.128 224.715 101.002 224.715 100.708V96.494H219.745C219.493 96.494 219.381 96.298 219.381 96.06C219.381 95.808 219.493 95.612 219.745 95.612H230.693ZM239.347 88.696C241.489 88.696 242.511 89.984 242.511 91.664C242.511 93.33 241.489 94.618 239.347 94.618C237.205 94.618 236.183 93.33 236.183 91.664C236.183 89.984 237.205 88.696 239.347 88.696ZM239.347 89.564C237.793 89.564 237.177 90.53 237.177 91.664C237.177 92.798 237.793 93.75 239.347 93.75C240.901 93.75 241.517 92.798 241.517 91.664C241.517 90.53 240.901 89.564 239.347 89.564ZM245.507 88.164C245.759 88.164 246.011 88.29 246.011 88.584V94.954C246.011 95.248 245.759 95.374 245.507 95.374C245.241 95.374 244.989 95.248 244.989 94.954V88.584C244.989 88.29 245.241 88.164 245.507 88.164ZM239.767 95.794C240.019 95.794 240.257 95.92 240.257 96.214V96.97C240.257 97.894 240.411 98.23 241.055 98.958C241.293 99.224 241.573 99.532 241.825 99.756C241.979 99.91 242.091 99.91 242.259 99.756C242.497 99.532 242.791 99.224 243.029 98.958C243.659 98.23 243.813 97.894 243.813 96.97V96.214C243.813 95.92 244.065 95.794 244.317 95.794C244.569 95.794 244.821 95.92 244.821 96.214V96.97C244.821 97.908 244.989 98.272 245.745 98.958C246.095 99.294 246.613 99.7 247.117 100.078C247.299 100.218 247.299 100.47 247.145 100.68C246.977 100.876 246.739 100.932 246.515 100.764C246.039 100.4 245.619 100.05 245.297 99.77C244.653 99.21 244.401 98.902 244.317 98.622H244.303C244.219 98.916 244.009 99.168 243.379 99.84C243.141 100.092 242.903 100.33 242.665 100.554C242.189 100.988 241.895 100.988 241.405 100.554C241.167 100.33 240.943 100.092 240.691 99.84C240.061 99.168 239.865 98.916 239.781 98.622H239.767C239.683 98.916 239.431 99.224 238.773 99.784C238.465 100.05 238.031 100.414 237.555 100.778C237.345 100.932 237.093 100.89 236.939 100.68C236.771 100.484 236.785 100.218 236.953 100.078C237.471 99.7 237.975 99.294 238.339 98.958C239.095 98.272 239.263 97.908 239.263 96.97V96.214C239.263 95.92 239.515 95.794 239.767 95.794ZM258.333 88.164C258.585 88.164 258.837 88.29 258.837 88.584V99.728C258.837 100.022 258.585 100.148 258.333 100.148C258.067 100.148 257.829 100.022 257.829 99.728V93.442H255.113C255.001 95.822 253.951 97.096 251.991 97.096C249.919 97.096 248.841 95.668 248.841 93.008C248.841 90.348 249.919 88.92 251.991 88.92C253.937 88.92 255.001 90.194 255.113 92.56H257.829V88.584C257.829 88.29 258.067 88.164 258.333 88.164ZM251.991 89.83C250.493 89.83 249.849 90.978 249.849 93.008C249.849 95.038 250.493 96.186 251.991 96.186C253.489 96.186 254.133 95.038 254.133 93.008C254.133 90.978 253.489 89.83 251.991 89.83ZM266.945 88.682C269.619 88.682 271.131 89.914 271.131 91.93C271.131 93.946 269.619 95.178 266.945 95.178C264.271 95.178 262.759 93.946 262.759 91.93C262.759 89.914 264.271 88.682 266.945 88.682ZM266.945 89.55C264.803 89.55 263.781 90.558 263.781 91.93C263.781 93.288 264.803 94.296 266.945 94.296C269.087 94.296 270.109 93.288 270.109 91.93C270.109 90.558 269.087 89.55 266.945 89.55ZM264.719 95.5C264.999 95.5 265.237 95.626 265.237 95.92V97.978H268.653V95.92C268.653 95.626 268.891 95.5 269.157 95.5C269.423 95.5 269.675 95.626 269.675 95.92V97.978H272.433C272.671 97.978 272.783 98.174 272.783 98.412C272.783 98.65 272.671 98.846 272.433 98.846H261.457C261.219 98.846 261.107 98.65 261.107 98.412C261.107 98.174 261.219 97.978 261.457 97.978H264.215V95.92C264.215 95.626 264.467 95.5 264.719 95.5ZM274.927 97.782C275.389 97.782 275.725 98.132 275.725 98.58C275.725 99.014 275.389 99.364 274.927 99.364C274.479 99.364 274.129 99.014 274.129 98.58C274.129 98.132 274.479 97.782 274.927 97.782Z" fill="#808983"/>
</svg>
