<svg viewBox="0 0 375 648" fill="none" xmlns="http://www.w3.org/2000/svg">
<g clip-path="url(#clip0_2182_24246)">
<path d="M0 36C0 16.1178 16.1177 0 36 0H339C358.882 0 375 16.1177 375 36V648H0V36Z" fill="#FFFDFA"/>
<circle cx="188" cy="418" r="203.5" stroke="url(#paint0_linear_2182_24246)" stroke-dasharray="4 4"/>
<g filter="url(#filter0_d_2182_24246)">
<path d="M66.2744 586.748C64.8995 591.201 59.2891 592.473 56.1757 589.039L41.5818 572.942C38.4684 569.508 40.187 563.942 44.6753 562.924L65.7142 558.151C70.2025 557.133 74.0943 561.426 72.7193 565.878L66.2744 586.748Z" fill="url(#paint1_linear_2182_24246)"/>
</g>
<g filter="url(#filter1_d_2182_24246)">
<path d="M314.683 553.646C310.937 556.603 305.367 554.45 304.659 549.771L301.072 526.083C300.363 521.403 305.046 517.708 309.502 519.431L332.057 528.151C336.513 529.874 337.398 535.723 333.652 538.679L314.683 553.646Z" fill="url(#paint2_linear_2182_24246)"/>
</g>
<g filter="url(#filter2_d_2182_24246)">
<path d="M52.7887 264.931C50.2332 264.485 49.1239 261.463 50.7921 259.493L62.0522 246.194C63.7203 244.224 66.9148 244.783 67.8021 247.2L73.7921 263.514C74.6795 265.931 72.5943 268.394 70.0387 267.947L52.7887 264.931Z" fill="url(#paint3_linear_2182_24246)"/>
</g>
<g filter="url(#filter3_d_2182_24246)">
<path d="M349 284.5C349 288.642 345.642 292 341.5 292C337.358 292 334 288.642 334 284.5C334 280.358 337.358 277 341.5 277C345.642 277 349 280.358 349 284.5Z" fill="url(#paint4_linear_2182_24246)"/>
</g>
<rect width="375" height="65.9979" transform="translate(0 10)" fill="#FFFDFA"/>
<path d="M105.708 55.2689C105.536 55.1135 105.31 55.0326 105.078 55.0438C104.847 55.0549 104.629 55.1573 104.473 55.3284C103.4 56.5114 102.102 56.9361 100.909 56.5114C100.319 56.2916 99.81 55.8979 99.4488 55.3824C100.053 55.313 100.635 55.114 101.156 54.7989C101.676 54.4838 102.122 54.0601 102.464 53.5567C103.383 52.1918 103.463 50.2415 102.654 48.9203C102.474 48.6168 102.232 48.3552 101.943 48.1531C101.654 47.951 101.325 47.8131 100.979 47.7485C100.591 47.686 100.195 47.7059 99.8154 47.807C99.436 47.908 99.0821 48.0879 98.7769 48.335C97.5176 49.3135 96.7986 51.1526 96.9008 53.1332C97.0255 55.4992 98.3613 57.4776 100.318 58.173C100.803 58.3447 101.313 58.4317 101.827 58.4303C103.234 58.4303 104.636 57.7641 105.774 56.5103C105.851 56.4246 105.911 56.3245 105.949 56.2156C105.988 56.1068 106.005 55.9914 105.999 55.8761C105.993 55.7607 105.964 55.6477 105.914 55.5435C105.864 55.4393 105.794 55.346 105.708 55.2689ZM98.7826 53.6466H98.7275C98.692 53.4445 98.6688 53.2404 98.6579 53.0355C98.5871 51.6637 99.0679 50.3302 99.8566 49.7179C99.9675 49.6243 100.096 49.5543 100.235 49.5122C100.374 49.4701 100.52 49.4568 100.664 49.473C100.767 49.4943 100.864 49.538 100.948 49.6012C101.032 49.6643 101.101 49.7452 101.15 49.8381C101.593 50.5639 101.526 51.7907 101 52.5737C100.761 52.9236 100.436 53.206 100.056 53.3939C99.6759 53.5818 99.2541 53.6688 98.8309 53.6466H98.7826Z" fill="#07BEB8"/>
<path d="M93.8982 48.1788C93.6228 47.9699 93.3009 47.831 92.96 47.7741C92.6191 47.7171 92.2695 47.7438 91.9412 47.8518C91.3136 48.0804 90.7829 48.5163 90.4369 49.0876C90.0907 48.5166 89.5601 48.0807 88.9327 47.8518C88.6039 47.7432 88.2537 47.7163 87.9121 47.7732C87.5706 47.8302 87.2481 47.9694 86.9723 48.1788C85.5467 49.2146 85.3288 51.0582 85.1839 52.2782C84.9996 53.8364 84.821 55.68 84.8974 57.5494C84.9067 57.7763 85.0033 57.9907 85.167 58.1479C85.3307 58.3052 85.5489 58.393 85.7759 58.3931H85.8118C85.9271 58.3885 86.0404 58.3612 86.1452 58.3128C86.2499 58.2644 86.3441 58.1958 86.4223 58.111C86.5006 58.0262 86.5613 57.9268 86.6012 57.8185C86.641 57.7102 86.6591 57.5951 86.6544 57.4798C86.5836 55.7328 86.7544 53.9757 86.9308 52.4872C87.0746 51.275 87.2678 50.1425 88.007 49.6022C88.0561 49.5559 88.117 49.524 88.183 49.5102C88.249 49.4963 88.3175 49.5009 88.3811 49.5235C88.6709 49.619 88.9934 49.9999 89.1158 50.3908C89.2383 50.7818 89.2697 51.548 89.3 52.2288C89.3416 53.1646 89.3798 54.0465 89.6067 54.6936C89.6667 54.8659 89.7788 55.0152 89.9275 55.1208C90.0761 55.2265 90.254 55.2832 90.4364 55.2832C90.6188 55.2832 90.7966 55.2265 90.9453 55.1208C91.0939 55.0152 91.206 54.8659 91.266 54.6936C91.4907 54.0465 91.5323 53.1646 91.5727 52.2299C91.603 51.548 91.6379 50.7762 91.7581 50.3908C91.8783 50.0055 92.2074 49.619 92.4928 49.5235C92.5564 49.5009 92.6251 49.4964 92.6911 49.5105C92.7572 49.5246 92.818 49.5567 92.8669 49.6033C93.6095 50.1425 93.7993 51.275 93.9431 52.4872C94.1195 53.9757 94.2903 55.7328 94.2195 57.4798C94.2148 57.5951 94.2329 57.7102 94.2727 57.8185C94.3126 57.9268 94.3733 58.0262 94.4516 58.111C94.5298 58.1958 94.624 58.2644 94.7287 58.3128C94.8335 58.3612 94.9467 58.3885 95.062 58.3931H95.098C95.325 58.393 95.5432 58.3052 95.7069 58.1479C95.8706 57.9907 95.9672 57.7763 95.9765 57.5494C96.0529 55.68 95.8743 53.8364 95.69 52.2782C95.5417 51.0582 95.3238 49.2146 93.8982 48.1788Z" fill="#07BEB8"/>
<path d="M35.4454 54.5297C35.3363 54.4908 35.2207 54.4738 35.105 54.4799C34.9894 54.4859 34.8761 54.5147 34.7716 54.5648C34.6672 54.6148 34.5737 54.685 34.4965 54.7713C34.4194 54.8577 34.36 54.9584 34.322 55.0678C34.1891 55.4306 33.9731 55.7572 33.6911 56.0213C33.4092 56.2855 33.0693 56.4799 32.6987 56.5889C32.3501 56.6913 31.9819 56.707 31.6259 56.6345C31.2699 56.5621 30.9371 56.4037 30.6563 56.1733C30.4701 56.0171 30.3232 55.8192 30.2276 55.5958C30.1319 55.3723 30.0902 55.1295 30.1058 54.8869C30.1766 52.4839 30.608 50.1988 31.1776 47.9002C30.5956 47.8133 30.0133 47.7242 29.4306 47.6328C28.8566 49.9774 28.4196 52.3255 28.3477 54.8352C28.3224 55.3524 28.4196 55.8682 28.6314 56.3406C28.8432 56.8131 29.1637 57.2288 29.5666 57.554C30.0669 57.9575 30.6573 58.234 31.2876 58.36C31.9179 58.486 32.5693 58.4577 33.1862 58.2775C33.8269 58.093 34.4144 57.7586 34.9002 57.3021C35.386 56.8456 35.7562 56.2799 35.9802 55.652C36.0579 55.4322 36.0453 55.1906 35.945 54.9802C35.8447 54.7697 35.6651 54.6077 35.4454 54.5297Z" fill="#07BEB8"/>
<path d="M33.8323 46.9035C35.6837 46.8115 37.4964 46.3392 39.1573 45.5161C40.0302 45.0723 40.9155 44.5387 41.3176 43.3636C41.4472 42.9645 41.4708 42.5387 41.3862 42.1278C40.8132 42.2469 40.2392 42.3611 39.664 42.4704C39.6874 42.5778 39.684 42.6894 39.6539 42.7951C39.4786 43.3051 39.0922 43.5748 38.3586 43.95C36.9184 44.6564 35.35 45.0635 33.7481 45.1465C33.1389 45.1753 32.5285 45.1671 31.9203 45.1218C32.009 44.8027 32.0967 44.4836 32.1876 44.1623C32.3494 43.5815 32.5146 42.9939 32.6775 42.3963C33.3729 39.8337 34.8715 37.9059 37.5261 36.1409C39.3 34.9624 41.0278 33.7716 42.6759 32.165C42.9623 31.8853 43.1657 31.7876 43.251 31.764C43.3246 31.9342 43.3585 32.119 43.3499 32.3043C43.3443 34.3603 41.6704 36.1859 39.537 36.4611C39.4225 36.4759 39.3121 36.513 39.212 36.5705C39.1118 36.6279 39.024 36.7045 38.9535 36.7959C38.883 36.8873 38.8312 36.9916 38.801 37.1031C38.7708 37.2145 38.7628 37.3308 38.7776 37.4452C38.7924 37.5597 38.8295 37.6702 38.887 37.7703C38.9444 37.8704 39.021 37.9583 39.1124 38.0288C39.2038 38.0993 39.3081 38.1511 39.4195 38.1813C39.531 38.2115 39.6472 38.2194 39.7617 38.2047C42.7534 37.8205 45.1024 35.232 45.1103 32.31C45.1103 31.0742 44.507 30.1754 43.5667 30.0226C42.8927 29.9103 42.1546 30.2181 41.4491 30.9068C39.9078 32.4055 38.2541 33.5458 36.5566 34.6759C33.5593 36.6656 31.7877 38.9698 30.9766 41.9267C30.8137 42.521 30.6497 43.1052 30.489 43.6826C30.3767 44.0871 30.2644 44.4859 30.152 44.8847C28.6994 44.6083 27.3592 44.1342 26.3324 43.4905C26.1348 43.3719 25.8986 43.3355 25.6746 43.3893C25.4505 43.443 25.2564 43.5825 25.1341 43.7778C25.0118 43.9731 24.971 44.2086 25.0205 44.4337C25.07 44.6587 25.2059 44.8554 25.3988 44.9813C27.3716 46.2171 30.1531 46.9193 32.9763 46.9193C33.2605 46.9249 33.547 46.9181 33.8323 46.9035Z" fill="#07BEB8"/>
<path d="M41.5949 39.2548C41.1144 39.5962 40.5587 39.8167 39.9749 39.8974C39.3334 40.0098 38.6852 40.0042 37.9741 40.0098C37.7408 40.0098 37.5171 40.1024 37.3521 40.2674C37.1872 40.4324 37.0945 40.6561 37.0945 40.8894C37.0945 41.1227 37.1872 41.3465 37.3521 41.5114C37.5171 41.6764 37.7408 41.7691 37.9741 41.7691H38.1123C38.832 41.7841 39.5517 41.7383 40.2636 41.632C41.2163 41.4725 42.024 41.1411 42.6644 40.649C43.4923 40.012 44.0001 39.0987 44.0203 38.2066C44.0278 37.8301 43.945 37.4572 43.7788 37.1191C43.2725 37.4449 42.7636 37.7681 42.2521 38.0887C42.257 38.1139 42.2604 38.1394 42.2622 38.1651C42.2566 38.5201 41.9937 38.9481 41.5949 39.2548Z" fill="#07BEB8"/>
<path d="M80.9775 54.7275C81.0094 54.4459 81.0061 54.1613 80.9674 53.8805C80.9674 53.8299 80.9674 53.7805 80.9674 53.7299C80.9505 51.9987 80.9326 50.036 80.7427 48.5969C80.7117 48.3658 80.5902 48.1565 80.4049 48.0151C80.2196 47.8736 79.9857 47.8115 79.7547 47.8425C79.5236 47.8735 79.3143 47.995 79.1728 48.1803C79.0314 48.3656 78.9693 48.5995 79.0003 48.8306C79.0216 48.9946 79.0407 49.1676 79.0587 49.3462C78.541 49.0269 77.9447 48.8581 77.3365 48.8587C75.3548 48.8587 73.7416 50.6697 73.7416 52.8963C73.7416 54.0411 74.2977 55.2803 75.0638 55.8431C75.1569 55.9115 75.2625 55.9609 75.3747 55.9884C75.4868 56.016 75.6033 56.0211 75.7175 56.0036C75.8316 55.9861 75.9412 55.9462 76.0399 55.8863C76.1387 55.8264 76.2246 55.7476 76.2928 55.6544C76.3611 55.5611 76.4102 55.4553 76.4375 55.343C76.4648 55.2307 76.4696 55.1142 76.4518 55C76.4339 54.8858 76.3937 54.7763 76.3335 54.6777C76.2733 54.5791 76.1942 54.4933 76.1007 54.4253C75.8536 54.2445 75.4963 53.5951 75.4963 52.8963C75.4963 51.6403 76.3243 50.618 77.341 50.618C78.3577 50.618 79.1845 51.6403 79.1845 52.8963C79.1851 52.9476 79.1904 52.9988 79.2002 53.0491C79.2002 53.2839 79.2059 53.5176 79.2081 53.7468C79.2081 54.0333 79.2081 54.3085 79.2171 54.5882C79.1616 54.9224 79.0047 55.2315 78.7677 55.4735C78.0105 56.2858 76.6085 56.6599 75.6559 56.597C74.0763 56.4846 72.8867 55.387 72.6957 53.8524C72.6496 53.476 72.6339 53.066 72.617 52.6413C72.5507 50.9483 72.4508 48.3913 69.4344 48.07C68.5125 47.9769 67.5844 48.1703 66.7764 48.6239C66.748 48.399 66.6336 48.1938 66.4573 48.0514C66.281 47.909 66.0564 47.8403 65.8306 47.8597C65.6048 47.8792 65.3953 47.9853 65.2459 48.1558C65.0966 48.3263 65.019 48.548 65.0295 48.7744C65.0632 49.3912 65.0733 50.2349 65.0632 51.0707C65.0462 51.2056 65.0372 51.3414 65.0362 51.4774C65.0361 51.5351 65.0417 51.5927 65.0531 51.6493C65.0407 52.2043 65.0182 52.7323 64.9879 53.1558C64.9677 53.4434 64.9654 53.7524 64.9632 54.0703C64.9632 54.9691 64.9553 55.9027 64.4386 56.3408C64.3189 56.445 64.1782 56.522 64.0259 56.5666C63.8737 56.6112 63.7136 56.6224 63.5567 56.5992C63.3675 56.5698 63.1865 56.5014 63.0251 56.3986C62.8636 56.2957 62.7253 56.1605 62.6186 56.0015C62.0682 55.187 61.976 54.0748 61.9232 52.9098C61.885 52.0728 61.8873 51.2112 61.8907 50.3776C61.8907 49.7866 61.8907 49.1957 61.8828 48.6048C61.8828 48.5722 61.8749 48.5418 61.8716 48.5104C61.8682 48.4789 61.8716 48.461 61.8626 48.4374C61.8519 48.3857 61.8361 48.3353 61.8154 48.2868C61.8155 48.2842 61.8155 48.2816 61.8154 48.279C61.753 48.1189 61.6432 47.9818 61.5006 47.886C61.358 47.7902 61.1895 47.7403 61.0178 47.7431H60.9886C60.9593 47.7431 60.9324 47.7498 60.9032 47.7532C60.874 47.7566 60.847 47.7532 60.82 47.7633C60.7931 47.7734 60.765 47.7801 60.738 47.7891C60.7111 47.7981 60.6819 47.8049 60.656 47.8161C60.6313 47.8279 60.6073 47.841 60.5841 47.8554C60.5583 47.87 60.5313 47.8824 60.5066 47.8992C60.4819 47.9161 60.4662 47.9329 60.4459 47.9498C60.4257 47.9666 60.3988 47.9869 60.3774 48.0071C60.3561 48.0273 60.3448 48.0487 60.3269 48.0689C60.3089 48.0891 60.2887 48.1138 60.2718 48.1385C60.255 48.1632 60.246 48.1868 60.2325 48.2116C60.2178 48.2362 60.2047 48.2617 60.1932 48.2879C60.1819 48.316 60.1752 48.3452 60.1662 48.3733C60.1572 48.4014 60.1482 48.4261 60.1426 48.4531C60.1379 48.4851 60.1349 48.5174 60.1336 48.5497C60.1336 48.5744 60.1258 48.598 60.1258 48.6227C60.1258 50.5393 59.9505 52.1975 59.591 53.6951C59.1417 55.5499 58.5024 56.4711 57.5689 56.5936C56.8701 56.6846 56.268 56.3577 55.7164 55.5634C56.3218 54.7204 56.8129 53.8009 57.1768 52.8289C57.5857 51.7441 57.8545 50.6115 57.9767 49.4586C58.2014 47.451 57.9834 45.6692 57.3453 44.1638C56.8578 43.0145 56.0511 42.355 55.1311 42.355C54.5569 42.3731 54.0126 42.615 53.6145 43.0291C53.0303 43.5987 52.7517 44.3458 52.5753 44.9322C51.8058 47.4757 51.8833 50.3618 52.8 53.2805C53.0108 53.9886 53.2706 54.6812 53.5774 55.3533C53.0438 55.8964 52.3843 56.2993 51.6575 56.5262C50.2319 56.9464 48.7961 56.5633 47.9008 55.5757C49.5601 53.3974 50.3139 50.3371 50.4374 47.651C50.4768 46.8061 50.4925 45.8152 50.3094 44.8738C49.9577 43.0617 48.8691 42.0169 47.5424 42.218C45.6326 42.5044 44.69 44.8715 44.4676 46.8117C44.2924 48.325 44.4193 49.8877 44.5496 51.0808C44.7372 52.8064 45.1113 54.2265 45.6933 55.3859C45.2528 55.7894 44.7437 56.1108 44.1901 56.3352C42.8611 56.8655 41.4097 56.7947 40.402 56.1498C40.1004 55.9578 39.8363 55.7127 39.6223 55.4263C40.2316 55.359 40.819 55.1599 41.3438 54.8429C41.8685 54.526 42.318 54.0986 42.6612 53.5906C43.5801 52.2256 43.6599 50.2753 42.851 48.9553C42.6727 48.6514 42.4316 48.3891 42.1436 48.186C41.8557 47.983 41.5277 47.8438 41.1816 47.7779C40.7938 47.7162 40.3974 47.7365 40.0179 47.8375C39.6385 47.9385 39.2844 48.118 38.9786 48.3643C37.7193 49.344 37.0014 51.1819 37.1036 53.1626C37.2362 55.6937 38.4517 56.9823 39.4527 57.6249C40.3315 58.1731 41.349 58.4581 42.3848 58.4462C43.2271 58.442 44.0608 58.2777 44.8417 57.9619C45.5142 57.6925 46.1389 57.3165 46.692 56.8486C48.0401 58.2417 50.1431 58.7989 52.1518 58.208C53.0253 57.9455 53.8307 57.4945 54.5109 56.8868C55.2771 57.8395 56.3365 58.5259 57.7947 58.3361C59.2911 58.1406 60.1539 57.0621 60.6583 56.006C60.7875 56.3513 60.9564 56.6804 61.1616 56.9868C61.4054 57.3511 61.7232 57.66 62.0942 57.8934C62.4652 58.1268 62.8812 58.2796 63.3151 58.3417C63.7169 58.3984 64.126 58.369 64.5155 58.2555C64.905 58.142 65.266 57.947 65.5743 57.6833C66.709 56.7217 66.7157 55.2567 66.7213 54.0793C66.7213 53.8018 66.7213 53.5322 66.7404 53.2828C66.782 52.7211 66.8078 51.9886 66.818 51.2404C66.8716 50.9153 67.0378 50.6194 67.2875 50.4045C67.7684 49.9709 68.539 49.7361 69.2502 49.8158C70.632 49.9641 70.7825 50.6843 70.8623 52.7076C70.8791 53.157 70.8971 53.6165 70.9533 54.0658C71.2453 56.4251 73.1316 58.1855 75.539 58.3495C75.6435 58.3563 75.7502 58.3596 75.8615 58.3596C77.0799 58.3476 78.2692 57.9857 79.2879 57.3171C79.3103 58.8191 79.1823 60.338 78.4318 61.3098C77.6814 62.2816 76.3209 62.4029 75.3863 62.085C75.1234 61.9962 74.2628 61.6469 74.2628 60.9189C74.2628 60.6856 74.1702 60.4618 74.0052 60.2968C73.8402 60.1319 73.6165 60.0392 73.3832 60.0392C73.1499 60.0392 72.9262 60.1319 72.7612 60.2968C72.5962 60.4618 72.5036 60.6856 72.5036 60.9189C72.5036 62.1794 73.3899 63.2646 74.8156 63.7499C75.3124 63.9162 75.833 64.0001 76.3569 63.9982C77.5926 63.9982 78.9284 63.5421 79.8215 62.385C81.1056 60.72 81.1089 58.3316 81.0101 56.2228C80.9955 55.7825 80.9854 55.2758 80.9775 54.7275ZM39.028 53.685H38.9157C38.883 53.4826 38.8616 53.2786 38.8517 53.0738C38.7798 51.701 39.2606 50.3674 40.0492 49.7552C40.1599 49.6612 40.2887 49.5909 40.4276 49.5488C40.5666 49.5067 40.7127 49.4935 40.857 49.5103C40.9596 49.5319 41.0563 49.5759 41.1401 49.639C41.224 49.702 41.293 49.7827 41.3423 49.8754C41.7916 50.6011 41.7197 51.8279 41.1929 52.6121C40.9532 52.9605 40.6286 53.2419 40.2498 53.4296C39.8709 53.6174 39.4504 53.7053 39.028 53.685ZM46.292 50.8854C46.1718 49.7833 46.055 48.3464 46.2089 47.0072C46.3707 45.5973 47.0088 44.0694 47.7963 43.9514H47.8367C48.2007 43.9514 48.4771 44.6907 48.5771 45.2063C48.7254 45.9658 48.7096 46.8252 48.6748 47.5656C48.5816 49.6001 48.0569 52.0144 46.938 53.8456C46.6042 52.8888 46.3887 51.8946 46.2965 50.8854H46.292ZM54.8064 53.7243C54.6941 53.4247 54.5817 53.0993 54.4694 52.748C53.9077 50.9505 53.4077 48.2194 54.2503 45.4366C54.3627 45.0513 54.539 44.5716 54.8356 44.2806C54.9121 44.194 55.0146 44.1345 55.1277 44.111C55.2659 44.111 55.5265 44.3862 55.7209 44.8468C56.241 46.0725 56.4106 47.56 56.2242 49.2642C56.1179 50.2691 55.8838 51.2564 55.5276 52.202C55.3301 52.7279 55.0904 53.237 54.8109 53.7243H54.8064Z" fill="#07BEB8"/>
<path d="M61.037 46.8912C61.2382 46.8912 61.435 46.8315 61.6023 46.7196C61.7697 46.6078 61.9001 46.4488 61.9772 46.2628C62.0542 46.0768 62.0743 45.8722 62.0351 45.6747C61.9958 45.4773 61.8989 45.2959 61.7566 45.1536C61.6142 45.0112 61.4329 44.9143 61.2355 44.875C61.0381 44.8358 60.8335 44.8559 60.6475 44.9329C60.4616 45.01 60.3026 45.1404 60.1908 45.3078C60.079 45.4752 60.0193 45.672 60.0193 45.8733C60.0193 46.1433 60.1265 46.4022 60.3174 46.593C60.5082 46.7839 60.7671 46.8912 61.037 46.8912Z" fill="#07BEB8"/>
<path d="M330.903 43.5854C331.072 43.2292 331.269 42.8917 331.494 42.5636L331.456 40.1261C331.456 39.9011 331.55 39.6854 331.728 39.5354C332.6 38.8042 333.594 38.2136 334.691 37.8198C334.906 37.7448 335.141 37.7636 335.328 37.8854L337.419 39.1417C337.812 39.1136 338.206 39.1136 338.6 39.1417L340.691 37.8854C340.887 37.7729 341.122 37.7448 341.337 37.8198C342.406 38.2042 343.409 38.7761 344.3 39.5261C344.469 39.6667 344.572 39.8917 344.562 40.1167L344.525 42.5542C344.75 42.8823 344.947 43.2198 345.116 43.5761L347.244 44.7573C347.441 44.8698 347.581 45.0573 347.619 45.2823C347.816 46.3979 347.825 47.5604 347.619 48.6948C347.581 48.9198 347.441 49.1073 347.244 49.2198L345.116 50.4011C344.947 50.7573 344.75 51.0948 344.525 51.4229L344.562 53.8604C344.562 54.0854 344.469 54.3011 344.291 54.4511C343.419 55.1823 342.425 55.7729 341.328 56.1667C341.112 56.2417 340.878 56.2229 340.691 56.1011L338.6 54.8448C338.206 54.8729 337.812 54.8729 337.419 54.8448L335.328 56.1011C335.131 56.2136 334.897 56.2417 334.681 56.1667C333.612 55.7823 332.609 55.2104 331.719 54.4604C331.55 54.3198 331.447 54.0948 331.456 53.8698L331.494 51.4323C331.269 51.1042 331.072 50.7667 330.903 50.4104L328.775 49.2292C328.578 49.1167 328.437 48.9292 328.4 48.7042C328.203 47.5886 328.194 46.4261 328.4 45.2917C328.437 45.0667 328.578 44.8792 328.775 44.7667L330.903 43.5854Z" stroke="#666F6A" stroke-width="1.5" stroke-miterlimit="10" stroke-linecap="round" stroke-linejoin="round"/>
<path d="M338 51.498C340.485 51.498 342.5 49.4832 342.5 46.998C342.5 44.5127 340.485 42.498 338 42.498C335.515 42.498 333.5 44.5127 333.5 46.998C333.5 49.4832 335.515 51.498 338 51.498Z" stroke="#666F6A" stroke-width="1.5" stroke-miterlimit="10" stroke-linecap="round" stroke-linejoin="round"/>
<g filter="url(#filter4_d_2182_24246)">
<rect x="127" y="118" width="121" height="34" rx="8" fill="#FFFDFA"/>
<path d="M142.492 130.204C144.316 130.204 145.216 131.416 145.216 132.988C145.216 134.572 144.316 135.784 142.492 135.784C140.668 135.784 139.768 134.572 139.768 132.988C139.768 131.416 140.668 130.204 142.492 130.204ZM142.492 131.224C141.352 131.224 140.92 132.028 140.92 132.988C140.92 133.948 141.352 134.764 142.492 134.764C143.632 134.764 144.064 133.948 144.064 132.988C144.064 132.028 143.632 131.224 142.492 131.224ZM147.952 129.664C148.252 129.664 148.54 129.82 148.54 130.168V137.272C148.54 137.62 148.252 137.776 147.952 137.776C147.652 137.776 147.352 137.62 147.352 137.272V134.728H145.96C145.672 134.728 145.552 134.488 145.552 134.212C145.552 133.936 145.672 133.696 145.96 133.696H147.352V132.34H145.96C145.672 132.34 145.552 132.112 145.552 131.824C145.552 131.548 145.672 131.32 145.96 131.32H147.352V130.168C147.352 129.82 147.652 129.664 147.952 129.664ZM142.096 136.768C142.396 136.768 142.696 136.924 142.696 137.272V139.3C142.696 139.48 142.756 139.54 142.948 139.54H148.396C148.696 139.54 148.828 139.78 148.828 140.068C148.828 140.344 148.696 140.584 148.396 140.584H142.408C141.712 140.584 141.484 140.368 141.484 139.684V137.272C141.484 136.924 141.772 136.768 142.096 136.768ZM155.382 129.82C155.706 129.82 155.994 129.976 155.994 130.336V130.804C155.994 131.524 156.354 131.908 157.206 132.304C157.962 132.64 158.622 132.928 159.33 133.204C159.582 133.312 159.618 133.624 159.522 133.876C159.438 134.116 159.174 134.296 158.886 134.188C158.25 133.936 157.554 133.636 156.894 133.348C155.838 132.868 155.478 132.508 155.394 132.208H155.382C155.298 132.544 154.938 132.892 153.87 133.372C153.21 133.66 152.538 133.96 151.914 134.2C151.602 134.32 151.35 134.152 151.242 133.9C151.134 133.648 151.158 133.312 151.434 133.204C152.142 132.928 152.802 132.64 153.558 132.304C154.41 131.908 154.77 131.524 154.77 130.804V130.336C154.77 129.976 155.058 129.82 155.382 129.82ZM155.382 133.72C155.682 133.72 155.97 133.864 155.97 134.212V135.184H160.014C160.29 135.184 160.422 135.412 160.422 135.688C160.422 135.964 160.29 136.192 160.014 136.192H150.75C150.474 136.192 150.342 135.964 150.342 135.688C150.342 135.412 150.474 135.184 150.75 135.184H154.794V134.212C154.794 133.864 155.082 133.72 155.382 133.72ZM158.142 137.128C158.838 137.128 159.066 137.344 159.066 138.028V140.368C159.066 140.716 158.766 140.872 158.454 140.872C158.154 140.872 157.866 140.716 157.866 140.368V138.388C157.866 138.196 157.794 138.136 157.614 138.136H151.974C151.686 138.136 151.566 137.908 151.566 137.632C151.566 137.356 151.686 137.128 151.974 137.128H158.142Z" fill="#808983"/>
<path d="M167.452 130.36C167.812 130.36 168.076 130.516 168.076 130.876V138.508C168.076 138.856 167.8 139.012 167.476 139.012C167.164 139.012 166.876 138.856 166.876 138.508V131.776L165.076 132.88C164.776 133.048 164.476 132.916 164.32 132.64C164.188 132.388 164.212 132.064 164.5 131.908L166.648 130.624C166.972 130.444 167.212 130.36 167.452 130.36Z" fill="#07BEB8"/>
<path d="M174.636 129.988C176.472 129.988 177.432 131.044 177.432 132.448C177.432 133.864 176.472 134.92 174.636 134.92C172.8 134.92 171.84 133.864 171.84 132.448C171.84 131.044 172.8 129.988 174.636 129.988ZM174.636 130.972C173.484 130.972 172.992 131.656 172.992 132.448C172.992 133.252 173.484 133.936 174.636 133.936C175.788 133.936 176.28 133.252 176.28 132.448C176.28 131.656 175.788 130.972 174.636 130.972ZM179.868 129.664C180.18 129.664 180.468 129.82 180.468 130.168V134.824C180.468 135.172 180.18 135.328 179.868 135.328C179.556 135.328 179.268 135.172 179.268 134.824V130.168C179.268 129.82 179.556 129.664 179.868 129.664ZM179.544 135.844C180.24 135.844 180.468 136.06 180.468 136.744V137.848C180.468 138.532 180.24 138.748 179.544 138.748H174.9C174.72 138.748 174.648 138.808 174.648 139V139.516C174.648 139.696 174.72 139.768 174.9 139.768H180.336C180.612 139.768 180.732 139.996 180.732 140.248C180.732 140.5 180.612 140.728 180.336 140.728H174.408C173.712 140.728 173.484 140.512 173.484 139.828V138.724C173.484 138.04 173.712 137.824 174.408 137.824H179.04C179.232 137.824 179.292 137.764 179.292 137.572V137.056C179.292 136.876 179.232 136.816 179.04 136.816H173.856C173.58 136.816 173.46 136.588 173.46 136.324C173.46 136.072 173.58 135.844 173.856 135.844H179.544ZM187.91 130.624C188.198 130.624 188.33 130.864 188.33 131.14C188.33 131.416 188.198 131.644 187.91 131.644H187.178V132.76C187.178 133.744 187.226 134.212 187.574 134.908C187.826 135.388 188.114 135.892 188.366 136.3C188.522 136.552 188.438 136.84 188.222 136.984C188.018 137.104 187.718 137.128 187.55 136.864C187.334 136.528 187.166 136.216 186.95 135.832C186.746 135.46 186.674 135.244 186.638 135.004H186.626C186.59 135.256 186.506 135.484 186.302 135.88C186.134 136.204 185.954 136.552 185.726 136.9C185.498 137.236 185.186 137.236 184.958 136.9C184.742 136.552 184.55 136.204 184.394 135.88C184.19 135.484 184.094 135.256 184.058 135.004H184.046C184.01 135.256 183.938 135.472 183.734 135.844C183.518 136.228 183.338 136.552 183.086 136.924C182.918 137.2 182.618 137.176 182.414 137.044C182.198 136.9 182.114 136.612 182.27 136.36C182.546 135.916 182.858 135.388 183.11 134.908C183.47 134.176 183.506 133.744 183.506 132.76V131.644H182.798C182.498 131.644 182.366 131.416 182.366 131.14C182.366 130.864 182.498 130.624 182.798 130.624H187.91ZM184.586 132.76C184.586 133.672 184.646 134.128 184.814 134.584C184.946 134.908 185.054 135.172 185.21 135.46C185.318 135.676 185.366 135.676 185.486 135.46C185.63 135.172 185.75 134.908 185.882 134.584C186.05 134.128 186.098 133.672 186.098 132.76V131.644H184.586V132.76ZM191.378 129.664C191.666 129.664 191.918 129.808 191.918 130.12V139.576C191.918 139.888 191.666 140.032 191.378 140.032C191.102 140.032 190.85 139.888 190.85 139.576V134.368H189.794V139.072C189.794 139.384 189.542 139.528 189.266 139.528C188.978 139.528 188.726 139.384 188.726 139.072V130.24C188.726 129.928 188.978 129.784 189.266 129.784C189.542 129.784 189.794 129.928 189.794 130.24V133.348H190.85V130.12C190.85 129.808 191.102 129.664 191.378 129.664ZM201.472 130.228C201.76 130.228 201.892 130.468 201.892 130.744C201.892 131.02 201.76 131.26 201.472 131.26H198.16C197.98 131.26 197.908 131.32 197.908 131.5V133.876C197.908 134.068 197.98 134.128 198.16 134.128C199.732 134.128 201.064 134.044 202.36 133.876C202.636 133.84 202.816 134.032 202.84 134.308C202.876 134.596 202.768 134.86 202.504 134.884C201.388 135.04 199.96 135.148 197.632 135.148C196.936 135.148 196.708 134.932 196.708 134.248V131.128C196.708 130.444 196.936 130.228 197.632 130.228H201.472ZM204.196 129.664C204.508 129.664 204.796 129.82 204.796 130.168V132.16H206.116C206.428 132.16 206.56 132.4 206.56 132.676C206.56 132.976 206.428 133.204 206.116 133.204H204.796V135.1C204.796 135.448 204.508 135.604 204.196 135.604C203.884 135.604 203.596 135.448 203.596 135.1V130.168C203.596 129.82 203.884 129.664 204.196 129.664ZM198.484 136.12C198.784 136.12 199.084 136.276 199.084 136.612V137.62H203.62V136.612C203.62 136.276 203.908 136.12 204.196 136.12C204.508 136.12 204.796 136.276 204.796 136.612V139.768C204.796 140.452 204.568 140.668 203.872 140.668H198.832C198.136 140.668 197.908 140.452 197.908 139.768V136.612C197.908 136.276 198.196 136.12 198.484 136.12ZM199.084 138.58V139.432C199.084 139.612 199.144 139.684 199.336 139.684H203.368C203.548 139.684 203.62 139.612 203.62 139.432V138.58H199.084ZM208.35 130.252C208.65 130.252 208.938 130.408 208.938 130.744V132.208H211.602V130.744C211.602 130.408 211.89 130.252 212.178 130.252C212.478 130.252 212.778 130.408 212.778 130.744V134.884C212.778 135.568 212.55 135.784 211.854 135.784H208.686C207.99 135.784 207.762 135.568 207.762 134.884V130.744C207.762 130.408 208.05 130.252 208.35 130.252ZM208.938 134.536C208.938 134.716 209.01 134.788 209.19 134.788H211.35C211.53 134.788 211.602 134.716 211.602 134.536V133.204H208.938V134.536ZM215.718 129.664C216.018 129.664 216.306 129.82 216.306 130.168V137.272C216.306 137.62 216.018 137.776 215.718 137.776C215.418 137.776 215.118 137.62 215.118 137.272V134.776H213.726C213.438 134.776 213.318 134.548 213.318 134.26C213.318 133.984 213.438 133.756 213.726 133.756H215.118V132.4H213.726C213.438 132.4 213.318 132.172 213.318 131.884C213.318 131.608 213.438 131.38 213.726 131.38H215.118V130.168C215.118 129.82 215.418 129.664 215.718 129.664ZM209.862 136.84C210.162 136.84 210.462 136.996 210.462 137.344V139.3C210.462 139.48 210.522 139.54 210.714 139.54H216.162C216.462 139.54 216.594 139.78 216.594 140.068C216.594 140.344 216.462 140.584 216.162 140.584H210.174C209.478 140.584 209.25 140.368 209.25 139.684V137.344C209.25 136.996 209.538 136.84 209.862 136.84ZM230.78 134.8C231.056 134.8 231.188 135.028 231.188 135.304C231.188 135.58 231.056 135.808 230.78 135.808H226.736V136.828C228.692 136.924 229.82 137.584 229.82 138.868C229.82 140.284 228.464 140.932 226.148 140.932C223.832 140.932 222.476 140.284 222.476 138.868C222.476 137.584 223.604 136.924 225.56 136.828V135.808H221.516C221.24 135.808 221.108 135.58 221.108 135.304C221.108 135.028 221.24 134.8 221.516 134.8H230.78ZM229.532 130.06C229.82 130.06 229.952 130.288 229.952 130.564C229.952 130.84 229.82 131.068 229.532 131.068H226.76V131.248C226.76 131.728 227.023 132.064 227.828 132.388C228.632 132.7 229.316 132.952 229.976 133.18C230.252 133.264 230.336 133.588 230.24 133.828C230.132 134.092 229.892 134.236 229.592 134.14C228.992 133.948 228.296 133.684 227.576 133.396C226.544 133 226.256 132.688 226.16 132.4H226.148C226.052 132.7 225.752 133.024 224.72 133.42C224.012 133.708 223.304 133.972 222.716 134.164C222.404 134.26 222.164 134.116 222.056 133.84C221.96 133.6 222.032 133.264 222.32 133.18C222.98 132.952 223.664 132.7 224.468 132.388C225.272 132.064 225.536 131.728 225.536 131.248V131.068H222.764C222.476 131.068 222.344 130.84 222.344 130.564C222.344 130.288 222.476 130.06 222.764 130.06H229.532ZM226.148 137.764C224.42 137.764 223.664 138.16 223.664 138.868C223.664 139.576 224.42 139.972 226.148 139.972C227.876 139.972 228.632 139.576 228.632 138.868C228.632 138.16 227.876 137.764 226.148 137.764ZM233.421 130.12C233.817 130.12 234.093 130.288 234.081 130.696L233.937 136.36C233.925 136.744 233.685 136.876 233.421 136.876C233.157 136.876 232.917 136.744 232.917 136.36L232.761 130.696C232.761 130.288 233.025 130.12 233.421 130.12ZM233.421 137.86C233.865 137.86 234.213 138.196 234.213 138.64C234.213 139.084 233.865 139.432 233.421 139.432C232.977 139.432 232.629 139.084 232.629 138.64C232.629 138.196 232.977 137.86 233.421 137.86Z" fill="#808983"/>
</g>
<rect x="125" y="248" width="125" height="30" rx="15" fill="#F9F7F2"/>
<path d="M142.6 258.288C144.28 258.288 145.156 259.212 145.156 260.4V260.508C145.156 261.396 144.808 262.044 144.016 262.908L141.028 266.196H145.204C145.432 266.196 145.528 266.364 145.528 266.568C145.528 266.784 145.432 266.952 145.204 266.952H140.536C140.056 266.952 139.876 266.796 139.876 266.484C139.876 266.328 139.948 266.196 140.2 265.908L143.26 262.548C144.076 261.648 144.28 261.192 144.28 260.532V260.46C144.28 259.62 143.704 259.08 142.624 259.08C141.736 259.08 141.172 259.488 140.716 260.184C140.596 260.364 140.368 260.412 140.176 260.28C139.984 260.148 139.924 259.932 140.044 259.728C140.548 258.912 141.376 258.288 142.6 258.288ZM149.795 258.288C151.907 258.288 152.747 259.692 152.747 262.356V263.016C152.747 265.68 151.907 267.084 149.795 267.084C147.683 267.084 146.843 265.68 146.843 263.016V262.356C146.843 259.692 147.683 258.288 149.795 258.288ZM149.795 259.104C148.223 259.104 147.719 260.16 147.719 262.44V262.932C147.719 265.212 148.223 266.268 149.795 266.268C151.367 266.268 151.871 265.212 151.871 262.932V262.44C151.871 260.16 151.367 259.104 149.795 259.104ZM156.991 258.288C158.671 258.288 159.547 259.212 159.547 260.4V260.508C159.547 261.396 159.199 262.044 158.407 262.908L155.419 266.196H159.595C159.823 266.196 159.919 266.364 159.919 266.568C159.919 266.784 159.823 266.952 159.595 266.952H154.927C154.447 266.952 154.267 266.796 154.267 266.484C154.267 266.328 154.339 266.196 154.591 265.908L157.651 262.548C158.467 261.648 158.671 261.192 158.671 260.532V260.46C158.671 259.62 158.095 259.08 157.015 259.08C156.127 259.08 155.563 259.488 155.107 260.184C154.987 260.364 154.759 260.412 154.567 260.28C154.375 260.148 154.315 259.932 154.435 259.728C154.939 258.912 155.767 258.288 156.991 258.288ZM164.054 258.288C165.722 258.288 166.67 259.212 166.67 260.46V260.52C166.67 261.264 166.274 262.128 165.146 262.5C166.262 262.668 167.018 263.388 167.018 264.48V264.6C167.018 265.884 166.106 267.084 164.126 267.084C163.166 267.084 162.266 266.784 161.594 266.316C161.39 266.172 161.354 265.944 161.486 265.728C161.618 265.512 161.822 265.464 162.038 265.608C162.65 266.04 163.334 266.292 164.09 266.292C165.53 266.292 166.142 265.44 166.142 264.576V264.48C166.142 263.208 165.026 262.908 164.09 262.908H163.346C163.13 262.908 163.034 262.74 163.034 262.524C163.034 262.308 163.13 262.128 163.346 262.128H164.03C164.894 262.128 165.818 261.672 165.818 260.532V260.496C165.818 259.656 165.206 259.068 164.054 259.068C163.298 259.068 162.758 259.38 162.326 259.92C162.17 260.088 161.942 260.088 161.786 259.92C161.618 259.764 161.606 259.548 161.738 259.38C162.194 258.768 162.986 258.288 164.054 258.288ZM169.377 258.324C169.605 258.324 169.821 258.432 169.821 258.684V262.968C169.821 263.136 169.881 263.196 170.049 263.196C171.585 263.196 173.157 263.148 174.477 263.004C174.669 262.98 174.801 263.112 174.825 263.328C174.861 263.556 174.753 263.748 174.561 263.76C173.409 263.892 171.813 263.952 169.761 263.952C169.137 263.952 168.933 263.76 168.933 263.148V258.684C168.933 258.432 169.149 258.324 169.377 258.324ZM176.781 257.712C176.997 257.712 177.213 257.82 177.213 258.072V265.392C177.213 265.644 176.997 265.752 176.781 265.752C176.565 265.752 176.349 265.644 176.349 265.392V261.84H173.361C173.157 261.84 173.061 261.672 173.061 261.456C173.061 261.252 173.157 261.084 173.361 261.084H176.349V259.932H173.361C173.157 259.932 173.061 259.764 173.061 259.548C173.061 259.344 173.157 259.176 173.361 259.176H176.349V258.072C176.349 257.82 176.565 257.712 176.781 257.712ZM170.805 264.888C171.033 264.888 171.249 264.996 171.249 265.248V267.528C171.249 267.684 171.309 267.744 171.477 267.744H177.213C177.429 267.744 177.525 267.924 177.525 268.128C177.525 268.332 177.429 268.512 177.213 268.512H171.189C170.565 268.512 170.361 268.32 170.361 267.708V265.248C170.361 264.996 170.577 264.888 170.805 264.888ZM185.303 258.288C187.415 258.288 188.255 259.692 188.255 262.356V263.016C188.255 265.68 187.415 267.084 185.303 267.084C183.191 267.084 182.351 265.68 182.351 263.016V262.356C182.351 259.692 183.191 258.288 185.303 258.288ZM185.303 259.104C183.731 259.104 183.227 260.16 183.227 262.44V262.932C183.227 265.212 183.731 266.268 185.303 266.268C186.875 266.268 187.379 265.212 187.379 262.932V262.44C187.379 260.16 186.875 259.104 185.303 259.104ZM192.942 258.288C193.722 258.288 194.43 258.492 194.874 258.744C195.078 258.864 195.126 259.068 195.03 259.284C194.934 259.488 194.73 259.56 194.514 259.452C194.058 259.224 193.566 259.092 192.93 259.092C191.346 259.092 190.698 260.436 190.554 262.656C190.938 261.9 191.85 261.468 192.798 261.468C194.43 261.468 195.474 262.5 195.474 264.144V264.336C195.474 266.04 194.274 267.084 192.63 267.084C190.914 267.084 189.702 265.92 189.702 263.484V263.232C189.702 259.572 190.986 258.288 192.942 258.288ZM192.654 262.236C191.394 262.236 190.638 263.088 190.638 264.108V264.168C190.638 265.452 191.454 266.28 192.618 266.28C193.782 266.28 194.61 265.596 194.61 264.312V264.228C194.61 262.932 193.938 262.236 192.654 262.236ZM200.306 257.772C202.154 257.772 203.054 258.444 203.054 259.404C203.054 260.376 202.154 261.036 200.306 261.036C198.458 261.036 197.558 260.376 197.558 259.404C197.558 258.444 198.458 257.772 200.306 257.772ZM200.306 258.48C198.986 258.48 198.398 258.864 198.398 259.404C198.398 259.956 198.986 260.34 200.306 260.34C201.614 260.34 202.214 259.956 202.214 259.404C202.214 258.864 201.614 258.48 200.306 258.48ZM205.238 257.712C205.454 257.712 205.67 257.82 205.67 258.072V263.964C205.67 264.204 205.466 264.3 205.226 264.3C204.998 264.3 204.806 264.204 204.806 263.964V263.712H202.586C202.394 263.712 202.31 263.544 202.31 263.376C202.31 263.184 202.394 263.028 202.586 263.028H204.806V258.072C204.806 257.82 205.01 257.712 205.238 257.712ZM203.678 261.54C203.87 261.516 204.002 261.648 204.026 261.84C204.038 262.044 203.954 262.212 203.762 262.236C202.814 262.356 201.734 262.428 200.618 262.476V263.832C200.618 264.072 200.414 264.18 200.174 264.18C199.946 264.18 199.742 264.072 199.742 263.832V262.512C198.83 262.536 197.894 262.548 197.006 262.548C196.802 262.548 196.706 262.392 196.706 262.188C196.706 261.996 196.802 261.84 197.006 261.84C199.094 261.84 201.434 261.804 203.678 261.54ZM204.842 264.816C205.466 264.816 205.67 265.008 205.67 265.62V266.268C205.67 266.88 205.466 267.072 204.842 267.072H199.574C199.442 267.072 199.394 267.12 199.394 267.252V267.816C199.394 267.936 199.442 267.984 199.574 267.984H205.67C205.862 267.984 205.958 268.152 205.958 268.332C205.958 268.512 205.862 268.68 205.67 268.68H199.37C198.746 268.68 198.542 268.488 198.542 267.876V267.216C198.542 266.604 198.746 266.412 199.37 266.412H204.638C204.77 266.412 204.83 266.364 204.83 266.244V265.68C204.83 265.548 204.77 265.5 204.638 265.5H198.806C198.614 265.5 198.518 265.344 198.518 265.152C198.518 264.972 198.614 264.816 198.806 264.816H204.842ZM213.616 258.288C215.728 258.288 216.568 259.692 216.568 262.356V263.016C216.568 265.68 215.728 267.084 213.616 267.084C211.504 267.084 210.664 265.68 210.664 263.016V262.356C210.664 259.692 211.504 258.288 213.616 258.288ZM213.616 259.104C212.044 259.104 211.54 260.16 211.54 262.44V262.932C211.54 265.212 212.044 266.268 213.616 266.268C215.188 266.268 215.692 265.212 215.692 262.932V262.44C215.692 260.16 215.188 259.104 213.616 259.104ZM221.567 258.372C221.843 258.372 222.035 258.48 222.035 258.756V266.64C222.035 266.892 221.831 267 221.591 267C221.363 267 221.159 266.892 221.159 266.64V259.428L219.119 260.724C218.903 260.844 218.699 260.748 218.579 260.556C218.471 260.376 218.483 260.148 218.687 260.016L220.955 258.6C221.195 258.456 221.399 258.372 221.567 258.372ZM228.054 258.048C229.866 258.048 230.766 259.092 230.766 260.448C230.766 261.792 229.866 262.836 228.054 262.836C226.242 262.836 225.342 261.792 225.342 260.448C225.342 259.092 226.242 258.048 228.054 258.048ZM228.054 258.78C226.758 258.78 226.194 259.548 226.194 260.448C226.194 261.336 226.758 262.104 228.054 262.104C229.35 262.104 229.914 261.336 229.914 260.448C229.914 259.548 229.35 258.78 228.054 258.78ZM233.322 257.712C233.55 257.712 233.766 257.82 233.766 258.072V262.968C233.766 263.22 233.55 263.328 233.322 263.328C233.106 263.328 232.89 263.22 232.89 262.968V258.072C232.89 257.82 233.106 257.712 233.322 257.712ZM232.938 263.928C233.562 263.928 233.766 264.12 233.766 264.732V265.836C233.766 266.448 233.562 266.64 232.938 266.64H228.066C227.91 266.64 227.838 266.688 227.838 266.856V267.708C227.838 267.876 227.91 267.936 228.066 267.936H233.766C233.958 267.936 234.054 268.104 234.054 268.296C234.054 268.488 233.958 268.656 233.766 268.656H227.814C227.19 268.656 226.986 268.464 226.986 267.852V266.736C226.986 266.124 227.19 265.932 227.814 265.932H232.686C232.854 265.932 232.914 265.884 232.914 265.716V264.864C232.914 264.708 232.854 264.648 232.686 264.648H227.25C227.058 264.648 226.962 264.48 226.962 264.288C226.962 264.096 227.058 263.928 227.25 263.928H232.938Z" fill="#807F7D"/>
<g filter="url(#filter5_d_2182_24246)">
<rect x="160" y="508" width="55" height="55" rx="20" fill="#FFFDFA"/>
<path d="M177.303 551.663C187.242 551.715 191.947 548.431 189.974 546.356C188.001 544.281 175.743 540.099 175.496 537.046C175.141 532.673 187.69 526.808 201.982 525.98" stroke="url(#paint5_linear_2182_24246)" stroke-opacity="0.5" stroke-width="1.8" stroke-linecap="round"/>
<path d="M174.271 523.477C174.309 523.407 174.41 523.407 174.449 523.477L174.839 524.19C174.848 524.207 174.862 524.221 174.879 524.231L175.592 524.621C175.663 524.659 175.663 524.76 175.592 524.799L174.879 525.189C174.862 525.198 174.848 525.212 174.839 525.229L174.449 525.942C174.41 526.013 174.309 526.013 174.271 525.942L173.881 525.229C173.872 525.212 173.858 525.198 173.841 525.189L173.127 524.799C173.057 524.76 173.057 524.659 173.127 524.621L173.841 524.231C173.858 524.221 173.872 524.207 173.881 524.19L174.271 523.477Z" fill="#07BEB8"/>
<path d="M196.169 528.148C195.655 528.513 195.061 528.748 194.436 528.834C193.75 528.954 193.057 528.948 192.296 528.954C192.047 528.954 191.807 529.054 191.631 529.23C191.455 529.406 191.355 529.645 191.355 529.895C191.355 530.144 191.455 530.383 191.631 530.559C191.807 530.736 192.047 530.835 192.296 530.835H192.444C193.214 530.851 193.984 530.802 194.745 530.688C195.764 530.518 196.628 530.164 197.313 529.638C198.198 528.957 198.741 527.981 198.763 527.027C198.771 526.625 198.682 526.226 198.505 525.865C197.963 526.213 197.419 526.559 196.872 526.901C196.877 526.928 196.881 526.956 196.882 526.983C196.876 527.362 196.595 527.82 196.169 528.148Z" fill="#07BEB8"/>
<path d="M199.843 539.678C199.86 539.635 199.92 539.635 199.937 539.678L200.391 540.829C200.396 540.842 200.406 540.852 200.419 540.858L201.57 541.311C201.613 541.328 201.613 541.389 201.57 541.406L200.419 541.86C200.406 541.865 200.396 541.875 200.391 541.888L199.937 543.039C199.92 543.082 199.86 543.082 199.843 543.039L199.389 541.888C199.384 541.875 199.373 541.865 199.36 541.86L198.21 541.406C198.167 541.389 198.167 541.328 198.21 541.311L199.36 540.858C199.373 540.852 199.384 540.842 199.389 540.829L199.843 539.678Z" fill="#07BEB8"/>
<path d="M187.856 536.248C189.846 536.15 191.795 535.65 193.58 534.779C194.518 534.309 195.469 533.744 195.902 532.501C196.041 532.078 196.066 531.627 195.975 531.193C195.36 531.319 194.743 531.439 194.124 531.555C194.15 531.669 194.146 531.787 194.113 531.899C193.925 532.439 193.51 532.724 192.721 533.121C191.173 533.869 189.488 534.3 187.766 534.388C187.111 534.418 186.455 534.41 185.801 534.362C185.897 534.024 185.991 533.686 186.089 533.346C186.263 532.731 186.44 532.109 186.615 531.477C187.363 528.764 188.973 526.724 191.827 524.856C193.733 523.608 195.59 522.348 197.362 520.647C197.669 520.351 197.888 520.248 197.98 520.223C198.059 520.403 198.095 520.598 198.086 520.795C198.08 522.971 196.281 524.903 193.988 525.194C193.865 525.21 193.746 525.249 193.639 525.31C193.531 525.371 193.436 525.452 193.361 525.549C193.285 525.646 193.229 525.756 193.197 525.874C193.164 525.992 193.156 526.115 193.172 526.236C193.187 526.357 193.227 526.474 193.289 526.58C193.351 526.686 193.433 526.779 193.531 526.854C193.63 526.928 193.742 526.983 193.862 527.015C193.981 527.047 194.106 527.056 194.229 527.04C197.445 526.633 199.97 523.894 199.978 520.801C199.978 519.492 199.33 518.541 198.319 518.379C197.595 518.261 196.801 518.586 196.043 519.315C194.386 520.902 192.609 522.109 190.784 523.305C187.563 525.411 185.659 527.85 184.787 530.98C184.612 531.609 184.436 532.227 184.263 532.838C184.142 533.266 184.021 533.689 183.901 534.111C182.339 533.818 180.899 533.316 179.795 532.635C179.583 532.509 179.329 532.471 179.088 532.528C178.847 532.585 178.639 532.732 178.507 532.939C178.376 533.146 178.332 533.395 178.385 533.633C178.439 533.872 178.585 534.08 178.792 534.213C180.912 535.521 183.902 536.264 186.936 536.264C187.242 536.27 187.55 536.263 187.856 536.248Z" fill="#07BEB8"/>
<path d="M184.914 536.783L183.569 536.635C183.341 536.609 183.131 536.766 183.092 536.992C182.072 542.958 183.566 546.989 183.73 547.502C183.898 548.025 184.534 547.86 184.777 548.459C185.261 549.649 185.801 550.405 186.154 550.315C186.507 550.225 185.805 549.511 185.705 548.07C185.666 547.501 186.211 547.401 186.06 546.851C185.447 544.61 184.76 541.772 185.304 537.279C185.333 537.035 185.159 536.81 184.914 536.783Z" fill="#07BEB8"/>
</g>
<g filter="url(#filter6_d_2182_24246)">
<path fill-rule="evenodd" clip-rule="evenodd" d="M188.705 315.006C196.838 315.112 205.882 317.138 208.407 324.578C210.939 332.04 204.944 338.891 198.4 343.577C191.531 348.497 182.805 352.553 175.634 348.05C167.516 342.952 163.845 332.761 167.294 324.043C170.359 316.294 180.09 314.894 188.705 315.006Z" fill="url(#paint6_linear_2182_24246)"/>
</g>
</g>
<defs>
<filter id="filter0_d_2182_24246" x="20" y="542" width="73" height="73" filterUnits="userSpaceOnUse" color-interpolation-filters="sRGB">
<feFlood flood-opacity="0" result="BackgroundImageFix"/>
<feColorMatrix in="SourceAlpha" type="matrix" values="0 0 0 0 0 0 0 0 0 0 0 0 0 0 0 0 0 0 127 0" result="hardAlpha"/>
<feOffset dy="4"/>
<feGaussianBlur stdDeviation="10"/>
<feComposite in2="hardAlpha" operator="out"/>
<feColorMatrix type="matrix" values="0 0 0 0 0.679896 0 0 0 0 0.891667 0 0 0 0 0.823153 0 0 0 0.9 0"/>
<feBlend mode="normal" in2="BackgroundImageFix" result="effect1_dropShadow_2182_24246"/>
<feBlend mode="normal" in="SourceGraphic" in2="effect1_dropShadow_2182_24246" result="shape"/>
</filter>
<filter id="filter1_d_2182_24246" x="281" y="503" width="75" height="76" filterUnits="userSpaceOnUse" color-interpolation-filters="sRGB">
<feFlood flood-opacity="0" result="BackgroundImageFix"/>
<feColorMatrix in="SourceAlpha" type="matrix" values="0 0 0 0 0 0 0 0 0 0 0 0 0 0 0 0 0 0 127 0" result="hardAlpha"/>
<feOffset dy="4"/>
<feGaussianBlur stdDeviation="10"/>
<feComposite in2="hardAlpha" operator="out"/>
<feColorMatrix type="matrix" values="0 0 0 0 0.679896 0 0 0 0 0.891667 0 0 0 0 0.823153 0 0 0 0.9 0"/>
<feBlend mode="normal" in2="BackgroundImageFix" result="effect1_dropShadow_2182_24246"/>
<feBlend mode="normal" in="SourceGraphic" in2="effect1_dropShadow_2182_24246" result="shape"/>
</filter>
<filter id="filter2_d_2182_24246" x="30" y="229" width="64" height="63" filterUnits="userSpaceOnUse" color-interpolation-filters="sRGB">
<feFlood flood-opacity="0" result="BackgroundImageFix"/>
<feColorMatrix in="SourceAlpha" type="matrix" values="0 0 0 0 0 0 0 0 0 0 0 0 0 0 0 0 0 0 127 0" result="hardAlpha"/>
<feOffset dy="4"/>
<feGaussianBlur stdDeviation="10"/>
<feComposite in2="hardAlpha" operator="out"/>
<feColorMatrix type="matrix" values="0 0 0 0 0.679896 0 0 0 0 0.891667 0 0 0 0 0.823153 0 0 0 0.9 0"/>
<feBlend mode="normal" in2="BackgroundImageFix" result="effect1_dropShadow_2182_24246"/>
<feBlend mode="normal" in="SourceGraphic" in2="effect1_dropShadow_2182_24246" result="shape"/>
</filter>
<filter id="filter3_d_2182_24246" x="314" y="261" width="55" height="55" filterUnits="userSpaceOnUse" color-interpolation-filters="sRGB">
<feFlood flood-opacity="0" result="BackgroundImageFix"/>
<feColorMatrix in="SourceAlpha" type="matrix" values="0 0 0 0 0 0 0 0 0 0 0 0 0 0 0 0 0 0 127 0" result="hardAlpha"/>
<feOffset dy="4"/>
<feGaussianBlur stdDeviation="10"/>
<feComposite in2="hardAlpha" operator="out"/>
<feColorMatrix type="matrix" values="0 0 0 0 0.679896 0 0 0 0 0.891667 0 0 0 0 0.823153 0 0 0 0.9 0"/>
<feBlend mode="normal" in2="BackgroundImageFix" result="effect1_dropShadow_2182_24246"/>
<feBlend mode="normal" in="SourceGraphic" in2="effect1_dropShadow_2182_24246" result="shape"/>
</filter>
<filter id="filter4_d_2182_24246" x="107" y="102" width="161" height="74" filterUnits="userSpaceOnUse" color-interpolation-filters="sRGB">
<feFlood flood-opacity="0" result="BackgroundImageFix"/>
<feColorMatrix in="SourceAlpha" type="matrix" values="0 0 0 0 0 0 0 0 0 0 0 0 0 0 0 0 0 0 127 0" result="hardAlpha"/>
<feOffset dy="4"/>
<feGaussianBlur stdDeviation="10"/>
<feComposite in2="hardAlpha" operator="out"/>
<feColorMatrix type="matrix" values="0 0 0 0 0 0 0 0 0 0 0 0 0 0 0 0 0 0 0.08 0"/>
<feBlend mode="normal" in2="BackgroundImageFix" result="effect1_dropShadow_2182_24246"/>
<feBlend mode="normal" in="SourceGraphic" in2="effect1_dropShadow_2182_24246" result="shape"/>
</filter>
<filter id="filter5_d_2182_24246" x="144" y="496" width="87" height="87" filterUnits="userSpaceOnUse" color-interpolation-filters="sRGB">
<feFlood flood-opacity="0" result="BackgroundImageFix"/>
<feColorMatrix in="SourceAlpha" type="matrix" values="0 0 0 0 0 0 0 0 0 0 0 0 0 0 0 0 0 0 127 0" result="hardAlpha"/>
<feOffset dy="4"/>
<feGaussianBlur stdDeviation="8"/>
<feComposite in2="hardAlpha" operator="out"/>
<feColorMatrix type="matrix" values="0 0 0 0 0 0 0 0 0 0 0 0 0 0 0 0 0 0 0.08 0"/>
<feBlend mode="normal" in2="BackgroundImageFix" result="effect1_dropShadow_2182_24246"/>
<feBlend mode="normal" in="SourceGraphic" in2="effect1_dropShadow_2182_24246" result="shape"/>
</filter>
<filter id="filter6_d_2182_24246" x="146" y="299" width="83" height="75" filterUnits="userSpaceOnUse" color-interpolation-filters="sRGB">
<feFlood flood-opacity="0" result="BackgroundImageFix"/>
<feColorMatrix in="SourceAlpha" type="matrix" values="0 0 0 0 0 0 0 0 0 0 0 0 0 0 0 0 0 0 127 0" result="hardAlpha"/>
<feOffset dy="4"/>
<feGaussianBlur stdDeviation="10"/>
<feComposite in2="hardAlpha" operator="out"/>
<feColorMatrix type="matrix" values="0 0 0 0 0.679896 0 0 0 0 0.891667 0 0 0 0 0.823153 0 0 0 0.9 0"/>
<feBlend mode="normal" in2="BackgroundImageFix" result="effect1_dropShadow_2182_24246"/>
<feBlend mode="normal" in="SourceGraphic" in2="effect1_dropShadow_2182_24246" result="shape"/>
</filter>
<linearGradient id="paint0_linear_2182_24246" x1="-16" y1="650.64" x2="400.284" y2="323.32" gradientUnits="userSpaceOnUse">
<stop offset="0.046875" stop-color="#7CEFA7"/>
<stop offset="1" stop-color="#8FD3F4"/>
</linearGradient>
<linearGradient id="paint1_linear_2182_24246" x1="40" y1="593.317" x2="73.67" y2="566.842" gradientUnits="userSpaceOnUse">
<stop offset="0.046875" stop-color="#7CEFA7"/>
<stop offset="1" stop-color="#8FD3F4"/>
</linearGradient>
<linearGradient id="paint2_linear_2182_24246" x1="291.899" y1="551.747" x2="334.622" y2="534.171" gradientUnits="userSpaceOnUse">
<stop offset="0.046875" stop-color="#7CEFA7"/>
<stop offset="1" stop-color="#8FD3F4"/>
</linearGradient>
<linearGradient id="paint3_linear_2182_24246" x1="50" y1="269.615" x2="73.6834" y2="250.183" gradientUnits="userSpaceOnUse">
<stop offset="0.046875" stop-color="#7CEFA7"/>
<stop offset="1" stop-color="#8FD3F4"/>
</linearGradient>
<linearGradient id="paint4_linear_2182_24246" x1="334" y1="293.053" x2="349.305" y2="281.019" gradientUnits="userSpaceOnUse">
<stop offset="0.046875" stop-color="#7CEFA7"/>
<stop offset="1" stop-color="#8FD3F4"/>
</linearGradient>
<linearGradient id="paint5_linear_2182_24246" x1="177.6" y1="551.806" x2="193.521" y2="522.658" gradientUnits="userSpaceOnUse">
<stop stop-color="#07BEB8"/>
<stop offset="0.0001" stop-color="#07BEB8" stop-opacity="0.765716"/>
<stop offset="1" stop-color="#E8E8E8" stop-opacity="0.3"/>
</linearGradient>
<linearGradient id="paint6_linear_2182_24246" x1="175.717" y1="342.062" x2="215.46" y2="310.226" gradientUnits="userSpaceOnUse">
<stop stop-color="#B0F5CA"/>
<stop offset="1" stop-color="#8FD3F4"/>
</linearGradient>
<clipPath id="clip0_2182_24246">
<path d="M0 36C0 16.1178 16.1177 0 36 0H339C358.882 0 375 16.1177 375 36V648H0V36Z" fill="white"/>
</clipPath>
</defs>
</svg>
