<svg viewBox="0 0 365 182" fill="none" xmlns="http://www.w3.org/2000/svg">
<g filter="url(#filter0_d_2249_24612)">
<rect x="20" y="16" width="325" height="142" rx="28" fill="#FFFDFA"/>
<path d="M54.9393 58.305C55.2243 58.305 55.4943 58.44 55.4943 58.755V65.475C55.4943 65.685 55.5693 65.76 55.7793 65.76C57.9393 65.76 59.7243 65.64 61.5093 65.4C61.7493 65.37 61.9143 65.535 61.9593 65.805C61.9893 66.075 61.8843 66.33 61.6443 66.36C60.0843 66.57 58.2243 66.705 55.4193 66.705C54.6393 66.705 54.3843 66.465 54.3843 65.7V58.755C54.3843 58.44 54.6543 58.305 54.9393 58.305ZM63.6543 57.39C63.9393 57.39 64.2093 57.525 64.2093 57.84V62.025H66.1143C66.3843 62.025 66.5043 62.25 66.5043 62.505C66.5043 62.775 66.3843 63 66.1143 63H64.2093V69.78C64.2093 70.095 63.9393 70.23 63.6543 70.23C63.3843 70.23 63.1143 70.095 63.1143 69.78V57.84C63.1143 57.525 63.3843 57.39 63.6543 57.39ZM69.7466 57.765C70.0316 57.765 70.2866 57.9 70.2866 58.215V61.485C70.2866 61.68 70.3766 61.755 70.5716 61.755H77.9516C78.2066 61.755 78.3266 61.965 78.3266 62.22C78.3266 62.475 78.2066 62.7 77.9516 62.7H70.2266C69.4466 62.7 69.1916 62.46 69.1916 61.695V58.215C69.1916 57.9 69.4466 57.765 69.7466 57.765ZM79.4966 64.53C79.7666 64.53 79.8866 64.74 79.8866 65.01C79.8866 65.265 79.7666 65.475 79.4966 65.475H67.7666C67.4966 65.475 67.3766 65.265 67.3766 65.01C67.3766 64.74 67.4966 64.53 67.7666 64.53H79.4966ZM69.7166 66.84C70.0016 66.84 70.2566 66.975 70.2566 67.29V69.735C70.2566 69.945 70.3466 70.02 70.5416 70.02H77.9816C78.2366 70.02 78.3566 70.23 78.3566 70.485C78.3566 70.74 78.2366 70.95 77.9816 70.95H70.1966C69.4166 70.95 69.1616 70.71 69.1616 69.945V67.29C69.1616 66.975 69.4166 66.84 69.7166 66.84ZM95.459 57.39C95.729 57.39 95.999 57.525 95.999 57.84V69.78C95.999 70.095 95.729 70.23 95.459 70.23C95.174 70.23 94.919 70.095 94.919 69.78V63.045H92.009C91.889 65.595 90.764 66.96 88.664 66.96C86.444 66.96 85.289 65.43 85.289 62.58C85.289 59.73 86.444 58.2 88.664 58.2C90.749 58.2 91.889 59.565 92.009 62.1H94.919V57.84C94.919 57.525 95.174 57.39 95.459 57.39ZM88.664 59.175C87.059 59.175 86.369 60.405 86.369 62.58C86.369 64.755 87.059 65.985 88.664 65.985C90.269 65.985 90.959 64.755 90.959 62.58C90.959 60.405 90.269 59.175 88.664 59.175ZM106.276 58.305C106.546 58.305 106.666 58.515 106.666 58.77C106.666 59.04 106.546 59.25 106.276 59.25H104.626C104.416 59.25 104.341 59.325 104.341 59.52V63.78C104.341 63.975 104.416 64.05 104.626 64.05C105.346 64.05 106.276 64.005 106.876 63.885C107.101 63.84 107.266 64.005 107.296 64.26C107.341 64.53 107.236 64.77 106.996 64.815C106.216 64.95 105.286 64.995 104.311 64.995C103.531 64.995 103.276 64.755 103.276 63.99V59.31C103.276 58.545 103.531 58.305 104.311 58.305H106.276ZM102.031 58.305C102.301 58.305 102.421 58.515 102.421 58.77C102.421 59.04 102.301 59.25 102.031 59.25H100.441C100.231 59.25 100.156 59.325 100.156 59.52V63.78C100.156 63.975 100.231 64.05 100.441 64.05C101.086 64.05 101.776 64.005 102.361 63.9C102.586 63.855 102.751 64.02 102.781 64.275C102.826 64.545 102.721 64.785 102.481 64.83C101.731 64.95 101.011 64.995 100.126 64.995C99.3463 64.995 99.0913 64.755 99.0913 63.99V59.31C99.0913 58.545 99.3463 58.305 100.126 58.305H102.031ZM109.291 57.39C109.576 57.39 109.831 57.525 109.831 57.84V67.005C109.831 67.305 109.576 67.44 109.291 67.44C109.021 67.44 108.766 67.305 108.766 67.005V61.98H106.831C106.561 61.98 106.441 61.77 106.441 61.5C106.441 61.245 106.561 61.035 106.831 61.035H108.766V57.84C108.766 57.525 109.021 57.39 109.291 57.39ZM101.701 66.36C101.986 66.36 102.256 66.495 102.256 66.81V69.66C102.256 69.855 102.331 69.93 102.541 69.93H109.831C110.101 69.93 110.221 70.155 110.221 70.41C110.221 70.665 110.101 70.89 109.831 70.89H102.181C101.401 70.89 101.146 70.65 101.146 69.885V66.81C101.146 66.495 101.416 66.36 101.701 66.36ZM120.574 57.465C120.859 57.465 121.129 57.6 121.129 57.915V59.25H124.024C124.294 59.25 124.414 59.475 124.414 59.73C124.414 59.985 124.294 60.21 124.024 60.21H121.129V60.84C121.129 61.755 121.384 62.13 122.179 62.67C122.899 63.15 123.574 63.6 124.144 63.93C124.414 64.095 124.414 64.395 124.279 64.605C124.144 64.815 123.904 64.92 123.634 64.755C123.154 64.485 122.479 64.035 121.834 63.615C120.994 63.06 120.694 62.745 120.604 62.43H120.589C120.514 62.76 120.154 63.135 119.314 63.675C118.609 64.125 117.904 64.56 117.259 64.935C116.989 65.1 116.749 64.98 116.614 64.77C116.479 64.56 116.464 64.26 116.749 64.095C117.454 63.675 118.204 63.21 118.969 62.7C119.749 62.19 120.034 61.785 120.034 60.855V60.21H117.049C116.779 60.21 116.659 59.985 116.659 59.73C116.659 59.475 116.779 59.25 117.049 59.25H120.034V57.915C120.034 57.6 120.304 57.465 120.574 57.465ZM126.694 57.39C126.964 57.39 127.234 57.525 127.234 57.84V69.78C127.234 70.095 126.964 70.23 126.694 70.23C126.409 70.23 126.154 70.095 126.154 69.78V57.84C126.154 57.525 126.409 57.39 126.694 57.39ZM120.574 64.635C120.859 64.635 121.114 64.77 121.114 65.085V66.87C122.269 66.825 123.469 66.75 124.759 66.63C124.999 66.6 125.149 66.78 125.179 67.035C125.194 67.305 125.074 67.53 124.849 67.545C122.059 67.785 119.419 67.875 116.419 67.875C116.149 67.875 116.029 67.665 116.029 67.41C116.029 67.155 116.149 66.93 116.419 66.93C117.634 66.93 118.819 66.93 120.034 66.9V65.085C120.034 64.77 120.304 64.635 120.574 64.635ZM140.046 57.945C140.286 57.945 140.406 58.155 140.406 58.41C140.406 58.665 140.286 58.875 140.046 58.875H136.296V59.22C136.296 59.94 136.641 60.42 137.751 60.9C138.816 61.335 139.701 61.68 140.556 61.995C140.841 62.085 140.901 62.385 140.811 62.61C140.721 62.85 140.511 63 140.211 62.895C139.386 62.595 138.486 62.25 137.496 61.83C136.266 61.335 135.876 60.9 135.756 60.525H135.741C135.636 60.915 135.231 61.35 134.001 61.845C132.996 62.265 132.111 62.61 131.286 62.91C130.986 63.015 130.761 62.865 130.671 62.625C130.581 62.4 130.641 62.085 130.926 61.995C131.781 61.68 132.666 61.335 133.731 60.9C134.841 60.42 135.186 59.94 135.186 59.22V58.875H131.436C131.196 58.875 131.076 58.665 131.076 58.41C131.076 58.155 131.196 57.945 131.436 57.945H140.046ZM135.741 62.295C136.026 62.295 136.281 62.43 136.281 62.745V64.23H141.621C141.876 64.23 141.996 64.44 141.996 64.695C141.996 64.95 141.876 65.16 141.621 65.16H129.861C129.606 65.16 129.486 64.95 129.486 64.695C129.486 64.44 129.606 64.23 129.861 64.23H135.201V62.745C135.201 62.43 135.471 62.295 135.741 62.295ZM135.741 66.345C138.591 66.345 140.211 67.155 140.211 68.835C140.211 70.515 138.591 71.325 135.741 71.325C132.891 71.325 131.271 70.515 131.271 68.835C131.271 67.155 132.891 66.345 135.741 66.345ZM135.741 67.23C133.446 67.23 132.366 67.8 132.366 68.835C132.366 69.87 133.446 70.44 135.741 70.44C138.036 70.44 139.116 69.87 139.116 68.835C139.116 67.8 138.036 67.23 135.741 67.23ZM156.548 57.885C157.328 57.885 157.583 58.125 157.583 58.89V61.635C157.583 62.4 157.328 62.64 156.548 62.64H153.683V64.41H159.023C159.278 64.41 159.398 64.62 159.398 64.875C159.398 65.13 159.278 65.34 159.023 65.34H147.263C147.008 65.34 146.888 65.13 146.888 64.875C146.888 64.62 147.008 64.41 147.263 64.41H152.603V62.64H149.738C148.958 62.64 148.703 62.4 148.703 61.635V58.89C148.703 58.125 148.958 57.885 149.738 57.885H156.548ZM150.068 58.8C149.858 58.8 149.783 58.875 149.783 59.07V61.455C149.783 61.65 149.858 61.725 150.068 61.725H156.218C156.428 61.725 156.503 61.65 156.503 61.455V59.07C156.503 58.875 156.428 58.8 156.218 58.8H150.068ZM156.578 66.75C157.358 66.75 157.613 66.99 157.613 67.755V70.83C157.613 71.145 157.358 71.28 157.073 71.28C156.788 71.28 156.533 71.145 156.533 70.83V67.95C156.533 67.74 156.443 67.68 156.248 67.68H148.853C148.613 67.68 148.493 67.47 148.493 67.215C148.493 66.96 148.613 66.75 148.853 66.75H156.578ZM171.296 58.35C171.536 58.35 171.656 58.56 171.656 58.815C171.656 59.07 171.536 59.28 171.296 59.28H169.586V63.69H171.371C171.626 63.69 171.746 63.9 171.746 64.155C171.746 64.41 171.626 64.62 171.371 64.62H169.361V67.905H172.676C172.931 67.905 173.051 68.115 173.051 68.37C173.051 68.625 172.931 68.835 172.676 68.835H160.916C160.661 68.835 160.541 68.625 160.541 68.37C160.541 68.115 160.661 67.905 160.916 67.905H164.231V64.62H162.221C161.966 64.62 161.846 64.41 161.846 64.155C161.846 63.9 161.966 63.69 162.221 63.69H164.006V59.28H162.296C162.056 59.28 161.936 59.07 161.936 58.815C161.936 58.56 162.056 58.35 162.296 58.35H171.296ZM165.071 63.69H168.521V59.28H165.071V63.69ZM165.281 67.905H168.311V64.62H165.281V67.905ZM183.793 57.675C184.573 57.675 184.828 57.915 184.828 58.68V59.625C184.828 60.39 184.573 60.63 183.793 60.63H177.358C177.193 60.63 177.118 60.705 177.118 60.87V61.665C177.118 61.83 177.193 61.89 177.358 61.89H184.828C185.068 61.89 185.188 62.1 185.188 62.325C185.188 62.565 185.068 62.76 184.828 62.76H177.088C176.308 62.76 176.053 62.52 176.053 61.755V60.795C176.053 60.03 176.308 59.79 177.088 59.79H183.523C183.703 59.79 183.778 59.73 183.778 59.565V58.77C183.778 58.605 183.703 58.545 183.523 58.545H176.383C176.143 58.545 176.023 58.335 176.023 58.095C176.023 57.87 176.143 57.675 176.383 57.675H183.793ZM186.343 63.945C186.583 63.945 186.703 64.155 186.703 64.395C186.703 64.65 186.583 64.845 186.343 64.845H174.553C174.313 64.845 174.193 64.65 174.193 64.395C174.193 64.155 174.313 63.945 174.553 63.945H186.343ZM183.868 66.03C184.648 66.03 184.903 66.27 184.903 67.035V67.995C184.903 68.76 184.648 69 183.868 69H177.283C177.103 69 177.028 69.06 177.028 69.24V70.02C177.028 70.2 177.103 70.26 177.283 70.26H184.918C185.158 70.26 185.263 70.47 185.263 70.695C185.263 70.92 185.158 71.13 184.918 71.13H177.013C176.233 71.13 175.978 70.905 175.978 70.14V69.165C175.978 68.4 176.233 68.16 177.013 68.16H183.613C183.778 68.16 183.853 68.1 183.853 67.92V67.14C183.853 66.975 183.778 66.9 183.613 66.9H176.308C176.068 66.9 175.948 66.705 175.948 66.465C175.948 66.24 176.068 66.03 176.308 66.03H183.868ZM197.13 58.455C197.91 58.455 198.165 58.695 198.165 59.46V61.125C198.165 63.63 197.415 64.38 192.78 67.245C192.555 67.38 192.27 67.29 192.12 67.065C191.97 66.84 191.97 66.51 192.21 66.36C196.56 63.705 197.085 63.15 197.085 61.08V59.685C197.085 59.49 197.01 59.415 196.8 59.415H192.555C192.285 59.415 192.165 59.19 192.165 58.935C192.165 58.68 192.285 58.455 192.555 58.455H197.13ZM201.525 57.39C201.81 57.39 202.08 57.525 202.08 57.84V62.025H203.985C204.255 62.025 204.375 62.25 204.375 62.505C204.375 62.775 204.255 63 203.985 63H202.08V69.78C202.08 70.095 201.81 70.23 201.525 70.23C201.255 70.23 200.985 70.095 200.985 69.78V57.84C200.985 57.525 201.255 57.39 201.525 57.39ZM213.018 58.455C213.273 58.455 213.393 58.665 213.393 58.935C213.393 59.19 213.273 59.415 213.018 59.415H210.228V61.14C210.228 62.475 210.498 63.15 211.443 64.125C212.118 64.8 212.808 65.46 213.348 65.925C213.573 66.12 213.513 66.435 213.348 66.615C213.153 66.795 212.883 66.87 212.658 66.66C212.163 66.24 211.578 65.67 210.903 64.995C209.958 64.05 209.763 63.66 209.688 63.33H209.673C209.598 63.675 209.388 64.065 208.458 65.01C207.783 65.685 207.183 66.255 206.493 66.855C206.253 67.065 205.968 66.975 205.803 66.795C205.623 66.585 205.578 66.285 205.803 66.105C206.553 65.445 207.228 64.8 207.903 64.125C208.848 63.15 209.118 62.475 209.118 61.14V59.415H206.268C206.013 59.415 205.893 59.19 205.893 58.935C205.893 58.665 206.013 58.455 206.268 58.455H213.018ZM215.823 57.39C216.108 57.39 216.378 57.525 216.378 57.84V69.78C216.378 70.095 216.108 70.23 215.823 70.23C215.553 70.23 215.283 70.095 215.283 69.78V57.84C215.283 57.525 215.553 57.39 215.823 57.39ZM228.59 58.38C229.37 58.38 229.625 58.62 229.625 59.385V60.765C229.625 62.595 229.43 64.005 229.1 65.505C229.04 65.775 228.77 65.895 228.455 65.85C228.17 65.79 227.975 65.595 228.035 65.34C228.35 63.81 228.545 62.445 228.545 60.72V59.625C228.545 59.415 228.455 59.34 228.26 59.34H220.88C220.625 59.34 220.505 59.13 220.505 58.86C220.505 58.59 220.625 58.38 220.88 58.38H228.59ZM224.24 62.715C224.525 62.715 224.78 62.85 224.78 63.165V67.89H231.02C231.29 67.89 231.41 68.1 231.41 68.37C231.41 68.625 231.29 68.835 231.02 68.835H219.29C219.02 68.835 218.9 68.625 218.9 68.37C218.9 68.1 219.02 67.89 219.29 67.89H223.7V63.165C223.7 62.85 223.955 62.715 224.24 62.715ZM240.382 57.69C240.667 57.69 240.937 57.825 240.937 58.14V59.505C240.937 60.495 241.237 61.065 241.987 61.635C242.737 62.19 243.322 62.595 243.967 63.015C244.222 63.18 244.222 63.48 244.072 63.705C243.937 63.9 243.667 64.005 243.412 63.84C242.887 63.495 242.287 63.075 241.567 62.55C240.772 61.965 240.472 61.575 240.397 61.275H240.382C240.322 61.59 240.007 61.995 239.212 62.58C238.492 63.12 237.787 63.6 237.097 64.035C236.857 64.2 236.572 64.095 236.437 63.885C236.302 63.66 236.302 63.36 236.542 63.195C237.337 62.685 238.027 62.205 238.777 61.65C239.527 61.08 239.827 60.51 239.827 59.52V58.14C239.827 57.825 240.097 57.69 240.382 57.69ZM246.232 57.39C246.517 57.39 246.787 57.525 246.787 57.84V60.315H248.692C248.962 60.315 249.082 60.54 249.082 60.81C249.082 61.065 248.962 61.29 248.692 61.29H246.787V63.96C246.787 64.275 246.517 64.41 246.232 64.41C245.962 64.41 245.692 64.275 245.692 63.96V57.84C245.692 57.525 245.962 57.39 246.232 57.39ZM245.752 65.16C246.532 65.16 246.787 65.4 246.787 66.165V67.545C246.787 68.31 246.532 68.55 245.752 68.55H239.812C239.617 68.55 239.527 68.61 239.527 68.82V69.885C239.527 70.095 239.617 70.17 239.812 70.17H246.787C247.027 70.17 247.147 70.38 247.147 70.62C247.147 70.86 247.027 71.07 246.787 71.07H239.497C238.717 71.07 238.462 70.83 238.462 70.065V68.67C238.462 67.905 238.717 67.665 239.497 67.665H245.437C245.647 67.665 245.722 67.605 245.722 67.395V66.33C245.722 66.135 245.647 66.06 245.437 66.06H238.792C238.552 66.06 238.432 65.85 238.432 65.61C238.432 65.37 238.552 65.16 238.792 65.16H245.752ZM253.66 58.2C255.895 58.2 257.05 59.73 257.05 62.58C257.05 65.43 255.895 66.96 253.66 66.96C251.425 66.96 250.255 65.43 250.255 62.58C250.255 59.73 251.425 58.2 253.66 58.2ZM253.66 59.175C252.04 59.175 251.335 60.405 251.335 62.58C251.335 64.755 252.04 65.985 253.66 65.985C255.28 65.985 255.985 64.755 255.985 62.58C255.985 60.405 255.28 59.175 253.66 59.175ZM259.885 57.39C260.17 57.39 260.44 57.525 260.44 57.84V62.025H262.345C262.615 62.025 262.735 62.25 262.735 62.505C262.735 62.775 262.615 63 262.345 63H260.44V69.78C260.44 70.095 260.17 70.23 259.885 70.23C259.615 70.23 259.345 70.095 259.345 69.78V57.84C259.345 57.525 259.615 57.39 259.885 57.39ZM269.142 58.455C269.922 58.455 270.177 58.695 270.177 59.46V61.125C270.177 63.63 269.427 64.38 264.792 67.245C264.567 67.38 264.282 67.29 264.132 67.065C263.982 66.84 263.982 66.51 264.222 66.36C268.572 63.705 269.097 63.15 269.097 61.08V59.685C269.097 59.49 269.022 59.415 268.812 59.415H264.567C264.297 59.415 264.177 59.19 264.177 58.935C264.177 58.68 264.297 58.455 264.567 58.455H269.142ZM273.537 57.39C273.822 57.39 274.092 57.525 274.092 57.84V62.025H275.997C276.267 62.025 276.387 62.25 276.387 62.505C276.387 62.775 276.267 63 275.997 63H274.092V69.78C274.092 70.095 273.822 70.23 273.537 70.23C273.267 70.23 272.997 70.095 272.997 69.78V57.84C272.997 57.525 273.267 57.39 273.537 57.39ZM278.474 58.305C278.759 58.305 279.029 58.44 279.029 58.755V65.475C279.029 65.685 279.104 65.76 279.314 65.76C281.474 65.76 283.259 65.64 285.044 65.4C285.284 65.37 285.449 65.535 285.494 65.805C285.524 66.075 285.419 66.33 285.179 66.36C283.619 66.57 281.759 66.705 278.954 66.705C278.174 66.705 277.919 66.465 277.919 65.7V58.755C277.919 58.44 278.189 58.305 278.474 58.305ZM287.189 57.39C287.474 57.39 287.744 57.525 287.744 57.84V62.025H289.649C289.919 62.025 290.039 62.25 290.039 62.505C290.039 62.775 289.919 63 289.649 63H287.744V69.78C287.744 70.095 287.474 70.23 287.189 70.23C286.919 70.23 286.649 70.095 286.649 69.78V57.84C286.649 57.525 286.919 57.39 287.189 57.39ZM297.167 57.945C300.032 57.945 301.652 59.265 301.652 61.425C301.652 63.585 300.032 64.905 297.167 64.905C294.302 64.905 292.682 63.585 292.682 61.425C292.682 59.265 294.302 57.945 297.167 57.945ZM297.167 58.875C294.872 58.875 293.777 59.955 293.777 61.425C293.777 62.88 294.872 63.96 297.167 63.96C299.462 63.96 300.557 62.88 300.557 61.425C300.557 59.955 299.462 58.875 297.167 58.875ZM294.782 65.25C295.082 65.25 295.337 65.385 295.337 65.7V67.905H298.997V65.7C298.997 65.385 299.252 65.25 299.537 65.25C299.822 65.25 300.092 65.385 300.092 65.7V67.905H303.047C303.302 67.905 303.422 68.115 303.422 68.37C303.422 68.625 303.302 68.835 303.047 68.835H291.287C291.032 68.835 290.912 68.625 290.912 68.37C290.912 68.115 291.032 67.905 291.287 67.905H294.242V65.7C294.242 65.385 294.512 65.25 294.782 65.25ZM307.819 58.11C309.799 58.11 311.014 59.175 311.014 60.81V60.975C311.014 61.98 310.489 62.67 309.454 63.6C308.224 64.71 308.089 65.115 308.089 65.865C308.089 66.135 307.834 66.285 307.579 66.285C307.294 66.285 307.039 66.15 307.039 65.85C307.039 64.83 307.219 64.29 308.479 63.165C309.574 62.19 309.919 61.695 309.919 60.975V60.855C309.919 59.805 309.154 59.1 307.834 59.1C306.829 59.1 306.154 59.475 305.584 60C305.359 60.18 305.089 60.15 304.909 59.925C304.714 59.715 304.714 59.43 304.939 59.235C305.569 58.635 306.604 58.11 307.819 58.11ZM307.564 67.725C308.044 67.725 308.404 68.1 308.404 68.565C308.404 69.03 308.044 69.39 307.564 69.39C307.099 69.39 306.724 69.03 306.724 68.565C306.724 68.1 307.099 67.725 307.564 67.725Z" fill="#07BEB8"/>
<path d="M116.815 92.102C117.081 92.102 117.333 92.228 117.333 92.522V98.626C117.333 98.822 117.403 98.892 117.599 98.892C118.803 98.892 120.413 98.794 121.477 98.626C121.687 98.598 121.841 98.752 121.883 99.004C121.911 99.256 121.813 99.494 121.589 99.522C120.749 99.662 119.083 99.774 117.263 99.774C116.535 99.774 116.297 99.55 116.297 98.836V92.522C116.297 92.228 116.549 92.102 116.815 92.102ZM126.125 91.164C126.377 91.164 126.615 91.29 126.615 91.57V102.742C126.615 103.022 126.377 103.148 126.125 103.148C125.887 103.148 125.649 103.022 125.649 102.742V96.442H123.703V102.154C123.703 102.434 123.465 102.56 123.213 102.56C122.975 102.56 122.737 102.434 122.737 102.154V91.71C122.737 91.43 122.975 91.304 123.213 91.304C123.465 91.304 123.703 91.43 123.703 91.71V95.56H125.649V91.57C125.649 91.29 125.887 91.164 126.125 91.164ZM133.729 92.158C134.457 92.158 134.695 92.382 134.695 93.096V94.65C134.695 96.988 133.995 97.688 129.669 100.362C129.459 100.488 129.193 100.404 129.053 100.194C128.913 99.984 128.913 99.676 129.137 99.536C133.197 97.058 133.687 96.54 133.687 94.608V93.306C133.687 93.124 133.617 93.054 133.421 93.054H129.459C129.207 93.054 129.095 92.844 129.095 92.606C129.095 92.368 129.207 92.158 129.459 92.158H133.729ZM137.831 91.164C138.097 91.164 138.349 91.29 138.349 91.584V95.49H140.127C140.379 95.49 140.491 95.7 140.491 95.938C140.491 96.19 140.379 96.4 140.127 96.4H138.349V102.728C138.349 103.022 138.097 103.148 137.831 103.148C137.579 103.148 137.327 103.022 137.327 102.728V91.584C137.327 91.29 137.579 91.164 137.831 91.164ZM148.613 91.444C148.879 91.444 149.131 91.57 149.131 91.864V93.138C149.131 94.062 149.411 94.594 150.111 95.126C150.811 95.644 151.357 96.022 151.959 96.414C152.197 96.568 152.197 96.848 152.057 97.058C151.931 97.24 151.679 97.338 151.441 97.184C150.951 96.862 150.391 96.47 149.719 95.98C148.977 95.434 148.697 95.07 148.627 94.79H148.613C148.557 95.084 148.263 95.462 147.521 96.008C146.849 96.512 146.191 96.96 145.547 97.366C145.323 97.52 145.057 97.422 144.931 97.226C144.805 97.016 144.805 96.736 145.029 96.582C145.771 96.106 146.415 95.658 147.115 95.14C147.815 94.608 148.095 94.076 148.095 93.152V91.864C148.095 91.57 148.347 91.444 148.613 91.444ZM154.073 91.164C154.339 91.164 154.591 91.29 154.591 91.584V93.894H156.369C156.621 93.894 156.733 94.104 156.733 94.356C156.733 94.594 156.621 94.804 156.369 94.804H154.591V97.296C154.591 97.59 154.339 97.716 154.073 97.716C153.821 97.716 153.569 97.59 153.569 97.296V91.584C153.569 91.29 153.821 91.164 154.073 91.164ZM148.837 98.416C149.593 98.416 149.803 98.612 149.803 99.354V100.614C149.803 101.342 149.593 101.552 148.837 101.552H146.989C146.793 101.552 146.723 101.622 146.723 101.804V102.812C146.723 103.008 146.793 103.078 146.989 103.078C148.123 103.078 149.159 103.036 149.775 102.952C150.013 102.924 150.125 103.092 150.153 103.316C150.167 103.54 150.083 103.722 149.859 103.764C149.341 103.834 148.235 103.904 146.751 103.904C146.009 103.904 145.785 103.68 145.785 102.966V101.706C145.785 100.964 145.995 100.768 146.751 100.768H148.599C148.795 100.768 148.865 100.698 148.865 100.502V99.494C148.865 99.312 148.795 99.242 148.599 99.242H146.093C145.855 99.242 145.757 99.046 145.757 98.836C145.757 98.612 145.855 98.416 146.093 98.416H148.837ZM153.625 98.416C154.367 98.416 154.591 98.612 154.591 99.354V102.938C154.591 103.666 154.367 103.876 153.625 103.876H151.665C150.909 103.876 150.699 103.666 150.699 102.938V99.354C150.699 98.612 150.909 98.416 151.665 98.416H153.625ZM151.889 99.242C151.693 99.242 151.623 99.298 151.623 99.494V102.798C151.623 102.98 151.693 103.05 151.889 103.05H153.401C153.583 103.05 153.667 102.98 153.667 102.798V99.494C153.667 99.298 153.583 99.242 153.401 99.242H151.889ZM165.388 91.304C165.626 91.304 165.864 91.43 165.864 91.71V102.154C165.864 102.434 165.626 102.56 165.388 102.56C165.136 102.56 164.898 102.434 164.898 102.154V96.442H163.148C163.064 98.78 162.196 99.998 160.446 99.998C158.584 99.998 157.716 98.626 157.716 96.008C157.716 93.39 158.584 92.018 160.446 92.018C162.196 92.018 163.05 93.236 163.148 95.56H164.898V91.71C164.898 91.43 165.136 91.304 165.388 91.304ZM160.446 92.928C159.172 92.928 158.682 94.02 158.682 96.008C158.682 97.996 159.172 99.088 160.446 99.088C161.72 99.088 162.196 97.996 162.196 96.008C162.196 94.02 161.72 92.928 160.446 92.928ZM167.852 91.164C168.104 91.164 168.342 91.29 168.342 91.57V102.742C168.342 103.022 168.104 103.148 167.852 103.148C167.614 103.148 167.376 103.022 167.376 102.742V91.57C167.376 91.29 167.614 91.164 167.852 91.164ZM174.266 91.822C174.532 91.822 174.784 91.948 174.784 92.256V94.58C174.784 95.812 175.05 96.442 175.932 97.38C176.548 98.038 177.15 98.612 177.682 99.102C177.892 99.27 177.836 99.564 177.668 99.746C177.514 99.9 177.234 99.97 177.038 99.774C176.548 99.34 176.044 98.836 175.428 98.22C174.546 97.296 174.336 96.918 174.28 96.61H174.266C174.196 96.932 173.986 97.31 173.104 98.234C172.488 98.85 171.956 99.382 171.326 99.956C171.102 100.152 170.822 100.068 170.668 99.9C170.5 99.704 170.472 99.438 170.668 99.256C171.34 98.64 171.97 98.038 172.586 97.38C173.468 96.442 173.748 95.812 173.748 94.58V92.256C173.748 91.948 173.986 91.822 174.266 91.822ZM180.258 91.164C180.51 91.164 180.762 91.29 180.762 91.584V102.728C180.762 103.022 180.51 103.148 180.258 103.148C179.992 103.148 179.754 103.022 179.754 102.728V95.91H177.248C177.01 95.91 176.898 95.714 176.898 95.462C176.898 95.224 177.01 95.028 177.248 95.028H179.754V91.584C179.754 91.29 179.992 91.164 180.258 91.164ZM197.858 96.358C198.096 96.358 198.208 96.554 198.208 96.792C198.208 97.03 198.096 97.226 197.858 97.226H192.874V99.284C195.212 99.396 196.542 100.25 196.542 101.706C196.542 103.274 195.03 104.142 192.37 104.142C189.71 104.142 188.198 103.274 188.198 101.706C188.198 100.25 189.514 99.396 191.866 99.284V97.226H186.882C186.644 97.226 186.532 97.03 186.532 96.792C186.532 96.554 186.644 96.358 186.882 96.358H195.03C195.268 95.448 195.394 94.482 195.394 93.474V92.844C195.394 92.662 195.324 92.592 195.128 92.592H188.436C188.198 92.592 188.086 92.396 188.086 92.144C188.086 91.906 188.198 91.71 188.436 91.71H195.436C196.164 91.71 196.402 91.934 196.402 92.648V93.404C196.402 94.454 196.248 95.532 196.024 96.358H197.858ZM192.37 100.096C190.228 100.096 189.22 100.74 189.22 101.706C189.22 102.672 190.228 103.316 192.37 103.316C194.512 103.316 195.52 102.672 195.52 101.706C195.52 100.74 194.512 100.096 192.37 100.096ZM210.586 96.568C210.838 96.568 210.95 96.764 210.95 97.016C210.95 97.254 210.838 97.45 210.586 97.45H199.638C199.386 97.45 199.274 97.254 199.274 97.016C199.274 96.764 199.386 96.568 199.638 96.568H207.744C208.01 95.602 208.136 94.58 208.136 93.516V92.844C208.136 92.662 208.066 92.592 207.87 92.592H201.178C200.94 92.592 200.828 92.396 200.828 92.144C200.828 91.906 200.94 91.71 201.178 91.71H208.178C208.906 91.71 209.144 91.934 209.144 92.648V93.446C209.144 94.58 208.962 95.714 208.724 96.568H210.586ZM208.318 99.536C209.046 99.536 209.284 99.76 209.284 100.474V103.68C209.284 103.974 209.046 104.1 208.78 104.1C208.514 104.1 208.276 103.974 208.276 103.68V100.656C208.276 100.474 208.192 100.404 208.01 100.404H201.122C200.884 100.404 200.772 100.208 200.772 99.97C200.772 99.732 200.884 99.536 201.122 99.536H208.318ZM219.072 91.92C219.31 91.92 219.422 92.116 219.422 92.354C219.422 92.606 219.31 92.802 219.072 92.802H216.538V93.796C216.538 94.762 216.804 95.35 217.518 95.924C218.218 96.47 218.876 96.96 219.31 97.268C219.548 97.45 219.562 97.716 219.408 97.912C219.282 98.094 219.03 98.206 218.778 98.024C218.442 97.8 217.798 97.31 217.14 96.806C216.412 96.218 216.104 95.826 216.034 95.532H216.02C215.95 95.84 215.642 96.246 214.9 96.834C214.256 97.352 213.584 97.842 213.038 98.22C212.8 98.388 212.548 98.276 212.408 98.094C212.268 97.898 212.254 97.618 212.506 97.45C213.178 96.974 213.822 96.498 214.522 95.938C215.236 95.364 215.502 94.776 215.502 93.824V92.802H212.884C212.646 92.802 212.534 92.606 212.534 92.354C212.534 92.116 212.646 91.92 212.884 91.92H219.072ZM221.984 91.164C222.236 91.164 222.488 91.29 222.488 91.584V98.234C222.488 98.528 222.236 98.654 221.984 98.654C221.718 98.654 221.48 98.528 221.48 98.234V95.35H219.086C218.848 95.35 218.736 95.154 218.736 94.902C218.736 94.664 218.848 94.454 219.086 94.454H221.48V91.584C221.48 91.29 221.718 91.164 221.984 91.164ZM221.522 99.368C222.25 99.368 222.488 99.592 222.488 100.306V103.652C222.488 103.946 222.236 104.072 221.97 104.072C221.718 104.072 221.466 103.946 221.466 103.652V100.502C221.466 100.32 221.396 100.25 221.2 100.25H214.592C214.354 100.25 214.242 100.054 214.242 99.816C214.242 99.564 214.354 99.368 214.592 99.368H221.522ZM230.597 91.738C233.271 91.738 234.783 93.012 234.783 95.07C234.783 97.142 233.271 98.416 230.597 98.416C227.923 98.416 226.411 97.142 226.411 95.07C226.411 93.012 227.923 91.738 230.597 91.738ZM230.597 92.606C228.455 92.606 227.433 93.656 227.433 95.07C227.433 96.484 228.455 97.534 230.597 97.534C232.739 97.534 233.761 96.484 233.761 95.07C233.761 93.656 232.739 92.606 230.597 92.606ZM236.071 100.95C236.323 100.95 236.435 101.16 236.435 101.412C236.435 101.65 236.323 101.846 236.071 101.846H225.123C224.871 101.846 224.759 101.65 224.759 101.412C224.759 101.16 224.871 100.95 225.123 100.95H236.071ZM246.489 91.92C247.217 91.92 247.455 92.144 247.455 92.858V94.678C247.455 95.392 247.217 95.616 246.489 95.616H240.483C240.287 95.616 240.217 95.686 240.217 95.882V97.352C240.217 97.534 240.287 97.604 240.483 97.604H247.441C247.679 97.604 247.791 97.8 247.791 98.038C247.791 98.276 247.679 98.486 247.441 98.486H243.857V100.964H248.813C249.065 100.964 249.177 101.16 249.177 101.412C249.177 101.65 249.065 101.846 248.813 101.846H237.865C237.613 101.846 237.501 101.65 237.501 101.412C237.501 101.16 237.613 100.964 237.865 100.964H242.835V98.486H240.175C239.447 98.486 239.209 98.262 239.209 97.548V95.714C239.209 95 239.447 94.776 240.175 94.776H246.195C246.377 94.776 246.461 94.706 246.461 94.51V93.054C246.461 92.858 246.377 92.788 246.195 92.788H239.531C239.293 92.788 239.181 92.592 239.181 92.354C239.181 92.116 239.293 91.92 239.531 91.92H246.489Z" fill="#808983"/>
<path d="M115.418 110.996C115.684 110.996 115.936 111.136 115.936 111.43V112.438H119.548C119.786 112.438 119.898 112.648 119.898 112.886C119.898 113.124 119.786 113.334 119.548 113.334H115.936V113.628C115.936 114.566 116.286 115.084 117.21 115.504C118.162 115.938 119.128 116.358 119.968 116.68C120.192 116.764 120.262 117.072 120.15 117.296C120.038 117.534 119.814 117.618 119.59 117.534C118.806 117.226 117.896 116.834 117.07 116.456C115.81 115.896 115.516 115.476 115.432 115.14H115.418C115.334 115.49 115.04 115.91 113.766 116.47C112.954 116.848 112.044 117.24 111.26 117.548C111.036 117.632 110.798 117.548 110.686 117.31C110.574 117.072 110.644 116.764 110.868 116.68C111.708 116.358 112.674 115.938 113.626 115.504C114.55 115.084 114.9 114.566 114.9 113.628V113.334H111.288C111.05 113.334 110.938 113.124 110.938 112.886C110.938 112.648 111.05 112.438 111.288 112.438H114.9V111.43C114.9 111.136 115.152 110.996 115.418 110.996ZM120.892 118.724C121.144 118.724 121.256 118.92 121.256 119.172C121.256 119.41 121.144 119.606 120.892 119.606H115.936V123.708C115.936 124.002 115.684 124.128 115.418 124.128C115.166 124.128 114.914 124.002 114.914 123.708V119.606H109.944C109.692 119.606 109.58 119.41 109.58 119.172C109.58 118.92 109.692 118.724 109.944 118.724H120.892ZM133.634 117.632C133.886 117.632 133.998 117.828 133.998 118.08C133.998 118.318 133.886 118.514 133.634 118.514H128.678V123.708C128.678 124.002 128.426 124.128 128.16 124.128C127.908 124.128 127.656 124.002 127.656 123.708V118.514H122.686C122.434 118.514 122.322 118.318 122.322 118.08C122.322 117.828 122.434 117.632 122.686 117.632H130.75C131.058 116.344 131.198 115.07 131.198 113.656V112.998C131.198 112.802 131.128 112.746 130.932 112.746H124.212C123.974 112.746 123.862 112.536 123.862 112.298C123.862 112.046 123.974 111.85 124.212 111.85H131.24C131.968 111.85 132.206 112.074 132.206 112.788V113.6C132.206 115.07 132.066 116.456 131.758 117.632H133.634ZM138.886 115C140.72 115 141.812 116.134 141.812 117.702C141.812 119.27 140.72 120.404 138.886 120.404C137.052 120.404 135.96 119.27 135.96 117.702C135.96 116.134 137.052 115 138.886 115ZM138.886 111.164C139.152 111.164 139.404 111.29 139.404 111.584V112.998H142.218C142.456 112.998 142.568 113.194 142.568 113.432C142.568 113.684 142.456 113.88 142.218 113.88H135.414C135.162 113.88 135.05 113.684 135.05 113.432C135.05 113.194 135.162 112.998 135.414 112.998H138.368V111.584C138.368 111.29 138.634 111.164 138.886 111.164ZM138.886 115.854C137.654 115.854 136.912 116.61 136.912 117.702C136.912 118.794 137.654 119.55 138.886 119.55C140.118 119.55 140.86 118.794 140.86 117.702C140.86 116.61 140.118 115.854 138.886 115.854ZM144.346 111.164C144.598 111.164 144.85 111.29 144.85 111.584V115.63H146.628C146.88 115.63 146.992 115.84 146.992 116.078C146.992 116.33 146.88 116.54 146.628 116.54H144.85V122.728C144.85 123.022 144.598 123.148 144.346 123.148C144.08 123.148 143.842 123.022 143.842 122.728V111.584C143.842 111.29 144.08 111.164 144.346 111.164ZM150.018 111.514C150.284 111.514 150.522 111.64 150.522 111.934V114.986C150.522 115.168 150.606 115.238 150.788 115.238H157.676C157.914 115.238 158.026 115.434 158.026 115.672C158.026 115.91 157.914 116.12 157.676 116.12H150.466C149.738 116.12 149.5 115.896 149.5 115.182V111.934C149.5 111.64 149.738 111.514 150.018 111.514ZM159.118 117.828C159.37 117.828 159.482 118.024 159.482 118.276C159.482 118.514 159.37 118.71 159.118 118.71H148.17C147.918 118.71 147.806 118.514 147.806 118.276C147.806 118.024 147.918 117.828 148.17 117.828H159.118ZM149.99 119.984C150.256 119.984 150.494 120.11 150.494 120.404V122.686C150.494 122.882 150.578 122.952 150.76 122.952H157.704C157.942 122.952 158.054 123.148 158.054 123.386C158.054 123.624 157.942 123.82 157.704 123.82H150.438C149.71 123.82 149.472 123.596 149.472 122.882V120.404C149.472 120.11 149.71 119.984 149.99 119.984ZM174.017 111.164C174.269 111.164 174.521 111.29 174.521 111.584V119.032C174.521 119.326 174.269 119.452 174.017 119.452C173.751 119.452 173.513 119.326 173.513 119.032V115.168H170.139C169.719 116.26 168.501 116.904 165.309 118.416C165.085 118.514 164.819 118.416 164.707 118.178C164.595 117.968 164.595 117.674 164.861 117.562C168.879 115.686 169.313 115.336 169.313 113.838V113.054C169.313 112.858 169.243 112.788 169.047 112.788H165.141C164.889 112.788 164.777 112.592 164.777 112.354C164.777 112.102 164.889 111.906 165.141 111.906H169.355C170.083 111.906 170.321 112.13 170.321 112.844V113.88C170.321 114.02 170.307 114.16 170.307 114.286H173.513V111.584C173.513 111.29 173.751 111.164 174.017 111.164ZM170.517 118.682C170.783 118.682 171.035 118.808 171.035 119.102V119.788C171.035 120.782 171.343 121.23 172.337 121.776C173.135 122.21 174.003 122.63 174.871 123.008C175.067 123.106 175.123 123.358 175.011 123.582C174.899 123.82 174.689 123.918 174.437 123.806C173.625 123.456 172.855 123.064 172.127 122.686C171.091 122.126 170.643 121.734 170.545 121.37H170.531C170.433 121.748 169.971 122.14 168.935 122.7C168.207 123.078 167.437 123.47 166.625 123.82C166.373 123.932 166.163 123.834 166.037 123.596C165.939 123.372 165.981 123.106 166.191 123.008C167.045 122.63 167.927 122.21 168.725 121.776C169.705 121.23 170.013 120.782 170.013 119.788V119.102C170.013 118.808 170.265 118.682 170.517 118.682ZM182.629 111.318C185.275 111.318 186.773 112.018 186.773 113.502C186.773 114.972 185.275 115.672 182.629 115.672C179.983 115.672 178.485 114.972 178.485 113.502C178.485 112.018 179.983 111.318 182.629 111.318ZM182.629 112.158C180.501 112.158 179.507 112.62 179.507 113.502C179.507 114.37 180.501 114.846 182.629 114.846C184.757 114.846 185.751 114.37 185.751 113.502C185.751 112.62 184.757 112.158 182.629 112.158ZM188.117 116.764C188.355 116.764 188.467 116.96 188.467 117.198C188.467 117.436 188.355 117.632 188.117 117.632H177.141C176.903 117.632 176.791 117.436 176.791 117.198C176.791 116.96 176.903 116.764 177.141 116.764H188.117ZM185.821 118.948C186.549 118.948 186.787 119.172 186.787 119.886V120.922C186.787 121.636 186.549 121.86 185.821 121.86H179.675C179.521 121.86 179.451 121.916 179.451 122.084V122.952C179.451 123.106 179.521 123.162 179.675 123.162H186.801C187.025 123.162 187.123 123.358 187.123 123.568C187.123 123.792 187.025 123.988 186.801 123.988H179.423C178.695 123.988 178.457 123.764 178.457 123.05V122C178.457 121.286 178.695 121.062 179.423 121.062H185.569C185.737 121.062 185.807 121.006 185.807 120.852V119.984C185.807 119.83 185.737 119.76 185.569 119.76H178.765C178.541 119.76 178.429 119.578 178.429 119.354C178.429 119.144 178.541 118.948 178.765 118.948H185.821ZM196.211 111.668C196.477 111.668 196.729 111.794 196.729 112.088V113.516C196.729 114.482 196.869 115.042 197.583 115.742C198.143 116.288 198.605 116.694 199.067 117.1C199.263 117.268 199.249 117.548 199.095 117.73C198.927 117.926 198.661 117.982 198.437 117.8C198.059 117.478 197.597 117.072 197.149 116.638C196.519 116.036 196.295 115.686 196.239 115.406H196.225C196.155 115.714 195.959 116.036 195.301 116.68C194.727 117.226 194.293 117.59 193.775 118.038C193.565 118.206 193.285 118.15 193.117 117.954C192.963 117.772 192.949 117.478 193.145 117.31C193.677 116.862 194.293 116.316 194.867 115.756C195.567 115.07 195.707 114.496 195.707 113.544V112.088C195.707 111.794 195.959 111.668 196.211 111.668ZM203.337 111.164C203.589 111.164 203.827 111.29 203.827 111.57V118.472C203.827 118.752 203.589 118.864 203.337 118.864C203.099 118.864 202.861 118.752 202.861 118.472V115.252H200.999V117.884C200.999 118.164 200.761 118.276 200.509 118.276C200.271 118.276 200.033 118.164 200.033 117.884V111.64C200.033 111.36 200.271 111.234 200.509 111.234C200.761 111.234 200.999 111.36 200.999 111.64V114.37H202.861V111.57C202.861 111.29 203.099 111.164 203.337 111.164ZM199.683 118.99C202.315 118.99 203.813 119.886 203.813 121.552C203.813 123.218 202.315 124.114 199.683 124.114C197.051 124.114 195.553 123.218 195.553 121.552C195.553 119.886 197.051 118.99 199.683 118.99ZM199.683 119.83C197.569 119.83 196.575 120.488 196.575 121.552C196.575 122.616 197.569 123.274 199.683 123.274C201.797 123.274 202.791 122.616 202.791 121.552C202.791 120.488 201.797 119.83 199.683 119.83ZM210.941 111.906C211.669 111.906 211.907 112.13 211.907 112.844V113.88C211.907 115.868 211.109 116.386 206.839 118.416C206.615 118.514 206.349 118.416 206.237 118.178C206.125 117.968 206.125 117.674 206.391 117.562C210.409 115.686 210.899 115.294 210.899 113.838V113.054C210.899 112.858 210.829 112.788 210.633 112.788H206.671C206.419 112.788 206.307 112.592 206.307 112.354C206.307 112.102 206.419 111.906 206.671 111.906H210.941ZM215.043 111.164C215.309 111.164 215.561 111.29 215.561 111.584V114.272H217.339C217.591 114.272 217.703 114.482 217.703 114.734C217.703 114.972 217.591 115.182 217.339 115.182H215.561V118.234C215.561 118.528 215.309 118.654 215.043 118.654C214.791 118.654 214.539 118.528 214.539 118.234V111.584C214.539 111.29 214.791 111.164 215.043 111.164ZM214.595 119.368C215.323 119.368 215.561 119.592 215.561 120.306V123.652C215.561 123.946 215.309 124.072 215.043 124.072C214.791 124.072 214.539 123.946 214.539 123.652V120.502C214.539 120.32 214.469 120.25 214.273 120.25H207.861C207.623 120.25 207.511 120.054 207.511 119.816C207.511 119.564 207.623 119.368 207.861 119.368H214.595ZM221.695 115.014C223.417 115.014 224.271 116.176 224.271 117.66C224.271 119.144 223.417 120.306 221.695 120.306C219.973 120.306 219.133 119.144 219.133 117.66C219.133 116.176 219.973 115.014 221.695 115.014ZM221.695 111.248C221.947 111.248 222.199 111.374 222.199 111.668V113.082H224.495C224.747 113.082 224.859 113.278 224.859 113.516C224.859 113.768 224.747 113.964 224.495 113.964H218.727C218.489 113.964 218.377 113.768 218.377 113.516C218.377 113.278 218.489 113.082 218.727 113.082H221.191V111.668C221.191 111.374 221.443 111.248 221.695 111.248ZM221.695 115.882C220.561 115.882 220.043 116.666 220.043 117.66C220.043 118.668 220.561 119.452 221.695 119.452C222.843 119.452 223.361 118.668 223.361 117.66C223.361 116.666 222.843 115.882 221.695 115.882ZM228.821 111.164C229.073 111.164 229.311 111.29 229.311 111.57V122.742C229.311 123.022 229.073 123.148 228.821 123.148C228.583 123.148 228.345 123.022 228.345 122.742V116.582H226.511V122.154C226.511 122.434 226.273 122.56 226.021 122.56C225.783 122.56 225.545 122.434 225.545 122.154V111.71C225.545 111.43 225.783 111.304 226.021 111.304C226.273 111.304 226.511 111.43 226.511 111.71V115.7H228.345V111.57C228.345 111.29 228.583 111.164 228.821 111.164ZM238.988 119.816C239.198 119.788 239.352 119.956 239.366 120.194C239.38 120.446 239.282 120.656 239.058 120.67C236.594 120.88 234.186 120.95 231.61 120.95C231.358 120.95 231.246 120.754 231.246 120.516C231.246 120.278 231.358 120.068 231.61 120.068C232.632 120.068 233.654 120.068 234.704 120.054V117.59H233.052C232.324 117.59 232.086 117.366 232.086 116.652V112.354C232.086 112.074 232.338 111.948 232.576 111.948C232.842 111.948 233.094 112.074 233.094 112.354V113.978H237.308V112.354C237.308 112.074 237.56 111.948 237.798 111.948C238.064 111.948 238.316 112.074 238.316 112.354V116.652C238.316 117.366 238.078 117.59 237.35 117.59H235.712V120.012C236.762 119.984 237.84 119.928 238.988 119.816ZM240.78 111.164C241.046 111.164 241.284 111.29 241.284 111.584V115.91H242.88C243.132 115.91 243.244 116.12 243.244 116.358C243.244 116.61 243.132 116.82 242.88 116.82H241.284V122.728C241.284 123.022 241.046 123.148 240.78 123.148C240.514 123.148 240.276 123.022 240.276 122.728V111.584C240.276 111.29 240.514 111.164 240.78 111.164ZM233.094 116.484C233.094 116.652 233.164 116.722 233.332 116.722H237.056C237.238 116.722 237.308 116.652 237.308 116.484V114.832H233.094V116.484ZM249.84 111.682C252.514 111.682 254.026 112.914 254.026 114.93C254.026 116.946 252.514 118.178 249.84 118.178C247.166 118.178 245.654 116.946 245.654 114.93C245.654 112.914 247.166 111.682 249.84 111.682ZM249.84 112.55C247.698 112.55 246.676 113.558 246.676 114.93C246.676 116.288 247.698 117.296 249.84 117.296C251.982 117.296 253.004 116.288 253.004 114.93C253.004 113.558 251.982 112.55 249.84 112.55ZM247.614 118.5C247.894 118.5 248.132 118.626 248.132 118.92V120.978H251.548V118.92C251.548 118.626 251.786 118.5 252.052 118.5C252.318 118.5 252.57 118.626 252.57 118.92V120.978H255.328C255.566 120.978 255.678 121.174 255.678 121.412C255.678 121.65 255.566 121.846 255.328 121.846H244.352C244.114 121.846 244.002 121.65 244.002 121.412C244.002 121.174 244.114 120.978 244.352 120.978H247.11V118.92C247.11 118.626 247.362 118.5 247.614 118.5ZM257.822 120.782C258.284 120.782 258.62 121.132 258.62 121.58C258.62 122.014 258.284 122.364 257.822 122.364C257.374 122.364 257.024 122.014 257.024 121.58C257.024 121.132 257.374 120.782 257.822 120.782Z" fill="#808983"/>
</g>
<defs>
<filter id="filter0_d_2249_24612" x="0" y="0" width="365" height="182" filterUnits="userSpaceOnUse" color-interpolation-filters="sRGB">
<feFlood flood-opacity="0" result="BackgroundImageFix"/>
<feColorMatrix in="SourceAlpha" type="matrix" values="0 0 0 0 0 0 0 0 0 0 0 0 0 0 0 0 0 0 127 0" result="hardAlpha"/>
<feOffset dy="4"/>
<feGaussianBlur stdDeviation="10"/>
<feComposite in2="hardAlpha" operator="out"/>
<feColorMatrix type="matrix" values="0 0 0 0 0 0 0 0 0 0 0 0 0 0 0 0 0 0 0.08 0"/>
<feBlend mode="normal" in2="BackgroundImageFix" result="effect1_dropShadow_2249_24612"/>
<feBlend mode="normal" in="SourceGraphic" in2="effect1_dropShadow_2249_24612" result="shape"/>
</filter>
</defs>
</svg>
