<svg viewBox="0 0 365 182" fill="none" xmlns="http://www.w3.org/2000/svg">
<g filter="url(#filter0_d_2249_24609)">
<rect x="20" y="16" width="325" height="142" rx="28" fill="#FFFDFA"/>
<path d="M87.7736 58.455C88.0286 58.455 88.1486 58.665 88.1486 58.935C88.1486 59.19 88.0286 59.415 87.7736 59.415H84.9836V61.14C84.9836 62.475 85.2536 63.15 86.1986 64.125C86.8736 64.8 87.5636 65.46 88.1036 65.925C88.3286 66.12 88.2686 66.435 88.1036 66.615C87.9086 66.795 87.6386 66.87 87.4136 66.66C86.9186 66.24 86.3336 65.67 85.6586 64.995C84.7136 64.05 84.5186 63.66 84.4436 63.33H84.4286C84.3536 63.675 84.1436 64.065 83.2136 65.01C82.5386 65.685 81.9386 66.255 81.2486 66.855C81.0086 67.065 80.7236 66.975 80.5586 66.795C80.3786 66.585 80.3336 66.285 80.5586 66.105C81.3086 65.445 81.9836 64.8 82.6586 64.125C83.6036 63.15 83.8736 62.475 83.8736 61.14V59.415H81.0236C80.7686 59.415 80.6486 59.19 80.6486 58.935C80.6486 58.665 80.7686 58.455 81.0236 58.455H87.7736ZM90.5786 57.39C90.8636 57.39 91.1336 57.525 91.1336 57.84V69.78C91.1336 70.095 90.8636 70.23 90.5786 70.23C90.3086 70.23 90.0386 70.095 90.0386 69.78V57.84C90.0386 57.525 90.3086 57.39 90.5786 57.39ZM103.346 66.06C104.126 66.06 104.381 66.3 104.381 67.065V70.02C104.381 70.785 104.126 71.025 103.346 71.025H96.4759C95.6959 71.025 95.4409 70.785 95.4409 70.02V67.065C95.4409 66.3 95.6959 66.06 96.4759 66.06H103.346ZM105.776 63.06C106.046 63.06 106.166 63.27 106.166 63.54C106.166 63.795 106.046 64.005 105.776 64.005H94.0459C93.7759 64.005 93.6559 63.795 93.6559 63.54C93.6559 63.27 93.7759 63.06 94.0459 63.06H102.731C103.001 62.055 103.151 60.99 103.151 59.865V59.19C103.151 58.995 103.076 58.92 102.866 58.92H95.6959C95.4409 58.92 95.3209 58.71 95.3209 58.44C95.3209 58.185 95.4409 57.975 95.6959 57.975H103.196C103.976 57.975 104.231 58.215 104.231 58.98V59.79C104.231 60.96 104.051 62.16 103.796 63.06H105.776ZM96.8059 66.975C96.5959 66.975 96.5209 67.05 96.5209 67.245V69.84C96.5209 70.035 96.5959 70.11 96.8059 70.11H103.016C103.226 70.11 103.301 70.035 103.301 69.84V67.245C103.301 67.05 103.226 66.975 103.016 66.975H96.8059ZM113.773 58.455C114.553 58.455 114.808 58.695 114.808 59.46V61.305C114.808 63.735 114.583 64.755 111.898 67.62C111.688 67.845 111.403 67.815 111.178 67.62C110.983 67.425 110.938 67.17 111.118 66.96C113.548 64.335 113.758 63.42 113.758 61.26V59.685C113.758 59.49 113.668 59.415 113.473 59.415H112.018C111.748 59.415 111.628 59.19 111.628 58.935C111.628 58.68 111.748 58.455 112.018 58.455H113.773ZM109.963 58.455C110.773 58.455 110.998 58.665 110.998 59.46V60.93C110.998 63.285 110.878 63.915 108.208 66.495C107.998 66.705 107.728 66.675 107.518 66.465C107.308 66.27 107.263 66 107.473 65.805C109.858 63.48 109.948 62.955 109.948 60.87V59.685C109.948 59.49 109.858 59.415 109.663 59.415H108.073C107.803 59.415 107.683 59.19 107.683 58.935C107.683 58.68 107.803 58.455 108.073 58.455H109.963ZM117.433 57.39C117.718 57.39 117.973 57.525 117.973 57.84V62.025H119.698C119.968 62.025 120.088 62.25 120.088 62.505C120.088 62.76 119.968 62.985 119.698 62.985H117.973V69.78C117.973 70.095 117.718 70.23 117.433 70.23C117.163 70.23 116.908 70.095 116.908 69.78V57.84C116.908 57.525 117.163 57.39 117.433 57.39ZM128.731 58.455C128.986 58.455 129.106 58.665 129.106 58.935C129.106 59.19 128.986 59.415 128.731 59.415H125.941V61.14C125.941 62.475 126.211 63.15 127.156 64.125C127.831 64.8 128.521 65.46 129.061 65.925C129.286 66.12 129.226 66.435 129.061 66.615C128.866 66.795 128.596 66.87 128.371 66.66C127.876 66.24 127.291 65.67 126.616 64.995C125.671 64.05 125.476 63.66 125.401 63.33H125.386C125.311 63.675 125.101 64.065 124.171 65.01C123.496 65.685 122.896 66.255 122.206 66.855C121.966 67.065 121.681 66.975 121.516 66.795C121.336 66.585 121.291 66.285 121.516 66.105C122.266 65.445 122.941 64.8 123.616 64.125C124.561 63.15 124.831 62.475 124.831 61.14V59.415H121.981C121.726 59.415 121.606 59.19 121.606 58.935C121.606 58.665 121.726 58.455 121.981 58.455H128.731ZM131.536 57.39C131.821 57.39 132.091 57.525 132.091 57.84V69.78C132.091 70.095 131.821 70.23 131.536 70.23C131.266 70.23 130.996 70.095 130.996 69.78V57.84C130.996 57.525 131.266 57.39 131.536 57.39ZM139.203 58.185C141.558 58.185 142.743 59.58 142.743 61.38C142.743 63.165 141.558 64.56 139.203 64.56C136.848 64.56 135.663 63.165 135.663 61.38C135.663 59.58 136.848 58.185 139.203 58.185ZM139.203 59.13C137.523 59.13 136.728 60.135 136.728 61.38C136.728 62.625 137.523 63.63 139.203 63.63C140.883 63.63 141.678 62.625 141.678 61.38C141.678 60.135 140.883 59.13 139.203 59.13ZM143.538 66.555C143.778 66.525 143.928 66.705 143.958 66.96C143.973 67.23 143.853 67.47 143.628 67.485C140.838 67.725 138.198 67.815 135.198 67.815C134.928 67.815 134.808 67.605 134.808 67.335C134.808 67.08 134.928 66.855 135.198 66.855C137.943 66.855 140.508 66.825 143.538 66.555ZM145.473 57.39C145.743 57.39 146.013 57.525 146.013 57.84V69.78C146.013 70.095 145.743 70.23 145.473 70.23C145.188 70.23 144.933 70.095 144.933 69.78V57.84C144.933 57.525 145.188 57.39 145.473 57.39ZM153.23 58.305C153.515 58.305 153.785 58.44 153.785 58.755V65.475C153.785 65.685 153.86 65.76 154.07 65.76C156.23 65.76 158.015 65.64 159.8 65.4C160.04 65.37 160.205 65.535 160.25 65.805C160.28 66.075 160.175 66.33 159.935 66.36C158.375 66.57 156.515 66.705 153.71 66.705C152.93 66.705 152.675 66.465 152.675 65.7V58.755C152.675 58.44 152.945 58.305 153.23 58.305ZM161.945 57.39C162.23 57.39 162.5 57.525 162.5 57.84V62.025H164.405C164.675 62.025 164.795 62.25 164.795 62.505C164.795 62.775 164.675 63 164.405 63H162.5V69.78C162.5 70.095 162.23 70.23 161.945 70.23C161.675 70.23 161.405 70.095 161.405 69.78V57.84C161.405 57.525 161.675 57.39 161.945 57.39ZM170.258 58.185C172.613 58.185 173.798 59.58 173.798 61.38C173.798 63.165 172.613 64.56 170.258 64.56C167.903 64.56 166.718 63.165 166.718 61.38C166.718 59.58 167.903 58.185 170.258 58.185ZM170.258 59.13C168.578 59.13 167.783 60.135 167.783 61.38C167.783 62.625 168.578 63.63 170.258 63.63C171.938 63.63 172.733 62.625 172.733 61.38C172.733 60.135 171.938 59.13 170.258 59.13ZM174.593 66.555C174.833 66.525 174.983 66.705 175.013 66.96C175.028 67.23 174.908 67.47 174.683 67.485C171.893 67.725 169.253 67.815 166.253 67.815C165.983 67.815 165.863 67.605 165.863 67.335C165.863 67.08 165.983 66.855 166.253 66.855C168.998 66.855 171.563 66.825 174.593 66.555ZM176.528 57.39C176.798 57.39 177.068 57.525 177.068 57.84V69.78C177.068 70.095 176.798 70.23 176.528 70.23C176.243 70.23 175.988 70.095 175.988 69.78V57.84C175.988 57.525 176.243 57.39 176.528 57.39ZM187.06 58.08C189.355 58.08 190.45 59.58 190.45 61.485C190.45 63.375 189.355 64.875 187.06 64.875C184.765 64.875 183.67 63.375 183.67 61.485C183.67 59.58 184.765 58.08 187.06 58.08ZM187.06 59.025C185.395 59.025 184.735 60.165 184.735 61.485C184.735 62.79 185.395 63.93 187.06 63.93C188.725 63.93 189.385 62.79 189.385 61.485C189.385 60.165 188.725 59.025 187.06 59.025ZM193.66 57.39C193.93 57.39 194.2 57.525 194.2 57.84V66.99C194.2 67.305 193.93 67.44 193.66 67.44C193.375 67.44 193.105 67.305 193.105 66.99V57.84C193.105 57.525 193.375 57.39 193.66 57.39ZM186.25 66.27C186.535 66.27 186.805 66.405 186.805 66.72V69.66C186.805 69.855 186.88 69.93 187.09 69.93H194.2C194.47 69.93 194.59 70.155 194.59 70.41C194.59 70.665 194.47 70.89 194.2 70.89H186.73C185.95 70.89 185.695 70.65 185.695 69.885V66.72C185.695 66.405 185.965 66.27 186.25 66.27ZM200.127 57.93C200.412 57.93 200.682 58.065 200.682 58.38V59.91C200.682 60.945 200.832 61.545 201.597 62.295C202.197 62.88 202.692 63.315 203.187 63.75C203.397 63.93 203.382 64.23 203.217 64.425C203.037 64.635 202.752 64.695 202.512 64.5C202.107 64.155 201.612 63.72 201.132 63.255C200.457 62.61 200.217 62.235 200.157 61.935H200.142C200.067 62.265 199.857 62.61 199.152 63.3C198.537 63.885 198.072 64.275 197.517 64.755C197.292 64.935 196.992 64.875 196.812 64.665C196.647 64.47 196.632 64.155 196.842 63.975C197.412 63.495 198.072 62.91 198.687 62.31C199.437 61.575 199.587 60.96 199.587 59.94V58.38C199.587 58.065 199.857 57.93 200.127 57.93ZM207.762 57.39C208.032 57.39 208.287 57.525 208.287 57.825V65.22C208.287 65.52 208.032 65.64 207.762 65.64C207.507 65.64 207.252 65.52 207.252 65.22V61.77H205.257V64.59C205.257 64.89 205.002 65.01 204.732 65.01C204.477 65.01 204.222 64.89 204.222 64.59V57.9C204.222 57.6 204.477 57.465 204.732 57.465C205.002 57.465 205.257 57.6 205.257 57.9V60.825H207.252V57.825C207.252 57.525 207.507 57.39 207.762 57.39ZM203.847 65.775C206.667 65.775 208.272 66.735 208.272 68.52C208.272 70.305 206.667 71.265 203.847 71.265C201.027 71.265 199.422 70.305 199.422 68.52C199.422 66.735 201.027 65.775 203.847 65.775ZM203.847 66.675C201.582 66.675 200.517 67.38 200.517 68.52C200.517 69.66 201.582 70.365 203.847 70.365C206.112 70.365 207.177 69.66 207.177 68.52C207.177 67.38 206.112 66.675 203.847 66.675ZM216.63 57.555C219.465 57.555 221.07 58.305 221.07 59.895C221.07 61.47 219.465 62.22 216.63 62.22C213.795 62.22 212.19 61.47 212.19 59.895C212.19 58.305 213.795 57.555 216.63 57.555ZM216.63 58.455C214.35 58.455 213.285 58.95 213.285 59.895C213.285 60.825 214.35 61.335 216.63 61.335C218.91 61.335 219.975 60.825 219.975 59.895C219.975 58.95 218.91 58.455 216.63 58.455ZM222.51 63.39C222.765 63.39 222.885 63.6 222.885 63.855C222.885 64.11 222.765 64.32 222.51 64.32H210.75C210.495 64.32 210.375 64.11 210.375 63.855C210.375 63.6 210.495 63.39 210.75 63.39H222.51ZM220.05 65.73C220.83 65.73 221.085 65.97 221.085 66.735V67.845C221.085 68.61 220.83 68.85 220.05 68.85H213.465C213.3 68.85 213.225 68.91 213.225 69.09V70.02C213.225 70.185 213.3 70.245 213.465 70.245H221.1C221.34 70.245 221.445 70.455 221.445 70.68C221.445 70.92 221.34 71.13 221.1 71.13H213.195C212.415 71.13 212.16 70.89 212.16 70.125V69C212.16 68.235 212.415 67.995 213.195 67.995H219.78C219.96 67.995 220.035 67.935 220.035 67.77V66.84C220.035 66.675 219.96 66.6 219.78 66.6H212.49C212.25 66.6 212.13 66.405 212.13 66.165C212.13 65.94 212.25 65.73 212.49 65.73H220.05ZM238.067 58.035C238.337 58.035 238.457 58.245 238.457 58.5C238.457 58.77 238.337 58.98 238.067 58.98H230.957C230.747 58.98 230.672 59.055 230.672 59.25V62.22C230.672 62.43 230.747 62.49 230.957 62.49H238.217C238.487 62.49 238.607 62.715 238.607 62.97C238.607 63.225 238.487 63.45 238.217 63.45H230.612C229.832 63.45 229.577 63.21 229.577 62.445V59.04C229.577 58.275 229.832 58.035 230.612 58.035H238.067ZM239.897 65.37C240.167 65.37 240.287 65.58 240.287 65.85C240.287 66.105 240.167 66.315 239.897 66.315H234.587V70.83C234.587 71.145 234.317 71.28 234.032 71.28C233.762 71.28 233.492 71.145 233.492 70.83V66.315H228.167C227.897 66.315 227.777 66.105 227.777 65.85C227.777 65.58 227.897 65.37 228.167 65.37H239.897ZM251.764 58.275C252.034 58.275 252.154 58.485 252.154 58.74C252.154 59.01 252.034 59.22 251.764 59.22H247.189C246.979 59.22 246.904 59.295 246.904 59.49V63.495C246.904 63.705 246.979 63.765 247.189 63.765C249.394 63.765 251.179 63.66 252.964 63.42C253.204 63.39 253.369 63.555 253.414 63.81C253.444 64.08 253.339 64.335 253.099 64.365C251.539 64.59 249.679 64.725 246.844 64.725C246.064 64.725 245.809 64.485 245.809 63.72V59.28C245.809 58.515 246.064 58.275 246.844 58.275H251.764ZM255.109 57.39C255.394 57.39 255.664 57.525 255.664 57.84V61.32H257.569C257.839 61.32 257.959 61.545 257.959 61.815C257.959 62.07 257.839 62.295 257.569 62.295H255.664V66.99C255.664 67.305 255.394 67.44 255.109 67.44C254.839 67.44 254.569 67.305 254.569 66.99V57.84C254.569 57.525 254.839 57.39 255.109 57.39ZM247.864 66.27C248.149 66.27 248.419 66.405 248.419 66.72V69.66C248.419 69.855 248.494 69.93 248.704 69.93H255.664C255.934 69.93 256.054 70.155 256.054 70.41C256.054 70.665 255.934 70.89 255.664 70.89H248.344C247.564 70.89 247.309 70.65 247.309 69.885V66.72C247.309 66.405 247.579 66.27 247.864 66.27ZM267.187 57.54C267.442 57.54 267.697 57.675 267.697 57.975V69.165C267.697 69.465 267.442 69.6 267.187 69.6C266.917 69.6 266.662 69.465 266.662 69.165V64.785H264.817C264.562 64.785 264.442 64.575 264.442 64.305C264.442 64.05 264.562 63.84 264.817 63.84H266.662V61.395H264.337C264.307 63.93 263.767 64.38 259.867 67.14C259.657 67.29 259.357 67.215 259.192 66.99C259.042 66.765 259.042 66.435 259.252 66.285C262.987 63.69 263.272 63.435 263.272 61.08V59.775C263.272 59.58 263.197 59.505 262.987 59.505H259.627C259.357 59.505 259.237 59.28 259.237 59.025C259.237 58.77 259.357 58.545 259.627 58.545H263.302C264.082 58.545 264.337 58.785 264.337 59.55V60.465H266.662V57.975C266.662 57.675 266.917 57.54 267.187 57.54ZM269.872 57.39C270.142 57.39 270.397 57.525 270.397 57.825V69.795C270.397 70.095 270.142 70.23 269.872 70.23C269.617 70.23 269.362 70.095 269.362 69.795V57.825C269.362 57.525 269.617 57.39 269.872 57.39ZM282.114 58.2C282.894 58.2 283.149 58.44 283.149 59.205V61.155C283.149 61.92 282.894 62.16 282.114 62.16H275.679C275.469 62.16 275.394 62.235 275.394 62.445V64.02C275.394 64.215 275.469 64.29 275.679 64.29H283.134C283.389 64.29 283.509 64.5 283.509 64.755C283.509 65.01 283.389 65.235 283.134 65.235H279.294V67.89H284.604C284.874 67.89 284.994 68.1 284.994 68.37C284.994 68.625 284.874 68.835 284.604 68.835H272.874C272.604 68.835 272.484 68.625 272.484 68.37C272.484 68.1 272.604 67.89 272.874 67.89H278.199V65.235H275.349C274.569 65.235 274.314 64.995 274.314 64.23V62.265C274.314 61.5 274.569 61.26 275.349 61.26H281.799C281.994 61.26 282.084 61.185 282.084 60.975V59.415C282.084 59.205 281.994 59.13 281.799 59.13H274.659C274.404 59.13 274.284 58.92 274.284 58.665C274.284 58.41 274.404 58.2 274.659 58.2H282.114Z" fill="#07BEB8"/>
<path d="M58.6893 79.305C58.9743 79.305 59.2443 79.44 59.2443 79.755V86.475C59.2443 86.685 59.3193 86.76 59.5293 86.76C61.6893 86.76 63.4743 86.64 65.2593 86.4C65.4993 86.37 65.6643 86.535 65.7093 86.805C65.7393 87.075 65.6343 87.33 65.3943 87.36C63.8343 87.57 61.9743 87.705 59.1693 87.705C58.3893 87.705 58.1343 87.465 58.1343 86.7V79.755C58.1343 79.44 58.4043 79.305 58.6893 79.305ZM67.4043 78.39C67.6893 78.39 67.9593 78.525 67.9593 78.84V83.025H69.8643C70.1343 83.025 70.2543 83.25 70.2543 83.505C70.2543 83.775 70.1343 84 69.8643 84H67.9593V90.78C67.9593 91.095 67.6893 91.23 67.4043 91.23C67.1343 91.23 66.8643 91.095 66.8643 90.78V78.84C66.8643 78.525 67.1343 78.39 67.4043 78.39ZM73.4966 78.765C73.7816 78.765 74.0366 78.9 74.0366 79.215V82.485C74.0366 82.68 74.1266 82.755 74.3216 82.755H81.7016C81.9566 82.755 82.0766 82.965 82.0766 83.22C82.0766 83.475 81.9566 83.7 81.7016 83.7H73.9766C73.1966 83.7 72.9416 83.46 72.9416 82.695V79.215C72.9416 78.9 73.1966 78.765 73.4966 78.765ZM83.2616 85.365C83.5166 85.365 83.6366 85.59 83.6366 85.845C83.6366 86.085 83.5166 86.31 83.2616 86.31H78.0716V88.8C78.0716 89.1 77.8316 89.22 77.5316 89.22C77.2466 89.22 76.9916 89.1 76.9916 88.8V86.31H71.5016C71.2466 86.31 71.1266 86.085 71.1266 85.845C71.1266 85.59 71.2466 85.365 71.5016 85.365H83.2616ZM73.4666 87.84C73.7516 87.84 74.0066 87.975 74.0066 88.29V90.735C74.0066 90.945 74.0966 91.02 74.2916 91.02H81.7316C81.9866 91.02 82.1066 91.23 82.1066 91.485C82.1066 91.74 81.9866 91.95 81.7316 91.95H73.9466C73.1666 91.95 72.9116 91.71 72.9116 90.945V88.29C72.9116 87.975 73.1666 87.84 73.4666 87.84ZM91.424 79.425C91.694 79.425 91.814 79.635 91.814 79.89C91.814 80.16 91.694 80.37 91.424 80.37H86.789C86.579 80.37 86.504 80.445 86.504 80.655V86.535C86.504 86.745 86.579 86.82 86.789 86.82C88.994 86.82 90.779 86.7 92.564 86.46C92.804 86.43 92.969 86.595 93.014 86.865C93.044 87.135 92.939 87.39 92.699 87.42C91.139 87.63 89.279 87.765 86.444 87.765C85.664 87.765 85.409 87.525 85.409 86.76V80.43C85.409 79.665 85.664 79.425 86.444 79.425H91.424ZM94.709 78.39C94.994 78.39 95.264 78.525 95.264 78.84V83.025H97.169C97.439 83.025 97.559 83.25 97.559 83.505C97.559 83.775 97.439 84 97.169 84H95.264V90.78C95.264 91.095 94.994 91.23 94.709 91.23C94.439 91.23 94.169 91.095 94.169 90.78V78.84C94.169 78.525 94.439 78.39 94.709 78.39ZM104.236 79.275C105.016 79.275 105.271 79.515 105.271 80.28V84.69C105.271 85.455 105.016 85.695 104.236 85.695H100.246C99.4663 85.695 99.2113 85.455 99.2113 84.69V80.28C99.2113 79.515 99.4663 79.275 100.246 79.275H104.236ZM100.576 80.22C100.366 80.22 100.291 80.28 100.291 80.49V84.465C100.291 84.675 100.366 84.75 100.576 84.75H103.921C104.116 84.75 104.206 84.675 104.206 84.465V80.49C104.206 80.28 104.116 80.22 103.921 80.22H100.576ZM109.111 78.39C109.381 78.39 109.651 78.525 109.651 78.84V87.99C109.651 88.305 109.381 88.44 109.111 88.44C108.841 88.44 108.571 88.305 108.571 87.99V84.465H106.426C106.171 84.465 106.051 84.255 106.051 83.985C106.051 83.73 106.171 83.52 106.426 83.52H108.571V81.51H106.426C106.171 81.51 106.051 81.285 106.051 81.03C106.051 80.775 106.171 80.565 106.426 80.565H108.571V78.84C108.571 78.525 108.841 78.39 109.111 78.39ZM101.641 87.27C101.926 87.27 102.196 87.405 102.196 87.72V90.66C102.196 90.855 102.271 90.93 102.481 90.93H109.651C109.921 90.93 110.041 91.155 110.041 91.41C110.041 91.665 109.921 91.89 109.651 91.89H102.121C101.341 91.89 101.086 91.65 101.086 90.885V87.72C101.086 87.405 101.356 87.27 101.641 87.27ZM126.514 78.39C126.784 78.39 127.054 78.525 127.054 78.84V90.78C127.054 91.095 126.784 91.23 126.514 91.23C126.229 91.23 125.974 91.095 125.974 90.78V84.045H123.064C122.944 86.595 121.819 87.96 119.719 87.96C117.499 87.96 116.344 86.43 116.344 83.58C116.344 80.73 117.499 79.2 119.719 79.2C121.804 79.2 122.944 80.565 123.064 83.1H125.974V78.84C125.974 78.525 126.229 78.39 126.514 78.39ZM119.719 80.175C118.114 80.175 117.424 81.405 117.424 83.58C117.424 85.755 118.114 86.985 119.719 86.985C121.324 86.985 122.014 85.755 122.014 83.58C122.014 81.405 121.324 80.175 119.719 80.175ZM131.826 79.23C132.111 79.23 132.381 79.365 132.381 79.68V84.345C132.381 84.54 132.456 84.615 132.666 84.615H140.076C140.346 84.615 140.466 84.825 140.466 85.095C140.466 85.35 140.346 85.575 140.076 85.575H132.306C131.526 85.575 131.271 85.335 131.271 84.57V79.68C131.271 79.365 131.526 79.23 131.826 79.23ZM141.606 88.875C141.876 88.875 141.996 89.1 141.996 89.37C141.996 89.625 141.876 89.835 141.606 89.835H129.876C129.606 89.835 129.486 89.625 129.486 89.37C129.486 89.1 129.606 88.875 129.876 88.875H141.606ZM151.283 79.08C151.568 79.08 151.838 79.215 151.838 79.545V81.96C151.838 83.295 152.153 83.985 153.098 84.99C153.758 85.68 154.403 86.31 155.003 86.85C155.213 87.03 155.153 87.345 154.973 87.54C154.808 87.705 154.508 87.78 154.298 87.57C153.758 87.09 153.218 86.55 152.558 85.875C151.613 84.9 151.373 84.48 151.298 84.135H151.283C151.208 84.495 150.953 84.915 150.008 85.89C149.363 86.565 148.793 87.135 148.088 87.765C147.848 87.975 147.563 87.885 147.383 87.705C147.203 87.495 147.188 87.21 147.398 87.015C148.133 86.34 148.808 85.68 149.468 84.99C150.413 83.985 150.728 83.295 150.728 81.96V79.545C150.728 79.215 150.998 79.08 151.283 79.08ZM157.463 78.39C157.748 78.39 158.018 78.525 158.018 78.84V90.78C158.018 91.095 157.748 91.23 157.463 91.23C157.193 91.23 156.923 91.095 156.923 90.78V78.84C156.923 78.525 157.193 78.39 157.463 78.39ZM168.101 79.2C168.356 79.2 168.476 79.41 168.476 79.665C168.476 79.935 168.356 80.145 168.101 80.145H165.386V81.195C165.386 82.2 165.656 82.785 166.451 83.4C167.156 83.94 167.801 84.405 168.356 84.78C168.611 84.96 168.611 85.26 168.461 85.47C168.311 85.665 168.056 85.77 167.801 85.59C167.366 85.305 166.676 84.81 166.046 84.33C165.251 83.73 164.921 83.295 164.846 82.98H164.831C164.756 83.31 164.426 83.76 163.631 84.36C162.941 84.885 162.221 85.395 161.621 85.8C161.366 85.965 161.111 85.86 160.961 85.665C160.811 85.455 160.796 85.155 161.066 84.975C161.756 84.495 162.476 84 163.211 83.415C164.006 82.8 164.276 82.215 164.276 81.21V80.145H161.471C161.216 80.145 161.096 79.935 161.096 79.665C161.096 79.41 161.216 79.2 161.471 79.2H168.101ZM171.221 78.39C171.491 78.39 171.761 78.525 171.761 78.84V85.665C171.761 85.98 171.491 86.115 171.221 86.115C170.936 86.115 170.681 85.98 170.681 85.665V82.8H168.116C167.861 82.8 167.741 82.59 167.741 82.32C167.741 82.065 167.861 81.84 168.116 81.84H170.681V78.84C170.681 78.525 170.936 78.39 171.221 78.39ZM164.231 86.88H170.726C171.506 86.88 171.761 87.12 171.761 87.885V90.99C171.761 91.755 171.506 91.995 170.726 91.995H164.231C163.451 91.995 163.196 91.755 163.196 90.99V87.885C163.196 87.12 163.451 86.88 164.231 86.88ZM164.576 87.81C164.366 87.81 164.291 87.885 164.291 88.095V90.78C164.291 90.99 164.366 91.065 164.576 91.065H170.396C170.591 91.065 170.681 90.99 170.681 90.78V88.095C170.681 87.885 170.591 87.81 170.396 87.81H164.576ZM182.593 78.54C182.848 78.54 183.103 78.675 183.103 78.975V90.165C183.103 90.465 182.848 90.6 182.593 90.6C182.323 90.6 182.068 90.465 182.068 90.165V84.045H180.193C180.103 86.55 179.173 87.855 177.298 87.855C175.303 87.855 174.373 86.385 174.373 83.58C174.373 80.775 175.303 79.305 177.298 79.305C179.173 79.305 180.088 80.61 180.193 83.1H182.068V78.975C182.068 78.675 182.323 78.54 182.593 78.54ZM177.298 80.28C175.933 80.28 175.408 81.45 175.408 83.58C175.408 85.71 175.933 86.88 177.298 86.88C178.663 86.88 179.173 85.71 179.173 83.58C179.173 81.45 178.663 80.28 177.298 80.28ZM185.233 78.39C185.503 78.39 185.758 78.525 185.758 78.825V90.795C185.758 91.095 185.503 91.23 185.233 91.23C184.978 91.23 184.723 91.095 184.723 90.795V78.825C184.723 78.525 184.978 78.39 185.233 78.39ZM203.715 85.32C203.985 85.32 204.105 85.53 204.105 85.8C204.105 86.055 203.985 86.265 203.715 86.265H198.405V91.83C198.405 92.145 198.135 92.28 197.85 92.28C197.58 92.28 197.31 92.145 197.31 91.83V86.265H191.985C191.715 86.265 191.595 86.055 191.595 85.8C191.595 85.53 191.715 85.32 191.985 85.32H200.625C200.955 83.94 201.105 82.575 201.105 81.06V80.355C201.105 80.145 201.03 80.085 200.82 80.085H193.62C193.365 80.085 193.245 79.86 193.245 79.605C193.245 79.335 193.365 79.125 193.62 79.125H201.15C201.93 79.125 202.185 79.365 202.185 80.13V81C202.185 82.575 202.035 84.06 201.705 85.32H203.715ZM207.588 78.735C207.873 78.735 208.128 78.87 208.128 79.17V80.55H214.878V79.17C214.878 78.87 215.133 78.735 215.403 78.735C215.688 78.735 215.943 78.87 215.943 79.17V83.025C215.943 83.79 215.688 84.03 214.908 84.03H208.098C207.318 84.03 207.063 83.79 207.063 83.025V79.17C207.063 78.87 207.318 78.735 207.588 78.735ZM208.128 82.875C208.128 83.055 208.203 83.115 208.383 83.115H214.623C214.803 83.115 214.878 83.055 214.878 82.875V81.48H208.128V82.875ZM217.383 85.59C217.638 85.59 217.758 85.8 217.758 86.055C217.758 86.31 217.638 86.52 217.383 86.52H212.193V88.8C212.193 89.1 211.953 89.235 211.653 89.235C211.368 89.235 211.113 89.1 211.113 88.8V86.52H205.623C205.368 86.52 205.248 86.31 205.248 86.055C205.248 85.8 205.368 85.59 205.623 85.59H217.383ZM207.588 87.93C207.873 87.93 208.128 88.065 208.128 88.395V90.735C208.128 90.945 208.218 91.02 208.413 91.02H215.853C216.108 91.02 216.228 91.23 216.228 91.485C216.228 91.74 216.108 91.95 215.853 91.95H208.068C207.288 91.95 207.033 91.71 207.033 90.945V88.395C207.033 88.065 207.288 87.93 207.588 87.93ZM223.16 78.96C223.445 78.96 223.715 79.095 223.715 79.41V81.165C223.715 82.185 224 82.92 224.765 83.58C225.515 84.21 226.13 84.705 226.7 85.125C226.955 85.32 226.94 85.635 226.79 85.83C226.625 86.04 226.355 86.13 226.1 85.935C225.575 85.56 224.96 85.065 224.255 84.465C223.505 83.835 223.25 83.415 223.175 83.1H223.16C223.085 83.43 222.83 83.865 222.065 84.51C221.36 85.11 220.64 85.68 219.965 86.16C219.71 86.355 219.44 86.25 219.275 86.04C219.125 85.845 219.095 85.53 219.35 85.335C220.085 84.81 220.805 84.24 221.54 83.595C222.305 82.935 222.605 82.215 222.605 81.195V79.41C222.605 79.095 222.86 78.96 223.16 78.96ZM229.58 78.39C229.85 78.39 230.12 78.525 230.12 78.84V87.99C230.12 88.305 229.85 88.44 229.58 88.44C229.295 88.44 229.04 88.305 229.04 87.99V82.5H226.355C226.1 82.5 225.98 82.29 225.98 82.02C225.98 81.765 226.1 81.54 226.355 81.54H229.04V78.84C229.04 78.525 229.295 78.39 229.58 78.39ZM222.11 87.27C222.395 87.27 222.665 87.405 222.665 87.72V90.66C222.665 90.855 222.74 90.93 222.95 90.93H230.12C230.39 90.93 230.51 91.155 230.51 91.41C230.51 91.665 230.39 91.89 230.12 91.89H222.59C221.81 91.89 221.555 91.65 221.555 90.885V87.72C221.555 87.405 221.825 87.27 222.11 87.27ZM238.807 78.555C241.642 78.555 243.247 79.305 243.247 80.895C243.247 82.47 241.642 83.22 238.807 83.22C235.972 83.22 234.367 82.47 234.367 80.895C234.367 79.305 235.972 78.555 238.807 78.555ZM238.807 79.455C236.527 79.455 235.462 79.95 235.462 80.895C235.462 81.825 236.527 82.335 238.807 82.335C241.087 82.335 242.152 81.825 242.152 80.895C242.152 79.95 241.087 79.455 238.807 79.455ZM244.687 84.39C244.942 84.39 245.062 84.6 245.062 84.855C245.062 85.11 244.942 85.32 244.687 85.32H232.927C232.672 85.32 232.552 85.11 232.552 84.855C232.552 84.6 232.672 84.39 232.927 84.39H244.687ZM242.227 86.73C243.007 86.73 243.262 86.97 243.262 87.735V88.845C243.262 89.61 243.007 89.85 242.227 89.85H235.642C235.477 89.85 235.402 89.91 235.402 90.09V91.02C235.402 91.185 235.477 91.245 235.642 91.245H243.277C243.517 91.245 243.622 91.455 243.622 91.68C243.622 91.92 243.517 92.13 243.277 92.13H235.372C234.592 92.13 234.337 91.89 234.337 91.125V90C234.337 89.235 234.592 88.995 235.372 88.995H241.957C242.137 88.995 242.212 88.935 242.212 88.77V87.84C242.212 87.675 242.137 87.6 241.957 87.6H234.667C234.427 87.6 234.307 87.405 234.307 87.165C234.307 86.94 234.427 86.73 234.667 86.73H242.227ZM259.63 86.73C260.41 86.73 260.665 86.97 260.665 87.735V88.845C260.665 89.61 260.41 89.85 259.63 89.85H253.045C252.88 89.85 252.805 89.91 252.805 90.09V91.02C252.805 91.185 252.88 91.245 253.045 91.245H260.68C260.92 91.245 261.025 91.455 261.025 91.68C261.025 91.92 260.92 92.13 260.68 92.13H252.775C251.995 92.13 251.74 91.89 251.74 91.125V90C251.74 89.235 251.995 88.995 252.775 88.995H259.36C259.54 88.995 259.615 88.935 259.615 88.77V87.84C259.615 87.675 259.54 87.6 259.36 87.6H252.07C251.83 87.6 251.71 87.405 251.71 87.165C251.71 86.94 251.83 86.73 252.07 86.73H255.67V85.215H250.315C250.075 85.215 249.955 85.005 249.955 84.75C249.955 84.51 250.075 84.315 250.315 84.315H262.105C262.345 84.315 262.465 84.51 262.465 84.75C262.465 85.005 262.345 85.215 262.105 85.215H256.75V86.73H259.63ZM260.245 78.735C260.5 78.735 260.62 78.93 260.62 79.185C260.62 79.44 260.5 79.65 260.245 79.65H253.15C252.94 79.65 252.865 79.71 252.865 79.92V81.825C252.865 82.035 252.94 82.095 253.15 82.095H260.395C260.65 82.095 260.77 82.305 260.77 82.56C260.77 82.815 260.65 83.01 260.395 83.01H252.805C252.025 83.01 251.77 82.77 251.77 82.005V79.74C251.77 78.975 252.025 78.735 252.805 78.735H260.245ZM274.287 78.39C274.557 78.39 274.827 78.525 274.827 78.84V87.99C274.827 88.305 274.557 88.44 274.287 88.44C274.002 88.44 273.747 88.305 273.747 87.99V82.95H270.117C269.682 84.105 268.377 84.855 264.957 86.565C264.732 86.685 264.432 86.58 264.312 86.325C264.192 86.1 264.192 85.77 264.462 85.65C268.797 83.52 269.247 83.13 269.247 81.465V80.535C269.247 80.34 269.172 80.265 268.962 80.265H264.777C264.507 80.265 264.387 80.04 264.387 79.785C264.387 79.53 264.507 79.305 264.777 79.305H269.292C270.072 79.305 270.327 79.545 270.327 80.31V81.525C270.327 81.705 270.312 81.855 270.312 82.005H273.747V78.84C273.747 78.525 274.002 78.39 274.287 78.39ZM266.817 87.27C267.102 87.27 267.372 87.405 267.372 87.72V90.66C267.372 90.855 267.447 90.93 267.657 90.93H274.827C275.097 90.93 275.217 91.155 275.217 91.41C275.217 91.665 275.097 91.89 274.827 91.89H267.297C266.517 91.89 266.262 91.65 266.262 90.885V87.72C266.262 87.405 266.532 87.27 266.817 87.27ZM282.794 79.455C283.574 79.455 283.829 79.695 283.829 80.46V82.125C283.829 84.63 283.079 85.38 278.444 88.245C278.219 88.38 277.934 88.29 277.784 88.065C277.634 87.84 277.634 87.51 277.874 87.36C282.224 84.705 282.749 84.15 282.749 82.08V80.685C282.749 80.49 282.674 80.415 282.464 80.415H278.219C277.949 80.415 277.829 80.19 277.829 79.935C277.829 79.68 277.949 79.455 278.219 79.455H282.794ZM287.189 78.39C287.474 78.39 287.744 78.525 287.744 78.84V83.025H289.649C289.919 83.025 290.039 83.25 290.039 83.505C290.039 83.775 289.919 84 289.649 84H287.744V90.78C287.744 91.095 287.474 91.23 287.189 91.23C286.919 91.23 286.649 91.095 286.649 90.78V78.84C286.649 78.525 286.919 78.39 287.189 78.39ZM297.167 78.945C300.032 78.945 301.652 80.265 301.652 82.425C301.652 84.585 300.032 85.905 297.167 85.905C294.302 85.905 292.682 84.585 292.682 82.425C292.682 80.265 294.302 78.945 297.167 78.945ZM297.167 79.875C294.872 79.875 293.777 80.955 293.777 82.425C293.777 83.88 294.872 84.96 297.167 84.96C299.462 84.96 300.557 83.88 300.557 82.425C300.557 80.955 299.462 79.875 297.167 79.875ZM294.782 86.25C295.082 86.25 295.337 86.385 295.337 86.7V88.905H298.997V86.7C298.997 86.385 299.252 86.25 299.537 86.25C299.822 86.25 300.092 86.385 300.092 86.7V88.905H303.047C303.302 88.905 303.422 89.115 303.422 89.37C303.422 89.625 303.302 89.835 303.047 89.835H291.287C291.032 89.835 290.912 89.625 290.912 89.37C290.912 89.115 291.032 88.905 291.287 88.905H294.242V86.7C294.242 86.385 294.512 86.25 294.782 86.25ZM307.819 79.11C309.799 79.11 311.014 80.175 311.014 81.81V81.975C311.014 82.98 310.489 83.67 309.454 84.6C308.224 85.71 308.089 86.115 308.089 86.865C308.089 87.135 307.834 87.285 307.579 87.285C307.294 87.285 307.039 87.15 307.039 86.85C307.039 85.83 307.219 85.29 308.479 84.165C309.574 83.19 309.919 82.695 309.919 81.975V81.855C309.919 80.805 309.154 80.1 307.834 80.1C306.829 80.1 306.154 80.475 305.584 81C305.359 81.18 305.089 81.15 304.909 80.925C304.714 80.715 304.714 80.43 304.939 80.235C305.569 79.635 306.604 79.11 307.819 79.11ZM307.564 88.725C308.044 88.725 308.404 89.1 308.404 89.565C308.404 90.03 308.044 90.39 307.564 90.39C307.099 90.39 306.724 90.03 306.724 89.565C306.724 89.1 307.099 88.725 307.564 88.725Z" fill="#07BEB8"/>
<path d="M78.3124 111.752C78.5784 111.752 78.8304 111.892 78.8304 112.186V113.096C78.8304 114.412 79.1104 115.014 80.2444 115.756C81.0704 116.288 82.0084 116.848 83.0444 117.422C83.2404 117.52 83.2544 117.828 83.1284 118.038C83.0024 118.248 82.7504 118.36 82.5404 118.234C81.6724 117.758 80.6644 117.17 79.8664 116.652C78.8304 115.994 78.4384 115.518 78.3264 115.14H78.3124C78.2004 115.532 77.8084 116.008 76.7724 116.666C75.9604 117.184 74.9664 117.772 74.0984 118.248C73.8744 118.374 73.6364 118.262 73.4964 118.038C73.3704 117.828 73.3844 117.52 73.5804 117.422C74.6164 116.848 75.5544 116.288 76.3804 115.756C77.5144 115.014 77.7944 114.412 77.7944 113.096V112.186C77.7944 111.892 78.0464 111.752 78.3124 111.752ZM83.7864 120.95C84.0384 120.95 84.1504 121.16 84.1504 121.412C84.1504 121.65 84.0384 121.846 83.7864 121.846H72.8384C72.5864 121.846 72.4744 121.65 72.4744 121.412C72.4744 121.16 72.5864 120.95 72.8384 120.95H83.7864ZM91.0546 111.752C91.3206 111.752 91.5726 111.892 91.5726 112.186V113.096C91.5726 114.412 91.8526 115.014 92.9866 115.756C93.8126 116.288 94.7506 116.848 95.7866 117.422C95.9826 117.52 95.9966 117.828 95.8706 118.038C95.7446 118.248 95.4926 118.36 95.2826 118.234C94.4146 117.758 93.4066 117.17 92.6086 116.652C91.5726 115.994 91.1806 115.518 91.0686 115.14H91.0546C90.9426 115.532 90.5506 116.008 89.5146 116.666C88.7026 117.184 87.7086 117.772 86.8406 118.248C86.6166 118.374 86.3786 118.262 86.2386 118.038C86.1126 117.828 86.1266 117.52 86.3226 117.422C87.3586 116.848 88.2966 116.288 89.1226 115.756C90.2566 115.014 90.5366 114.412 90.5366 113.096V112.186C90.5366 111.892 90.7886 111.752 91.0546 111.752ZM96.5286 120.95C96.7806 120.95 96.8926 121.16 96.8926 121.412C96.8926 121.65 96.7806 121.846 96.5286 121.846H85.5806C85.3286 121.846 85.2166 121.65 85.2166 121.412C85.2166 121.16 85.3286 120.95 85.5806 120.95H96.5286ZM106.947 111.92C107.675 111.92 107.913 112.144 107.913 112.858V114.678C107.913 115.392 107.675 115.616 106.947 115.616H100.941C100.745 115.616 100.675 115.686 100.675 115.882V117.352C100.675 117.534 100.745 117.604 100.941 117.604H107.899C108.137 117.604 108.249 117.8 108.249 118.038C108.249 118.276 108.137 118.486 107.899 118.486H104.315V120.964H109.271C109.523 120.964 109.635 121.16 109.635 121.412C109.635 121.65 109.523 121.846 109.271 121.846H98.3228C98.0708 121.846 97.9588 121.65 97.9588 121.412C97.9588 121.16 98.0708 120.964 98.3228 120.964H103.293V118.486H100.633C99.9048 118.486 99.6668 118.262 99.6668 117.548V115.714C99.6668 115 99.9048 114.776 100.633 114.776H106.653C106.835 114.776 106.919 114.706 106.919 114.51V113.054C106.919 112.858 106.835 112.788 106.653 112.788H99.9888C99.7508 112.788 99.6388 112.592 99.6388 112.354C99.6388 112.116 99.7508 111.92 99.9888 111.92H106.947ZM123.133 112.116C123.861 112.116 124.099 112.34 124.099 113.054V114.328C124.099 116.33 123.959 117.954 123.609 119.564C123.567 119.816 123.301 119.928 123.007 119.872C122.755 119.83 122.573 119.648 122.615 119.396C122.797 118.472 122.937 117.59 123.007 116.722L115.965 116.82C115.699 116.834 115.587 116.638 115.587 116.386C115.573 116.12 115.685 115.91 115.937 115.91L123.063 115.84C123.077 115.406 123.091 114.958 123.091 114.51V113.278C123.091 113.082 123.021 113.012 122.825 113.012H116.217C115.979 113.012 115.867 112.816 115.867 112.564C115.867 112.312 115.979 112.116 116.217 112.116H123.133ZM125.513 120.95C125.765 120.95 125.877 121.16 125.877 121.412C125.877 121.65 125.765 121.846 125.513 121.846H114.565C114.313 121.846 114.201 121.65 114.201 121.412C114.201 121.16 114.313 120.95 114.565 120.95H125.513ZM134.699 111.304C134.937 111.304 135.175 111.43 135.175 111.71V122.154C135.175 122.434 134.937 122.56 134.699 122.56C134.447 122.56 134.209 122.434 134.209 122.154V116.442H131.969C131.605 117.632 130.611 118.374 127.937 120.264C127.741 120.404 127.447 120.334 127.307 120.124C127.153 119.914 127.153 119.606 127.363 119.466C130.863 117.044 131.157 116.778 131.157 114.608V113.39C131.157 113.208 131.073 113.138 130.891 113.138H127.699C127.447 113.138 127.335 112.928 127.335 112.69C127.335 112.452 127.447 112.242 127.699 112.242H131.185C131.913 112.242 132.151 112.466 132.151 113.18V114.65C132.151 114.986 132.137 115.294 132.109 115.56H134.209V111.71C134.209 111.43 134.447 111.304 134.699 111.304ZM137.247 111.164C137.499 111.164 137.737 111.29 137.737 111.57V122.742C137.737 123.022 137.499 123.148 137.247 123.148C137.009 123.148 136.771 123.022 136.771 122.742V111.57C136.771 111.29 137.009 111.164 137.247 111.164ZM144.417 111.878C144.683 111.878 144.935 112.004 144.935 112.284V114.23H148.575V112.284C148.575 112.004 148.813 111.878 149.065 111.878C149.331 111.878 149.569 112.004 149.569 112.284V117.198C149.569 117.912 149.331 118.136 148.603 118.136H144.893C144.165 118.136 143.927 117.912 143.927 117.198V112.284C143.927 112.004 144.179 111.878 144.417 111.878ZM144.935 117.002C144.935 117.198 145.005 117.268 145.201 117.268H148.309C148.491 117.268 148.575 117.198 148.575 117.002V115.098H144.935V117.002ZM153.153 111.164C153.405 111.164 153.657 111.29 153.657 111.584V120.124C153.657 120.418 153.405 120.544 153.153 120.544C152.901 120.544 152.649 120.418 152.649 120.124V116.876H150.647C150.409 116.876 150.297 116.68 150.297 116.442C150.297 116.204 150.409 115.994 150.647 115.994H152.649V114.132H150.647C150.409 114.132 150.297 113.936 150.297 113.698C150.297 113.46 150.409 113.25 150.647 113.25H152.649V111.584C152.649 111.29 152.901 111.164 153.153 111.164ZM146.181 119.536C146.447 119.536 146.699 119.662 146.699 119.956V122.616C146.699 122.798 146.769 122.868 146.965 122.868H153.657C153.909 122.868 154.021 123.078 154.021 123.316C154.021 123.554 153.909 123.764 153.657 123.764H146.629C145.901 123.764 145.663 123.54 145.663 122.826V119.956C145.663 119.662 145.915 119.536 146.181 119.536ZM163.684 120.04C163.894 120.026 164.034 120.18 164.062 120.432C164.09 120.67 163.978 120.88 163.754 120.894C161.29 121.104 158.868 121.174 156.278 121.174C156.026 121.174 155.914 120.978 155.914 120.74C155.914 120.502 156.026 120.306 156.278 120.306C157.314 120.306 158.35 120.306 159.428 120.278V118.64C157.888 118.5 157.034 117.702 157.034 116.554C157.034 115.294 158.084 114.44 159.932 114.44C161.78 114.44 162.83 115.294 162.83 116.554C162.83 117.702 161.962 118.5 160.436 118.64V120.25C161.472 120.208 162.55 120.138 163.684 120.04ZM165.448 111.164C165.714 111.164 165.952 111.29 165.952 111.584V115.91H167.548C167.8 115.91 167.912 116.12 167.912 116.358C167.912 116.61 167.8 116.82 167.548 116.82H165.952V122.728C165.952 123.022 165.714 123.148 165.448 123.148C165.182 123.148 164.944 123.022 164.944 122.728V111.584C164.944 111.29 165.182 111.164 165.448 111.164ZM159.932 115.266C158.616 115.266 157.972 115.812 157.972 116.554C157.972 117.31 158.616 117.856 159.932 117.856C161.248 117.856 161.892 117.31 161.892 116.554C161.892 115.812 161.248 115.266 159.932 115.266ZM159.932 111.206C160.198 111.206 160.45 111.332 160.45 111.626V112.662H163.278C163.53 112.662 163.642 112.858 163.642 113.096C163.642 113.348 163.53 113.544 163.278 113.544H156.488C156.236 113.544 156.124 113.348 156.124 113.096C156.124 112.858 156.236 112.662 156.488 112.662H159.414V111.626C159.414 111.332 159.68 111.206 159.932 111.206ZM172.464 114.538C174.284 114.538 175.362 115.448 175.362 116.82C175.362 118.192 174.284 119.102 172.464 119.102C170.644 119.102 169.566 118.192 169.566 116.82C169.566 115.448 170.644 114.538 172.464 114.538ZM172.464 111.136C172.73 111.136 172.982 111.262 172.982 111.556V112.662H175.768C176.02 112.662 176.132 112.858 176.132 113.096C176.132 113.348 176.02 113.544 175.768 113.544H169.02C168.768 113.544 168.656 113.348 168.656 113.096C168.656 112.858 168.768 112.662 169.02 112.662H171.946V111.556C171.946 111.262 172.212 111.136 172.464 111.136ZM172.464 115.364C171.204 115.364 170.504 115.952 170.504 116.82C170.504 117.688 171.204 118.276 172.464 118.276C173.724 118.276 174.424 117.688 174.424 116.82C174.424 115.952 173.724 115.364 172.464 115.364ZM177.952 111.164C178.204 111.164 178.456 111.29 178.456 111.584V114.986H180.234C180.486 114.986 180.598 115.196 180.598 115.434C180.598 115.672 180.486 115.882 180.234 115.882H178.456V120.264C178.456 120.558 178.204 120.684 177.952 120.684C177.686 120.684 177.448 120.558 177.448 120.264V111.584C177.448 111.29 177.686 111.164 177.952 111.164ZM171.176 119.984C171.442 119.984 171.694 120.11 171.694 120.404V122.616C171.694 122.798 171.764 122.868 171.96 122.868H178.456C178.708 122.868 178.82 123.078 178.82 123.316C178.82 123.554 178.708 123.764 178.456 123.764H171.624C170.896 123.764 170.658 123.54 170.658 122.826V120.404C170.658 120.11 170.91 119.984 171.176 119.984ZM189.014 111.808C189.28 111.808 189.532 111.934 189.532 112.242V114.496C189.532 115.742 189.826 116.386 190.708 117.324C191.324 117.968 191.926 118.556 192.486 119.06C192.682 119.228 192.626 119.522 192.458 119.704C192.304 119.858 192.024 119.928 191.828 119.732C191.324 119.284 190.82 118.78 190.204 118.15C189.322 117.24 189.098 116.848 189.028 116.526H189.014C188.944 116.862 188.706 117.254 187.824 118.164C187.222 118.794 186.69 119.326 186.032 119.914C185.808 120.11 185.542 120.026 185.374 119.858C185.206 119.662 185.192 119.396 185.388 119.214C186.074 118.584 186.704 117.968 187.32 117.324C188.202 116.386 188.496 115.742 188.496 114.496V112.242C188.496 111.934 188.748 111.808 189.014 111.808ZM194.782 111.164C195.048 111.164 195.3 111.29 195.3 111.584V122.728C195.3 123.022 195.048 123.148 194.782 123.148C194.53 123.148 194.278 123.022 194.278 122.728V111.584C194.278 111.29 194.53 111.164 194.782 111.164ZM204.71 111.92C204.948 111.92 205.06 112.116 205.06 112.354C205.06 112.606 204.948 112.802 204.71 112.802H202.176V113.782C202.176 114.72 202.428 115.266 203.17 115.84C203.828 116.344 204.43 116.778 204.948 117.128C205.186 117.296 205.186 117.576 205.046 117.772C204.906 117.954 204.668 118.052 204.43 117.884C204.024 117.618 203.38 117.156 202.792 116.708C202.05 116.148 201.742 115.742 201.672 115.448H201.658C201.588 115.756 201.28 116.176 200.538 116.736C199.894 117.226 199.222 117.702 198.662 118.08C198.424 118.234 198.186 118.136 198.046 117.954C197.906 117.758 197.892 117.478 198.144 117.31C198.788 116.862 199.46 116.4 200.146 115.854C200.888 115.28 201.14 114.734 201.14 113.796V112.802H198.522C198.284 112.802 198.172 112.606 198.172 112.354C198.172 112.116 198.284 111.92 198.522 111.92H204.71ZM207.622 111.164C207.874 111.164 208.126 111.29 208.126 111.584V117.954C208.126 118.248 207.874 118.374 207.622 118.374C207.356 118.374 207.118 118.248 207.118 117.954V115.28H204.724C204.486 115.28 204.374 115.084 204.374 114.832C204.374 114.594 204.486 114.384 204.724 114.384H207.118V111.584C207.118 111.29 207.356 111.164 207.622 111.164ZM201.098 119.088H207.16C207.888 119.088 208.126 119.312 208.126 120.026V122.924C208.126 123.638 207.888 123.862 207.16 123.862H201.098C200.37 123.862 200.132 123.638 200.132 122.924V120.026C200.132 119.312 200.37 119.088 201.098 119.088ZM201.42 119.956C201.224 119.956 201.154 120.026 201.154 120.222V122.728C201.154 122.924 201.224 122.994 201.42 122.994H206.852C207.034 122.994 207.118 122.924 207.118 122.728V120.222C207.118 120.026 207.034 119.956 206.852 119.956H201.42ZM216.234 111.318C218.88 111.318 220.378 112.018 220.378 113.502C220.378 114.972 218.88 115.672 216.234 115.672C213.588 115.672 212.09 114.972 212.09 113.502C212.09 112.018 213.588 111.318 216.234 111.318ZM216.234 112.158C214.106 112.158 213.112 112.62 213.112 113.502C213.112 114.37 214.106 114.846 216.234 114.846C218.362 114.846 219.356 114.37 219.356 113.502C219.356 112.62 218.362 112.158 216.234 112.158ZM221.722 116.764C221.96 116.764 222.072 116.96 222.072 117.198C222.072 117.436 221.96 117.632 221.722 117.632H210.746C210.508 117.632 210.396 117.436 210.396 117.198C210.396 116.96 210.508 116.764 210.746 116.764H221.722ZM219.426 118.948C220.154 118.948 220.392 119.172 220.392 119.886V120.922C220.392 121.636 220.154 121.86 219.426 121.86H213.28C213.126 121.86 213.056 121.916 213.056 122.084V122.952C213.056 123.106 213.126 123.162 213.28 123.162H220.406C220.63 123.162 220.728 123.358 220.728 123.568C220.728 123.792 220.63 123.988 220.406 123.988H213.028C212.3 123.988 212.062 123.764 212.062 123.05V122C212.062 121.286 212.3 121.062 213.028 121.062H219.174C219.342 121.062 219.412 121.006 219.412 120.852V119.984C219.412 119.83 219.342 119.76 219.174 119.76H212.37C212.146 119.76 212.034 119.578 212.034 119.354C212.034 119.144 212.146 118.948 212.37 118.948H219.426ZM230.026 112.158C230.278 112.158 230.39 112.354 230.39 112.592C230.39 112.844 230.278 113.04 230.026 113.04H228.514C228.318 113.04 228.248 113.11 228.248 113.292V118.78C228.248 118.962 228.318 119.032 228.514 119.032C229.116 119.032 229.788 118.99 230.334 118.892C230.544 118.85 230.698 119.004 230.726 119.242C230.768 119.494 230.67 119.718 230.446 119.76C229.746 119.872 228.962 119.914 228.22 119.914C227.492 119.914 227.254 119.69 227.254 118.976V113.096C227.254 112.382 227.492 112.158 228.22 112.158H230.026ZM234.016 112.158C234.268 112.158 234.38 112.354 234.38 112.592C234.38 112.844 234.268 113.04 234.016 113.04H232.448C232.252 113.04 232.182 113.11 232.182 113.292V118.78C232.182 118.962 232.252 119.032 232.448 119.032C233.12 119.032 233.96 118.99 234.52 118.878C234.73 118.836 234.884 118.99 234.912 119.228C234.954 119.48 234.856 119.704 234.632 119.746C233.904 119.872 232.966 119.914 232.154 119.914C231.426 119.914 231.188 119.69 231.188 118.976V113.096C231.188 112.382 231.426 112.158 232.154 112.158H234.016ZM236.774 111.164C237.04 111.164 237.278 111.29 237.278 111.584V122.728C237.278 123.022 237.04 123.148 236.774 123.148C236.522 123.148 236.284 123.022 236.284 122.728V116.344H234.478C234.226 116.344 234.114 116.148 234.114 115.896C234.114 115.644 234.226 115.448 234.478 115.448H236.284V111.584C236.284 111.29 236.522 111.164 236.774 111.164ZM245.219 111.318C247.865 111.318 249.363 112.018 249.363 113.502C249.363 114.874 248.047 115.574 245.723 115.658V116.946H250.721C250.945 116.946 251.057 117.142 251.057 117.38C251.057 117.604 250.945 117.8 250.721 117.8H239.717C239.493 117.8 239.381 117.604 239.381 117.38C239.381 117.142 239.493 116.946 239.717 116.946H244.715V115.658C242.377 115.574 241.075 114.874 241.075 113.502C241.075 112.018 242.573 111.318 245.219 111.318ZM248.411 118.948C249.139 118.948 249.377 119.172 249.377 119.886V120.922C249.377 121.636 249.139 121.86 248.411 121.86H242.265C242.111 121.86 242.041 121.916 242.041 122.084V122.952C242.041 123.106 242.111 123.162 242.265 123.162H249.391C249.615 123.162 249.713 123.358 249.713 123.568C249.713 123.792 249.615 123.988 249.391 123.988H242.013C241.285 123.988 241.047 123.764 241.047 123.05V122C241.047 121.286 241.285 121.062 242.013 121.062H248.159C248.327 121.062 248.397 121.006 248.397 120.852V119.984C248.397 119.83 248.327 119.76 248.159 119.76H241.355C241.131 119.76 241.019 119.578 241.019 119.354C241.019 119.144 241.131 118.948 241.355 118.948H248.411ZM245.219 112.158C243.091 112.158 242.097 112.62 242.097 113.502C242.097 114.37 243.091 114.846 245.219 114.846C247.347 114.846 248.341 114.37 248.341 113.502C248.341 112.62 247.347 112.158 245.219 112.158ZM257.261 112.06C257.989 112.06 258.227 112.284 258.227 112.998V115.588C258.227 116.302 257.989 116.526 257.261 116.526H254.181C253.985 116.526 253.915 116.596 253.915 116.778V119.088C253.915 119.27 253.985 119.34 254.181 119.34C256.029 119.34 257.835 119.284 259.375 119.116C259.585 119.088 259.753 119.242 259.781 119.48C259.809 119.76 259.697 119.984 259.473 119.998C258.129 120.152 256.309 120.222 253.873 120.222C253.145 120.222 252.907 119.998 252.907 119.284V116.61C252.907 115.896 253.145 115.672 253.873 115.672H256.953C257.135 115.672 257.219 115.602 257.219 115.406V113.194C257.219 113.012 257.135 112.942 256.953 112.942H253.257C253.019 112.942 252.907 112.746 252.907 112.494C252.907 112.256 253.019 112.06 253.257 112.06H257.261ZM262.091 111.164C262.343 111.164 262.595 111.29 262.595 111.584V122.728C262.595 123.022 262.343 123.148 262.091 123.148C261.839 123.148 261.587 123.022 261.587 122.728V117.702H259.515C259.263 117.702 259.151 117.492 259.151 117.254C259.151 117.016 259.263 116.82 259.515 116.82H261.587V114.776H259.515C259.263 114.776 259.151 114.566 259.151 114.328C259.151 114.09 259.263 113.894 259.515 113.894H261.587V111.584C261.587 111.29 261.839 111.164 262.091 111.164ZM272.593 119.816C272.803 119.788 272.957 119.956 272.971 120.194C272.985 120.446 272.887 120.656 272.663 120.67C270.199 120.88 267.791 120.95 265.215 120.95C264.963 120.95 264.851 120.754 264.851 120.516C264.851 120.278 264.963 120.068 265.215 120.068C266.237 120.068 267.259 120.068 268.309 120.054V117.59H266.657C265.929 117.59 265.691 117.366 265.691 116.652V112.354C265.691 112.074 265.943 111.948 266.181 111.948C266.447 111.948 266.699 112.074 266.699 112.354V113.978H270.913V112.354C270.913 112.074 271.165 111.948 271.403 111.948C271.669 111.948 271.921 112.074 271.921 112.354V116.652C271.921 117.366 271.683 117.59 270.955 117.59H269.317V120.012C270.367 119.984 271.445 119.928 272.593 119.816ZM274.385 111.164C274.651 111.164 274.889 111.29 274.889 111.584V115.91H276.485C276.737 115.91 276.849 116.12 276.849 116.358C276.849 116.61 276.737 116.82 276.485 116.82H274.889V122.728C274.889 123.022 274.651 123.148 274.385 123.148C274.119 123.148 273.881 123.022 273.881 122.728V111.584C273.881 111.29 274.119 111.164 274.385 111.164ZM266.699 116.484C266.699 116.652 266.769 116.722 266.937 116.722H270.661C270.843 116.722 270.913 116.652 270.913 116.484V114.832H266.699V116.484ZM283.445 111.682C286.119 111.682 287.631 112.914 287.631 114.93C287.631 116.946 286.119 118.178 283.445 118.178C280.771 118.178 279.259 116.946 279.259 114.93C279.259 112.914 280.771 111.682 283.445 111.682ZM283.445 112.55C281.303 112.55 280.281 113.558 280.281 114.93C280.281 116.288 281.303 117.296 283.445 117.296C285.587 117.296 286.609 116.288 286.609 114.93C286.609 113.558 285.587 112.55 283.445 112.55ZM281.219 118.5C281.499 118.5 281.737 118.626 281.737 118.92V120.978H285.153V118.92C285.153 118.626 285.391 118.5 285.657 118.5C285.923 118.5 286.175 118.626 286.175 118.92V120.978H288.933C289.171 120.978 289.283 121.174 289.283 121.412C289.283 121.65 289.171 121.846 288.933 121.846H277.957C277.719 121.846 277.607 121.65 277.607 121.412C277.607 121.174 277.719 120.978 277.957 120.978H280.715V118.92C280.715 118.626 280.967 118.5 281.219 118.5ZM291.427 120.782C291.889 120.782 292.225 121.132 292.225 121.58C292.225 122.014 291.889 122.364 291.427 122.364C290.979 122.364 290.629 122.014 290.629 121.58C290.629 121.132 290.979 120.782 291.427 120.782Z" fill="#808983"/>
</g>
<defs>
<filter id="filter0_d_2249_24609" x="0" y="0" width="365" height="182" filterUnits="userSpaceOnUse" color-interpolation-filters="sRGB">
<feFlood flood-opacity="0" result="BackgroundImageFix"/>
<feColorMatrix in="SourceAlpha" type="matrix" values="0 0 0 0 0 0 0 0 0 0 0 0 0 0 0 0 0 0 127 0" result="hardAlpha"/>
<feOffset dy="4"/>
<feGaussianBlur stdDeviation="10"/>
<feComposite in2="hardAlpha" operator="out"/>
<feColorMatrix type="matrix" values="0 0 0 0 0 0 0 0 0 0 0 0 0 0 0 0 0 0 0.08 0"/>
<feBlend mode="normal" in2="BackgroundImageFix" result="effect1_dropShadow_2249_24609"/>
<feBlend mode="normal" in="SourceGraphic" in2="effect1_dropShadow_2249_24609" result="shape"/>
</filter>
</defs>
</svg>
