<svg viewBox="0 0 365 182" fill="none" xmlns="http://www.w3.org/2000/svg">
<g filter="url(#filter0_d_2249_24613)">
<rect x="20" y="16" width="325" height="142" rx="28" fill="#FFFDFA"/>
<path d="M66.8055 57.96C67.0905 57.96 67.3605 58.11 67.3605 58.425V59.355C67.3605 60.78 67.6605 61.41 68.8755 62.205C69.7605 62.775 70.7655 63.375 71.8755 63.99C72.0855 64.11 72.1005 64.425 71.9655 64.65C71.8305 64.89 71.5605 64.995 71.3355 64.875C70.4055 64.365 69.3255 63.735 68.4705 63.18C67.3605 62.46 66.9405 61.95 66.8205 61.545H66.8055C66.6855 61.965 66.2655 62.475 65.1555 63.195C64.2855 63.75 63.2205 64.38 62.2905 64.89C62.0505 65.01 61.7955 64.905 61.6455 64.665C61.5105 64.44 61.5255 64.11 61.7355 63.99C62.8455 63.375 63.8505 62.775 64.7355 62.205C65.9505 61.41 66.2505 60.78 66.2505 59.355V58.425C66.2505 58.11 66.5205 57.96 66.8055 57.96ZM66.8055 64.8C67.0905 64.8 67.3605 64.935 67.3605 65.25V67.89H72.6705C72.9405 67.89 73.0605 68.1 73.0605 68.37C73.0605 68.625 72.9405 68.835 72.6705 68.835H60.9405C60.6705 68.835 60.5505 68.625 60.5505 68.37C60.5505 68.1 60.6705 67.89 60.9405 67.89H66.2655V65.25C66.2655 64.935 66.5355 64.8 66.8055 64.8ZM80.4578 57.585C80.7428 57.585 81.0128 57.735 81.0128 58.05V58.815C81.0128 59.745 81.4328 60.27 82.5728 60.795C83.5628 61.26 84.5078 61.665 85.4078 62.025C85.6778 62.145 85.7078 62.43 85.6178 62.67C85.5278 62.895 85.2878 63.045 85.0178 62.94C84.1028 62.58 83.1878 62.175 82.2728 61.755C81.0278 61.185 80.5778 60.72 80.4728 60.33H80.4578C80.3378 60.75 79.8878 61.2 78.6578 61.77C77.7428 62.19 76.8278 62.58 75.9278 62.955C75.6278 63.075 75.4028 62.91 75.2978 62.67C75.2078 62.445 75.2378 62.145 75.5078 62.025C76.4078 61.665 77.3528 61.26 78.3428 60.795C79.4828 60.27 79.9028 59.745 79.9028 58.815V58.05C79.9028 57.735 80.1728 57.585 80.4578 57.585ZM80.4578 62.415C80.7428 62.415 80.9978 62.55 80.9978 62.865V64.41H86.3378C86.5928 64.41 86.7128 64.62 86.7128 64.875C86.7128 65.13 86.5928 65.34 86.3378 65.34H74.5778C74.3228 65.34 74.2028 65.13 74.2028 64.875C74.2028 64.62 74.3228 64.41 74.5778 64.41H79.9178V62.865C79.9178 62.55 80.1878 62.415 80.4578 62.415ZM83.8928 66.75C84.6728 66.75 84.9278 66.99 84.9278 67.755V70.83C84.9278 71.145 84.6728 71.28 84.3878 71.28C84.1028 71.28 83.8478 71.145 83.8478 70.83V67.95C83.8478 67.74 83.7578 67.68 83.5628 67.68H76.1678C75.9278 67.68 75.8078 67.47 75.8078 67.215C75.8078 66.96 75.9278 66.75 76.1678 66.75H83.8928ZM96.7802 64.53C97.0202 64.5 97.1702 64.665 97.2002 64.935C97.2152 65.19 97.0952 65.415 96.8702 65.445C94.0802 65.685 91.4402 65.76 88.4402 65.76C88.1702 65.76 88.0502 65.55 88.0502 65.295C88.0502 65.04 88.1702 64.83 88.4402 64.83C89.6252 64.83 90.7952 64.83 91.9802 64.8V62.73H90.1952C89.4152 62.73 89.1602 62.49 89.1602 61.725V59.1C89.1602 58.335 89.4152 58.095 90.1952 58.095H95.4452C95.7002 58.095 95.8202 58.305 95.8202 58.56C95.8202 58.815 95.7002 59.025 95.4452 59.025H90.5252C90.3302 59.025 90.2402 59.1 90.2402 59.31V61.515C90.2402 61.725 90.3302 61.8 90.5252 61.8H95.5952C95.8502 61.8 95.9702 62.01 95.9702 62.265C95.9702 62.52 95.8502 62.73 95.5952 62.73H93.0602V64.755C94.2452 64.71 95.4602 64.65 96.7802 64.53ZM90.9302 66.84C91.2152 66.84 91.4852 66.975 91.4852 67.29V69.705C91.4852 69.915 91.5602 69.99 91.7702 69.99H99.2702C99.5252 69.99 99.6452 70.2 99.6452 70.455C99.6452 70.71 99.5252 70.92 99.2702 70.92H91.4102C90.6302 70.92 90.3752 70.68 90.3752 69.915V67.29C90.3752 66.975 90.6452 66.84 90.9302 66.84ZM98.7152 57.39C98.9852 57.39 99.2552 57.525 99.2552 57.84V67.29C99.2552 67.605 98.9852 67.74 98.7152 67.74C98.4302 67.74 98.1752 67.605 98.1752 67.29V57.84C98.1752 57.525 98.4302 57.39 98.7152 57.39ZM112.998 58.17C113.253 58.17 113.373 58.38 113.373 58.635C113.373 58.905 113.253 59.115 112.998 59.115H110.238V60.03C110.238 61.035 110.523 61.62 111.303 62.235C112.008 62.79 112.668 63.255 113.253 63.645C113.507 63.81 113.507 64.11 113.358 64.32C113.208 64.53 112.952 64.62 112.698 64.44C112.233 64.14 111.528 63.645 110.898 63.165C110.103 62.565 109.773 62.13 109.698 61.815H109.683C109.608 62.145 109.263 62.595 108.483 63.195C107.793 63.72 107.058 64.23 106.428 64.65C106.173 64.83 105.918 64.725 105.768 64.53C105.618 64.32 105.603 64.005 105.873 63.825C106.593 63.345 107.313 62.835 108.063 62.25C108.843 61.65 109.128 61.065 109.128 60.045V59.115H106.278C106.023 59.115 105.903 58.905 105.903 58.635C105.903 58.38 106.023 58.17 106.278 58.17H112.998ZM115.848 57.39C116.118 57.39 116.388 57.525 116.388 57.84V64.275C116.388 64.59 116.118 64.725 115.848 64.725C115.563 64.725 115.293 64.59 115.293 64.275V57.84C115.293 57.525 115.563 57.39 115.848 57.39ZM108.423 65.49C108.693 65.49 108.963 65.625 108.963 65.925V67.44H115.308V65.925C115.308 65.625 115.578 65.49 115.848 65.49C116.118 65.49 116.388 65.625 116.388 65.925V69.99C116.388 70.755 116.133 70.995 115.353 70.995H108.918C108.138 70.995 107.883 70.755 107.883 69.99V65.925C107.883 65.625 108.153 65.49 108.423 65.49ZM108.963 69.795C108.963 70.005 109.038 70.08 109.248 70.08H115.023C115.233 70.08 115.308 70.005 115.308 69.795V68.355H108.963V69.795ZM125.495 58.275C125.765 58.275 125.885 58.485 125.885 58.74C125.885 59.01 125.765 59.22 125.495 59.22H120.92C120.71 59.22 120.635 59.295 120.635 59.49V63.495C120.635 63.705 120.71 63.765 120.92 63.765C123.125 63.765 124.91 63.66 126.695 63.42C126.935 63.39 127.1 63.555 127.145 63.81C127.175 64.08 127.07 64.335 126.83 64.365C125.27 64.59 123.41 64.725 120.575 64.725C119.795 64.725 119.54 64.485 119.54 63.72V59.28C119.54 58.515 119.795 58.275 120.575 58.275H125.495ZM128.84 57.39C129.125 57.39 129.395 57.525 129.395 57.84V61.32H131.3C131.57 61.32 131.69 61.545 131.69 61.815C131.69 62.07 131.57 62.295 131.3 62.295H129.395V66.99C129.395 67.305 129.125 67.44 128.84 67.44C128.57 67.44 128.3 67.305 128.3 66.99V57.84C128.3 57.525 128.57 57.39 128.84 57.39ZM121.595 66.27C121.88 66.27 122.15 66.405 122.15 66.72V69.66C122.15 69.855 122.225 69.93 122.435 69.93H129.395C129.665 69.93 129.785 70.155 129.785 70.41C129.785 70.665 129.665 70.89 129.395 70.89H122.075C121.295 70.89 121.04 70.65 121.04 69.885V66.72C121.04 66.405 121.31 66.27 121.595 66.27ZM140.962 57.54C141.217 57.54 141.472 57.675 141.472 57.975V69.165C141.472 69.465 141.217 69.6 140.962 69.6C140.692 69.6 140.437 69.465 140.437 69.165V63.045H138.562C138.472 65.55 137.542 66.855 135.667 66.855C133.672 66.855 132.742 65.385 132.742 62.58C132.742 59.775 133.672 58.305 135.667 58.305C137.542 58.305 138.457 59.61 138.562 62.1H140.437V57.975C140.437 57.675 140.692 57.54 140.962 57.54ZM135.667 59.28C134.302 59.28 133.777 60.45 133.777 62.58C133.777 64.71 134.302 65.88 135.667 65.88C137.032 65.88 137.542 64.71 137.542 62.58C137.542 60.45 137.032 59.28 135.667 59.28ZM143.602 57.39C143.872 57.39 144.127 57.525 144.127 57.825V69.795C144.127 70.095 143.872 70.23 143.602 70.23C143.347 70.23 143.092 70.095 143.092 69.795V57.825C143.092 57.525 143.347 57.39 143.602 57.39ZM150.475 58.095C150.76 58.095 151.03 58.23 151.03 58.56V61.05C151.03 62.37 151.315 63.045 152.26 64.05C152.92 64.755 153.565 65.37 154.135 65.895C154.36 66.075 154.3 66.39 154.12 66.585C153.955 66.75 153.655 66.825 153.445 66.615C152.92 66.15 152.38 65.61 151.72 64.95C150.775 63.96 150.55 63.555 150.49 63.225H150.475C150.4 63.57 150.175 63.975 149.23 64.965C148.57 65.625 148 66.195 147.325 66.81C147.085 67.02 146.785 66.93 146.62 66.75C146.44 66.54 146.41 66.255 146.62 66.06C147.34 65.4 148.015 64.755 148.675 64.05C149.62 63.045 149.92 62.37 149.92 61.05V58.56C149.92 58.23 150.175 58.095 150.475 58.095ZM156.895 57.39C157.165 57.39 157.435 57.525 157.435 57.84V69.78C157.435 70.095 157.165 70.23 156.895 70.23C156.61 70.23 156.355 70.095 156.355 69.78V62.475H153.67C153.415 62.475 153.295 62.265 153.295 61.995C153.295 61.74 153.415 61.53 153.67 61.53H156.355V57.84C156.355 57.525 156.61 57.39 156.895 57.39ZM164.682 58.395C164.967 58.395 165.237 58.53 165.237 58.845V65.385C165.237 65.595 165.312 65.67 165.522 65.67C166.812 65.67 168.537 65.565 169.677 65.385C169.902 65.355 170.067 65.52 170.112 65.79C170.142 66.06 170.037 66.315 169.797 66.345C168.897 66.495 167.112 66.615 165.162 66.615C164.382 66.615 164.127 66.375 164.127 65.61V58.845C164.127 58.53 164.397 58.395 164.682 58.395ZM174.657 57.39C174.927 57.39 175.182 57.525 175.182 57.825V69.795C175.182 70.095 174.927 70.23 174.657 70.23C174.402 70.23 174.147 70.095 174.147 69.795V63.045H172.062V69.165C172.062 69.465 171.807 69.6 171.537 69.6C171.282 69.6 171.027 69.465 171.027 69.165V57.975C171.027 57.675 171.282 57.54 171.537 57.54C171.807 57.54 172.062 57.675 172.062 57.975V62.1H174.147V57.825C174.147 57.525 174.402 57.39 174.657 57.39ZM182.804 58.455C183.584 58.455 183.839 58.695 183.839 59.46V61.125C183.839 63.63 183.089 64.38 178.454 67.245C178.229 67.38 177.944 67.29 177.794 67.065C177.644 66.84 177.644 66.51 177.884 66.36C182.234 63.705 182.759 63.15 182.759 61.08V59.685C182.759 59.49 182.684 59.415 182.474 59.415H178.229C177.959 59.415 177.839 59.19 177.839 58.935C177.839 58.68 177.959 58.455 178.229 58.455H182.804ZM187.199 57.39C187.484 57.39 187.754 57.525 187.754 57.84V62.025H189.659C189.929 62.025 190.049 62.25 190.049 62.505C190.049 62.775 189.929 63 189.659 63H187.754V69.78C187.754 70.095 187.484 70.23 187.199 70.23C186.929 70.23 186.659 70.095 186.659 69.78V57.84C186.659 57.525 186.929 57.39 187.199 57.39ZM205.232 58.095C205.487 58.095 205.607 58.32 205.607 58.575C205.607 58.83 205.487 59.055 205.232 59.055H201.482V59.31C201.482 60.45 201.767 60.945 202.892 61.545C203.927 62.085 204.842 62.535 205.802 62.97C206.027 63.09 206.087 63.39 205.967 63.63C205.832 63.87 205.577 63.99 205.352 63.885C204.362 63.435 203.522 63.03 202.562 62.52C201.392 61.905 201.017 61.485 200.942 61.125H200.927C200.852 61.5 200.477 61.92 199.307 62.535C198.347 63.045 197.492 63.45 196.517 63.9C196.292 64.005 196.022 63.885 195.887 63.645C195.767 63.39 195.812 63.09 196.052 62.97C197.012 62.535 197.927 62.085 198.962 61.545C200.087 60.945 200.372 60.45 200.372 59.31V59.055H196.622C196.367 59.055 196.247 58.83 196.247 58.575C196.247 58.32 196.367 58.095 196.622 58.095H205.232ZM206.792 65.37C207.062 65.37 207.182 65.58 207.182 65.85C207.182 66.105 207.062 66.315 206.792 66.315H201.482V70.83C201.482 71.145 201.212 71.28 200.927 71.28C200.657 71.28 200.387 71.145 200.387 70.83V66.315H195.062C194.792 66.315 194.672 66.105 194.672 65.85C194.672 65.58 194.792 65.37 195.062 65.37H206.792ZM217.954 58.2C218.734 58.2 218.989 58.44 218.989 59.205V61.155C218.989 61.92 218.734 62.16 217.954 62.16H211.519C211.309 62.16 211.234 62.235 211.234 62.445V64.02C211.234 64.215 211.309 64.29 211.519 64.29H218.974C219.229 64.29 219.349 64.5 219.349 64.755C219.349 65.01 219.229 65.235 218.974 65.235H215.134V67.89H220.444C220.714 67.89 220.834 68.1 220.834 68.37C220.834 68.625 220.714 68.835 220.444 68.835H208.714C208.444 68.835 208.324 68.625 208.324 68.37C208.324 68.1 208.444 67.89 208.714 67.89H214.039V65.235H211.189C210.409 65.235 210.154 64.995 210.154 64.23V62.265C210.154 61.5 210.409 61.26 211.189 61.26H217.639C217.834 61.26 217.924 61.185 217.924 60.975V59.415C217.924 59.205 217.834 59.13 217.639 59.13H210.499C210.244 59.13 210.124 58.92 210.124 58.665C210.124 58.41 210.244 58.2 210.499 58.2H217.954ZM231.471 58.005C232.251 58.005 232.506 58.245 232.506 59.01V62.61C232.506 63.375 232.251 63.615 231.471 63.615H227.331C226.551 63.615 226.296 63.375 226.296 62.61V59.01C226.296 58.245 226.551 58.005 227.331 58.005H231.471ZM227.661 58.92C227.451 58.92 227.376 58.995 227.376 59.205V62.415C227.376 62.61 227.451 62.685 227.661 62.685H231.141C231.351 62.685 231.426 62.61 231.426 62.415V59.205C231.426 58.995 231.351 58.92 231.141 58.92H227.661ZM235.656 57.39C235.941 57.39 236.211 57.525 236.211 57.84V60.315H238.116C238.386 60.315 238.506 60.54 238.506 60.81C238.506 61.065 238.386 61.29 238.116 61.29H236.211V63.96C236.211 64.275 235.941 64.41 235.656 64.41C235.386 64.41 235.116 64.275 235.116 63.96V57.84C235.116 57.525 235.386 57.39 235.656 57.39ZM236.061 65.25C236.301 65.25 236.421 65.46 236.421 65.7C236.421 65.94 236.301 66.15 236.061 66.15H229.236C229.026 66.15 228.951 66.225 228.951 66.42V67.71H235.911C236.151 67.71 236.271 67.92 236.271 68.16C236.271 68.4 236.151 68.595 235.911 68.595H228.951V69.885C228.951 70.095 229.026 70.17 229.236 70.17H236.211C236.451 70.17 236.571 70.38 236.571 70.62C236.571 70.86 236.451 71.07 236.211 71.07H228.921C228.141 71.07 227.886 70.83 227.886 70.065V66.255C227.886 65.49 228.141 65.25 228.921 65.25H236.061ZM241.749 57.765C242.034 57.765 242.289 57.9 242.289 58.215V61.485C242.289 61.68 242.379 61.755 242.574 61.755H249.954C250.209 61.755 250.329 61.965 250.329 62.22C250.329 62.475 250.209 62.7 249.954 62.7H242.229C241.449 62.7 241.194 62.46 241.194 61.695V58.215C241.194 57.9 241.449 57.765 241.749 57.765ZM251.499 64.53C251.769 64.53 251.889 64.74 251.889 65.01C251.889 65.265 251.769 65.475 251.499 65.475H239.769C239.499 65.475 239.379 65.265 239.379 65.01C239.379 64.74 239.499 64.53 239.769 64.53H251.499ZM241.719 66.84C242.004 66.84 242.259 66.975 242.259 67.29V69.735C242.259 69.945 242.349 70.02 242.544 70.02H249.984C250.239 70.02 250.359 70.23 250.359 70.485C250.359 70.74 250.239 70.95 249.984 70.95H242.199C241.419 70.95 241.164 70.71 241.164 69.945V67.29C241.164 66.975 241.419 66.84 241.719 66.84ZM260.591 57.96C262.826 57.96 263.891 59.385 263.891 61.215C263.891 63.03 262.826 64.455 260.591 64.455C258.356 64.455 257.291 63.03 257.291 61.215C257.291 59.385 258.356 57.96 260.591 57.96ZM260.591 58.905C258.986 58.905 258.356 59.955 258.356 61.215C258.356 62.46 258.986 63.525 260.591 63.525C262.196 63.525 262.826 62.46 262.826 61.215C262.826 59.955 262.196 58.905 260.591 58.905ZM267.461 57.39C267.731 57.39 268.001 57.525 268.001 57.84V64.965C268.001 65.28 267.731 65.415 267.461 65.415C267.191 65.415 266.921 65.28 266.921 64.965V63.045H264.776C264.521 63.045 264.401 62.835 264.401 62.565C264.401 62.31 264.521 62.1 264.776 62.1H266.921V60.39H264.776C264.521 60.39 264.401 60.165 264.401 59.91C264.401 59.655 264.521 59.445 264.776 59.445H266.921V57.84C266.921 57.525 267.191 57.39 267.461 57.39ZM266.966 66.18C267.746 66.18 268.001 66.42 268.001 67.185V70.77C268.001 71.085 267.731 71.22 267.446 71.22C267.176 71.22 266.906 71.085 266.906 70.77V67.395C266.906 67.2 266.831 67.125 266.621 67.125H259.541C259.286 67.125 259.166 66.915 259.166 66.66C259.166 66.39 259.286 66.18 259.541 66.18H266.966ZM274.498 60.435C276.448 60.435 277.603 61.245 277.603 62.55C277.603 63.855 276.448 64.665 274.498 64.665C272.548 64.665 271.393 63.855 271.393 62.55C271.393 61.245 272.548 60.435 274.498 60.435ZM274.498 57.09C274.783 57.09 275.053 57.225 275.053 57.54V58.605H278.053C278.308 58.605 278.428 58.815 278.428 59.055C278.428 59.325 278.308 59.535 278.053 59.535H270.793C270.538 59.535 270.418 59.325 270.418 59.055C270.418 58.815 270.538 58.605 270.793 58.605H273.943V57.54C273.943 57.225 274.213 57.09 274.498 57.09ZM274.498 61.275C273.148 61.275 272.398 61.77 272.398 62.55C272.398 63.33 273.148 63.825 274.498 63.825C275.848 63.825 276.598 63.33 276.598 62.55C276.598 61.77 275.848 61.275 274.498 61.275ZM280.378 57.39C280.648 57.39 280.918 57.525 280.918 57.84V60.6H282.823C283.093 60.6 283.213 60.825 283.213 61.08C283.213 61.35 283.093 61.575 282.823 61.575H280.918V64.53C280.918 64.845 280.648 64.98 280.378 64.98C280.093 64.98 279.838 64.845 279.838 64.53V57.84C279.838 57.525 280.093 57.39 280.378 57.39ZM279.883 65.73C280.663 65.73 280.918 65.97 280.918 66.735V67.815C280.918 68.58 280.663 68.82 279.883 68.82H273.898C273.733 68.82 273.658 68.88 273.658 69.06V69.96C273.658 70.125 273.733 70.2 273.898 70.2H280.918C281.158 70.2 281.278 70.41 281.278 70.62C281.278 70.86 281.158 71.07 280.918 71.07H273.628C272.848 71.07 272.593 70.83 272.593 70.065V68.985C272.593 68.22 272.848 67.98 273.628 67.98H279.613C279.793 67.98 279.868 67.905 279.868 67.74V66.84C279.868 66.66 279.793 66.6 279.613 66.6H272.923C272.683 66.6 272.563 66.39 272.563 66.15C272.563 65.94 272.683 65.73 272.923 65.73H279.883ZM290.341 57.735C293.176 57.735 294.781 58.635 294.781 60.405C294.781 62.175 293.176 63.075 290.341 63.075C287.506 63.075 285.901 62.175 285.901 60.405C285.901 58.635 287.506 57.735 290.341 57.735ZM290.341 58.65C288.061 58.65 286.996 59.31 286.996 60.405C286.996 61.5 288.061 62.16 290.341 62.16C292.621 62.16 293.686 61.5 293.686 60.405C293.686 59.31 292.621 58.65 290.341 58.65ZM296.206 64.605C296.476 64.605 296.596 64.815 296.596 65.085C296.596 65.34 296.476 65.55 296.206 65.55H284.476C284.206 65.55 284.086 65.34 284.086 65.085C284.086 64.815 284.206 64.605 284.476 64.605H296.206ZM286.426 66.84C286.711 66.84 286.966 66.975 286.966 67.29V69.735C286.966 69.945 287.056 70.02 287.251 70.02H294.691C294.946 70.02 295.066 70.23 295.066 70.485C295.066 70.74 294.946 70.95 294.691 70.95H286.906C286.126 70.95 285.871 70.71 285.871 69.945V67.29C285.871 66.975 286.126 66.84 286.426 66.84ZM300.993 58.11C302.973 58.11 304.188 59.175 304.188 60.81V60.975C304.188 61.98 303.663 62.67 302.628 63.6C301.398 64.71 301.263 65.115 301.263 65.865C301.263 66.135 301.008 66.285 300.753 66.285C300.468 66.285 300.213 66.15 300.213 65.85C300.213 64.83 300.393 64.29 301.653 63.165C302.748 62.19 303.093 61.695 303.093 60.975V60.855C303.093 59.805 302.328 59.1 301.008 59.1C300.003 59.1 299.328 59.475 298.758 60C298.533 60.18 298.263 60.15 298.083 59.925C297.888 59.715 297.888 59.43 298.113 59.235C298.743 58.635 299.778 58.11 300.993 58.11ZM300.738 67.725C301.218 67.725 301.578 68.1 301.578 68.565C301.578 69.03 301.218 69.39 300.738 69.39C300.273 69.39 299.898 69.03 299.898 68.565C299.898 68.1 300.273 67.725 300.738 67.725Z" fill="#07BEB8"/>
<path d="M77.9064 105.144C78.6344 105.144 78.8724 105.368 78.8724 106.082V107.328C78.8724 109.204 78.7324 110.8 78.3824 112.396C78.3404 112.648 78.0744 112.774 77.7804 112.718C77.5144 112.676 77.3324 112.48 77.3884 112.242C77.7104 110.59 77.8644 109.022 77.8644 107.51V106.306C77.8644 106.11 77.7804 106.054 77.5984 106.054H70.8644C70.6124 106.054 70.5004 105.844 70.5004 105.592C70.5004 105.34 70.6124 105.144 70.8644 105.144H77.9064ZM80.2864 113.95C80.5384 113.95 80.6504 114.16 80.6504 114.412C80.6504 114.65 80.5384 114.846 80.2864 114.846H69.3384C69.0864 114.846 68.9744 114.65 68.9744 114.412C68.9744 114.16 69.0864 113.95 69.3384 113.95H80.2864ZM88.7726 104.696C90.8586 104.696 91.8526 106.026 91.8526 107.734C91.8526 109.428 90.8586 110.758 88.7726 110.758C86.6866 110.758 85.6926 109.428 85.6926 107.734C85.6926 106.026 86.6866 104.696 88.7726 104.696ZM88.7726 105.578C87.2746 105.578 86.6866 106.558 86.6866 107.734C86.6866 108.896 87.2746 109.89 88.7726 109.89C90.2706 109.89 90.8586 108.896 90.8586 107.734C90.8586 106.558 90.2706 105.578 88.7726 105.578ZM95.1846 104.164C95.4366 104.164 95.6886 104.29 95.6886 104.584V111.234C95.6886 111.528 95.4366 111.654 95.1846 111.654C94.9326 111.654 94.6806 111.528 94.6806 111.234V109.442H92.6786C92.4406 109.442 92.3286 109.246 92.3286 108.994C92.3286 108.756 92.4406 108.56 92.6786 108.56H94.6806V106.964H92.6786C92.4406 106.964 92.3286 106.754 92.3286 106.516C92.3286 106.278 92.4406 106.082 92.6786 106.082H94.6806V104.584C94.6806 104.29 94.9326 104.164 95.1846 104.164ZM94.7226 112.368C95.4506 112.368 95.6886 112.592 95.6886 113.306V116.652C95.6886 116.946 95.4366 117.072 95.1706 117.072C94.9186 117.072 94.6666 116.946 94.6666 116.652V113.502C94.6666 113.32 94.5966 113.25 94.4006 113.25H87.7926C87.5546 113.25 87.4426 113.054 87.4426 112.816C87.4426 112.564 87.5546 112.368 87.7926 112.368H94.7226ZM101.753 107.006C103.573 107.006 104.651 107.762 104.651 108.98C104.651 110.198 103.573 110.954 101.753 110.954C99.9328 110.954 98.8548 110.198 98.8548 108.98C98.8548 107.762 99.9328 107.006 101.753 107.006ZM101.753 103.884C102.019 103.884 102.271 104.01 102.271 104.304V105.298H105.071C105.309 105.298 105.421 105.494 105.421 105.718C105.421 105.97 105.309 106.166 105.071 106.166H98.2948C98.0568 106.166 97.9448 105.97 97.9448 105.718C97.9448 105.494 98.0568 105.298 98.2948 105.298H101.235V104.304C101.235 104.01 101.487 103.884 101.753 103.884ZM101.753 107.79C100.493 107.79 99.7928 108.252 99.7928 108.98C99.7928 109.708 100.493 110.17 101.753 110.17C103.013 110.17 103.713 109.708 103.713 108.98C103.713 108.252 103.013 107.79 101.753 107.79ZM107.241 104.164C107.493 104.164 107.745 104.29 107.745 104.584V107.16H109.523C109.775 107.16 109.887 107.37 109.887 107.608C109.887 107.86 109.775 108.07 109.523 108.07H107.745V110.828C107.745 111.122 107.493 111.248 107.241 111.248C106.975 111.248 106.737 111.122 106.737 110.828V104.584C106.737 104.29 106.975 104.164 107.241 104.164ZM106.779 111.948C107.507 111.948 107.745 112.172 107.745 112.886V113.894C107.745 114.608 107.507 114.832 106.779 114.832H101.193C101.039 114.832 100.969 114.888 100.969 115.056V115.896C100.969 116.05 101.039 116.12 101.193 116.12H107.745C107.969 116.12 108.081 116.316 108.081 116.512C108.081 116.736 107.969 116.932 107.745 116.932H100.941C100.213 116.932 99.9748 116.708 99.9748 115.994V114.986C99.9748 114.272 100.213 114.048 100.941 114.048H106.527C106.695 114.048 106.765 113.978 106.765 113.824V112.984C106.765 112.816 106.695 112.76 106.527 112.76H100.283C100.059 112.76 99.9468 112.564 99.9468 112.34C99.9468 112.144 100.059 111.948 100.283 111.948H106.779ZM114.453 104.906C116.553 104.906 117.631 106.348 117.631 109.008C117.631 111.668 116.553 113.11 114.453 113.11C112.353 113.11 111.261 111.668 111.261 109.008C111.261 106.348 112.353 104.906 114.453 104.906ZM114.453 105.816C112.927 105.816 112.269 106.978 112.269 109.008C112.269 111.038 112.927 112.2 114.453 112.2C115.979 112.2 116.637 111.038 116.637 109.008C116.637 106.978 115.979 105.816 114.453 105.816ZM120.571 104.164C120.837 104.164 121.089 104.29 121.089 104.584V115.728C121.089 116.022 120.837 116.148 120.571 116.148C120.319 116.148 120.067 116.022 120.067 115.728V104.584C120.067 104.29 120.319 104.164 120.571 104.164ZM128.077 105.018C128.343 105.018 128.595 105.144 128.595 105.438V111.71C128.595 111.906 128.665 111.976 128.861 111.976C130.877 111.976 132.543 111.864 134.209 111.64C134.433 111.612 134.587 111.766 134.629 112.018C134.657 112.27 134.559 112.508 134.335 112.536C132.879 112.732 131.143 112.858 128.525 112.858C127.797 112.858 127.559 112.634 127.559 111.92V105.438C127.559 105.144 127.811 105.018 128.077 105.018ZM136.211 104.164C136.477 104.164 136.729 104.29 136.729 104.584V108.49H138.507C138.759 108.49 138.871 108.7 138.871 108.938C138.871 109.19 138.759 109.4 138.507 109.4H136.729V115.728C136.729 116.022 136.477 116.148 136.211 116.148C135.959 116.148 135.707 116.022 135.707 115.728V104.584C135.707 104.29 135.959 104.164 136.211 104.164ZM143.969 104.906C146.167 104.906 147.273 106.208 147.273 107.888C147.273 109.554 146.167 110.856 143.969 110.856C141.771 110.856 140.665 109.554 140.665 107.888C140.665 106.208 141.771 104.906 143.969 104.906ZM143.969 105.788C142.401 105.788 141.659 106.726 141.659 107.888C141.659 109.05 142.401 109.988 143.969 109.988C145.537 109.988 146.279 109.05 146.279 107.888C146.279 106.726 145.537 105.788 143.969 105.788ZM148.015 112.718C148.239 112.69 148.379 112.858 148.407 113.096C148.421 113.348 148.309 113.572 148.099 113.586C145.495 113.81 143.031 113.894 140.231 113.894C139.979 113.894 139.867 113.698 139.867 113.446C139.867 113.208 139.979 112.998 140.231 112.998C142.793 112.998 145.187 112.97 148.015 112.718ZM149.821 104.164C150.073 104.164 150.325 104.29 150.325 104.584V115.728C150.325 116.022 150.073 116.148 149.821 116.148C149.555 116.148 149.317 116.022 149.317 115.728V104.584C149.317 104.29 149.555 104.164 149.821 104.164ZM159.904 104.584C160.17 104.584 160.422 104.71 160.422 105.004V106.516C160.422 107.468 160.702 108.098 161.416 108.686C162.102 109.26 162.732 109.736 163.208 110.072C163.432 110.24 163.432 110.52 163.292 110.716C163.152 110.912 162.9 110.996 162.662 110.828C162.284 110.562 161.654 110.086 161.024 109.568C160.31 109.008 159.988 108.56 159.918 108.28H159.904C159.834 108.574 159.498 109.036 158.784 109.61C158.154 110.114 157.524 110.59 156.922 111.024C156.684 111.192 156.418 111.108 156.278 110.912C156.138 110.73 156.124 110.422 156.362 110.254C157.062 109.764 157.692 109.274 158.392 108.714C159.106 108.112 159.386 107.482 159.386 106.544V105.004C159.386 104.71 159.624 104.584 159.904 104.584ZM165.896 104.164C166.148 104.164 166.4 104.29 166.4 104.584V111.402C166.4 111.696 166.148 111.822 165.896 111.822C165.63 111.822 165.392 111.696 165.392 111.402V107.734H162.886C162.648 107.734 162.536 107.538 162.536 107.286C162.536 107.048 162.648 106.852 162.886 106.852H165.392V104.584C165.392 104.29 165.63 104.164 165.896 104.164ZM162.508 111.99C165.056 111.99 166.498 112.886 166.498 114.552C166.498 116.218 165.056 117.114 162.508 117.114C159.96 117.114 158.532 116.218 158.532 114.552C158.532 112.886 159.96 111.99 162.508 111.99ZM162.508 112.83C160.492 112.83 159.54 113.488 159.54 114.552C159.54 115.616 160.492 116.274 162.508 116.274C164.538 116.274 165.49 115.616 165.49 114.552C165.49 113.488 164.538 112.83 162.508 112.83ZM172.464 107.342C174.284 107.342 175.362 108.21 175.362 109.526C175.362 110.842 174.284 111.71 172.464 111.71C170.644 111.71 169.566 110.842 169.566 109.526C169.566 108.21 170.644 107.342 172.464 107.342ZM172.464 104.024C172.73 104.024 172.982 104.15 172.982 104.444V105.55H175.768C176.02 105.55 176.132 105.746 176.132 105.984C176.132 106.222 176.02 106.432 175.768 106.432H169.02C168.768 106.432 168.656 106.222 168.656 105.984C168.656 105.746 168.768 105.55 169.02 105.55H171.946V104.444C171.946 104.15 172.212 104.024 172.464 104.024ZM172.464 108.168C171.204 108.168 170.504 108.714 170.504 109.526C170.504 110.338 171.204 110.884 172.464 110.884C173.724 110.884 174.424 110.338 174.424 109.526C174.424 108.714 173.724 108.168 172.464 108.168ZM177.952 104.164C178.204 104.164 178.456 104.29 178.456 104.584V106.418H180.15C180.388 106.418 180.5 106.628 180.5 106.866C180.5 107.104 180.388 107.3 180.15 107.3H178.456V108.84H180.15C180.388 108.84 180.5 109.036 180.5 109.274C180.5 109.512 180.388 109.708 180.15 109.708H178.456V111.934C178.456 112.228 178.204 112.354 177.952 112.354C177.686 112.354 177.448 112.228 177.448 111.934V104.584C177.448 104.29 177.686 104.164 177.952 104.164ZM174.676 112.522C177.168 112.522 178.554 113.292 178.554 114.818C178.554 116.358 177.168 117.114 174.676 117.114C172.184 117.114 170.798 116.358 170.798 114.818C170.798 113.292 172.184 112.522 174.676 112.522ZM174.676 113.362C172.716 113.362 171.806 113.908 171.806 114.818C171.806 115.742 172.716 116.288 174.676 116.288C176.636 116.288 177.546 115.742 177.546 114.818C177.546 113.908 176.636 113.362 174.676 113.362ZM187.25 104.318C189.896 104.318 191.394 105.018 191.394 106.502C191.394 107.972 189.896 108.672 187.25 108.672C184.604 108.672 183.106 107.972 183.106 106.502C183.106 105.018 184.604 104.318 187.25 104.318ZM187.25 105.158C185.122 105.158 184.128 105.62 184.128 106.502C184.128 107.37 185.122 107.846 187.25 107.846C189.378 107.846 190.372 107.37 190.372 106.502C190.372 105.62 189.378 105.158 187.25 105.158ZM192.738 109.764C192.976 109.764 193.088 109.96 193.088 110.198C193.088 110.436 192.976 110.632 192.738 110.632H181.762C181.524 110.632 181.412 110.436 181.412 110.198C181.412 109.96 181.524 109.764 181.762 109.764H192.738ZM190.442 111.948C191.17 111.948 191.408 112.172 191.408 112.886V113.922C191.408 114.636 191.17 114.86 190.442 114.86H184.296C184.142 114.86 184.072 114.916 184.072 115.084V115.952C184.072 116.106 184.142 116.162 184.296 116.162H191.422C191.646 116.162 191.744 116.358 191.744 116.568C191.744 116.792 191.646 116.988 191.422 116.988H184.044C183.316 116.988 183.078 116.764 183.078 116.05V115C183.078 114.286 183.316 114.062 184.044 114.062H190.19C190.358 114.062 190.428 114.006 190.428 113.852V112.984C190.428 112.83 190.358 112.76 190.19 112.76H183.386C183.162 112.76 183.05 112.578 183.05 112.354C183.05 112.144 183.162 111.948 183.386 111.948H190.442ZM198.704 104.878C198.956 104.878 199.208 105.004 199.208 105.284V107.23H202.974V105.284C202.974 105.004 203.226 104.878 203.478 104.878C203.744 104.878 203.982 105.004 203.982 105.284V110.198C203.982 110.912 203.744 111.136 203.016 111.136H199.166C198.438 111.136 198.2 110.912 198.2 110.198V105.284C198.2 105.004 198.452 104.878 198.704 104.878ZM199.208 110.002C199.208 110.198 199.278 110.268 199.474 110.268H202.708C202.904 110.268 202.974 110.198 202.974 110.002V108.098H199.208V110.002ZM206.922 104.164C207.188 104.164 207.44 104.29 207.44 104.584V107.832H209.218C209.47 107.832 209.582 108.042 209.582 108.294C209.582 108.532 209.47 108.742 209.218 108.742H207.44V113.124C207.44 113.418 207.188 113.544 206.922 113.544C206.67 113.544 206.418 113.418 206.418 113.124V104.584C206.418 104.29 206.67 104.164 206.922 104.164ZM200.16 112.536C200.426 112.536 200.678 112.662 200.678 112.956V115.616C200.678 115.798 200.748 115.868 200.944 115.868H207.44C207.692 115.868 207.804 116.078 207.804 116.316C207.804 116.554 207.692 116.764 207.44 116.764H200.608C199.88 116.764 199.642 116.54 199.642 115.826V112.956C199.642 112.662 199.894 112.536 200.16 112.536ZM213.952 104.696C216.038 104.696 217.032 106.026 217.032 107.734C217.032 109.428 216.038 110.758 213.952 110.758C211.866 110.758 210.872 109.428 210.872 107.734C210.872 106.026 211.866 104.696 213.952 104.696ZM213.952 105.578C212.454 105.578 211.866 106.558 211.866 107.734C211.866 108.896 212.454 109.89 213.952 109.89C215.45 109.89 216.038 108.896 216.038 107.734C216.038 106.558 215.45 105.578 213.952 105.578ZM220.364 104.164C220.616 104.164 220.868 104.29 220.868 104.584V111.402C220.868 111.696 220.616 111.822 220.364 111.822C220.112 111.822 219.86 111.696 219.86 111.402V109.442H217.858C217.62 109.442 217.508 109.246 217.508 108.994C217.508 108.756 217.62 108.56 217.858 108.56H219.86V106.964H217.858C217.62 106.964 217.508 106.754 217.508 106.516C217.508 106.278 217.62 106.082 217.858 106.082H219.86V104.584C219.86 104.29 220.112 104.164 220.364 104.164ZM216.976 111.99C219.524 111.99 220.966 112.886 220.966 114.552C220.966 116.218 219.524 117.114 216.976 117.114C214.428 117.114 213 116.218 213 114.552C213 112.886 214.428 111.99 216.976 111.99ZM216.976 112.83C214.96 112.83 214.008 113.488 214.008 114.552C214.008 115.616 214.96 116.274 216.976 116.274C219.006 116.274 219.958 115.616 219.958 114.552C219.958 113.488 219.006 112.83 216.976 112.83ZM226.932 107.006C228.752 107.006 229.83 107.762 229.83 108.98C229.83 110.198 228.752 110.954 226.932 110.954C225.112 110.954 224.034 110.198 224.034 108.98C224.034 107.762 225.112 107.006 226.932 107.006ZM226.932 103.884C227.198 103.884 227.45 104.01 227.45 104.304V105.298H230.25C230.488 105.298 230.6 105.494 230.6 105.718C230.6 105.97 230.488 106.166 230.25 106.166H223.474C223.236 106.166 223.124 105.97 223.124 105.718C223.124 105.494 223.236 105.298 223.474 105.298H226.414V104.304C226.414 104.01 226.666 103.884 226.932 103.884ZM226.932 107.79C225.672 107.79 224.972 108.252 224.972 108.98C224.972 109.708 225.672 110.17 226.932 110.17C228.192 110.17 228.892 109.708 228.892 108.98C228.892 108.252 228.192 107.79 226.932 107.79ZM232.42 104.164C232.672 104.164 232.924 104.29 232.924 104.584V107.16H234.702C234.954 107.16 235.066 107.37 235.066 107.608C235.066 107.86 234.954 108.07 234.702 108.07H232.924V110.828C232.924 111.122 232.672 111.248 232.42 111.248C232.154 111.248 231.916 111.122 231.916 110.828V104.584C231.916 104.29 232.154 104.164 232.42 104.164ZM231.958 111.948C232.686 111.948 232.924 112.172 232.924 112.886V113.894C232.924 114.608 232.686 114.832 231.958 114.832H226.372C226.218 114.832 226.148 114.888 226.148 115.056V115.896C226.148 116.05 226.218 116.12 226.372 116.12H232.924C233.148 116.12 233.26 116.316 233.26 116.512C233.26 116.736 233.148 116.932 232.924 116.932H226.12C225.392 116.932 225.154 116.708 225.154 115.994V114.986C225.154 114.272 225.392 114.048 226.12 114.048H231.706C231.874 114.048 231.944 113.978 231.944 113.824V112.984C231.944 112.816 231.874 112.76 231.706 112.76H225.462C225.238 112.76 225.126 112.564 225.126 112.34C225.126 112.144 225.238 111.948 225.462 111.948H231.958ZM245.219 104.486C245.485 104.486 245.737 104.626 245.737 104.92V105.788C245.737 106.796 246.227 107.426 247.165 107.916C248.215 108.462 249.069 108.882 249.867 109.26C250.119 109.372 250.133 109.68 250.035 109.876C249.937 110.1 249.713 110.24 249.447 110.114C248.537 109.694 247.669 109.26 246.787 108.784C245.751 108.238 245.317 107.734 245.233 107.37H245.219C245.135 107.748 244.701 108.252 243.665 108.798C242.783 109.274 241.901 109.708 241.005 110.128C240.739 110.254 240.501 110.1 240.403 109.89C240.305 109.68 240.319 109.372 240.571 109.26C241.369 108.882 242.223 108.462 243.273 107.916C244.211 107.426 244.701 106.796 244.701 105.788V104.92C244.701 104.626 244.953 104.486 245.219 104.486ZM250.693 111.612C250.945 111.612 251.057 111.808 251.057 112.06C251.057 112.298 250.945 112.494 250.693 112.494H245.737V116.708C245.737 117.002 245.485 117.128 245.219 117.128C244.967 117.128 244.715 117.002 244.715 116.708V112.494H239.745C239.493 112.494 239.381 112.298 239.381 112.06C239.381 111.808 239.493 111.612 239.745 111.612H250.693ZM259.347 104.696C261.489 104.696 262.511 105.984 262.511 107.664C262.511 109.33 261.489 110.618 259.347 110.618C257.205 110.618 256.183 109.33 256.183 107.664C256.183 105.984 257.205 104.696 259.347 104.696ZM259.347 105.564C257.793 105.564 257.177 106.53 257.177 107.664C257.177 108.798 257.793 109.75 259.347 109.75C260.901 109.75 261.517 108.798 261.517 107.664C261.517 106.53 260.901 105.564 259.347 105.564ZM265.507 104.164C265.759 104.164 266.011 104.29 266.011 104.584V110.954C266.011 111.248 265.759 111.374 265.507 111.374C265.241 111.374 264.989 111.248 264.989 110.954V104.584C264.989 104.29 265.241 104.164 265.507 104.164ZM259.767 111.794C260.019 111.794 260.257 111.92 260.257 112.214V112.97C260.257 113.894 260.411 114.23 261.055 114.958C261.293 115.224 261.573 115.532 261.825 115.756C261.979 115.91 262.091 115.91 262.259 115.756C262.497 115.532 262.791 115.224 263.029 114.958C263.659 114.23 263.813 113.894 263.813 112.97V112.214C263.813 111.92 264.065 111.794 264.317 111.794C264.569 111.794 264.821 111.92 264.821 112.214V112.97C264.821 113.908 264.989 114.272 265.745 114.958C266.095 115.294 266.613 115.7 267.117 116.078C267.299 116.218 267.299 116.47 267.145 116.68C266.977 116.876 266.739 116.932 266.515 116.764C266.039 116.4 265.619 116.05 265.297 115.77C264.653 115.21 264.401 114.902 264.317 114.622H264.303C264.219 114.916 264.009 115.168 263.379 115.84C263.141 116.092 262.903 116.33 262.665 116.554C262.189 116.988 261.895 116.988 261.405 116.554C261.167 116.33 260.943 116.092 260.691 115.84C260.061 115.168 259.865 114.916 259.781 114.622H259.767C259.683 114.916 259.431 115.224 258.773 115.784C258.465 116.05 258.031 116.414 257.555 116.778C257.345 116.932 257.093 116.89 256.939 116.68C256.771 116.484 256.785 116.218 256.953 116.078C257.471 115.7 257.975 115.294 258.339 114.958C259.095 114.272 259.263 113.908 259.263 112.97V112.214C259.263 111.92 259.515 111.794 259.767 111.794ZM278.333 104.164C278.585 104.164 278.837 104.29 278.837 104.584V115.728C278.837 116.022 278.585 116.148 278.333 116.148C278.067 116.148 277.829 116.022 277.829 115.728V109.442H275.113C275.001 111.822 273.951 113.096 271.991 113.096C269.919 113.096 268.841 111.668 268.841 109.008C268.841 106.348 269.919 104.92 271.991 104.92C273.937 104.92 275.001 106.194 275.113 108.56H277.829V104.584C277.829 104.29 278.067 104.164 278.333 104.164ZM271.991 105.83C270.493 105.83 269.849 106.978 269.849 109.008C269.849 111.038 270.493 112.186 271.991 112.186C273.489 112.186 274.133 111.038 274.133 109.008C274.133 106.978 273.489 105.83 271.991 105.83ZM286.945 104.682C289.619 104.682 291.131 105.914 291.131 107.93C291.131 109.946 289.619 111.178 286.945 111.178C284.271 111.178 282.759 109.946 282.759 107.93C282.759 105.914 284.271 104.682 286.945 104.682ZM286.945 105.55C284.803 105.55 283.781 106.558 283.781 107.93C283.781 109.288 284.803 110.296 286.945 110.296C289.087 110.296 290.109 109.288 290.109 107.93C290.109 106.558 289.087 105.55 286.945 105.55ZM284.719 111.5C284.999 111.5 285.237 111.626 285.237 111.92V113.978H288.653V111.92C288.653 111.626 288.891 111.5 289.157 111.5C289.423 111.5 289.675 111.626 289.675 111.92V113.978H292.433C292.671 113.978 292.783 114.174 292.783 114.412C292.783 114.65 292.671 114.846 292.433 114.846H281.457C281.219 114.846 281.107 114.65 281.107 114.412C281.107 114.174 281.219 113.978 281.457 113.978H284.215V111.92C284.215 111.626 284.467 111.5 284.719 111.5ZM294.927 113.782C295.389 113.782 295.725 114.132 295.725 114.58C295.725 115.014 295.389 115.364 294.927 115.364C294.479 115.364 294.129 115.014 294.129 114.58C294.129 114.132 294.479 113.782 294.927 113.782Z" fill="#808983"/>
</g>
<defs>
<filter id="filter0_d_2249_24613" x="0" y="0" width="365" height="182" filterUnits="userSpaceOnUse" color-interpolation-filters="sRGB">
<feFlood flood-opacity="0" result="BackgroundImageFix"/>
<feColorMatrix in="SourceAlpha" type="matrix" values="0 0 0 0 0 0 0 0 0 0 0 0 0 0 0 0 0 0 127 0" result="hardAlpha"/>
<feOffset dy="4"/>
<feGaussianBlur stdDeviation="10"/>
<feComposite in2="hardAlpha" operator="out"/>
<feColorMatrix type="matrix" values="0 0 0 0 0 0 0 0 0 0 0 0 0 0 0 0 0 0 0.08 0"/>
<feBlend mode="normal" in2="BackgroundImageFix" result="effect1_dropShadow_2249_24613"/>
<feBlend mode="normal" in="SourceGraphic" in2="effect1_dropShadow_2249_24613" result="shape"/>
</filter>
</defs>
</svg>
