<svg viewBox="0 0 465 416" fill="none" xmlns="http://www.w3.org/2000/svg">
<g filter="url(#filter0_d_1850_23974)">
<rect x="20" y="16" width="425" height="376" rx="20" fill="#FFFDFA"/>
<path d="M151.786 59.945C154.651 59.945 156.271 61.31 156.271 63.5C156.271 65.555 154.861 66.875 152.341 67.04V69.89H157.651C157.921 69.89 158.041 70.1 158.041 70.37C158.041 70.625 157.921 70.835 157.651 70.835H145.921C145.651 70.835 145.531 70.625 145.531 70.37C145.531 70.1 145.651 69.89 145.921 69.89H151.246V67.04C148.711 66.875 147.301 65.555 147.301 63.5C147.301 61.31 148.921 59.945 151.786 59.945ZM151.786 60.875C149.491 60.875 148.396 62 148.396 63.5C148.396 65 149.491 66.125 151.786 66.125C154.081 66.125 155.176 65 155.176 63.5C155.176 62 154.081 60.875 151.786 60.875ZM161.553 59.555C161.838 59.555 162.093 59.69 162.093 60.005V62.69C162.093 62.885 162.183 62.96 162.378 62.96H169.758C170.013 62.96 170.133 63.17 170.133 63.425C170.133 63.68 170.013 63.89 169.758 63.89H162.033C161.253 63.89 160.998 63.65 160.998 62.885V60.005C160.998 59.69 161.253 59.555 161.553 59.555ZM171.318 65.315C171.573 65.315 171.693 65.525 171.693 65.78C171.693 66.035 171.573 66.245 171.318 66.245H159.558C159.303 66.245 159.183 66.035 159.183 65.78C159.183 65.525 159.303 65.315 159.558 65.315H171.318ZM168.858 67.73C169.638 67.73 169.893 67.97 169.893 68.735V69.845C169.893 70.61 169.638 70.85 168.858 70.85H162.273C162.108 70.85 162.033 70.91 162.033 71.09V72.02C162.033 72.185 162.108 72.245 162.273 72.245H169.908C170.148 72.245 170.253 72.455 170.253 72.68C170.253 72.92 170.148 73.13 169.908 73.13H162.003C161.223 73.13 160.968 72.89 160.968 72.125V71C160.968 70.235 161.223 69.995 162.003 69.995H168.588C168.768 69.995 168.843 69.935 168.843 69.77V68.84C168.843 68.675 168.768 68.6 168.588 68.6H161.298C161.058 68.6 160.938 68.405 160.938 68.165C160.938 67.94 161.058 67.73 161.298 67.73H168.858ZM177.426 60.185C179.781 60.185 180.966 61.58 180.966 63.38C180.966 65.165 179.781 66.56 177.426 66.56C175.071 66.56 173.886 65.165 173.886 63.38C173.886 61.58 175.071 60.185 177.426 60.185ZM177.426 61.13C175.746 61.13 174.951 62.135 174.951 63.38C174.951 64.625 175.746 65.63 177.426 65.63C179.106 65.63 179.901 64.625 179.901 63.38C179.901 62.135 179.106 61.13 177.426 61.13ZM181.761 68.555C182.001 68.525 182.151 68.705 182.181 68.96C182.196 69.23 182.076 69.47 181.851 69.485C179.061 69.725 176.421 69.815 173.421 69.815C173.151 69.815 173.031 69.605 173.031 69.335C173.031 69.08 173.151 68.855 173.421 68.855C176.166 68.855 178.731 68.825 181.761 68.555ZM183.696 59.39C183.966 59.39 184.236 59.525 184.236 59.84V71.78C184.236 72.095 183.966 72.23 183.696 72.23C183.411 72.23 183.156 72.095 183.156 71.78V59.84C183.156 59.525 183.411 59.39 183.696 59.39ZM195.773 60.185C196.553 60.185 196.808 60.425 196.808 61.19V62.255C196.808 64.325 196.013 64.88 191.363 67.01C191.138 67.115 190.868 67.01 190.733 66.755C190.613 66.53 190.628 66.215 190.898 66.095C195.233 64.145 195.728 63.725 195.728 62.21V61.415C195.728 61.205 195.653 61.13 195.443 61.13H191.198C190.928 61.13 190.808 60.92 190.808 60.665C190.808 60.395 190.928 60.185 191.198 60.185H195.773ZM200.168 59.39C200.453 59.39 200.723 59.525 200.723 59.84V62.645H202.628C202.898 62.645 203.018 62.87 203.018 63.14C203.018 63.395 202.898 63.62 202.628 63.62H200.723V66.665C200.723 66.98 200.453 67.115 200.168 67.115C199.898 67.115 199.628 66.98 199.628 66.665V59.84C199.628 59.525 199.898 59.39 200.168 59.39ZM199.688 67.88C200.468 67.88 200.723 68.12 200.723 68.885V71.99C200.723 72.755 200.468 72.995 199.688 72.995H193.403C192.623 72.995 192.368 72.755 192.368 71.99V68.885C192.368 68.12 192.623 67.88 193.403 67.88H199.688ZM193.748 68.81C193.538 68.81 193.463 68.885 193.463 69.095V71.78C193.463 71.99 193.538 72.065 193.748 72.065H199.358C199.553 72.065 199.643 71.99 199.643 71.78V69.095C199.643 68.885 199.553 68.81 199.358 68.81H193.748ZM211.45 60.2C211.705 60.2 211.825 60.41 211.825 60.665C211.825 60.935 211.705 61.145 211.45 61.145H208.735V62.21C208.735 63.245 209.02 63.875 209.785 64.49C210.535 65.075 211.24 65.6 211.705 65.93C211.96 66.125 211.975 66.41 211.81 66.62C211.675 66.815 211.405 66.935 211.135 66.74C210.775 66.5 210.085 65.975 209.38 65.435C208.6 64.805 208.27 64.385 208.195 64.07H208.18C208.105 64.4 207.775 64.835 206.98 65.465C206.29 66.02 205.57 66.545 204.985 66.95C204.73 67.13 204.46 67.01 204.31 66.815C204.16 66.605 204.145 66.305 204.415 66.125C205.135 65.615 205.825 65.105 206.575 64.505C207.34 63.89 207.625 63.26 207.625 62.24V61.145H204.82C204.565 61.145 204.445 60.935 204.445 60.665C204.445 60.41 204.565 60.2 204.82 60.2H211.45ZM214.57 59.39C214.84 59.39 215.11 59.525 215.11 59.84V67.145C215.11 67.46 214.84 67.595 214.57 67.595C214.285 67.595 214.03 67.46 214.03 67.145V63.875H211.465C211.21 63.875 211.09 63.665 211.09 63.395C211.09 63.14 211.21 62.915 211.465 62.915H214.03V59.84C214.03 59.525 214.285 59.39 214.57 59.39ZM210.94 67.775C213.67 67.775 215.215 68.735 215.215 70.52C215.215 72.305 213.67 73.265 210.94 73.265C208.21 73.265 206.68 72.305 206.68 70.52C206.68 68.735 208.21 67.775 210.94 67.775ZM210.94 68.675C208.78 68.675 207.76 69.38 207.76 70.52C207.76 71.66 208.78 72.365 210.94 72.365C213.115 72.365 214.135 71.66 214.135 70.52C214.135 69.38 213.115 68.675 210.94 68.675ZM223.798 59.555C226.633 59.555 228.238 60.305 228.238 61.895C228.238 63.47 226.633 64.22 223.798 64.22C220.963 64.22 219.358 63.47 219.358 61.895C219.358 60.305 220.963 59.555 223.798 59.555ZM223.798 60.455C221.518 60.455 220.453 60.95 220.453 61.895C220.453 62.825 221.518 63.335 223.798 63.335C226.078 63.335 227.143 62.825 227.143 61.895C227.143 60.95 226.078 60.455 223.798 60.455ZM229.678 65.39C229.933 65.39 230.053 65.6 230.053 65.855C230.053 66.11 229.933 66.32 229.678 66.32H217.918C217.663 66.32 217.543 66.11 217.543 65.855C217.543 65.6 217.663 65.39 217.918 65.39H229.678ZM227.218 67.73C227.998 67.73 228.253 67.97 228.253 68.735V69.845C228.253 70.61 227.998 70.85 227.218 70.85H220.633C220.468 70.85 220.393 70.91 220.393 71.09V72.02C220.393 72.185 220.468 72.245 220.633 72.245H228.268C228.508 72.245 228.613 72.455 228.613 72.68C228.613 72.92 228.508 73.13 228.268 73.13H220.363C219.583 73.13 219.328 72.89 219.328 72.125V71C219.328 70.235 219.583 69.995 220.363 69.995H226.948C227.128 69.995 227.203 69.935 227.203 69.77V68.84C227.203 68.675 227.128 68.6 226.948 68.6H219.658C219.418 68.6 219.298 68.405 219.298 68.165C219.298 67.94 219.418 67.73 219.658 67.73H227.218ZM238.575 60.455C238.845 60.455 238.965 60.665 238.965 60.92C238.965 61.19 238.845 61.4 238.575 61.4H236.955C236.745 61.4 236.67 61.475 236.67 61.67V67.55C236.67 67.745 236.745 67.82 236.955 67.82C237.6 67.82 238.32 67.775 238.905 67.67C239.13 67.625 239.295 67.79 239.325 68.045C239.37 68.315 239.265 68.555 239.025 68.6C238.275 68.72 237.435 68.765 236.64 68.765C235.86 68.765 235.605 68.525 235.605 67.76V61.46C235.605 60.695 235.86 60.455 236.64 60.455H238.575ZM242.85 60.455C243.12 60.455 243.24 60.665 243.24 60.92C243.24 61.19 243.12 61.4 242.85 61.4H241.17C240.96 61.4 240.885 61.475 240.885 61.67V67.55C240.885 67.745 240.96 67.82 241.17 67.82C241.89 67.82 242.79 67.775 243.39 67.655C243.615 67.61 243.78 67.775 243.81 68.03C243.855 68.3 243.75 68.54 243.51 68.585C242.73 68.72 241.725 68.765 240.855 68.765C240.075 68.765 239.82 68.525 239.82 67.76V61.46C239.82 60.695 240.075 60.455 240.855 60.455H242.85ZM245.805 59.39C246.09 59.39 246.345 59.525 246.345 59.84V71.78C246.345 72.095 246.09 72.23 245.805 72.23C245.535 72.23 245.28 72.095 245.28 71.78V64.94H243.345C243.075 64.94 242.955 64.73 242.955 64.46C242.955 64.19 243.075 63.98 243.345 63.98H245.28V59.84C245.28 59.525 245.535 59.39 245.805 59.39ZM254.852 59.555C257.687 59.555 259.292 60.305 259.292 61.895C259.292 63.365 257.882 64.115 255.392 64.205V65.585H260.747C260.987 65.585 261.107 65.795 261.107 66.05C261.107 66.29 260.987 66.5 260.747 66.5H248.957C248.717 66.5 248.597 66.29 248.597 66.05C248.597 65.795 248.717 65.585 248.957 65.585H254.312V64.205C251.807 64.115 250.412 63.365 250.412 61.895C250.412 60.305 252.017 59.555 254.852 59.555ZM258.272 67.73C259.052 67.73 259.307 67.97 259.307 68.735V69.845C259.307 70.61 259.052 70.85 258.272 70.85H251.687C251.522 70.85 251.447 70.91 251.447 71.09V72.02C251.447 72.185 251.522 72.245 251.687 72.245H259.322C259.562 72.245 259.667 72.455 259.667 72.68C259.667 72.92 259.562 73.13 259.322 73.13H251.417C250.637 73.13 250.382 72.89 250.382 72.125V71C250.382 70.235 250.637 69.995 251.417 69.995H258.002C258.182 69.995 258.257 69.935 258.257 69.77V68.84C258.257 68.675 258.182 68.6 258.002 68.6H250.712C250.472 68.6 250.352 68.405 250.352 68.165C250.352 67.94 250.472 67.73 250.712 67.73H258.272ZM254.852 60.455C252.572 60.455 251.507 60.95 251.507 61.895C251.507 62.825 252.572 63.335 254.852 63.335C257.132 63.335 258.197 62.825 258.197 61.895C258.197 60.95 257.132 60.455 254.852 60.455ZM267.755 60.35C268.535 60.35 268.79 60.59 268.79 61.355V64.13C268.79 64.895 268.535 65.135 267.755 65.135H264.455C264.245 65.135 264.17 65.21 264.17 65.405V67.88C264.17 68.075 264.245 68.15 264.455 68.15C266.435 68.15 268.37 68.09 270.02 67.91C270.245 67.88 270.425 68.045 270.455 68.3C270.485 68.6 270.365 68.84 270.125 68.855C268.685 69.02 266.735 69.095 264.125 69.095C263.345 69.095 263.09 68.855 263.09 68.09V65.225C263.09 64.46 263.345 64.22 264.125 64.22H267.425C267.62 64.22 267.71 64.145 267.71 63.935V61.565C267.71 61.37 267.62 61.295 267.425 61.295H263.465C263.21 61.295 263.09 61.085 263.09 60.815C263.09 60.56 263.21 60.35 263.465 60.35H267.755ZM272.93 59.39C273.2 59.39 273.47 59.525 273.47 59.84V71.78C273.47 72.095 273.2 72.23 272.93 72.23C272.66 72.23 272.39 72.095 272.39 71.78V66.395H270.17C269.9 66.395 269.78 66.17 269.78 65.915C269.78 65.66 269.9 65.45 270.17 65.45H272.39V63.26H270.17C269.9 63.26 269.78 63.035 269.78 62.78C269.78 62.525 269.9 62.315 270.17 62.315H272.39V59.84C272.39 59.525 272.66 59.39 272.93 59.39ZM281.977 60.05C282.247 60.05 282.517 60.185 282.517 60.5V62.585H289.297V60.5C289.297 60.185 289.567 60.05 289.837 60.05C290.107 60.05 290.377 60.185 290.377 60.5V65.885C290.377 66.65 290.122 66.89 289.342 66.89H286.462V69.89H291.772C292.042 69.89 292.162 70.1 292.162 70.37C292.162 70.625 292.042 70.835 291.772 70.835H280.042C279.772 70.835 279.652 70.625 279.652 70.37C279.652 70.1 279.772 69.89 280.042 69.89H285.367V66.89H282.472C281.692 66.89 281.437 66.65 281.437 65.885V60.5C281.437 60.185 281.707 60.05 281.977 60.05ZM282.517 65.675C282.517 65.87 282.607 65.945 282.802 65.945H289.012C289.207 65.945 289.297 65.87 289.297 65.675V63.53H282.517V65.675ZM297.009 60.2C299.244 60.2 300.399 61.73 300.399 64.58C300.399 67.43 299.244 68.96 297.009 68.96C294.774 68.96 293.604 67.43 293.604 64.58C293.604 61.73 294.774 60.2 297.009 60.2ZM297.009 61.175C295.389 61.175 294.684 62.405 294.684 64.58C294.684 66.755 295.389 67.985 297.009 67.985C298.629 67.985 299.334 66.755 299.334 64.58C299.334 62.405 298.629 61.175 297.009 61.175ZM303.234 59.39C303.519 59.39 303.789 59.525 303.789 59.84V64.025H305.694C305.964 64.025 306.084 64.25 306.084 64.505C306.084 64.775 305.964 65 305.694 65H303.789V71.78C303.789 72.095 303.519 72.23 303.234 72.23C302.964 72.23 302.694 72.095 302.694 71.78V59.84C302.694 59.525 302.964 59.39 303.234 59.39ZM313.212 59.945C316.077 59.945 317.697 61.265 317.697 63.425C317.697 65.585 316.077 66.905 313.212 66.905C310.347 66.905 308.727 65.585 308.727 63.425C308.727 61.265 310.347 59.945 313.212 59.945ZM313.212 60.875C310.917 60.875 309.822 61.955 309.822 63.425C309.822 64.88 310.917 65.96 313.212 65.96C315.507 65.96 316.602 64.88 316.602 63.425C316.602 61.955 315.507 60.875 313.212 60.875ZM310.827 67.25C311.127 67.25 311.382 67.385 311.382 67.7V69.905H315.042V67.7C315.042 67.385 315.297 67.25 315.582 67.25C315.867 67.25 316.137 67.385 316.137 67.7V69.905H319.092C319.347 69.905 319.467 70.115 319.467 70.37C319.467 70.625 319.347 70.835 319.092 70.835H307.332C307.077 70.835 306.957 70.625 306.957 70.37C306.957 70.115 307.077 69.905 307.332 69.905H310.287V67.7C310.287 67.385 310.557 67.25 310.827 67.25Z" fill="#333835"/>
<path d="M163.291 85.018C163.557 85.018 163.809 85.144 163.809 85.438V91.71C163.809 91.906 163.879 91.976 164.075 91.976C166.091 91.976 167.757 91.864 169.423 91.64C169.647 91.612 169.801 91.766 169.843 92.018C169.871 92.27 169.773 92.508 169.549 92.536C168.093 92.732 166.357 92.858 163.739 92.858C163.011 92.858 162.773 92.634 162.773 91.92V85.438C162.773 85.144 163.025 85.018 163.291 85.018ZM171.425 84.164C171.691 84.164 171.943 84.29 171.943 84.584V88.49H173.721C173.973 88.49 174.085 88.7 174.085 88.938C174.085 89.19 173.973 89.4 173.721 89.4H171.943V95.728C171.943 96.022 171.691 96.148 171.425 96.148C171.173 96.148 170.921 96.022 170.921 95.728V84.584C170.921 84.29 171.173 84.164 171.425 84.164ZM177.111 84.514C177.377 84.514 177.615 84.64 177.615 84.934V87.986C177.615 88.168 177.699 88.238 177.881 88.238H184.769C185.007 88.238 185.119 88.434 185.119 88.672C185.119 88.91 185.007 89.12 184.769 89.12H177.559C176.831 89.12 176.593 88.896 176.593 88.182V84.934C176.593 84.64 176.831 84.514 177.111 84.514ZM186.211 90.828C186.463 90.828 186.575 91.024 186.575 91.276C186.575 91.514 186.463 91.71 186.211 91.71H175.263C175.011 91.71 174.899 91.514 174.899 91.276C174.899 91.024 175.011 90.828 175.263 90.828H186.211ZM177.083 92.984C177.349 92.984 177.587 93.11 177.587 93.404V95.686C177.587 95.882 177.671 95.952 177.853 95.952H184.797C185.035 95.952 185.147 96.148 185.147 96.386C185.147 96.624 185.035 96.82 184.797 96.82H177.531C176.803 96.82 176.565 96.596 176.565 95.882V93.404C176.565 93.11 176.803 92.984 177.083 92.984ZM201.109 84.164C201.361 84.164 201.613 84.29 201.613 84.584V95.728C201.613 96.022 201.361 96.148 201.109 96.148C200.843 96.148 200.605 96.022 200.605 95.728V89.442H197.889C197.777 91.822 196.727 93.096 194.767 93.096C192.695 93.096 191.617 91.668 191.617 89.008C191.617 86.348 192.695 84.92 194.767 84.92C196.713 84.92 197.777 86.194 197.889 88.56H200.605V84.584C200.605 84.29 200.843 84.164 201.109 84.164ZM194.767 85.83C193.269 85.83 192.625 86.978 192.625 89.008C192.625 91.038 193.269 92.186 194.767 92.186C196.265 92.186 196.909 91.038 196.909 89.008C196.909 86.978 196.265 85.83 194.767 85.83ZM211.206 85.018C211.458 85.018 211.57 85.214 211.57 85.452C211.57 85.704 211.458 85.9 211.206 85.9H209.666C209.47 85.9 209.4 85.97 209.4 86.152V90.128C209.4 90.31 209.47 90.38 209.666 90.38C210.338 90.38 211.206 90.338 211.766 90.226C211.976 90.184 212.13 90.338 212.158 90.576C212.2 90.828 212.102 91.052 211.878 91.094C211.15 91.22 210.282 91.262 209.372 91.262C208.644 91.262 208.406 91.038 208.406 90.324V85.956C208.406 85.242 208.644 85.018 209.372 85.018H211.206ZM207.244 85.018C207.496 85.018 207.608 85.214 207.608 85.452C207.608 85.704 207.496 85.9 207.244 85.9H205.76C205.564 85.9 205.494 85.97 205.494 86.152V90.128C205.494 90.31 205.564 90.38 205.76 90.38C206.362 90.38 207.006 90.338 207.552 90.24C207.762 90.198 207.916 90.352 207.944 90.59C207.986 90.842 207.888 91.066 207.664 91.108C206.964 91.22 206.292 91.262 205.466 91.262C204.738 91.262 204.5 91.038 204.5 90.324V85.956C204.5 85.242 204.738 85.018 205.466 85.018H207.244ZM214.02 84.164C214.286 84.164 214.524 84.29 214.524 84.584V93.138C214.524 93.418 214.286 93.544 214.02 93.544C213.768 93.544 213.53 93.418 213.53 93.138V88.448H211.724C211.472 88.448 211.36 88.252 211.36 88C211.36 87.762 211.472 87.566 211.724 87.566H213.53V84.584C213.53 84.29 213.768 84.164 214.02 84.164ZM206.936 92.536C207.202 92.536 207.454 92.662 207.454 92.956V95.616C207.454 95.798 207.524 95.868 207.72 95.868H214.524C214.776 95.868 214.888 96.078 214.888 96.316C214.888 96.554 214.776 96.764 214.524 96.764H207.384C206.656 96.764 206.418 96.54 206.418 95.826V92.956C206.418 92.662 206.67 92.536 206.936 92.536ZM225.544 85.13C226.272 85.13 226.51 85.354 226.51 86.068V91.948C226.51 92.662 226.272 92.886 225.544 92.886H221.624C220.896 92.886 220.658 92.662 220.658 91.948V86.068C220.658 85.354 220.896 85.13 221.624 85.13H225.544ZM221.932 86.012C221.75 86.012 221.666 86.082 221.666 86.264V91.752C221.666 91.934 221.75 92.004 221.932 92.004H225.222C225.418 92.004 225.488 91.934 225.488 91.752V86.264C225.488 86.082 225.418 86.012 225.222 86.012H221.932ZM229.394 84.164C229.66 84.164 229.912 84.29 229.912 84.584V88.49H231.69C231.942 88.49 232.054 88.7 232.054 88.938C232.054 89.19 231.942 89.4 231.69 89.4H229.912V95.728C229.912 96.022 229.66 96.148 229.394 96.148C229.142 96.148 228.89 96.022 228.89 95.728V84.584C228.89 84.29 229.142 84.164 229.394 84.164ZM238.706 84.458C241.352 84.458 242.85 85.214 242.85 86.782C242.85 88.35 241.352 89.106 238.706 89.106C236.06 89.106 234.562 88.35 234.562 86.782C234.562 85.214 236.06 84.458 238.706 84.458ZM238.706 85.298C236.578 85.298 235.584 85.816 235.584 86.782C235.584 87.748 236.578 88.266 238.706 88.266C240.834 88.266 241.828 87.748 241.828 86.782C241.828 85.816 240.834 85.298 238.706 85.298ZM244.194 90.324C244.432 90.324 244.544 90.52 244.544 90.758C244.544 91.01 244.432 91.206 244.194 91.206H233.218C232.98 91.206 232.868 91.01 232.868 90.758C232.868 90.52 232.98 90.324 233.218 90.324H244.194ZM241.912 92.62C242.64 92.62 242.878 92.844 242.878 93.558V95.98C242.878 96.694 242.64 96.918 241.912 96.918H235.5C234.772 96.918 234.534 96.694 234.534 95.98V93.558C234.534 92.844 234.772 92.62 235.5 92.62H241.912ZM235.808 93.474C235.612 93.474 235.542 93.544 235.542 93.726V95.812C235.542 95.994 235.612 96.064 235.808 96.064H241.604C241.8 96.064 241.87 95.994 241.87 95.812V93.726C241.87 93.544 241.8 93.474 241.604 93.474H235.808ZM249.362 84.906C251.462 84.906 252.54 86.348 252.54 89.008C252.54 91.668 251.462 93.11 249.362 93.11C247.262 93.11 246.17 91.668 246.17 89.008C246.17 86.348 247.262 84.906 249.362 84.906ZM249.362 85.816C247.836 85.816 247.178 86.978 247.178 89.008C247.178 91.038 247.836 92.2 249.362 92.2C250.888 92.2 251.546 91.038 251.546 89.008C251.546 86.978 250.888 85.816 249.362 85.816ZM255.48 84.164C255.746 84.164 255.998 84.29 255.998 84.584V95.728C255.998 96.022 255.746 96.148 255.48 96.148C255.228 96.148 254.976 96.022 254.976 95.728V84.584C254.976 84.29 255.228 84.164 255.48 84.164ZM268.32 84.164C268.572 84.164 268.824 84.29 268.824 84.584V90.954C268.824 91.248 268.572 91.374 268.32 91.374C268.054 91.374 267.816 91.248 267.816 90.954V88.098H265.044C264.876 89.54 263.868 90.618 261.95 90.618C259.836 90.618 258.828 89.316 258.828 87.664C258.828 85.998 259.836 84.696 261.95 84.696C263.868 84.696 264.876 85.774 265.044 87.216H267.816V84.584C267.816 84.29 268.054 84.164 268.32 84.164ZM262.552 91.794C262.804 91.794 263.042 91.92 263.042 92.214V92.97C263.042 93.894 263.196 94.23 263.84 94.958C264.078 95.224 264.358 95.532 264.61 95.756C264.764 95.91 264.876 95.91 265.044 95.756C265.282 95.532 265.576 95.224 265.814 94.958C266.444 94.23 266.598 93.894 266.598 92.97V92.214C266.598 91.92 266.85 91.794 267.102 91.794C267.354 91.794 267.606 91.92 267.606 92.214V92.97C267.606 93.908 267.774 94.272 268.53 94.958C268.88 95.294 269.398 95.7 269.902 96.078C270.084 96.218 270.084 96.47 269.93 96.68C269.762 96.876 269.524 96.932 269.3 96.764C268.824 96.4 268.404 96.05 268.082 95.77C267.438 95.21 267.186 94.902 267.102 94.622H267.088C267.004 94.916 266.794 95.168 266.164 95.84C265.926 96.092 265.688 96.33 265.45 96.554C264.974 96.988 264.68 96.988 264.19 96.554C263.952 96.33 263.728 96.092 263.476 95.84C262.846 95.168 262.65 94.916 262.566 94.622H262.552C262.468 94.916 262.216 95.224 261.558 95.784C261.25 96.05 260.816 96.414 260.34 96.778C260.13 96.932 259.878 96.89 259.724 96.68C259.556 96.484 259.57 96.218 259.738 96.078C260.256 95.7 260.76 95.294 261.124 94.958C261.88 94.272 262.048 93.908 262.048 92.97V92.214C262.048 91.92 262.3 91.794 262.552 91.794ZM261.95 85.564C260.424 85.564 259.822 86.53 259.822 87.664C259.822 88.784 260.424 89.75 261.95 89.75C263.476 89.75 264.078 88.784 264.078 87.664C264.078 86.53 263.476 85.564 261.95 85.564ZM276.933 84.318C279.579 84.318 281.077 85.018 281.077 86.502C281.077 87.972 279.579 88.672 276.933 88.672C274.287 88.672 272.789 87.972 272.789 86.502C272.789 85.018 274.287 84.318 276.933 84.318ZM276.933 85.158C274.805 85.158 273.811 85.62 273.811 86.502C273.811 87.37 274.805 87.846 276.933 87.846C279.061 87.846 280.055 87.37 280.055 86.502C280.055 85.62 279.061 85.158 276.933 85.158ZM282.421 89.764C282.659 89.764 282.771 89.96 282.771 90.198C282.771 90.436 282.659 90.632 282.421 90.632H271.445C271.207 90.632 271.095 90.436 271.095 90.198C271.095 89.96 271.207 89.764 271.445 89.764H282.421ZM280.125 91.948C280.853 91.948 281.091 92.172 281.091 92.886V93.922C281.091 94.636 280.853 94.86 280.125 94.86H273.979C273.825 94.86 273.755 94.916 273.755 95.084V95.952C273.755 96.106 273.825 96.162 273.979 96.162H281.105C281.329 96.162 281.427 96.358 281.427 96.568C281.427 96.792 281.329 96.988 281.105 96.988H273.727C272.999 96.988 272.761 96.764 272.761 96.05V95C272.761 94.286 272.999 94.062 273.727 94.062H279.873C280.041 94.062 280.111 94.006 280.111 93.852V92.984C280.111 92.83 280.041 92.76 279.873 92.76H273.069C272.845 92.76 272.733 92.578 272.733 92.354C272.733 92.144 272.845 91.948 273.069 91.948H280.125ZM289.871 85.158C290.599 85.158 290.837 85.382 290.837 86.096V87.818C290.837 90.086 290.627 91.038 288.121 93.712C287.925 93.922 287.659 93.894 287.449 93.712C287.267 93.53 287.225 93.292 287.393 93.096C289.661 90.646 289.857 89.792 289.857 87.776V86.306C289.857 86.124 289.773 86.054 289.591 86.054H288.233C287.981 86.054 287.869 85.844 287.869 85.606C287.869 85.368 287.981 85.158 288.233 85.158H289.871ZM286.315 85.158C287.071 85.158 287.281 85.354 287.281 86.096V87.468C287.281 89.666 287.169 90.254 284.677 92.662C284.481 92.858 284.229 92.83 284.033 92.634C283.837 92.452 283.795 92.2 283.991 92.018C286.217 89.848 286.301 89.358 286.301 87.412V86.306C286.301 86.124 286.217 86.054 286.035 86.054H284.551C284.299 86.054 284.187 85.844 284.187 85.606C284.187 85.368 284.299 85.158 284.551 85.158H286.315ZM293.287 84.164C293.553 84.164 293.791 84.29 293.791 84.584V88.49H295.401C295.653 88.49 295.765 88.7 295.765 88.938C295.765 89.176 295.653 89.386 295.401 89.386H293.791V95.728C293.791 96.022 293.553 96.148 293.287 96.148C293.035 96.148 292.797 96.022 292.797 95.728V84.584C292.797 84.29 293.035 84.164 293.287 84.164ZM299.617 84.836C301.465 84.836 302.599 85.83 302.599 87.356V87.51C302.599 88.448 302.109 89.092 301.143 89.96C299.995 90.996 299.869 91.374 299.869 92.074C299.869 92.326 299.631 92.466 299.393 92.466C299.127 92.466 298.889 92.34 298.889 92.06C298.889 91.108 299.057 90.604 300.233 89.554C301.255 88.644 301.577 88.182 301.577 87.51V87.398C301.577 86.418 300.863 85.76 299.631 85.76C298.693 85.76 298.063 86.11 297.531 86.6C297.321 86.768 297.069 86.74 296.901 86.53C296.719 86.334 296.719 86.068 296.929 85.886C297.517 85.326 298.483 84.836 299.617 84.836ZM299.379 93.81C299.827 93.81 300.163 94.16 300.163 94.594C300.163 95.028 299.827 95.364 299.379 95.364C298.945 95.364 298.595 95.028 298.595 94.594C298.595 94.16 298.945 93.81 299.379 93.81Z" fill="#808983"/>
<path fill-rule="evenodd" clip-rule="evenodd" d="M133.724 142.591C149.311 148.155 149.464 160.753 150.604 164.766C155.384 181.59 141.271 188.326 129.888 186.308C116.542 183.942 105.757 183.614 108.66 161.38C112.287 147.155 122.8 139.371 133.724 142.591Z" fill="#E2F7F2"/>
<path d="M129.366 141.664C129.983 140.175 130.075 138.718 129.275 137.226C128.599 135.966 127.683 135.058 126.38 134.632C126.242 134.589 126.1 134.565 125.956 134.56C125.75 134.59 125.9 135.821 125.907 136.066C125.994 139.036 125.915 141.052 129.366 141.664Z" fill="#C2F2EA"/>
<path d="M131.446 161.429L132.829 160.865C133.355 160.65 133.529 160.069 133.204 159.618L132.23 158.268C132.069 158.056 131.837 157.909 131.577 157.854C131.317 157.799 131.045 157.839 130.812 157.967L129.372 158.798C128.89 159.079 128.812 159.681 129.205 160.091L130.237 161.17C130.391 161.327 130.588 161.435 130.803 161.481C131.018 161.527 131.241 161.509 131.446 161.429Z" fill="#F9D2D2"/>
<path d="M136.594 155.524C136.183 155.439 135.762 155.436 135.364 155.516L135.364 155.516C135.323 155.525 135.284 155.54 135.249 155.562C135.215 155.584 135.186 155.613 135.165 155.646C135.143 155.679 135.13 155.717 135.126 155.756C135.122 155.795 135.128 155.835 135.142 155.872C135.156 155.91 135.178 155.944 135.207 155.974C135.236 156.004 135.27 156.029 135.309 156.048C135.347 156.067 135.389 156.079 135.432 156.085C135.475 156.091 135.518 156.089 135.559 156.081C135.992 155.995 136.459 156.038 136.883 156.203C137.306 156.368 137.658 156.645 137.881 156.985L137.881 156.985L137.882 156.987C137.928 157.052 137.999 157.1 138.08 157.122C138.161 157.145 138.248 157.142 138.323 157.112C138.399 157.082 138.459 157.026 138.486 156.954C138.513 156.881 138.505 156.801 138.464 156.732L138.464 156.732L138.463 156.73C138.164 156.27 137.692 155.899 137.128 155.68L137.128 155.68C136.955 155.613 136.776 155.561 136.594 155.524ZM136.594 155.524C136.594 155.524 136.594 155.524 136.594 155.524L136.583 155.576L136.594 155.524C136.594 155.524 136.594 155.524 136.594 155.524Z" fill="#07BEB8" stroke="#07BEB8" stroke-width="0.107607"/>
<path d="M127.386 153.805C127.779 153.855 128.155 153.987 128.485 154.189L128.485 154.189C128.52 154.21 128.55 154.238 128.574 154.27C128.598 154.302 128.615 154.338 128.623 154.376C128.632 154.414 128.632 154.453 128.623 154.491C128.614 154.529 128.597 154.564 128.573 154.595C128.548 154.626 128.518 154.652 128.482 154.671C128.447 154.691 128.408 154.704 128.367 154.709C128.326 154.715 128.285 154.714 128.244 154.705C128.204 154.697 128.165 154.682 128.13 154.66C127.773 154.442 127.344 154.335 126.917 154.357C126.489 154.379 126.09 154.53 125.786 154.781L125.786 154.781L125.784 154.783C125.723 154.83 125.643 154.853 125.562 154.849C125.482 154.845 125.404 154.813 125.346 154.761C125.288 154.707 125.252 154.636 125.251 154.559C125.249 154.483 125.281 154.411 125.339 154.358L125.339 154.358L125.341 154.356C125.751 154.015 126.288 153.813 126.86 153.784L126.86 153.784C127.035 153.775 127.211 153.782 127.386 153.805ZM127.386 153.805C127.386 153.805 127.386 153.805 127.386 153.805L127.379 153.859L127.386 153.805C127.386 153.805 127.386 153.805 127.386 153.805Z" fill="#07BEB8" stroke="#07BEB8" stroke-width="0.107607"/>
<path opacity="0.3" d="M108.506 154.625C105.992 158.894 105.659 161.65 105.869 166.838" stroke="#07BEB8" stroke-width="0.269017"/>
<ellipse cx="149.468" cy="151.103" rx="0.781939" ry="0.988373" transform="rotate(-76.1288 149.468 151.103)" fill="#07BEB8"/>
<path d="M151.077 147.527L150.139 151.323" stroke="#07BEB8" stroke-width="0.538033" stroke-linecap="round"/>
<path d="M151.091 147.532C150.968 147.47 151.57 148.417 152.066 149.164C152.562 149.91 151.392 150.841 151.517 150.785" stroke="#07BEB8" stroke-width="0.538033" stroke-linecap="round"/>
<path fill-rule="evenodd" clip-rule="evenodd" d="M238.09 142.801C250.269 146.523 250.777 159.417 254.494 164.647C264.259 178.387 247.261 186.052 233.768 185.768C214.744 185.368 203.476 177.136 213.013 161.223C214.951 146.876 226.52 139.688 238.09 142.801Z" fill="#E2F7F2"/>
<path d="M231.953 141.663C232.86 140.331 233.248 138.923 232.768 137.299C232.363 135.928 231.651 134.852 230.461 134.17C230.336 134.1 230.201 134.047 230.061 134.014C229.853 134 229.75 135.237 229.707 135.478C229.187 138.403 228.699 140.361 231.953 141.663Z" fill="#C2F2EA"/>
<path d="M234.094 161.822L235.398 161.093C235.893 160.815 235.995 160.217 235.618 159.809L234.486 158.588C234.3 158.398 234.052 158.28 233.787 158.258C233.522 158.235 233.257 158.308 233.042 158.463L231.714 159.465C231.27 159.802 231.266 160.409 231.706 160.768L232.863 161.713C233.035 161.85 233.243 161.933 233.462 161.952C233.681 161.971 233.901 161.926 234.094 161.822Z" fill="#F9D2D2"/>
<path d="M229.078 154.043C229.423 154.128 229.783 154.129 230.129 154.046L230.129 154.046C230.173 154.035 230.214 154.016 230.25 153.99C230.286 153.963 230.317 153.93 230.34 153.892C230.363 153.853 230.379 153.811 230.386 153.766C230.393 153.722 230.391 153.677 230.38 153.633C230.369 153.59 230.35 153.549 230.324 153.513C230.297 153.476 230.264 153.446 230.226 153.422C230.188 153.399 230.145 153.384 230.101 153.377C230.057 153.37 230.012 153.372 229.968 153.382C229.619 153.466 229.252 153.426 228.928 153.271C228.604 153.116 228.344 152.854 228.19 152.53L228.19 152.53L228.188 152.526C228.148 152.449 228.079 152.389 227.996 152.361C227.912 152.333 227.822 152.338 227.742 152.375C227.663 152.412 227.6 152.478 227.569 152.56C227.537 152.642 227.538 152.733 227.572 152.814L227.572 152.814L227.574 152.818C227.793 153.286 228.168 153.662 228.634 153.885L228.634 153.885C228.776 153.953 228.925 154.006 229.078 154.043ZM229.078 154.043C229.078 154.043 229.078 154.043 229.078 154.043L229.104 153.938L229.079 154.043C229.079 154.043 229.078 154.043 229.078 154.043Z" fill="#07BEB8" stroke="#07BEB8" stroke-width="0.215213"/>
<path d="M238.098 154.196C237.743 154.198 237.393 154.115 237.077 153.953L237.076 153.953C237.037 153.932 237.001 153.904 236.972 153.87C236.943 153.836 236.921 153.796 236.908 153.753C236.894 153.711 236.889 153.666 236.893 153.621C236.896 153.576 236.909 153.533 236.929 153.493C236.95 153.453 236.978 153.418 237.012 153.389C237.046 153.36 237.086 153.338 237.129 153.324C237.171 153.31 237.216 153.305 237.261 153.309C237.305 153.313 237.349 153.325 237.389 153.346C237.708 153.508 238.075 153.556 238.426 153.482C238.777 153.407 239.092 153.214 239.317 152.934L239.317 152.934L239.32 152.931C239.377 152.865 239.458 152.824 239.546 152.816C239.633 152.808 239.72 152.834 239.789 152.888C239.857 152.943 239.902 153.022 239.914 153.109C239.926 153.196 239.903 153.284 239.852 153.355L239.852 153.355L239.849 153.359C239.525 153.762 239.073 154.04 238.568 154.147L238.568 154.147C238.414 154.18 238.256 154.196 238.098 154.196ZM238.098 154.196C238.099 154.196 238.099 154.196 238.099 154.196L238.098 154.089L238.098 154.196C238.098 154.196 238.098 154.196 238.098 154.196Z" fill="#07BEB8" stroke="#07BEB8" stroke-width="0.215213"/>
<path d="M228.893 157.594C229.408 157.594 229.826 157.106 229.826 156.505C229.826 155.904 229.408 155.416 228.893 155.416C228.378 155.416 227.96 155.904 227.96 156.505C227.96 157.106 228.378 157.594 228.893 157.594Z" fill="#07BEB8"/>
<path d="M237.932 157.594C238.447 157.594 238.865 157.106 238.865 156.505C238.865 155.904 238.447 155.416 237.932 155.416C237.417 155.416 236.999 155.904 236.999 156.505C236.999 157.106 237.417 157.594 237.932 157.594Z" fill="#07BEB8"/>
<path fill-rule="evenodd" clip-rule="evenodd" d="M332.735 145.277C317.903 148.243 318.709 156.373 315.629 161.203C306.375 175.715 323.647 179.646 337.509 180.502C353.602 181.495 366.509 185.666 360.504 161.203C358.458 148.095 344.949 142.433 332.735 145.277Z" fill="#E2F7F2"/>
<path d="M337.446 144.365C339.053 144.486 340.466 144.118 341.633 142.892C342.619 141.856 343.195 140.702 343.192 139.33C343.19 139.187 343.169 139.044 343.128 138.906C343.036 138.719 341.912 139.247 341.682 139.33C338.888 140.341 336.948 140.896 337.446 144.365Z" fill="#C2F2EA"/>
<path d="M336.872 161.787L338.255 161.222C338.781 161.007 338.956 160.427 338.63 159.976L337.657 158.625C337.496 158.413 337.264 158.267 337.003 158.212C336.743 158.156 336.472 158.197 336.239 158.325L334.799 159.156C334.317 159.436 334.239 160.038 334.631 160.448L335.663 161.528C335.817 161.685 336.014 161.793 336.229 161.839C336.444 161.885 336.668 161.867 336.872 161.787Z" fill="#F9D2D2"/>
<path d="M332.783 157.21C333.138 157.212 333.489 157.128 333.805 156.966L333.805 156.966C333.845 156.946 333.88 156.918 333.909 156.883C333.938 156.849 333.96 156.81 333.974 156.767C333.988 156.724 333.993 156.679 333.989 156.635C333.985 156.59 333.973 156.546 333.952 156.507C333.932 156.467 333.904 156.431 333.869 156.402C333.835 156.373 333.796 156.351 333.753 156.338C333.71 156.324 333.665 156.319 333.621 156.323C333.576 156.326 333.533 156.339 333.493 156.359C333.173 156.522 332.807 156.57 332.456 156.495C332.105 156.42 331.79 156.227 331.564 155.948L331.564 155.948L331.562 155.945C331.504 155.879 331.423 155.837 331.336 155.829C331.248 155.821 331.161 155.847 331.093 155.902C331.024 155.957 330.979 156.036 330.968 156.123C330.956 156.21 330.978 156.298 331.03 156.369L331.03 156.369L331.033 156.373C331.356 156.776 331.809 157.054 332.314 157.161L332.314 157.161C332.469 157.193 332.626 157.21 332.783 157.21ZM332.783 157.21C332.783 157.21 332.783 157.21 332.783 157.21L332.783 157.102L332.783 157.21C332.783 157.21 332.783 157.21 332.783 157.21Z" fill="#07BEB8" stroke="#07BEB8" stroke-width="0.215213"/>
<path d="M341.96 159.099C342.315 159.101 342.666 159.017 342.982 158.855L342.982 158.855C343.022 158.834 343.057 158.806 343.086 158.772C343.115 158.738 343.137 158.698 343.151 158.656C343.164 158.613 343.17 158.568 343.166 158.523C343.162 158.479 343.15 158.435 343.129 158.395C343.109 158.355 343.08 158.32 343.046 158.291C343.012 158.262 342.972 158.24 342.93 158.226C342.887 158.213 342.842 158.208 342.797 158.211C342.753 158.215 342.71 158.227 342.67 158.248C342.35 158.411 341.984 158.459 341.633 158.384C341.281 158.309 340.967 158.116 340.741 157.837L340.741 157.837L340.739 157.834C340.681 157.767 340.6 157.726 340.513 157.718C340.425 157.71 340.338 157.736 340.27 157.791C340.201 157.846 340.156 157.925 340.144 158.012C340.133 158.099 340.155 158.187 340.207 158.258L340.207 158.258L340.21 158.262C340.533 158.664 340.985 158.942 341.49 159.05L341.49 159.05C341.645 159.082 341.802 159.099 341.96 159.099ZM341.96 159.099C341.96 159.099 341.96 159.099 341.96 159.099L341.96 158.991L341.96 159.099C341.96 159.099 341.96 159.099 341.96 159.099Z" fill="#07BEB8" stroke="#07BEB8" stroke-width="0.215213"/>
<path d="M353.009 152.844C353.009 152.844 354.731 152.521 355.484 152.521C356.237 152.521 354.516 153.598 353.224 154.512C351.933 155.427 355.484 154.512 355.484 154.512" stroke="#07BEB8" stroke-width="0.538033" stroke-linecap="round"/>
<path d="M354.866 149.655C354.866 149.655 356.205 149.719 356.766 149.853C357.327 149.986 355.854 150.482 354.73 150.935C353.607 151.387 356.413 151.335 356.413 151.335" stroke="#07BEB8" stroke-width="0.538033" stroke-linecap="round"/>
<path fill-rule="evenodd" clip-rule="evenodd" d="M133.724 218.591C149.311 224.155 149.464 236.753 150.604 240.766C155.384 257.59 141.271 264.326 129.888 262.308C116.542 259.942 105.757 259.614 108.66 237.38C112.287 223.155 122.8 215.371 133.724 218.591Z" fill="#E2F7F2"/>
<path d="M129.366 217.664C129.983 216.175 130.075 214.718 129.275 213.226C128.599 211.966 127.683 211.058 126.38 210.632C126.242 210.589 126.1 210.565 125.956 210.56C125.75 210.59 125.9 211.821 125.907 212.066C125.994 215.036 125.915 217.052 129.366 217.664Z" fill="#C2F2EA"/>
<path d="M131.446 237.429L132.829 236.865C133.355 236.65 133.529 236.069 133.204 235.618L132.23 234.268C132.069 234.056 131.837 233.909 131.577 233.854C131.317 233.799 131.045 233.839 130.812 233.967L129.372 234.798C128.89 235.079 128.812 235.681 129.205 236.091L130.237 237.17C130.391 237.327 130.588 237.435 130.803 237.481C131.018 237.527 131.241 237.509 131.446 237.429Z" fill="#F9D2D2"/>
<path d="M136.594 231.524C136.183 231.439 135.762 231.436 135.364 231.516L135.364 231.516C135.323 231.525 135.284 231.54 135.249 231.562C135.215 231.584 135.186 231.613 135.165 231.646C135.143 231.679 135.13 231.717 135.126 231.756C135.122 231.795 135.128 231.835 135.142 231.872C135.156 231.91 135.178 231.944 135.207 231.974C135.236 232.004 135.27 232.029 135.309 232.048C135.347 232.067 135.389 232.079 135.432 232.085C135.475 232.091 135.518 232.089 135.559 232.081C135.992 231.995 136.459 232.038 136.883 232.203C137.306 232.368 137.658 232.645 137.881 232.985L137.881 232.985L137.882 232.987C137.928 233.052 137.999 233.1 138.08 233.122C138.161 233.145 138.248 233.142 138.323 233.112C138.399 233.082 138.459 233.026 138.486 232.954C138.513 232.881 138.505 232.801 138.464 232.732L138.464 232.732L138.463 232.73C138.164 232.27 137.692 231.899 137.128 231.68L137.128 231.68C136.955 231.613 136.776 231.561 136.594 231.524ZM136.594 231.524C136.594 231.524 136.594 231.524 136.594 231.524L136.583 231.576L136.594 231.524C136.594 231.524 136.594 231.524 136.594 231.524Z" fill="#07BEB8" stroke="#07BEB8" stroke-width="0.107607"/>
<path d="M127.386 229.805C127.779 229.855 128.155 229.987 128.485 230.189L128.485 230.189C128.52 230.21 128.55 230.238 128.574 230.27C128.598 230.302 128.615 230.338 128.623 230.376C128.632 230.414 128.632 230.453 128.623 230.491C128.614 230.529 128.597 230.564 128.573 230.595C128.548 230.626 128.518 230.652 128.482 230.671C128.447 230.691 128.408 230.704 128.367 230.709C128.326 230.715 128.285 230.714 128.244 230.705C128.204 230.697 128.165 230.682 128.13 230.66C127.773 230.442 127.344 230.335 126.917 230.357C126.489 230.379 126.09 230.53 125.786 230.781L125.786 230.781L125.784 230.783C125.723 230.83 125.643 230.853 125.562 230.849C125.482 230.845 125.404 230.813 125.346 230.761C125.288 230.707 125.252 230.636 125.251 230.559C125.249 230.483 125.281 230.411 125.339 230.358L125.339 230.358L125.341 230.356C125.751 230.015 126.288 229.813 126.86 229.784L126.86 229.784C127.035 229.775 127.211 229.782 127.386 229.805ZM127.386 229.805C127.386 229.805 127.386 229.805 127.386 229.805L127.379 229.859L127.386 229.805C127.386 229.805 127.386 229.805 127.386 229.805Z" fill="#07BEB8" stroke="#07BEB8" stroke-width="0.107607"/>
<path opacity="0.3" d="M108.506 230.625C105.992 234.894 105.659 237.65 105.869 242.838" stroke="#07BEB8" stroke-width="0.269017"/>
<ellipse cx="149.468" cy="227.103" rx="0.781939" ry="0.988373" transform="rotate(-76.1288 149.468 227.103)" fill="#07BEB8"/>
<path d="M151.077 223.527L150.139 227.323" stroke="#07BEB8" stroke-width="0.538033" stroke-linecap="round"/>
<path d="M151.091 223.532C150.968 223.47 151.57 224.417 152.066 225.164C152.562 225.91 151.392 226.841 151.517 226.785" stroke="#07BEB8" stroke-width="0.538033" stroke-linecap="round"/>
<path fill-rule="evenodd" clip-rule="evenodd" d="M238.09 218.801C250.269 222.523 250.777 235.417 254.494 240.647C264.259 254.387 247.261 262.052 233.768 261.768C214.744 261.368 203.476 253.136 213.013 237.223C214.951 222.876 226.52 215.688 238.09 218.801Z" fill="#E2F7F2"/>
<path d="M231.953 217.663C232.86 216.331 233.248 214.923 232.768 213.299C232.363 211.928 231.651 210.852 230.461 210.17C230.336 210.1 230.201 210.047 230.061 210.014C229.853 210 229.75 211.237 229.707 211.478C229.187 214.403 228.699 216.361 231.953 217.663Z" fill="#C2F2EA"/>
<path d="M234.094 237.822L235.398 237.093C235.893 236.815 235.995 236.217 235.618 235.809L234.486 234.588C234.3 234.398 234.052 234.28 233.787 234.258C233.522 234.235 233.257 234.308 233.042 234.463L231.714 235.465C231.27 235.802 231.266 236.409 231.706 236.768L232.863 237.713C233.035 237.85 233.243 237.933 233.462 237.952C233.681 237.971 233.901 237.926 234.094 237.822Z" fill="#F9D2D2"/>
<path d="M229.078 230.043C229.423 230.128 229.783 230.129 230.129 230.046L230.129 230.046C230.173 230.035 230.214 230.016 230.25 229.99C230.286 229.963 230.317 229.93 230.34 229.892C230.363 229.853 230.379 229.811 230.386 229.766C230.393 229.722 230.391 229.677 230.38 229.633C230.369 229.59 230.35 229.549 230.324 229.513C230.297 229.476 230.264 229.446 230.226 229.422C230.188 229.399 230.145 229.384 230.101 229.377C230.057 229.37 230.012 229.372 229.968 229.382C229.619 229.466 229.252 229.426 228.928 229.271C228.604 229.116 228.344 228.854 228.19 228.53L228.19 228.53L228.188 228.526C228.148 228.449 228.079 228.389 227.996 228.361C227.912 228.333 227.822 228.338 227.742 228.375C227.663 228.412 227.6 228.478 227.569 228.56C227.537 228.642 227.538 228.733 227.572 228.814L227.572 228.814L227.574 228.818C227.793 229.286 228.168 229.662 228.634 229.885L228.634 229.885C228.776 229.953 228.925 230.006 229.078 230.043ZM229.078 230.043C229.078 230.043 229.078 230.043 229.078 230.043L229.104 229.938L229.079 230.043C229.079 230.043 229.078 230.043 229.078 230.043Z" fill="#07BEB8" stroke="#07BEB8" stroke-width="0.215213"/>
<path d="M238.098 230.196C237.743 230.198 237.393 230.115 237.077 229.953L237.076 229.953C237.037 229.932 237.001 229.904 236.972 229.87C236.943 229.836 236.921 229.796 236.908 229.753C236.894 229.711 236.889 229.666 236.893 229.621C236.896 229.576 236.909 229.533 236.929 229.493C236.95 229.453 236.978 229.418 237.012 229.389C237.046 229.36 237.086 229.338 237.129 229.324C237.171 229.31 237.216 229.305 237.261 229.309C237.305 229.313 237.349 229.325 237.389 229.346C237.708 229.508 238.075 229.556 238.426 229.482C238.777 229.407 239.092 229.214 239.317 228.934L239.317 228.934L239.32 228.931C239.377 228.865 239.458 228.824 239.546 228.816C239.633 228.808 239.72 228.834 239.789 228.888C239.857 228.943 239.902 229.022 239.914 229.109C239.926 229.196 239.903 229.284 239.852 229.355L239.852 229.355L239.849 229.359C239.525 229.762 239.073 230.04 238.568 230.147L238.568 230.147C238.414 230.18 238.256 230.196 238.098 230.196ZM238.098 230.196C238.099 230.196 238.099 230.196 238.099 230.196L238.098 230.089L238.098 230.196C238.098 230.196 238.098 230.196 238.098 230.196Z" fill="#07BEB8" stroke="#07BEB8" stroke-width="0.215213"/>
<path d="M228.893 233.594C229.408 233.594 229.826 233.106 229.826 232.505C229.826 231.904 229.408 231.416 228.893 231.416C228.378 231.416 227.96 231.904 227.96 232.505C227.96 233.106 228.378 233.594 228.893 233.594Z" fill="#07BEB8"/>
<path d="M237.932 233.594C238.447 233.594 238.865 233.106 238.865 232.505C238.865 231.904 238.447 231.416 237.932 231.416C237.417 231.416 236.999 231.904 236.999 232.505C236.999 233.106 237.417 233.594 237.932 233.594Z" fill="#07BEB8"/>
<path fill-rule="evenodd" clip-rule="evenodd" d="M332.735 221.277C317.903 224.243 318.709 232.373 315.629 237.203C306.375 251.715 323.647 255.646 337.509 256.502C353.602 257.495 366.509 261.666 360.504 237.203C358.458 224.095 344.949 218.433 332.735 221.277Z" fill="#E2F7F2"/>
<path d="M337.446 220.365C339.053 220.486 340.466 220.118 341.633 218.892C342.619 217.856 343.195 216.702 343.192 215.33C343.19 215.187 343.169 215.044 343.128 214.906C343.036 214.719 341.912 215.247 341.682 215.33C338.888 216.341 336.948 216.896 337.446 220.365Z" fill="#C2F2EA"/>
<path d="M336.872 237.787L338.255 237.222C338.781 237.007 338.956 236.427 338.63 235.976L337.657 234.625C337.496 234.413 337.264 234.267 337.003 234.212C336.743 234.156 336.472 234.197 336.239 234.325L334.799 235.156C334.317 235.436 334.239 236.038 334.631 236.448L335.663 237.528C335.817 237.685 336.014 237.793 336.229 237.839C336.444 237.885 336.668 237.867 336.872 237.787Z" fill="#F9D2D2"/>
<path d="M332.783 233.21C333.138 233.212 333.489 233.128 333.805 232.966L333.805 232.966C333.845 232.946 333.88 232.918 333.909 232.883C333.938 232.849 333.96 232.81 333.974 232.767C333.988 232.724 333.993 232.679 333.989 232.635C333.985 232.59 333.973 232.546 333.952 232.507C333.932 232.467 333.904 232.431 333.869 232.402C333.835 232.373 333.796 232.351 333.753 232.338C333.71 232.324 333.665 232.319 333.621 232.323C333.576 232.326 333.533 232.339 333.493 232.359C333.173 232.522 332.807 232.57 332.456 232.495C332.105 232.42 331.79 232.227 331.564 231.948L331.564 231.948L331.562 231.945C331.504 231.879 331.423 231.837 331.336 231.829C331.248 231.821 331.161 231.847 331.093 231.902C331.024 231.957 330.979 232.036 330.968 232.123C330.956 232.21 330.978 232.298 331.03 232.369L331.03 232.369L331.033 232.373C331.356 232.776 331.809 233.054 332.314 233.161L332.314 233.161C332.469 233.193 332.626 233.21 332.783 233.21ZM332.783 233.21C332.783 233.21 332.783 233.21 332.783 233.21L332.783 233.102L332.783 233.21C332.783 233.21 332.783 233.21 332.783 233.21Z" fill="#07BEB8" stroke="#07BEB8" stroke-width="0.215213"/>
<path d="M341.96 235.099C342.315 235.101 342.666 235.017 342.982 234.855L342.982 234.855C343.022 234.834 343.057 234.806 343.086 234.772C343.115 234.738 343.137 234.698 343.151 234.656C343.164 234.613 343.17 234.568 343.166 234.523C343.162 234.479 343.15 234.435 343.129 234.395C343.109 234.355 343.08 234.32 343.046 234.291C343.012 234.262 342.972 234.24 342.93 234.226C342.887 234.213 342.842 234.208 342.797 234.211C342.753 234.215 342.71 234.227 342.67 234.248C342.35 234.411 341.984 234.459 341.633 234.384C341.281 234.309 340.967 234.116 340.741 233.837L340.741 233.837L340.739 233.834C340.681 233.767 340.6 233.726 340.513 233.718C340.425 233.71 340.338 233.736 340.27 233.791C340.201 233.846 340.156 233.925 340.144 234.012C340.133 234.099 340.155 234.187 340.207 234.258L340.207 234.258L340.21 234.262C340.533 234.664 340.985 234.942 341.49 235.05L341.49 235.05C341.645 235.082 341.802 235.099 341.96 235.099ZM341.96 235.099C341.96 235.099 341.96 235.099 341.96 235.099L341.96 234.991L341.96 235.099C341.96 235.099 341.96 235.099 341.96 235.099Z" fill="#07BEB8" stroke="#07BEB8" stroke-width="0.215213"/>
<path d="M353.009 228.844C353.009 228.844 354.731 228.521 355.484 228.521C356.237 228.521 354.516 229.598 353.224 230.512C351.933 231.427 355.484 230.512 355.484 230.512" stroke="#07BEB8" stroke-width="0.538033" stroke-linecap="round"/>
<path d="M354.866 225.655C354.866 225.655 356.205 225.719 356.766 225.853C357.327 225.986 355.854 226.482 354.73 226.935C353.607 227.387 356.413 227.335 356.413 227.335" stroke="#07BEB8" stroke-width="0.538033" stroke-linecap="round"/>
<rect x="90" y="295" width="135" height="55" rx="20" fill="#F9F7F2"/>
<path d="M148.103 314.791C148.426 314.791 148.732 314.944 148.732 315.301V316.525H151.911C152.2 316.525 152.336 316.763 152.336 317.052C152.336 317.358 152.2 317.596 151.911 317.596H148.732V318.004C148.732 318.956 149.004 319.432 149.854 319.925C150.755 320.435 151.316 320.741 152.081 321.115C152.387 321.268 152.404 321.591 152.251 321.846C152.115 322.101 151.86 322.203 151.537 322.05C150.925 321.744 150.279 321.404 149.497 320.979C148.511 320.418 148.222 320.044 148.137 319.687H148.12C148.035 320.044 147.712 320.469 146.709 321.013C145.893 321.472 145.23 321.812 144.499 322.186C144.176 322.339 143.904 322.203 143.768 321.948C143.615 321.693 143.632 321.37 143.938 321.217C144.788 320.809 145.468 320.452 146.352 319.959C147.202 319.449 147.474 318.973 147.474 318.021V317.596H144.227C143.938 317.596 143.802 317.358 143.802 317.052C143.802 316.763 143.938 316.525 144.227 316.525H147.474V315.301C147.474 314.944 147.797 314.791 148.103 314.791ZM154.954 314.842C155.26 314.842 155.566 314.995 155.566 315.352V328.884C155.566 329.241 155.26 329.394 154.954 329.394C154.631 329.394 154.342 329.241 154.342 328.884V315.352C154.342 314.995 154.631 314.842 154.954 314.842ZM152.761 323.206C153.033 323.189 153.203 323.376 153.237 323.665C153.254 323.971 153.118 324.226 152.863 324.243C151.418 324.379 150.007 324.464 148.579 324.515V328.714C148.579 329.071 148.29 329.224 147.967 329.224C147.661 329.224 147.355 329.071 147.355 328.714V324.566C146.046 324.6 144.703 324.617 143.309 324.617C143.003 324.617 142.867 324.379 142.867 324.09C142.867 323.801 143.003 323.563 143.309 323.563C146.42 323.563 149.327 323.512 152.761 323.206ZM165.208 315.488C165.531 315.488 165.837 315.658 165.837 316.015V317.069C165.837 318.684 166.177 319.398 167.554 320.299C168.557 320.945 169.696 321.625 170.954 322.322C171.192 322.458 171.209 322.815 171.056 323.07C170.903 323.342 170.597 323.461 170.342 323.325C169.288 322.747 168.064 322.033 167.095 321.404C165.837 320.588 165.361 320.01 165.225 319.551H165.208C165.072 320.027 164.596 320.605 163.338 321.421C162.352 322.05 161.145 322.764 160.091 323.342C159.819 323.478 159.53 323.359 159.36 323.087C159.207 322.832 159.224 322.458 159.462 322.322C160.72 321.625 161.859 320.945 162.862 320.299C164.239 319.398 164.579 318.684 164.579 317.069V316.015C164.579 315.658 164.885 315.488 165.208 315.488ZM165.208 323.24C165.531 323.24 165.837 323.393 165.837 323.75V326.742H171.855C172.161 326.742 172.297 326.98 172.297 327.286C172.297 327.575 172.161 327.813 171.855 327.813H158.561C158.255 327.813 158.119 327.575 158.119 327.286C158.119 326.98 158.255 326.742 158.561 326.742H164.596V323.75C164.596 323.393 164.902 323.24 165.208 323.24Z" fill="#07BEB8"/>
<rect x="240" y="295" width="135" height="55" rx="20" fill="#F2FDF6"/>
<path d="M297.576 318.174C299.786 318.174 301.027 319.007 301.027 320.333C301.027 321.54 300.007 322.339 298.188 322.492V323.886C299.429 323.852 300.721 323.767 302.064 323.648C302.319 323.614 302.506 323.801 302.523 324.09C302.54 324.379 302.421 324.617 302.166 324.651C299.157 324.906 296.216 324.974 293.054 324.974C292.765 324.974 292.629 324.753 292.629 324.464C292.629 324.192 292.765 323.954 293.054 323.954C294.346 323.954 295.638 323.954 296.981 323.92V322.492C295.145 322.339 294.125 321.54 294.125 320.333C294.125 319.007 295.366 318.174 297.576 318.174ZM304.206 314.842C304.529 314.842 304.818 314.995 304.818 315.352V319.585H306.756C307.062 319.585 307.198 319.84 307.198 320.129C307.198 320.435 307.062 320.69 306.756 320.69H304.818V324.923C304.818 325.28 304.529 325.433 304.206 325.433C303.883 325.433 303.594 325.28 303.594 324.923V315.352C303.594 314.995 303.883 314.842 304.206 314.842ZM303.645 326.283C304.529 326.283 304.818 326.555 304.818 327.422V330.04C304.818 330.397 304.512 330.55 304.206 330.55C303.9 330.55 303.594 330.397 303.594 330.04V327.626C303.594 327.388 303.509 327.303 303.271 327.303H295.179C294.907 327.303 294.771 327.065 294.771 326.793C294.771 326.521 294.907 326.283 295.179 326.283H303.645ZM297.576 314.553C297.899 314.553 298.205 314.706 298.205 315.046V316.168H301.588C301.877 316.168 302.013 316.406 302.013 316.678C302.013 316.967 301.877 317.188 301.588 317.188H293.428C293.156 317.188 293.02 316.967 293.02 316.678C293.02 316.406 293.156 316.168 293.428 316.168H296.947V315.046C296.947 314.706 297.253 314.553 297.576 314.553ZM297.576 319.109C296.012 319.109 295.264 319.619 295.264 320.333C295.264 321.064 296.012 321.557 297.576 321.557C299.14 321.557 299.888 321.064 299.888 320.333C299.888 319.619 299.14 319.109 297.576 319.109ZM312.641 315.624C315.242 315.624 316.483 317.324 316.483 319.483C316.483 321.625 315.242 323.325 312.641 323.325C310.04 323.325 308.799 321.625 308.799 319.483C308.799 317.324 310.04 315.624 312.641 315.624ZM312.641 316.695C310.754 316.695 310.006 317.987 310.006 319.483C310.006 320.962 310.754 322.254 312.641 322.254C314.528 322.254 315.276 320.962 315.276 319.483C315.276 317.987 314.528 316.695 312.641 316.695ZM320.121 314.842C320.427 314.842 320.733 314.995 320.733 315.352V325.722C320.733 326.079 320.427 326.232 320.121 326.232C319.798 326.232 319.492 326.079 319.492 325.722V315.352C319.492 314.995 319.798 314.842 320.121 314.842ZM311.723 324.906C312.046 324.906 312.352 325.059 312.352 325.416V328.748C312.352 328.969 312.437 329.054 312.675 329.054H320.733C321.039 329.054 321.175 329.309 321.175 329.598C321.175 329.887 321.039 330.142 320.733 330.142H312.267C311.383 330.142 311.094 329.87 311.094 329.003V325.416C311.094 325.059 311.4 324.906 311.723 324.906Z" fill="#07BEB8"/>
</g>
<defs>
<filter id="filter0_d_1850_23974" x="0" y="0" width="465" height="416" filterUnits="userSpaceOnUse" color-interpolation-filters="sRGB">
<feFlood flood-opacity="0" result="BackgroundImageFix"/>
<feColorMatrix in="SourceAlpha" type="matrix" values="0 0 0 0 0 0 0 0 0 0 0 0 0 0 0 0 0 0 127 0" result="hardAlpha"/>
<feOffset dy="4"/>
<feGaussianBlur stdDeviation="10"/>
<feComposite in2="hardAlpha" operator="out"/>
<feColorMatrix type="matrix" values="0 0 0 0 0 0 0 0 0 0 0 0 0 0 0 0 0 0 0.08 0"/>
<feBlend mode="normal" in2="BackgroundImageFix" result="effect1_dropShadow_1850_23974"/>
<feBlend mode="normal" in="SourceGraphic" in2="effect1_dropShadow_1850_23974" result="shape"/>
</filter>
</defs>
</svg>
