<svg viewBox="0 0 365 182" fill="none" xmlns="http://www.w3.org/2000/svg">
<g filter="url(#filter0_d_2249_24611)">
<rect x="20" y="16" width="325" height="142" rx="28" fill="#FFFDFA"/>
<path d="M89.159 57.945C92.024 57.945 93.644 59.31 93.644 61.5C93.644 63.555 92.234 64.875 89.714 65.04V67.89H95.024C95.294 67.89 95.414 68.1 95.414 68.37C95.414 68.625 95.294 68.835 95.024 68.835H83.294C83.024 68.835 82.904 68.625 82.904 68.37C82.904 68.1 83.024 67.89 83.294 67.89H88.619V65.04C86.084 64.875 84.674 63.555 84.674 61.5C84.674 59.31 86.294 57.945 89.159 57.945ZM89.159 58.875C86.864 58.875 85.769 60 85.769 61.5C85.769 63 86.864 64.125 89.159 64.125C91.454 64.125 92.549 63 92.549 61.5C92.549 60 91.454 58.875 89.159 58.875ZM106.186 58.2C106.966 58.2 107.221 58.44 107.221 59.205V61.155C107.221 61.92 106.966 62.16 106.186 62.16H99.7513C99.5413 62.16 99.4663 62.235 99.4663 62.445V64.02C99.4663 64.215 99.5413 64.29 99.7513 64.29H107.206C107.461 64.29 107.581 64.5 107.581 64.755C107.581 65.01 107.461 65.235 107.206 65.235H103.366V67.89H108.676C108.946 67.89 109.066 68.1 109.066 68.37C109.066 68.625 108.946 68.835 108.676 68.835H96.9463C96.6763 68.835 96.5563 68.625 96.5563 68.37C96.5563 68.1 96.6763 67.89 96.9463 67.89H102.271V65.235H99.4213C98.6413 65.235 98.3863 64.995 98.3863 64.23V62.265C98.3863 61.5 98.6413 61.26 99.4213 61.26H105.871C106.066 61.26 106.156 61.185 106.156 60.975V59.415C106.156 59.205 106.066 59.13 105.871 59.13H98.7313C98.4763 59.13 98.3563 58.92 98.3563 58.665C98.3563 58.41 98.4763 58.2 98.7313 58.2H106.186ZM117.979 58.455C118.234 58.455 118.354 58.665 118.354 58.935C118.354 59.19 118.234 59.415 117.979 59.415H115.189V61.14C115.189 62.475 115.459 63.15 116.404 64.125C117.079 64.8 117.769 65.46 118.309 65.925C118.534 66.12 118.474 66.435 118.309 66.615C118.114 66.795 117.844 66.87 117.619 66.66C117.124 66.24 116.539 65.67 115.864 64.995C114.919 64.05 114.724 63.66 114.649 63.33H114.634C114.559 63.675 114.349 64.065 113.419 65.01C112.744 65.685 112.144 66.255 111.454 66.855C111.214 67.065 110.929 66.975 110.764 66.795C110.584 66.585 110.539 66.285 110.764 66.105C111.514 65.445 112.189 64.8 112.864 64.125C113.809 63.15 114.079 62.475 114.079 61.14V59.415H111.229C110.974 59.415 110.854 59.19 110.854 58.935C110.854 58.665 110.974 58.455 111.229 58.455H117.979ZM120.784 57.39C121.069 57.39 121.339 57.525 121.339 57.84V69.78C121.339 70.095 121.069 70.23 120.784 70.23C120.514 70.23 120.244 70.095 120.244 69.78V57.84C120.244 57.525 120.514 57.39 120.784 57.39ZM128.826 58.305C129.111 58.305 129.381 58.44 129.381 58.755V65.475C129.381 65.685 129.456 65.76 129.666 65.76C131.826 65.76 133.611 65.64 135.396 65.4C135.636 65.37 135.801 65.535 135.846 65.805C135.876 66.075 135.771 66.33 135.531 66.36C133.971 66.57 132.111 66.705 129.306 66.705C128.526 66.705 128.271 66.465 128.271 65.7V58.755C128.271 58.44 128.541 58.305 128.826 58.305ZM137.541 57.39C137.826 57.39 138.096 57.525 138.096 57.84V62.025H140.001C140.271 62.025 140.391 62.25 140.391 62.505C140.391 62.775 140.271 63 140.001 63H138.096V69.78C138.096 70.095 137.826 70.23 137.541 70.23C137.271 70.23 137.001 70.095 137.001 69.78V57.84C137.001 57.525 137.271 57.39 137.541 57.39ZM150.893 58.2C151.673 58.2 151.928 58.44 151.928 59.205V61.155C151.928 61.92 151.673 62.16 150.893 62.16H144.458C144.248 62.16 144.173 62.235 144.173 62.445V64.02C144.173 64.215 144.248 64.29 144.458 64.29H151.913C152.168 64.29 152.288 64.5 152.288 64.755C152.288 65.01 152.168 65.235 151.913 65.235H148.073V67.89H153.383C153.653 67.89 153.773 68.1 153.773 68.37C153.773 68.625 153.653 68.835 153.383 68.835H141.653C141.383 68.835 141.263 68.625 141.263 68.37C141.263 68.1 141.383 67.89 141.653 67.89H146.978V65.235H144.128C143.348 65.235 143.093 64.995 143.093 64.23V62.265C143.093 61.5 143.348 61.26 144.128 61.26H150.578C150.773 61.26 150.863 61.185 150.863 60.975V59.415C150.863 59.205 150.773 59.13 150.578 59.13H143.438C143.183 59.13 143.063 58.92 143.063 58.665C143.063 58.41 143.183 58.2 143.438 58.2H150.893ZM162.656 58.08C164.951 58.08 166.046 59.58 166.046 61.485C166.046 63.375 164.951 64.875 162.656 64.875C160.361 64.875 159.266 63.375 159.266 61.485C159.266 59.58 160.361 58.08 162.656 58.08ZM162.656 59.025C160.991 59.025 160.331 60.165 160.331 61.485C160.331 62.79 160.991 63.93 162.656 63.93C164.321 63.93 164.981 62.79 164.981 61.485C164.981 60.165 164.321 59.025 162.656 59.025ZM169.256 57.39C169.526 57.39 169.796 57.525 169.796 57.84V66.99C169.796 67.305 169.526 67.44 169.256 67.44C168.971 67.44 168.701 67.305 168.701 66.99V57.84C168.701 57.525 168.971 57.39 169.256 57.39ZM161.846 66.27C162.131 66.27 162.401 66.405 162.401 66.72V69.66C162.401 69.855 162.476 69.93 162.686 69.93H169.796C170.066 69.93 170.186 70.155 170.186 70.41C170.186 70.665 170.066 70.89 169.796 70.89H162.326C161.546 70.89 161.291 70.65 161.291 69.885V66.72C161.291 66.405 161.561 66.27 161.846 66.27ZM175.723 61.515C177.568 61.515 178.483 62.76 178.483 64.35C178.483 65.94 177.568 67.185 175.723 67.185C173.878 67.185 172.978 65.94 172.978 64.35C172.978 62.76 173.878 61.515 175.723 61.515ZM175.723 57.48C175.993 57.48 176.263 57.615 176.263 57.93V59.445H178.723C178.993 59.445 179.113 59.655 179.113 59.91C179.113 60.18 178.993 60.39 178.723 60.39H172.543C172.288 60.39 172.168 60.18 172.168 59.91C172.168 59.655 172.288 59.445 172.543 59.445H175.183V57.93C175.183 57.615 175.453 57.48 175.723 57.48ZM175.723 62.445C174.508 62.445 173.953 63.285 173.953 64.35C173.953 65.43 174.508 66.27 175.723 66.27C176.953 66.27 177.508 65.43 177.508 64.35C177.508 63.285 176.953 62.445 175.723 62.445ZM183.358 57.39C183.628 57.39 183.883 57.525 183.883 57.825V69.795C183.883 70.095 183.628 70.23 183.358 70.23C183.103 70.23 182.848 70.095 182.848 69.795V63.195H180.883V69.165C180.883 69.465 180.628 69.6 180.358 69.6C180.103 69.6 179.848 69.465 179.848 69.165V57.975C179.848 57.675 180.103 57.54 180.358 57.54C180.628 57.54 180.883 57.675 180.883 57.975V62.25H182.848V57.825C182.848 57.525 183.103 57.39 183.358 57.39ZM195.585 58.44C196.365 58.44 196.62 58.68 196.62 59.445V61.14C196.62 63.645 195.855 64.395 191.205 67.26C190.98 67.395 190.695 67.305 190.545 67.08C190.395 66.855 190.395 66.525 190.635 66.375C195 63.72 195.54 63.165 195.54 61.095V59.67C195.54 59.475 195.465 59.4 195.255 59.4H190.98C190.71 59.4 190.59 59.175 190.59 58.92C190.59 58.665 190.71 58.44 190.98 58.44H195.585ZM200.295 57.39C200.58 57.39 200.85 57.525 200.85 57.84V69.78C200.85 70.095 200.58 70.23 200.295 70.23C200.025 70.23 199.755 70.095 199.755 69.78V57.84C199.755 57.525 200.025 57.39 200.295 57.39ZM214.443 57.39C214.698 57.39 214.953 57.525 214.953 57.84V64.68C214.953 64.98 214.698 65.115 214.443 65.115C214.158 65.115 213.918 64.98 213.918 64.68V61.605H211.863V63.3C211.863 64.065 211.638 64.29 210.843 64.29H209.328C208.533 64.29 208.308 64.065 208.308 63.3V58.485C208.308 58.215 208.548 58.095 208.788 58.095C209.028 58.095 209.268 58.215 209.268 58.485V60.42H210.903V58.485C210.903 58.215 211.143 58.095 211.383 58.095C211.623 58.095 211.863 58.215 211.863 58.485V60.66H213.918V57.84C213.918 57.525 214.158 57.39 214.443 57.39ZM207.873 65.565C208.143 65.565 208.398 65.7 208.398 66.015V66.825C208.398 67.815 208.563 68.175 209.253 68.955C209.508 69.24 209.808 69.57 210.078 69.81C210.243 69.975 210.363 69.975 210.543 69.81C210.798 69.57 211.113 69.24 211.368 68.955C212.043 68.175 212.208 67.815 212.208 66.825V66.015C212.208 65.7 212.478 65.565 212.748 65.565C213.018 65.565 213.288 65.7 213.288 66.015V66.825C213.288 67.83 213.468 68.22 214.278 68.955C214.653 69.315 215.208 69.75 215.748 70.155C215.943 70.305 215.943 70.575 215.778 70.8C215.598 71.01 215.343 71.07 215.103 70.89C214.593 70.5 214.143 70.125 213.798 69.825C213.108 69.225 212.838 68.895 212.748 68.595H212.733C212.643 68.91 212.418 69.18 211.743 69.9C211.488 70.17 211.233 70.425 210.978 70.665C210.468 71.13 210.153 71.13 209.628 70.665C209.373 70.425 209.133 70.17 208.863 69.9C208.188 69.18 207.978 68.91 207.888 68.595H207.873C207.783 68.91 207.513 69.24 206.808 69.84C206.478 70.125 206.013 70.515 205.503 70.905C205.278 71.07 205.008 71.025 204.843 70.8C204.663 70.59 204.678 70.305 204.858 70.155C205.413 69.75 205.953 69.315 206.343 68.955C207.153 68.22 207.333 67.83 207.333 66.825V66.015C207.333 65.7 207.603 65.565 207.873 65.565ZM204.318 58.095C204.558 58.095 204.798 58.215 204.798 58.485V60.42H206.448V58.485C206.448 58.215 206.673 58.095 206.913 58.095C207.153 58.095 207.408 58.215 207.408 58.485V63.3C207.408 64.065 207.168 64.29 206.373 64.29H204.858C204.078 64.29 203.838 64.065 203.838 63.3V58.485C203.838 58.215 204.078 58.095 204.318 58.095ZM204.798 63.135C204.798 63.33 204.873 63.39 205.068 63.39H206.178C206.373 63.39 206.448 63.33 206.448 63.135V61.32H204.798V63.135ZM209.268 63.135C209.268 63.33 209.343 63.39 209.523 63.39H210.648C210.828 63.39 210.903 63.33 210.903 63.135V61.32H209.268V63.135ZM223.76 58.275C224.03 58.275 224.15 58.485 224.15 58.74C224.15 59.01 224.03 59.22 223.76 59.22H219.245C219.035 59.22 218.96 59.295 218.96 59.49V63.84C218.96 64.05 219.035 64.125 219.245 64.125C221.45 64.125 223.235 64.005 225.02 63.765C225.26 63.735 225.425 63.9 225.47 64.17C225.5 64.44 225.395 64.695 225.155 64.725C223.595 64.935 221.735 65.07 218.9 65.07C218.12 65.07 217.865 64.83 217.865 64.065V59.28C217.865 58.515 218.12 58.275 218.9 58.275H223.76ZM227.705 57.39C227.975 57.39 228.245 57.525 228.245 57.84V66.99C228.245 67.305 227.975 67.44 227.705 67.44C227.42 67.44 227.165 67.305 227.165 66.99V61.95H223.745C223.475 61.95 223.355 61.74 223.355 61.47C223.355 61.215 223.475 61.005 223.745 61.005H227.165V57.84C227.165 57.525 227.42 57.39 227.705 57.39ZM220.235 66.36C220.52 66.36 220.79 66.495 220.79 66.81V69.66C220.79 69.855 220.865 69.93 221.075 69.93H228.245C228.515 69.93 228.635 70.155 228.635 70.41C228.635 70.665 228.515 70.89 228.245 70.89H220.715C219.935 70.89 219.68 70.65 219.68 69.885V66.81C219.68 66.495 219.95 66.36 220.235 66.36ZM240.682 57.645C240.967 57.645 241.237 57.795 241.237 58.11V58.905C241.237 59.865 241.732 60.465 242.812 60.975C243.862 61.47 244.747 61.86 245.632 62.235C245.902 62.355 245.917 62.67 245.842 62.88C245.737 63.12 245.512 63.27 245.197 63.135C244.327 62.775 243.427 62.37 242.512 61.935C241.267 61.335 240.802 60.84 240.697 60.465H240.682C240.577 60.87 240.112 61.35 238.867 61.95C237.952 62.385 237.052 62.79 236.152 63.165C235.852 63.285 235.627 63.12 235.522 62.88C235.432 62.67 235.462 62.355 235.732 62.235C236.617 61.86 237.502 61.47 238.552 60.975C239.632 60.465 240.127 59.865 240.127 58.905V58.11C240.127 57.795 240.397 57.645 240.682 57.645ZM246.562 64.455C246.817 64.455 246.937 64.665 246.937 64.92C246.937 65.175 246.817 65.385 246.562 65.385H241.372V67.8C241.372 68.1 241.132 68.22 240.832 68.22C240.547 68.22 240.292 68.1 240.292 67.8V65.385H234.802C234.547 65.385 234.427 65.175 234.427 64.92C234.427 64.665 234.547 64.455 234.802 64.455H246.562ZM236.767 66.84C237.052 66.84 237.307 66.975 237.307 67.29V69.735C237.307 69.945 237.397 70.02 237.592 70.02H245.032C245.287 70.02 245.407 70.23 245.407 70.485C245.407 70.74 245.287 70.95 245.032 70.95H237.247C236.467 70.95 236.212 70.71 236.212 69.945V67.29C236.212 66.975 236.467 66.84 236.767 66.84ZM253.615 58.305C254.395 58.305 254.65 58.545 254.65 59.31V60.525C254.65 62.655 253.84 63.24 249.22 65.565C248.995 65.685 248.695 65.58 248.575 65.325C248.455 65.1 248.455 64.77 248.725 64.65C253.06 62.52 253.57 62.085 253.57 60.465V59.535C253.57 59.34 253.495 59.265 253.285 59.265H249.04C248.77 59.265 248.65 59.04 248.65 58.785C248.65 58.53 248.77 58.305 249.04 58.305H253.615ZM258.01 57.39C258.295 57.39 258.565 57.525 258.565 57.84V61.32H260.47C260.74 61.32 260.86 61.545 260.86 61.815C260.86 62.07 260.74 62.295 260.47 62.295H258.565V66.99C258.565 67.305 258.295 67.44 258.01 67.44C257.74 67.44 257.47 67.305 257.47 66.99V57.84C257.47 57.525 257.74 57.39 258.01 57.39ZM250.765 66.27C251.05 66.27 251.32 66.405 251.32 66.72V69.66C251.32 69.855 251.395 69.93 251.605 69.93H258.565C258.835 69.93 258.955 70.155 258.955 70.41C258.955 70.665 258.835 70.89 258.565 70.89H251.245C250.465 70.89 250.21 70.65 250.21 69.885V66.72C250.21 66.405 250.48 66.27 250.765 66.27ZM267.987 57.735C270.822 57.735 272.427 58.635 272.427 60.405C272.427 62.175 270.822 63.075 267.987 63.075C265.152 63.075 263.547 62.175 263.547 60.405C263.547 58.635 265.152 57.735 267.987 57.735ZM267.987 58.65C265.707 58.65 264.642 59.31 264.642 60.405C264.642 61.5 265.707 62.16 267.987 62.16C270.267 62.16 271.332 61.5 271.332 60.405C271.332 59.31 270.267 58.65 267.987 58.65ZM273.852 64.605C274.122 64.605 274.242 64.815 274.242 65.085C274.242 65.34 274.122 65.55 273.852 65.55H262.122C261.852 65.55 261.732 65.34 261.732 65.085C261.732 64.815 261.852 64.605 262.122 64.605H273.852ZM264.072 66.84C264.357 66.84 264.612 66.975 264.612 67.29V69.735C264.612 69.945 264.702 70.02 264.897 70.02H272.337C272.592 70.02 272.712 70.23 272.712 70.485C272.712 70.74 272.592 70.95 272.337 70.95H264.552C263.772 70.95 263.517 70.71 263.517 69.945V67.29C263.517 66.975 263.772 66.84 264.072 66.84ZM278.639 58.11C280.619 58.11 281.834 59.175 281.834 60.81V60.975C281.834 61.98 281.309 62.67 280.274 63.6C279.044 64.71 278.909 65.115 278.909 65.865C278.909 66.135 278.654 66.285 278.399 66.285C278.114 66.285 277.859 66.15 277.859 65.85C277.859 64.83 278.039 64.29 279.299 63.165C280.394 62.19 280.739 61.695 280.739 60.975V60.855C280.739 59.805 279.974 59.1 278.654 59.1C277.649 59.1 276.974 59.475 276.404 60C276.179 60.18 275.909 60.15 275.729 59.925C275.534 59.715 275.534 59.43 275.759 59.235C276.389 58.635 277.424 58.11 278.639 58.11ZM278.384 67.725C278.864 67.725 279.224 68.1 279.224 68.565C279.224 69.03 278.864 69.39 278.384 69.39C277.919 69.39 277.544 69.03 277.544 68.565C277.544 68.1 277.919 67.725 278.384 67.725Z" fill="#07BEB8"/>
<path d="M73.6084 105.018C73.8744 105.018 74.1264 105.144 74.1264 105.438V111.71C74.1264 111.906 74.1964 111.976 74.3924 111.976C76.4084 111.976 78.0744 111.864 79.7404 111.64C79.9644 111.612 80.1184 111.766 80.1604 112.018C80.1884 112.27 80.0904 112.508 79.8664 112.536C78.4104 112.732 76.6744 112.858 74.0564 112.858C73.3284 112.858 73.0904 112.634 73.0904 111.92V105.438C73.0904 105.144 73.3424 105.018 73.6084 105.018ZM81.7424 104.164C82.0084 104.164 82.2604 104.29 82.2604 104.584V108.49H84.0384C84.2904 108.49 84.4024 108.7 84.4024 108.938C84.4024 109.19 84.2904 109.4 84.0384 109.4H82.2604V115.728C82.2604 116.022 82.0084 116.148 81.7424 116.148C81.4904 116.148 81.2384 116.022 81.2384 115.728V104.584C81.2384 104.29 81.4904 104.164 81.7424 104.164ZM94.2046 104.92C94.9326 104.92 95.1706 105.144 95.1706 105.858V107.678C95.1706 108.392 94.9326 108.616 94.2046 108.616H88.1986C88.0026 108.616 87.9326 108.686 87.9326 108.882V110.352C87.9326 110.534 88.0026 110.604 88.1986 110.604H95.1566C95.3946 110.604 95.5066 110.8 95.5066 111.038C95.5066 111.276 95.3946 111.486 95.1566 111.486H91.5726V113.964H96.5286C96.7806 113.964 96.8926 114.16 96.8926 114.412C96.8926 114.65 96.7806 114.846 96.5286 114.846H85.5806C85.3286 114.846 85.2166 114.65 85.2166 114.412C85.2166 114.16 85.3286 113.964 85.5806 113.964H90.5506V111.486H87.8906C87.1626 111.486 86.9246 111.262 86.9246 110.548V108.714C86.9246 108 87.1626 107.776 87.8906 107.776H93.9106C94.0926 107.776 94.1766 107.706 94.1766 107.51V106.054C94.1766 105.858 94.0926 105.788 93.9106 105.788H87.2466C87.0086 105.788 86.8966 105.592 86.8966 105.354C86.8966 105.116 87.0086 104.92 87.2466 104.92H94.2046ZM107.297 104.486C109.943 104.486 111.441 105.326 111.441 106.978C111.441 108.518 110.125 109.358 107.801 109.456V111.08H112.785C113.023 111.08 113.135 111.276 113.135 111.514C113.135 111.752 113.023 111.948 112.785 111.948H101.809C101.571 111.948 101.459 111.752 101.459 111.514C101.459 111.276 101.571 111.08 101.809 111.08H106.793V109.456C104.455 109.358 103.153 108.518 103.153 106.978C103.153 105.326 104.651 104.486 107.297 104.486ZM107.297 105.34C105.169 105.34 104.175 105.956 104.175 106.978C104.175 108 105.169 108.616 107.297 108.616C109.425 108.616 110.419 108 110.419 106.978C110.419 105.956 109.425 105.34 107.297 105.34ZM103.643 112.984C103.909 112.984 104.147 113.11 104.147 113.404V115.686C104.147 115.882 104.231 115.952 104.413 115.952H111.357C111.595 115.952 111.707 116.148 111.707 116.386C111.707 116.624 111.595 116.82 111.357 116.82H104.091C103.363 116.82 103.125 116.596 103.125 115.882V113.404C103.125 113.11 103.363 112.984 103.643 112.984ZM121.257 105.032C121.495 105.032 121.607 105.228 121.607 105.48C121.607 105.718 121.495 105.928 121.257 105.928H118.723V107.02C118.723 108.014 119.045 108.672 119.773 109.302C120.403 109.82 121.061 110.324 121.509 110.674C121.733 110.842 121.747 111.094 121.593 111.318C121.453 111.514 121.187 111.584 120.949 111.416C120.515 111.08 119.983 110.674 119.339 110.156C118.597 109.554 118.289 109.106 118.219 108.784H118.205C118.135 109.12 117.813 109.582 117.071 110.184C116.441 110.716 115.811 111.192 115.237 111.612C114.999 111.78 114.747 111.682 114.607 111.5C114.453 111.304 114.439 111.024 114.677 110.842C115.293 110.394 116.007 109.848 116.637 109.316C117.365 108.7 117.687 108.028 117.687 107.034V105.928H115.069C114.831 105.928 114.719 105.718 114.719 105.48C114.719 105.228 114.831 105.032 115.069 105.032H121.257ZM124.169 104.164C124.421 104.164 124.673 104.29 124.673 104.584V113.124C124.673 113.418 124.421 113.544 124.169 113.544C123.903 113.544 123.665 113.418 123.665 113.124V108.588H121.271C121.033 108.588 120.921 108.392 120.921 108.14C120.921 107.902 121.033 107.692 121.271 107.692H123.665V104.584C123.665 104.29 123.903 104.164 124.169 104.164ZM117.197 112.452C117.463 112.452 117.715 112.578 117.715 112.872V115.616C117.715 115.798 117.785 115.868 117.981 115.868H124.673C124.925 115.868 125.037 116.078 125.037 116.316C125.037 116.554 124.925 116.764 124.673 116.764H117.645C116.917 116.764 116.679 116.54 116.679 115.826V112.872C116.679 112.578 116.931 112.452 117.197 112.452ZM131.059 108C132.907 108 133.999 109.134 133.999 110.702C133.999 112.27 132.907 113.404 131.059 113.404C129.211 113.404 128.119 112.27 128.119 110.702C128.119 109.134 129.211 108 131.059 108ZM131.059 104.164C131.325 104.164 131.577 104.29 131.577 104.584V105.998H134.405C134.643 105.998 134.755 106.194 134.755 106.432C134.755 106.684 134.643 106.88 134.405 106.88H127.573C127.321 106.88 127.209 106.684 127.209 106.432C127.209 106.194 127.321 105.998 127.573 105.998H130.541V104.584C130.541 104.29 130.807 104.164 131.059 104.164ZM131.059 108.854C129.813 108.854 129.071 109.61 129.071 110.702C129.071 111.794 129.813 112.55 131.059 112.55C132.305 112.55 133.047 111.794 133.047 110.702C133.047 109.61 132.305 108.854 131.059 108.854ZM136.813 104.164C137.079 104.164 137.331 104.29 137.331 104.584V115.728C137.331 116.022 137.079 116.148 136.813 116.148C136.561 116.148 136.309 116.022 136.309 115.728V104.584C136.309 104.29 136.561 104.164 136.813 104.164ZM146.433 104.248C146.699 104.248 146.937 104.374 146.937 104.654V106.012H149.009C149.261 106.012 149.373 106.208 149.373 106.446C149.373 106.698 149.261 106.894 149.009 106.894H146.937V108.154C146.937 109.302 147.189 109.89 147.889 110.674C148.421 111.262 148.939 111.794 149.289 112.13C149.457 112.284 149.429 112.578 149.247 112.746C149.079 112.928 148.827 112.942 148.645 112.774C148.253 112.396 147.819 111.948 147.427 111.528C146.797 110.856 146.517 110.408 146.461 110.03H146.447C146.377 110.422 146.083 110.884 145.453 111.556C145.061 111.976 144.557 112.494 143.997 113.04C143.829 113.194 143.549 113.18 143.381 113.012C143.199 112.816 143.171 112.55 143.325 112.382C143.913 111.822 144.459 111.262 144.977 110.674C145.691 109.89 145.929 109.302 145.929 108.154V106.894H143.675C143.423 106.894 143.311 106.698 143.311 106.446C143.311 106.208 143.423 106.012 143.675 106.012H145.929V104.654C145.929 104.374 146.181 104.248 146.433 104.248ZM153.489 104.164C153.741 104.164 153.979 104.29 153.979 104.57V115.742C153.979 116.022 153.741 116.148 153.489 116.148C153.251 116.148 153.013 116.022 153.013 115.742V109.442H151.151V115.154C151.151 115.434 150.913 115.56 150.661 115.56C150.423 115.56 150.185 115.434 150.185 115.154V104.71C150.185 104.43 150.423 104.304 150.661 104.304C150.913 104.304 151.151 104.43 151.151 104.71V108.56H153.013V104.57C153.013 104.29 153.251 104.164 153.489 104.164ZM160.268 104.584C162.438 104.584 163.516 105.676 163.516 107.118C163.516 108.574 162.438 109.666 160.268 109.666C158.098 109.666 157.02 108.574 157.02 107.118C157.02 105.676 158.098 104.584 160.268 104.584ZM160.268 105.438C158.728 105.438 158.014 106.18 158.014 107.118C158.014 108.07 158.728 108.798 160.268 108.798C161.808 108.798 162.522 108.07 162.522 107.118C162.522 106.18 161.808 105.438 160.268 105.438ZM166.064 104.164C166.316 104.164 166.568 104.29 166.568 104.584V115.728C166.568 116.022 166.316 116.148 166.064 116.148C165.798 116.148 165.56 116.022 165.56 115.728V113.754H162.984C162.76 113.754 162.648 113.558 162.648 113.32C162.648 113.082 162.76 112.886 162.984 112.886H165.56V104.584C165.56 104.29 165.798 104.164 166.064 104.164ZM164.258 110.604C164.482 110.59 164.622 110.744 164.65 110.982C164.664 111.234 164.552 111.444 164.342 111.458C163.11 111.57 161.92 111.64 160.702 111.696V115.588C160.702 115.882 160.45 116.008 160.198 116.008C159.946 116.008 159.694 115.882 159.694 115.588V111.724C158.644 111.752 157.594 111.766 156.474 111.766C156.222 111.766 156.11 111.57 156.11 111.332C156.11 111.094 156.222 110.898 156.474 110.898C159.036 110.898 161.43 110.856 164.258 110.604ZM175.894 105.032C176.132 105.032 176.244 105.228 176.244 105.48C176.244 105.718 176.132 105.928 175.894 105.928H173.318V106.922C173.318 107.916 173.654 108.588 174.382 109.204C175.012 109.736 175.698 110.268 176.146 110.59C176.384 110.758 176.384 111.024 176.23 111.234C176.09 111.43 175.824 111.5 175.586 111.332C175.152 111.024 174.592 110.59 173.948 110.058C173.206 109.456 172.884 109.008 172.814 108.7H172.8C172.73 109.022 172.394 109.484 171.652 110.086C171.022 110.618 170.364 111.122 169.79 111.528C169.552 111.696 169.3 111.612 169.16 111.43C169.006 111.22 168.978 110.94 169.23 110.772C169.846 110.324 170.588 109.75 171.218 109.218C171.946 108.602 172.282 107.93 172.282 106.936V105.928H169.622C169.384 105.928 169.272 105.718 169.272 105.48C169.272 105.228 169.384 105.032 169.622 105.032H175.894ZM178.554 104.164C178.806 104.164 179.058 104.29 179.058 104.584V113.124C179.058 113.418 178.806 113.544 178.554 113.544C178.288 113.544 178.036 113.418 178.036 113.124V104.584C178.036 104.29 178.288 104.164 178.554 104.164ZM171.638 112.452C171.904 112.452 172.156 112.578 172.156 112.872V115.616C172.156 115.798 172.226 115.868 172.422 115.868H179.058C179.31 115.868 179.422 116.078 179.422 116.316C179.422 116.554 179.31 116.764 179.058 116.764H172.086C171.358 116.764 171.12 116.54 171.12 115.826V112.872C171.12 112.578 171.372 112.452 171.638 112.452ZM188.972 106.978C190.792 106.978 191.814 107.706 191.814 108.84C191.814 109.862 190.974 110.562 189.476 110.688V111.962C190.498 111.92 191.562 111.85 192.668 111.752C192.878 111.738 193.032 111.878 193.046 112.13C193.06 112.354 192.962 112.564 192.738 112.592C190.274 112.802 187.852 112.858 185.248 112.858C185.01 112.858 184.898 112.662 184.898 112.438C184.898 112.214 185.01 112.018 185.248 112.018C186.312 112.018 187.376 112.018 188.482 111.99V110.688C186.97 110.562 186.13 109.876 186.13 108.84C186.13 107.706 187.152 106.978 188.972 106.978ZM194.432 104.164C194.698 104.164 194.936 104.29 194.936 104.584V108.434H196.532C196.784 108.434 196.896 108.644 196.896 108.882C196.896 109.134 196.784 109.344 196.532 109.344H194.936V113.572C194.936 113.866 194.698 113.992 194.432 113.992C194.166 113.992 193.928 113.866 193.928 113.572V104.584C193.928 104.29 194.166 104.164 194.432 104.164ZM187.362 113.656C187.614 113.656 187.866 113.782 187.866 114.076V115.686C187.866 115.882 187.936 115.938 188.132 115.938H194.964C195.188 115.938 195.3 116.134 195.3 116.372C195.3 116.596 195.188 116.792 194.964 116.792H187.81C187.082 116.792 186.844 116.568 186.844 115.854V114.076C186.844 113.782 187.096 113.656 187.362 113.656ZM188.972 103.982C189.238 103.982 189.49 104.108 189.49 104.388V105.312H192.276C192.514 105.312 192.626 105.508 192.626 105.746C192.626 105.984 192.514 106.166 192.276 106.166H185.57C185.332 106.166 185.22 105.984 185.22 105.746C185.22 105.508 185.332 105.312 185.57 105.312H188.454V104.388C188.454 104.108 188.706 103.982 188.972 103.982ZM188.972 107.762C187.684 107.762 187.068 108.21 187.068 108.84C187.068 109.47 187.684 109.918 188.972 109.918C190.26 109.918 190.876 109.47 190.876 108.84C190.876 108.21 190.26 107.762 188.972 107.762ZM202.022 107.524C203.898 107.524 204.99 108.406 204.99 109.68C204.99 110.968 203.898 111.836 202.022 111.836C200.132 111.836 199.04 110.968 199.04 109.68C199.04 108.406 200.132 107.524 202.022 107.524ZM202.022 104.262C202.288 104.262 202.526 104.388 202.526 104.682V105.718H205.438C205.676 105.718 205.788 105.914 205.788 106.152C205.788 106.404 205.676 106.6 205.438 106.6H198.494C198.256 106.6 198.144 106.404 198.144 106.152C198.144 105.914 198.256 105.718 198.494 105.718H201.504V104.682C201.504 104.388 201.756 104.262 202.022 104.262ZM202.022 108.35C200.678 108.35 199.978 108.924 199.978 109.68C199.978 110.45 200.678 111.024 202.022 111.024C203.366 111.024 204.052 110.45 204.052 109.68C204.052 108.924 203.366 108.35 202.022 108.35ZM207.79 104.164C208.042 104.164 208.294 104.29 208.294 104.584V115.728C208.294 116.022 208.042 116.148 207.79 116.148C207.524 116.148 207.286 116.022 207.286 115.728V104.584C207.286 104.29 207.524 104.164 207.79 104.164ZM205.998 112.956C206.222 112.928 206.362 113.096 206.376 113.334C206.404 113.586 206.292 113.796 206.082 113.81C203.478 114.034 201 114.118 198.2 114.118C197.948 114.118 197.836 113.922 197.836 113.684C197.836 113.446 197.948 113.236 198.2 113.236C200.776 113.236 203.17 113.208 205.998 112.956ZM219.356 104.43C220.084 104.43 220.322 104.654 220.322 105.368V106.25C220.322 106.964 220.084 107.188 219.356 107.188H213.35C213.196 107.188 213.126 107.258 213.126 107.412V108.154C213.126 108.308 213.196 108.364 213.35 108.364H220.322C220.546 108.364 220.658 108.56 220.658 108.77C220.658 108.994 220.546 109.176 220.322 109.176H213.098C212.37 109.176 212.132 108.952 212.132 108.238V107.342C212.132 106.628 212.37 106.404 213.098 106.404H219.104C219.272 106.404 219.342 106.348 219.342 106.194V105.452C219.342 105.298 219.272 105.242 219.104 105.242H212.44C212.216 105.242 212.104 105.046 212.104 104.822C212.104 104.612 212.216 104.43 212.44 104.43H219.356ZM221.736 110.282C221.96 110.282 222.072 110.478 222.072 110.702C222.072 110.94 221.96 111.122 221.736 111.122H210.732C210.508 111.122 210.396 110.94 210.396 110.702C210.396 110.478 210.508 110.282 210.732 110.282H221.736ZM219.426 112.228C220.154 112.228 220.392 112.452 220.392 113.166V114.062C220.392 114.776 220.154 115 219.426 115H213.28C213.112 115 213.042 115.056 213.042 115.224V115.952C213.042 116.12 213.112 116.176 213.28 116.176H220.406C220.63 116.176 220.728 116.372 220.728 116.582C220.728 116.792 220.63 116.988 220.406 116.988H213.028C212.3 116.988 212.062 116.778 212.062 116.064V115.154C212.062 114.44 212.3 114.216 213.028 114.216H219.188C219.342 114.216 219.412 114.16 219.412 113.992V113.264C219.412 113.11 219.342 113.04 219.188 113.04H212.37C212.146 113.04 212.034 112.858 212.034 112.634C212.034 112.424 212.146 112.228 212.37 112.228H219.426ZM230.026 105.158C230.278 105.158 230.39 105.354 230.39 105.592C230.39 105.844 230.278 106.04 230.026 106.04H228.514C228.318 106.04 228.248 106.11 228.248 106.292V111.78C228.248 111.962 228.318 112.032 228.514 112.032C229.116 112.032 229.788 111.99 230.334 111.892C230.544 111.85 230.698 112.004 230.726 112.242C230.768 112.494 230.67 112.718 230.446 112.76C229.746 112.872 228.962 112.914 228.22 112.914C227.492 112.914 227.254 112.69 227.254 111.976V106.096C227.254 105.382 227.492 105.158 228.22 105.158H230.026ZM234.016 105.158C234.268 105.158 234.38 105.354 234.38 105.592C234.38 105.844 234.268 106.04 234.016 106.04H232.448C232.252 106.04 232.182 106.11 232.182 106.292V111.78C232.182 111.962 232.252 112.032 232.448 112.032C233.12 112.032 233.96 111.99 234.52 111.878C234.73 111.836 234.884 111.99 234.912 112.228C234.954 112.48 234.856 112.704 234.632 112.746C233.904 112.872 232.966 112.914 232.154 112.914C231.426 112.914 231.188 112.69 231.188 111.976V106.096C231.188 105.382 231.426 105.158 232.154 105.158H234.016ZM236.774 104.164C237.04 104.164 237.278 104.29 237.278 104.584V115.728C237.278 116.022 237.04 116.148 236.774 116.148C236.522 116.148 236.284 116.022 236.284 115.728V109.344H234.478C234.226 109.344 234.114 109.148 234.114 108.896C234.114 108.644 234.226 108.448 234.478 108.448H236.284V104.584C236.284 104.29 236.522 104.164 236.774 104.164ZM245.219 104.318C247.865 104.318 249.363 105.018 249.363 106.502C249.363 107.874 248.047 108.574 245.723 108.658V109.946H250.721C250.945 109.946 251.057 110.142 251.057 110.38C251.057 110.604 250.945 110.8 250.721 110.8H239.717C239.493 110.8 239.381 110.604 239.381 110.38C239.381 110.142 239.493 109.946 239.717 109.946H244.715V108.658C242.377 108.574 241.075 107.874 241.075 106.502C241.075 105.018 242.573 104.318 245.219 104.318ZM248.411 111.948C249.139 111.948 249.377 112.172 249.377 112.886V113.922C249.377 114.636 249.139 114.86 248.411 114.86H242.265C242.111 114.86 242.041 114.916 242.041 115.084V115.952C242.041 116.106 242.111 116.162 242.265 116.162H249.391C249.615 116.162 249.713 116.358 249.713 116.568C249.713 116.792 249.615 116.988 249.391 116.988H242.013C241.285 116.988 241.047 116.764 241.047 116.05V115C241.047 114.286 241.285 114.062 242.013 114.062H248.159C248.327 114.062 248.397 114.006 248.397 113.852V112.984C248.397 112.83 248.327 112.76 248.159 112.76H241.355C241.131 112.76 241.019 112.578 241.019 112.354C241.019 112.144 241.131 111.948 241.355 111.948H248.411ZM245.219 105.158C243.091 105.158 242.097 105.62 242.097 106.502C242.097 107.37 243.091 107.846 245.219 107.846C247.347 107.846 248.341 107.37 248.341 106.502C248.341 105.62 247.347 105.158 245.219 105.158ZM257.261 105.06C257.989 105.06 258.227 105.284 258.227 105.998V108.588C258.227 109.302 257.989 109.526 257.261 109.526H254.181C253.985 109.526 253.915 109.596 253.915 109.778V112.088C253.915 112.27 253.985 112.34 254.181 112.34C256.029 112.34 257.835 112.284 259.375 112.116C259.585 112.088 259.753 112.242 259.781 112.48C259.809 112.76 259.697 112.984 259.473 112.998C258.129 113.152 256.309 113.222 253.873 113.222C253.145 113.222 252.907 112.998 252.907 112.284V109.61C252.907 108.896 253.145 108.672 253.873 108.672H256.953C257.135 108.672 257.219 108.602 257.219 108.406V106.194C257.219 106.012 257.135 105.942 256.953 105.942H253.257C253.019 105.942 252.907 105.746 252.907 105.494C252.907 105.256 253.019 105.06 253.257 105.06H257.261ZM262.091 104.164C262.343 104.164 262.595 104.29 262.595 104.584V115.728C262.595 116.022 262.343 116.148 262.091 116.148C261.839 116.148 261.587 116.022 261.587 115.728V110.702H259.515C259.263 110.702 259.151 110.492 259.151 110.254C259.151 110.016 259.263 109.82 259.515 109.82H261.587V107.776H259.515C259.263 107.776 259.151 107.566 259.151 107.328C259.151 107.09 259.263 106.894 259.515 106.894H261.587V104.584C261.587 104.29 261.839 104.164 262.091 104.164ZM272.593 112.816C272.803 112.788 272.957 112.956 272.971 113.194C272.985 113.446 272.887 113.656 272.663 113.67C270.199 113.88 267.791 113.95 265.215 113.95C264.963 113.95 264.851 113.754 264.851 113.516C264.851 113.278 264.963 113.068 265.215 113.068C266.237 113.068 267.259 113.068 268.309 113.054V110.59H266.657C265.929 110.59 265.691 110.366 265.691 109.652V105.354C265.691 105.074 265.943 104.948 266.181 104.948C266.447 104.948 266.699 105.074 266.699 105.354V106.978H270.913V105.354C270.913 105.074 271.165 104.948 271.403 104.948C271.669 104.948 271.921 105.074 271.921 105.354V109.652C271.921 110.366 271.683 110.59 270.955 110.59H269.317V113.012C270.367 112.984 271.445 112.928 272.593 112.816ZM274.385 104.164C274.651 104.164 274.889 104.29 274.889 104.584V108.91H276.485C276.737 108.91 276.849 109.12 276.849 109.358C276.849 109.61 276.737 109.82 276.485 109.82H274.889V115.728C274.889 116.022 274.651 116.148 274.385 116.148C274.119 116.148 273.881 116.022 273.881 115.728V104.584C273.881 104.29 274.119 104.164 274.385 104.164ZM266.699 109.484C266.699 109.652 266.769 109.722 266.937 109.722H270.661C270.843 109.722 270.913 109.652 270.913 109.484V107.832H266.699V109.484ZM283.445 104.682C286.119 104.682 287.631 105.914 287.631 107.93C287.631 109.946 286.119 111.178 283.445 111.178C280.771 111.178 279.259 109.946 279.259 107.93C279.259 105.914 280.771 104.682 283.445 104.682ZM283.445 105.55C281.303 105.55 280.281 106.558 280.281 107.93C280.281 109.288 281.303 110.296 283.445 110.296C285.587 110.296 286.609 109.288 286.609 107.93C286.609 106.558 285.587 105.55 283.445 105.55ZM281.219 111.5C281.499 111.5 281.737 111.626 281.737 111.92V113.978H285.153V111.92C285.153 111.626 285.391 111.5 285.657 111.5C285.923 111.5 286.175 111.626 286.175 111.92V113.978H288.933C289.171 113.978 289.283 114.174 289.283 114.412C289.283 114.65 289.171 114.846 288.933 114.846H277.957C277.719 114.846 277.607 114.65 277.607 114.412C277.607 114.174 277.719 113.978 277.957 113.978H280.715V111.92C280.715 111.626 280.967 111.5 281.219 111.5ZM291.427 113.782C291.889 113.782 292.225 114.132 292.225 114.58C292.225 115.014 291.889 115.364 291.427 115.364C290.979 115.364 290.629 115.014 290.629 114.58C290.629 114.132 290.979 113.782 291.427 113.782Z" fill="#808983"/>
</g>
<defs>
<filter id="filter0_d_2249_24611" x="0" y="0" width="365" height="182" filterUnits="userSpaceOnUse" color-interpolation-filters="sRGB">
<feFlood flood-opacity="0" result="BackgroundImageFix"/>
<feColorMatrix in="SourceAlpha" type="matrix" values="0 0 0 0 0 0 0 0 0 0 0 0 0 0 0 0 0 0 127 0" result="hardAlpha"/>
<feOffset dy="4"/>
<feGaussianBlur stdDeviation="10"/>
<feComposite in2="hardAlpha" operator="out"/>
<feColorMatrix type="matrix" values="0 0 0 0 0 0 0 0 0 0 0 0 0 0 0 0 0 0 0.08 0"/>
<feBlend mode="normal" in2="BackgroundImageFix" result="effect1_dropShadow_2249_24611"/>
<feBlend mode="normal" in="SourceGraphic" in2="effect1_dropShadow_2249_24611" result="shape"/>
</filter>
</defs>
</svg>
