<svg viewBox="0 0 325 142" fill="none" xmlns="http://www.w3.org/2000/svg">
<rect width="325" height="142" rx="28" fill="#FFFDFA"/>
<path d="M65.844 42.395C66.129 42.395 66.399 42.53 66.399 42.845V49.385C66.399 49.595 66.474 49.67 66.684 49.67C67.974 49.67 69.699 49.565 70.839 49.385C71.064 49.355 71.229 49.52 71.274 49.79C71.304 50.06 71.199 50.315 70.959 50.345C70.059 50.495 68.274 50.615 66.324 50.615C65.544 50.615 65.289 50.375 65.289 49.61V42.845C65.289 42.53 65.559 42.395 65.844 42.395ZM75.819 41.39C76.089 41.39 76.344 41.525 76.344 41.825V53.795C76.344 54.095 76.089 54.23 75.819 54.23C75.564 54.23 75.309 54.095 75.309 53.795V47.045H73.224V53.165C73.224 53.465 72.969 53.6 72.699 53.6C72.444 53.6 72.189 53.465 72.189 53.165V41.975C72.189 41.675 72.444 41.54 72.699 41.54C72.969 41.54 73.224 41.675 73.224 41.975V46.1H75.309V41.825C75.309 41.525 75.564 41.39 75.819 41.39ZM83.9663 42.455C84.7463 42.455 85.0013 42.695 85.0013 43.46V45.125C85.0013 47.63 84.2513 48.38 79.6163 51.245C79.3913 51.38 79.1063 51.29 78.9563 51.065C78.8063 50.84 78.8063 50.51 79.0463 50.36C83.3963 47.705 83.9213 47.15 83.9213 45.08V43.685C83.9213 43.49 83.8463 43.415 83.6363 43.415H79.3913C79.1213 43.415 79.0013 43.19 79.0013 42.935C79.0013 42.68 79.1213 42.455 79.3913 42.455H83.9663ZM88.3613 41.39C88.6463 41.39 88.9163 41.525 88.9163 41.84V46.025H90.8213C91.0913 46.025 91.2113 46.25 91.2113 46.505C91.2113 46.775 91.0913 47 90.8213 47H88.9163V53.78C88.9163 54.095 88.6463 54.23 88.3613 54.23C88.0913 54.23 87.8213 54.095 87.8213 53.78V41.84C87.8213 41.525 88.0913 41.39 88.3613 41.39ZM102.089 41.795C104.939 41.795 106.559 42.86 106.559 44.78C106.559 46.7 104.939 47.765 102.089 47.765C99.2387 47.765 97.6187 46.7 97.6187 44.78C97.6187 42.86 99.2387 41.795 102.089 41.795ZM102.089 42.74C99.8087 42.74 98.7137 43.535 98.7137 44.78C98.7137 46.025 99.8087 46.82 102.089 46.82C104.369 46.82 105.464 46.025 105.464 44.78C105.464 43.535 104.369 42.74 102.089 42.74ZM107.969 49.37C108.224 49.37 108.344 49.58 108.344 49.835C108.344 50.09 108.224 50.3 107.969 50.3H104.804V54.755C104.804 55.07 104.549 55.205 104.279 55.205C104.009 55.205 103.754 55.07 103.754 54.755V50.3H100.424V54.755C100.424 55.07 100.169 55.205 99.8987 55.205C99.6287 55.205 99.3737 55.07 99.3737 54.755V50.3H96.2087C95.9537 50.3 95.8337 50.09 95.8337 49.835C95.8337 49.58 95.9537 49.37 96.2087 49.37H107.969ZM111.856 41.705C112.141 41.705 112.396 41.84 112.396 42.155V45.125C112.396 45.335 112.486 45.395 112.681 45.395H120.061C120.316 45.395 120.436 45.62 120.436 45.86C120.436 46.115 120.316 46.34 120.061 46.34H112.336C111.556 46.34 111.301 46.1 111.301 45.335V42.155C111.301 41.84 111.556 41.705 111.856 41.705ZM121.621 47.945C121.876 47.945 121.996 48.155 121.996 48.425C121.996 48.68 121.876 48.89 121.621 48.89H109.861C109.606 48.89 109.486 48.68 109.486 48.425C109.486 48.155 109.606 47.945 109.861 47.945H121.621ZM115.741 50.345C118.591 50.345 120.211 51.155 120.211 52.835C120.211 54.515 118.591 55.325 115.741 55.325C112.891 55.325 111.271 54.515 111.271 52.835C111.271 51.155 112.891 50.345 115.741 50.345ZM115.741 51.23C113.446 51.23 112.366 51.8 112.366 52.835C112.366 53.87 113.446 54.44 115.741 54.44C118.036 54.44 119.116 53.87 119.116 52.835C119.116 51.8 118.036 51.23 115.741 51.23ZM127.233 45.5C129.198 45.5 130.368 46.715 130.368 48.395C130.368 50.075 129.198 51.29 127.233 51.29C125.268 51.29 124.098 50.075 124.098 48.395C124.098 46.715 125.268 45.5 127.233 45.5ZM127.233 41.39C127.518 41.39 127.788 41.525 127.788 41.84V43.355H130.803C131.058 43.355 131.178 43.565 131.178 43.82C131.178 44.09 131.058 44.3 130.803 44.3H123.513C123.243 44.3 123.123 44.09 123.123 43.82C123.123 43.565 123.243 43.355 123.513 43.355H126.678V41.84C126.678 41.525 126.963 41.39 127.233 41.39ZM127.233 46.415C125.913 46.415 125.118 47.225 125.118 48.395C125.118 49.565 125.913 50.375 127.233 50.375C128.553 50.375 129.348 49.565 129.348 48.395C129.348 47.225 128.553 46.415 127.233 46.415ZM133.083 41.39C133.353 41.39 133.623 41.525 133.623 41.84V46.175H135.528C135.798 46.175 135.918 46.4 135.918 46.655C135.918 46.925 135.798 47.15 135.528 47.15H133.623V53.78C133.623 54.095 133.353 54.23 133.083 54.23C132.798 54.23 132.543 54.095 132.543 53.78V41.84C132.543 41.525 132.798 41.39 133.083 41.39ZM143.436 42.425C143.706 42.425 143.826 42.635 143.826 42.89C143.826 43.16 143.706 43.37 143.436 43.37H138.801C138.591 43.37 138.516 43.445 138.516 43.655V49.535C138.516 49.745 138.591 49.82 138.801 49.82C141.006 49.82 142.791 49.7 144.576 49.46C144.816 49.43 144.981 49.595 145.026 49.865C145.056 50.135 144.951 50.39 144.711 50.42C143.151 50.63 141.291 50.765 138.456 50.765C137.676 50.765 137.421 50.525 137.421 49.76V43.43C137.421 42.665 137.676 42.425 138.456 42.425H143.436ZM146.721 41.39C147.006 41.39 147.276 41.525 147.276 41.84V46.025H149.181C149.451 46.025 149.571 46.25 149.571 46.505C149.571 46.775 149.451 47 149.181 47H147.276V53.78C147.276 54.095 147.006 54.23 146.721 54.23C146.451 54.23 146.181 54.095 146.181 53.78V41.84C146.181 41.525 146.451 41.39 146.721 41.39ZM160.133 42.38C160.913 42.38 161.168 42.62 161.168 43.385V44.765C161.168 46.595 160.973 48.005 160.643 49.505C160.583 49.775 160.313 49.895 159.998 49.85C159.713 49.79 159.518 49.595 159.578 49.34C159.893 47.81 160.088 46.445 160.088 44.72V43.625C160.088 43.415 159.998 43.34 159.803 43.34H152.423C152.168 43.34 152.048 43.13 152.048 42.86C152.048 42.59 152.168 42.38 152.423 42.38H160.133ZM155.783 46.715C156.068 46.715 156.323 46.85 156.323 47.165V51.89H162.563C162.833 51.89 162.953 52.1 162.953 52.37C162.953 52.625 162.833 52.835 162.563 52.835H150.833C150.563 52.835 150.443 52.625 150.443 52.37C150.443 52.1 150.563 51.89 150.833 51.89H155.243V47.165C155.243 46.85 155.498 46.715 155.783 46.715ZM170.185 42.23C170.47 42.23 170.74 42.365 170.74 42.68V47.345C170.74 47.54 170.815 47.615 171.025 47.615H178.435C178.705 47.615 178.825 47.825 178.825 48.095C178.825 48.35 178.705 48.575 178.435 48.575H170.665C169.885 48.575 169.63 48.335 169.63 47.57V42.68C169.63 42.365 169.885 42.23 170.185 42.23ZM179.965 51.875C180.235 51.875 180.355 52.1 180.355 52.37C180.355 52.625 180.235 52.835 179.965 52.835H168.235C167.965 52.835 167.845 52.625 167.845 52.37C167.845 52.1 167.965 51.875 168.235 51.875H179.965ZM192.358 41.39C192.643 41.39 192.898 41.525 192.898 41.84V48.77C192.898 49.07 192.643 49.205 192.358 49.205C192.088 49.205 191.833 49.07 191.833 48.77V47.21H189.823C189.553 47.21 189.448 47 189.448 46.745C189.448 46.49 189.553 46.265 189.823 46.265H191.833V44.585H189.118C189.088 46.46 188.698 46.865 186.493 48.77C186.283 48.965 185.968 48.905 185.803 48.695C185.623 48.47 185.608 48.23 185.833 48.02C187.903 46.22 188.053 45.98 188.053 44.345V43.415C188.053 43.205 187.978 43.13 187.768 43.13H186.343C186.073 43.13 185.953 42.92 185.953 42.665C185.953 42.395 186.073 42.185 186.343 42.185H188.083C188.863 42.185 189.118 42.425 189.118 43.19V43.655H191.833V41.84C191.833 41.525 192.088 41.39 192.358 41.39ZM185.998 49.655C186.268 49.655 186.523 49.79 186.523 50.105V50.825C186.523 51.815 186.688 52.175 187.378 52.955C187.633 53.24 187.933 53.57 188.203 53.81C188.368 53.975 188.488 53.975 188.668 53.81C188.923 53.57 189.238 53.24 189.493 52.955C190.168 52.175 190.333 51.815 190.333 50.825V50.105C190.333 49.79 190.603 49.655 190.873 49.655C191.143 49.655 191.413 49.79 191.413 50.105V50.825C191.413 51.83 191.593 52.22 192.403 52.955C192.778 53.315 193.333 53.75 193.873 54.155C194.068 54.305 194.068 54.575 193.903 54.8C193.723 55.01 193.468 55.07 193.228 54.89C192.718 54.5 192.268 54.125 191.923 53.825C191.233 53.225 190.963 52.895 190.873 52.595H190.858C190.768 52.91 190.543 53.18 189.868 53.9C189.613 54.17 189.358 54.425 189.103 54.665C188.593 55.13 188.278 55.13 187.753 54.665C187.498 54.425 187.258 54.17 186.988 53.9C186.313 53.18 186.103 52.91 186.013 52.595H185.998C185.908 52.91 185.638 53.24 184.933 53.84C184.603 54.125 184.138 54.515 183.628 54.905C183.403 55.07 183.133 55.025 182.968 54.8C182.788 54.59 182.803 54.305 182.983 54.155C183.538 53.75 184.078 53.315 184.468 52.955C185.278 52.22 185.458 51.83 185.458 50.825V50.105C185.458 49.79 185.728 49.655 185.998 49.655ZM184.348 42.185C185.143 42.185 185.383 42.395 185.383 43.19V44.18C185.383 45.98 184.963 46.355 182.563 48.215C182.338 48.395 182.053 48.335 181.888 48.11C181.723 47.9 181.708 47.615 181.948 47.435C184.138 45.71 184.318 45.545 184.318 44.12V43.415C184.318 43.205 184.243 43.13 184.033 43.13H182.413C182.143 43.13 182.023 42.92 182.023 42.665C182.023 42.395 182.143 42.185 182.413 42.185H184.348ZM201.885 42.275C202.155 42.275 202.275 42.485 202.275 42.74C202.275 43.01 202.155 43.22 201.885 43.22H197.37C197.16 43.22 197.085 43.295 197.085 43.49V47.84C197.085 48.05 197.16 48.125 197.37 48.125C199.575 48.125 201.36 48.005 203.145 47.765C203.385 47.735 203.55 47.9 203.595 48.17C203.625 48.44 203.52 48.695 203.28 48.725C201.72 48.935 199.86 49.07 197.025 49.07C196.245 49.07 195.99 48.83 195.99 48.065V43.28C195.99 42.515 196.245 42.275 197.025 42.275H201.885ZM205.83 41.39C206.1 41.39 206.37 41.525 206.37 41.84V50.99C206.37 51.305 206.1 51.44 205.83 51.44C205.545 51.44 205.29 51.305 205.29 50.99V45.95H201.87C201.6 45.95 201.48 45.74 201.48 45.47C201.48 45.215 201.6 45.005 201.87 45.005H205.29V41.84C205.29 41.525 205.545 41.39 205.83 41.39ZM198.36 50.36C198.645 50.36 198.915 50.495 198.915 50.81V53.66C198.915 53.855 198.99 53.93 199.2 53.93H206.37C206.64 53.93 206.76 54.155 206.76 54.41C206.76 54.665 206.64 54.89 206.37 54.89H198.84C198.06 54.89 197.805 54.65 197.805 53.885V50.81C197.805 50.495 198.075 50.36 198.36 50.36ZM218.807 41.645C219.092 41.645 219.362 41.795 219.362 42.11V42.905C219.362 43.865 219.857 44.465 220.937 44.975C221.987 45.47 222.872 45.86 223.757 46.235C224.027 46.355 224.042 46.67 223.967 46.88C223.862 47.12 223.637 47.27 223.322 47.135C222.452 46.775 221.552 46.37 220.637 45.935C219.392 45.335 218.927 44.84 218.822 44.465H218.807C218.702 44.87 218.237 45.35 216.992 45.95C216.077 46.385 215.177 46.79 214.277 47.165C213.977 47.285 213.752 47.12 213.647 46.88C213.557 46.67 213.587 46.355 213.857 46.235C214.742 45.86 215.627 45.47 216.677 44.975C217.757 44.465 218.252 43.865 218.252 42.905V42.11C218.252 41.795 218.522 41.645 218.807 41.645ZM224.687 48.455C224.942 48.455 225.062 48.665 225.062 48.92C225.062 49.175 224.942 49.385 224.687 49.385H219.497V51.8C219.497 52.1 219.257 52.22 218.957 52.22C218.672 52.22 218.417 52.1 218.417 51.8V49.385H212.927C212.672 49.385 212.552 49.175 212.552 48.92C212.552 48.665 212.672 48.455 212.927 48.455H224.687ZM214.892 50.84C215.177 50.84 215.432 50.975 215.432 51.29V53.735C215.432 53.945 215.522 54.02 215.717 54.02H223.157C223.412 54.02 223.532 54.23 223.532 54.485C223.532 54.74 223.412 54.95 223.157 54.95H215.372C214.592 54.95 214.337 54.71 214.337 53.945V51.29C214.337 50.975 214.592 50.84 214.892 50.84ZM231.74 42.305C232.52 42.305 232.775 42.545 232.775 43.31V44.525C232.775 46.655 231.965 47.24 227.345 49.565C227.12 49.685 226.82 49.58 226.7 49.325C226.58 49.1 226.58 48.77 226.85 48.65C231.185 46.52 231.695 46.085 231.695 44.465V43.535C231.695 43.34 231.62 43.265 231.41 43.265H227.165C226.895 43.265 226.775 43.04 226.775 42.785C226.775 42.53 226.895 42.305 227.165 42.305H231.74ZM236.135 41.39C236.42 41.39 236.69 41.525 236.69 41.84V45.32H238.595C238.865 45.32 238.985 45.545 238.985 45.815C238.985 46.07 238.865 46.295 238.595 46.295H236.69V50.99C236.69 51.305 236.42 51.44 236.135 51.44C235.865 51.44 235.595 51.305 235.595 50.99V41.84C235.595 41.525 235.865 41.39 236.135 41.39ZM228.89 50.27C229.175 50.27 229.445 50.405 229.445 50.72V53.66C229.445 53.855 229.52 53.93 229.73 53.93H236.69C236.96 53.93 237.08 54.155 237.08 54.41C237.08 54.665 236.96 54.89 236.69 54.89H229.37C228.59 54.89 228.335 54.65 228.335 53.885V50.72C228.335 50.405 228.605 50.27 228.89 50.27ZM246.112 41.735C248.947 41.735 250.552 42.635 250.552 44.405C250.552 46.175 248.947 47.075 246.112 47.075C243.277 47.075 241.672 46.175 241.672 44.405C241.672 42.635 243.277 41.735 246.112 41.735ZM246.112 42.65C243.832 42.65 242.767 43.31 242.767 44.405C242.767 45.5 243.832 46.16 246.112 46.16C248.392 46.16 249.457 45.5 249.457 44.405C249.457 43.31 248.392 42.65 246.112 42.65ZM251.977 48.605C252.247 48.605 252.367 48.815 252.367 49.085C252.367 49.34 252.247 49.55 251.977 49.55H240.247C239.977 49.55 239.857 49.34 239.857 49.085C239.857 48.815 239.977 48.605 240.247 48.605H251.977ZM242.197 50.84C242.482 50.84 242.737 50.975 242.737 51.29V53.735C242.737 53.945 242.827 54.02 243.022 54.02H250.462C250.717 54.02 250.837 54.23 250.837 54.485C250.837 54.74 250.717 54.95 250.462 54.95H242.677C241.897 54.95 241.642 54.71 241.642 53.945V51.29C241.642 50.975 241.897 50.84 242.197 50.84ZM256.764 42.11C258.744 42.11 259.959 43.175 259.959 44.81V44.975C259.959 45.98 259.434 46.67 258.399 47.6C257.169 48.71 257.034 49.115 257.034 49.865C257.034 50.135 256.779 50.285 256.524 50.285C256.239 50.285 255.984 50.15 255.984 49.85C255.984 48.83 256.164 48.29 257.424 47.165C258.519 46.19 258.864 45.695 258.864 44.975V44.855C258.864 43.805 258.099 43.1 256.779 43.1C255.774 43.1 255.099 43.475 254.529 44C254.304 44.18 254.034 44.15 253.854 43.925C253.659 43.715 253.659 43.43 253.884 43.235C254.514 42.635 255.549 42.11 256.764 42.11ZM256.509 51.725C256.989 51.725 257.349 52.1 257.349 52.565C257.349 53.03 256.989 53.39 256.509 53.39C256.044 53.39 255.669 53.03 255.669 52.565C255.669 52.1 256.044 51.725 256.509 51.725Z" fill="#07BEB8"/>
<path d="M64.2176 75.906C66.3176 75.906 67.3956 77.348 67.3956 80.008C67.3956 82.668 66.3176 84.11 64.2176 84.11C62.1176 84.11 61.0256 82.668 61.0256 80.008C61.0256 77.348 62.1176 75.906 64.2176 75.906ZM64.2176 76.816C62.6916 76.816 62.0336 77.978 62.0336 80.008C62.0336 82.038 62.6916 83.2 64.2176 83.2C65.7436 83.2 66.4016 82.038 66.4016 80.008C66.4016 77.978 65.7436 76.816 64.2176 76.816ZM70.3356 75.164C70.6016 75.164 70.8536 75.29 70.8536 75.584V86.728C70.8536 87.022 70.6016 87.148 70.3356 87.148C70.0836 87.148 69.8316 87.022 69.8316 86.728V75.584C69.8316 75.29 70.0836 75.164 70.3356 75.164ZM78.4018 76.06C79.1298 76.06 79.3678 76.284 79.3678 76.998V79.574C79.3678 80.288 79.1298 80.512 78.4018 80.512H75.2658C75.0698 80.512 74.9998 80.582 74.9998 80.764V83.06C74.9998 83.242 75.0698 83.312 75.2658 83.312C77.2258 83.312 78.9198 83.228 80.5578 82.99C80.7818 82.962 80.9358 83.13 80.9778 83.368C81.0058 83.62 80.9078 83.858 80.6838 83.886C79.2418 84.082 77.4918 84.194 74.9578 84.194C74.2298 84.194 73.9918 83.97 73.9918 83.256V80.596C73.9918 79.882 74.2298 79.658 74.9578 79.658H78.0938C78.2758 79.658 78.3598 79.588 78.3598 79.392V77.194C78.3598 77.012 78.2758 76.942 78.0938 76.942H74.3418C74.1038 76.942 73.9918 76.746 73.9918 76.494C73.9918 76.256 74.1038 76.06 74.3418 76.06H78.4018ZM83.1758 75.164C83.4278 75.164 83.6798 75.29 83.6798 75.584V86.728C83.6798 87.022 83.4278 87.148 83.1758 87.148C82.9098 87.148 82.6718 87.022 82.6718 86.728V80.33H80.6558C80.4038 80.33 80.2918 80.12 80.2918 79.868C80.2918 79.63 80.4038 79.434 80.6558 79.434H82.6718V75.584C82.6718 75.29 82.9098 75.164 83.1758 75.164ZM89.744 78.538C91.564 78.538 92.642 79.448 92.642 80.82C92.642 82.192 91.564 83.102 89.744 83.102C87.924 83.102 86.846 82.192 86.846 80.82C86.846 79.448 87.924 78.538 89.744 78.538ZM89.744 75.136C90.01 75.136 90.262 75.262 90.262 75.556V76.662H93.048C93.3 76.662 93.412 76.858 93.412 77.096C93.412 77.348 93.3 77.544 93.048 77.544H86.3C86.048 77.544 85.936 77.348 85.936 77.096C85.936 76.858 86.048 76.662 86.3 76.662H89.226V75.556C89.226 75.262 89.492 75.136 89.744 75.136ZM89.744 79.364C88.484 79.364 87.784 79.952 87.784 80.82C87.784 81.688 88.484 82.276 89.744 82.276C91.004 82.276 91.704 81.688 91.704 80.82C91.704 79.952 91.004 79.364 89.744 79.364ZM95.232 75.164C95.484 75.164 95.736 75.29 95.736 75.584V78.986H97.514C97.766 78.986 97.878 79.196 97.878 79.434C97.878 79.672 97.766 79.882 97.514 79.882H95.736V84.264C95.736 84.558 95.484 84.684 95.232 84.684C94.966 84.684 94.728 84.558 94.728 84.264V75.584C94.728 75.29 94.966 75.164 95.232 75.164ZM88.456 83.984C88.722 83.984 88.974 84.11 88.974 84.404V86.616C88.974 86.798 89.044 86.868 89.24 86.868H95.736C95.988 86.868 96.1 87.078 96.1 87.316C96.1 87.554 95.988 87.764 95.736 87.764H88.904C88.176 87.764 87.938 87.54 87.938 86.826V84.404C87.938 84.11 88.19 83.984 88.456 83.984ZM108.03 75.402C108.296 75.402 108.548 75.542 108.548 75.836V76.578C108.548 77.474 109.01 78.034 110.018 78.51C110.998 78.972 111.824 79.336 112.65 79.686C112.902 79.798 112.916 80.092 112.846 80.288C112.748 80.512 112.538 80.652 112.244 80.526C111.432 80.19 110.592 79.812 109.738 79.406C108.576 78.846 108.142 78.384 108.044 78.034H108.03C107.932 78.412 107.498 78.86 106.336 79.42C105.482 79.826 104.642 80.204 103.802 80.554C103.522 80.666 103.312 80.512 103.214 80.288C103.13 80.092 103.158 79.798 103.41 79.686C104.236 79.336 105.062 78.972 106.042 78.51C107.05 78.034 107.512 77.474 107.512 76.578V75.836C107.512 75.542 107.764 75.402 108.03 75.402ZM113.518 81.758C113.756 81.758 113.868 81.954 113.868 82.192C113.868 82.43 113.756 82.626 113.518 82.626H108.674V84.88C108.674 85.16 108.45 85.272 108.17 85.272C107.904 85.272 107.666 85.16 107.666 84.88V82.626H102.542C102.304 82.626 102.192 82.43 102.192 82.192C102.192 81.954 102.304 81.758 102.542 81.758H113.518ZM104.376 83.984C104.642 83.984 104.88 84.11 104.88 84.404V86.686C104.88 86.882 104.964 86.952 105.146 86.952H112.09C112.328 86.952 112.44 87.148 112.44 87.386C112.44 87.624 112.328 87.82 112.09 87.82H104.824C104.096 87.82 103.858 87.596 103.858 86.882V84.404C103.858 84.11 104.096 83.984 104.376 83.984ZM120.1 76.018C120.828 76.018 121.066 76.242 121.066 76.956V78.09C121.066 80.078 120.31 80.624 115.998 82.794C115.788 82.906 115.508 82.808 115.396 82.57C115.284 82.36 115.284 82.052 115.536 81.94C119.582 79.952 120.058 79.546 120.058 78.034V77.166C120.058 76.984 119.988 76.914 119.792 76.914H115.83C115.578 76.914 115.466 76.704 115.466 76.466C115.466 76.228 115.578 76.018 115.83 76.018H120.1ZM124.202 75.164C124.468 75.164 124.72 75.29 124.72 75.584V78.832H126.498C126.75 78.832 126.862 79.042 126.862 79.294C126.862 79.532 126.75 79.742 126.498 79.742H124.72V84.124C124.72 84.418 124.468 84.544 124.202 84.544C123.95 84.544 123.698 84.418 123.698 84.124V75.584C123.698 75.29 123.95 75.164 124.202 75.164ZM117.44 83.452C117.706 83.452 117.958 83.578 117.958 83.872V86.616C117.958 86.798 118.028 86.868 118.224 86.868H124.72C124.972 86.868 125.084 87.078 125.084 87.316C125.084 87.554 124.972 87.764 124.72 87.764H117.888C117.16 87.764 116.922 87.54 116.922 86.826V83.872C116.922 83.578 117.174 83.452 117.44 83.452ZM133.515 75.486C136.161 75.486 137.659 76.326 137.659 77.978C137.659 79.63 136.161 80.47 133.515 80.47C130.869 80.47 129.371 79.63 129.371 77.978C129.371 76.326 130.869 75.486 133.515 75.486ZM133.515 76.34C131.387 76.34 130.393 76.956 130.393 77.978C130.393 79 131.387 79.616 133.515 79.616C135.643 79.616 136.637 79 136.637 77.978C136.637 76.956 135.643 76.34 133.515 76.34ZM138.989 81.898C139.241 81.898 139.353 82.094 139.353 82.346C139.353 82.584 139.241 82.78 138.989 82.78H128.041C127.789 82.78 127.677 82.584 127.677 82.346C127.677 82.094 127.789 81.898 128.041 81.898H138.989ZM129.861 83.984C130.127 83.984 130.365 84.11 130.365 84.404V86.686C130.365 86.882 130.449 86.952 130.631 86.952H137.575C137.813 86.952 137.925 87.148 137.925 87.386C137.925 87.624 137.813 87.82 137.575 87.82H130.309C129.581 87.82 129.343 87.596 129.343 86.882V84.404C129.343 84.11 129.581 83.984 129.861 83.984ZM149.757 75.542C152.417 75.542 153.929 76.536 153.929 78.328C153.929 80.12 152.417 81.114 149.757 81.114C147.097 81.114 145.585 80.12 145.585 78.328C145.585 76.536 147.097 75.542 149.757 75.542ZM149.757 76.424C147.629 76.424 146.607 77.166 146.607 78.328C146.607 79.49 147.629 80.232 149.757 80.232C151.885 80.232 152.907 79.49 152.907 78.328C152.907 77.166 151.885 76.424 149.757 76.424ZM155.231 82.612C155.483 82.612 155.595 82.808 155.595 83.06C155.595 83.298 155.483 83.494 155.231 83.494H150.275V87.708C150.275 88.002 150.023 88.128 149.757 88.128C149.505 88.128 149.253 88.002 149.253 87.708V83.494H144.283C144.031 83.494 143.919 83.298 143.919 83.06C143.919 82.808 144.031 82.612 144.283 82.612H155.231ZM162.163 76.046C162.891 76.046 163.129 76.27 163.129 76.984V79.574C163.129 80.288 162.891 80.512 162.163 80.512H158.803C158.607 80.512 158.537 80.582 158.537 80.764V83.074C158.537 83.256 158.607 83.326 158.803 83.326C161.015 83.326 162.681 83.228 164.347 82.99C164.571 82.962 164.725 83.13 164.767 83.368C164.795 83.62 164.697 83.858 164.473 83.886C163.017 84.082 161.281 84.208 158.495 84.208C157.767 84.208 157.529 83.984 157.529 83.27V80.596C157.529 79.882 157.767 79.658 158.495 79.658H161.855C162.037 79.658 162.121 79.588 162.121 79.392V77.18C162.121 76.998 162.037 76.928 161.855 76.928H157.879C157.641 76.928 157.529 76.732 157.529 76.48C157.529 76.242 157.641 76.046 157.879 76.046H162.163ZM166.531 75.164C166.797 75.164 167.049 75.29 167.049 75.584V86.728C167.049 87.022 166.797 87.148 166.531 87.148C166.279 87.148 166.027 87.022 166.027 86.728V75.584C166.027 75.29 166.279 75.164 166.531 75.164ZM177.243 75.304C177.481 75.304 177.719 75.43 177.719 75.71V86.154C177.719 86.434 177.481 86.56 177.243 86.56C176.991 86.56 176.753 86.434 176.753 86.154V80.442H175.003C174.919 82.78 174.051 83.998 172.301 83.998C170.439 83.998 169.571 82.626 169.571 80.008C169.571 77.39 170.439 76.018 172.301 76.018C174.051 76.018 174.905 77.236 175.003 79.56H176.753V75.71C176.753 75.43 176.991 75.304 177.243 75.304ZM172.301 76.928C171.027 76.928 170.537 78.02 170.537 80.008C170.537 81.996 171.027 83.088 172.301 83.088C173.575 83.088 174.051 81.996 174.051 80.008C174.051 78.02 173.575 76.928 172.301 76.928ZM179.707 75.164C179.959 75.164 180.197 75.29 180.197 75.57V86.742C180.197 87.022 179.959 87.148 179.707 87.148C179.469 87.148 179.231 87.022 179.231 86.742V75.57C179.231 75.29 179.469 75.164 179.707 75.164ZM189.901 75.304C190.139 75.304 190.377 75.43 190.377 75.71V86.154C190.377 86.434 190.139 86.56 189.901 86.56C189.649 86.56 189.411 86.434 189.411 86.154V80.442H187.171C186.807 81.632 185.813 82.374 183.139 84.264C182.943 84.404 182.649 84.334 182.509 84.124C182.355 83.914 182.355 83.606 182.565 83.466C186.065 81.044 186.359 80.778 186.359 78.608V77.39C186.359 77.208 186.275 77.138 186.093 77.138H182.901C182.649 77.138 182.537 76.928 182.537 76.69C182.537 76.452 182.649 76.242 182.901 76.242H186.387C187.115 76.242 187.353 76.466 187.353 77.18V78.65C187.353 78.986 187.339 79.294 187.311 79.56H189.411V75.71C189.411 75.43 189.649 75.304 189.901 75.304ZM192.449 75.164C192.701 75.164 192.939 75.29 192.939 75.57V86.742C192.939 87.022 192.701 87.148 192.449 87.148C192.211 87.148 191.973 87.022 191.973 86.742V75.57C191.973 75.29 192.211 75.164 192.449 75.164ZM199.381 76.102C199.647 76.102 199.899 76.228 199.899 76.522V82.626C199.899 82.822 199.969 82.892 200.165 82.892C201.369 82.892 202.979 82.794 204.043 82.626C204.253 82.598 204.407 82.752 204.449 83.004C204.477 83.256 204.379 83.494 204.155 83.522C203.315 83.662 201.649 83.774 199.829 83.774C199.101 83.774 198.863 83.55 198.863 82.836V76.522C198.863 76.228 199.115 76.102 199.381 76.102ZM208.691 75.164C208.943 75.164 209.181 75.29 209.181 75.57V86.742C209.181 87.022 208.943 87.148 208.691 87.148C208.453 87.148 208.215 87.022 208.215 86.742V80.442H206.269V86.154C206.269 86.434 206.031 86.56 205.779 86.56C205.541 86.56 205.303 86.434 205.303 86.154V75.71C205.303 75.43 205.541 75.304 205.779 75.304C206.031 75.304 206.269 75.43 206.269 75.71V79.56H208.215V75.57C208.215 75.29 208.453 75.164 208.691 75.164ZM218.186 75.92C218.424 75.92 218.536 76.116 218.536 76.354C218.536 76.606 218.424 76.802 218.186 76.802H215.652V77.796C215.652 78.762 215.918 79.35 216.632 79.924C217.332 80.47 217.99 80.96 218.424 81.268C218.662 81.45 218.676 81.716 218.522 81.912C218.396 82.094 218.144 82.206 217.892 82.024C217.556 81.8 216.912 81.31 216.254 80.806C215.526 80.218 215.218 79.826 215.148 79.532H215.134C215.064 79.84 214.756 80.246 214.014 80.834C213.37 81.352 212.698 81.842 212.152 82.22C211.914 82.388 211.662 82.276 211.522 82.094C211.382 81.898 211.368 81.618 211.62 81.45C212.292 80.974 212.936 80.498 213.636 79.938C214.35 79.364 214.616 78.776 214.616 77.824V76.802H211.998C211.76 76.802 211.648 76.606 211.648 76.354C211.648 76.116 211.76 75.92 211.998 75.92H218.186ZM221.098 75.164C221.35 75.164 221.602 75.29 221.602 75.584V82.234C221.602 82.528 221.35 82.654 221.098 82.654C220.832 82.654 220.594 82.528 220.594 82.234V79.35H218.2C217.962 79.35 217.85 79.154 217.85 78.902C217.85 78.664 217.962 78.454 218.2 78.454H220.594V75.584C220.594 75.29 220.832 75.164 221.098 75.164ZM220.636 83.368C221.364 83.368 221.602 83.592 221.602 84.306V87.652C221.602 87.946 221.35 88.072 221.084 88.072C220.832 88.072 220.58 87.946 220.58 87.652V84.502C220.58 84.32 220.51 84.25 220.314 84.25H213.706C213.468 84.25 213.356 84.054 213.356 83.816C213.356 83.564 213.468 83.368 213.706 83.368H220.636ZM233.21 83.522C235.87 83.522 237.382 84.278 237.382 85.846C237.382 87.414 235.87 88.17 233.21 88.17C230.55 88.17 229.038 87.414 229.038 85.846C229.038 84.278 230.55 83.522 233.21 83.522ZM236.976 75.626C237.214 75.626 237.326 75.822 237.326 76.046C237.326 76.284 237.214 76.48 236.976 76.48H230.354C230.158 76.48 230.088 76.55 230.088 76.746V78.776C230.088 78.972 230.158 79.042 230.354 79.042H237.116C237.354 79.042 237.466 79.238 237.466 79.462C237.466 79.7 237.354 79.896 237.116 79.896H233.714V81.548H238.698C238.936 81.548 239.048 81.744 239.048 81.982C239.048 82.22 238.936 82.416 238.698 82.416H227.722C227.484 82.416 227.372 82.22 227.372 81.982C227.372 81.744 227.484 81.548 227.722 81.548H232.706V79.896H230.032C229.304 79.896 229.066 79.672 229.066 78.958V76.564C229.066 75.85 229.304 75.626 230.032 75.626H236.976ZM233.21 84.348C231.068 84.348 230.06 84.88 230.06 85.846C230.06 86.812 231.068 87.344 233.21 87.344C235.352 87.344 236.36 86.812 236.36 85.846C236.36 84.88 235.352 84.348 233.21 84.348ZM245.588 76.144C246.316 76.144 246.554 76.368 246.554 77.082V78.664C246.554 81.002 245.84 81.702 241.5 84.376C241.29 84.502 241.024 84.418 240.884 84.208C240.744 83.998 240.744 83.69 240.968 83.55C245.042 81.072 245.546 80.554 245.546 78.622V77.292C245.546 77.11 245.476 77.04 245.28 77.04H241.29C241.038 77.04 240.926 76.83 240.926 76.592C240.926 76.354 241.038 76.144 241.29 76.144H245.588ZM249.984 75.164C250.25 75.164 250.502 75.29 250.502 75.584V86.728C250.502 87.022 250.25 87.148 249.984 87.148C249.732 87.148 249.48 87.022 249.48 86.728V75.584C249.48 75.29 249.732 75.164 249.984 75.164ZM261.816 75.43C262.544 75.43 262.782 75.654 262.782 76.368V77.25C262.782 77.964 262.544 78.188 261.816 78.188H255.81C255.656 78.188 255.586 78.258 255.586 78.412V79.154C255.586 79.308 255.656 79.364 255.81 79.364H262.782C263.006 79.364 263.118 79.56 263.118 79.77C263.118 79.994 263.006 80.176 262.782 80.176H255.558C254.83 80.176 254.592 79.952 254.592 79.238V78.342C254.592 77.628 254.83 77.404 255.558 77.404H261.564C261.732 77.404 261.802 77.348 261.802 77.194V76.452C261.802 76.298 261.732 76.242 261.564 76.242H254.9C254.676 76.242 254.564 76.046 254.564 75.822C254.564 75.612 254.676 75.43 254.9 75.43H261.816ZM264.196 81.282C264.42 81.282 264.532 81.478 264.532 81.702C264.532 81.94 264.42 82.122 264.196 82.122H253.192C252.968 82.122 252.856 81.94 252.856 81.702C252.856 81.478 252.968 81.282 253.192 81.282H264.196ZM261.886 83.228C262.614 83.228 262.852 83.452 262.852 84.166V85.062C262.852 85.776 262.614 86 261.886 86H255.74C255.572 86 255.502 86.056 255.502 86.224V86.952C255.502 87.12 255.572 87.176 255.74 87.176H262.866C263.09 87.176 263.188 87.372 263.188 87.582C263.188 87.792 263.09 87.988 262.866 87.988H255.488C254.76 87.988 254.522 87.778 254.522 87.064V86.154C254.522 85.44 254.76 85.216 255.488 85.216H261.648C261.802 85.216 261.872 85.16 261.872 84.992V84.264C261.872 84.11 261.802 84.04 261.648 84.04H254.83C254.606 84.04 254.494 83.858 254.494 83.634C254.494 83.424 254.606 83.228 254.83 83.228H261.886Z" fill="#808983"/>
<path d="M54.7603 98.342C56.5523 98.342 57.5883 99.21 57.5883 100.526C57.5883 101.842 56.5523 102.71 54.7603 102.71C52.9683 102.71 51.9323 101.842 51.9323 100.526C51.9323 99.21 52.9683 98.342 54.7603 98.342ZM54.7603 95.024C55.0263 95.024 55.2783 95.15 55.2783 95.444V96.55H57.9943C58.2463 96.55 58.3583 96.746 58.3583 96.984C58.3583 97.222 58.2463 97.432 57.9943 97.432H51.3863C51.1343 97.432 51.0223 97.222 51.0223 96.984C51.0223 96.746 51.1343 96.55 51.3863 96.55H54.2423V95.444C54.2423 95.15 54.5083 95.024 54.7603 95.024ZM54.7603 99.168C53.5423 99.168 52.8703 99.714 52.8703 100.526C52.8703 101.338 53.5423 101.884 54.7603 101.884C55.9783 101.884 56.6503 101.338 56.6503 100.526C56.6503 99.714 55.9783 99.168 54.7603 99.168ZM60.8363 95.164C61.0883 95.164 61.3263 95.29 61.3263 95.584V102.948C61.3263 103.228 61.0883 103.354 60.8363 103.354C60.5703 103.354 60.3183 103.228 60.3183 102.948V101.674H58.5823C58.3443 101.674 58.2323 101.492 58.2323 101.24C58.2323 101.002 58.3443 100.806 58.5823 100.806H60.3183V99.364H58.5123C58.2743 99.364 58.1623 99.182 58.1623 98.93C58.1623 98.706 58.2743 98.51 58.5123 98.51H60.3183V95.584C60.3183 95.29 60.5703 95.164 60.8363 95.164ZM57.4483 103.522C59.9823 103.522 61.4243 104.292 61.4243 105.818C61.4243 107.358 59.9823 108.114 57.4483 108.114C54.9143 108.114 53.4723 107.358 53.4723 105.818C53.4723 104.292 54.9143 103.522 57.4483 103.522ZM57.4483 104.362C55.4323 104.362 54.4803 104.908 54.4803 105.818C54.4803 106.742 55.4323 107.288 57.4483 107.288C59.4643 107.288 60.4163 106.742 60.4163 105.818C60.4163 104.908 59.4643 104.362 57.4483 104.362ZM67.5725 95.584C67.8385 95.584 68.0905 95.71 68.0905 96.004V97.516C68.0905 98.468 68.3705 99.098 69.0845 99.686C69.7705 100.26 70.4005 100.736 70.8765 101.072C71.1005 101.24 71.1005 101.52 70.9605 101.716C70.8205 101.912 70.5685 101.996 70.3305 101.828C69.9525 101.562 69.3225 101.086 68.6925 100.568C67.9785 100.008 67.6565 99.56 67.5865 99.28H67.5725C67.5025 99.574 67.1665 100.036 66.4525 100.61C65.8225 101.114 65.1925 101.59 64.5905 102.024C64.3525 102.192 64.0865 102.108 63.9465 101.912C63.8065 101.73 63.7925 101.422 64.0305 101.254C64.7305 100.764 65.3605 100.274 66.0605 99.714C66.7745 99.112 67.0545 98.482 67.0545 97.544V96.004C67.0545 95.71 67.2925 95.584 67.5725 95.584ZM73.5645 95.164C73.8165 95.164 74.0685 95.29 74.0685 95.584V102.402C74.0685 102.696 73.8165 102.822 73.5645 102.822C73.2985 102.822 73.0605 102.696 73.0605 102.402V98.734H70.5545C70.3165 98.734 70.2045 98.538 70.2045 98.286C70.2045 98.048 70.3165 97.852 70.5545 97.852H73.0605V95.584C73.0605 95.29 73.2985 95.164 73.5645 95.164ZM70.1765 102.99C72.7245 102.99 74.1665 103.886 74.1665 105.552C74.1665 107.218 72.7245 108.114 70.1765 108.114C67.6285 108.114 66.2005 107.218 66.2005 105.552C66.2005 103.886 67.6285 102.99 70.1765 102.99ZM70.1765 103.83C68.1605 103.83 67.2085 104.488 67.2085 105.552C67.2085 106.616 68.1605 107.274 70.1765 107.274C72.2065 107.274 73.1585 106.616 73.1585 105.552C73.1585 104.488 72.2065 103.83 70.1765 103.83ZM80.1606 99C81.9946 99 83.0866 100.134 83.0866 101.702C83.0866 103.27 81.9946 104.404 80.1606 104.404C78.3266 104.404 77.2346 103.27 77.2346 101.702C77.2346 100.134 78.3266 99 80.1606 99ZM80.1606 95.164C80.4266 95.164 80.6786 95.29 80.6786 95.584V96.998H83.4926C83.7306 96.998 83.8426 97.194 83.8426 97.432C83.8426 97.684 83.7306 97.88 83.4926 97.88H76.6886C76.4366 97.88 76.3246 97.684 76.3246 97.432C76.3246 97.194 76.4366 96.998 76.6886 96.998H79.6426V95.584C79.6426 95.29 79.9086 95.164 80.1606 95.164ZM80.1606 99.854C78.9286 99.854 78.1866 100.61 78.1866 101.702C78.1866 102.794 78.9286 103.55 80.1606 103.55C81.3926 103.55 82.1346 102.794 82.1346 101.702C82.1346 100.61 81.3926 99.854 80.1606 99.854ZM85.6206 95.164C85.8726 95.164 86.1246 95.29 86.1246 95.584V99.63H87.9026C88.1546 99.63 88.2666 99.84 88.2666 100.078C88.2666 100.33 88.1546 100.54 87.9026 100.54H86.1246V106.728C86.1246 107.022 85.8726 107.148 85.6206 107.148C85.3546 107.148 85.1166 107.022 85.1166 106.728V95.584C85.1166 95.29 85.3546 95.164 85.6206 95.164ZM96.8368 95.304C97.0748 95.304 97.3128 95.43 97.3128 95.71V106.154C97.3128 106.434 97.0748 106.56 96.8368 106.56C96.5848 106.56 96.3468 106.434 96.3468 106.154V100.442H94.1068C93.7428 101.632 92.7488 102.374 90.0748 104.264C89.8788 104.404 89.5848 104.334 89.4448 104.124C89.2908 103.914 89.2908 103.606 89.5008 103.466C93.0008 101.044 93.2948 100.778 93.2948 98.608V97.39C93.2948 97.208 93.2108 97.138 93.0288 97.138H89.8368C89.5848 97.138 89.4728 96.928 89.4728 96.69C89.4728 96.452 89.5848 96.242 89.8368 96.242H93.3228C94.0508 96.242 94.2888 96.466 94.2888 97.18V98.65C94.2888 98.986 94.2748 99.294 94.2468 99.56H96.3468V95.71C96.3468 95.43 96.5848 95.304 96.8368 95.304ZM99.3848 95.164C99.6368 95.164 99.8748 95.29 99.8748 95.57V106.742C99.8748 107.022 99.6368 107.148 99.3848 107.148C99.1468 107.148 98.9088 107.022 98.9088 106.742V95.57C98.9088 95.29 99.1468 95.164 99.3848 95.164ZM108.501 99.014C110.223 99.014 111.077 100.176 111.077 101.66C111.077 103.144 110.223 104.306 108.501 104.306C106.779 104.306 105.939 103.144 105.939 101.66C105.939 100.176 106.779 99.014 108.501 99.014ZM108.501 95.248C108.753 95.248 109.005 95.374 109.005 95.668V97.082H111.301C111.553 97.082 111.665 97.278 111.665 97.516C111.665 97.768 111.553 97.964 111.301 97.964H105.533C105.295 97.964 105.183 97.768 105.183 97.516C105.183 97.278 105.295 97.082 105.533 97.082H107.997V95.668C107.997 95.374 108.249 95.248 108.501 95.248ZM108.501 99.882C107.367 99.882 106.849 100.666 106.849 101.66C106.849 102.668 107.367 103.452 108.501 103.452C109.649 103.452 110.167 102.668 110.167 101.66C110.167 100.666 109.649 99.882 108.501 99.882ZM115.627 95.164C115.879 95.164 116.117 95.29 116.117 95.57V106.742C116.117 107.022 115.879 107.148 115.627 107.148C115.389 107.148 115.151 107.022 115.151 106.742V100.582H113.317V106.154C113.317 106.434 113.079 106.56 112.827 106.56C112.589 106.56 112.351 106.434 112.351 106.154V95.71C112.351 95.43 112.589 95.304 112.827 95.304C113.079 95.304 113.317 95.43 113.317 95.71V99.7H115.151V95.57C115.151 95.29 115.389 95.164 115.627 95.164ZM127.921 95.822C128.159 95.822 128.271 96.032 128.271 96.27C128.271 96.508 128.159 96.718 127.921 96.718H124.421V96.956C124.421 98.02 124.687 98.482 125.737 99.042C126.703 99.546 127.557 99.966 128.453 100.372C128.663 100.484 128.719 100.764 128.607 100.988C128.481 101.212 128.243 101.324 128.033 101.226C127.109 100.806 126.325 100.428 125.429 99.952C124.337 99.378 123.987 98.986 123.917 98.65H123.903C123.833 99 123.483 99.392 122.391 99.966C121.495 100.442 120.697 100.82 119.787 101.24C119.577 101.338 119.325 101.226 119.199 101.002C119.087 100.764 119.129 100.484 119.353 100.372C120.249 99.966 121.103 99.546 122.069 99.042C123.119 98.482 123.385 98.02 123.385 96.956V96.718H119.885C119.647 96.718 119.535 96.508 119.535 96.27C119.535 96.032 119.647 95.822 119.885 95.822H127.921ZM129.377 102.612C129.629 102.612 129.741 102.808 129.741 103.06C129.741 103.298 129.629 103.494 129.377 103.494H124.421V107.708C124.421 108.002 124.169 108.128 123.903 108.128C123.651 108.128 123.399 108.002 123.399 107.708V103.494H118.429C118.177 103.494 118.065 103.298 118.065 103.06C118.065 102.808 118.177 102.612 118.429 102.612H129.377ZM136.281 96.13C137.009 96.13 137.247 96.354 137.247 97.068V102.948C137.247 103.662 137.009 103.886 136.281 103.886H132.501C131.773 103.886 131.535 103.662 131.535 102.948V97.068C131.535 96.354 131.773 96.13 132.501 96.13H136.281ZM132.809 97.012C132.613 97.012 132.543 97.082 132.543 97.264V102.752C132.543 102.934 132.613 103.004 132.809 103.004H135.973C136.169 103.004 136.239 102.934 136.239 102.752V97.264C136.239 97.082 136.169 97.012 135.973 97.012H132.809ZM140.775 95.164C141.027 95.164 141.279 95.29 141.279 95.584V106.728C141.279 107.022 141.027 107.148 140.775 107.148C140.523 107.148 140.271 107.022 140.271 106.728V101.982H138.311C138.059 101.982 137.961 101.786 137.961 101.548C137.961 101.31 138.059 101.1 138.311 101.1H140.271V98.916H138.311C138.059 98.916 137.961 98.706 137.961 98.468C137.961 98.23 138.059 98.034 138.311 98.034H140.271V95.584C140.271 95.29 140.523 95.164 140.775 95.164ZM144.824 104.796C145.188 104.852 145.384 105.118 145.258 105.496L144.572 107.778C144.488 108.058 144.278 108.156 144.04 108.114C143.774 108.072 143.676 107.904 143.718 107.638L144.096 105.272C144.152 104.88 144.474 104.74 144.824 104.796ZM154.014 95.808C156.156 95.808 157.178 97.208 157.178 98.986C157.178 100.75 156.156 102.15 154.014 102.15C151.872 102.15 150.85 100.75 150.85 98.986C150.85 97.208 151.872 95.808 154.014 95.808ZM154.014 96.69C152.46 96.69 151.844 97.754 151.844 98.986C151.844 100.204 152.46 101.268 154.014 101.268C155.568 101.268 156.184 100.204 156.184 98.986C156.184 97.754 155.568 96.69 154.014 96.69ZM160.174 95.164C160.426 95.164 160.678 95.29 160.678 95.584V104.124C160.678 104.418 160.426 104.544 160.174 104.544C159.908 104.544 159.656 104.418 159.656 104.124V95.584C159.656 95.29 159.908 95.164 160.174 95.164ZM153.258 103.452C153.524 103.452 153.776 103.578 153.776 103.872V106.616C153.776 106.798 153.846 106.868 154.042 106.868H160.678C160.93 106.868 161.042 107.078 161.042 107.316C161.042 107.554 160.93 107.764 160.678 107.764H153.706C152.978 107.764 152.74 107.54 152.74 106.826V103.872C152.74 103.578 152.992 103.452 153.258 103.452ZM166.21 95.668C166.476 95.668 166.728 95.794 166.728 96.088V97.516C166.728 98.482 166.868 99.042 167.582 99.742C168.142 100.288 168.604 100.694 169.066 101.1C169.262 101.268 169.248 101.548 169.094 101.73C168.926 101.926 168.66 101.982 168.436 101.8C168.058 101.478 167.596 101.072 167.148 100.638C166.518 100.036 166.294 99.686 166.238 99.406H166.224C166.154 99.714 165.958 100.036 165.3 100.68C164.726 101.226 164.292 101.59 163.774 102.038C163.564 102.206 163.284 102.15 163.116 101.954C162.962 101.772 162.948 101.478 163.144 101.31C163.676 100.862 164.292 100.316 164.866 99.756C165.566 99.07 165.706 98.496 165.706 97.544V96.088C165.706 95.794 165.958 95.668 166.21 95.668ZM173.336 95.164C173.588 95.164 173.826 95.29 173.826 95.57V102.472C173.826 102.752 173.588 102.864 173.336 102.864C173.098 102.864 172.86 102.752 172.86 102.472V99.252H170.998V101.884C170.998 102.164 170.76 102.276 170.508 102.276C170.27 102.276 170.032 102.164 170.032 101.884V95.64C170.032 95.36 170.27 95.234 170.508 95.234C170.76 95.234 170.998 95.36 170.998 95.64V98.37H172.86V95.57C172.86 95.29 173.098 95.164 173.336 95.164ZM169.682 102.99C172.314 102.99 173.812 103.886 173.812 105.552C173.812 107.218 172.314 108.114 169.682 108.114C167.05 108.114 165.552 107.218 165.552 105.552C165.552 103.886 167.05 102.99 169.682 102.99ZM169.682 103.83C167.568 103.83 166.574 104.488 166.574 105.552C166.574 106.616 167.568 107.274 169.682 107.274C171.796 107.274 172.79 106.616 172.79 105.552C172.79 104.488 171.796 103.83 169.682 103.83ZM180.058 95.906C182.256 95.906 183.362 97.208 183.362 98.888C183.362 100.554 182.256 101.856 180.058 101.856C177.86 101.856 176.754 100.554 176.754 98.888C176.754 97.208 177.86 95.906 180.058 95.906ZM180.058 96.788C178.49 96.788 177.748 97.726 177.748 98.888C177.748 100.05 178.49 100.988 180.058 100.988C181.626 100.988 182.368 100.05 182.368 98.888C182.368 97.726 181.626 96.788 180.058 96.788ZM184.104 103.718C184.328 103.69 184.468 103.858 184.496 104.096C184.51 104.348 184.398 104.572 184.188 104.586C181.584 104.81 179.12 104.894 176.32 104.894C176.068 104.894 175.956 104.698 175.956 104.446C175.956 104.208 176.068 103.998 176.32 103.998C178.882 103.998 181.276 103.97 184.104 103.718ZM185.91 95.164C186.162 95.164 186.414 95.29 186.414 95.584V106.728C186.414 107.022 186.162 107.148 185.91 107.148C185.644 107.148 185.406 107.022 185.406 106.728V95.584C185.406 95.29 185.644 95.164 185.91 95.164ZM201.872 95.542C202.096 95.542 202.208 95.724 202.208 95.962C202.208 96.2 202.096 96.396 201.872 96.396H198.372V96.704C198.372 97.362 198.652 97.684 199.702 98.09C200.668 98.454 201.55 98.776 202.348 99.056C202.614 99.14 202.67 99.392 202.586 99.616C202.502 99.84 202.306 99.98 202.026 99.882C201.256 99.63 200.402 99.308 199.464 98.944C198.33 98.524 197.98 98.202 197.868 97.852H197.854C197.756 98.202 197.392 98.538 196.258 98.958C195.306 99.322 194.452 99.644 193.696 99.896C193.416 99.994 193.206 99.854 193.122 99.63C193.038 99.392 193.094 99.14 193.36 99.056C194.158 98.776 195.04 98.454 196.006 98.09C197.056 97.684 197.336 97.362 197.336 96.704V96.396H193.836C193.612 96.396 193.5 96.2 193.5 95.962C193.5 95.724 193.612 95.542 193.836 95.542H201.872ZM203.342 100.764C203.58 100.764 203.692 100.96 203.692 101.198C203.692 101.436 203.58 101.632 203.342 101.632H192.366C192.128 101.632 192.016 101.436 192.016 101.198C192.016 100.96 192.128 100.764 192.366 100.764H203.342ZM201.046 102.948C201.774 102.948 202.012 103.172 202.012 103.886V104.922C202.012 105.636 201.774 105.86 201.046 105.86H194.9C194.746 105.86 194.676 105.916 194.676 106.084V106.952C194.676 107.106 194.746 107.162 194.9 107.162H202.026C202.25 107.162 202.348 107.358 202.348 107.568C202.348 107.792 202.25 107.988 202.026 107.988H194.648C193.92 107.988 193.682 107.764 193.682 107.05V106C193.682 105.286 193.92 105.062 194.648 105.062H200.794C200.962 105.062 201.032 105.006 201.032 104.852V103.984C201.032 103.83 200.962 103.76 200.794 103.76H193.99C193.766 103.76 193.654 103.578 193.654 103.354C193.654 103.144 193.766 102.948 193.99 102.948H201.046ZM214.727 95.164C214.979 95.164 215.231 95.29 215.231 95.584V106.728C215.231 107.022 214.979 107.148 214.727 107.148C214.461 107.148 214.223 107.022 214.223 106.728V100.442H210.765C210.289 101.618 209.071 102.5 206.061 104.362C205.851 104.488 205.585 104.404 205.445 104.194C205.305 103.984 205.305 103.676 205.529 103.536C209.589 101.058 210.023 100.582 210.023 98.608V97.306C210.023 97.124 209.953 97.054 209.757 97.054H205.851C205.599 97.054 205.487 96.844 205.487 96.606C205.487 96.368 205.599 96.158 205.851 96.158H210.065C210.793 96.158 211.031 96.382 211.031 97.096V98.65C211.031 98.986 211.017 99.28 210.975 99.56H214.223V95.584C214.223 95.29 214.461 95.164 214.727 95.164ZM226.545 103.62C227.273 103.62 227.511 103.844 227.511 104.558V106.98C227.511 107.694 227.273 107.918 226.545 107.918H220.133C219.405 107.918 219.167 107.694 219.167 106.98V104.558C219.167 103.844 219.405 103.62 220.133 103.62H222.835V102.066H217.851C217.613 102.066 217.501 101.87 217.501 101.632C217.501 101.394 217.613 101.198 217.851 101.198H228.827C229.065 101.198 229.177 101.394 229.177 101.632C229.177 101.87 229.065 102.066 228.827 102.066H223.843V103.62H226.545ZM223.339 95.458C225.985 95.458 227.483 96.214 227.483 97.782C227.483 99.35 225.985 100.106 223.339 100.106C220.693 100.106 219.195 99.35 219.195 97.782C219.195 96.214 220.693 95.458 223.339 95.458ZM220.441 104.474C220.245 104.474 220.175 104.544 220.175 104.726V106.812C220.175 106.994 220.245 107.064 220.441 107.064H226.237C226.433 107.064 226.503 106.994 226.503 106.812V104.726C226.503 104.544 226.433 104.474 226.237 104.474H220.441ZM223.339 96.298C221.211 96.298 220.217 96.816 220.217 97.782C220.217 98.748 221.211 99.266 223.339 99.266C225.467 99.266 226.461 98.748 226.461 97.782C226.461 96.816 225.467 96.298 223.339 96.298ZM236.081 95.318C238.727 95.318 240.225 96.018 240.225 97.502C240.225 98.972 238.727 99.672 236.081 99.672C233.435 99.672 231.937 98.972 231.937 97.502C231.937 96.018 233.435 95.318 236.081 95.318ZM236.081 96.158C233.953 96.158 232.959 96.62 232.959 97.502C232.959 98.37 233.953 98.846 236.081 98.846C238.209 98.846 239.203 98.37 239.203 97.502C239.203 96.62 238.209 96.158 236.081 96.158ZM241.569 100.764C241.807 100.764 241.919 100.96 241.919 101.198C241.919 101.436 241.807 101.632 241.569 101.632H230.593C230.355 101.632 230.243 101.436 230.243 101.198C230.243 100.96 230.355 100.764 230.593 100.764H241.569ZM239.273 102.948C240.001 102.948 240.239 103.172 240.239 103.886V104.922C240.239 105.636 240.001 105.86 239.273 105.86H233.127C232.973 105.86 232.903 105.916 232.903 106.084V106.952C232.903 107.106 232.973 107.162 233.127 107.162H240.253C240.477 107.162 240.575 107.358 240.575 107.568C240.575 107.792 240.477 107.988 240.253 107.988H232.875C232.147 107.988 231.909 107.764 231.909 107.05V106C231.909 105.286 232.147 105.062 232.875 105.062H239.021C239.189 105.062 239.259 105.006 239.259 104.852V103.984C239.259 103.83 239.189 103.76 239.021 103.76H232.217C231.993 103.76 231.881 103.578 231.881 103.354C231.881 103.144 231.993 102.948 232.217 102.948H239.273ZM254.017 95.864C254.269 95.864 254.381 96.06 254.381 96.298C254.381 96.536 254.269 96.746 254.017 96.746H251.469V97.25C251.469 97.992 251.651 98.328 252.337 98.776C253.065 99.266 253.653 99.602 254.227 99.952C254.493 100.092 254.535 100.358 254.395 100.582C254.283 100.778 254.045 100.876 253.793 100.736C253.219 100.414 252.729 100.106 252.029 99.658C251.259 99.168 251.049 98.916 250.979 98.622H250.965C250.909 98.93 250.671 99.21 249.901 99.7C249.201 100.148 248.613 100.512 247.927 100.904C247.689 101.03 247.423 100.918 247.311 100.722C247.185 100.512 247.213 100.246 247.465 100.092C248.221 99.672 248.851 99.28 249.593 98.804C250.279 98.356 250.447 98.02 250.447 97.264V96.746H247.815C247.577 96.746 247.465 96.536 247.465 96.298C247.465 96.06 247.577 95.864 247.815 95.864H254.017ZM256.621 95.164C256.873 95.164 257.125 95.29 257.125 95.584V106.728C257.125 107.022 256.873 107.148 256.621 107.148C256.355 107.148 256.117 107.022 256.117 106.728V104.754H253.541C253.317 104.754 253.205 104.558 253.205 104.32C253.205 104.082 253.317 103.886 253.541 103.886H256.117V95.584C256.117 95.29 256.355 95.164 256.621 95.164ZM254.815 101.604C255.039 101.59 255.179 101.744 255.207 101.982C255.221 102.234 255.109 102.444 254.899 102.458C253.667 102.57 252.477 102.64 251.259 102.696V106.588C251.259 106.882 251.007 107.008 250.755 107.008C250.503 107.008 250.251 106.882 250.251 106.588V102.724C249.201 102.752 248.151 102.766 247.031 102.766C246.779 102.766 246.667 102.57 246.667 102.332C246.667 102.094 246.779 101.898 247.031 101.898C249.593 101.898 251.987 101.856 254.815 101.604ZM265.065 95.682C267.739 95.682 269.251 96.914 269.251 98.93C269.251 100.946 267.739 102.178 265.065 102.178C262.391 102.178 260.879 100.946 260.879 98.93C260.879 96.914 262.391 95.682 265.065 95.682ZM265.065 96.55C262.923 96.55 261.901 97.558 261.901 98.93C261.901 100.288 262.923 101.296 265.065 101.296C267.207 101.296 268.229 100.288 268.229 98.93C268.229 97.558 267.207 96.55 265.065 96.55ZM262.839 102.5C263.119 102.5 263.357 102.626 263.357 102.92V104.978H266.773V102.92C266.773 102.626 267.011 102.5 267.277 102.5C267.543 102.5 267.795 102.626 267.795 102.92V104.978H270.553C270.791 104.978 270.903 105.174 270.903 105.412C270.903 105.65 270.791 105.846 270.553 105.846H259.577C259.339 105.846 259.227 105.65 259.227 105.412C259.227 105.174 259.339 104.978 259.577 104.978H262.335V102.92C262.335 102.626 262.587 102.5 262.839 102.5ZM273.048 104.782C273.51 104.782 273.846 105.132 273.846 105.58C273.846 106.014 273.51 106.364 273.048 106.364C272.6 106.364 272.25 106.014 272.25 105.58C272.25 105.132 272.6 104.782 273.048 104.782Z" fill="#808983"/>
</svg>
