<svg viewBox="0 0 465 416" fill="none" xmlns="http://www.w3.org/2000/svg">
<g filter="url(#filter0_d_2843_34657)">
<rect x="20" y="16" width="425" height="376" rx="20" fill="#FFFDFA"/>
<path d="M151.786 59.945C154.651 59.945 156.271 61.31 156.271 63.5C156.271 65.555 154.861 66.875 152.341 67.04V69.89H157.651C157.921 69.89 158.041 70.1 158.041 70.37C158.041 70.625 157.921 70.835 157.651 70.835H145.921C145.651 70.835 145.531 70.625 145.531 70.37C145.531 70.1 145.651 69.89 145.921 69.89H151.246V67.04C148.711 66.875 147.301 65.555 147.301 63.5C147.301 61.31 148.921 59.945 151.786 59.945ZM151.786 60.875C149.491 60.875 148.396 62 148.396 63.5C148.396 65 149.491 66.125 151.786 66.125C154.081 66.125 155.176 65 155.176 63.5C155.176 62 154.081 60.875 151.786 60.875ZM161.553 59.555C161.838 59.555 162.093 59.69 162.093 60.005V62.69C162.093 62.885 162.183 62.96 162.378 62.96H169.758C170.013 62.96 170.133 63.17 170.133 63.425C170.133 63.68 170.013 63.89 169.758 63.89H162.033C161.253 63.89 160.998 63.65 160.998 62.885V60.005C160.998 59.69 161.253 59.555 161.553 59.555ZM171.318 65.315C171.573 65.315 171.693 65.525 171.693 65.78C171.693 66.035 171.573 66.245 171.318 66.245H159.558C159.303 66.245 159.183 66.035 159.183 65.78C159.183 65.525 159.303 65.315 159.558 65.315H171.318ZM168.858 67.73C169.638 67.73 169.893 67.97 169.893 68.735V69.845C169.893 70.61 169.638 70.85 168.858 70.85H162.273C162.108 70.85 162.033 70.91 162.033 71.09V72.02C162.033 72.185 162.108 72.245 162.273 72.245H169.908C170.148 72.245 170.253 72.455 170.253 72.68C170.253 72.92 170.148 73.13 169.908 73.13H162.003C161.223 73.13 160.968 72.89 160.968 72.125V71C160.968 70.235 161.223 69.995 162.003 69.995H168.588C168.768 69.995 168.843 69.935 168.843 69.77V68.84C168.843 68.675 168.768 68.6 168.588 68.6H161.298C161.058 68.6 160.938 68.405 160.938 68.165C160.938 67.94 161.058 67.73 161.298 67.73H168.858ZM177.426 60.185C179.781 60.185 180.966 61.58 180.966 63.38C180.966 65.165 179.781 66.56 177.426 66.56C175.071 66.56 173.886 65.165 173.886 63.38C173.886 61.58 175.071 60.185 177.426 60.185ZM177.426 61.13C175.746 61.13 174.951 62.135 174.951 63.38C174.951 64.625 175.746 65.63 177.426 65.63C179.106 65.63 179.901 64.625 179.901 63.38C179.901 62.135 179.106 61.13 177.426 61.13ZM181.761 68.555C182.001 68.525 182.151 68.705 182.181 68.96C182.196 69.23 182.076 69.47 181.851 69.485C179.061 69.725 176.421 69.815 173.421 69.815C173.151 69.815 173.031 69.605 173.031 69.335C173.031 69.08 173.151 68.855 173.421 68.855C176.166 68.855 178.731 68.825 181.761 68.555ZM183.696 59.39C183.966 59.39 184.236 59.525 184.236 59.84V71.78C184.236 72.095 183.966 72.23 183.696 72.23C183.411 72.23 183.156 72.095 183.156 71.78V59.84C183.156 59.525 183.411 59.39 183.696 59.39ZM195.773 60.185C196.553 60.185 196.808 60.425 196.808 61.19V62.255C196.808 64.325 196.013 64.88 191.363 67.01C191.138 67.115 190.868 67.01 190.733 66.755C190.613 66.53 190.628 66.215 190.898 66.095C195.233 64.145 195.728 63.725 195.728 62.21V61.415C195.728 61.205 195.653 61.13 195.443 61.13H191.198C190.928 61.13 190.808 60.92 190.808 60.665C190.808 60.395 190.928 60.185 191.198 60.185H195.773ZM200.168 59.39C200.453 59.39 200.723 59.525 200.723 59.84V62.645H202.628C202.898 62.645 203.018 62.87 203.018 63.14C203.018 63.395 202.898 63.62 202.628 63.62H200.723V66.665C200.723 66.98 200.453 67.115 200.168 67.115C199.898 67.115 199.628 66.98 199.628 66.665V59.84C199.628 59.525 199.898 59.39 200.168 59.39ZM199.688 67.88C200.468 67.88 200.723 68.12 200.723 68.885V71.99C200.723 72.755 200.468 72.995 199.688 72.995H193.403C192.623 72.995 192.368 72.755 192.368 71.99V68.885C192.368 68.12 192.623 67.88 193.403 67.88H199.688ZM193.748 68.81C193.538 68.81 193.463 68.885 193.463 69.095V71.78C193.463 71.99 193.538 72.065 193.748 72.065H199.358C199.553 72.065 199.643 71.99 199.643 71.78V69.095C199.643 68.885 199.553 68.81 199.358 68.81H193.748ZM211.45 60.2C211.705 60.2 211.825 60.41 211.825 60.665C211.825 60.935 211.705 61.145 211.45 61.145H208.735V62.21C208.735 63.245 209.02 63.875 209.785 64.49C210.535 65.075 211.24 65.6 211.705 65.93C211.96 66.125 211.975 66.41 211.81 66.62C211.675 66.815 211.405 66.935 211.135 66.74C210.775 66.5 210.085 65.975 209.38 65.435C208.6 64.805 208.27 64.385 208.195 64.07H208.18C208.105 64.4 207.775 64.835 206.98 65.465C206.29 66.02 205.57 66.545 204.985 66.95C204.73 67.13 204.46 67.01 204.31 66.815C204.16 66.605 204.145 66.305 204.415 66.125C205.135 65.615 205.825 65.105 206.575 64.505C207.34 63.89 207.625 63.26 207.625 62.24V61.145H204.82C204.565 61.145 204.445 60.935 204.445 60.665C204.445 60.41 204.565 60.2 204.82 60.2H211.45ZM214.57 59.39C214.84 59.39 215.11 59.525 215.11 59.84V67.145C215.11 67.46 214.84 67.595 214.57 67.595C214.285 67.595 214.03 67.46 214.03 67.145V63.875H211.465C211.21 63.875 211.09 63.665 211.09 63.395C211.09 63.14 211.21 62.915 211.465 62.915H214.03V59.84C214.03 59.525 214.285 59.39 214.57 59.39ZM210.94 67.775C213.67 67.775 215.215 68.735 215.215 70.52C215.215 72.305 213.67 73.265 210.94 73.265C208.21 73.265 206.68 72.305 206.68 70.52C206.68 68.735 208.21 67.775 210.94 67.775ZM210.94 68.675C208.78 68.675 207.76 69.38 207.76 70.52C207.76 71.66 208.78 72.365 210.94 72.365C213.115 72.365 214.135 71.66 214.135 70.52C214.135 69.38 213.115 68.675 210.94 68.675ZM223.798 59.555C226.633 59.555 228.238 60.305 228.238 61.895C228.238 63.47 226.633 64.22 223.798 64.22C220.963 64.22 219.358 63.47 219.358 61.895C219.358 60.305 220.963 59.555 223.798 59.555ZM223.798 60.455C221.518 60.455 220.453 60.95 220.453 61.895C220.453 62.825 221.518 63.335 223.798 63.335C226.078 63.335 227.143 62.825 227.143 61.895C227.143 60.95 226.078 60.455 223.798 60.455ZM229.678 65.39C229.933 65.39 230.053 65.6 230.053 65.855C230.053 66.11 229.933 66.32 229.678 66.32H217.918C217.663 66.32 217.543 66.11 217.543 65.855C217.543 65.6 217.663 65.39 217.918 65.39H229.678ZM227.218 67.73C227.998 67.73 228.253 67.97 228.253 68.735V69.845C228.253 70.61 227.998 70.85 227.218 70.85H220.633C220.468 70.85 220.393 70.91 220.393 71.09V72.02C220.393 72.185 220.468 72.245 220.633 72.245H228.268C228.508 72.245 228.613 72.455 228.613 72.68C228.613 72.92 228.508 73.13 228.268 73.13H220.363C219.583 73.13 219.328 72.89 219.328 72.125V71C219.328 70.235 219.583 69.995 220.363 69.995H226.948C227.128 69.995 227.203 69.935 227.203 69.77V68.84C227.203 68.675 227.128 68.6 226.948 68.6H219.658C219.418 68.6 219.298 68.405 219.298 68.165C219.298 67.94 219.418 67.73 219.658 67.73H227.218ZM238.575 60.455C238.845 60.455 238.965 60.665 238.965 60.92C238.965 61.19 238.845 61.4 238.575 61.4H236.955C236.745 61.4 236.67 61.475 236.67 61.67V67.55C236.67 67.745 236.745 67.82 236.955 67.82C237.6 67.82 238.32 67.775 238.905 67.67C239.13 67.625 239.295 67.79 239.325 68.045C239.37 68.315 239.265 68.555 239.025 68.6C238.275 68.72 237.435 68.765 236.64 68.765C235.86 68.765 235.605 68.525 235.605 67.76V61.46C235.605 60.695 235.86 60.455 236.64 60.455H238.575ZM242.85 60.455C243.12 60.455 243.24 60.665 243.24 60.92C243.24 61.19 243.12 61.4 242.85 61.4H241.17C240.96 61.4 240.885 61.475 240.885 61.67V67.55C240.885 67.745 240.96 67.82 241.17 67.82C241.89 67.82 242.79 67.775 243.39 67.655C243.615 67.61 243.78 67.775 243.81 68.03C243.855 68.3 243.75 68.54 243.51 68.585C242.73 68.72 241.725 68.765 240.855 68.765C240.075 68.765 239.82 68.525 239.82 67.76V61.46C239.82 60.695 240.075 60.455 240.855 60.455H242.85ZM245.805 59.39C246.09 59.39 246.345 59.525 246.345 59.84V71.78C246.345 72.095 246.09 72.23 245.805 72.23C245.535 72.23 245.28 72.095 245.28 71.78V64.94H243.345C243.075 64.94 242.955 64.73 242.955 64.46C242.955 64.19 243.075 63.98 243.345 63.98H245.28V59.84C245.28 59.525 245.535 59.39 245.805 59.39ZM254.852 59.555C257.687 59.555 259.292 60.305 259.292 61.895C259.292 63.365 257.882 64.115 255.392 64.205V65.585H260.747C260.987 65.585 261.107 65.795 261.107 66.05C261.107 66.29 260.987 66.5 260.747 66.5H248.957C248.717 66.5 248.597 66.29 248.597 66.05C248.597 65.795 248.717 65.585 248.957 65.585H254.312V64.205C251.807 64.115 250.412 63.365 250.412 61.895C250.412 60.305 252.017 59.555 254.852 59.555ZM258.272 67.73C259.052 67.73 259.307 67.97 259.307 68.735V69.845C259.307 70.61 259.052 70.85 258.272 70.85H251.687C251.522 70.85 251.447 70.91 251.447 71.09V72.02C251.447 72.185 251.522 72.245 251.687 72.245H259.322C259.562 72.245 259.667 72.455 259.667 72.68C259.667 72.92 259.562 73.13 259.322 73.13H251.417C250.637 73.13 250.382 72.89 250.382 72.125V71C250.382 70.235 250.637 69.995 251.417 69.995H258.002C258.182 69.995 258.257 69.935 258.257 69.77V68.84C258.257 68.675 258.182 68.6 258.002 68.6H250.712C250.472 68.6 250.352 68.405 250.352 68.165C250.352 67.94 250.472 67.73 250.712 67.73H258.272ZM254.852 60.455C252.572 60.455 251.507 60.95 251.507 61.895C251.507 62.825 252.572 63.335 254.852 63.335C257.132 63.335 258.197 62.825 258.197 61.895C258.197 60.95 257.132 60.455 254.852 60.455ZM267.755 60.35C268.535 60.35 268.79 60.59 268.79 61.355V64.13C268.79 64.895 268.535 65.135 267.755 65.135H264.455C264.245 65.135 264.17 65.21 264.17 65.405V67.88C264.17 68.075 264.245 68.15 264.455 68.15C266.435 68.15 268.37 68.09 270.02 67.91C270.245 67.88 270.425 68.045 270.455 68.3C270.485 68.6 270.365 68.84 270.125 68.855C268.685 69.02 266.735 69.095 264.125 69.095C263.345 69.095 263.09 68.855 263.09 68.09V65.225C263.09 64.46 263.345 64.22 264.125 64.22H267.425C267.62 64.22 267.71 64.145 267.71 63.935V61.565C267.71 61.37 267.62 61.295 267.425 61.295H263.465C263.21 61.295 263.09 61.085 263.09 60.815C263.09 60.56 263.21 60.35 263.465 60.35H267.755ZM272.93 59.39C273.2 59.39 273.47 59.525 273.47 59.84V71.78C273.47 72.095 273.2 72.23 272.93 72.23C272.66 72.23 272.39 72.095 272.39 71.78V66.395H270.17C269.9 66.395 269.78 66.17 269.78 65.915C269.78 65.66 269.9 65.45 270.17 65.45H272.39V63.26H270.17C269.9 63.26 269.78 63.035 269.78 62.78C269.78 62.525 269.9 62.315 270.17 62.315H272.39V59.84C272.39 59.525 272.66 59.39 272.93 59.39ZM281.977 60.05C282.247 60.05 282.517 60.185 282.517 60.5V62.585H289.297V60.5C289.297 60.185 289.567 60.05 289.837 60.05C290.107 60.05 290.377 60.185 290.377 60.5V65.885C290.377 66.65 290.122 66.89 289.342 66.89H286.462V69.89H291.772C292.042 69.89 292.162 70.1 292.162 70.37C292.162 70.625 292.042 70.835 291.772 70.835H280.042C279.772 70.835 279.652 70.625 279.652 70.37C279.652 70.1 279.772 69.89 280.042 69.89H285.367V66.89H282.472C281.692 66.89 281.437 66.65 281.437 65.885V60.5C281.437 60.185 281.707 60.05 281.977 60.05ZM282.517 65.675C282.517 65.87 282.607 65.945 282.802 65.945H289.012C289.207 65.945 289.297 65.87 289.297 65.675V63.53H282.517V65.675ZM297.009 60.2C299.244 60.2 300.399 61.73 300.399 64.58C300.399 67.43 299.244 68.96 297.009 68.96C294.774 68.96 293.604 67.43 293.604 64.58C293.604 61.73 294.774 60.2 297.009 60.2ZM297.009 61.175C295.389 61.175 294.684 62.405 294.684 64.58C294.684 66.755 295.389 67.985 297.009 67.985C298.629 67.985 299.334 66.755 299.334 64.58C299.334 62.405 298.629 61.175 297.009 61.175ZM303.234 59.39C303.519 59.39 303.789 59.525 303.789 59.84V64.025H305.694C305.964 64.025 306.084 64.25 306.084 64.505C306.084 64.775 305.964 65 305.694 65H303.789V71.78C303.789 72.095 303.519 72.23 303.234 72.23C302.964 72.23 302.694 72.095 302.694 71.78V59.84C302.694 59.525 302.964 59.39 303.234 59.39ZM313.212 59.945C316.077 59.945 317.697 61.265 317.697 63.425C317.697 65.585 316.077 66.905 313.212 66.905C310.347 66.905 308.727 65.585 308.727 63.425C308.727 61.265 310.347 59.945 313.212 59.945ZM313.212 60.875C310.917 60.875 309.822 61.955 309.822 63.425C309.822 64.88 310.917 65.96 313.212 65.96C315.507 65.96 316.602 64.88 316.602 63.425C316.602 61.955 315.507 60.875 313.212 60.875ZM310.827 67.25C311.127 67.25 311.382 67.385 311.382 67.7V69.905H315.042V67.7C315.042 67.385 315.297 67.25 315.582 67.25C315.867 67.25 316.137 67.385 316.137 67.7V69.905H319.092C319.347 69.905 319.467 70.115 319.467 70.37C319.467 70.625 319.347 70.835 319.092 70.835H307.332C307.077 70.835 306.957 70.625 306.957 70.37C306.957 70.115 307.077 69.905 307.332 69.905H310.287V67.7C310.287 67.385 310.557 67.25 310.827 67.25Z" fill="#333835"/>
<path d="M163.291 85.018C163.557 85.018 163.809 85.144 163.809 85.438V91.71C163.809 91.906 163.879 91.976 164.075 91.976C166.091 91.976 167.757 91.864 169.423 91.64C169.647 91.612 169.801 91.766 169.843 92.018C169.871 92.27 169.773 92.508 169.549 92.536C168.093 92.732 166.357 92.858 163.739 92.858C163.011 92.858 162.773 92.634 162.773 91.92V85.438C162.773 85.144 163.025 85.018 163.291 85.018ZM171.425 84.164C171.691 84.164 171.943 84.29 171.943 84.584V88.49H173.721C173.973 88.49 174.085 88.7 174.085 88.938C174.085 89.19 173.973 89.4 173.721 89.4H171.943V95.728C171.943 96.022 171.691 96.148 171.425 96.148C171.173 96.148 170.921 96.022 170.921 95.728V84.584C170.921 84.29 171.173 84.164 171.425 84.164ZM177.111 84.514C177.377 84.514 177.615 84.64 177.615 84.934V87.986C177.615 88.168 177.699 88.238 177.881 88.238H184.769C185.007 88.238 185.119 88.434 185.119 88.672C185.119 88.91 185.007 89.12 184.769 89.12H177.559C176.831 89.12 176.593 88.896 176.593 88.182V84.934C176.593 84.64 176.831 84.514 177.111 84.514ZM186.211 90.828C186.463 90.828 186.575 91.024 186.575 91.276C186.575 91.514 186.463 91.71 186.211 91.71H175.263C175.011 91.71 174.899 91.514 174.899 91.276C174.899 91.024 175.011 90.828 175.263 90.828H186.211ZM177.083 92.984C177.349 92.984 177.587 93.11 177.587 93.404V95.686C177.587 95.882 177.671 95.952 177.853 95.952H184.797C185.035 95.952 185.147 96.148 185.147 96.386C185.147 96.624 185.035 96.82 184.797 96.82H177.531C176.803 96.82 176.565 96.596 176.565 95.882V93.404C176.565 93.11 176.803 92.984 177.083 92.984ZM201.109 84.164C201.361 84.164 201.613 84.29 201.613 84.584V95.728C201.613 96.022 201.361 96.148 201.109 96.148C200.843 96.148 200.605 96.022 200.605 95.728V89.442H197.889C197.777 91.822 196.727 93.096 194.767 93.096C192.695 93.096 191.617 91.668 191.617 89.008C191.617 86.348 192.695 84.92 194.767 84.92C196.713 84.92 197.777 86.194 197.889 88.56H200.605V84.584C200.605 84.29 200.843 84.164 201.109 84.164ZM194.767 85.83C193.269 85.83 192.625 86.978 192.625 89.008C192.625 91.038 193.269 92.186 194.767 92.186C196.265 92.186 196.909 91.038 196.909 89.008C196.909 86.978 196.265 85.83 194.767 85.83ZM211.206 85.018C211.458 85.018 211.57 85.214 211.57 85.452C211.57 85.704 211.458 85.9 211.206 85.9H209.666C209.47 85.9 209.4 85.97 209.4 86.152V90.128C209.4 90.31 209.47 90.38 209.666 90.38C210.338 90.38 211.206 90.338 211.766 90.226C211.976 90.184 212.13 90.338 212.158 90.576C212.2 90.828 212.102 91.052 211.878 91.094C211.15 91.22 210.282 91.262 209.372 91.262C208.644 91.262 208.406 91.038 208.406 90.324V85.956C208.406 85.242 208.644 85.018 209.372 85.018H211.206ZM207.244 85.018C207.496 85.018 207.608 85.214 207.608 85.452C207.608 85.704 207.496 85.9 207.244 85.9H205.76C205.564 85.9 205.494 85.97 205.494 86.152V90.128C205.494 90.31 205.564 90.38 205.76 90.38C206.362 90.38 207.006 90.338 207.552 90.24C207.762 90.198 207.916 90.352 207.944 90.59C207.986 90.842 207.888 91.066 207.664 91.108C206.964 91.22 206.292 91.262 205.466 91.262C204.738 91.262 204.5 91.038 204.5 90.324V85.956C204.5 85.242 204.738 85.018 205.466 85.018H207.244ZM214.02 84.164C214.286 84.164 214.524 84.29 214.524 84.584V93.138C214.524 93.418 214.286 93.544 214.02 93.544C213.768 93.544 213.53 93.418 213.53 93.138V88.448H211.724C211.472 88.448 211.36 88.252 211.36 88C211.36 87.762 211.472 87.566 211.724 87.566H213.53V84.584C213.53 84.29 213.768 84.164 214.02 84.164ZM206.936 92.536C207.202 92.536 207.454 92.662 207.454 92.956V95.616C207.454 95.798 207.524 95.868 207.72 95.868H214.524C214.776 95.868 214.888 96.078 214.888 96.316C214.888 96.554 214.776 96.764 214.524 96.764H207.384C206.656 96.764 206.418 96.54 206.418 95.826V92.956C206.418 92.662 206.67 92.536 206.936 92.536ZM225.544 85.13C226.272 85.13 226.51 85.354 226.51 86.068V91.948C226.51 92.662 226.272 92.886 225.544 92.886H221.624C220.896 92.886 220.658 92.662 220.658 91.948V86.068C220.658 85.354 220.896 85.13 221.624 85.13H225.544ZM221.932 86.012C221.75 86.012 221.666 86.082 221.666 86.264V91.752C221.666 91.934 221.75 92.004 221.932 92.004H225.222C225.418 92.004 225.488 91.934 225.488 91.752V86.264C225.488 86.082 225.418 86.012 225.222 86.012H221.932ZM229.394 84.164C229.66 84.164 229.912 84.29 229.912 84.584V88.49H231.69C231.942 88.49 232.054 88.7 232.054 88.938C232.054 89.19 231.942 89.4 231.69 89.4H229.912V95.728C229.912 96.022 229.66 96.148 229.394 96.148C229.142 96.148 228.89 96.022 228.89 95.728V84.584C228.89 84.29 229.142 84.164 229.394 84.164ZM238.706 84.458C241.352 84.458 242.85 85.214 242.85 86.782C242.85 88.35 241.352 89.106 238.706 89.106C236.06 89.106 234.562 88.35 234.562 86.782C234.562 85.214 236.06 84.458 238.706 84.458ZM238.706 85.298C236.578 85.298 235.584 85.816 235.584 86.782C235.584 87.748 236.578 88.266 238.706 88.266C240.834 88.266 241.828 87.748 241.828 86.782C241.828 85.816 240.834 85.298 238.706 85.298ZM244.194 90.324C244.432 90.324 244.544 90.52 244.544 90.758C244.544 91.01 244.432 91.206 244.194 91.206H233.218C232.98 91.206 232.868 91.01 232.868 90.758C232.868 90.52 232.98 90.324 233.218 90.324H244.194ZM241.912 92.62C242.64 92.62 242.878 92.844 242.878 93.558V95.98C242.878 96.694 242.64 96.918 241.912 96.918H235.5C234.772 96.918 234.534 96.694 234.534 95.98V93.558C234.534 92.844 234.772 92.62 235.5 92.62H241.912ZM235.808 93.474C235.612 93.474 235.542 93.544 235.542 93.726V95.812C235.542 95.994 235.612 96.064 235.808 96.064H241.604C241.8 96.064 241.87 95.994 241.87 95.812V93.726C241.87 93.544 241.8 93.474 241.604 93.474H235.808ZM249.362 84.906C251.462 84.906 252.54 86.348 252.54 89.008C252.54 91.668 251.462 93.11 249.362 93.11C247.262 93.11 246.17 91.668 246.17 89.008C246.17 86.348 247.262 84.906 249.362 84.906ZM249.362 85.816C247.836 85.816 247.178 86.978 247.178 89.008C247.178 91.038 247.836 92.2 249.362 92.2C250.888 92.2 251.546 91.038 251.546 89.008C251.546 86.978 250.888 85.816 249.362 85.816ZM255.48 84.164C255.746 84.164 255.998 84.29 255.998 84.584V95.728C255.998 96.022 255.746 96.148 255.48 96.148C255.228 96.148 254.976 96.022 254.976 95.728V84.584C254.976 84.29 255.228 84.164 255.48 84.164ZM268.32 84.164C268.572 84.164 268.824 84.29 268.824 84.584V90.954C268.824 91.248 268.572 91.374 268.32 91.374C268.054 91.374 267.816 91.248 267.816 90.954V88.098H265.044C264.876 89.54 263.868 90.618 261.95 90.618C259.836 90.618 258.828 89.316 258.828 87.664C258.828 85.998 259.836 84.696 261.95 84.696C263.868 84.696 264.876 85.774 265.044 87.216H267.816V84.584C267.816 84.29 268.054 84.164 268.32 84.164ZM262.552 91.794C262.804 91.794 263.042 91.92 263.042 92.214V92.97C263.042 93.894 263.196 94.23 263.84 94.958C264.078 95.224 264.358 95.532 264.61 95.756C264.764 95.91 264.876 95.91 265.044 95.756C265.282 95.532 265.576 95.224 265.814 94.958C266.444 94.23 266.598 93.894 266.598 92.97V92.214C266.598 91.92 266.85 91.794 267.102 91.794C267.354 91.794 267.606 91.92 267.606 92.214V92.97C267.606 93.908 267.774 94.272 268.53 94.958C268.88 95.294 269.398 95.7 269.902 96.078C270.084 96.218 270.084 96.47 269.93 96.68C269.762 96.876 269.524 96.932 269.3 96.764C268.824 96.4 268.404 96.05 268.082 95.77C267.438 95.21 267.186 94.902 267.102 94.622H267.088C267.004 94.916 266.794 95.168 266.164 95.84C265.926 96.092 265.688 96.33 265.45 96.554C264.974 96.988 264.68 96.988 264.19 96.554C263.952 96.33 263.728 96.092 263.476 95.84C262.846 95.168 262.65 94.916 262.566 94.622H262.552C262.468 94.916 262.216 95.224 261.558 95.784C261.25 96.05 260.816 96.414 260.34 96.778C260.13 96.932 259.878 96.89 259.724 96.68C259.556 96.484 259.57 96.218 259.738 96.078C260.256 95.7 260.76 95.294 261.124 94.958C261.88 94.272 262.048 93.908 262.048 92.97V92.214C262.048 91.92 262.3 91.794 262.552 91.794ZM261.95 85.564C260.424 85.564 259.822 86.53 259.822 87.664C259.822 88.784 260.424 89.75 261.95 89.75C263.476 89.75 264.078 88.784 264.078 87.664C264.078 86.53 263.476 85.564 261.95 85.564ZM276.933 84.318C279.579 84.318 281.077 85.018 281.077 86.502C281.077 87.972 279.579 88.672 276.933 88.672C274.287 88.672 272.789 87.972 272.789 86.502C272.789 85.018 274.287 84.318 276.933 84.318ZM276.933 85.158C274.805 85.158 273.811 85.62 273.811 86.502C273.811 87.37 274.805 87.846 276.933 87.846C279.061 87.846 280.055 87.37 280.055 86.502C280.055 85.62 279.061 85.158 276.933 85.158ZM282.421 89.764C282.659 89.764 282.771 89.96 282.771 90.198C282.771 90.436 282.659 90.632 282.421 90.632H271.445C271.207 90.632 271.095 90.436 271.095 90.198C271.095 89.96 271.207 89.764 271.445 89.764H282.421ZM280.125 91.948C280.853 91.948 281.091 92.172 281.091 92.886V93.922C281.091 94.636 280.853 94.86 280.125 94.86H273.979C273.825 94.86 273.755 94.916 273.755 95.084V95.952C273.755 96.106 273.825 96.162 273.979 96.162H281.105C281.329 96.162 281.427 96.358 281.427 96.568C281.427 96.792 281.329 96.988 281.105 96.988H273.727C272.999 96.988 272.761 96.764 272.761 96.05V95C272.761 94.286 272.999 94.062 273.727 94.062H279.873C280.041 94.062 280.111 94.006 280.111 93.852V92.984C280.111 92.83 280.041 92.76 279.873 92.76H273.069C272.845 92.76 272.733 92.578 272.733 92.354C272.733 92.144 272.845 91.948 273.069 91.948H280.125ZM289.871 85.158C290.599 85.158 290.837 85.382 290.837 86.096V87.818C290.837 90.086 290.627 91.038 288.121 93.712C287.925 93.922 287.659 93.894 287.449 93.712C287.267 93.53 287.225 93.292 287.393 93.096C289.661 90.646 289.857 89.792 289.857 87.776V86.306C289.857 86.124 289.773 86.054 289.591 86.054H288.233C287.981 86.054 287.869 85.844 287.869 85.606C287.869 85.368 287.981 85.158 288.233 85.158H289.871ZM286.315 85.158C287.071 85.158 287.281 85.354 287.281 86.096V87.468C287.281 89.666 287.169 90.254 284.677 92.662C284.481 92.858 284.229 92.83 284.033 92.634C283.837 92.452 283.795 92.2 283.991 92.018C286.217 89.848 286.301 89.358 286.301 87.412V86.306C286.301 86.124 286.217 86.054 286.035 86.054H284.551C284.299 86.054 284.187 85.844 284.187 85.606C284.187 85.368 284.299 85.158 284.551 85.158H286.315ZM293.287 84.164C293.553 84.164 293.791 84.29 293.791 84.584V88.49H295.401C295.653 88.49 295.765 88.7 295.765 88.938C295.765 89.176 295.653 89.386 295.401 89.386H293.791V95.728C293.791 96.022 293.553 96.148 293.287 96.148C293.035 96.148 292.797 96.022 292.797 95.728V84.584C292.797 84.29 293.035 84.164 293.287 84.164ZM299.617 84.836C301.465 84.836 302.599 85.83 302.599 87.356V87.51C302.599 88.448 302.109 89.092 301.143 89.96C299.995 90.996 299.869 91.374 299.869 92.074C299.869 92.326 299.631 92.466 299.393 92.466C299.127 92.466 298.889 92.34 298.889 92.06C298.889 91.108 299.057 90.604 300.233 89.554C301.255 88.644 301.577 88.182 301.577 87.51V87.398C301.577 86.418 300.863 85.76 299.631 85.76C298.693 85.76 298.063 86.11 297.531 86.6C297.321 86.768 297.069 86.74 296.901 86.53C296.719 86.334 296.719 86.068 296.929 85.886C297.517 85.326 298.483 84.836 299.617 84.836ZM299.379 93.81C299.827 93.81 300.163 94.16 300.163 94.594C300.163 95.028 299.827 95.364 299.379 95.364C298.945 95.364 298.595 95.028 298.595 94.594C298.595 94.16 298.945 93.81 299.379 93.81Z" fill="#808983"/>
<path d="M127.935 142.342C135.296 142.585 139.792 147.065 142.674 152.207C143.094 152.951 143.471 153.718 143.812 154.498C143.993 154.914 144.17 155.329 144.341 155.751C146.431 160.88 147.833 166.526 145.818 172.013C142.585 180.814 133.652 181.955 123.478 181.36C121.698 181.259 119.942 180.91 118.263 180.325C116.7 179.794 115.241 179.01 113.947 178.005C110.052 174.889 108.509 170.543 108.463 166.434C108.407 161.254 110.084 157.77 112.503 153.21C114.508 149.42 118.483 145.205 122.979 143.329C124.535 142.647 126.228 142.31 127.935 142.342Z" fill="white"/>
<path d="M137.56 145.887C138.618 146.759 139.578 147.739 140.422 148.811C141.265 149.883 142.019 151.019 142.676 152.208C143.096 152.952 143.474 153.719 143.815 154.499C143.996 154.914 144.173 155.33 144.343 155.752C146.434 160.881 147.835 166.527 145.82 172.014C142.588 180.815 129.588 183.176 119.001 180.565" stroke="#868686" stroke-width="1.3" stroke-linecap="round" stroke-linejoin="round"/>
<path d="M125.179 142.573C126.018 142.394 126.877 142.317 127.735 142.343C130.197 142.397 132.609 143.02 134.775 144.161" stroke="#868686" stroke-width="1.3" stroke-linecap="round" stroke-linejoin="round"/>
<path d="M113.745 178.006C106.488 172.202 107.581 162.187 111.345 154.828C113.6 150.415 117.007 146.251 121.592 143.883" stroke="#868686" stroke-width="1.3" stroke-linecap="round" stroke-linejoin="round"/>
<path d="M130.867 161.083C130.616 160.525 130.208 160.052 129.694 159.72C129.18 159.388 128.581 159.211 127.969 159.211C127.357 159.211 126.758 159.388 126.244 159.72C125.729 160.052 125.322 160.525 125.07 161.083C125.534 162.333 126.668 163.79 127.969 163.79C129.269 163.79 130.404 162.333 130.867 161.083Z" fill="#FFAFA7"/>
<path d="M129.684 144.119C130.269 143.412 130.685 142.58 130.898 141.687C131.336 139.891 130.949 138.14 130.016 137.021C128.671 137.584 127.52 138.952 127.082 140.754C126.645 142.556 127.028 144.301 127.961 145.416" fill="#FFF8F2"/>
<path d="M129.684 144.119C130.269 143.412 130.685 142.58 130.898 141.687C131.336 139.891 130.949 138.14 130.016 137.021C128.671 137.584 127.52 138.952 127.082 140.754C126.645 142.556 127.028 144.301 127.961 145.416" stroke="#868686" stroke-width="1.3" stroke-linecap="round" stroke-linejoin="round"/>
<path d="M122.824 156.066L125.167 157.035L122.824 158.163" stroke="#868686" stroke-width="1.3" stroke-linecap="round" stroke-linejoin="round"/>
<path d="M133.113 156.066L130.768 157.035L133.113 158.163" stroke="#868686" stroke-width="1.3" stroke-linecap="round" stroke-linejoin="round"/>
<path d="M116.303 135.427L116.121 135.369L115.945 135.318C115.443 135.171 114.904 135.229 114.445 135.479C113.985 135.728 113.644 136.15 113.494 136.65L113.443 136.826L113.414 136.919L113.321 136.893L113.146 136.839C112.643 136.691 112.102 136.748 111.642 136.998C111.181 137.248 110.838 137.67 110.688 138.172L110.637 138.351L110.583 138.53C110.437 139.031 110.495 139.569 110.745 140.028C110.994 140.487 111.415 140.828 111.915 140.977L112.094 141.028L112.187 141.057L116.341 142.278L116.843 140.578L117.562 138.143L117.588 138.05L117.642 137.871C117.787 137.37 117.727 136.831 117.476 136.373C117.225 135.915 116.804 135.575 116.303 135.427Z" fill="#FFE1FE" stroke="#868686" stroke-width="1.3" stroke-linecap="round" stroke-linejoin="round"/>
<path d="M144.514 146.694L148.801 147.156L148.897 147.164C149.466 147.224 150.035 147.056 150.481 146.697C150.926 146.338 151.211 145.817 151.274 145.248C151.334 144.68 151.167 144.111 150.809 143.665C150.45 143.22 149.929 142.936 149.361 142.874L149.265 142.862L149.273 142.767C149.333 142.198 149.166 141.629 148.807 141.184C148.449 140.739 147.929 140.455 147.361 140.392C146.793 140.332 146.224 140.5 145.779 140.858C145.334 141.217 145.049 141.737 144.987 142.305L144.975 142.401L144.517 146.707" fill="#FFE1FE"/>
<path d="M144.514 146.694L148.801 147.156L148.897 147.164C149.466 147.224 150.035 147.056 150.481 146.697C150.926 146.338 151.211 145.817 151.274 145.248C151.334 144.68 151.167 144.111 150.809 143.665C150.45 143.22 149.929 142.936 149.361 142.874L149.265 142.862L149.273 142.767C149.333 142.198 149.166 141.629 148.807 141.184C148.449 140.739 147.929 140.455 147.361 140.392C146.793 140.332 146.224 140.5 145.779 140.858C145.334 141.217 145.049 141.737 144.987 142.305L144.975 142.401L144.517 146.707" stroke="#868686" stroke-width="1.3" stroke-linecap="round" stroke-linejoin="round"/>
<path d="M120.175 163.561C121.753 163.561 123.032 162.856 123.032 161.986C123.032 161.116 121.753 160.41 120.175 160.41C118.598 160.41 117.318 161.116 117.318 161.986C117.318 162.856 118.598 163.561 120.175 163.561Z" fill="#FFD1F6"/>
<path d="M135.755 163.561C137.333 163.561 138.612 162.856 138.612 161.986C138.612 161.116 137.333 160.41 135.755 160.41C134.178 160.41 132.899 161.116 132.899 161.986C132.899 162.856 134.178 163.561 135.755 163.561Z" fill="#FFD1F6"/>
<path d="M116.204 161.258C116.422 161.835 116.487 162.458 116.393 163.068C116.3 163.677 116.051 164.252 115.671 164.738C115.518 164.935 115.415 165.167 115.373 165.414C115.331 165.66 115.349 165.913 115.428 166.15C115.595 166.669 115.641 167.219 115.563 167.759C115.485 168.298 115.284 168.813 114.977 169.263C114.188 170.512 110.222 170.672 110.046 169.205C109.695 166.285 109.372 162.67 110.261 160.846C110.89 159.539 115.763 159.874 116.204 161.258Z" fill="#FFFCBB"/>
<path d="M115.551 167.348C115.906 168.946 113.189 171.844 108.633 173.353C108.323 173.474 107.99 173.524 107.658 173.501C107.327 173.477 107.004 173.379 106.715 173.215C106.047 172.794 105.737 171.982 105.574 171.24C105.041 168.818 105.546 166.495 106.795 164.386C107.754 162.788 109.243 161.296 110.205 159.759C110.758 158.877 111.269 157.979 111.729 157.071C111.836 156.849 112.002 156.661 112.208 156.528C112.462 156.356 112.77 156.284 113.073 156.323C113.377 156.362 113.656 156.511 113.857 156.742C114.353 157.267 114.663 157.941 114.739 158.659C114.937 160.455 114.314 162.12 111.78 163.363" fill="#FFFCBB"/>
<path d="M115.551 167.348C115.906 168.946 113.189 171.844 108.633 173.353C108.323 173.474 107.99 173.524 107.658 173.501C107.327 173.477 107.004 173.379 106.715 173.215C106.047 172.794 105.737 171.982 105.574 171.24C105.041 168.818 105.546 166.495 106.795 164.386C107.754 162.788 109.243 161.296 110.205 159.759C110.758 158.877 111.269 157.979 111.729 157.071C111.836 156.849 112.002 156.661 112.208 156.528C112.462 156.356 112.77 156.284 113.073 156.323C113.377 156.362 113.656 156.511 113.857 156.742C114.353 157.267 114.663 157.941 114.739 158.659C114.937 160.455 114.314 162.12 111.78 163.363" stroke="#868686" stroke-width="1.3" stroke-linecap="round" stroke-linejoin="round"/>
<path d="M116.199 162.279C116.353 162.79 116.346 163.335 116.18 163.842C115.736 165.165 113.924 166.491 111.914 166.919" fill="#FFFCBB"/>
<path d="M116.199 162.279C116.353 162.79 116.346 163.335 116.18 163.842C115.736 165.165 113.924 166.491 111.914 166.919" stroke="#868686" stroke-width="1.3" stroke-linecap="round" stroke-linejoin="round"/>
<path d="M137.83 160.682C137.559 161.235 137.434 161.849 137.469 162.465C137.503 163.08 137.694 163.677 138.025 164.197C138.159 164.408 138.238 164.649 138.257 164.898C138.275 165.147 138.232 165.397 138.131 165.625C137.915 166.126 137.817 166.67 137.844 167.215C137.87 167.76 138.021 168.292 138.284 168.77C138.952 170.086 143.109 169.949 143.426 168.508C144.065 165.632 142.991 162.653 142.282 160.749C141.78 159.403 138.406 159.355 137.83 160.682Z" fill="#FFFCBB"/>
<path d="M137.828 166.89C137.323 168.437 139.745 171.594 144.136 173.537C144.434 173.69 144.764 173.773 145.099 173.782C145.434 173.79 145.767 173.723 146.072 173.585C146.775 173.227 147.162 172.451 147.395 171.728C148.159 169.37 147.884 167.008 146.843 164.791C146.044 163.094 144.708 161.477 143.896 159.853C143.421 158.914 142.996 157.973 142.621 157.032C142.532 156.798 142.381 156.594 142.183 156.441C141.947 156.245 141.647 156.143 141.341 156.153C141.034 156.163 140.742 156.285 140.518 156.495C139.978 156.966 139.607 157.601 139.461 158.304C139.087 160.071 139.547 161.787 141.95 163.266" fill="#FFFCBB"/>
<path d="M137.828 166.89C137.323 168.437 139.745 171.594 144.136 173.537C144.434 173.69 144.764 173.773 145.099 173.782C145.434 173.79 145.767 173.723 146.072 173.585C146.775 173.227 147.162 172.451 147.395 171.728C148.159 169.37 147.884 167.008 146.843 164.791C146.044 163.094 144.708 161.477 143.896 159.853C143.421 158.914 142.996 157.973 142.621 157.032C142.532 156.798 142.381 156.594 142.183 156.441C141.947 156.245 141.647 156.143 141.341 156.153C141.034 156.163 140.742 156.285 140.518 156.495C139.978 156.966 139.607 157.601 139.461 158.304C139.087 160.071 139.547 161.787 141.95 163.266" stroke="#868686" stroke-width="1.3" stroke-linecap="round" stroke-linejoin="round"/>
<path d="M137.666 161.771C137.463 162.265 137.417 162.81 137.535 163.331C137.854 164.686 139.526 166.181 141.482 166.805" fill="#FFFCBB"/>
<path d="M137.666 161.771C137.463 162.265 137.417 162.81 137.535 163.331C137.854 164.686 139.526 166.181 141.482 166.805" stroke="#868686" stroke-width="1.3" stroke-linecap="round" stroke-linejoin="round"/>
<path d="M239.831 134.861C239.831 134.986 239.793 135.109 239.724 135.213C239.654 135.317 239.555 135.398 239.439 135.446C239.323 135.494 239.196 135.507 239.073 135.482C238.95 135.458 238.837 135.398 238.748 135.309C238.66 135.22 238.599 135.107 238.575 134.984C238.55 134.861 238.563 134.734 238.611 134.618C238.659 134.502 238.74 134.403 238.844 134.333C238.949 134.264 239.071 134.227 239.197 134.227C239.365 134.227 239.526 134.293 239.645 134.412C239.764 134.531 239.831 134.692 239.831 134.861Z" fill="#868686"/>
<path d="M245.112 137.471L240.581 140.87L238.426 136.652L236.012 142.49L241.301 144.675L244.814 146.127L248.011 147.449L250.422 141.612L245.918 143.076L245.112 137.471Z" fill="#FFF9CF"/>
<path d="M244.812 146.127L248.01 147.449L250.421 141.611L245.917 143.076L245.11 137.471" stroke="#868686" stroke-width="1.3" stroke-linecap="round" stroke-linejoin="round"/>
<path d="M241.34 140.299L240.581 140.87L238.426 136.652L236.012 142.49L241.301 144.675" stroke="#868686" stroke-width="1.3" stroke-linecap="round" stroke-linejoin="round"/>
<path d="M245.11 137.471L243.08 138.995" stroke="#868686" stroke-width="1.3" stroke-linecap="round" stroke-linejoin="round"/>
<path d="M246.725 135.416C246.726 135.542 246.689 135.665 246.62 135.769C246.55 135.874 246.452 135.956 246.336 136.004C246.22 136.053 246.092 136.066 245.969 136.041C245.846 136.017 245.733 135.957 245.644 135.869C245.555 135.78 245.494 135.667 245.469 135.544C245.445 135.421 245.457 135.293 245.505 135.177C245.553 135.061 245.634 134.962 245.739 134.892C245.843 134.822 245.966 134.785 246.091 134.785C246.259 134.785 246.42 134.852 246.538 134.97C246.657 135.088 246.724 135.249 246.725 135.416Z" fill="#868686"/>
<path d="M252.299 139.749C252.299 139.875 252.262 139.997 252.192 140.102C252.123 140.206 252.024 140.287 251.908 140.335C251.792 140.383 251.665 140.396 251.542 140.371C251.419 140.347 251.306 140.286 251.217 140.198C251.128 140.109 251.068 139.996 251.043 139.873C251.019 139.75 251.032 139.622 251.08 139.507C251.128 139.391 251.209 139.292 251.313 139.222C251.417 139.152 251.54 139.115 251.665 139.115C251.833 139.115 251.995 139.182 252.114 139.301C252.233 139.42 252.299 139.581 252.299 139.749Z" fill="#868686"/>
<path d="M208.233 160.868C208.03 161.874 208.111 163.055 209.081 164.038C209.242 164.206 209.359 164.41 209.423 164.634C209.487 164.857 209.495 165.093 209.447 165.321C209.345 165.818 209.358 166.333 209.485 166.825C209.613 167.316 209.851 167.772 210.183 168.158C211.04 169.232 214.198 168.667 214.216 167.291C214.246 164.55 211.966 161.966 210.959 160.364C210.802 160.11 210.571 159.909 210.297 159.788C210.023 159.666 209.719 159.631 209.424 159.685C209.13 159.739 208.858 159.881 208.646 160.092C208.433 160.303 208.289 160.573 208.233 160.868Z" fill="#D9FFC0"/>
<path d="M209.452 166.444C209.285 167.95 212.092 170.37 216.465 171.308C216.768 171.393 217.085 171.408 217.395 171.353C217.704 171.298 217.997 171.173 218.251 170.989C218.826 170.528 219.031 169.745 219.108 169.042C219.358 166.747 218.656 164.646 217.287 162.818C216.239 161.422 214.712 160.201 213.664 158.874C213.069 158.114 212.508 157.336 211.982 156.54C211.858 156.344 211.681 156.185 211.473 156.082C211.219 155.952 210.928 155.918 210.651 155.985C210.374 156.052 210.13 156.216 209.964 156.448C209.561 156.981 209.343 157.631 209.342 158.299C209.342 159.981 210.083 161.461 212.557 162.354" fill="#D9FFC0"/>
<path d="M209.452 166.444C209.285 167.95 212.092 170.37 216.465 171.308C216.768 171.393 217.085 171.408 217.395 171.353C217.704 171.298 217.997 171.173 218.251 170.989C218.826 170.528 219.031 169.745 219.108 169.042C219.358 166.747 218.656 164.646 217.287 162.818C216.239 161.422 214.712 160.201 213.664 158.874C213.069 158.114 212.508 157.336 211.982 156.54C211.858 156.344 211.681 156.185 211.473 156.082C211.219 155.952 210.928 155.918 210.651 155.985C210.374 156.052 210.13 156.216 209.964 156.448C209.561 156.981 209.343 157.631 209.342 158.299C209.342 159.981 210.083 161.461 212.557 162.354" stroke="#868686" stroke-width="1.3" stroke-linecap="round" stroke-linejoin="round"/>
<path d="M208.348 161.803C208.257 162.292 208.318 162.797 208.523 163.249C209.068 164.44 210.881 165.473 212.783 165.67" fill="#D9FFC0"/>
<path d="M208.348 161.803C208.257 162.292 208.318 162.797 208.523 163.249C209.068 164.44 210.881 165.473 212.783 165.67" stroke="#868686" stroke-width="1.3" stroke-linecap="round" stroke-linejoin="round"/>
<path d="M233.241 144.44C240.48 144.325 245.146 148.465 248.268 153.326C248.722 154.032 249.135 154.76 249.514 155.493C249.717 155.89 249.914 156.286 250.103 156.685C252.446 161.574 254.139 166.996 252.473 172.424C249.798 181.13 241.09 182.669 231.071 182.576C229.312 182.561 227.566 182.305 225.89 181.818C224.315 181.371 222.837 180.678 221.522 179.768C217.523 176.926 215.766 172.777 215.485 168.77C215.146 163.739 216.585 160.274 218.705 155.726C220.459 151.957 224.122 147.675 228.429 145.632C229.911 144.9 231.558 144.492 233.241 144.44Z" fill="white"/>
<path d="M243.143 147.449C245.276 149.032 246.993 151.109 248.389 153.321C248.832 154.026 249.235 154.752 249.604 155.485C249.803 155.88 249.994 156.276 250.179 156.675C252.464 161.555 254.114 166.966 252.49 172.384C249.882 181.075 237.567 183.99 227.286 181.965" stroke="#868686" stroke-width="1.3" stroke-linecap="round" stroke-linejoin="round"/>
<path d="M230.519 144.685C231.346 144.535 232.201 144.453 233.063 144.441C235.542 144.4 237.999 144.743 240.215 145.441" stroke="#868686" stroke-width="1.3" stroke-linecap="round" stroke-linejoin="round"/>
<path d="M221.445 179.569C213.913 174.185 214.426 164.224 217.741 156.764C219.726 152.29 223.475 148.278 227.885 145.711" stroke="#868686" stroke-width="1.3" stroke-linecap="round" stroke-linejoin="round"/>
<path d="M237.261 162.463C237.022 161.949 236.64 161.513 236.162 161.208C235.684 160.902 235.128 160.74 234.561 160.74C233.993 160.74 233.438 160.902 232.959 161.208C232.481 161.513 232.1 161.949 231.861 162.463V162.478C232.292 163.642 233.349 165 234.561 165C235.772 165 236.829 163.645 237.261 162.478V162.463Z" fill="#FFAFA7"/>
<path d="M231.14 159.734C231.715 159.734 232.182 159.268 232.182 158.692C232.182 158.117 231.715 157.65 231.14 157.65C230.565 157.65 230.098 158.117 230.098 158.692C230.098 159.268 230.565 159.734 231.14 159.734Z" fill="#868686"/>
<path d="M237.982 159.734C238.557 159.734 239.024 159.268 239.024 158.692C239.024 158.117 238.557 157.65 237.982 157.65C237.406 157.65 236.94 158.117 236.94 158.692C236.94 159.268 237.406 159.734 237.982 159.734Z" fill="#868686"/>
<path d="M234.487 147.975C235.357 147.572 236.123 146.974 236.726 146.228C237.95 144.732 238.394 142.905 238.007 141.426C236.485 141.345 234.784 142.122 233.56 143.618C232.335 145.114 231.891 146.941 232.278 148.42" fill="#FFF8F2"/>
<path d="M234.487 147.975C235.357 147.572 236.123 146.974 236.726 146.228C237.95 144.732 238.394 142.905 238.007 141.426C236.485 141.345 234.784 142.122 233.56 143.618C232.335 145.114 231.891 146.941 232.278 148.42" stroke="#868686" stroke-width="1.3" stroke-linecap="round" stroke-linejoin="round"/>
<path d="M253.92 158.252L256.858 157.332" stroke="#868686" stroke-width="1.3" stroke-linecap="round" stroke-linejoin="round"/>
<path d="M253.201 156.193L254.636 155.047" stroke="#868686" stroke-width="1.3" stroke-linecap="round" stroke-linejoin="round"/>
<path d="M218.714 148.863L216.455 146.773" stroke="#868686" stroke-width="1.3" stroke-linecap="round" stroke-linejoin="round"/>
<path d="M217.279 150.512L215.57 149.836" stroke="#868686" stroke-width="1.3" stroke-linecap="round" stroke-linejoin="round"/>
<path d="M242.916 165.526C242.816 166.092 242.864 166.674 243.054 167.217C243.244 167.76 243.571 168.245 244.003 168.624C244.177 168.779 244.31 168.974 244.391 169.192C244.472 169.41 244.498 169.644 244.467 169.875C244.403 170.378 244.455 170.89 244.62 171.371C244.784 171.851 245.057 172.287 245.417 172.646C246.355 173.655 250.311 173.122 250.221 171.753C250.043 169.017 246.721 166.341 245.596 164.82C245.419 164.579 245.174 164.396 244.892 164.296C244.61 164.197 244.305 164.184 244.016 164.26C243.727 164.336 243.467 164.498 243.271 164.723C243.075 164.949 242.951 165.229 242.916 165.526Z" fill="#D9FFC0"/>
<path d="M244.556 170.993C244.505 172.508 247.488 174.705 251.917 175.306C252.224 175.366 252.54 175.356 252.843 175.277C253.145 175.199 253.426 175.053 253.665 174.851C254.2 174.348 254.346 173.553 254.37 172.847C254.441 170.537 253.584 168.498 252.078 166.781C250.926 165.468 249.31 164.367 248.164 163.125C247.507 162.411 246.889 161.678 246.309 160.926C246.17 160.739 245.981 160.594 245.764 160.509C245.503 160.395 245.208 160.381 244.937 160.469C244.665 160.558 244.436 160.742 244.291 160.988C243.929 161.55 243.761 162.215 243.812 162.881C243.934 164.557 244.791 165.974 247.324 166.68" fill="#D9FFC0"/>
<path d="M244.556 170.993C244.505 172.508 247.488 174.705 251.917 175.306C252.224 175.366 252.54 175.356 252.843 175.277C253.145 175.199 253.426 175.053 253.665 174.851C254.2 174.348 254.346 173.553 254.37 172.847C254.441 170.537 253.584 168.498 252.078 166.781C250.926 165.468 249.31 164.367 248.164 163.125C247.507 162.411 246.889 161.678 246.309 160.926C246.17 160.739 245.981 160.594 245.764 160.509C245.503 160.395 245.208 160.381 244.937 160.469C244.665 160.558 244.436 160.742 244.291 160.988C243.929 161.55 243.761 162.215 243.812 162.881C243.934 164.557 244.791 165.974 247.324 166.68" stroke="#868686" stroke-width="1.3" stroke-linecap="round" stroke-linejoin="round"/>
<path d="M243.094 166.451C243.045 166.947 243.149 167.445 243.391 167.88C244.025 169.014 245.913 169.916 247.824 169.964" fill="#D9FFC0"/>
<path d="M243.094 166.451C243.045 166.947 243.149 167.445 243.391 167.88C244.025 169.014 245.913 169.916 247.824 169.964" stroke="#868686" stroke-width="1.3" stroke-linecap="round" stroke-linejoin="round"/>
<path d="M358.004 179.554C358.004 179.554 352.966 180.123 352.561 175.842C349.773 175.578 348.725 173.098 348.846 170.186C354.8 171.769 358.566 177.747 358.004 179.554Z" fill="#CFFFE2"/>
<path d="M350.575 175.055C348.767 174.295 347.83 169.228 350.448 163.34C351.854 163.567 353.206 164.056 354.434 164.779C356.171 165.783 357.343 167.142 358.31 169.328C359.103 171.119 359.468 173.284 360.191 175.018C360.606 176.022 361.061 177 361.557 177.94C361.681 178.17 361.739 178.429 361.724 178.69C361.719 179.009 361.598 179.315 361.384 179.552C361.169 179.788 360.876 179.939 360.559 179.975C359.824 180.084 359.074 179.947 358.424 179.587C356.787 178.677 355.746 177.144 356.215 174.232" fill="#CFFFE2"/>
<path d="M350.575 175.055C348.767 174.295 347.83 169.228 350.448 163.34C351.854 163.567 353.206 164.056 354.434 164.779C356.171 165.783 357.343 167.142 358.31 169.328C359.103 171.119 359.468 173.284 360.191 175.018C360.606 176.022 361.061 177 361.557 177.94C361.681 178.17 361.739 178.429 361.724 178.69C361.719 179.009 361.598 179.315 361.384 179.552C361.169 179.788 360.876 179.939 360.559 179.975C359.824 180.084 359.074 179.947 358.424 179.587C356.787 178.677 355.746 177.144 356.215 174.232" stroke="#868686" stroke-width="1.3" stroke-linecap="round" stroke-linejoin="round"/>
<path d="M354.504 178.666C353.978 178.488 353.519 178.154 353.188 177.709C352.338 176.534 352.298 174.181 353.131 172.199" stroke="#868686" stroke-width="1.3" stroke-linecap="round" stroke-linejoin="round"/>
<path d="M338.392 143.902C345.582 144.544 349.716 149.257 352.24 154.562C352.603 155.332 352.932 156.119 353.219 156.906C353.372 157.331 353.517 157.756 353.659 158.184C355.39 163.429 356.429 169.15 354.144 174.525C350.464 183.144 341.649 183.804 331.724 182.659C329.985 182.453 328.286 182.002 326.683 181.32C325.179 180.702 323.796 179.838 322.594 178.766C318.966 175.442 317.709 171.017 317.91 166.89C318.163 161.712 320.008 158.321 322.646 153.893C324.831 150.211 328.971 146.225 333.482 144.595C335.044 144.009 336.722 143.772 338.392 143.902Z" fill="white"/>
<path d="M348.529 148.688C350.38 150.697 351.828 153.023 352.798 155.546C353.121 156.336 353.401 157.138 353.639 157.953C353.767 158.384 353.888 158.819 354.006 159.255C355.439 164.61 356.128 170.364 353.466 175.592C349.2 183.98 336.086 184.871 325.96 181.088" stroke="#868686" stroke-width="1.3" stroke-linecap="round" stroke-linejoin="round"/>
<path d="M336.924 144.029C337.773 143.946 338.629 143.965 339.473 144.086C341.897 144.419 344.203 145.311 346.196 146.687" stroke="#868686" stroke-width="1.3" stroke-linecap="round" stroke-linejoin="round"/>
<path d="M322.59 178.792C315.282 172.56 317.159 161.558 321.77 154.669C324.54 150.535 328.41 146.777 333.222 144.936" stroke="#868686" stroke-width="1.3" stroke-linecap="round" stroke-linejoin="round"/>
<path d="M339.234 162.486C338.978 161.904 338.558 161.409 338.026 161.062C337.493 160.714 336.871 160.529 336.235 160.529C335.599 160.529 334.977 160.714 334.445 161.062C333.912 161.409 333.492 161.904 333.236 162.486V162.502C333.715 163.811 334.91 165.338 336.248 165.338C337.587 165.338 338.769 163.815 339.261 162.502L339.234 162.486Z" fill="#FFAFA7"/>
<path d="M339.663 146.061C342.274 146.306 344.56 144.722 345.099 142.714C343.71 142.132 339.154 140.947 336.885 145.392" fill="#FFF8F2"/>
<path d="M339.663 146.061C342.274 146.306 344.56 144.722 345.099 142.714C343.71 142.132 339.154 140.947 336.885 145.392" stroke="#868686" stroke-width="1.3" stroke-linecap="round" stroke-linejoin="round"/>
<path d="M341.409 158.085C341.409 158.085 340.526 159.032 339.401 158.008" stroke="#868686" stroke-width="1.3" stroke-linecap="round" stroke-linejoin="round"/>
<path d="M333.44 158.085C333.44 158.085 332.556 159.032 331.432 158.008" stroke="#868686" stroke-width="1.3" stroke-linecap="round" stroke-linejoin="round"/>
<path d="M327.22 163.768C327.303 164.919 327.049 166.228 325.844 167.185C325.642 167.35 325.483 167.562 325.381 167.802C325.279 168.043 325.237 168.304 325.258 168.564C325.302 169.133 325.216 169.704 325.007 170.235C324.797 170.765 324.47 171.241 324.05 171.627C322.955 172.705 319.531 171.66 319.699 170.124C320.033 167.061 321.593 164.551 322.925 162.904C323.889 161.726 327.109 162.251 327.22 163.768Z" fill="#CFFFE2"/>
<path d="M325.097 169.817C325.07 171.521 321.636 173.834 316.686 174.259C316.339 174.311 315.986 174.282 315.653 174.177C315.319 174.071 315.014 173.891 314.761 173.65C314.195 173.057 314.075 172.157 314.091 171.36C314.151 168.841 315.183 166.442 316.97 164.666C318.309 163.257 320.177 162.109 321.519 160.776C322.285 160.013 323.015 159.223 323.698 158.407C323.863 158.207 324.079 158.055 324.324 157.968C324.622 157.857 324.95 157.86 325.247 157.974C325.543 158.089 325.788 158.308 325.934 158.591C326.304 159.244 326.453 159.999 326.359 160.743C326.131 162.621 325.1 164.164 322.252 164.813" fill="#CFFFE2"/>
<path d="M325.097 169.817C325.07 171.521 321.636 173.834 316.686 174.259C316.339 174.311 315.986 174.282 315.653 174.177C315.319 174.071 315.014 173.891 314.761 173.65C314.195 173.057 314.075 172.157 314.091 171.36C314.151 168.841 315.183 166.442 316.97 164.666C318.309 163.257 320.177 162.109 321.519 160.776C322.285 160.013 323.015 159.223 323.698 158.407C323.863 158.207 324.079 158.055 324.324 157.968C324.622 157.857 324.95 157.86 325.247 157.974C325.543 158.089 325.788 158.308 325.934 158.591C326.304 159.244 326.453 159.999 326.359 160.743C326.131 162.621 325.1 164.164 322.252 164.813" stroke="#868686" stroke-width="1.3" stroke-linecap="round" stroke-linejoin="round"/>
<path d="M326.971 164.795C327.003 165.353 326.865 165.907 326.576 166.385C325.81 167.623 323.667 168.534 321.555 168.487" stroke="#868686" stroke-width="1.3" stroke-linecap="round" stroke-linejoin="round"/>
<path d="M345.412 155.74C346.082 155.74 346.601 157.36 346.601 158.237C346.601 159.114 346.068 159.827 345.412 159.827C344.756 159.827 344.221 159.118 344.221 158.244C344.228 157.938 344.271 157.633 344.348 157.337" stroke="#868686" stroke-width="1.3" stroke-linecap="round" stroke-linejoin="round"/>
<path d="M359.288 137.564C361.299 141.313 359.787 143.916 357.914 145.539C355.962 147.228 353.135 146.466 351.345 144.607V144.607L351.28 144.538C349.39 142.54 349.542 139.371 351.615 137.564V137.564L351.759 137.449C353.339 136.187 355.617 136.325 357.032 137.769V137.769C358.345 139.107 358.532 141.185 357.48 142.737L357.329 142.961L357.27 143.028C356.041 144.446 353.839 144.439 352.619 143.014L352.483 142.854C351.789 142.044 351.629 140.904 352.071 139.934L352.188 139.68C352.427 139.156 352.871 138.754 353.417 138.568L353.722 138.464C354.438 138.221 355.228 138.489 355.649 139.117V139.117C356.249 140.014 355.853 141.237 354.841 141.612L353.969 141.936" stroke="#868686" stroke-width="1.2" stroke-linecap="round"/>
<path d="M320.142 145.856C321.854 149.046 320.567 151.262 318.973 152.642C317.312 154.08 314.906 153.432 313.383 151.849V151.849L313.328 151.791C311.719 150.091 311.849 147.394 313.613 145.856V145.856L313.736 145.758C315.08 144.684 317.019 144.802 318.223 146.03V146.03C319.34 147.169 319.499 148.938 318.604 150.258L318.475 150.449L318.425 150.506C317.379 151.712 315.506 151.706 314.468 150.494L314.351 150.358C313.761 149.668 313.624 148.699 314.001 147.873L314.1 147.657C314.304 147.211 314.682 146.869 315.146 146.711L315.406 146.622C316.015 146.415 316.688 146.643 317.046 147.178V147.178C317.556 147.942 317.22 148.982 316.358 149.301L315.616 149.576" stroke="#868686" stroke-linecap="round"/>
<path d="M127.066 218.173C134.73 217.9 139.693 222.023 143.024 226.92C143.503 227.624 143.947 228.351 144.355 229.1C144.57 229.496 144.778 229.899 144.982 230.302C147.492 235.243 149.311 240.739 147.575 246.318C144.792 255.265 135.583 257.024 124.983 257.147C123.133 257.17 121.288 256.947 119.496 256.482C117.854 256.077 116.288 255.408 114.856 254.499C112.997 253.291 111.445 251.658 110.323 249.731C109.202 247.804 108.544 245.637 108.401 243.405C108.006 238.276 109.52 234.709 111.739 230.019C113.576 226.136 117.431 221.664 121.978 219.502C123.567 218.714 125.299 218.261 127.066 218.173Z" fill="white"/>
<path d="M147.576 246.326C144.793 255.273 131.439 258.524 120.268 256.675" stroke="#868686" stroke-width="1.3" stroke-linecap="round" stroke-linejoin="round"/>
<path d="M137.297 221.012C139.561 222.595 141.508 224.6 143.035 226.918C143.514 227.622 143.958 228.349 144.365 229.098" stroke="#868686" stroke-width="1.3" stroke-linecap="round" stroke-linejoin="round"/>
<path d="M124.426 218.581C125.288 218.345 126.173 218.208 127.065 218.174C129.608 218.052 132.147 218.5 134.499 219.485" stroke="#868686" stroke-width="1.3" stroke-linecap="round" stroke-linejoin="round"/>
<path d="M110.86 231.695C112.918 227.162 116.185 222.799 120.793 220.129" stroke="#868686" stroke-width="1.3" stroke-linecap="round" stroke-linejoin="round"/>
<path d="M117.024 255.652C114.242 254.813 111.645 252.35 110.928 250.639" stroke="#868686" stroke-width="1.3" stroke-linecap="round" stroke-linejoin="round"/>
<path d="M131.275 236.525C130.993 235.899 130.535 235.367 129.959 234.995C129.382 234.622 128.709 234.424 128.022 234.424C127.336 234.424 126.663 234.622 126.086 234.995C125.509 235.367 125.052 235.899 124.77 236.525C125.29 237.931 126.563 239.566 128.022 239.566C129.482 239.566 130.759 237.931 131.275 236.525Z" fill="#FFAFA7"/>
<path d="M133.239 232.093C133.239 232.093 132.048 232.828 131.162 231.451" stroke="#868686" stroke-width="1.3" stroke-linecap="round" stroke-linejoin="round"/>
<path d="M124.905 231.533C124.905 231.533 124.242 232.76 122.789 232.014" stroke="#868686" stroke-width="1.3" stroke-linecap="round" stroke-linejoin="round"/>
<path d="M115.669 250.841C115.005 250.646 114.403 250.284 113.92 249.789C113.436 249.294 113.088 248.684 112.908 248.016C112.831 247.748 112.691 247.504 112.5 247.303C112.308 247.102 112.07 246.95 111.807 246.861C111.228 246.661 110.703 246.331 110.272 245.895C109.841 245.46 109.516 244.932 109.322 244.351C108.734 242.801 110.821 239.492 112.255 240.323C115.124 241.977 117.358 245.48 118.398 247.496C119.14 248.944 117.208 251.379 115.669 250.841Z" fill="#CFCFFF"/>
<path d="M110.648 246.144C108.988 245.391 108.21 240.998 109.931 235.892C110.031 235.528 110.212 235.191 110.461 234.906C110.709 234.622 111.018 234.397 111.365 234.249C112.194 233.941 113.13 234.206 113.904 234.561C116.436 235.716 118.183 237.735 119.23 240.277C120.029 242.225 120.352 244.555 121.084 246.46C121.5 247.55 121.961 248.609 122.468 249.637C122.593 249.886 122.648 250.165 122.626 250.444C122.604 250.786 122.46 251.109 122.221 251.354C121.981 251.6 121.662 251.751 121.32 251.781C120.52 251.871 119.711 251.697 119.018 251.286C117.275 250.257 116.203 248.575 116.798 245.463" fill="#CFCFFF"/>
<path d="M110.648 246.144C108.988 245.391 108.21 240.998 109.931 235.892C110.031 235.528 110.212 235.191 110.461 234.906C110.709 234.622 111.018 234.397 111.365 234.249C112.194 233.941 113.13 234.206 113.904 234.561C116.436 235.716 118.183 237.735 119.23 240.277C120.029 242.225 120.352 244.555 121.084 246.46C121.5 247.55 121.961 248.609 122.468 249.637C122.593 249.886 122.648 250.165 122.626 250.444C122.604 250.786 122.46 251.109 122.221 251.354C121.981 251.6 121.662 251.751 121.32 251.781C120.52 251.871 119.711 251.697 119.018 251.286C117.275 250.257 116.203 248.575 116.798 245.463" stroke="#868686" stroke-width="1.3" stroke-linecap="round" stroke-linejoin="round"/>
<path d="M114.771 250.157C114.208 249.949 113.722 249.573 113.38 249.081C112.494 247.793 112.526 245.272 113.494 243.182" stroke="#868686" stroke-width="1.3" stroke-linecap="round" stroke-linejoin="round"/>
<path d="M113.014 217.625V220.103" stroke="#868686" stroke-width="1.3" stroke-linecap="round" stroke-linejoin="round"/>
<path d="M115.827 213.273V218.333" stroke="#868686" stroke-width="1.3" stroke-linecap="round" stroke-linejoin="round"/>
<path d="M145.362 214.992V219.869" stroke="#868686" stroke-width="1.3" stroke-linecap="round" stroke-linejoin="round"/>
<path d="M142.598 212.826V215.304" stroke="#868686" stroke-width="1.3" stroke-linecap="round" stroke-linejoin="round"/>
<path d="M108.226 219.869L106.77 221.698L108.226 223.531L106.77 225.363" stroke="#868686" stroke-width="1.3" stroke-linecap="round" stroke-linejoin="round"/>
<path d="M150.228 217.123L148.776 218.952L150.228 220.784L148.776 222.617" stroke="#868686" stroke-width="1.3" stroke-linecap="round" stroke-linejoin="round"/>
<path d="M137.397 228.654C137.067 229.235 136.719 229.888 136.719 230.261C136.71 230.427 136.735 230.593 136.792 230.749C136.849 230.905 136.938 231.047 137.052 231.168C137.166 231.289 137.304 231.385 137.457 231.45C137.609 231.516 137.774 231.55 137.94 231.55C138.106 231.55 138.271 231.516 138.423 231.45C138.576 231.385 138.714 231.289 138.828 231.168C138.942 231.047 139.031 230.905 139.088 230.749C139.145 230.593 139.17 230.427 139.161 230.261C139.154 230.008 139.109 229.758 139.028 229.519" stroke="#868686" stroke-width="1.3" stroke-linecap="round" stroke-linejoin="round"/>
<path d="M136.791 234.59C136.567 235.246 136.515 235.948 136.641 236.63C136.766 237.311 137.065 237.949 137.508 238.481C137.685 238.698 137.806 238.956 137.861 239.231C137.915 239.506 137.901 239.791 137.82 240.059C137.646 240.646 137.61 241.264 137.713 241.868C137.816 242.471 138.056 243.042 138.415 243.538C139.337 244.915 143.547 244.933 143.705 243.283C144.017 239.998 142.166 236.34 141.119 234.318C140.352 232.876 137.25 233.023 136.791 234.59Z" fill="#CFCFFF"/>
<path d="M137.687 241.408C137.328 243.201 140.459 246.385 145.616 247.953C145.967 248.08 146.343 248.128 146.715 248.092C147.087 248.056 147.447 247.937 147.767 247.745C148.503 247.25 148.843 246.335 148.99 245.496C149.521 242.764 148.893 240.174 147.43 237.843C146.315 236.05 144.605 234.44 143.486 232.744C142.844 231.769 142.245 230.779 141.693 229.771C141.565 229.521 141.368 229.312 141.126 229.169C140.835 228.988 140.488 228.918 140.15 228.97C139.811 229.023 139.502 229.195 139.279 229.456C138.744 230.053 138.417 230.808 138.347 231.607C138.171 233.626 138.917 235.477 141.797 236.8" fill="#CFCFFF"/>
<path d="M137.687 241.408C137.328 243.201 140.459 246.385 145.616 247.953C145.967 248.08 146.343 248.128 146.715 248.092C147.087 248.056 147.447 247.937 147.767 247.745C148.503 247.25 148.843 246.335 148.99 245.496C149.521 242.764 148.893 240.174 147.43 237.843C146.315 236.05 144.605 234.44 143.486 232.744C142.844 231.769 142.245 230.779 141.693 229.771C141.565 229.521 141.368 229.312 141.126 229.169C140.835 228.988 140.488 228.918 140.15 228.97C139.811 229.023 139.502 229.195 139.279 229.456C138.744 230.053 138.417 230.808 138.347 231.607C138.171 233.626 138.917 235.477 141.797 236.8" stroke="#868686" stroke-width="1.3" stroke-linecap="round" stroke-linejoin="round"/>
<path d="M136.819 235.723C136.662 236.3 136.685 236.912 136.884 237.476C137.422 238.947 139.491 240.385 141.757 240.811" stroke="#868686" stroke-width="1.3" stroke-linecap="round" stroke-linejoin="round"/>
<path d="M127.644 217.304C128.361 220.019 130.807 221.73 133.023 221.525C133.07 220.428 133.099 217.817 130.847 216.286C130.066 215.733 129.162 215.379 128.214 215.254C127.265 215.129 126.3 215.237 125.403 215.569" fill="#FFF8F2"/>
<path d="M127.644 217.304C128.361 220.019 130.807 221.73 133.023 221.525C133.07 220.428 133.099 217.817 130.847 216.286C130.066 215.733 129.162 215.379 128.214 215.254C127.265 215.129 126.3 215.237 125.403 215.569" stroke="#868686" stroke-width="1.3" stroke-linecap="round" stroke-linejoin="round"/>
<path d="M234.714 216.267C242.121 216.812 246.47 221.537 249.166 226.863C249.555 227.634 249.906 228.426 250.208 229.232C250.375 229.659 250.535 230.09 250.688 230.521C252.588 235.805 253.766 241.582 251.511 247.06C247.898 255.843 238.845 256.638 228.614 255.62C226.827 255.445 225.073 255.02 223.403 254.359C221.853 253.759 220.415 252.904 219.147 251.83C215.36 248.523 213.981 244.059 214.12 239.89C214.277 234.641 216.107 231.181 218.734 226.658C220.908 222.913 225.088 218.803 229.694 217.083C231.29 216.454 233.002 216.176 234.714 216.267Z" fill="white"/>
<path d="M249.556 249.635C244.619 256.169 233.089 257.364 223.654 254.617" stroke="#868686" stroke-width="1.32575" stroke-linecap="round" stroke-linejoin="round"/>
<path d="M243.789 220.234C245.818 222.111 247.48 224.349 248.687 226.835C249.077 227.61 249.427 228.402 249.73 229.204" stroke="#868686" stroke-width="1.32575" stroke-linecap="round" stroke-linejoin="round"/>
<path d="M231.651 216.382C232.503 216.235 233.37 216.192 234.232 216.254C236.707 216.408 239.112 217.137 241.257 218.383" stroke="#868686" stroke-width="1.32575" stroke-linecap="round" stroke-linejoin="round"/>
<path d="M217.207 228.238C219.663 223.857 223.265 219.779 227.976 217.562" stroke="#868686" stroke-width="1.32575" stroke-linecap="round" stroke-linejoin="round"/>
<path d="M220.649 253.227C218.516 252.279 216.619 250.233 215.73 248.523" stroke="#868686" stroke-width="1.32575" stroke-linecap="round" stroke-linejoin="round"/>
<path d="M237.48 234.8C237.192 234.16 236.725 233.617 236.136 233.236C235.547 232.855 234.86 232.652 234.159 232.652C233.457 232.652 232.771 232.855 232.181 233.236C231.592 233.617 231.126 234.16 230.838 234.8V234.818C231.366 236.25 232.67 237.921 234.161 237.921C235.652 237.921 236.952 236.25 237.48 234.818V234.8Z" fill="#FFAFA7"/>
<path d="M239.483 230.359C239.483 230.359 238.266 231.11 237.365 229.703" stroke="#868686" stroke-width="1.32575" stroke-linecap="round" stroke-linejoin="round"/>
<path d="M230.972 229.787C230.972 229.787 230.294 231.044 228.81 230.278" stroke="#868686" stroke-width="1.32575" stroke-linecap="round" stroke-linejoin="round"/>
<path d="M252.303 246.074C251.267 245.618 250.254 244.795 249.986 243.301C249.938 243.049 249.829 242.813 249.668 242.614C249.508 242.414 249.3 242.258 249.065 242.157C248.553 241.933 248.098 241.594 247.737 241.168C247.375 240.741 247.115 240.238 246.977 239.696C246.554 238.241 250.3 235.652 251.549 236.51C254.036 238.221 253.679 242.016 254.499 243.94C254.63 244.245 254.665 244.582 254.6 244.908C254.535 245.233 254.373 245.531 254.135 245.763C253.897 245.994 253.594 246.148 253.267 246.203C252.94 246.259 252.604 246.213 252.303 246.074Z" fill="#DCF8FF"/>
<path d="M248.054 241.44C246.593 240.637 246.199 236.577 248.126 232.047C248.243 231.724 248.431 231.431 248.676 231.19C248.921 230.949 249.217 230.766 249.542 230.655C250.319 230.428 251.155 230.74 251.836 231.117C254.058 232.349 255.507 234.312 256.28 236.705C256.87 238.533 257.001 240.68 257.529 242.466C257.835 243.489 258.18 244.486 258.565 245.458C258.664 245.695 258.695 245.955 258.653 246.209C258.608 246.519 258.454 246.802 258.219 247.008C257.983 247.215 257.681 247.33 257.368 247.333C256.633 247.357 255.91 247.142 255.307 246.72C253.79 245.655 252.934 244.049 253.698 241.257" fill="#DCF8FF"/>
<path d="M248.054 241.44C246.593 240.637 246.199 236.577 248.126 232.047C248.243 231.724 248.431 231.431 248.676 231.19C248.921 230.949 249.217 230.766 249.542 230.655C250.319 230.428 251.155 230.74 251.836 231.117C254.058 232.349 255.507 234.312 256.28 236.705C256.87 238.533 257.001 240.68 257.529 242.466C257.835 243.489 258.18 244.486 258.565 245.458C258.664 245.695 258.695 245.955 258.653 246.209C258.608 246.519 258.454 246.802 258.219 247.008C257.983 247.215 257.681 247.33 257.368 247.333C256.633 247.357 255.91 247.142 255.307 246.72C253.79 245.655 252.934 244.049 253.698 241.257" stroke="#868686" stroke-width="1.32575" stroke-linecap="round" stroke-linejoin="round"/>
<path d="M251.529 245.387C251.03 245.16 250.613 244.784 250.336 244.312C249.622 243.073 249.831 240.779 250.86 238.943" stroke="#868686" stroke-width="1.32575" stroke-linecap="round" stroke-linejoin="round"/>
<path d="M212.772 245.991C213.395 245.833 213.968 245.519 214.435 245.077C214.902 244.635 215.249 244.081 215.442 243.468C215.521 243.22 215.659 242.994 215.845 242.812C216.032 242.63 216.26 242.496 216.51 242.423C217.056 242.26 217.557 241.974 217.976 241.587C218.394 241.2 218.718 240.722 218.923 240.19C219.527 238.772 216.236 235.648 214.871 236.365C212.148 237.791 211.867 241.706 210.816 243.565C210.646 243.857 210.569 244.193 210.595 244.53C210.62 244.867 210.747 245.188 210.959 245.451C211.171 245.713 211.458 245.906 211.782 246.002C212.105 246.099 212.45 246.095 212.772 245.991Z" fill="#DCF8FF"/>
<path d="M217.628 241.813C219.203 241.179 220.101 237.14 218.702 232.307C218.625 231.966 218.471 231.647 218.253 231.373C218.035 231.099 217.759 230.878 217.444 230.725C216.683 230.391 215.802 230.615 215.068 230.912C212.668 231.886 210.966 233.696 209.891 236.019C209.07 237.798 208.676 239.954 207.922 241.693C207.49 242.692 207.019 243.659 206.51 244.593C206.383 244.821 206.321 245.08 206.33 245.341C206.337 245.66 206.458 245.967 206.672 246.204C206.885 246.442 207.177 246.595 207.494 246.636C208.234 246.749 208.991 246.619 209.651 246.265C211.319 245.374 212.377 243.856 211.947 240.925" fill="#DCF8FF"/>
<path d="M217.628 241.813C219.203 241.179 220.101 237.14 218.702 232.307C218.625 231.966 218.471 231.647 218.253 231.373C218.035 231.099 217.759 230.878 217.444 230.725C216.683 230.391 215.802 230.615 215.068 230.912C212.668 231.886 210.966 233.696 209.891 236.019C209.07 237.798 208.676 239.954 207.922 241.693C207.49 242.692 207.019 243.659 206.51 244.593C206.383 244.821 206.321 245.08 206.33 245.341C206.337 245.66 206.458 245.967 206.672 246.204C206.885 246.442 207.177 246.595 207.494 246.636C208.234 246.749 208.991 246.619 209.651 246.265C211.319 245.374 212.377 243.856 211.947 240.925" stroke="#868686" stroke-width="1.32575" stroke-linecap="round" stroke-linejoin="round"/>
<path d="M213.635 245.387C214.166 245.217 214.632 244.889 214.97 244.446C215.845 243.281 215.915 240.938 215.097 238.955" stroke="#868686" stroke-width="1.32575" stroke-linecap="round" stroke-linejoin="round"/>
<path d="M241.484 232.57C241.81 233.204 242.63 234.446 242.63 235.025C242.64 235.194 242.614 235.364 242.556 235.523C242.497 235.682 242.407 235.828 242.29 235.951C242.173 236.075 242.033 236.173 241.877 236.24C241.721 236.307 241.553 236.342 241.383 236.342C241.213 236.342 241.045 236.307 240.889 236.24C240.733 236.173 240.593 236.075 240.476 235.951C240.359 235.828 240.269 235.682 240.21 235.523C240.152 235.364 240.126 235.194 240.136 235.025C240.143 234.765 240.189 234.509 240.271 234.263" stroke="#868686" stroke-width="1.32575" stroke-linecap="round" stroke-linejoin="round"/>
<path d="M226.379 233.379C226.042 233.972 225.687 234.643 225.687 235.024C225.678 235.193 225.703 235.363 225.762 235.522C225.82 235.681 225.911 235.827 226.027 235.95C226.144 236.074 226.285 236.172 226.441 236.239C226.597 236.306 226.765 236.341 226.934 236.341C227.104 236.341 227.272 236.306 227.428 236.239C227.584 236.172 227.725 236.074 227.841 235.95C227.958 235.827 228.048 235.681 228.107 235.522C228.165 235.363 228.191 235.193 228.182 235.024C228.174 234.765 228.13 234.508 228.05 234.262" stroke="#868686" stroke-width="1.32575" stroke-linecap="round" stroke-linejoin="round"/>
<path d="M235.043 216.155C236.062 218.833 238.707 220.317 240.963 219.87C240.897 218.749 240.644 216.093 238.194 214.778C237.343 214.297 236.388 214.031 235.411 214.002C234.434 213.974 233.466 214.185 232.589 214.617" fill="#FFF8F2"/>
<path d="M235.043 216.155C236.062 218.833 238.707 220.317 240.963 219.87C240.897 218.749 240.644 216.093 238.194 214.778C237.343 214.297 236.388 214.031 235.411 214.002C234.434 213.974 233.466 214.185 232.589 214.617" stroke="#868686" stroke-width="1.32575" stroke-linecap="round" stroke-linejoin="round"/>
<path d="M361.008 231.233C361.008 231.233 362.487 235.442 358.966 236.656C359.299 239.103 357.429 240.506 354.967 240.991C355.122 235.556 356.335 231.064 361.008 231.233Z" fill="#FFC8C5"/>
<path d="M358.712 238.508C358.42 240.211 354.374 242.04 348.911 240.984C348.822 239.732 348.962 238.475 349.325 237.274C349.815 235.582 350.728 234.298 352.368 233.027C353.709 231.985 355.451 231.235 356.775 230.258C357.534 229.698 358.259 229.115 358.951 228.508C359.116 228.36 359.317 228.259 359.535 228.216C359.806 228.159 360.089 228.202 360.33 228.338C360.571 228.475 360.754 228.695 360.844 228.957C361.083 229.567 361.118 230.237 360.944 230.868C360.506 232.458 359.427 233.657 356.886 233.852" fill="#FFC8C5"/>
<path d="M358.712 238.508C358.42 240.211 354.374 242.04 348.911 240.984C348.822 239.732 348.962 238.475 349.325 237.274C349.815 235.582 350.728 234.298 352.368 233.027C353.709 231.985 355.451 231.235 356.775 230.258C357.534 229.698 358.259 229.115 358.951 228.508C359.116 228.36 359.317 228.259 359.535 228.216C359.806 228.159 360.089 228.202 360.33 228.338C360.571 228.475 360.754 228.695 360.844 228.957C361.083 229.567 361.118 230.237 360.944 230.868C360.506 232.458 359.427 233.657 356.886 233.852" stroke="#868686" stroke-width="1.3" stroke-linecap="round" stroke-linejoin="round"/>
<path d="M360.962 234.422C360.919 234.906 360.73 235.366 360.42 235.74C359.603 236.709 357.643 237.219 355.817 236.907" stroke="#868686" stroke-width="1.3" stroke-linecap="round" stroke-linejoin="round"/>
<path d="M312.131 229.686C312.131 229.686 310.38 233.793 313.808 235.228C313.318 237.649 315.094 239.166 317.521 239.805C317.725 234.373 316.538 229.572 312.131 229.686Z" fill="#FFC8C5"/>
<path d="M313.953 237.09C314.12 238.808 318.055 240.882 323.58 240.185C323.75 238.941 323.692 237.676 323.408 236.454C323.025 234.736 322.197 233.397 320.645 232.023C319.37 230.897 317.681 230.039 316.421 228.98C315.701 228.374 315.012 227.741 314.365 227.084C314.205 226.921 314.003 226.805 313.781 226.749C313.514 226.674 313.229 226.7 312.98 226.822C312.73 226.943 312.534 227.152 312.428 227.408C312.152 228.001 312.075 228.667 312.209 229.307C312.539 230.923 313.542 232.186 316.062 232.542" fill="#FFC8C5"/>
<path d="M313.953 237.09C314.12 238.808 318.055 240.882 323.58 240.185C323.75 238.941 323.692 237.676 323.408 236.454C323.025 234.736 322.197 233.397 320.645 232.023C319.37 230.897 317.681 230.039 316.421 228.98C315.701 228.374 315.012 227.741 314.365 227.084C314.205 226.921 314.003 226.805 313.781 226.749C313.514 226.674 313.229 226.7 312.98 226.822C312.73 226.943 312.534 227.152 312.428 227.408C312.152 228.001 312.075 228.667 312.209 229.307C312.539 230.923 313.542 232.186 316.062 232.542" stroke="#868686" stroke-width="1.3" stroke-linecap="round" stroke-linejoin="round"/>
<path d="M311.973 232.869C311.984 233.355 312.143 233.826 312.428 234.22C313.18 235.238 315.106 235.871 316.946 235.678" stroke="#868686" stroke-width="1.3" stroke-linecap="round" stroke-linejoin="round"/>
<path d="M335.852 218.912C342.81 218.928 347.228 223.235 350.149 228.24C350.574 228.969 350.959 229.716 351.313 230.479C351.5 230.883 351.68 231.291 351.861 231.714C354.033 236.738 355.575 242.293 353.903 247.792C351.18 256.611 342.803 258.015 333.173 257.734C331.478 257.685 329.803 257.392 328.21 256.867C326.691 256.377 325.281 255.645 324.047 254.705C320.251 251.738 318.624 247.48 318.42 243.392C318.165 238.26 319.615 234.746 321.722 230.164C323.451 226.338 327.056 222.037 331.209 220.03C332.632 219.317 334.226 218.934 335.852 218.912Z" fill="white"/>
<path d="M345.073 222.133C347.149 223.788 348.817 225.94 350.148 228.24C350.574 228.969 350.959 229.716 351.313 230.479C351.5 230.884 351.68 231.291 351.861 231.714C354.032 236.738 355.574 242.293 353.903 247.792C351.18 256.611 339.014 259.35 328.914 257.083" stroke="#868686" stroke-width="1.3" stroke-linecap="round" stroke-linejoin="round"/>
<path d="M333.448 219.217C334.229 219.014 335.038 218.91 335.851 218.908C338.204 218.895 340.521 219.444 342.567 220.499" stroke="#868686" stroke-width="1.3" stroke-linecap="round" stroke-linejoin="round"/>
<path d="M324.097 254.85C314.658 247.473 318.392 232.661 325.19 224.97C326.597 223.344 328.282 221.933 330.18 220.789" stroke="#868686" stroke-width="1.3" stroke-linecap="round" stroke-linejoin="round"/>
<path d="M339.22 237.838C338.997 237.33 338.632 236.898 338.167 236.594C337.703 236.291 337.161 236.129 336.606 236.129C336.051 236.129 335.509 236.291 335.044 236.594C334.58 236.898 334.215 237.33 333.992 237.838V237.853C334.409 238.993 335.451 240.324 336.618 240.324C337.784 240.324 338.817 238.993 339.243 237.853L339.22 237.838Z" fill="#FFAFA7"/>
<path d="M334.957 220.196C334.846 219.372 334.546 218.584 334.082 217.894C333.151 216.497 331.748 215.672 330.412 215.596C329.957 216.827 330.164 218.434 331.095 219.831C332.025 221.228 333.428 222.057 334.761 222.133" fill="#FFF8F2"/>
<path d="M334.957 220.196C334.846 219.372 334.546 218.584 334.082 217.894C333.151 216.497 331.748 215.672 330.412 215.596C329.957 216.827 330.164 218.434 331.095 219.831C332.025 221.228 333.428 222.057 334.761 222.133" stroke="#868686" stroke-width="1.3" stroke-linecap="round" stroke-linejoin="round"/>
<path d="M322.294 213.151V213.13C322.099 212.873 321.856 212.657 321.577 212.494C321.299 212.331 320.991 212.225 320.671 212.181C320.351 212.137 320.026 212.157 319.714 212.238C319.402 212.32 319.109 212.463 318.852 212.658C318.595 212.853 318.379 213.096 318.216 213.375C318.053 213.653 317.947 213.961 317.903 214.281C317.859 214.6 317.879 214.926 317.96 215.238C318.042 215.55 318.185 215.843 318.38 216.1L318.394 216.117C318.153 216.357 317.964 216.645 317.839 216.962C317.715 217.279 317.658 217.619 317.672 217.959C317.685 218.299 317.77 218.633 317.92 218.939C318.069 219.245 318.281 219.516 318.542 219.736C318.802 219.956 319.105 220.119 319.432 220.215C319.758 220.311 320.102 220.339 320.439 220.295C320.777 220.252 321.102 220.138 321.394 219.962C321.686 219.787 321.938 219.552 322.134 219.273L323.788 220.041L324.033 220.154C324.108 220.19 324.191 220.204 324.274 220.195C324.356 220.186 324.435 220.155 324.501 220.105C324.567 220.055 324.618 219.987 324.649 219.91C324.679 219.833 324.688 219.749 324.675 219.667L324.631 219.399L324.339 217.602C324.665 217.488 324.964 217.306 325.214 217.068C325.661 216.657 325.94 216.094 325.996 215.489C326.053 214.885 325.883 214.28 325.52 213.793C325.157 213.306 324.626 212.971 324.031 212.852C323.435 212.733 322.816 212.84 322.294 213.151Z" fill="#FFEFE6" stroke="#868686" stroke-width="1.3" stroke-linecap="round" stroke-linejoin="round"/>
<path d="M351.754 217.938V217.924C352.057 217.525 352.505 217.262 353.002 217.193C353.498 217.125 354.001 217.257 354.4 217.559C354.799 217.862 355.062 218.31 355.13 218.806C355.199 219.303 355.067 219.806 354.765 220.205V220.219C355.098 220.553 355.294 220.999 355.315 221.471C355.336 221.942 355.18 222.404 354.878 222.766C354.588 223.114 354.183 223.348 353.737 223.426C353.29 223.503 352.83 223.419 352.44 223.189C352.222 223.054 352.034 222.878 351.885 222.67L350.617 223.253C350.541 223.288 350.458 223.302 350.376 223.294C350.293 223.285 350.215 223.254 350.148 223.203C350.082 223.153 350.031 223.086 350.001 223.009C349.97 222.932 349.961 222.848 349.975 222.766L350.202 221.383C349.961 221.298 349.739 221.164 349.552 220.99C349.19 220.682 348.957 220.25 348.899 219.778C348.842 219.307 348.965 218.831 349.243 218.446C349.521 218.061 349.934 217.795 350.399 217.701C350.865 217.607 351.348 217.691 351.754 217.938Z" fill="#FFEFE6" stroke="#868686" stroke-width="1.3" stroke-linecap="round" stroke-linejoin="round"/>
<path d="M333.928 234.526L332.225 233.59" stroke="#868686" stroke-width="1.3" stroke-linecap="round" stroke-linejoin="round"/>
<path d="M339.285 234.526L340.989 233.59" stroke="#868686" stroke-width="1.3" stroke-linecap="round" stroke-linejoin="round"/>
<rect x="90" y="295" width="135" height="55" rx="20" fill="#F9F7F2"/>
<path d="M148.103 314.791C148.426 314.791 148.732 314.944 148.732 315.301V316.525H151.911C152.2 316.525 152.336 316.763 152.336 317.052C152.336 317.358 152.2 317.596 151.911 317.596H148.732V318.004C148.732 318.956 149.004 319.432 149.854 319.925C150.755 320.435 151.316 320.741 152.081 321.115C152.387 321.268 152.404 321.591 152.251 321.846C152.115 322.101 151.86 322.203 151.537 322.05C150.925 321.744 150.279 321.404 149.497 320.979C148.511 320.418 148.222 320.044 148.137 319.687H148.12C148.035 320.044 147.712 320.469 146.709 321.013C145.893 321.472 145.23 321.812 144.499 322.186C144.176 322.339 143.904 322.203 143.768 321.948C143.615 321.693 143.632 321.37 143.938 321.217C144.788 320.809 145.468 320.452 146.352 319.959C147.202 319.449 147.474 318.973 147.474 318.021V317.596H144.227C143.938 317.596 143.802 317.358 143.802 317.052C143.802 316.763 143.938 316.525 144.227 316.525H147.474V315.301C147.474 314.944 147.797 314.791 148.103 314.791ZM154.954 314.842C155.26 314.842 155.566 314.995 155.566 315.352V328.884C155.566 329.241 155.26 329.394 154.954 329.394C154.631 329.394 154.342 329.241 154.342 328.884V315.352C154.342 314.995 154.631 314.842 154.954 314.842ZM152.761 323.206C153.033 323.189 153.203 323.376 153.237 323.665C153.254 323.971 153.118 324.226 152.863 324.243C151.418 324.379 150.007 324.464 148.579 324.515V328.714C148.579 329.071 148.29 329.224 147.967 329.224C147.661 329.224 147.355 329.071 147.355 328.714V324.566C146.046 324.6 144.703 324.617 143.309 324.617C143.003 324.617 142.867 324.379 142.867 324.09C142.867 323.801 143.003 323.563 143.309 323.563C146.42 323.563 149.327 323.512 152.761 323.206ZM165.208 315.488C165.531 315.488 165.837 315.658 165.837 316.015V317.069C165.837 318.684 166.177 319.398 167.554 320.299C168.557 320.945 169.696 321.625 170.954 322.322C171.192 322.458 171.209 322.815 171.056 323.07C170.903 323.342 170.597 323.461 170.342 323.325C169.288 322.747 168.064 322.033 167.095 321.404C165.837 320.588 165.361 320.01 165.225 319.551H165.208C165.072 320.027 164.596 320.605 163.338 321.421C162.352 322.05 161.145 322.764 160.091 323.342C159.819 323.478 159.53 323.359 159.36 323.087C159.207 322.832 159.224 322.458 159.462 322.322C160.72 321.625 161.859 320.945 162.862 320.299C164.239 319.398 164.579 318.684 164.579 317.069V316.015C164.579 315.658 164.885 315.488 165.208 315.488ZM165.208 323.24C165.531 323.24 165.837 323.393 165.837 323.75V326.742H171.855C172.161 326.742 172.297 326.98 172.297 327.286C172.297 327.575 172.161 327.813 171.855 327.813H158.561C158.255 327.813 158.119 327.575 158.119 327.286C158.119 326.98 158.255 326.742 158.561 326.742H164.596V323.75C164.596 323.393 164.902 323.24 165.208 323.24Z" fill="#07BEB8"/>
<rect x="240" y="295" width="135" height="55" rx="20" fill="#F2FDF6"/>
<path d="M297.576 318.174C299.786 318.174 301.027 319.007 301.027 320.333C301.027 321.54 300.007 322.339 298.188 322.492V323.886C299.429 323.852 300.721 323.767 302.064 323.648C302.319 323.614 302.506 323.801 302.523 324.09C302.54 324.379 302.421 324.617 302.166 324.651C299.157 324.906 296.216 324.974 293.054 324.974C292.765 324.974 292.629 324.753 292.629 324.464C292.629 324.192 292.765 323.954 293.054 323.954C294.346 323.954 295.638 323.954 296.981 323.92V322.492C295.145 322.339 294.125 321.54 294.125 320.333C294.125 319.007 295.366 318.174 297.576 318.174ZM304.206 314.842C304.529 314.842 304.818 314.995 304.818 315.352V319.585H306.756C307.062 319.585 307.198 319.84 307.198 320.129C307.198 320.435 307.062 320.69 306.756 320.69H304.818V324.923C304.818 325.28 304.529 325.433 304.206 325.433C303.883 325.433 303.594 325.28 303.594 324.923V315.352C303.594 314.995 303.883 314.842 304.206 314.842ZM303.645 326.283C304.529 326.283 304.818 326.555 304.818 327.422V330.04C304.818 330.397 304.512 330.55 304.206 330.55C303.9 330.55 303.594 330.397 303.594 330.04V327.626C303.594 327.388 303.509 327.303 303.271 327.303H295.179C294.907 327.303 294.771 327.065 294.771 326.793C294.771 326.521 294.907 326.283 295.179 326.283H303.645ZM297.576 314.553C297.899 314.553 298.205 314.706 298.205 315.046V316.168H301.588C301.877 316.168 302.013 316.406 302.013 316.678C302.013 316.967 301.877 317.188 301.588 317.188H293.428C293.156 317.188 293.02 316.967 293.02 316.678C293.02 316.406 293.156 316.168 293.428 316.168H296.947V315.046C296.947 314.706 297.253 314.553 297.576 314.553ZM297.576 319.109C296.012 319.109 295.264 319.619 295.264 320.333C295.264 321.064 296.012 321.557 297.576 321.557C299.14 321.557 299.888 321.064 299.888 320.333C299.888 319.619 299.14 319.109 297.576 319.109ZM312.641 315.624C315.242 315.624 316.483 317.324 316.483 319.483C316.483 321.625 315.242 323.325 312.641 323.325C310.04 323.325 308.799 321.625 308.799 319.483C308.799 317.324 310.04 315.624 312.641 315.624ZM312.641 316.695C310.754 316.695 310.006 317.987 310.006 319.483C310.006 320.962 310.754 322.254 312.641 322.254C314.528 322.254 315.276 320.962 315.276 319.483C315.276 317.987 314.528 316.695 312.641 316.695ZM320.121 314.842C320.427 314.842 320.733 314.995 320.733 315.352V325.722C320.733 326.079 320.427 326.232 320.121 326.232C319.798 326.232 319.492 326.079 319.492 325.722V315.352C319.492 314.995 319.798 314.842 320.121 314.842ZM311.723 324.906C312.046 324.906 312.352 325.059 312.352 325.416V328.748C312.352 328.969 312.437 329.054 312.675 329.054H320.733C321.039 329.054 321.175 329.309 321.175 329.598C321.175 329.887 321.039 330.142 320.733 330.142H312.267C311.383 330.142 311.094 329.87 311.094 329.003V325.416C311.094 325.059 311.4 324.906 311.723 324.906Z" fill="#07BEB8"/>
</g>
<defs>
<filter id="filter0_d_2843_34657" x="0" y="0" width="465" height="416" filterUnits="userSpaceOnUse" color-interpolation-filters="sRGB">
<feFlood flood-opacity="0" result="BackgroundImageFix"/>
<feColorMatrix in="SourceAlpha" type="matrix" values="0 0 0 0 0 0 0 0 0 0 0 0 0 0 0 0 0 0 127 0" result="hardAlpha"/>
<feOffset dy="4"/>
<feGaussianBlur stdDeviation="10"/>
<feComposite in2="hardAlpha" operator="out"/>
<feColorMatrix type="matrix" values="0 0 0 0 0 0 0 0 0 0 0 0 0 0 0 0 0 0 0.08 0"/>
<feBlend mode="normal" in2="BackgroundImageFix" result="effect1_dropShadow_2843_34657"/>
<feBlend mode="normal" in="SourceGraphic" in2="effect1_dropShadow_2843_34657" result="shape"/>
</filter>
</defs>
</svg>
