<svg viewBox="0 0 236 288" fill="none" xmlns="http://www.w3.org/2000/svg">
<g filter="url(#filter0_d_1850_24247)">
<path d="M13 26.68C13 18.0202 20.0202 11 28.68 11H207.32C215.98 11 223 18.0202 223 26.68V288.16H13V26.68Z" fill="#FFFDFA"/>
<path d="M72.322 35.3287C73.9264 35.3287 74.8336 36.0931 74.8336 37.3195C74.8336 38.4703 74.044 39.2095 72.6328 39.3019V40.8979H75.6064C75.7576 40.8979 75.8248 41.0155 75.8248 41.1667C75.8248 41.3095 75.7576 41.4271 75.6064 41.4271H69.0376C68.8864 41.4271 68.8192 41.3095 68.8192 41.1667C68.8192 41.0155 68.8864 40.8979 69.0376 40.8979H72.0196V39.3019C70.6 39.2095 69.8104 38.4703 69.8104 37.3195C69.8104 36.0931 70.7176 35.3287 72.322 35.3287ZM72.322 35.8495C71.0368 35.8495 70.4236 36.4795 70.4236 37.3195C70.4236 38.1595 71.0368 38.7895 72.322 38.7895C73.6072 38.7895 74.2204 38.1595 74.2204 37.3195C74.2204 36.4795 73.6072 35.8495 72.322 35.8495ZM77.7917 35.1103C77.9513 35.1103 78.0941 35.1859 78.0941 35.3623V36.8659C78.0941 36.9751 78.1445 37.0171 78.2537 37.0171H82.3865C82.5293 37.0171 82.5965 37.1347 82.5965 37.2775C82.5965 37.4203 82.5293 37.5379 82.3865 37.5379H78.0605C77.6237 37.5379 77.4809 37.4035 77.4809 36.9751V35.3623C77.4809 35.1859 77.6237 35.1103 77.7917 35.1103ZM83.2601 38.3359C83.4029 38.3359 83.4701 38.4535 83.4701 38.5963C83.4701 38.7391 83.4029 38.8567 83.2601 38.8567H76.6745C76.5317 38.8567 76.4645 38.7391 76.4645 38.5963C76.4645 38.4535 76.5317 38.3359 76.6745 38.3359H83.2601ZM81.8825 39.6883C82.3193 39.6883 82.4621 39.8227 82.4621 40.2511V40.8727C82.4621 41.3011 82.3193 41.4355 81.8825 41.4355H78.1949C78.1025 41.4355 78.0605 41.4691 78.0605 41.5699V42.0907C78.0605 42.1831 78.1025 42.2167 78.1949 42.2167H82.4705C82.6049 42.2167 82.6637 42.3343 82.6637 42.4603C82.6637 42.5947 82.6049 42.7123 82.4705 42.7123H78.0437C77.6069 42.7123 77.4641 42.5779 77.4641 42.1495V41.5195C77.4641 41.0911 77.6069 40.9567 78.0437 40.9567H81.7313C81.8321 40.9567 81.8741 40.9231 81.8741 40.8307V40.3099C81.8741 40.2175 81.8321 40.1755 81.7313 40.1755H77.6489C77.5145 40.1755 77.4473 40.0663 77.4473 39.9319C77.4473 39.8059 77.5145 39.6883 77.6489 39.6883H81.8825ZM86.6802 35.4631C87.999 35.4631 88.6626 36.2443 88.6626 37.2523C88.6626 38.2519 87.999 39.0331 86.6802 39.0331C85.3614 39.0331 84.6978 38.2519 84.6978 37.2523C84.6978 36.2443 85.3614 35.4631 86.6802 35.4631ZM86.6802 35.9923C85.7394 35.9923 85.2942 36.5551 85.2942 37.2523C85.2942 37.9495 85.7394 38.5123 86.6802 38.5123C87.621 38.5123 88.0662 37.9495 88.0662 37.2523C88.0662 36.5551 87.621 35.9923 86.6802 35.9923ZM89.1078 40.1503C89.2422 40.1335 89.3262 40.2343 89.343 40.3771C89.3514 40.5283 89.2842 40.6627 89.1582 40.6711C87.5958 40.8055 86.1174 40.8559 84.4374 40.8559C84.2862 40.8559 84.219 40.7383 84.219 40.5871C84.219 40.4443 84.2862 40.3183 84.4374 40.3183C85.9746 40.3183 87.411 40.3015 89.1078 40.1503ZM90.1914 35.0179C90.3426 35.0179 90.4938 35.0935 90.4938 35.2699V41.9563C90.4938 42.1327 90.3426 42.2083 90.1914 42.2083C90.0318 42.2083 89.889 42.1327 89.889 41.9563V35.2699C89.889 35.0935 90.0318 35.0179 90.1914 35.0179ZM96.9547 35.4631C97.3915 35.4631 97.5343 35.5975 97.5343 36.0259V36.6223C97.5343 37.7815 97.0891 38.0923 94.4851 39.2851C94.3591 39.3439 94.2079 39.2851 94.1323 39.1423C94.0651 39.0163 94.0735 38.8399 94.2247 38.7727C96.6523 37.6807 96.9295 37.4455 96.9295 36.5971V36.1519C96.9295 36.0343 96.8875 35.9923 96.7699 35.9923H94.3927C94.2415 35.9923 94.1743 35.8747 94.1743 35.7319C94.1743 35.5807 94.2415 35.4631 94.3927 35.4631H96.9547ZM99.4159 35.0179C99.5755 35.0179 99.7267 35.0935 99.7267 35.2699V36.8407H100.794C100.945 36.8407 101.012 36.9667 101.012 37.1179C101.012 37.2607 100.945 37.3867 100.794 37.3867H99.7267V39.0919C99.7267 39.2683 99.5755 39.3439 99.4159 39.3439C99.2647 39.3439 99.1135 39.2683 99.1135 39.0919V35.2699C99.1135 35.0935 99.2647 35.0179 99.4159 35.0179ZM99.1471 39.7723C99.5839 39.7723 99.7267 39.9067 99.7267 40.3351V42.0739C99.7267 42.5023 99.5839 42.6367 99.1471 42.6367H95.6275C95.1907 42.6367 95.0479 42.5023 95.0479 42.0739V40.3351C95.0479 39.9067 95.1907 39.7723 95.6275 39.7723H99.1471ZM95.8207 40.2931C95.7031 40.2931 95.6611 40.3351 95.6611 40.4527V41.9563C95.6611 42.0739 95.7031 42.1159 95.8207 42.1159H98.9623C99.0715 42.1159 99.1219 42.0739 99.1219 41.9563V40.4527C99.1219 40.3351 99.0715 40.2931 98.9623 40.2931H95.8207ZM105.734 35.4715C105.877 35.4715 105.944 35.5891 105.944 35.7319C105.944 35.8831 105.877 36.0007 105.734 36.0007H104.214V36.5971C104.214 37.1767 104.373 37.5295 104.802 37.8739C105.222 38.2015 105.616 38.4955 105.877 38.6803C106.02 38.7895 106.028 38.9491 105.936 39.0667C105.86 39.1759 105.709 39.2431 105.558 39.1339C105.356 38.9995 104.97 38.7055 104.575 38.4031C104.138 38.0503 103.953 37.8151 103.911 37.6387H103.903C103.861 37.8235 103.676 38.0671 103.231 38.4199C102.844 38.7307 102.441 39.0247 102.114 39.2515C101.971 39.3523 101.82 39.2851 101.736 39.1759C101.652 39.0583 101.643 38.8903 101.794 38.7895C102.198 38.5039 102.584 38.2183 103.004 37.8823C103.432 37.5379 103.592 37.1851 103.592 36.6139V36.0007H102.021C101.878 36.0007 101.811 35.8831 101.811 35.7319C101.811 35.5891 101.878 35.4715 102.021 35.4715H105.734ZM107.481 35.0179C107.632 35.0179 107.784 35.0935 107.784 35.2699V39.3607C107.784 39.5371 107.632 39.6127 107.481 39.6127C107.322 39.6127 107.179 39.5371 107.179 39.3607V37.5295H105.742C105.6 37.5295 105.532 37.4119 105.532 37.2607C105.532 37.1179 105.6 36.9919 105.742 36.9919H107.179V35.2699C107.179 35.0935 107.322 35.0179 107.481 35.0179ZM105.448 39.7135C106.977 39.7135 107.842 40.2511 107.842 41.2507C107.842 42.2503 106.977 42.7879 105.448 42.7879C103.92 42.7879 103.063 42.2503 103.063 41.2507C103.063 40.2511 103.92 39.7135 105.448 39.7135ZM105.448 40.2175C104.239 40.2175 103.668 40.6123 103.668 41.2507C103.668 41.8891 104.239 42.2839 105.448 42.2839C106.666 42.2839 107.238 41.8891 107.238 41.2507C107.238 40.6123 106.666 40.2175 105.448 40.2175ZM112.649 35.1103C114.236 35.1103 115.135 35.5303 115.135 36.4207C115.135 37.3027 114.236 37.7227 112.649 37.7227C111.061 37.7227 110.162 37.3027 110.162 36.4207C110.162 35.5303 111.061 35.1103 112.649 35.1103ZM112.649 35.6143C111.372 35.6143 110.775 35.8915 110.775 36.4207C110.775 36.9415 111.372 37.2271 112.649 37.2271C113.925 37.2271 114.522 36.9415 114.522 36.4207C114.522 35.8915 113.925 35.6143 112.649 35.6143ZM115.941 38.3779C116.084 38.3779 116.151 38.4955 116.151 38.6383C116.151 38.7811 116.084 38.8987 115.941 38.8987H109.356C109.213 38.8987 109.146 38.7811 109.146 38.6383C109.146 38.4955 109.213 38.3779 109.356 38.3779H115.941ZM114.564 39.6883C115.001 39.6883 115.143 39.8227 115.143 40.2511V40.8727C115.143 41.3011 115.001 41.4355 114.564 41.4355H110.876C110.784 41.4355 110.742 41.4691 110.742 41.5699V42.0907C110.742 42.1831 110.784 42.2167 110.876 42.2167H115.152C115.286 42.2167 115.345 42.3343 115.345 42.4603C115.345 42.5947 115.286 42.7123 115.152 42.7123H110.725C110.288 42.7123 110.145 42.5779 110.145 42.1495V41.5195C110.145 41.0911 110.288 40.9567 110.725 40.9567H114.413C114.513 40.9567 114.555 40.9231 114.555 40.8307V40.3099C114.555 40.2175 114.513 40.1755 114.413 40.1755H110.33C110.196 40.1755 110.129 40.0663 110.129 39.9319C110.129 39.8059 110.196 39.6883 110.33 39.6883H114.564ZM120.924 35.6143C121.075 35.6143 121.142 35.7319 121.142 35.8747C121.142 36.0259 121.075 36.1435 120.924 36.1435H120.017C119.899 36.1435 119.857 36.1855 119.857 36.2947V39.5875C119.857 39.6967 119.899 39.7387 120.017 39.7387C120.378 39.7387 120.781 39.7135 121.109 39.6547C121.235 39.6295 121.327 39.7219 121.344 39.8647C121.369 40.0159 121.31 40.1503 121.176 40.1755C120.756 40.2427 120.285 40.2679 119.84 40.2679C119.403 40.2679 119.261 40.1335 119.261 39.7051V36.1771C119.261 35.7487 119.403 35.6143 119.84 35.6143H120.924ZM123.318 35.6143C123.469 35.6143 123.536 35.7319 123.536 35.8747C123.536 36.0259 123.469 36.1435 123.318 36.1435H122.377C122.259 36.1435 122.217 36.1855 122.217 36.2947V39.5875C122.217 39.6967 122.259 39.7387 122.377 39.7387C122.78 39.7387 123.284 39.7135 123.62 39.6463C123.746 39.6211 123.839 39.7135 123.855 39.8563C123.881 40.0075 123.822 40.1419 123.687 40.1671C123.251 40.2427 122.688 40.2679 122.201 40.2679C121.764 40.2679 121.621 40.1335 121.621 39.7051V36.1771C121.621 35.7487 121.764 35.6143 122.201 35.6143H123.318ZM124.973 35.0179C125.132 35.0179 125.275 35.0935 125.275 35.2699V41.9563C125.275 42.1327 125.132 42.2083 124.973 42.2083C124.821 42.2083 124.679 42.1327 124.679 41.9563V38.1259H123.595C123.444 38.1259 123.377 38.0083 123.377 37.8571C123.377 37.7059 123.444 37.5883 123.595 37.5883H124.679V35.2699C124.679 35.0935 124.821 35.0179 124.973 35.0179ZM130.039 35.1103C131.627 35.1103 132.526 35.5303 132.526 36.4207C132.526 37.2439 131.736 37.6639 130.342 37.7143V38.4871H133.34C133.475 38.4871 133.542 38.6047 133.542 38.7475C133.542 38.8819 133.475 38.9995 133.34 38.9995H126.738C126.604 38.9995 126.536 38.8819 126.536 38.7475C126.536 38.6047 126.604 38.4871 126.738 38.4871H129.737V37.7143C128.334 37.6639 127.553 37.2439 127.553 36.4207C127.553 35.5303 128.452 35.1103 130.039 35.1103ZM131.954 39.6883C132.391 39.6883 132.534 39.8227 132.534 40.2511V40.8727C132.534 41.3011 132.391 41.4355 131.954 41.4355H128.267C128.174 41.4355 128.132 41.4691 128.132 41.5699V42.0907C128.132 42.1831 128.174 42.2167 128.267 42.2167H132.542C132.677 42.2167 132.736 42.3343 132.736 42.4603C132.736 42.5947 132.677 42.7123 132.542 42.7123H128.116C127.679 42.7123 127.536 42.5779 127.536 42.1495V41.5195C127.536 41.0911 127.679 40.9567 128.116 40.9567H131.803C131.904 40.9567 131.946 40.9231 131.946 40.8307V40.3099C131.946 40.2175 131.904 40.1755 131.803 40.1755H127.721C127.586 40.1755 127.519 40.0663 127.519 39.9319C127.519 39.8059 127.586 39.6883 127.721 39.6883H131.954ZM130.039 35.6143C128.762 35.6143 128.166 35.8915 128.166 36.4207C128.166 36.9415 128.762 37.2271 130.039 37.2271C131.316 37.2271 131.912 36.9415 131.912 36.4207C131.912 35.8915 131.316 35.6143 130.039 35.6143ZM137.265 35.5555C137.701 35.5555 137.844 35.6899 137.844 36.1183V37.6723C137.844 38.1007 137.701 38.2351 137.265 38.2351H135.417C135.299 38.2351 135.257 38.2771 135.257 38.3863V39.7723C135.257 39.8815 135.299 39.9235 135.417 39.9235C136.525 39.9235 137.609 39.8899 138.533 39.7891C138.659 39.7723 138.76 39.8647 138.777 40.0075C138.793 40.1755 138.726 40.3099 138.592 40.3183C137.785 40.4107 136.693 40.4527 135.232 40.4527C134.795 40.4527 134.652 40.3183 134.652 39.8899V38.2855C134.652 37.8571 134.795 37.7227 135.232 37.7227H137.08C137.189 37.7227 137.239 37.6807 137.239 37.5631V36.2359C137.239 36.1267 137.189 36.0847 137.08 36.0847H134.862C134.719 36.0847 134.652 35.9671 134.652 35.8159C134.652 35.6731 134.719 35.5555 134.862 35.5555H137.265ZM140.163 35.0179C140.314 35.0179 140.465 35.0935 140.465 35.2699V41.9563C140.465 42.1327 140.314 42.2083 140.163 42.2083C140.011 42.2083 139.86 42.1327 139.86 41.9563V38.9407H138.617C138.466 38.9407 138.399 38.8147 138.399 38.6719C138.399 38.5291 138.466 38.4115 138.617 38.4115H139.86V37.1851H138.617C138.466 37.1851 138.399 37.0591 138.399 36.9163C138.399 36.7735 138.466 36.6559 138.617 36.6559H139.86V35.2699C139.86 35.0935 140.011 35.0179 140.163 35.0179ZM145.229 35.3875C145.38 35.3875 145.531 35.4631 145.531 35.6395V36.8071H149.328V35.6395C149.328 35.4631 149.479 35.3875 149.631 35.3875C149.782 35.3875 149.933 35.4631 149.933 35.6395V38.6551C149.933 39.0835 149.79 39.2179 149.353 39.2179H147.741V40.8979H150.714C150.865 40.8979 150.933 41.0155 150.933 41.1667C150.933 41.3095 150.865 41.4271 150.714 41.4271H144.145C143.994 41.4271 143.927 41.3095 143.927 41.1667C143.927 41.0155 143.994 40.8979 144.145 40.8979H147.127V39.2179H145.506C145.069 39.2179 144.927 39.0835 144.927 38.6551V35.6395C144.927 35.4631 145.078 35.3875 145.229 35.3875ZM145.531 38.5375C145.531 38.6467 145.582 38.6887 145.691 38.6887H149.169C149.278 38.6887 149.328 38.6467 149.328 38.5375V37.3363H145.531V38.5375ZM153.647 35.4715C154.899 35.4715 155.546 36.3283 155.546 37.9243C155.546 39.5203 154.899 40.3771 153.647 40.3771C152.396 40.3771 151.74 39.5203 151.74 37.9243C151.74 36.3283 152.396 35.4715 153.647 35.4715ZM153.647 36.0175C152.74 36.0175 152.345 36.7063 152.345 37.9243C152.345 39.1423 152.74 39.8311 153.647 39.8311C154.554 39.8311 154.949 39.1423 154.949 37.9243C154.949 36.7063 154.554 36.0175 153.647 36.0175ZM157.133 35.0179C157.293 35.0179 157.444 35.0935 157.444 35.2699V37.6135H158.511C158.662 37.6135 158.729 37.7395 158.729 37.8823C158.729 38.0335 158.662 38.1595 158.511 38.1595H157.444V41.9563C157.444 42.1327 157.293 42.2083 157.133 42.2083C156.982 42.2083 156.831 42.1327 156.831 41.9563V35.2699C156.831 35.0935 156.982 35.0179 157.133 35.0179ZM162.72 35.3287C164.325 35.3287 165.232 36.0679 165.232 37.2775C165.232 38.4871 164.325 39.2263 162.72 39.2263C161.116 39.2263 160.209 38.4871 160.209 37.2775C160.209 36.0679 161.116 35.3287 162.72 35.3287ZM162.72 35.8495C161.435 35.8495 160.822 36.4543 160.822 37.2775C160.822 38.0923 161.435 38.6971 162.72 38.6971C164.006 38.6971 164.619 38.0923 164.619 37.2775C164.619 36.4543 164.006 35.8495 162.72 35.8495ZM161.385 39.4195C161.553 39.4195 161.696 39.4951 161.696 39.6715V40.9063H163.745V39.6715C163.745 39.4951 163.888 39.4195 164.048 39.4195C164.207 39.4195 164.358 39.4951 164.358 39.6715V40.9063H166.013C166.156 40.9063 166.223 41.0239 166.223 41.1667C166.223 41.3095 166.156 41.4271 166.013 41.4271H159.428C159.285 41.4271 159.218 41.3095 159.218 41.1667C159.218 41.0239 159.285 40.9063 159.428 40.9063H161.082V39.6715C161.082 39.4951 161.234 39.4195 161.385 39.4195Z" fill="#333835"/>
<path d="M105.578 51.7586C106.511 51.7586 107.02 52.2525 107.02 52.9816C107.02 53.7107 106.511 54.2046 105.578 54.2046C104.652 54.2046 104.143 53.7107 104.143 52.9816C104.143 52.2525 104.652 51.7586 105.578 51.7586ZM105.578 49.9005C105.719 49.9005 105.86 49.971 105.86 50.1357V50.755H107.146C107.287 50.755 107.349 50.8648 107.349 50.9981C107.349 51.1314 107.287 51.249 107.146 51.249H103.916C103.782 51.249 103.72 51.1314 103.72 50.9981C103.72 50.8648 103.782 50.755 103.916 50.755H105.295V50.1357C105.295 49.971 105.436 49.9005 105.578 49.9005ZM105.578 52.2133C104.99 52.2133 104.652 52.519 104.652 52.9816C104.652 53.4442 104.99 53.7499 105.578 53.7499C106.173 53.7499 106.511 53.4442 106.511 52.9816C106.511 52.519 106.173 52.2133 105.578 52.2133ZM109.568 49.9318C109.709 49.9318 109.843 50.0024 109.843 50.1592V54.3222C109.843 54.479 109.709 54.5418 109.568 54.5418C109.435 54.5418 109.302 54.479 109.302 54.3222V52.3622H108.275V53.993C108.275 54.1498 108.141 54.2125 108 54.2125C107.867 54.2125 107.734 54.1498 107.734 53.993V50.1984C107.734 50.0416 107.867 49.971 108 49.971C108.141 49.971 108.275 50.0416 108.275 50.1984V51.8683H109.302V50.1592C109.302 50.0024 109.435 49.9318 109.568 49.9318ZM107.538 54.6123C109.004 54.6123 109.835 55.0435 109.835 55.8981C109.835 56.7605 109.004 57.1838 107.538 57.1838C106.072 57.1838 105.24 56.7605 105.24 55.8981C105.24 55.0435 106.072 54.6123 107.538 54.6123ZM107.538 55.0827C106.362 55.0827 105.813 55.3885 105.813 55.8981C105.813 56.4155 106.362 56.7213 107.538 56.7213C108.714 56.7213 109.262 56.4155 109.262 55.8981C109.262 55.3885 108.714 55.0827 107.538 55.0827ZM112.157 50.0808C112.306 50.0808 112.439 50.1514 112.439 50.3082V50.9902H115.967V50.3082C115.967 50.1514 116.1 50.0808 116.241 50.0808C116.39 50.0808 116.523 50.1514 116.523 50.3082V52.2446C116.523 52.6445 116.39 52.7699 115.983 52.7699H114.485V53.6715H117.276C117.409 53.6715 117.472 53.7813 117.472 53.9146C117.472 54.0478 117.409 54.1576 117.276 54.1576H111.13C110.996 54.1576 110.934 54.0478 110.934 53.9146C110.934 53.7813 110.996 53.6715 111.13 53.6715H113.921V52.7699H112.423C112.015 52.7699 111.882 52.6445 111.882 52.2446V50.3082C111.882 50.1514 112.015 50.0808 112.157 50.0808ZM115.998 54.871C116.406 54.871 116.539 54.9965 116.539 55.3963V56.9565C116.539 57.1211 116.406 57.1917 116.257 57.1917C116.108 57.1917 115.975 57.1211 115.975 56.9565V55.5061C115.975 55.3963 115.928 55.3571 115.826 55.3571H111.961C111.835 55.3571 111.772 55.2474 111.772 55.1141C111.772 54.9808 111.835 54.871 111.961 54.871H115.998ZM112.439 52.1741C112.439 52.2603 112.478 52.2995 112.572 52.2995H115.834C115.928 52.2995 115.967 52.2603 115.967 52.1741V51.4685H112.439V52.1741ZM119.849 52.0878C120.813 52.0878 121.291 52.7386 121.291 53.5696C121.291 54.4006 120.813 55.0514 119.849 55.0514C118.885 55.0514 118.414 54.4006 118.414 53.5696C118.414 52.7386 118.885 52.0878 119.849 52.0878ZM119.849 49.9789C119.99 49.9789 120.131 50.0494 120.131 50.2141V51.0059H121.417C121.558 51.0059 121.621 51.1157 121.621 51.249C121.621 51.3901 121.558 51.4998 121.417 51.4998H118.187C118.053 51.4998 117.991 51.3901 117.991 51.249C117.991 51.1157 118.053 51.0059 118.187 51.0059H119.567V50.2141C119.567 50.0494 119.708 49.9789 119.849 49.9789ZM119.849 52.5739C119.214 52.5739 118.924 53.013 118.924 53.5696C118.924 54.1341 119.214 54.5731 119.849 54.5731C120.492 54.5731 120.782 54.1341 120.782 53.5696C120.782 53.013 120.492 52.5739 119.849 52.5739ZM123.839 49.9318C123.981 49.9318 124.114 50.0024 124.114 50.1592V56.4155C124.114 56.5723 123.981 56.6429 123.839 56.6429C123.706 56.6429 123.573 56.5723 123.573 56.4155V52.9659H122.546V56.0862C122.546 56.243 122.413 56.3136 122.271 56.3136C122.138 56.3136 122.005 56.243 122.005 56.0862V50.2376C122.005 50.0808 122.138 50.0102 122.271 50.0102C122.413 50.0102 122.546 50.0808 122.546 50.2376V52.472H123.573V50.1592C123.573 50.0024 123.706 49.9318 123.839 49.9318ZM128.474 50.2219C129.972 50.2219 130.818 50.9118 130.818 52.0408C130.818 53.1698 129.972 53.8597 128.474 53.8597C126.977 53.8597 126.13 53.1698 126.13 52.0408C126.13 50.9118 126.977 50.2219 128.474 50.2219ZM128.474 50.708C127.275 50.708 126.702 51.2725 126.702 52.0408C126.702 52.8013 127.275 53.3658 128.474 53.3658C129.674 53.3658 130.246 52.8013 130.246 52.0408C130.246 51.2725 129.674 50.708 128.474 50.708ZM127.228 54.04C127.384 54.04 127.518 54.1106 127.518 54.2752V55.4277H129.431V54.2752C129.431 54.1106 129.564 54.04 129.713 54.04C129.862 54.04 130.003 54.1106 130.003 54.2752V55.4277H131.547C131.681 55.4277 131.743 55.5374 131.743 55.6707C131.743 55.804 131.681 55.9138 131.547 55.9138H125.401C125.268 55.9138 125.205 55.804 125.205 55.6707C125.205 55.5374 125.268 55.4277 125.401 55.4277H126.945V54.2752C126.945 54.1106 127.086 54.04 127.228 54.04Z" fill="#808983"/>
<path fill-rule="evenodd" clip-rule="evenodd" d="M62.6831 82.4119C71.412 85.5281 71.4973 92.5828 72.1358 94.8299C74.8127 104.252 66.9098 108.023 60.535 106.893C53.0611 105.568 47.0215 105.385 48.6474 92.9338C50.6787 84.9679 56.5659 80.6088 62.6831 82.4119Z" fill="#E2F7F2"/>
<path d="M60.2452 81.8928C60.5906 81.0591 60.6426 80.2431 60.1943 79.4075C59.8158 78.7017 59.303 78.1933 58.5729 77.9547C58.4961 77.9306 58.4163 77.9172 58.3358 77.9149C58.2204 77.9311 58.3044 78.6209 58.3085 78.7579C58.3572 80.4212 58.3127 81.55 60.2452 81.8928Z" fill="#C2F2EA"/>
<path d="M61.4091 92.9608L62.1835 92.6449C62.4779 92.5244 62.5756 92.1992 62.3935 91.9467L61.8483 91.1903C61.758 91.0718 61.6282 90.9897 61.4825 90.9588C61.3367 90.9279 61.1847 90.9504 61.0542 91.0222L60.2478 91.4876C59.9778 91.6447 59.9342 91.9816 60.1541 92.2114L60.7318 92.8159C60.8181 92.9037 60.9283 92.9642 61.0487 92.99C61.1691 93.0157 61.2944 93.0056 61.4091 92.9608Z" fill="#F9D2D2"/>
<path d="M63.7071 89.936C63.6873 89.9401 63.6664 89.9407 63.6456 89.938C63.6249 89.9353 63.6046 89.9292 63.5861 89.9201C63.5676 89.911 63.5511 89.8991 63.5376 89.885C63.5241 89.871 63.5139 89.8551 63.5075 89.8382C63.5011 89.8213 63.4987 89.8038 63.5004 89.7867C63.5021 89.7696 63.5078 89.7531 63.5173 89.7383C63.5268 89.7236 63.5399 89.7107 63.5558 89.7005C63.5716 89.6903 63.59 89.683 63.6098 89.679L65.0383 90.4556C64.9099 90.2592 64.7076 90.1004 64.4653 90.0059C64.2229 89.9113 63.9552 89.8866 63.7071 89.936ZM63.7071 89.936L63.713 89.9656C63.9553 89.9173 64.2172 89.9414 64.4543 90.0339C64.6915 90.1265 64.8885 90.2815 65.0131 90.4721L65.0131 90.4721L65.0137 90.473C65.0395 90.5094 65.0795 90.5362 65.1248 90.5489C65.1702 90.5616 65.2188 90.5598 65.261 90.543C65.3032 90.5261 65.3366 90.4949 65.352 90.4543C65.3674 90.4136 65.3624 90.3689 65.3399 90.3304L65.3399 90.3304L65.3391 90.3292C65.1717 90.0713 64.9072 89.8639 64.5913 89.741L64.5913 89.741C64.4948 89.7035 64.3947 89.6742 64.2925 89.6536M63.7071 89.936L63.7131 89.9656C63.6899 89.9703 63.6656 89.971 63.6417 89.9679C63.6177 89.9647 63.5943 89.9577 63.5728 89.9471C63.5513 89.9366 63.5319 89.9227 63.5159 89.9059C63.4998 89.8892 63.4873 89.8698 63.4793 89.8489C63.4714 89.8279 63.4682 89.8057 63.4704 89.7837C63.4726 89.7618 63.4799 89.7408 63.492 89.7221C63.504 89.7034 63.5202 89.6875 63.5395 89.6752C63.5587 89.6628 63.5806 89.6542 63.6038 89.6495L63.6039 89.6495C63.8265 89.6047 64.0626 89.6062 64.2925 89.6536M64.2925 89.6536C64.2925 89.6536 64.2925 89.6536 64.2926 89.6536L64.2865 89.6831L64.2924 89.6536C64.2925 89.6536 64.2925 89.6536 64.2925 89.6536ZM64.5804 89.7691C64.8911 89.8899 65.1502 90.0936 65.3139 90.3456L64.5804 89.7691Z" fill="#07BEB8" stroke="#07BEB8" stroke-width="0.0602597"/>
<path d="M59.1327 88.723C59.0367 88.7104 58.9398 88.7065 58.8435 88.7112M59.1327 88.723L59.1365 88.6931C59.1365 88.6932 59.1366 88.6932 59.1366 88.6932C59.1366 88.6932 59.1366 88.6932 59.1367 88.6932L59.1327 88.723ZM59.1327 88.723C59.3486 88.7505 59.5557 88.8227 59.7364 88.9336C59.7528 88.9437 59.7668 88.9565 59.7778 88.9712L58.8435 88.7112M58.8435 88.7112C58.5293 88.7274 58.2351 88.8382 58.0107 89.025L58.8435 88.7112ZM59.8019 88.9532C59.8153 88.9711 59.8247 88.9912 59.8295 89.0126C59.8343 89.0339 59.8343 89.0559 59.8294 89.0771C59.8246 89.0984 59.8149 89.1182 59.8013 89.1355C59.7877 89.1528 59.7704 89.1673 59.7507 89.1781C59.7309 89.189 59.709 89.1962 59.6862 89.1994C59.6634 89.2026 59.64 89.2019 59.6173 89.1972C59.5946 89.1925 59.573 89.184 59.5535 89.172L59.5693 89.1463C59.3639 89.0208 59.1179 88.9593 58.8725 88.9721L59.8019 88.9532Z" fill="#07BEB8" stroke="#07BEB8" stroke-width="0.0602597"/>
<path opacity="0.3" d="M48.5624 89.1504C47.1549 91.5408 46.9682 93.0842 47.086 95.9899" stroke="#07BEB8" stroke-width="0.150649"/>
<ellipse cx="71.4997" cy="87.1763" rx="0.437886" ry="0.553489" transform="rotate(-76.1288 71.4997 87.1763)" fill="#07BEB8"/>
<path d="M72.4003 85.1738L71.8754 87.2994" stroke="#07BEB8" stroke-width="0.301299" stroke-linecap="round"/>
<path d="M72.4081 85.1762C72.3397 85.142 72.6765 85.672 72.9544 86.0902C73.2322 86.5084 72.5771 87.0292 72.6467 86.9983" stroke="#07BEB8" stroke-width="0.301299" stroke-linecap="round"/>
<g opacity="0.5">
<path fill-rule="evenodd" clip-rule="evenodd" d="M121.134 82.5283C127.955 84.6126 128.239 91.8334 130.32 94.7622C135.789 102.457 126.27 106.749 118.714 106.59C108.06 106.366 101.751 101.756 107.091 92.8446C108.177 84.8102 114.655 80.7852 121.134 82.5283Z" fill="#E2F7F2"/>
<path d="M117.699 81.8908C118.207 81.1449 118.424 80.3566 118.155 79.4472C117.928 78.6792 117.529 78.077 116.863 77.6948C116.793 77.6555 116.717 77.6261 116.639 77.6075C116.523 77.5999 116.465 78.2923 116.441 78.4273C116.15 80.0657 115.876 81.1618 117.699 81.8908Z" fill="#C2F2EA"/>
<path d="M118.897 93.1791L119.627 92.7708C119.904 92.6152 119.962 92.2805 119.75 92.0522L119.116 91.3682C119.012 91.2616 118.873 91.196 118.725 91.1832C118.576 91.1704 118.428 91.2113 118.308 91.2985L117.564 91.8592C117.315 92.0481 117.313 92.3878 117.56 92.589L118.207 93.1182C118.304 93.1948 118.42 93.2414 118.543 93.2522C118.666 93.263 118.789 93.2376 118.897 93.1791Z" fill="#F9D2D2"/>
<path d="M115.839 88.7365L115.839 88.7365C115.578 88.6119 115.368 88.4009 115.245 88.1392L115.244 88.1366L115.244 88.1366C115.225 88.0912 115.225 88.0403 115.242 87.9945C115.26 87.9487 115.295 87.9115 115.34 87.8908C115.384 87.87 115.435 87.8673 115.481 87.8831C115.528 87.8989 115.567 87.9321 115.589 87.9757L115.59 87.9777L115.59 87.9777C115.676 88.1593 115.822 88.3059 116.004 88.3928C116.185 88.4797 116.39 88.5016 116.586 88.4551L115.839 88.7365ZM115.839 88.7365C115.919 88.7745 116.002 88.8041 116.088 88.8248M115.839 88.7365L116.088 88.8248M116.088 88.8248C116.088 88.8248 116.088 88.8248 116.088 88.8248L116.102 88.7663M116.088 88.8248C116.088 88.8249 116.088 88.8249 116.088 88.8249L116.102 88.7663M116.102 88.7663C116.02 88.7465 115.941 88.7183 115.865 88.6821M116.102 88.7663C116.286 88.8117 116.478 88.8123 116.662 88.768L115.865 88.6821M115.865 88.6821C115.617 88.5635 115.417 88.3626 115.3 88.1135C115.287 88.0825 115.286 88.0477 115.299 88.0163C115.311 87.985 115.335 87.9596 115.365 87.9454C115.395 87.9312 115.43 87.9293 115.462 87.9401C115.494 87.951 115.52 87.9737 115.536 88.0035L115.865 88.6821Z" fill="#07BEB8" stroke="#07BEB8" stroke-width="0.120519"/>
<path d="M121.135 88.8507C121.219 88.8506 121.304 88.8418 121.386 88.8245M121.135 88.8507L121.136 88.9109C121.135 88.9109 121.135 88.9109 121.135 88.9109C121.135 88.9109 121.135 88.9109 121.135 88.9109L121.135 88.8507ZM121.135 88.8507C120.946 88.8517 120.759 88.8072 120.591 88.7209C120.575 88.7131 120.562 88.7023 120.551 88.6891C120.54 88.676 120.531 88.6608 120.526 88.6445C120.521 88.6281 120.519 88.6109 120.52 88.5937C120.522 88.5766 120.526 88.5599 120.534 88.5446C120.542 88.5294 120.553 88.5158 120.566 88.5047L120.527 88.4587C120.546 88.4425 120.568 88.4302 120.592 88.4225C120.616 88.4149 120.641 88.412 120.666 88.4141C120.691 88.4162 120.716 88.4231 120.738 88.4346M121.386 88.8245L120.738 88.4346M121.386 88.8245C121.655 88.7673 121.896 88.6189 122.068 88.4044L121.386 88.8245ZM120.738 88.4346C120.738 88.4345 120.738 88.4345 120.738 88.4345L120.71 88.4882L120.738 88.4346C120.738 88.4346 120.738 88.4346 120.738 88.4346Z" fill="#07BEB8" stroke="#07BEB8" stroke-width="0.120519"/>
<path d="M115.983 90.8132C116.272 90.8132 116.506 90.5402 116.506 90.2035C116.506 89.8667 116.272 89.5938 115.983 89.5938C115.695 89.5938 115.461 89.8667 115.461 90.2035C115.461 90.5402 115.695 90.8132 115.983 90.8132Z" fill="#07BEB8"/>
<path d="M121.046 90.8132C121.334 90.8132 121.568 90.5402 121.568 90.2035C121.568 89.8667 121.334 89.5938 121.046 89.5938C120.757 89.5938 120.523 89.8667 120.523 90.2035C120.523 90.5402 120.757 90.8132 121.046 90.8132Z" fill="#07BEB8"/>
</g>
<g opacity="0.5">
<path fill-rule="evenodd" clip-rule="evenodd" d="M174.126 83.9139C165.82 85.5749 166.272 90.128 164.547 92.8329C159.365 100.96 169.037 103.16 176.799 103.64C185.811 104.196 193.04 106.532 189.677 92.8329C188.531 85.4919 180.966 82.3212 174.126 83.9139Z" fill="#E2F7F2"/>
<path d="M176.766 83.4035C177.666 83.471 178.457 83.2654 179.111 82.5783C179.663 81.9982 179.986 81.3522 179.984 80.5841C179.983 80.5036 179.971 80.4237 179.948 80.3465C179.896 80.2419 179.267 80.5373 179.138 80.584C177.574 81.1502 176.487 81.4607 176.766 83.4035Z" fill="#C2F2EA"/>
<path d="M176.444 93.16L177.218 92.8441C177.513 92.7236 177.61 92.3984 177.428 92.1459L176.883 91.3895C176.793 91.271 176.663 91.1889 176.517 91.158C176.371 91.1272 176.219 91.1496 176.089 91.2214L175.282 91.6868C175.012 91.8439 174.969 92.1808 175.189 92.4106L175.766 93.0151C175.853 93.1029 175.963 93.1634 176.083 93.1892C176.204 93.2149 176.329 93.2048 176.444 93.16Z" fill="#F9D2D2"/>
<path d="M173.896 90.569L173.896 90.569C173.613 90.5091 173.36 90.3532 173.179 90.1277L173.177 90.1255L173.177 90.1255C173.148 90.0858 173.136 90.0364 173.142 89.9877C173.149 89.939 173.174 89.8947 173.212 89.8641C173.251 89.8335 173.299 89.8189 173.348 89.8233C173.397 89.8278 173.443 89.851 173.475 89.8881L173.476 89.8897L173.476 89.8898C173.603 90.0461 173.779 90.1543 173.975 90.1963C174.172 90.2382 174.377 90.2113 174.556 90.1201L173.896 90.569ZM173.896 90.569C173.983 90.5872 174.071 90.5964 174.159 90.5965L173.896 90.569Z" fill="#07BEB8" stroke="#07BEB8" stroke-width="0.120519"/>
<path d="M179.296 91.5948C179.211 91.5948 179.127 91.586 179.045 91.5686M179.296 91.5948L179.295 91.6551C179.295 91.6551 179.295 91.6551 179.295 91.6551C179.296 91.6551 179.296 91.6551 179.296 91.6551L179.296 91.5948ZM179.296 91.5948C179.485 91.5959 179.672 91.5514 179.84 91.4651C179.855 91.4572 179.869 91.4464 179.88 91.4333C179.891 91.4202 179.9 91.405 179.905 91.3886C179.91 91.3722 179.912 91.355 179.911 91.3379C179.909 91.3207 179.905 91.3041 179.897 91.2888C179.889 91.2735 179.878 91.2599 179.865 91.2488L179.904 91.2028C179.885 91.1866 179.862 91.1743 179.839 91.1667C179.815 91.159 179.789 91.1561 179.764 91.1582C179.739 91.1603 179.715 91.1673 179.693 91.1787M179.045 91.5686L179.693 91.1787M179.045 91.5686C178.776 91.5115 178.535 91.3631 178.362 91.1486L179.045 91.5686ZM179.693 91.1787C179.693 91.1787 179.693 91.1787 179.693 91.1786L179.72 91.2323L179.693 91.1788C179.693 91.1787 179.693 91.1787 179.693 91.1787Z" fill="#07BEB8" stroke="#07BEB8" stroke-width="0.120519"/>
<path d="M185.481 88.1515C185.481 88.1515 186.445 87.9707 186.867 87.9707C187.288 87.9707 186.324 88.5733 185.601 89.0855C184.878 89.5977 186.867 89.0855 186.867 89.0855" stroke="#07BEB8" stroke-width="0.301299" stroke-linecap="round"/>
<path d="M186.521 86.364C186.521 86.364 187.271 86.4001 187.585 86.4749C187.899 86.5496 187.074 86.8275 186.445 87.0808C185.816 87.3341 187.388 87.305 187.388 87.305" stroke="#07BEB8" stroke-width="0.301299" stroke-linecap="round"/>
</g>
<g opacity="0.5">
<path fill-rule="evenodd" clip-rule="evenodd" d="M62.6831 124.972C71.412 128.089 71.4973 135.143 72.1358 137.39C74.8127 146.812 66.9098 150.584 60.535 149.454C53.0611 148.129 47.0215 147.946 48.6474 135.494C50.6787 127.528 56.5659 123.169 62.6831 124.972Z" fill="#E2F7F2"/>
<path d="M60.2452 124.453C60.5906 123.62 60.6426 122.804 60.1943 121.968C59.8158 121.262 59.303 120.754 58.5729 120.515C58.4961 120.491 58.4163 120.478 58.3358 120.475C58.2204 120.492 58.3044 121.181 58.3085 121.318C58.3572 122.982 58.3127 124.111 60.2452 124.453Z" fill="#C2F2EA"/>
<path d="M61.4091 135.521L62.1835 135.205C62.4779 135.085 62.5756 134.76 62.3935 134.507L61.8483 133.751C61.758 133.632 61.6282 133.55 61.4825 133.519C61.3367 133.488 61.1847 133.511 61.0542 133.583L60.2478 134.048C59.9778 134.205 59.9342 134.542 60.1541 134.772L60.7318 135.376C60.8181 135.464 60.9283 135.525 61.0487 135.551C61.1691 135.576 61.2944 135.566 61.4091 135.521Z" fill="#F9D2D2"/>
<path d="M63.7069 132.499C63.6871 132.503 63.6662 132.503 63.6454 132.5C63.6247 132.498 63.6044 132.492 63.5859 132.483C63.5674 132.474 63.5509 132.462 63.5374 132.448C63.5239 132.433 63.5137 132.418 63.5073 132.401C63.5009 132.384 63.4985 132.366 63.5002 132.349C63.5019 132.332 63.5076 132.316 63.5171 132.301C63.5266 132.286 63.5397 132.273 63.5556 132.263C63.5714 132.253 63.5898 132.246 63.6096 132.241L65.0382 133.018C64.9097 132.822 64.7074 132.663 64.4651 132.568C64.2227 132.474 63.9551 132.449 63.7069 132.499ZM63.7069 132.499L63.7128 132.528C63.9551 132.48 64.217 132.504 64.4541 132.596C64.6913 132.689 64.8883 132.844 65.0129 133.035L65.0129 133.035L65.0136 133.035C65.0393 133.072 65.0794 133.099 65.1247 133.111C65.17 133.124 65.2186 133.122 65.2608 133.105C65.303 133.089 65.3365 133.057 65.3518 133.017C65.3672 132.976 65.3622 132.931 65.3397 132.893L65.3397 132.893L65.339 132.892C65.1715 132.634 64.907 132.426 64.5911 132.304L64.5911 132.304C64.4946 132.266 64.3945 132.237 64.2923 132.216M63.7069 132.499L63.7129 132.528C63.6897 132.533 63.6654 132.534 63.6415 132.53C63.6175 132.527 63.5942 132.52 63.5727 132.51C63.5511 132.499 63.5317 132.485 63.5157 132.468C63.4996 132.452 63.4871 132.432 63.4791 132.411C63.4712 132.39 63.468 132.368 63.4702 132.346C63.4724 132.324 63.4798 132.303 63.4918 132.285C63.5038 132.266 63.5201 132.25 63.5393 132.238C63.5585 132.225 63.5804 132.217 63.6036 132.212L63.6037 132.212C63.8263 132.167 64.0624 132.169 64.2923 132.216M64.2923 132.216C64.2923 132.216 64.2924 132.216 64.2924 132.216L64.2863 132.246L64.2923 132.216C64.2923 132.216 64.2923 132.216 64.2923 132.216ZM64.5802 132.332C64.8909 132.452 65.1501 132.656 65.3137 132.908L64.5802 132.332Z" fill="#07BEB8" stroke="#07BEB8" stroke-width="0.0602597"/>
<path d="M59.1327 131.282C59.0367 131.269 58.9398 131.265 58.8435 131.27M59.1327 131.282L59.1365 131.252C59.1365 131.252 59.1366 131.252 59.1366 131.252C59.1366 131.252 59.1366 131.252 59.1367 131.252L59.1327 131.282ZM59.1327 131.282C59.3486 131.309 59.5557 131.381 59.7364 131.492C59.7528 131.502 59.7668 131.515 59.7778 131.53L58.8435 131.27M58.8435 131.27C58.5293 131.286 58.2351 131.397 58.0107 131.584L58.8435 131.27ZM59.8019 131.512C59.8153 131.53 59.8247 131.55 59.8295 131.571C59.8343 131.593 59.8343 131.614 59.8294 131.636C59.8246 131.657 59.8149 131.677 59.8013 131.694C59.7877 131.711 59.7704 131.726 59.7507 131.737C59.7309 131.748 59.709 131.755 59.6862 131.758C59.6634 131.761 59.64 131.76 59.6173 131.756C59.5946 131.751 59.573 131.743 59.5535 131.731L59.5693 131.705C59.3639 131.579 59.1179 131.518 58.8725 131.531L59.8019 131.512Z" fill="#07BEB8" stroke="#07BEB8" stroke-width="0.0602597"/>
<path opacity="0.3" d="M48.5624 131.711C47.1549 134.101 46.9682 135.645 47.086 138.55" stroke="#07BEB8" stroke-width="0.150649"/>
<ellipse cx="71.4997" cy="129.739" rx="0.437886" ry="0.553489" transform="rotate(-76.1288 71.4997 129.739)" fill="#07BEB8"/>
<path d="M72.4004 127.736L71.8755 129.862" stroke="#07BEB8" stroke-width="0.301299" stroke-linecap="round"/>
<path d="M72.4082 127.739C72.3398 127.704 72.6765 128.235 72.9544 128.653C73.2323 129.071 72.5772 129.592 72.6467 129.561" stroke="#07BEB8" stroke-width="0.301299" stroke-linecap="round"/>
</g>
<g opacity="0.5">
<path fill-rule="evenodd" clip-rule="evenodd" d="M121.134 125.089C127.955 127.173 128.239 134.394 130.32 137.323C135.789 145.017 126.27 149.309 118.714 149.151C108.06 148.927 101.751 144.316 107.091 135.405C108.177 127.371 114.655 123.346 121.134 125.089Z" fill="#E2F7F2"/>
<path d="M117.699 124.451C118.207 123.705 118.424 122.917 118.155 122.008C117.928 121.24 117.529 120.638 116.863 120.255C116.793 120.216 116.717 120.187 116.639 120.168C116.523 120.16 116.465 120.853 116.441 120.988C116.15 122.626 115.876 123.722 117.699 124.451Z" fill="#C2F2EA"/>
<path d="M118.897 135.74L119.627 135.331C119.904 135.176 119.962 134.841 119.75 134.613L119.116 133.929C119.012 133.822 118.873 133.757 118.725 133.744C118.576 133.731 118.428 133.772 118.308 133.859L117.564 134.42C117.315 134.609 117.313 134.948 117.56 135.15L118.207 135.679C118.304 135.755 118.42 135.802 118.543 135.813C118.666 135.824 118.789 135.798 118.897 135.74Z" fill="#F9D2D2"/>
<path d="M115.839 131.297L115.839 131.297C115.578 131.172 115.368 130.961 115.245 130.7L115.244 130.697L115.244 130.697C115.225 130.652 115.225 130.601 115.242 130.555C115.26 130.509 115.295 130.472 115.34 130.451C115.384 130.431 115.435 130.428 115.481 130.444C115.528 130.459 115.567 130.493 115.589 130.536L115.59 130.538L115.59 130.538C115.676 130.72 115.822 130.866 116.004 130.953C116.185 131.04 116.39 131.062 116.586 131.016L115.839 131.297ZM115.839 131.297C115.919 131.335 116.002 131.365 116.088 131.385M115.839 131.297L116.088 131.385M116.088 131.385C116.088 131.385 116.088 131.385 116.088 131.385L116.102 131.327M116.088 131.385C116.088 131.385 116.088 131.385 116.088 131.385L116.102 131.327M116.102 131.327C116.02 131.307 115.941 131.279 115.865 131.243M116.102 131.327C116.286 131.372 116.478 131.373 116.662 131.329L115.865 131.243M115.865 131.243C115.617 131.124 115.417 130.923 115.3 130.674C115.287 130.643 115.286 130.608 115.299 130.577C115.311 130.546 115.335 130.52 115.365 130.506C115.395 130.492 115.43 130.49 115.462 130.501C115.494 130.512 115.52 130.534 115.536 130.564L115.865 131.243Z" fill="#07BEB8" stroke="#07BEB8" stroke-width="0.120519"/>
<path d="M121.135 131.411C121.219 131.411 121.304 131.402 121.386 131.385M121.135 131.411L121.136 131.471C121.135 131.471 121.135 131.471 121.135 131.471C121.135 131.471 121.135 131.471 121.135 131.471L121.135 131.411ZM121.135 131.411C120.946 131.412 120.759 131.368 120.591 131.281C120.575 131.274 120.562 131.263 120.551 131.25C120.54 131.237 120.531 131.221 120.526 131.205C120.521 131.189 120.519 131.171 120.52 131.154C120.522 131.137 120.526 131.12 120.534 131.105C120.542 131.09 120.553 131.076 120.566 131.065L120.527 131.019C120.546 131.003 120.568 130.991 120.592 130.983C120.616 130.975 120.641 130.973 120.666 130.975C120.691 130.977 120.716 130.984 120.738 130.995M121.386 131.385L120.738 130.995M121.386 131.385C121.655 131.328 121.896 131.179 122.068 130.965L121.386 131.385ZM120.738 130.995C120.738 130.995 120.738 130.995 120.738 130.995L120.71 131.049L120.738 130.995C120.738 130.995 120.738 130.995 120.738 130.995Z" fill="#07BEB8" stroke="#07BEB8" stroke-width="0.120519"/>
<path d="M115.983 133.372C116.272 133.372 116.506 133.099 116.506 132.762C116.506 132.425 116.272 132.152 115.983 132.152C115.695 132.152 115.461 132.425 115.461 132.762C115.461 133.099 115.695 133.372 115.983 133.372Z" fill="#07BEB8"/>
<path d="M121.046 133.372C121.334 133.372 121.568 133.099 121.568 132.762C121.568 132.425 121.334 132.152 121.046 132.152C120.757 132.152 120.523 132.425 120.523 132.762C120.523 133.099 120.757 133.372 121.046 133.372Z" fill="#07BEB8"/>
</g>
<g opacity="0.5">
<path fill-rule="evenodd" clip-rule="evenodd" d="M174.126 126.476C165.82 128.137 166.272 132.69 164.547 135.395C159.365 143.522 169.037 145.723 176.799 146.202C185.811 146.759 193.04 149.094 189.677 135.395C188.531 128.054 180.966 124.884 174.126 126.476Z" fill="#E2F7F2"/>
<path d="M176.766 125.966C177.666 126.034 178.457 125.828 179.111 125.141C179.663 124.561 179.986 123.915 179.984 123.147C179.983 123.066 179.971 122.986 179.948 122.909C179.896 122.804 179.267 123.1 179.138 123.146C177.574 123.713 176.487 124.023 176.766 125.966Z" fill="#C2F2EA"/>
<path d="M176.444 135.722L177.218 135.407C177.513 135.286 177.61 134.961 177.428 134.708L176.883 133.952C176.793 133.834 176.663 133.751 176.517 133.721C176.371 133.69 176.219 133.712 176.089 133.784L175.282 134.249C175.012 134.406 174.969 134.743 175.189 134.973L175.766 135.578C175.853 135.665 175.963 135.726 176.083 135.752C176.204 135.777 176.329 135.767 176.444 135.722Z" fill="#F9D2D2"/>
<path d="M173.896 133.132L173.896 133.131C173.613 133.072 173.36 132.916 173.179 132.69L173.177 132.688L173.177 132.688C173.148 132.648 173.136 132.599 173.142 132.55C173.149 132.502 173.174 132.457 173.212 132.427C173.251 132.396 173.299 132.381 173.348 132.386C173.397 132.39 173.443 132.414 173.475 132.451L173.476 132.452L173.476 132.452C173.603 132.609 173.779 132.717 173.975 132.759C174.172 132.801 174.377 132.774 174.556 132.683L173.896 133.132ZM173.896 133.132C173.983 133.15 174.071 133.159 174.159 133.159L173.896 133.132Z" fill="#07BEB8" stroke="#07BEB8" stroke-width="0.120519"/>
<path d="M179.296 134.157C179.211 134.157 179.127 134.148 179.045 134.131M179.296 134.157L179.295 134.218C179.295 134.218 179.295 134.218 179.295 134.218C179.296 134.218 179.296 134.218 179.296 134.218L179.296 134.157ZM179.296 134.157C179.485 134.158 179.672 134.114 179.84 134.028C179.855 134.02 179.869 134.009 179.88 133.996C179.891 133.983 179.9 133.967 179.905 133.951C179.91 133.935 179.912 133.918 179.911 133.9C179.909 133.883 179.905 133.867 179.897 133.851C179.889 133.836 179.878 133.822 179.865 133.811L179.904 133.765C179.885 133.749 179.862 133.737 179.839 133.729C179.815 133.722 179.789 133.719 179.764 133.721C179.739 133.723 179.715 133.73 179.693 133.741M179.045 134.131L179.693 133.741M179.045 134.131C178.776 134.074 178.535 133.926 178.362 133.711L179.045 134.131ZM179.693 133.741C179.693 133.741 179.693 133.741 179.693 133.741L179.72 133.795L179.693 133.741C179.693 133.741 179.693 133.741 179.693 133.741Z" fill="#07BEB8" stroke="#07BEB8" stroke-width="0.120519"/>
<path d="M185.481 130.714C185.481 130.714 186.445 130.533 186.867 130.533C187.288 130.533 186.324 131.136 185.601 131.648C184.878 132.16 186.867 131.648 186.867 131.648" stroke="#07BEB8" stroke-width="0.301299" stroke-linecap="round"/>
<path d="M186.521 128.928C186.521 128.928 187.271 128.965 187.585 129.039C187.899 129.114 187.074 129.392 186.445 129.645C185.816 129.899 187.388 129.869 187.388 129.869" stroke="#07BEB8" stroke-width="0.301299" stroke-linecap="round"/>
</g>
<g opacity="0.5">
<path fill-rule="evenodd" clip-rule="evenodd" d="M62.6831 167.531C71.412 170.647 71.4973 177.702 72.1358 179.949C74.8127 189.371 66.9098 193.143 60.535 192.012C53.0611 190.688 47.0215 190.504 48.6474 178.053C50.6787 170.087 56.5659 165.728 62.6831 167.531Z" fill="#E2F7F2"/>
<path d="M60.2452 167.012C60.5906 166.178 60.6426 165.362 60.1943 164.527C59.8158 163.821 59.303 163.312 58.5729 163.074C58.4961 163.05 58.4163 163.036 58.3358 163.034C58.2204 163.05 58.3044 163.74 58.3085 163.877C58.3572 165.54 58.3127 166.669 60.2452 167.012Z" fill="#C2F2EA"/>
<path d="M61.4091 178.08L62.1835 177.764C62.4779 177.644 62.5756 177.318 62.3935 177.066L61.8483 176.309C61.758 176.191 61.6282 176.109 61.4825 176.078C61.3367 176.047 61.1847 176.07 61.0542 176.141L60.2478 176.607C59.9778 176.764 59.9342 177.101 60.1541 177.331L60.7318 177.935C60.8181 178.023 60.9283 178.083 61.0487 178.109C61.1691 178.135 61.2944 178.125 61.4091 178.08Z" fill="#F9D2D2"/>
<path d="M63.7069 175.057C63.6871 175.061 63.6662 175.062 63.6454 175.059C63.6247 175.056 63.6044 175.05 63.5859 175.041C63.5674 175.032 63.5509 175.02 63.5374 175.006C63.5239 174.992 63.5137 174.976 63.5073 174.959C63.5009 174.942 63.4985 174.925 63.5002 174.908C63.5019 174.891 63.5076 174.874 63.5171 174.859C63.5266 174.845 63.5397 174.832 63.5556 174.822C63.5714 174.811 63.5898 174.804 63.6096 174.8L65.0382 175.577C64.9097 175.38 64.7074 175.222 64.4651 175.127C64.2227 175.032 63.9551 175.008 63.7069 175.057ZM63.7069 175.057L63.7128 175.087C63.9551 175.038 64.217 175.062 64.4541 175.155C64.6913 175.248 64.8883 175.403 65.0129 175.593L65.0129 175.593L65.0136 175.594C65.0393 175.631 65.0794 175.657 65.1247 175.67C65.17 175.683 65.2186 175.681 65.2608 175.664C65.303 175.647 65.3365 175.616 65.3518 175.575C65.3672 175.535 65.3622 175.49 65.3397 175.451L65.3397 175.451L65.339 175.45C65.1715 175.192 64.907 174.985 64.5911 174.862L64.5911 174.862C64.4946 174.825 64.3945 174.795 64.2923 174.775M63.7069 175.057L63.7129 175.087C63.6897 175.091 63.6654 175.092 63.6415 175.089C63.6175 175.086 63.5942 175.079 63.5727 175.068C63.5511 175.058 63.5317 175.044 63.5157 175.027C63.4996 175.01 63.4871 174.991 63.4791 174.97C63.4712 174.949 63.468 174.927 63.4702 174.905C63.4724 174.883 63.4798 174.862 63.4918 174.843C63.5038 174.824 63.5201 174.809 63.5393 174.796C63.5585 174.784 63.5804 174.775 63.6036 174.771L63.6037 174.771C63.8263 174.726 64.0624 174.727 64.2923 174.775M64.2923 174.775C64.2923 174.775 64.2924 174.775 64.2924 174.775L64.2863 174.804L64.2923 174.775C64.2923 174.775 64.2923 174.775 64.2923 174.775ZM64.5802 174.89C64.8909 175.011 65.1501 175.215 65.3137 175.467L64.5802 174.89Z" fill="#07BEB8" stroke="#07BEB8" stroke-width="0.0602597"/>
<path d="M59.1327 173.842C59.0367 173.83 58.9398 173.826 58.8435 173.83M59.1327 173.842L59.1365 173.812C59.1365 173.812 59.1366 173.812 59.1366 173.812C59.1366 173.812 59.1366 173.812 59.1367 173.812L59.1327 173.842ZM59.1327 173.842C59.3486 173.87 59.5557 173.942 59.7364 174.053C59.7528 174.063 59.7668 174.076 59.7778 174.09L58.8435 173.83M58.8435 173.83C58.5293 173.847 58.2351 173.957 58.0107 174.144L58.8435 173.83ZM59.8019 174.072C59.8153 174.09 59.8247 174.11 59.8295 174.132C59.8343 174.153 59.8343 174.175 59.8294 174.196C59.8246 174.217 59.8149 174.237 59.8013 174.255C59.7877 174.272 59.7704 174.286 59.7507 174.297C59.7309 174.308 59.709 174.315 59.6862 174.319C59.6634 174.322 59.64 174.321 59.6173 174.316C59.5946 174.312 59.573 174.303 59.5535 174.291L59.5693 174.265C59.3639 174.14 59.1179 174.078 58.8725 174.091L59.8019 174.072Z" fill="#07BEB8" stroke="#07BEB8" stroke-width="0.0602597"/>
<path opacity="0.3" d="M48.5624 174.271C47.1549 176.662 46.9682 178.205 47.086 181.111" stroke="#07BEB8" stroke-width="0.150649"/>
<ellipse cx="71.4997" cy="172.299" rx="0.437886" ry="0.553489" transform="rotate(-76.1288 71.4997 172.299)" fill="#07BEB8"/>
<path d="M72.4003 170.297L71.8754 172.422" stroke="#07BEB8" stroke-width="0.301299" stroke-linecap="round"/>
<path d="M72.4081 170.299C72.3397 170.265 72.6765 170.795 72.9544 171.213C73.2322 171.631 72.5771 172.152 72.6467 172.121" stroke="#07BEB8" stroke-width="0.301299" stroke-linecap="round"/>
</g>
<g opacity="0.5">
<path fill-rule="evenodd" clip-rule="evenodd" d="M121.134 167.647C127.955 169.732 128.239 176.953 130.32 179.881C135.789 187.576 126.27 191.868 118.714 191.709C108.06 191.485 101.751 186.875 107.091 177.964C108.177 169.929 114.655 165.904 121.134 167.647Z" fill="#E2F7F2"/>
<path d="M117.699 167.01C118.207 166.264 118.424 165.476 118.155 164.566C117.928 163.798 117.529 163.196 116.863 162.814C116.793 162.775 116.717 162.745 116.639 162.727C116.523 162.719 116.465 163.411 116.441 163.546C116.15 165.185 115.876 166.281 117.699 167.01Z" fill="#C2F2EA"/>
<path d="M118.897 178.298L119.627 177.89C119.904 177.734 119.962 177.4 119.75 177.171L119.116 176.487C119.012 176.381 118.873 176.315 118.725 176.302C118.576 176.29 118.428 176.33 118.308 176.418L117.564 176.978C117.315 177.167 117.313 177.507 117.56 177.708L118.207 178.237C118.304 178.314 118.42 178.361 118.543 178.371C118.666 178.382 118.789 178.357 118.897 178.298Z" fill="#F9D2D2"/>
<path d="M115.839 173.854L115.839 173.854C115.578 173.729 115.368 173.518 115.245 173.256L115.244 173.254L115.244 173.254C115.225 173.208 115.225 173.157 115.242 173.112C115.26 173.066 115.295 173.029 115.34 173.008C115.384 172.987 115.435 172.984 115.481 173C115.528 173.016 115.567 173.049 115.589 173.093L115.59 173.095L115.59 173.095C115.676 173.277 115.822 173.423 116.004 173.51C116.185 173.597 116.39 173.619 116.586 173.572L115.839 173.854ZM115.839 173.854C115.919 173.892 116.002 173.921 116.088 173.942M115.839 173.854L116.088 173.942M116.088 173.942C116.088 173.942 116.088 173.942 116.088 173.942L116.102 173.883M116.088 173.942C116.088 173.942 116.088 173.942 116.088 173.942L116.102 173.883M116.102 173.883C116.02 173.864 115.941 173.836 115.865 173.799M116.102 173.883C116.286 173.929 116.478 173.929 116.662 173.885L115.865 173.799M115.865 173.799C115.617 173.681 115.417 173.48 115.3 173.231C115.287 173.2 115.286 173.165 115.299 173.134C115.311 173.102 115.335 173.077 115.365 173.063C115.395 173.048 115.43 173.047 115.462 173.057C115.494 173.068 115.52 173.091 115.536 173.121L115.865 173.799Z" fill="#07BEB8" stroke="#07BEB8" stroke-width="0.120519"/>
<path d="M121.135 173.97C121.219 173.97 121.304 173.961 121.386 173.944M121.135 173.97L121.136 174.03C121.135 174.03 121.135 174.03 121.135 174.03C121.135 174.03 121.135 174.03 121.135 174.03L121.135 173.97ZM121.135 173.97C120.946 173.971 120.759 173.926 120.591 173.84C120.575 173.832 120.562 173.821 120.551 173.808C120.54 173.795 120.531 173.78 120.526 173.764C120.521 173.747 120.519 173.73 120.52 173.713C120.522 173.696 120.526 173.679 120.534 173.664C120.542 173.649 120.553 173.635 120.566 173.624L120.527 173.578C120.546 173.562 120.568 173.549 120.592 173.542C120.616 173.534 120.641 173.531 120.666 173.533C120.691 173.535 120.716 173.542 120.738 173.554M121.386 173.944L120.738 173.554M121.386 173.944C121.655 173.886 121.896 173.738 122.068 173.524L121.386 173.944ZM120.738 173.554C120.738 173.554 120.738 173.554 120.738 173.554L120.71 173.607L120.738 173.554C120.738 173.554 120.738 173.554 120.738 173.554Z" fill="#07BEB8" stroke="#07BEB8" stroke-width="0.120519"/>
<path d="M115.983 175.93C116.272 175.93 116.506 175.657 116.506 175.321C116.506 174.984 116.272 174.711 115.983 174.711C115.695 174.711 115.461 174.984 115.461 175.321C115.461 175.657 115.695 175.93 115.983 175.93Z" fill="#07BEB8"/>
<path d="M121.046 175.93C121.334 175.93 121.568 175.657 121.568 175.321C121.568 174.984 121.334 174.711 121.046 174.711C120.757 174.711 120.523 174.984 120.523 175.321C120.523 175.657 120.757 175.93 121.046 175.93Z" fill="#07BEB8"/>
</g>
<g opacity="0.5">
<path fill-rule="evenodd" clip-rule="evenodd" d="M174.126 169.031C165.82 170.692 166.272 175.245 164.547 177.95C159.365 186.077 169.037 188.278 176.799 188.757C185.811 189.313 193.04 191.649 189.677 177.95C188.531 170.609 180.966 167.438 174.126 169.031Z" fill="#E2F7F2"/>
<path d="M176.766 168.521C177.666 168.588 178.457 168.383 179.111 167.696C179.663 167.115 179.986 166.469 179.984 165.701C179.983 165.621 179.971 165.541 179.948 165.464C179.896 165.359 179.267 165.654 179.138 165.701C177.574 166.267 176.487 166.578 176.766 168.521Z" fill="#C2F2EA"/>
<path d="M176.444 178.277L177.218 177.961C177.513 177.841 177.61 177.516 177.428 177.263L176.883 176.507C176.793 176.388 176.663 176.306 176.517 176.275C176.371 176.244 176.219 176.267 176.089 176.339L175.282 176.804C175.012 176.961 174.969 177.298 175.189 177.528L175.766 178.132C175.853 178.22 175.963 178.281 176.083 178.306C176.204 178.332 176.329 178.322 176.444 178.277Z" fill="#F9D2D2"/>
<path d="M173.896 175.686L173.896 175.686C173.613 175.626 173.36 175.47 173.179 175.245L173.177 175.243L173.177 175.243C173.148 175.203 173.136 175.154 173.142 175.105C173.149 175.056 173.174 175.012 173.212 174.981C173.251 174.951 173.299 174.936 173.348 174.941C173.397 174.945 173.443 174.968 173.475 175.005L173.476 175.007L173.476 175.007C173.603 175.163 173.779 175.272 173.975 175.313C174.172 175.355 174.377 175.328 174.556 175.237L173.896 175.686ZM173.896 175.686C173.983 175.704 174.071 175.714 174.159 175.714L173.896 175.686Z" fill="#07BEB8" stroke="#07BEB8" stroke-width="0.120519"/>
<path d="M179.296 176.712C179.211 176.712 179.127 176.703 179.045 176.686M179.296 176.712L179.295 176.772C179.295 176.772 179.295 176.772 179.295 176.772C179.296 176.772 179.296 176.772 179.296 176.772L179.296 176.712ZM179.296 176.712C179.485 176.713 179.672 176.669 179.84 176.582C179.855 176.574 179.869 176.564 179.88 176.55C179.891 176.537 179.9 176.522 179.905 176.506C179.91 176.489 179.912 176.472 179.911 176.455C179.909 176.438 179.905 176.421 179.897 176.406C179.889 176.391 179.878 176.377 179.865 176.366L179.904 176.32C179.885 176.304 179.862 176.292 179.839 176.284C179.815 176.276 179.789 176.273 179.764 176.275C179.739 176.277 179.715 176.284 179.693 176.296M179.045 176.686L179.693 176.296M179.045 176.686C178.776 176.629 178.535 176.48 178.362 176.266L179.045 176.686ZM179.693 176.296C179.693 176.296 179.693 176.296 179.693 176.296L179.72 176.35L179.693 176.296C179.693 176.296 179.693 176.296 179.693 176.296Z" fill="#07BEB8" stroke="#07BEB8" stroke-width="0.120519"/>
<path d="M185.481 173.271C185.481 173.271 186.445 173.09 186.867 173.09C187.288 173.09 186.324 173.692 185.601 174.205C184.878 174.717 186.867 174.205 186.867 174.205" stroke="#07BEB8" stroke-width="0.301299" stroke-linecap="round"/>
<path d="M186.521 171.481C186.521 171.481 187.271 171.517 187.585 171.592C187.899 171.667 187.074 171.945 186.445 172.198C185.816 172.451 187.388 172.422 187.388 172.422" stroke="#07BEB8" stroke-width="0.301299" stroke-linecap="round"/>
</g>
<g opacity="0.5">
<path fill-rule="evenodd" clip-rule="evenodd" d="M62.6831 210.092C71.412 213.208 71.4973 220.262 72.1358 222.51C74.8127 231.931 66.9098 235.703 60.535 234.573C53.0611 233.248 47.0215 233.065 48.6474 220.613C50.6787 212.648 56.5659 208.288 62.6831 210.092Z" fill="#E2F7F2"/>
<path d="M60.2452 209.572C60.5906 208.739 60.6426 207.923 60.1943 207.087C59.8158 206.381 59.303 205.873 58.5729 205.634C58.4961 205.61 58.4163 205.597 58.3358 205.595C58.2204 205.611 58.3044 206.301 58.3085 206.438C58.3572 208.101 58.3127 209.23 60.2452 209.572Z" fill="#C2F2EA"/>
<path d="M61.4091 220.64L62.1835 220.325C62.4779 220.204 62.5756 219.879 62.3935 219.626L61.8483 218.87C61.758 218.751 61.6282 218.669 61.4825 218.638C61.3367 218.608 61.1847 218.63 61.0542 218.702L60.2478 219.167C59.9778 219.324 59.9342 219.661 60.1541 219.891L60.7318 220.496C60.8181 220.583 60.9283 220.644 61.0487 220.67C61.1691 220.695 61.2944 220.685 61.4091 220.64Z" fill="#F9D2D2"/>
<path d="M63.7069 217.618C63.6871 217.622 63.6662 217.622 63.6454 217.62C63.6247 217.617 63.6044 217.611 63.5859 217.602C63.5674 217.593 63.5509 217.581 63.5374 217.567C63.5239 217.553 63.5137 217.537 63.5073 217.52C63.5009 217.503 63.4985 217.485 63.5002 217.468C63.5019 217.451 63.5076 217.435 63.5171 217.42C63.5266 217.405 63.5397 217.392 63.5556 217.382C63.5714 217.372 63.5898 217.365 63.6096 217.361L65.0382 218.137C64.9097 217.941 64.7074 217.782 64.4651 217.688C64.2227 217.593 63.9551 217.568 63.7069 217.618ZM63.7069 217.618L63.7128 217.647C63.9551 217.599 64.217 217.623 64.4541 217.716C64.6913 217.808 64.8883 217.963 65.0129 218.154L65.0129 218.154L65.0136 218.155C65.0393 218.191 65.0794 218.218 65.1247 218.231C65.17 218.243 65.2186 218.241 65.2608 218.225C65.303 218.208 65.3365 218.177 65.3518 218.136C65.3672 218.095 65.3622 218.051 65.3397 218.012L65.3397 218.012L65.339 218.011C65.1715 217.753 64.907 217.546 64.5911 217.423L64.5911 217.423C64.4946 217.385 64.3945 217.356 64.2923 217.335M63.7069 217.618L63.7129 217.647C63.6897 217.652 63.6654 217.653 63.6415 217.65C63.6175 217.646 63.5942 217.639 63.5727 217.629C63.5511 217.618 63.5317 217.604 63.5157 217.588C63.4996 217.571 63.4871 217.551 63.4791 217.531C63.4712 217.51 63.468 217.487 63.4702 217.465C63.4724 217.443 63.4798 217.422 63.4918 217.404C63.5038 217.385 63.5201 217.369 63.5393 217.357C63.5585 217.344 63.5804 217.336 63.6036 217.331L63.6037 217.331C63.8263 217.286 64.0624 217.288 64.2923 217.335M64.2923 217.335C64.2923 217.335 64.2924 217.335 64.2924 217.335L64.2863 217.365L64.2923 217.335C64.2923 217.335 64.2923 217.335 64.2923 217.335ZM64.5802 217.451C64.8909 217.572 65.1501 217.775 65.3137 218.027L64.5802 217.451Z" fill="#07BEB8" stroke="#07BEB8" stroke-width="0.0602597"/>
<path d="M59.1327 216.403C59.0367 216.39 58.9398 216.386 58.8435 216.391M59.1327 216.403L59.1365 216.373C59.1365 216.373 59.1366 216.373 59.1366 216.373C59.1366 216.373 59.1366 216.373 59.1367 216.373L59.1327 216.403ZM59.1327 216.403C59.3486 216.43 59.5557 216.502 59.7364 216.613C59.7528 216.623 59.7668 216.636 59.7778 216.651L58.8435 216.391M58.8435 216.391C58.5293 216.407 58.2351 216.518 58.0107 216.705L58.8435 216.391ZM59.8019 216.633C59.8153 216.651 59.8247 216.671 59.8295 216.692C59.8343 216.714 59.8343 216.736 59.8294 216.757C59.8246 216.778 59.8149 216.798 59.8013 216.815C59.7877 216.833 59.7704 216.847 59.7507 216.858C59.7309 216.869 59.709 216.876 59.6862 216.879C59.6634 216.882 59.64 216.882 59.6173 216.877C59.5946 216.872 59.573 216.864 59.5535 216.852L59.5693 216.826C59.3639 216.701 59.1179 216.639 58.8725 216.652L59.8019 216.633Z" fill="#07BEB8" stroke="#07BEB8" stroke-width="0.0602597"/>
<path opacity="0.3" d="M48.5624 216.832C47.1549 219.222 46.9682 220.766 47.086 223.672" stroke="#07BEB8" stroke-width="0.150649"/>
<ellipse cx="71.4997" cy="214.862" rx="0.437886" ry="0.553489" transform="rotate(-76.1288 71.4997 214.862)" fill="#07BEB8"/>
<path d="M72.4003 212.859L71.8754 214.985" stroke="#07BEB8" stroke-width="0.301299" stroke-linecap="round"/>
<path d="M72.4081 212.862C72.3397 212.828 72.6765 213.358 72.9544 213.776C73.2322 214.194 72.5771 214.715 72.6467 214.684" stroke="#07BEB8" stroke-width="0.301299" stroke-linecap="round"/>
</g>
<g opacity="0.5">
<path fill-rule="evenodd" clip-rule="evenodd" d="M121.134 210.208C127.955 212.292 128.239 219.513 130.32 222.442C135.789 230.136 126.27 234.429 118.714 234.27C108.06 234.046 101.751 229.436 107.091 220.524C108.177 212.49 114.655 208.465 121.134 210.208Z" fill="#E2F7F2"/>
<path d="M117.699 209.571C118.207 208.825 118.424 208.036 118.155 207.127C117.928 206.359 117.529 205.757 116.863 205.374C116.793 205.335 116.717 205.306 116.639 205.287C116.523 205.28 116.465 205.972 116.441 206.107C116.15 207.745 115.876 208.841 117.699 209.571Z" fill="#C2F2EA"/>
<path d="M118.897 220.859L119.627 220.45C119.904 220.295 119.962 219.96 119.75 219.732L119.116 219.048C119.012 218.941 118.873 218.876 118.725 218.863C118.576 218.85 118.428 218.891 118.308 218.978L117.564 219.539C117.315 219.728 117.313 220.067 117.56 220.269L118.207 220.798C118.304 220.874 118.42 220.921 118.543 220.932C118.666 220.943 118.789 220.917 118.897 220.859Z" fill="#F9D2D2"/>
<path d="M115.839 216.416L115.839 216.416C115.578 216.292 115.368 216.081 115.245 215.819L115.244 215.816L115.244 215.816C115.225 215.771 115.225 215.72 115.242 215.674C115.26 215.628 115.295 215.591 115.34 215.57C115.384 215.55 115.435 215.547 115.481 215.563C115.528 215.579 115.567 215.612 115.589 215.655L115.59 215.657L115.59 215.657C115.676 215.839 115.822 215.986 116.004 216.072C116.185 216.159 116.39 216.181 116.586 216.135L115.839 216.416ZM115.839 216.416C115.919 216.454 116.002 216.484 116.088 216.505M115.839 216.416L116.088 216.505M116.088 216.505C116.088 216.505 116.088 216.505 116.088 216.505L116.102 216.446M116.088 216.505C116.088 216.505 116.088 216.505 116.088 216.505L116.102 216.446M116.102 216.446C116.02 216.426 115.941 216.398 115.865 216.362M116.102 216.446C116.286 216.491 116.478 216.492 116.662 216.448L115.865 216.362M115.865 216.362C115.617 216.243 115.417 216.042 115.3 215.793C115.287 215.762 115.286 215.727 115.299 215.696C115.311 215.665 115.335 215.639 115.365 215.625C115.395 215.611 115.43 215.609 115.462 215.62C115.494 215.631 115.52 215.653 115.536 215.683L115.865 216.362Z" fill="#07BEB8" stroke="#07BEB8" stroke-width="0.120519"/>
<path d="M121.135 216.528C121.219 216.528 121.304 216.52 121.386 216.502M121.135 216.528L121.136 216.589C121.135 216.589 121.135 216.589 121.135 216.589C121.135 216.589 121.135 216.589 121.135 216.589L121.135 216.528ZM121.135 216.528C120.946 216.529 120.759 216.485 120.591 216.399C120.575 216.391 120.562 216.38 120.551 216.367C120.54 216.354 120.531 216.339 120.526 216.322C120.521 216.306 120.519 216.289 120.52 216.271C120.522 216.254 120.526 216.238 120.534 216.222C120.542 216.207 120.553 216.194 120.566 216.182L120.527 216.136C120.546 216.12 120.568 216.108 120.592 216.1C120.616 216.093 120.641 216.09 120.666 216.092C120.691 216.094 120.716 216.101 120.738 216.112M121.386 216.502L120.738 216.112M121.386 216.502C121.655 216.445 121.896 216.297 122.068 216.082L121.386 216.502ZM120.738 216.112C120.738 216.112 120.738 216.112 120.738 216.112L120.71 216.166L120.738 216.112C120.738 216.112 120.738 216.112 120.738 216.112Z" fill="#07BEB8" stroke="#07BEB8" stroke-width="0.120519"/>
<path d="M115.983 218.493C116.272 218.493 116.506 218.22 116.506 217.883C116.506 217.546 116.272 217.273 115.983 217.273C115.695 217.273 115.461 217.546 115.461 217.883C115.461 218.22 115.695 218.493 115.983 218.493Z" fill="#07BEB8"/>
<path d="M121.046 218.493C121.334 218.493 121.568 218.22 121.568 217.883C121.568 217.546 121.334 217.273 121.046 217.273C120.757 217.273 120.523 217.546 120.523 217.883C120.523 218.22 120.757 218.493 121.046 218.493Z" fill="#07BEB8"/>
</g>
<g opacity="0.5">
<path fill-rule="evenodd" clip-rule="evenodd" d="M174.126 211.594C165.82 213.255 166.272 217.808 164.547 220.513C159.365 228.639 169.037 230.84 176.799 231.319C185.811 231.876 193.04 234.212 189.677 220.513C188.531 213.172 180.966 210.001 174.126 211.594Z" fill="#E2F7F2"/>
<path d="M176.766 211.083C177.666 211.151 178.457 210.945 179.111 210.258C179.663 209.678 179.986 209.032 179.984 208.264C179.983 208.183 179.971 208.103 179.948 208.026C179.896 207.922 179.267 208.217 179.138 208.264C177.574 208.83 176.487 209.14 176.766 211.083Z" fill="#C2F2EA"/>
<path d="M176.444 220.84L177.218 220.524C177.513 220.403 177.61 220.078 177.428 219.826L176.883 219.069C176.793 218.951 176.663 218.869 176.517 218.838C176.371 218.807 176.219 218.829 176.089 218.901L175.282 219.367C175.012 219.524 174.969 219.86 175.189 220.09L175.766 220.695C175.853 220.783 175.963 220.843 176.083 220.869C176.204 220.895 176.329 220.884 176.444 220.84Z" fill="#F9D2D2"/>
<path d="M173.896 218.249L173.896 218.249C173.613 218.189 173.36 218.033 173.179 217.807L173.177 217.805L173.177 217.805C173.148 217.765 173.136 217.716 173.142 217.667C173.149 217.619 173.174 217.574 173.212 217.544C173.251 217.513 173.299 217.499 173.348 217.503C173.397 217.508 173.443 217.531 173.475 217.568L173.476 217.569L173.476 217.569C173.603 217.726 173.779 217.834 173.975 217.876C174.172 217.918 174.377 217.891 174.556 217.8L173.896 218.249ZM173.896 218.249C173.983 218.267 174.071 218.276 174.159 218.276L173.896 218.249Z" fill="#07BEB8" stroke="#07BEB8" stroke-width="0.120519"/>
<path d="M179.296 219.275C179.211 219.274 179.127 219.266 179.045 219.248M179.296 219.275L179.295 219.335C179.295 219.335 179.295 219.335 179.295 219.335C179.296 219.335 179.296 219.335 179.296 219.335L179.296 219.275ZM179.296 219.275C179.485 219.276 179.672 219.231 179.84 219.145C179.855 219.137 179.869 219.126 179.88 219.113C179.891 219.1 179.9 219.085 179.905 219.068C179.91 219.052 179.912 219.035 179.911 219.018C179.909 219 179.905 218.984 179.897 218.968C179.889 218.953 179.878 218.94 179.865 218.929L179.904 218.883C179.885 218.866 179.862 218.854 179.839 218.846C179.815 218.839 179.789 218.836 179.764 218.838C179.739 218.84 179.715 218.847 179.693 218.858M179.045 219.248L179.693 218.858M179.045 219.248C178.776 219.191 178.535 219.043 178.362 218.828L179.045 219.248ZM179.693 218.858C179.693 218.858 179.693 218.858 179.693 218.858L179.72 218.912L179.693 218.858C179.693 218.858 179.693 218.858 179.693 218.858Z" fill="#07BEB8" stroke="#07BEB8" stroke-width="0.120519"/>
<path d="M185.481 215.833C185.481 215.833 186.445 215.652 186.867 215.652C187.288 215.652 186.324 216.255 185.601 216.767C184.878 217.279 186.867 216.767 186.867 216.767" stroke="#07BEB8" stroke-width="0.301299" stroke-linecap="round"/>
<path d="M186.521 214.044C186.521 214.044 187.271 214.08 187.585 214.155C187.899 214.229 187.074 214.507 186.445 214.761C185.816 215.014 187.388 214.985 187.388 214.985" stroke="#07BEB8" stroke-width="0.301299" stroke-linecap="round"/>
</g>
<rect x="24.2" y="252.879" width="89.6" height="30.8" rx="11.2" fill="#F9F7F2"/>
<path d="M63.4177 263.382C63.5986 263.382 63.7699 263.468 63.7699 263.668V264.353H65.5502C65.712 264.353 65.7882 264.487 65.7882 264.648C65.7882 264.82 65.712 264.953 65.5502 264.953H63.7699V265.182C63.7699 265.715 63.9222 265.981 64.3982 266.257C64.9028 266.543 65.217 266.714 65.6454 266.924C65.8167 267.009 65.8262 267.19 65.7406 267.333C65.6644 267.476 65.5216 267.533 65.3407 267.447C64.998 267.276 64.6362 267.086 64.1983 266.848C63.6462 266.533 63.4843 266.324 63.4367 266.124H63.4272C63.3796 266.324 63.1987 266.562 62.637 266.867C62.1801 267.124 61.8088 267.314 61.3994 267.523C61.2186 267.609 61.0662 267.533 60.9901 267.39C60.9044 267.247 60.9139 267.066 61.0853 266.981C61.5613 266.752 61.9421 266.552 62.4371 266.276C62.9131 265.991 63.0654 265.724 63.0654 265.191V264.953H61.2471C61.0853 264.953 61.0091 264.82 61.0091 264.648C61.0091 264.487 61.0853 264.353 61.2471 264.353H63.0654V263.668C63.0654 263.468 63.2463 263.382 63.4177 263.382ZM67.2542 263.411C67.4256 263.411 67.597 263.496 67.597 263.696V271.274C67.597 271.474 67.4256 271.56 67.2542 271.56C67.0734 271.56 66.9115 271.474 66.9115 271.274V263.696C66.9115 263.496 67.0734 263.411 67.2542 263.411ZM66.0262 268.095C66.1785 268.085 66.2737 268.19 66.2927 268.352C66.3022 268.523 66.2261 268.666 66.0833 268.675C65.2741 268.752 64.4839 268.799 63.6842 268.828V271.179C63.6842 271.379 63.5224 271.465 63.3415 271.465C63.1702 271.465 62.9988 271.379 62.9988 271.179V268.856C62.2658 268.875 61.5137 268.885 60.733 268.885C60.5617 268.885 60.4855 268.752 60.4855 268.59C60.4855 268.428 60.5617 268.295 60.733 268.295C62.4752 268.295 64.1031 268.266 66.0262 268.095ZM72.9963 263.773C73.1772 263.773 73.3485 263.868 73.3485 264.068V264.658C73.3485 265.562 73.5389 265.962 74.31 266.467C74.8717 266.828 75.5096 267.209 76.214 267.6C76.3473 267.676 76.3568 267.876 76.2712 268.018C76.1855 268.171 76.0141 268.237 75.8713 268.161C75.2811 267.838 74.5956 267.438 74.053 267.086C73.3485 266.629 73.082 266.305 73.0058 266.048H72.9963C72.9201 266.314 72.6536 266.638 71.9491 267.095C71.3969 267.447 70.721 267.847 70.1308 268.171C69.9784 268.247 69.8166 268.18 69.7214 268.028C69.6357 267.885 69.6452 267.676 69.7785 267.6C70.483 267.209 71.1208 266.828 71.6825 266.467C72.4536 265.962 72.644 265.562 72.644 264.658V264.068C72.644 263.868 72.8154 263.773 72.9963 263.773ZM72.9963 268.114C73.1772 268.114 73.3485 268.199 73.3485 268.399V270.075H76.7186C76.89 270.075 76.9661 270.208 76.9661 270.379C76.9661 270.541 76.89 270.675 76.7186 270.675H69.274C69.1026 270.675 69.0264 270.541 69.0264 270.379C69.0264 270.208 69.1026 270.075 69.274 270.075H72.6536V268.399C72.6536 268.199 72.8249 268.114 72.9963 268.114Z" fill="#07BEB8"/>
<rect x="122.2" y="252.879" width="89.6" height="30.8" rx="11.2" fill="#F2FDF6"/>
<path d="M161.123 265.277C162.36 265.277 163.055 265.743 163.055 266.486C163.055 267.162 162.484 267.609 161.465 267.695V268.475C162.16 268.456 162.884 268.409 163.636 268.342C163.779 268.323 163.883 268.428 163.893 268.59C163.902 268.752 163.836 268.885 163.693 268.904C162.008 269.047 160.361 269.085 158.59 269.085C158.428 269.085 158.352 268.961 158.352 268.799C158.352 268.647 158.428 268.514 158.59 268.514C159.314 268.514 160.037 268.514 160.789 268.494V267.695C159.761 267.609 159.19 267.162 159.19 266.486C159.19 265.743 159.885 265.277 161.123 265.277ZM164.835 263.411C165.016 263.411 165.178 263.496 165.178 263.696V266.067H166.263C166.435 266.067 166.511 266.21 166.511 266.372C166.511 266.543 166.435 266.686 166.263 266.686H165.178V269.056C165.178 269.256 165.016 269.342 164.835 269.342C164.654 269.342 164.493 269.256 164.493 269.056V263.696C164.493 263.496 164.654 263.411 164.835 263.411ZM164.521 269.818C165.016 269.818 165.178 269.97 165.178 270.456V271.922C165.178 272.122 165.007 272.207 164.835 272.207C164.664 272.207 164.493 272.122 164.493 271.922V270.57C164.493 270.437 164.445 270.389 164.312 270.389H159.78C159.628 270.389 159.552 270.256 159.552 270.103C159.552 269.951 159.628 269.818 159.78 269.818H164.521ZM161.123 263.249C161.303 263.249 161.475 263.335 161.475 263.525V264.153H163.369C163.531 264.153 163.607 264.287 163.607 264.439C163.607 264.601 163.531 264.725 163.369 264.725H158.8C158.647 264.725 158.571 264.601 158.571 264.439C158.571 264.287 158.647 264.153 158.8 264.153H160.77V263.525C160.77 263.335 160.942 263.249 161.123 263.249ZM161.123 265.8C160.247 265.8 159.828 266.086 159.828 266.486C159.828 266.895 160.247 267.171 161.123 267.171C161.998 267.171 162.417 266.895 162.417 266.486C162.417 266.086 161.998 265.8 161.123 265.8ZM169.559 263.849C171.015 263.849 171.71 264.801 171.71 266.01C171.71 267.209 171.015 268.161 169.559 268.161C168.102 268.161 167.407 267.209 167.407 266.01C167.407 264.801 168.102 263.849 169.559 263.849ZM169.559 264.448C168.502 264.448 168.083 265.172 168.083 266.01C168.083 266.838 168.502 267.562 169.559 267.562C170.615 267.562 171.034 266.838 171.034 266.01C171.034 265.172 170.615 264.448 169.559 264.448ZM173.748 263.411C173.919 263.411 174.09 263.496 174.09 263.696V269.504C174.09 269.704 173.919 269.789 173.748 269.789C173.567 269.789 173.395 269.704 173.395 269.504V263.696C173.395 263.496 173.567 263.411 173.748 263.411ZM169.045 269.047C169.226 269.047 169.397 269.132 169.397 269.332V271.198C169.397 271.322 169.445 271.37 169.578 271.37H174.09C174.262 271.37 174.338 271.512 174.338 271.674C174.338 271.836 174.262 271.979 174.09 271.979H169.349C168.854 271.979 168.692 271.826 168.692 271.341V269.332C168.692 269.132 168.864 269.047 169.045 269.047Z" fill="#07BEB8"/>
</g>
<defs>
<filter id="filter0_d_1850_24247" x="0.0769224" y="0.661538" width="235.846" height="303.006" filterUnits="userSpaceOnUse" color-interpolation-filters="sRGB">
<feFlood flood-opacity="0" result="BackgroundImageFix"/>
<feColorMatrix in="SourceAlpha" type="matrix" values="0 0 0 0 0 0 0 0 0 0 0 0 0 0 0 0 0 0 127 0" result="hardAlpha"/>
<feOffset dy="2.58462"/>
<feGaussianBlur stdDeviation="6.46154"/>
<feComposite in2="hardAlpha" operator="out"/>
<feColorMatrix type="matrix" values="0 0 0 0 0 0 0 0 0 0 0 0 0 0 0 0 0 0 0.08 0"/>
<feBlend mode="normal" in2="BackgroundImageFix" result="effect1_dropShadow_1850_24247"/>
<feBlend mode="normal" in="SourceGraphic" in2="effect1_dropShadow_1850_24247" result="shape"/>
</filter>
</defs>
</svg>
