<svg viewBox="0 0 25 24" fill="none" xmlns="http://www.w3.org/2000/svg">
<path d="M19.1223 9.00818H5.87769C5.51195 9.00818 5.21545 9.31576 5.21545 9.69517V19.3131C5.21545 19.6925 5.51195 20 5.87769 20H19.1223C19.4881 20 19.7846 19.6925 19.7846 19.3131V9.69517C19.7846 9.31576 19.4881 9.00818 19.1223 9.00818Z" fill="#807F7D" stroke="#807F7D" stroke-width="1.56098" stroke-linecap="round" stroke-linejoin="round"/>
<path d="M8.98782 11.0244V7.51219C8.98782 6.5807 9.35786 5.68736 10.0165 5.0287C10.6752 4.37003 11.5685 4 12.5 4C13.4315 4 14.3249 4.37003 14.9835 5.0287C15.6422 5.68736 16.0122 6.5807 16.0122 7.51219V11.0244" stroke="#807F7D" stroke-width="1.56098" stroke-linecap="round" stroke-linejoin="round"/>
<path d="M12.8903 14.5041C12.8903 14.7196 12.7155 14.8943 12.5 14.8943C12.2845 14.8943 12.1098 14.7196 12.1098 14.5041M13.6707 14.5041C13.6707 15.1507 13.1466 15.6748 12.5 15.6748C11.8534 15.6748 11.3293 15.1507 11.3293 14.5041C11.3293 13.8575 11.8534 13.3334 12.5 13.3334C13.1466 13.3334 13.6707 13.8575 13.6707 14.5041Z" stroke="#FFFDFA" stroke-width="1.56098" stroke-linecap="round" stroke-linejoin="round"/>
</svg>
