<svg width="81" height="34" viewBox="0 0 81 34" fill="none" xmlns="http://www.w3.org/2000/svg">
<path d="M80.7084 25.2689C80.5364 25.1135 80.3098 25.0326 80.0783 25.0438C79.8467 25.0549 79.629 25.1573 79.4727 25.3284C78.3998 26.5114 77.1023 26.9361 75.9092 26.5114C75.3193 26.2916 74.81 25.8979 74.4488 25.3824C75.0531 25.313 75.6354 25.114 76.1558 24.7989C76.6762 24.4838 77.1224 24.0601 77.464 23.5567C78.383 22.1918 78.4627 20.2415 77.6539 18.9203C77.4744 18.6168 77.2321 18.3552 76.9432 18.1531C76.6543 17.951 76.3255 17.8131 75.9788 17.7485C75.5912 17.686 75.1948 17.7059 74.8154 17.807C74.436 17.908 74.0821 18.0879 73.7769 18.335C72.5176 19.3135 71.7986 21.1526 71.9008 23.1332C72.0255 25.4992 73.3613 27.4776 75.3183 28.173C75.8027 28.3447 76.3131 28.4317 76.827 28.4303C78.2335 28.4303 79.6356 27.7641 80.7736 26.5103C80.851 26.4246 80.9108 26.3245 80.9494 26.2156C80.988 26.1068 81.0048 25.9914 80.9988 25.8761C80.9927 25.7607 80.964 25.6477 80.9141 25.5435C80.8643 25.4393 80.7944 25.346 80.7084 25.2689ZM73.7826 23.6466H73.7275C73.692 23.4445 73.6688 23.2404 73.6579 23.0355C73.5871 21.6637 74.0679 20.3302 74.8566 19.7179C74.9675 19.6243 75.0963 19.5543 75.2352 19.5122C75.3741 19.4701 75.5201 19.4568 75.6643 19.473C75.7671 19.4943 75.864 19.538 75.9479 19.6012C76.0318 19.6643 76.1007 19.7452 76.1496 19.8381C76.5933 20.5639 76.5259 21.7907 76.0002 22.5737C75.7609 22.9236 75.4357 23.206 75.0558 23.3939C74.6759 23.5818 74.2541 23.6688 73.8309 23.6466H73.7826Z" fill="#07BEB8"/>
<path d="M68.8982 18.1788C68.6228 17.9699 68.3009 17.831 67.96 17.7741C67.6191 17.7171 67.2695 17.7438 66.9412 17.8518C66.3136 18.0804 65.7829 18.5163 65.4369 19.0876C65.0907 18.5166 64.5601 18.0807 63.9327 17.8518C63.6039 17.7432 63.2537 17.7163 62.9121 17.7732C62.5706 17.8302 62.2481 17.9694 61.9723 18.1788C60.5467 19.2146 60.3288 21.0582 60.1839 22.2782C59.9996 23.8364 59.821 25.68 59.8974 27.5494C59.9067 27.7763 60.0033 27.9907 60.167 28.1479C60.3307 28.3052 60.5489 28.393 60.7759 28.3931H60.8118C60.9271 28.3885 61.0404 28.3612 61.1452 28.3128C61.2499 28.2644 61.3441 28.1958 61.4223 28.111C61.5006 28.0262 61.5613 27.9268 61.6012 27.8185C61.641 27.7102 61.6591 27.5951 61.6544 27.4798C61.5836 25.7328 61.7544 23.9757 61.9308 22.4872C62.0746 21.275 62.2678 20.1425 63.007 19.6022C63.0561 19.5559 63.117 19.524 63.183 19.5102C63.249 19.4963 63.3175 19.5009 63.3811 19.5235C63.6709 19.619 63.9934 19.9999 64.1158 20.3908C64.2383 20.7818 64.2697 21.548 64.3 22.2288C64.3416 23.1646 64.3798 24.0465 64.6067 24.6936C64.6667 24.8659 64.7788 25.0152 64.9275 25.1208C65.0761 25.2265 65.254 25.2832 65.4364 25.2832C65.6188 25.2832 65.7966 25.2265 65.9453 25.1208C66.0939 25.0152 66.206 24.8659 66.266 24.6936C66.4907 24.0465 66.5323 23.1646 66.5727 22.2299C66.603 21.548 66.6379 20.7762 66.7581 20.3908C66.8783 20.0055 67.2074 19.619 67.4928 19.5235C67.5564 19.5009 67.6251 19.4964 67.6911 19.5105C67.7572 19.5246 67.818 19.5567 67.8669 19.6033C68.6095 20.1425 68.7993 21.275 68.9431 22.4872C69.1195 23.9757 69.2903 25.7328 69.2195 27.4798C69.2148 27.5951 69.2329 27.7102 69.2727 27.8185C69.3126 27.9268 69.3733 28.0262 69.4516 28.111C69.5298 28.1958 69.624 28.2644 69.7287 28.3128C69.8335 28.3612 69.9467 28.3885 70.062 28.3931H70.098C70.325 28.393 70.5432 28.3052 70.7069 28.1479C70.8706 27.9907 70.9672 27.7763 70.9765 27.5494C71.0529 25.68 70.8743 23.8364 70.69 22.2782C70.5417 21.0582 70.3238 19.2146 68.8982 18.1788Z" fill="#07BEB8"/>
<path d="M10.4454 24.5306C10.3363 24.4917 10.2207 24.4748 10.105 24.4808C9.98938 24.4869 9.87608 24.5157 9.77164 24.5657C9.66721 24.6158 9.57371 24.686 9.49654 24.7723C9.41936 24.8586 9.36005 24.9594 9.322 25.0688C9.18913 25.4316 8.97307 25.7581 8.69115 26.0223C8.40923 26.2865 8.06931 26.4809 7.69866 26.5899C7.35013 26.6923 6.98186 26.708 6.6259 26.6355C6.26994 26.5631 5.93708 26.4047 5.65629 26.1742C5.47006 26.018 5.3232 25.8202 5.22757 25.5967C5.13194 25.3733 5.09023 25.1305 5.10582 24.8879C5.1766 22.4848 5.60799 20.1997 6.17756 17.9012C5.59563 17.8143 5.01333 17.7252 4.43065 17.6338C3.85658 19.9784 3.41957 22.3264 3.34767 24.8362C3.32238 25.3534 3.41961 25.8692 3.63142 26.3416C3.84324 26.8141 4.16366 27.2298 4.56658 27.5549C5.06688 27.9585 5.65734 28.235 6.28761 28.361C6.91788 28.4869 7.56926 28.4586 8.18622 28.2784C8.82686 28.0939 9.41437 27.7596 9.9002 27.3031C10.386 26.8465 10.7562 26.2809 10.9802 25.653C11.0579 25.4332 11.0453 25.1916 10.945 24.9811C10.8447 24.7707 10.6651 24.6087 10.4454 24.5306Z" fill="#07BEB8"/>
<path d="M8.83233 16.9035C10.6837 16.8115 12.4964 16.3392 14.1573 15.5161C15.0302 15.0723 15.9155 14.5387 16.3176 13.3636C16.4472 12.9645 16.4708 12.5387 16.3862 12.1278C15.8132 12.2469 15.2392 12.3611 14.664 12.4704C14.6874 12.5778 14.684 12.6894 14.6539 12.7951C14.4786 13.3051 14.0922 13.5748 13.3586 13.95C11.9184 14.6564 10.35 15.0635 8.74807 15.1465C8.13887 15.1753 7.52847 15.1671 6.92027 15.1218C7.00902 14.8027 7.09665 14.4836 7.18765 14.1623C7.34942 13.5815 7.51456 12.9939 7.67746 12.3963C8.37285 9.83369 9.87149 7.90585 12.5261 6.14092C14.3 4.96242 16.0278 3.77157 17.6759 2.16504C17.9623 1.8853 18.1657 1.78756 18.251 1.76397C18.3246 1.93423 18.3585 2.11905 18.3499 2.30434C18.3443 4.36025 16.6704 6.18585 14.537 6.4611C14.4225 6.47585 14.3121 6.51301 14.212 6.57045C14.1118 6.62789 14.024 6.70449 13.9535 6.79588C13.883 6.88727 13.8312 6.99165 13.801 7.10307C13.7708 7.21448 13.7628 7.33075 13.7776 7.44524C13.7924 7.55972 13.8295 7.67018 13.887 7.77031C13.9444 7.87043 14.021 7.95826 14.1124 8.02878C14.2038 8.09931 14.3081 8.15114 14.4195 8.18132C14.531 8.2115 14.6472 8.21944 14.7617 8.20469C17.7534 7.82047 20.1024 5.23205 20.1103 2.30996C20.1103 1.07417 19.507 0.175413 18.5667 0.0226239C17.8927 -0.0897208 17.1546 0.218104 16.4491 0.906777C14.9078 2.40545 13.2541 3.54575 11.5566 4.67594C8.55934 6.66557 6.78771 8.96976 5.97661 11.9267C5.81371 12.521 5.64969 13.1052 5.48904 13.6826C5.3767 14.0871 5.26436 14.4859 5.15202 14.8847C3.69944 14.6083 2.35921 14.1342 1.33241 13.4905C1.13485 13.3719 0.898631 13.3355 0.674551 13.3893C0.450471 13.443 0.256419 13.5825 0.134119 13.7778C0.0118195 13.9731 -0.0289624 14.2086 0.020542 14.4337C0.0700465 14.6587 0.205884 14.8554 0.398849 14.9813C2.37157 16.2171 5.15314 16.9193 7.97628 16.9193C8.26051 16.9249 8.54698 16.9181 8.83233 16.9035Z" fill="#07BEB8"/>
<path d="M16.5949 9.2553C16.1144 9.5967 15.5587 9.81714 14.9749 9.89791C14.3334 10.0103 13.6852 10.0046 12.9741 10.0103C12.7408 10.0103 12.5171 10.1029 12.3521 10.2679C12.1872 10.4329 12.0945 10.6566 12.0945 10.8899C12.0945 11.1232 12.1872 11.347 12.3521 11.5119C12.5171 11.6769 12.7408 11.7696 12.9741 11.7696H13.1123C13.832 11.7846 14.5517 11.7388 15.2636 11.6325C16.2163 11.473 17.024 11.1416 17.6644 10.6495C18.4923 10.0125 19.0001 9.09914 19.0203 8.20713C19.0278 7.83054 18.945 7.45765 18.7788 7.11963C18.2725 7.44543 17.7636 7.76861 17.2521 8.08916C17.257 8.11439 17.2604 8.13991 17.2622 8.16556C17.2566 8.52057 16.9937 8.9486 16.5949 9.2553Z" fill="#07BEB8"/>
<path d="M55.9775 24.7271C56.0094 24.4454 56.0061 24.1608 55.9674 23.88C55.9674 23.8294 55.9674 23.78 55.9674 23.7294C55.9505 21.9982 55.9326 20.0355 55.7427 18.5964C55.7117 18.3653 55.5902 18.156 55.4049 18.0146C55.2196 17.8731 54.9857 17.811 54.7547 17.842C54.5236 17.873 54.3143 17.9945 54.1728 18.1798C54.0314 18.3651 53.9693 18.599 54.0003 18.8301C54.0216 18.9941 54.0407 19.1671 54.0587 19.3457C53.541 19.0264 52.9447 18.8576 52.3365 18.8582C50.3548 18.8582 48.7416 20.6692 48.7416 22.8958C48.7416 24.0406 49.2977 25.2798 50.0638 25.8426C50.1569 25.911 50.2625 25.9604 50.3747 25.988C50.4868 26.0155 50.6033 26.0206 50.7175 26.0031C50.8316 25.9856 50.9412 25.9457 51.0399 25.8858C51.1387 25.8259 51.2246 25.7471 51.2928 25.6539C51.3611 25.5606 51.4102 25.4548 51.4375 25.3425C51.4648 25.2303 51.4696 25.1137 51.4518 24.9995C51.4339 24.8853 51.3937 24.7758 51.3335 24.6772C51.2733 24.5786 51.1942 24.4928 51.1007 24.4248C50.8536 24.244 50.4963 23.5946 50.4963 22.8958C50.4963 21.6398 51.3243 20.6175 52.341 20.6175C53.3577 20.6175 54.1845 21.6398 54.1845 22.8958C54.1851 22.9471 54.1904 22.9983 54.2002 23.0486C54.2002 23.2834 54.2059 23.5171 54.2081 23.7463C54.2081 24.0328 54.2081 24.308 54.2171 24.5877C54.1616 24.9219 54.0047 25.231 53.7677 25.473C53.0105 26.2853 51.6085 26.6594 50.6559 26.5965C49.0763 26.4841 47.8867 25.3865 47.6957 23.8519C47.6496 23.4755 47.6339 23.0655 47.617 22.6408C47.5507 20.9478 47.4508 18.3908 44.4344 18.0695C43.5125 17.9765 42.5844 18.1699 41.7764 18.6234C41.748 18.3985 41.6336 18.1934 41.4573 18.0509C41.281 17.9085 41.0564 17.8398 40.8306 17.8592C40.6048 17.8787 40.3953 17.9848 40.2459 18.1553C40.0966 18.3258 40.019 18.5475 40.0295 18.7739C40.0632 19.3907 40.0733 20.2344 40.0632 21.0702C40.0462 21.2052 40.0372 21.3409 40.0362 21.4769C40.0361 21.5346 40.0417 21.5922 40.0531 21.6488C40.0407 22.2038 40.0182 22.7318 39.9879 23.1554C39.9677 23.443 39.9654 23.7519 39.9632 24.0698C39.9632 24.9686 39.9553 25.9022 39.4386 26.3403C39.3189 26.4445 39.1782 26.5215 39.0259 26.5662C38.8737 26.6108 38.7136 26.6219 38.5567 26.5987C38.3675 26.5693 38.1865 26.5009 38.0251 26.3981C37.8636 26.2952 37.7253 26.16 37.6186 26.001C37.0682 25.1865 36.976 24.0743 36.9232 22.9093C36.885 22.0723 36.8873 21.2107 36.8907 20.3771C36.8907 19.7861 36.8907 19.1952 36.8828 18.6043C36.8828 18.5717 36.8749 18.5414 36.8716 18.5099C36.8682 18.4784 36.8716 18.4605 36.8626 18.4369C36.8519 18.3852 36.8361 18.3348 36.8154 18.2863C36.8155 18.2837 36.8155 18.2811 36.8154 18.2785C36.753 18.1184 36.6432 17.9813 36.5006 17.8855C36.358 17.7897 36.1895 17.7398 36.0178 17.7426H35.9886C35.9593 17.7426 35.9324 17.7493 35.9032 17.7527C35.874 17.7561 35.847 17.7527 35.82 17.7628C35.7931 17.7729 35.765 17.7797 35.738 17.7886C35.7111 17.7976 35.6819 17.8044 35.656 17.8156C35.6313 17.8274 35.6073 17.8405 35.5841 17.8549C35.5583 17.8695 35.5313 17.8819 35.5066 17.8987C35.4819 17.9156 35.4662 17.9324 35.4459 17.9493C35.4257 17.9662 35.3988 17.9864 35.3774 18.0066C35.3561 18.0268 35.3448 18.0482 35.3269 18.0684C35.3089 18.0886 35.2887 18.1133 35.2718 18.138C35.255 18.1628 35.246 18.1863 35.2325 18.2111C35.2178 18.2357 35.2047 18.2612 35.1932 18.2875C35.1819 18.3155 35.1752 18.3448 35.1662 18.3728C35.1572 18.4009 35.1482 18.4256 35.1426 18.4526C35.1379 18.4846 35.1349 18.5169 35.1336 18.5492C35.1336 18.5739 35.1258 18.5975 35.1258 18.6222C35.1258 20.5388 34.9505 22.1971 34.591 23.6946C34.1417 25.5494 33.5024 26.4706 32.5689 26.5931C31.8701 26.6841 31.268 26.3572 30.7164 25.5629C31.3218 24.7199 31.8129 23.8004 32.1768 22.8284C32.5857 21.7436 32.8545 20.611 32.9767 19.4581C33.2014 17.4505 32.9834 15.6687 32.3453 14.1633C31.8578 13.014 31.0511 12.3545 30.1311 12.3545C29.5569 12.3726 29.0126 12.6145 28.6145 13.0286C28.0303 13.5982 27.7517 14.3453 27.5753 14.9317C26.8058 17.4752 26.8833 20.3613 27.8 23.2801C28.0108 23.9881 28.2706 24.6807 28.5774 25.3528C28.0438 25.8959 27.3843 26.2988 26.6575 26.5257C25.2319 26.9459 23.7961 26.5628 22.9008 25.5753C24.5601 23.3969 25.3139 20.3366 25.4374 17.6505C25.4768 16.8056 25.4925 15.8148 25.3094 14.8733C24.9577 13.0612 23.8691 12.0164 22.5424 12.2175C20.6326 12.504 19.69 14.8711 19.4676 16.8112C19.2924 18.3245 19.4193 19.8872 19.5496 21.0803C19.7372 22.806 20.1113 24.226 20.6933 25.3854C20.2528 25.7889 19.7437 26.1104 19.1901 26.3347C17.8611 26.865 16.4097 26.7942 15.402 26.1493C15.1004 25.9574 14.8363 25.7122 14.6223 25.4258C15.2316 25.3585 15.819 25.1594 16.3438 24.8425C16.8685 24.5255 17.318 24.0982 17.6612 23.5901C18.5801 22.2251 18.6599 20.2748 17.851 18.9548C17.6727 18.6509 17.4316 18.3886 17.1436 18.1855C16.8557 17.9825 16.5277 17.8433 16.1816 17.7774C15.7938 17.7157 15.3974 17.736 15.0179 17.837C14.6385 17.9381 14.2844 18.1175 13.9786 18.3639C12.7193 19.3435 12.0014 21.1815 12.1036 23.1621C12.2362 25.6932 13.4517 26.9818 14.4527 27.6244C15.3315 28.1727 16.349 28.4576 17.3848 28.4457C18.2271 28.4415 19.0608 28.2772 19.8417 27.9615C20.5142 27.692 21.1389 27.3161 21.692 26.8481C23.0401 28.2412 25.1431 28.7984 27.1518 28.2075C28.0253 27.945 28.8307 27.494 29.5109 26.8863C30.2771 27.839 31.3365 28.5254 32.7947 28.3356C34.2911 28.1401 35.1539 27.0616 35.6583 26.0055C35.7875 26.3508 35.9564 26.68 36.1616 26.9863C36.4054 27.3506 36.7232 27.6595 37.0942 27.8929C37.4652 28.1263 37.8812 28.2791 38.3151 28.3412C38.7169 28.3979 39.126 28.3685 39.5155 28.255C39.9051 28.1415 40.266 27.9465 40.5743 27.6828C41.709 26.7212 41.7157 25.2562 41.7213 24.0788C41.7213 23.8013 41.7213 23.5317 41.7404 23.2823C41.782 22.7206 41.8078 21.9881 41.818 21.2399C41.8716 20.9148 42.0378 20.6189 42.2875 20.404C42.7684 19.9704 43.539 19.7356 44.2502 19.8153C45.632 19.9636 45.7825 20.6838 45.8623 22.7071C45.8791 23.1565 45.8971 23.616 45.9533 24.0653C46.2453 26.4246 48.1316 28.185 50.539 28.349C50.6435 28.3558 50.7502 28.3592 50.8615 28.3592C52.0799 28.3471 53.2692 27.9853 54.2879 27.3166C54.3103 28.8186 54.1823 30.3375 53.4318 31.3093C52.6814 32.2811 51.3209 32.4024 50.3863 32.0845C50.1234 31.9958 49.2628 31.6464 49.2628 30.9184C49.2628 30.6851 49.1702 30.4613 49.0052 30.2964C48.8402 30.1314 48.6165 30.0387 48.3832 30.0387C48.1499 30.0387 47.9262 30.1314 47.7612 30.2964C47.5962 30.4613 47.5036 30.6851 47.5036 30.9184C47.5036 32.1789 48.3899 33.2641 49.8156 33.7495C50.3124 33.9157 50.833 33.9996 51.3569 33.9977C52.5926 33.9977 53.9284 33.5416 54.8215 32.3845C56.1056 30.7195 56.1089 28.3311 56.0101 26.2224C55.9955 25.782 55.9854 25.2753 55.9775 24.7271ZM14.028 23.6845H13.9157C13.883 23.4821 13.8616 23.2781 13.8517 23.0733C13.7798 21.7005 14.2606 20.367 15.0492 19.7547C15.1599 19.6607 15.2887 19.5904 15.4276 19.5483C15.5666 19.5062 15.7127 19.4931 15.857 19.5098C15.9596 19.5315 16.0563 19.5754 16.1401 19.6385C16.224 19.7016 16.293 19.7823 16.3423 19.8749C16.7916 20.6006 16.7197 21.8274 16.1929 22.6116C15.9532 22.96 15.6286 23.2414 15.2498 23.4292C14.8709 23.6169 14.4504 23.7048 14.028 23.6845ZM21.292 20.8849C21.1718 19.7828 21.055 18.3459 21.2089 17.0067C21.3707 15.5968 22.0088 14.0689 22.7963 13.951H22.8367C23.2007 13.951 23.4771 14.6902 23.5771 15.2058C23.7254 15.9653 23.7096 16.8247 23.6748 17.5651C23.5816 19.5996 23.0569 22.0139 21.938 23.8451C21.6042 22.8883 21.3887 21.8941 21.2965 20.8849H21.292ZM29.8064 23.7238C29.6941 23.4242 29.5817 23.0988 29.4694 22.7475C28.9077 20.95 28.4077 18.2189 29.2503 15.4361C29.3627 15.0508 29.539 14.5711 29.8356 14.2801C29.9121 14.1935 30.0146 14.134 30.1277 14.1105C30.2659 14.1105 30.5265 14.3857 30.7209 14.8463C31.241 16.072 31.4106 17.5595 31.2242 19.2637C31.1179 20.2686 30.8838 21.2559 30.5276 22.2015C30.3301 22.7274 30.0904 23.2365 29.8109 23.7238H29.8064Z" fill="#07BEB8"/>
<path d="M36.037 16.8912C36.2382 16.8912 36.435 16.8315 36.6023 16.7196C36.7697 16.6078 36.9001 16.4488 36.9772 16.2628C37.0542 16.0768 37.0743 15.8722 37.0351 15.6747C36.9958 15.4773 36.8989 15.2959 36.7566 15.1536C36.6142 15.0112 36.4329 14.9143 36.2355 14.875C36.0381 14.8358 35.8335 14.8559 35.6475 14.9329C35.4616 15.01 35.3026 15.1404 35.1908 15.3078C35.079 15.4752 35.0193 15.672 35.0193 15.8733C35.0193 16.1433 35.1265 16.4022 35.3174 16.593C35.5082 16.7839 35.7671 16.8912 36.037 16.8912Z" fill="#07BEB8"/>
</svg>
