<svg width="current" height="current" viewBox="0 0 33 32" fill="none" xmlns="http://www.w3.org/2000/svg">
<path d="M26.6222 20.5775L26.6243 20.5755C30.6363 16.5635 30.7572 10.0244 26.7681 5.97576C25.8143 5.00742 24.6783 4.23744 23.4256 3.71017C22.1728 3.1829 20.8281 2.90879 19.469 2.90364C18.1098 2.89848 16.763 3.16239 15.5063 3.68015C14.2495 4.19791 13.1077 4.95927 12.1467 5.92036L3.88251 14.2856C3.64116 14.5299 3.50629 14.8598 3.50733 15.2032C3.50837 15.5466 3.64526 15.8756 3.88808 16.1185L7.46987 19.7002C7.59148 19.8219 7.73603 19.9181 7.89512 19.9835C8.05421 20.0489 8.22469 20.082 8.39668 20.081C8.56867 20.08 8.73875 20.0449 8.89707 19.9777C9.05539 19.9105 9.1988 19.8125 9.31899 19.6895L17.5207 11.2943L17.5219 11.2931C18.0218 10.7939 18.6973 10.5105 19.4037 10.5036C20.1108 10.4968 20.7922 10.7676 21.3018 11.2578C22.3857 12.3014 22.368 14.0821 21.2929 15.1589L12.9174 23.2812C12.7937 23.4012 12.6951 23.5447 12.6273 23.7032C12.5595 23.8617 12.5239 24.0321 12.5226 24.2045C12.5213 24.3769 12.5543 24.5478 12.6196 24.7073C12.685 24.8668 12.7814 25.0118 12.9033 25.1337L16.4851 28.7154C16.7273 28.9577 17.0554 29.0945 17.398 29.0962C17.7405 29.0978 18.0699 28.9642 18.3145 28.7244L26.6222 20.5775Z" fill="#486A7A" stroke="#486A7A" stroke-width="0.6" stroke-linecap="round" stroke-linejoin="round"/>
<path d="M3.81311 14.1953L3.81139 14.197C3.55148 14.4601 3.40624 14.8153 3.40736 15.1852C3.40848 15.555 3.55589 15.9094 3.81739 16.1709L7.39918 19.7526C7.53016 19.8836 7.68581 19.9873 7.85714 20.0577C8.02847 20.1281 8.21206 20.1638 8.39728 20.1627C8.58251 20.1616 8.76568 20.1238 8.93617 20.0514C9.10667 19.979 9.26111 19.8735 9.39054 19.741L13.4015 15.6355C13.5546 15.4788 13.5532 15.228 13.3982 15.0731L8.44958 10.1245C8.37457 10.0495 8.27283 10.0073 8.16674 10.0073C8.06066 10.0073 7.95891 10.0495 7.8839 10.1245L3.81311 14.1953Z" fill="#FF574C" stroke="#FF574C" stroke-width="0.8" stroke-linecap="round" stroke-linejoin="round"/>
<path d="M12.9674 23.229L12.9657 23.2307C12.7058 23.4938 12.5606 23.849 12.5617 24.2189C12.5628 24.5887 12.7102 24.943 12.9717 25.2046L16.5535 28.7863C16.6845 28.9173 16.8401 29.021 17.0115 29.0914C17.1828 29.1618 17.3664 29.1974 17.5516 29.1964C17.7368 29.1953 17.92 29.1575 18.0905 29.0851C18.261 29.0127 18.4154 28.9072 18.5449 28.7747L22.5558 24.6692C22.7089 24.5125 22.7075 24.2617 22.5525 24.1068L17.6039 19.1582C17.5289 19.0832 17.4272 19.041 17.3211 19.041C17.215 19.041 17.1132 19.0832 17.0382 19.1582L12.9674 23.229Z" fill="#4698FF" stroke="#4698FF" stroke-width="0.8" stroke-linecap="round" stroke-linejoin="round"/>
</svg>
