<svg width="current" height="current" viewBox="0 0 24 24" fill="none" xmlns="http://www.w3.org/2000/svg">
<path d="M11.8849 15.2247L15.615 18.9548M5.05823 8.39803L8.78828 12.1281M11.9332 8.90901C12.3498 8.49238 12.9132 8.2558 13.5024 8.2501C14.0916 8.24441 14.6595 8.47005 15.0841 8.87854C15.9928 9.75343 15.9713 11.2349 15.0793 12.1268L8.79652 18.2198C8.72513 18.289 8.66821 18.3718 8.6291 18.4632C8.58998 18.5547 8.56944 18.653 8.56868 18.7524C8.56792 18.8519 8.58694 18.9505 8.62465 19.0425C8.66236 19.1346 8.718 19.2182 8.78833 19.2885L11.4746 21.9748C11.6144 22.1146 11.8037 22.1935 12.0013 22.1945C12.1989 22.1955 12.389 22.1184 12.5301 21.98L18.7609 15.8699C21.6851 12.9457 21.77 8.18287 18.8675 5.23706C18.173 4.53195 17.3458 3.97127 16.4336 3.58734C15.5215 3.2034 14.5423 3.00381 13.5526 3.00005C12.5629 2.9963 11.5823 3.18847 10.6672 3.56548C9.7521 3.94248 8.92068 4.49688 8.22086 5.1967L2.02371 11.4697C1.88447 11.6106 1.80665 11.8009 1.80725 11.9991C1.80786 12.1972 1.88683 12.387 2.02692 12.5271L4.71326 15.2135C4.78342 15.2836 4.86681 15.3392 4.9586 15.3769C5.05038 15.4146 5.14873 15.4337 5.24796 15.4331C5.34718 15.4325 5.44531 15.4123 5.53665 15.3735C5.62798 15.3347 5.71072 15.2782 5.78006 15.2072L11.9332 8.90901Z" stroke="current" stroke-width="1.5" stroke-linecap="round" stroke-linejoin="round"/>
</svg>
