<svg viewBox="0 0 20 20" fill="none" xmlns="http://www.w3.org/2000/svg">
<path d="M10.5837 9.72C10.5837 11.773 8.89001 13.44 6.79185 13.44C4.69369 13.44 3 11.773 3 9.72C3 7.66702 4.69369 6 6.79185 6C8.89001 6 10.5837 7.66702 10.5837 9.72ZM14.7379 9.72C14.7379 11.6498 13.8868 13.2183 12.842 13.2183C11.7971 13.2183 10.946 11.6498 10.946 9.72C10.946 7.7902 11.7971 6.22172 12.842 6.22172C13.8868 6.22172 14.7379 7.78199 14.7379 9.72ZM16.44 9.72C16.44 11.4527 16.1451 12.857 15.7743 12.857C15.4036 12.857 15.1086 11.4527 15.1086 9.72C15.1086 7.98728 15.4036 6.58304 15.7743 6.58304C16.1451 6.58304 16.44 7.98728 16.44 9.72Z" fill="#807F7D"/>
</svg>
