<svg width="33" height="32" viewBox="0 0 33 32" fill="none" xmlns="http://www.w3.org/2000/svg">
<g clip-path="url(#clip0_4008_39340)">
<path d="M26.0347 28.4317L26.0347 28.4317C26.2171 28.434 26.3972 28.3966 26.5617 28.3229C26.7262 28.2493 26.8704 28.1414 26.9846 28.0084L26.9851 28.0077C27.2377 27.714 27.3513 27.2995 27.2691 26.8576L27.2691 26.8573C26.8154 24.4089 25.4023 22.3445 23.1489 20.883L26.0347 28.4317ZM26.0347 28.4317H26.0277M26.0347 28.4317H26.0277M26.0277 28.4317H5.83594V28.4316M26.0277 28.4317L5.83594 28.4316M5.83594 28.4316L5.82875 28.4317M5.83594 28.4316L5.82875 28.4317M5.82875 28.4317C5.64645 28.434 5.46638 28.3967 5.30183 28.3231C5.13732 28.2495 4.99308 28.1417 4.87893 28.0087L4.87856 28.0083M5.82875 28.4317L4.87856 28.0083M4.87856 28.0083C4.62598 27.7146 4.51237 27.3001 4.59451 26.8582L4.59456 26.8579M4.87856 28.0083L4.59456 26.8579M4.59456 26.8579C5.04827 24.4094 6.46139 22.345 8.71488 20.8829M4.59456 26.8579L8.71488 20.8829M8.71488 20.8829C10.7242 19.5803 13.2874 18.8538 15.9318 18.8538C18.5761 18.8538 21.1392 19.5808 23.1487 20.8829L8.71488 20.8829ZM21.3121 10.2727L21.3121 10.2728C21.0712 13.4479 18.6018 15.9317 15.9318 15.9317C13.2615 15.9317 10.7882 13.447 10.551 10.2726C10.4336 8.69211 10.9332 7.25241 11.9375 6.19902C12.9329 5.15527 14.3443 4.56818 15.9318 4.56818C17.5078 4.56818 18.9147 5.15755 19.9166 6.20986C20.9298 7.27407 21.4308 8.71114 21.3121 10.2727Z" fill="#72E8B2" stroke="#6DF0B5" stroke-width="1.13636"/>
<path d="M22.4436 23.1599C22.5354 22.9662 22.6425 22.7826 22.7648 22.6042L22.7444 21.2785C22.7444 21.1561 22.7954 21.0388 22.8923 20.9572C23.3665 20.5595 23.907 20.2383 24.5035 20.0242C24.6208 19.9834 24.7483 19.9936 24.8503 20.0598L25.9873 20.7431C26.2015 20.7278 26.4156 20.7278 26.6298 20.7431L27.7668 20.0598C27.8739 19.9987 28.0013 19.9834 28.1186 20.0242C28.6999 20.2332 29.2455 20.5442 29.7299 20.9521C29.8216 21.0286 29.8777 21.151 29.8726 21.2734L29.8522 22.5991C29.9746 22.7775 30.0817 22.9611 30.1734 23.1548L31.3309 23.7973C31.438 23.8585 31.5144 23.9605 31.5348 24.0828C31.6419 24.6896 31.647 25.3218 31.5348 25.9388C31.5144 26.0612 31.438 26.1632 31.3309 26.2243L30.1734 26.8668C30.0817 27.0605 29.9746 27.2441 29.8522 27.4226L29.8726 28.7483C29.8726 28.8706 29.8216 28.9879 29.7248 29.0695C29.2506 29.4672 28.7101 29.7884 28.1135 30.0026C27.9962 30.0434 27.8688 30.0332 27.7668 29.9669L26.6298 29.2836C26.4156 29.2989 26.2015 29.2989 25.9873 29.2836L24.8503 29.9669C24.7432 30.0281 24.6157 30.0434 24.4984 30.0026C23.9172 29.7935 23.3716 29.4825 22.8872 29.0746C22.7954 28.9981 22.7394 28.8757 22.7444 28.7534L22.7648 27.4277C22.6425 27.2492 22.5354 27.0656 22.4436 26.8719L21.2862 26.2294C21.1791 26.1683 21.1026 26.0663 21.0822 25.9439C20.9752 25.3371 20.9701 24.7049 21.0822 24.0879C21.1026 23.9656 21.1791 23.8636 21.2862 23.8024L22.4436 23.1599Z" fill="#807F7D"/>
<path d="M26.3034 27.4634C27.6551 27.4634 28.7508 26.3676 28.7508 25.0159C28.7508 23.6642 27.6551 22.5685 26.3034 22.5685C24.9517 22.5685 23.8559 23.6642 23.8559 25.0159C23.8559 26.3676 24.9517 27.4634 26.3034 27.4634Z" fill="#807F7D"/>
<path d="M22.4436 23.1599C22.5354 22.9662 22.6425 22.7826 22.7648 22.6042L22.7444 21.2785C22.7444 21.1561 22.7954 21.0388 22.8923 20.9572C23.3665 20.5595 23.907 20.2383 24.5035 20.0242C24.6208 19.9834 24.7483 19.9936 24.8503 20.0598L25.9873 20.7431C26.2015 20.7278 26.4156 20.7278 26.6298 20.7431L27.7668 20.0598C27.8739 19.9987 28.0013 19.9834 28.1186 20.0242C28.6999 20.2332 29.2455 20.5442 29.7299 20.9521C29.8216 21.0286 29.8777 21.151 29.8726 21.2734L29.8522 22.5991C29.9746 22.7775 30.0817 22.9611 30.1734 23.1548L31.3309 23.7973C31.438 23.8585 31.5144 23.9605 31.5348 24.0828C31.6419 24.6896 31.647 25.3218 31.5348 25.9388C31.5144 26.0612 31.438 26.1632 31.3309 26.2243L30.1734 26.8668C30.0817 27.0605 29.9746 27.2441 29.8522 27.4226L29.8726 28.7483C29.8726 28.8706 29.8216 28.9879 29.7248 29.0695C29.2506 29.4672 28.7101 29.7884 28.1135 30.0026C27.9962 30.0434 27.8688 30.0332 27.7668 29.9669L26.6298 29.2836C26.4156 29.2989 26.2015 29.2989 25.9873 29.2836L24.8503 29.9669C24.7432 30.0281 24.6157 30.0434 24.4984 30.0026C23.9172 29.7935 23.3716 29.4825 22.8872 29.0746C22.7954 28.9981 22.7394 28.8757 22.7444 28.7534L22.7648 27.4277C22.6425 27.2492 22.5354 27.0656 22.4436 26.8719L21.2862 26.2294C21.1791 26.1683 21.1026 26.0663 21.0822 25.9439C20.9752 25.3371 20.9701 24.7049 21.0822 24.0879C21.1026 23.9656 21.1791 23.8636 21.2862 23.8024L22.4436 23.1599Z" stroke="#807F7D" stroke-width="0.985324" stroke-miterlimit="10" stroke-linecap="round" stroke-linejoin="round"/>
<path d="M26.3034 27.4634C27.6551 27.4634 28.7508 26.3676 28.7508 25.0159C28.7508 23.6642 27.6551 22.5685 26.3034 22.5685C24.9517 22.5685 23.8559 23.6642 23.8559 25.0159C23.8559 26.3676 24.9517 27.4634 26.3034 27.4634Z" stroke="#807F7D" stroke-width="0.985324" stroke-miterlimit="10" stroke-linecap="round" stroke-linejoin="round"/>
<circle cx="26.3085" cy="25.0136" r="2.74113" fill="#F9F7F2"/>
</g>
<defs>
<clipPath id="clip0_4008_39340">
<rect width="32" height="32" fill="white" transform="translate(0.5)"/>
</clipPath>
</defs>
</svg>
