<svg viewBox="0 0 190 190" fill="none" xmlns="http://www.w3.org/2000/svg">
<path d="M21.5245 71.1754C21.5245 71.1754 13.4739 84.9766 25.145 91.5791C22.3412 99.9505 28.0568 106.114 36.5107 109.419C39.5895 90.2918 27.3757 71.8498 21.5245 71.1754Z" fill="#FBFFE7"/>
<path d="M24.8691 98.2665C24.7224 104.431 37.9546 113.569 58.0649 113.537C59.2098 109.199 59.5461 104.688 59.0571 100.228C58.4454 93.9215 56.0503 88.8086 51.0458 83.2439C46.9571 78.6843 41.2661 74.8843 37.2084 70.5735C34.9178 68.117 32.734 65.5732 30.657 62.9421C30.1469 62.3127 29.4775 61.8315 28.7185 61.5483C27.795 61.1751 26.7685 61.1447 25.8245 61.4626C24.8806 61.7805 24.0816 62.4257 23.5721 63.2815C22.3274 65.2654 21.7633 67.601 21.9652 69.9343C22.46 75.7551 25.5146 80.6648 34.4113 83.0622" fill="#FBFFE7"/>
<path d="M24.8691 98.2665C24.7223 104.431 37.9546 113.569 58.0649 113.537C59.2098 109.199 59.5461 104.688 59.0571 100.228C58.4454 93.9215 56.0503 88.8086 51.0458 83.2439C46.9571 78.6843 41.2661 74.8843 37.2084 70.5735C34.9178 68.117 32.734 65.5732 30.657 62.9421C30.1469 62.3127 29.4775 61.8315 28.7185 61.5483C27.795 61.1751 26.7685 61.1447 25.8245 61.4626C24.8806 61.7805 24.0816 62.4257 23.5721 63.2815C22.3274 65.2654 21.7633 67.601 21.9652 69.9343C22.46 75.7551 25.5146 80.6648 34.4113 83.0622" stroke="#878787" stroke-width="4.41071" stroke-linecap="round" stroke-linejoin="round"/>
<path d="M19.5791 82.4102C19.4101 84.1438 19.7766 85.8877 20.6293 87.4066C22.8895 91.3427 29.5259 94.4493 36.2258 94.5617" fill="#FBFFE7"/>
<path d="M19.5791 82.4102C19.4101 84.1438 19.7766 85.8877 20.6293 87.4066C22.8895 91.3427 29.5259 94.4493 36.2258 94.5617" stroke="#878787" stroke-width="4.41071" stroke-linecap="round" stroke-linejoin="round"/>
<path d="M102.293 36.6295C125.223 37.0597 139.526 51.2892 148.797 67.7919C150.143 70.1861 151.36 72.6344 152.47 75.138C153.056 76.4744 153.632 77.81 154.186 79.165C160.975 95.6297 165.636 113.802 159.665 131.613C150.062 160.185 122.253 164.288 90.4835 162.853C84.9234 162.617 79.426 161.586 74.1626 159.792C69.2481 158.137 64.6558 155.66 60.5853 152.471C48.2713 142.574 43.2589 128.623 42.854 115.262C42.4036 98.545 47.4465 87.2205 54.7493 72.3803C60.8011 60.0853 72.9656 46.2852 86.8826 40.0132C91.6967 37.7571 96.9632 36.6007 102.293 36.6295Z" fill="white"/>
<path d="M132.491 47.618C139.139 53.2875 144.665 60.1278 148.79 67.7908C150.136 70.185 151.353 72.6333 152.463 75.137C153.049 76.4733 153.625 77.809 154.179 79.1639C160.968 95.6286 165.629 113.8 159.657 131.612C150.055 160.184 109.639 168.419 76.5027 160.481" stroke="#878787" stroke-width="4.41071" stroke-linecap="round" stroke-linejoin="round"/>
<path d="M94.3399 37.4947C96.942 36.8721 99.6143 36.5809 102.292 36.6282C109.986 36.6898 117.553 38.5933 124.346 42.1759" stroke="#878787" stroke-width="4.41071" stroke-linecap="round" stroke-linejoin="round"/>
<path d="M60.589 152.474C29.9715 127.896 43.4101 79.9065 66.4331 55.2403C71.2897 49.9484 76.9554 45.4429 83.2243 41.8878" stroke="#878787" stroke-width="4.41071" stroke-linecap="round" stroke-linejoin="round"/>
<path d="M100.151 44.8556C102.513 43.0208 104.422 40.6678 105.731 37.9783C108.391 32.5731 108.414 26.7248 106.238 22.4971C101.549 23.3285 96.9131 26.8895 94.2432 32.2941C91.5733 37.6986 91.551 43.5365 93.7053 47.7733" fill="#FFF9F3"/>
<path d="M100.151 44.8556C102.513 43.0208 104.422 40.6678 105.731 37.9783C108.391 32.5731 108.414 26.7248 106.238 22.4971C101.549 23.3285 96.9131 26.8895 94.2432 32.2941C91.5733 37.6986 91.551 43.5365 93.7053 47.7733" stroke="#878787" stroke-width="4.41071" stroke-linecap="round" stroke-linejoin="round"/>
<path d="M85.1618 82.6833C85.194 83.4039 85.012 84.1178 84.6387 84.735C84.2654 85.3522 83.7176 85.845 83.0645 86.151C82.4113 86.457 81.6821 86.5626 80.9689 86.4545C80.2558 86.3463 79.5907 86.0292 79.0577 85.5433C78.5246 85.0574 78.1475 84.4244 77.974 83.7242C77.8005 83.0241 77.8384 82.2883 78.0829 81.6097C78.3273 80.931 78.7674 80.3401 79.3476 79.9115C79.9277 79.4828 80.6218 79.2357 81.3423 79.2014C81.8222 79.1771 82.3022 79.2481 82.7545 79.4103C83.2068 79.5725 83.6225 79.8227 83.9776 80.1464C84.3327 80.4701 84.6202 80.861 84.8234 81.2964C85.0267 81.7318 85.1417 82.2032 85.1618 82.6833Z" fill="#878787"/>
<path d="M106.156 83.8504C106.156 83.8504 110.688 77.9142 117.728 83.0906L106.156 83.8504Z" fill="#FFF9F3"/>
<path d="M106.156 83.8504C106.156 83.8504 110.688 77.9142 117.728 83.0906" stroke="#878787" stroke-width="4.41071" stroke-linecap="round" stroke-linejoin="round"/>
<path d="M107.711 98.8996C106.759 97.1374 105.316 95.6887 103.558 94.7284C101.8 93.7682 99.8014 93.3375 97.8039 93.4883C95.8063 93.6392 93.8952 94.3651 92.3013 95.5785C90.7073 96.7919 89.4988 98.4409 88.8216 100.326L88.8184 100.378C90.6666 104.325 94.719 108.782 98.9161 108.474C103.113 108.166 106.525 103.1 107.716 98.9939L107.711 98.8996Z" fill="#FFC3DD"/>
<path d="M123.589 73.0761C128.897 78.8953 127.121 86.4767 121.61 91.503C116.1 96.5293 108.11 97.8556 102.802 92.0365C97.4944 86.2173 98.2127 76.9197 103.723 71.8934C109.233 66.8671 118.281 67.257 123.589 73.0761Z" fill="#E2F7F2" fill-opacity="0.44"/>
<path d="M117.552 77.18C119.329 79.1284 119.604 80.8737 118.769 81.6354C117.934 82.3971 116.179 82.0017 114.402 80.0533C112.625 78.1049 111.945 75.8313 112.78 75.0696C113.615 74.3079 115.775 75.2316 117.552 77.18Z" fill="#FFFDFA" fill-opacity="0.8"/>
<mask id="path-18-outside-1_2873_32656" maskUnits="userSpaceOnUse" x="85.2763" y="55.4526" width="65.4811" height="62.6695" fill="black">
<rect fill="white" x="85.2763" y="55.4526" width="65.4811" height="62.6695"/>
<path fill-rule="evenodd" clip-rule="evenodd" d="M129.351 92.6254C134.708 85.381 135.559 76.1961 128.914 68.9115C120.997 60.2316 107.425 59.7196 99.1175 67.2978C90.8096 74.876 89.6574 88.8182 97.5749 97.4981C104.885 105.512 115.674 104.378 123.826 98.1913C123.976 98.6769 124.213 99.1437 124.538 99.5691L132.394 109.847C134.522 112.631 138.624 112.94 141.192 110.556C143.842 108.095 143.736 103.818 140.921 101.547L130.852 93.4201C130.396 93.0513 129.885 92.7868 129.351 92.6254ZM123.39 73.3887C128.698 79.2079 126.922 86.7893 121.411 91.8156C115.901 96.842 107.912 98.1683 102.604 92.3491C97.2955 86.53 98.0139 77.2324 103.524 72.206C109.035 67.1797 118.082 67.5696 123.39 73.3887Z"/>
</mask>
<path fill-rule="evenodd" clip-rule="evenodd" d="M129.351 92.6254C134.708 85.381 135.559 76.1961 128.914 68.9115C120.997 60.2316 107.425 59.7196 99.1175 67.2978C90.8096 74.876 89.6574 88.8182 97.5749 97.4981C104.885 105.512 115.674 104.378 123.826 98.1913C123.976 98.6769 124.213 99.1437 124.538 99.5691L132.394 109.847C134.522 112.631 138.624 112.94 141.192 110.556C143.842 108.095 143.736 103.818 140.921 101.547L130.852 93.4201C130.396 93.0513 129.885 92.7868 129.351 92.6254ZM123.39 73.3887C128.698 79.2079 126.922 86.7893 121.411 91.8156C115.901 96.842 107.912 98.1683 102.604 92.3491C97.2955 86.53 98.0139 77.2324 103.524 72.206C109.035 67.1797 118.082 67.5696 123.39 73.3887Z" fill="#E5FCED"/>
<path d="M129.351 92.6254L125.805 90.0031L122.084 95.0357L128.075 96.8473L129.351 92.6254ZM128.914 68.9115L132.173 65.9391L128.914 68.9115ZM99.1175 67.2978L102.09 70.5565L99.1175 67.2978ZM97.5749 97.4981L94.3162 100.471L94.3162 100.471L97.5749 97.4981ZM123.826 98.1913L128.038 96.8832L126.172 90.8736L121.159 94.6779L123.826 98.1913ZM124.538 99.5691L121.034 102.247L121.034 102.247L124.538 99.5691ZM132.394 109.847L135.898 107.169L135.898 107.169L132.394 109.847ZM141.192 110.556L138.19 107.324L138.19 107.324L141.192 110.556ZM140.921 101.547L138.151 104.979L140.921 101.547ZM130.852 93.4201L128.082 96.8523L128.082 96.8523L130.852 93.4201ZM121.411 91.8156L118.439 88.5569L121.411 91.8156ZM123.39 73.3887L126.648 70.4163L126.648 70.4163L123.39 73.3887ZM102.604 92.3491L105.862 89.3767L102.604 92.3491ZM103.524 72.206L100.552 68.9474L100.552 68.9474L103.524 72.206ZM132.898 95.2476C139.206 86.7158 140.553 75.1261 132.173 65.9391L125.656 71.884C130.565 77.266 130.209 84.0462 125.805 90.0031L132.898 95.2476ZM132.173 65.9391C122.631 55.4783 106.272 54.8021 96.1451 64.0392L102.09 70.5565C108.579 64.6371 119.362 64.9848 125.656 71.884L132.173 65.9391ZM96.1451 64.0392C86.1307 73.1739 84.6733 89.899 94.3162 100.471L100.834 94.5257C94.6415 87.7373 95.4885 76.5782 102.09 70.5565L96.1451 64.0392ZM94.3162 100.471C103.685 110.742 117.212 108.748 126.492 101.705L121.159 94.6779C114.137 100.008 106.086 100.283 100.834 94.5257L94.3162 100.471ZM128.043 96.8907C128.039 96.8862 128.038 96.8839 128.038 96.8836C128.038 96.8833 128.038 96.8832 128.038 96.8832L119.613 99.4994C119.915 100.472 120.39 101.404 121.034 102.247L128.043 96.8907ZM135.898 107.169L128.043 96.8907L121.034 102.247L128.89 112.526L135.898 107.169ZM138.19 107.324C137.49 107.974 136.413 107.842 135.898 107.169L128.89 112.526C132.63 117.42 139.758 117.907 144.193 113.788L138.19 107.324ZM138.151 104.979C138.83 105.527 138.914 106.652 138.19 107.324L144.193 113.788C148.769 109.538 148.641 102.109 143.691 98.1142L138.151 104.979ZM128.082 96.8523L138.151 104.979L143.691 98.1142L133.623 89.9878L128.082 96.8523ZM128.075 96.8473C128.075 96.8474 128.075 96.8476 128.076 96.8477C128.076 96.8478 128.078 96.8488 128.082 96.8523L133.623 89.9878C132.716 89.2557 131.696 88.7264 130.628 88.4035L128.075 96.8473ZM124.384 95.0743C127.749 92.0044 130.182 87.9696 130.823 83.5296C131.481 78.9728 130.192 74.3009 126.648 70.4163L120.131 76.3612C121.896 78.2957 122.373 80.3241 122.092 82.2693C121.794 84.3314 120.584 86.6004 118.439 88.5569L124.384 95.0743ZM99.3449 95.3216C102.95 99.2735 107.609 100.871 112.237 100.55C116.742 100.237 121.024 98.1387 124.384 95.0743L118.439 88.5569C116.288 90.5189 113.821 91.597 111.626 91.7493C109.555 91.893 107.565 91.2438 105.862 89.3767L99.3449 95.3216ZM100.552 68.9474C93.3016 75.5606 92.3411 87.6433 99.3449 95.3216L105.862 89.3767C102.25 85.4166 102.726 78.9041 106.497 75.4647L100.552 68.9474ZM126.648 70.4163C119.746 62.8495 107.913 62.2323 100.552 68.9474L106.497 75.4647C110.156 72.1271 116.417 72.2897 120.131 76.3612L126.648 70.4163Z" fill="#878787" mask="url(#path-18-outside-1_2873_32656)"/>
<path d="M134.403 108.149C133.961 111.337 134.403 115.023 137.617 117.945C138.154 118.444 138.558 119.066 138.795 119.756C139.032 120.445 139.093 121.182 138.974 121.899C138.735 123.472 138.863 125.08 139.349 126.599C139.836 128.117 140.667 129.506 141.78 130.659C142.428 131.362 143.278 131.852 144.214 132.065C145.151 132.278 146.13 132.203 147.021 131.85C147.911 131.497 148.671 130.883 149.198 130.091C149.725 129.298 149.995 128.364 149.97 127.414C149.637 119.825 147.2 112.467 142.926 106.146C142.382 105.38 141.618 104.793 140.734 104.461C139.85 104.128 138.886 104.066 137.968 104.282C137.049 104.497 136.218 104.982 135.583 105.671C134.947 106.361 134.536 107.224 134.403 108.149Z" fill="#FBFFE7"/>
<path d="M139.193 125.422C138.917 130.168 148.204 137.291 162.194 139.548C163.159 139.76 164.16 139.754 165.122 139.532C166.084 139.31 166.982 138.877 167.751 138.265C169.486 136.734 170.01 134.255 170.141 132.004C170.541 124.78 167.98 118.314 163.333 112.812C159.784 108.601 154.746 105.032 151.205 101.029C149.179 98.7431 147.267 96.3972 145.515 93.9889C145.079 93.3894 144.485 92.9195 143.798 92.6307C142.977 92.2548 142.045 92.1878 141.179 92.4424C140.313 92.6969 139.572 93.2555 139.094 94.0135C137.904 95.743 137.32 97.8117 137.431 99.9041C137.701 105.177 140.3 109.718 148.283 112.094" fill="#FBFFE7"/>
<path d="M139.193 125.422C138.917 130.168 148.204 137.291 162.194 139.548C163.159 139.76 164.16 139.754 165.122 139.532C166.084 139.31 166.982 138.877 167.751 138.265C169.486 136.734 170.01 134.255 170.141 132.004C170.541 124.78 167.98 118.314 163.333 112.812C159.784 108.601 154.746 105.032 151.205 101.029C149.179 98.7431 147.267 96.3972 145.515 93.9889C145.079 93.3894 144.485 92.9195 143.798 92.6307C142.977 92.2548 142.045 92.1878 141.179 92.4424C140.313 92.6969 139.572 93.2555 139.094 94.0135C137.904 95.743 137.32 97.8117 137.431 99.9041C137.701 105.177 140.3 109.718 148.283 112.094" stroke="#878787" stroke-width="4.41071" stroke-linecap="round" stroke-linejoin="round"/>
<path d="M134.89 111.067C134.694 112.61 134.971 114.177 135.686 115.565C137.616 119.165 143.524 122.159 149.574 122.478" fill="#FBFFE7"/>
<path d="M134.89 111.067C134.694 112.61 134.971 114.177 135.686 115.565C137.616 119.165 143.524 122.159 149.574 122.478" stroke="#878787" stroke-width="4.41071" stroke-linecap="round" stroke-linejoin="round"/>
</svg>
