<svg viewBox="0 0 188 179" fill="none" xmlns="http://www.w3.org/2000/svg">
<rect x="10.4917" width="6.67633" height="90" rx="3.33816" fill="#DFE2E1"/>
<rect x="41.168" width="6.56" height="38" rx="3.28" fill="#DFE2E1"/>
<rect x="71.728" width="6.56" height="24" rx="3.28" fill="#DFE2E1"/>
<path fill-rule="evenodd" clip-rule="evenodd" d="M104.173 34.6037C142.941 46.4508 144.555 87.4931 156.387 104.141C187.47 147.876 133.365 172.272 90.4156 171.369C29.8626 170.096 -6.00183 143.892 24.3548 93.2408C30.5235 47.5739 67.3468 24.6956 104.173 34.6037Z" fill="#E2F7F2"/>
<path d="M112.119 51.1178C114.517 44.165 114.507 37.5361 110.365 31.0578C106.868 25.5864 102.37 21.7929 96.2279 20.3146C95.5821 20.1671 94.9177 20.108 94.2535 20.1389C93.311 20.3418 94.3734 25.8656 94.481 26.9706C95.776 40.3868 96.0152 49.54 112.119 51.1178Z" fill="#B2F9ED"/>
<path d="M118.371 123.175L123.705 120.191C125.732 119.054 126.15 116.607 124.604 114.939L119.973 109.941C119.212 109.162 118.197 108.682 117.112 108.589C116.028 108.495 114.945 108.794 114.063 109.431L108.63 113.529C106.813 114.909 106.797 117.392 108.598 118.862L113.329 122.73C114.034 123.289 114.887 123.63 115.783 123.709C116.679 123.788 117.579 123.602 118.371 123.175Z" fill="#F9D2D2"/>
<path d="M96.6256 91.6845C97.6862 90.7699 98.5117 89.614 99.0327 88.314L99.0328 88.3137C99.0845 88.1838 99.11 88.0451 99.108 87.9054C99.106 87.7656 99.0766 87.6277 99.0212 87.4993C98.9659 87.371 98.8859 87.2548 98.7857 87.1574C98.6855 87.06 98.5671 86.9833 98.4372 86.9317C98.3074 86.88 98.1686 86.8545 98.0289 86.8564C97.8892 86.8584 97.7512 86.8879 97.6228 86.9432C97.4945 86.9985 97.3783 87.0786 97.2809 87.1788C97.1836 87.2789 97.1069 87.3973 97.0553 87.527C96.4776 88.9605 95.4249 90.1519 94.0736 90.9019C92.7223 91.6519 91.1542 91.9148 89.6321 91.6467L89.6321 91.6466L89.6283 91.6461C89.3576 91.6083 89.0828 91.6766 88.8612 91.8367C88.6396 91.9967 88.4885 92.2362 88.4392 92.505C88.39 92.7739 88.4466 93.0514 88.597 93.2796C88.7475 93.5077 88.9803 93.669 89.2469 93.7296L89.2469 93.7297L89.2517 93.7306C91.2565 94.0901 93.324 93.7451 95.1033 92.754L95.1034 92.754C95.6464 92.4512 96.1566 92.0928 96.6256 91.6845ZM96.6256 91.6845C96.6255 91.6846 96.6255 91.6846 96.6254 91.6847L96.5551 91.6032L96.6258 91.6844C96.6257 91.6844 96.6256 91.6845 96.6256 91.6845Z" fill="#07BEB8" stroke="#07BEB8" stroke-width="0.215213"/>
<path d="M97.0833 105.875C99.1921 105.875 100.902 103.88 100.902 101.419C100.902 98.9579 99.1921 96.9629 97.0833 96.9629C94.9746 96.9629 93.2651 98.9579 93.2651 101.419C93.2651 103.88 94.9746 105.875 97.0833 105.875Z" fill="#07BEB8"/>
<path d="M24.3546 93.2425C-6.00204 143.894 29.8624 170.098 90.4153 171.371C99.9927 171.572 110.125 170.516 119.743 168.267C62.2581 172.98 18.0938 118.296 34.8006 63.09L35.16 61.9023C29.7831 70.6217 25.9906 81.1306 24.3546 93.2425Z" fill="#DCEFEB" fill-opacity="0.5"/>
<path d="M133.358 89.4344L133.357 89.4343L130.899 88.2288L130.844 88.3217C130.844 88.3216 130.844 88.3216 130.844 88.3215C129.065 87.2809 127.598 85.7679 126.568 83.9112L126.568 83.911C126.468 83.7303 126.406 83.5272 126.384 83.3136C126.362 83.1001 126.38 82.88 126.438 82.6657C126.495 82.4515 126.59 82.2468 126.718 82.0632C126.846 81.8797 127.004 81.7203 127.184 81.5944C127.363 81.4686 127.561 81.3784 127.766 81.3298C127.972 81.2811 128.181 81.2749 128.381 81.3124C128.581 81.3499 128.768 81.4303 128.931 81.5492C129.094 81.668 129.229 81.8224 129.329 82.003C130.48 84.0648 132.31 85.5564 134.513 86.2302C136.717 86.904 139.163 86.7198 141.444 85.7038L141.444 85.7037L141.447 85.7023C141.836 85.545 142.254 85.5463 142.613 85.7115C142.972 85.8769 143.239 86.1913 143.359 86.5851C143.48 86.9782 143.446 87.4199 143.268 87.8188C143.091 88.2177 142.783 88.5468 142.405 88.7368L142.406 88.7369L142.401 88.7388C139.435 90.0711 136.24 90.3184 133.358 89.4344Z" fill="#07BEB8" stroke="#07BEB8" stroke-width="0.215213"/>
<path d="M136.554 107.748C140.241 107.748 143.231 104.56 143.231 100.626C143.231 96.6927 140.241 93.5039 136.554 93.5039C132.866 93.5039 129.876 96.6927 129.876 100.626C129.876 104.56 132.866 107.748 136.554 107.748Z" fill="#07BEB8"/>
<path d="M157.202 116.282C155.112 113.869 155.198 110.263 157.401 107.952C159.526 105.722 162.966 105.391 165.477 107.176L180.135 117.598C184.284 120.548 184.855 126.49 181.343 130.175C177.94 133.745 172.202 133.608 168.974 129.88L157.202 116.282Z" fill="#07BEB8"/>
<path d="M155.948 81.0281C163.839 88.6853 162.01 99.4011 154.759 106.874C147.508 114.347 136.488 116.875 128.596 109.218C120.704 101.561 120.914 88.5436 128.164 81.0706C135.415 73.5975 148.056 73.3709 155.948 81.0281Z" fill="#E2F7F2" fill-opacity="0.44"/>
<path d="M151.612 88.5262C156.008 92.791 157.52 96.1508 156.421 97.2833C155.322 98.4158 151.863 97.063 147.468 92.7982C143.072 88.5335 140.51 84.0442 141.609 82.9117C142.708 81.7792 147.217 84.2614 151.612 88.5262Z" fill="#FFFDFA" fill-opacity="0.8"/>
<path fill-rule="evenodd" clip-rule="evenodd" d="M161.022 113.543C171.955 102.276 174.784 86.1884 163.012 74.7668C151.241 63.3451 132.286 63.7866 121.354 75.0538C110.422 86.3209 110.002 105.847 121.774 117.269C133.546 128.691 150.09 124.81 161.022 113.543ZM154.503 107.325C161.754 99.8515 163.583 89.1357 155.692 81.4785C147.8 73.8213 135.159 74.0479 127.908 81.521C120.658 88.9941 120.448 102.011 128.34 109.669C136.232 117.326 147.252 114.798 154.503 107.325Z" fill="#07BEB8"/>
</svg>
