<svg viewBox="0 0 501 572" fill="none" xmlns="http://www.w3.org/2000/svg">
<path d="M73.1548 556.553C239.192 557.416 317.81 502.549 284.846 467.883C251.882 433.217 47.0841 363.346 42.9516 312.349C37.0307 239.285 246.687 141.307 485.459 127.473" stroke="url(#paint0_linear_1783_21631)" stroke-opacity="0.5" stroke-width="30.0727" stroke-linecap="round"/>
<path d="M22.481 85.6414C23.1241 84.4656 24.8129 84.4656 25.456 85.6414L31.9722 97.5558C32.1278 97.8403 32.3617 98.0742 32.6461 98.2298L44.5605 104.746C45.7364 105.389 45.7364 107.078 44.5605 107.721L32.6461 114.237C32.3617 114.393 32.1278 114.627 31.9722 114.911L25.456 126.825C24.8129 128.001 23.1241 128.001 22.481 126.825L15.9648 114.911C15.8092 114.627 15.5754 114.393 15.2909 114.237L3.37647 107.721C2.20063 107.078 2.20063 105.389 3.37647 104.746L15.2909 98.2298C15.5754 98.0742 15.8092 97.8403 15.9648 97.5558L22.481 85.6414Z" fill="#07BEB8"/>
<path d="M388.305 163.667C379.72 169.763 369.791 173.699 359.359 175.141C347.896 177.147 336.314 177.046 323.607 177.147C319.438 177.147 315.44 178.801 312.493 181.747C309.545 184.692 307.889 188.687 307.889 192.853C307.889 197.019 309.545 201.014 312.493 203.959C315.44 206.905 319.438 208.559 323.607 208.559H326.076C338.936 208.828 351.796 208.009 364.518 206.112C381.54 203.264 395.973 197.346 407.416 188.56C422.21 177.187 431.284 160.879 431.645 144.952C431.778 138.228 430.298 131.57 427.329 125.534C418.282 131.352 409.189 137.122 400.049 142.846C400.137 143.296 400.197 143.752 400.229 144.21C400.129 150.548 395.432 158.191 388.305 163.667Z" fill="#07BEB8"/>
<path d="M449.696 356.31C449.978 355.594 450.991 355.594 451.273 356.31L458.856 375.535C458.942 375.753 459.115 375.926 459.333 376.012L478.558 383.595C479.274 383.877 479.274 384.89 478.558 385.172L459.333 392.754C459.115 392.84 458.942 393.013 458.856 393.231L451.273 412.456C450.991 413.172 449.978 413.172 449.696 412.456L442.114 393.231C442.028 393.013 441.855 392.84 441.636 392.754L422.412 385.172C421.696 384.89 421.696 383.877 422.412 383.595L441.636 376.012C441.855 375.926 442.028 375.753 442.114 375.535L449.696 356.31Z" fill="#07BEB8"/>
<path d="M249.477 299C282.723 297.373 315.273 289.021 345.098 274.464C360.772 266.617 376.669 257.18 383.891 236.398C386.217 229.342 386.641 221.811 385.121 214.544C374.833 216.65 364.525 218.67 354.196 220.604C354.617 222.503 354.555 224.476 354.014 226.346C350.867 235.365 343.928 240.133 330.755 246.769C304.894 259.262 276.73 266.46 247.964 267.928C237.025 268.438 226.064 268.292 215.142 267.491C216.736 261.848 218.31 256.206 219.944 250.524C222.848 240.253 225.814 229.862 228.739 219.293C241.226 173.976 268.137 139.883 315.806 108.672C347.66 87.8312 378.686 66.7719 408.28 38.3618C413.424 33.4148 417.076 31.6864 418.609 31.2691C419.931 34.2802 420.538 37.5484 420.384 40.8253C420.283 77.1823 390.225 109.467 351.916 114.334C349.861 114.595 347.877 115.252 346.079 116.268C344.281 117.284 342.704 118.638 341.438 120.254C340.172 121.871 339.241 123.716 338.699 125.687C338.157 127.657 338.014 129.713 338.279 131.738C338.544 133.762 339.211 135.716 340.243 137.486C341.274 139.257 342.65 140.81 344.291 142.057C345.932 143.304 347.806 144.221 349.807 144.755C351.807 145.289 353.895 145.429 355.951 145.168C409.672 138.373 451.854 92.5993 451.995 40.9246C451.995 19.0707 441.162 3.17686 424.277 0.474914C412.174 -1.51181 398.92 3.93181 386.251 16.1104C358.573 42.6133 328.879 62.7786 298.397 82.765C244.575 117.95 212.762 158.698 198.197 210.988C195.272 221.498 192.326 231.829 189.442 242.041C187.424 249.193 185.407 256.246 183.39 263.299C157.306 258.411 133.239 250.027 114.801 238.643C111.253 236.546 107.012 235.903 102.988 236.853C98.9641 237.803 95.4795 240.27 93.2834 243.724C91.0872 247.178 90.3549 251.343 91.2439 255.323C92.1328 259.302 94.5721 262.78 98.0371 265.007C133.461 286.861 183.41 299.278 234.105 299.278C239.209 299.378 244.353 299.258 249.477 299Z" fill="#07BEB8"/>
<path d="M200.279 307.923L177.812 305.441C174.001 305.019 170.497 307.631 169.85 311.411C152.796 411.085 177.757 478.44 180.5 486.999C183.304 495.749 193.926 492.98 198 502.999C206.084 522.877 215.098 535.499 221.001 533.999C226.904 532.499 215.161 520.574 213.5 496.499C212.845 486.995 221.952 485.323 219.437 476.135C209.183 438.681 197.71 391.27 206.791 316.215C207.286 312.124 204.375 308.376 200.279 307.923Z" fill="#07BEB8"/>
<defs>
<linearGradient id="paint0_linear_1783_21631" x1="78.1066" y1="558.945" x2="344.097" y2="71.9652" gradientUnits="userSpaceOnUse">
<stop stop-color="#07BEB8"/>
<stop offset="0.0001" stop-color="#07BEB8" stop-opacity="0.765716"/>
<stop offset="1" stop-color="#E8E8E8" stop-opacity="0.3"/>
</linearGradient>
</defs>
</svg>
