<svg width="33" height="32" viewBox="0 0 33 32" fill="none" xmlns="http://www.w3.org/2000/svg">
<g clip-path="url(#clip0_4008_39337)">
<path d="M12.7368 23.3877C12.7407 23.4214 12.7483 23.4547 12.7597 23.4867C13.4412 25.4121 14.7026 27.0791 16.3705 28.258C18.0384 29.437 20.0307 30.07 22.0732 30.07H30.7145C31.0419 30.07 31.3559 29.94 31.5874 29.7085C31.8189 29.477 31.949 29.163 31.949 28.8356V20.1942C31.949 17.6684 30.9812 15.2386 29.2447 13.4044C27.5082 11.5702 25.1349 10.4711 22.6129 10.3329C22.6129 10.3329 22.6129 10.3329 22.6128 10.3329L11.7111 9.73439C11.5791 9.72715 11.4507 9.77844 11.36 9.8746C11.2693 9.97076 11.2256 10.102 11.2405 10.2334L12.7368 23.3877Z" fill="white" stroke="url(#paint0_linear_4008_39337)" stroke-width="0.8978" stroke-linecap="round" stroke-linejoin="round"/>
<path d="M10.9269 21.8538H2.28558C2.07723 21.8538 1.87741 21.771 1.73009 21.6237C1.58277 21.4764 1.5 21.2766 1.5 21.0682V12.4269C1.5 9.92671 2.49319 7.52895 4.26107 5.76107C6.02896 3.99319 8.42672 3 10.9269 3C13.4271 3 15.8248 3.99319 17.5927 5.76108C19.3606 7.52896 20.3538 9.92673 20.3538 12.4269C20.3538 14.9271 19.3606 17.3248 17.5927 19.0927C15.8248 20.8606 13.4271 21.8538 10.9269 21.8538Z" fill="#72E8B2" stroke="#65E5AC" stroke-width="0.8978" stroke-linecap="round" stroke-linejoin="round"/>
<path d="M10.8248 7.90012C13.1471 7.90012 14.4878 9.13309 14.4878 12.042V12.5328C14.4878 13.8495 14.2125 14.8192 13.6978 15.4895L14.3921 16.1718C14.6434 16.4232 14.5716 16.7464 14.3202 16.9978C14.0808 17.2372 13.7576 17.3091 13.5062 17.0577L12.7281 16.2916C12.2134 16.5429 11.5789 16.6746 10.8248 16.6746C8.50248 16.6746 7.16177 15.4416 7.16177 12.5328V12.042C7.16177 9.13309 8.50248 7.90012 10.8248 7.90012ZM10.8248 9.30068C9.42422 9.30068 8.70598 9.99498 8.70598 12.1617V12.4131C8.70598 14.5797 9.42422 15.274 10.8248 15.274C11.136 15.274 11.3994 15.2381 11.6029 15.1783L10.8966 14.472C10.6452 14.2206 10.7171 13.8974 10.9565 13.658C11.2079 13.4066 11.5311 13.3348 11.7824 13.5862L12.5845 14.3882C12.8239 13.9333 12.9436 13.2989 12.9436 12.4131V12.1617C12.9436 9.99498 12.2254 9.30068 10.8248 9.30068Z" fill="white"/>
<path d="M23.6534 16.7412C24.0604 16.7412 24.3717 16.8968 24.5871 17.4475L27.2805 24.3905C27.4601 24.8454 27.2446 25.2165 26.8496 25.3362C26.4546 25.4559 26.0116 25.42 25.8321 24.9052L25.1378 22.9899H22.1212L21.4149 24.9531C21.2473 25.42 20.8403 25.4678 20.4573 25.3362C20.0742 25.2045 19.8707 24.8932 20.0383 24.4503L22.7317 17.4475C22.9352 16.8968 23.2584 16.7412 23.6534 16.7412ZM23.6295 18.6565C23.4978 19.1354 23.402 19.4346 23.2105 19.9853L22.5761 21.721H24.6829L24.0604 19.9853C23.8569 19.4226 23.7492 19.0755 23.6295 18.6565Z" fill="#5FECAC"/>
</g>
<defs>
<linearGradient id="paint0_linear_4008_39337" x1="21.5933" y1="10.1826" x2="21.5933" y2="29.6211" gradientUnits="userSpaceOnUse">
<stop stop-color="#E9FFF7"/>
<stop offset="1" stop-color="#DFFFF0"/>
</linearGradient>
<clipPath id="clip0_4008_39337">
<rect width="32" height="32" fill="white" transform="translate(0.5)"/>
</clipPath>
</defs>
</svg>
