<svg viewBox="0 0 24 24" fill="none" xmlns="http://www.w3.org/2000/svg">
<path d="M12 21C16.9706 21 21 16.9706 21 12C21 7.02944 16.9706 3 12 3C7.02944 3 3 7.02944 3 12C3 16.9706 7.02944 21 12 21Z" stroke="#666F6A" stroke-width="1.5" stroke-linecap="round" stroke-linejoin="round"/>
<path d="M10.9397 8.53478C10.7253 8.66002 10.5535 8.83095 10.4414 9.03043C10.3462 9.17882 10.1871 9.29005 9.99739 9.34068C9.8077 9.39132 9.60229 9.37741 9.42442 9.30189C9.24656 9.22637 9.11013 9.09513 9.04387 8.93582C8.97761 8.77651 8.98669 8.60156 9.06921 8.44783C9.27385 8.09826 9.59412 7.72957 10.0894 7.44957C10.5887 7.16522 11.22 7 11.9936 7C12.6669 7 13.3944 7.16957 13.9725 7.53826C14.2948 7.73849 14.5562 8.00124 14.7349 8.30465C14.9136 8.60805 15.0044 8.94334 14.9998 9.28261C14.9998 10.1809 14.4749 10.7783 13.949 11.2087C13.7546 11.3678 13.5407 11.52 13.3565 11.6504L13.2061 11.7574C13.0483 11.8671 12.8996 11.9859 12.761 12.113V13.3043C12.761 13.4773 12.6802 13.6432 12.5362 13.7655C12.3923 13.8878 12.1971 13.9565 11.9936 13.9565C11.7901 13.9565 11.5949 13.8878 11.4509 13.7655C11.307 13.6432 11.2262 13.4773 11.2262 13.3043V12.0235C11.2262 11.8174 11.2947 11.5852 11.4789 11.3835C11.704 11.14 11.9762 10.9339 12.2136 10.7626L12.4008 10.6296L12.4019 10.6287C12.5779 10.5043 12.7334 10.3939 12.8828 10.2704C13.2593 9.96174 13.465 9.68261 13.465 9.28261C13.4695 9.14587 13.4341 9.0103 13.362 8.888C13.2899 8.76571 13.1832 8.66049 13.0516 8.58174C12.7774 8.40696 12.3865 8.30435 11.9936 8.30435C11.4881 8.30435 11.1607 8.40957 10.9397 8.53478ZM13.0168 16.1304C13.0168 16.3611 12.909 16.5822 12.7171 16.7453C12.5252 16.9084 12.265 17 11.9936 17C11.7222 17 11.462 16.9084 11.2701 16.7453C11.0782 16.5822 10.9704 16.3611 10.9704 16.1304C10.9704 15.8998 11.0782 15.6786 11.2701 15.5156C11.462 15.3525 11.7222 15.2609 11.9936 15.2609C12.265 15.2609 12.5252 15.3525 12.7171 15.5156C12.909 15.6786 13.0168 15.8998 13.0168 16.1304Z" fill="#666F6A"/>
</svg>
