<svg width="parent" height="parent" viewBox="0 0 121 120" fill="none" xmlns="http://www.w3.org/2000/svg">
<g id="Research">
<g id="Layer 1">
<g id="Group 250">
<path id="Vector" d="M14.0944 44.9538C14.0944 44.9538 9.00977 53.6704 16.381 57.8404C14.6102 63.1275 18.22 67.0206 23.5593 69.1078C25.5039 57.0273 17.7899 45.3798 14.0944 44.9538Z" fill="#FBFFE7"/>
<g id="Vector_2">
<path d="M16.2067 62.063C16.114 65.9565 24.4712 71.7274 37.1725 71.7077C37.8956 68.968 38.108 66.1186 37.7991 63.3019C37.4128 59.3187 35.9001 56.0895 32.7393 52.575C30.157 49.6953 26.5627 47.2953 23.9999 44.5726C22.5532 43.0212 21.174 41.4146 19.8622 39.7528C19.54 39.3553 19.1173 39.0514 18.6379 38.8725C18.0547 38.6368 17.4063 38.6176 16.8101 38.8184C16.214 39.0191 15.7093 39.4267 15.3875 39.9672C14.6014 41.2202 14.2451 42.6952 14.3727 44.1689C14.6852 47.8452 16.6144 50.9461 22.2333 52.4602" fill="#FBFFE7"/>
<path d="M16.2067 62.063C16.114 65.9565 24.4712 71.7274 37.1725 71.7077C37.8956 68.968 38.108 66.1186 37.7991 63.3019C37.4128 59.3187 35.9001 56.0895 32.7393 52.575C30.157 49.6953 26.5627 47.2953 23.9999 44.5726C22.5532 43.0212 21.174 41.4146 19.8622 39.7528C19.54 39.3553 19.1173 39.0514 18.6379 38.8725C18.0547 38.6368 17.4063 38.6176 16.8101 38.8184C16.214 39.0191 15.7093 39.4267 15.3875 39.9672C14.6014 41.2202 14.2451 42.6952 14.3727 44.1689C14.6852 47.8452 16.6144 50.9461 22.2333 52.4602" stroke="#878787" stroke-width="2.78571" stroke-linecap="round" stroke-linejoin="round"/>
</g>
<g id="Vector_3">
<path d="M12.8657 52.0488C12.759 53.1438 12.9905 54.2451 13.529 55.2045C14.9565 57.6905 19.1479 59.6525 23.3794 59.7235" fill="#FBFFE7"/>
<path d="M12.8657 52.0488C12.759 53.1438 12.9905 54.2451 13.529 55.2045C14.9565 57.6905 19.1479 59.6525 23.3794 59.7235" stroke="#878787" stroke-width="2.78571" stroke-linecap="round" stroke-linejoin="round"/>
</g>
</g>
<g id="Group 251">
<path id="Vector_4" d="M65.1057 23.136C79.5881 23.4076 88.6217 32.3947 94.4768 42.8175C95.3269 44.3296 96.0958 45.8759 96.7966 47.4572C97.1669 48.3011 97.5306 49.1447 97.8803 50.0005C102.168 60.3992 105.112 71.8762 101.341 83.1256C95.276 101.171 77.7125 103.762 57.6472 102.856C54.1356 102.707 50.6636 102.056 47.3393 100.923C44.2354 99.8773 41.335 98.3133 38.7641 96.2988C30.9869 90.0482 27.8212 81.2369 27.5654 72.7989C27.281 62.2405 30.4659 55.0882 35.0783 45.7154C38.9004 37.9502 46.5833 29.2343 55.373 25.273C58.4134 23.8481 61.7396 23.1178 65.1057 23.136Z" fill="white"/>
<path id="Vector_5" d="M84.1784 30.0761C88.3768 33.6568 91.8672 37.977 94.4722 42.8168C95.3223 44.3289 96.0912 45.8752 96.7921 47.4565C97.1623 48.3005 97.526 49.144 97.8758 49.9998C102.164 60.3985 105.107 71.8755 101.336 83.125C95.2714 101.17 69.7454 106.372 48.8173 101.358" stroke="#878787" stroke-width="2.78571" stroke-linecap="round" stroke-linejoin="round"/>
<path id="Vector_6" d="M60.0826 23.6825C61.7261 23.2893 63.4139 23.1054 65.105 23.1352C69.9644 23.1742 74.7436 24.3764 79.0341 26.639" stroke="#878787" stroke-width="2.78571" stroke-linecap="round" stroke-linejoin="round"/>
<path id="Vector_7" d="M38.7665 96.3003C19.4291 80.7779 27.9167 50.4684 42.4575 34.8897C45.5248 31.5475 49.1032 28.7019 53.0624 26.4566" stroke="#878787" stroke-width="2.78571" stroke-linecap="round" stroke-linejoin="round"/>
</g>
<g id="Vector_8">
<path d="M63.753 28.3311C65.2449 27.1722 66.4507 25.6862 67.2774 23.9875C68.9571 20.5737 68.9715 16.88 67.5974 14.2099C64.6361 14.735 61.7081 16.984 60.0218 20.3975C58.3355 23.8109 58.3215 27.498 59.682 30.1739" fill="#FFF9F3"/>
<path d="M63.753 28.3311C65.2449 27.1722 66.4507 25.6862 67.2774 23.9875C68.9571 20.5737 68.9715 16.88 67.5974 14.2099C64.6361 14.735 61.7081 16.984 60.0218 20.3975C58.3355 23.8109 58.3215 27.498 59.682 30.1739" stroke="#878787" stroke-width="2.78571" stroke-linecap="round" stroke-linejoin="round"/>
</g>
<path id="Vector_9" d="M54.2862 52.2214C54.3066 52.6765 54.1916 53.1275 53.9559 53.5173C53.7201 53.9071 53.3741 54.2183 52.9616 54.4116C52.5491 54.6048 52.0885 54.6715 51.6381 54.6032C51.1877 54.5349 50.7676 54.3347 50.431 54.0278C50.0943 53.7208 49.8562 53.3211 49.7466 52.8789C49.637 52.4367 49.6609 51.9719 49.8153 51.5434C49.9697 51.1148 50.2477 50.7415 50.6141 50.4708C50.9805 50.2001 51.4189 50.044 51.8739 50.0223C52.177 50.007 52.4801 50.0518 52.7658 50.1543C53.0515 50.2567 53.314 50.4147 53.5383 50.6192C53.7626 50.8237 53.9441 51.0705 54.0725 51.3455C54.2009 51.6205 54.2735 51.9182 54.2862 52.2214Z" fill="#878787"/>
<g id="Vector_10">
<path d="M67.5456 52.9594C67.5456 52.9594 70.4082 49.2102 74.8547 52.4795Z" fill="#FFF9F3"/>
<path d="M67.5456 52.9594C67.5456 52.9594 70.4082 49.2102 74.8547 52.4795" stroke="#878787" stroke-width="2.78571" stroke-linecap="round" stroke-linejoin="round"/>
</g>
<path id="Vector_11" d="M68.528 62.4637C67.9264 61.3508 67.0153 60.4358 65.9049 59.8293C64.7946 59.2228 63.5324 58.9508 62.2708 59.0461C61.0091 59.1414 59.8021 59.5999 58.7954 60.3662C57.7887 61.1326 57.0254 62.174 56.5977 63.3647L56.5957 63.3976C57.763 65.8901 60.3224 68.7052 62.9732 68.5108C65.624 68.3164 67.7789 65.1163 68.531 62.5233L68.528 62.4637Z" fill="#FFC3DD"/>
<g id="Group 159">
<path id="Ellipse 2" d="M78.5556 46.1543C81.9081 49.8295 80.7864 54.6178 77.3061 57.7923C73.8259 60.9668 68.78 61.8045 65.4275 58.1292C62.0751 54.454 62.5288 48.5818 66.009 45.4073C69.4892 42.2328 75.2032 42.479 78.5556 46.1543Z" fill="#E2F7F2" fill-opacity="0.44"/>
<path id="Ellipse 3" d="M74.7431 48.7455C75.8656 49.976 76.0392 51.0783 75.5118 51.5594C74.9844 52.0405 73.8761 51.7908 72.7536 50.5602C71.6311 49.3296 71.2018 47.8936 71.7292 47.4126C72.2566 46.9315 73.6206 47.5149 74.7431 48.7455Z" fill="#FFFDFA" fill-opacity="0.8"/>
<g id="Union">
<mask id="path-18-outside-1_2873_32467" maskUnits="userSpaceOnUse" x="54.5224" y="35.1899" width="41.1828" height="39.3085" fill="black">
<rect fill="white" x="54.5224" y="35.1899" width="41.1828" height="39.3085"/>
<path fill-rule="evenodd" clip-rule="evenodd" d="M82.1947 58.501C85.5781 53.9255 86.1161 48.1241 81.9192 43.5231C76.9187 38.041 68.3474 37.7177 63.1003 42.5039C57.8531 47.2901 57.1254 56.0957 62.126 61.5778C66.743 66.6394 73.5571 65.9227 78.7052 62.0157C78.8004 62.3227 78.9502 62.6178 79.1557 62.8867L84.1171 69.3783C85.4609 71.1365 88.0519 71.3318 89.6734 69.8258C91.3471 68.2714 91.2802 65.5702 89.5027 64.1356L83.1434 59.0031C82.8547 58.7701 82.532 58.6029 82.1947 58.501ZM78.4302 46.352C81.7826 50.0272 80.6609 54.8155 77.1807 57.99C73.7004 61.1646 68.6545 62.0022 65.3021 58.327C61.9496 54.6517 62.4033 48.7796 65.8835 45.605C69.3637 42.4305 75.0777 42.6767 78.4302 46.352Z"/>
</mask>
<path fill-rule="evenodd" clip-rule="evenodd" d="M82.1947 58.501C85.5781 53.9255 86.1161 48.1241 81.9192 43.5231C76.9187 38.041 68.3474 37.7177 63.1003 42.5039C57.8531 47.2901 57.1254 56.0957 62.126 61.5778C66.743 66.6394 73.5571 65.9227 78.7052 62.0157C78.8004 62.3227 78.9502 62.6178 79.1557 62.8867L84.1171 69.3783C85.4609 71.1365 88.0519 71.3318 89.6734 69.8258C91.3471 68.2714 91.2802 65.5702 89.5027 64.1356L83.1434 59.0031C82.8547 58.7701 82.532 58.6029 82.1947 58.501ZM78.4302 46.352C81.7826 50.0272 80.6609 54.8155 77.1807 57.99C73.7004 61.1646 68.6545 62.0022 65.3021 58.327C61.9496 54.6517 62.4033 48.7796 65.8835 45.605C69.3637 42.4305 75.0777 42.6767 78.4302 46.352Z" fill="#E5FCED"/>
<path d="M82.1947 58.501L79.9548 56.8447L77.6039 60.0241L81.389 61.1677L82.1947 58.501ZM81.9192 43.5231L83.9773 41.6457L83.9773 41.6457L81.9192 43.5231ZM63.1003 42.5039L64.9776 44.562L63.1003 42.5039ZM62.126 61.5778L64.1841 59.7004L64.1841 59.7004L62.126 61.5778ZM78.7052 62.0157L81.3658 61.1903L80.1879 57.3933L77.0211 59.7967L78.7052 62.0157ZM79.1557 62.8867L76.9423 64.5783L76.9424 64.5783L79.1557 62.8867ZM84.1171 69.3783L81.9038 71.0699L84.1171 69.3783ZM89.6734 69.8258L91.5691 71.867L89.6734 69.8258ZM89.5027 64.1356L87.7531 66.3034L87.7531 66.3034L89.5027 64.1356ZM83.1434 59.0031L81.3938 61.1709L81.3938 61.1709L83.1434 59.0031ZM77.1807 57.99L75.3033 55.9319L77.1807 57.99ZM78.4302 46.352L80.4883 44.4747L78.4302 46.352ZM65.3021 58.327L63.2439 60.2043L65.3021 58.327ZM65.8835 45.605L67.7608 47.6631L65.8835 45.605ZM84.4345 60.1573C88.4192 54.7687 89.2703 47.4484 83.9773 41.6457L79.8611 45.4004C82.9619 48.7998 82.737 53.0823 79.9548 56.8447L84.4345 60.1573ZM83.9773 41.6457C77.9509 35.039 67.6186 34.6119 61.2229 40.4458L64.9776 44.562C69.0762 40.8234 75.8865 41.0431 79.8611 45.4004L83.9773 41.6457ZM61.2229 40.4458C54.8981 46.2151 53.9776 56.7783 60.0679 63.4551L64.1841 59.7004C60.2733 55.4131 60.8082 48.3652 64.9776 44.562L61.2229 40.4458ZM60.0679 63.4551C65.985 69.942 74.5283 68.6828 80.3893 64.2347L77.0211 59.7967C72.5858 63.1627 67.5011 63.3368 64.1841 59.7004L60.0679 63.4551ZM81.369 61.1951C81.3668 61.1922 81.366 61.1908 81.3659 61.1906C81.3658 61.1904 81.3658 61.1904 81.3658 61.1903L76.0445 62.841C76.2353 63.456 76.5349 64.0452 76.9423 64.5783L81.369 61.1951ZM86.3304 67.6867L81.369 61.1951L76.9424 64.5783L81.9038 71.0699L86.3304 67.6867ZM87.7777 67.7846C87.3358 68.195 86.6554 68.1119 86.3304 67.6867L81.9038 71.0699C84.2663 74.1611 88.768 74.4685 91.5691 71.867L87.7777 67.7846ZM87.7531 66.3034C88.182 66.6495 88.2348 67.3601 87.7777 67.7846L91.5691 71.867C94.4594 69.1826 94.3784 64.4909 91.2523 61.9679L87.7531 66.3034ZM81.3938 61.1709L87.7531 66.3034L91.2523 61.9679L84.893 56.8353L81.3938 61.1709ZM81.389 61.1677C81.3894 61.1678 81.3895 61.1678 81.3897 61.1679C81.3897 61.168 81.3911 61.1686 81.3938 61.1709L84.893 56.8354C84.3198 56.3727 83.6754 56.0383 83.0004 55.8343L81.389 61.1677ZM79.058 60.0481C81.1835 58.1093 82.72 55.561 83.1248 52.7568C83.5402 49.8788 82.7262 46.9281 80.4883 44.4747L76.372 48.2293C77.4866 49.4512 77.7879 50.7322 77.6105 51.9608C77.4225 53.2631 76.658 54.6962 75.3033 55.9319L79.058 60.0481ZM63.2439 60.2043C65.5207 62.7003 68.4632 63.7091 71.3863 63.5062C74.2315 63.3087 76.9362 61.9836 79.058 60.0481L75.3033 55.9319C73.9449 57.171 72.3865 57.852 71.0006 57.9481C69.6925 58.0389 68.4358 57.6289 67.3602 56.4496L63.2439 60.2043ZM64.0062 43.5469C59.4272 47.7237 58.8205 55.3549 63.2439 60.2043L67.3602 56.4496C65.0788 53.9486 65.3794 49.8354 67.7608 47.6631L64.0062 43.5469ZM80.4883 44.4747C76.129 39.6956 68.6556 39.3058 64.0062 43.5469L67.7608 47.6631C70.0718 45.5552 74.0264 45.6579 76.372 48.2293L80.4883 44.4747Z" fill="#878787" mask="url(#path-18-outside-1_2873_32467)"/>
</g>
</g>
<g id="Group 249">
<path id="Vector_12" d="M85.3855 68.3057C85.1068 70.319 85.3859 72.6473 87.4157 74.4924C87.7546 74.8077 88.0101 75.2005 88.1596 75.6361C88.309 76.0717 88.3479 76.5367 88.2727 76.99C88.1215 77.9835 88.2025 78.9989 88.5097 79.9579C88.8169 80.917 89.342 81.7943 90.0447 82.5224C90.4544 82.9662 90.9909 83.276 91.5824 83.4104C92.174 83.5448 92.7924 83.4974 93.3549 83.2746C93.9174 83.0517 94.3971 82.664 94.73 82.1634C95.0629 81.6627 95.233 81.0729 95.2175 80.473C95.0074 75.6801 93.4682 71.033 90.7685 67.0406C90.425 66.5569 89.9428 66.186 89.3844 65.976C88.8261 65.766 88.2174 65.7266 87.6372 65.863C87.057 65.9993 86.5322 66.3051 86.1307 66.7407C85.7292 67.1762 85.4696 67.7215 85.3855 68.3057Z" fill="#FBFFE7"/>
<g id="Vector_13">
<path d="M88.4108 79.2146C88.2365 82.2117 94.1025 86.711 102.938 88.1362C103.548 88.2699 104.18 88.2665 104.787 88.1262C105.395 87.9858 105.962 87.7123 106.448 87.3256C107.544 86.3592 107.875 84.7933 107.957 83.3714C108.21 78.8091 106.592 74.7254 103.658 71.2503C101.416 68.5908 98.2338 66.3364 95.9978 63.8085C94.7183 62.3646 93.5102 60.8831 92.4037 59.362C92.1284 58.9834 91.7534 58.6866 91.3197 58.5042C90.8007 58.2668 90.2126 58.2245 89.6656 58.3853C89.1186 58.546 88.6502 58.8988 88.3483 59.3775C87.597 60.4699 87.2282 61.7764 87.2981 63.0979C87.4685 66.4282 89.1102 69.2961 94.1524 70.7969" fill="#FBFFE7"/>
<path d="M88.4108 79.2146C88.2365 82.2117 94.1025 86.711 102.938 88.1362C103.548 88.2699 104.18 88.2665 104.787 88.1262C105.395 87.9858 105.962 87.7123 106.448 87.3256C107.544 86.3592 107.875 84.7933 107.957 83.3714C108.21 78.8091 106.592 74.7254 103.658 71.2503C101.416 68.5908 98.2338 66.3364 95.9978 63.8085C94.7183 62.3646 93.5102 60.8831 92.4037 59.362C92.1284 58.9834 91.7534 58.6866 91.3197 58.5042C90.8007 58.2668 90.2126 58.2245 89.6656 58.3853C89.1186 58.546 88.6502 58.8988 88.3483 59.3775C87.597 60.4699 87.2282 61.7764 87.2981 63.0979C87.4685 66.4282 89.1102 69.2961 94.1524 70.7969" stroke="#878787" stroke-width="2.78571" stroke-linecap="round" stroke-linejoin="round"/>
</g>
<g id="Vector_14">
<path d="M85.6937 70.1479C85.5695 71.1225 85.7447 72.1125 86.1965 72.989C87.4152 75.263 91.1466 77.1534 94.9675 77.3552" fill="#FBFFE7"/>
<path d="M85.6937 70.1479C85.5695 71.1225 85.7447 72.1125 86.1965 72.989C87.4152 75.263 91.1466 77.1534 94.9675 77.3552" stroke="#878787" stroke-width="2.78571" stroke-linecap="round" stroke-linejoin="round"/>
</g>
</g>
</g>
</g>
</svg>
