<svg  viewBox="0 0 22 20"  xmlns="http://www.w3.org/2000/svg">
<path d="M3.90334 6.58641C4.07209 6.23016 4.26897 5.89266 4.49397 5.56453L4.45647 3.12703C4.45647 2.90203 4.55022 2.68641 4.72834 2.53641C5.60022 1.80516 6.59397 1.21453 7.69084 0.820785C7.90647 0.745785 8.14084 0.764534 8.32834 0.886409L10.419 2.14266C10.8127 2.11453 11.2065 2.11453 11.6002 2.14266L13.6908 0.886409C13.8877 0.773909 14.1221 0.745785 14.3377 0.820785C15.4065 1.20516 16.4096 1.77703 17.3002 2.52703C17.469 2.66766 17.5721 2.89266 17.5627 3.11766L17.5252 5.55516C17.7502 5.88328 17.9471 6.22078 18.1158 6.57703L20.244 7.75828C20.4408 7.87078 20.5815 8.05828 20.619 8.28328C20.8158 9.39891 20.8252 10.5614 20.619 11.6958C20.5815 11.9208 20.4408 12.1083 20.244 12.2208L18.1158 13.402C17.9471 13.7583 17.7502 14.0958 17.5252 14.4239L17.5627 16.8614C17.5627 17.0864 17.469 17.302 17.2908 17.452C16.419 18.1833 15.4252 18.7739 14.3283 19.1677C14.1127 19.2427 13.8783 19.2239 13.6908 19.102L11.6002 17.8458C11.2065 17.8739 10.8127 17.8739 10.419 17.8458L8.32834 19.102C8.13147 19.2145 7.89709 19.2427 7.68147 19.1677C6.61272 18.7833 5.60959 18.2114 4.71897 17.4614C4.55022 17.3208 4.44709 17.0958 4.45647 16.8708L4.49397 14.4333C4.26897 14.1052 4.07209 13.7677 3.90334 13.4114L1.77522 12.2302C1.57834 12.1177 1.43772 11.9302 1.40022 11.7052C1.20334 10.5895 1.19397 9.42704 1.40022 8.29266C1.43772 8.06766 1.57834 7.88016 1.77522 7.76766L3.90334 6.58641Z"  fill="white" stroke-width="1.5" stroke-miterlimit="10" stroke-linecap="round" stroke-linejoin="round"/>
<path d="M11.0001 14.4989C13.4854 14.4989 15.5001 12.4842 15.5001 9.99893C15.5001 7.51365 13.4854 5.49893 11.0001 5.49893C8.51484 5.49893 6.50012 7.51365 6.50012 9.99893C6.50012 12.4842 8.51484 14.4989 11.0001 14.4989Z"  fill="white" stroke-width="1.5" stroke-miterlimit="10" stroke-linecap="round" stroke-linejoin="round"/>
</svg>
