<svg viewBox="0 0 20 20" fill="none" xmlns="http://www.w3.org/2000/svg">
<path d="M6.66669 7.5H5.83335C5.39133 7.5 4.9674 7.67559 4.65484 7.98816C4.34228 8.30072 4.16669 8.72464 4.16669 9.16667V15.8333C4.16669 16.2754 4.34228 16.6993 4.65484 17.0118C4.9674 17.3244 5.39133 17.5 5.83335 17.5H14.1667C14.6087 17.5 15.0326 17.3244 15.3452 17.0118C15.6578 16.6993 15.8334 16.2754 15.8334 15.8333V9.16667C15.8334 8.72464 15.6578 8.30072 15.3452 7.98816C15.0326 7.67559 14.6087 7.5 14.1667 7.5H13.3334M10 11.6667V2.5M10 2.5L7.50002 5M10 2.5L12.5 5" stroke-width="1.25" stroke-linecap="round" stroke-linejoin="round"/>
</svg>
