<svg width="161" height="160" viewBox="0 0 161 160" fill="none" xmlns="http://www.w3.org/2000/svg">
<g clip-path="url(#clip0_2894_30750)">
<path d="M3.76654 71.9488C3.76654 71.9488 -1.33683 85.6468 10.2149 89.7772C8.99391 97.7613 15.1084 102.426 23.2452 104.086C23.0353 86.3622 9.14653 71.6435 3.76654 71.9488Z" fill="#FBFFE7"/>
<path d="M11.0157 95.8445C11.8456 101.425 25.2002 107.597 43.3243 104.43C43.6794 100.34 43.2784 96.2208 42.1415 92.2769C40.6057 86.687 37.6486 82.4517 32.2686 78.2164C27.8711 74.7442 22.1477 72.2068 17.817 68.954C15.3687 67.0971 13.003 65.1448 10.72 63.0971C10.162 62.6093 9.48344 62.2799 8.75499 62.1432C7.86426 61.9508 6.9341 62.0836 6.13278 62.5175C5.33145 62.9514 4.71188 63.6578 4.38613 64.5088C3.57373 66.4915 3.42973 68.685 3.97595 70.7569C5.33049 75.927 8.85038 79.8762 17.2447 80.6488" fill="#FBFFE7"/>
<path d="M11.0157 95.8445C11.8456 101.425 25.2002 107.597 43.3243 104.43C43.6794 100.34 43.2784 96.2208 42.1415 92.2769C40.6057 86.687 37.6486 82.4517 32.2686 78.2164C27.8711 74.7442 22.1477 72.2068 17.817 68.954C15.3687 67.0971 13.003 65.1448 10.72 63.0971C10.162 62.6093 9.48344 62.2799 8.75499 62.1432C7.86426 61.9508 6.9341 62.0836 6.13278 62.5175C5.33145 62.9514 4.71188 63.6578 4.38613 64.5088C3.57373 66.4915 3.42973 68.685 3.97595 70.7569C5.33049 75.927 8.85038 79.8762 17.2447 80.6488" stroke="#878787" stroke-width="3.71429" stroke-linecap="round" stroke-linejoin="round"/>
<path d="M3.76562 82.375C3.88385 83.9643 4.48644 85.4791 5.49218 86.7153C8.14403 89.9108 14.6115 91.6755 20.6687 90.7312" fill="#FBFFE7"/>
<path d="M3.76562 82.375C3.88385 83.9643 4.48644 85.4791 5.49218 86.7153C8.14403 89.9108 14.6115 91.6755 20.6687 90.7312" stroke="#878787" stroke-width="3.71429" stroke-linecap="round" stroke-linejoin="round"/>
<path d="M77.7549 32.9503C98.2613 32.1005 111.814 43.7987 120.995 57.7571C122.328 59.7821 123.549 61.8614 124.677 63.9949C125.274 65.134 125.861 66.2731 126.43 67.4303C133.393 81.4881 138.547 97.1551 134.185 113.075C127.166 138.614 102.549 143.695 74.0917 144.138C69.1122 144.229 64.1453 143.62 59.3458 142.33C54.8655 141.143 50.6283 139.219 46.8182 136.643C35.2787 128.634 30.0403 116.682 28.9497 105.002C27.6354 90.3838 31.5223 80.1953 37.2361 66.8065C41.9713 55.714 52.0846 42.9761 64.1741 36.7382C68.3512 34.5046 72.9925 33.2101 77.7549 32.9503Z" fill="white"/>
<path d="M105.333 40.9595C111.58 45.5697 116.89 51.2654 120.993 57.7566C122.326 59.7816 123.547 61.8609 124.675 63.9944C125.271 65.1335 125.858 66.2726 126.427 67.4298C133.39 81.4875 138.544 97.1545 134.182 113.075C127.163 138.614 91.5101 147.989 61.4775 142.808" stroke="#878787" stroke-width="3.71429" stroke-linecap="round" stroke-linejoin="round"/>
<path d="M70.707 34.1344C72.9975 33.4499 75.3687 33.052 77.7631 32.9501C84.6393 32.5926 91.5025 33.855 97.7662 36.6296" stroke="#878787" stroke-width="3.71429" stroke-linecap="round" stroke-linejoin="round"/>
<path d="M46.8172 136.643C18.1268 116.754 27.5132 74.0024 46.7333 51.1664C50.7828 46.2715 55.5981 42.0223 61.0039 38.5731" stroke="#878787" stroke-width="3.71429" stroke-linecap="round" stroke-linejoin="round"/>
<path d="M78.8506 39.7746C80.9054 37.9673 82.5176 35.7121 83.5629 33.1831C85.6901 28.0988 85.3848 22.757 83.1622 19.0177C78.9269 20.0384 74.8919 23.5487 72.7552 28.633C70.6184 33.7173 70.9237 39.0496 73.1272 42.7984" fill="#FFF9F3"/>
<path d="M78.8506 39.7746C80.9054 37.9673 82.5176 35.7121 83.5629 33.1831C85.6901 28.0988 85.3848 22.757 83.1622 19.0177C78.9269 20.0384 74.8919 23.5487 72.7552 28.633C70.6184 33.7173 70.9237 39.0496 73.1272 42.7984" stroke="#878787" stroke-width="3.71429" stroke-linecap="round" stroke-linejoin="round"/>
<path d="M71.3081 78.2583C71.3777 78.9145 71.2513 79.5767 70.9449 80.1611C70.6384 80.7455 70.1656 81.226 69.5862 81.5419C69.0068 81.8578 68.3468 81.9949 67.6896 81.9359C67.0323 81.8769 66.4073 81.6245 65.8934 81.2105C65.3795 80.7964 64.9999 80.2394 64.8024 79.6097C64.6049 78.9801 64.5985 78.306 64.7839 77.6727C64.9693 77.0393 65.3382 76.4752 65.8441 76.0514C66.3499 75.6276 66.97 75.3632 67.626 75.2917C68.0629 75.2428 68.5052 75.2808 68.9272 75.4037C69.3493 75.5266 69.7429 75.7319 70.0852 76.0077C70.4276 76.2835 70.7119 76.6244 70.9218 77.0107C71.1316 77.397 71.2629 77.821 71.3081 78.2583Z" fill="#878787"/>
<path d="M85.9396 77.8344C85.9396 77.8344 87.7878 74.6084 91.6009 76.702Z" fill="#FFF9F3"/>
<path d="M85.9396 77.8344C85.9396 77.8344 87.7878 74.6084 91.6009 76.702" stroke="#878787" stroke-width="3.71429" stroke-linecap="round" stroke-linejoin="round"/>
<path d="M88.7835 88.8085C87.8153 87.2524 86.4172 86.0099 84.7582 85.2311C83.0992 84.4522 81.2502 84.1704 79.4345 84.4195C77.6187 84.6687 75.914 85.4382 74.5261 86.6351C73.1382 87.8321 72.1265 89.4052 71.6133 91.1646V91.2123C73.5211 94.7131 77.4702 98.5574 81.2858 98.0423C85.1014 97.5271 87.9345 92.71 88.793 88.8944L88.7835 88.8085Z" fill="#FFC3DD"/>
<path d="M141.148 123.62C137.857 123.62 134.185 122.667 131.676 119.042C131.245 118.435 130.672 117.943 130.007 117.611C129.341 117.278 128.604 117.114 127.86 117.134C126.233 117.156 124.623 116.804 123.153 116.106C121.682 115.409 120.392 114.383 119.38 113.108C118.759 112.361 118.382 111.442 118.297 110.474C118.213 109.506 118.426 108.536 118.909 107.693C119.391 106.849 120.119 106.173 120.996 105.755C121.873 105.337 122.857 105.197 123.816 105.353C131.456 106.739 138.568 110.201 144.372 115.36C145.072 116.011 145.56 116.857 145.773 117.789C145.985 118.721 145.913 119.695 145.566 120.585C145.218 121.475 144.611 122.241 143.824 122.782C143.036 123.323 142.104 123.615 141.148 123.62Z" fill="#FBFFE7"/>
<path d="M124.335 116.428C119.489 116.046 113.575 105.754 113.25 91.4262C113.171 90.4294 113.317 89.4277 113.677 88.4949C114.037 87.5621 114.602 86.722 115.33 86.0366C117.123 84.5104 119.708 84.3291 122.007 84.5104C129.381 85.1113 135.572 88.574 140.494 93.9922C144.262 98.1321 147.171 103.674 150.729 107.776C152.761 110.123 154.869 112.364 157.063 114.453C157.609 114.973 158.002 115.633 158.198 116.361C158.464 117.236 158.401 118.179 158.022 119.011C157.642 119.843 156.973 120.509 156.138 120.883C154.219 121.835 152.041 122.133 149.937 121.732C144.634 120.73 140.398 117.496 139.111 109.169" fill="#FBFFE7"/>
<path d="M124.335 116.428C119.489 116.046 113.575 105.754 113.25 91.4262C113.171 90.4294 113.317 89.4277 113.677 88.4949C114.037 87.5621 114.602 86.722 115.33 86.0366C117.123 84.5104 119.708 84.3291 122.007 84.5104C129.381 85.1113 135.572 88.574 140.494 93.9922C144.262 98.1321 147.171 103.674 150.729 107.776C152.761 110.123 154.869 112.364 157.063 114.453C157.609 114.973 158.002 115.633 158.198 116.361C158.464 117.236 158.401 118.179 158.022 119.011C157.642 119.843 156.973 120.509 156.138 120.883C154.219 121.835 152.041 122.133 149.937 121.732C144.634 120.73 140.398 117.496 139.111 109.169" stroke="#878787" stroke-width="3.71429" stroke-linecap="round" stroke-linejoin="round"/>
<path d="M138.267 122.724C136.677 122.707 135.128 122.211 133.822 121.302C130.445 118.87 128.242 112.536 128.767 106.431" fill="#FBFFE7"/>
<path d="M138.267 122.724C136.677 122.707 135.128 122.211 133.822 121.302C130.445 118.87 128.242 112.536 128.767 106.431" stroke="#878787" stroke-width="3.71429" stroke-linecap="round" stroke-linejoin="round"/>
<rect x="26.7451" y="19.7982" width="5.17179" height="61.2696" transform="rotate(12.5706 26.7451 19.7982)" fill="#FFF9E3"/>
<path d="M32.4206 56.594L23.8928 56.3526L31.0319 24.3368L39.5631 24.5789C45.2613 24.7402 50.8116 26.5057 55.5378 29.6602L56.1552 30.0701C60.8764 33.2225 66.4805 34.8649 72.1711 34.7639C72.7879 34.7534 73.4009 34.8794 73.9638 35.1324C74.5267 35.3853 75.0247 35.7585 75.4199 36.2236C75.8151 36.6888 76.0972 37.2337 76.2448 37.817C76.3924 38.4004 76.4016 39.0068 76.2717 39.5903L71.0123 63.1763C70.7886 64.1789 70.2247 65.0754 69.4104 65.7232C68.5961 66.371 67.5782 66.733 66.5183 66.7516L65.7722 66.7633C59.5997 66.8742 53.5206 65.0941 48.3987 61.676C43.6717 58.5204 38.1201 56.7547 32.4206 56.594Z" fill="#F2FDF6"/>
<path d="M25.6367 48.5315L23.5847 57.7341L18.6753 79.7503C18.3645 81.1442 16.9825 82.0222 15.5886 81.7114V81.7114C14.1947 81.4006 13.3167 80.0186 13.6275 78.6247L26.1823 22.3222C26.4931 20.9282 27.8751 20.0502 29.269 20.3611V20.3611C30.6629 20.6719 31.541 22.0538 31.2301 23.4478L30.4249 27.0589L28.3728 36.2614" stroke="#878787" stroke-width="3.71" stroke-linecap="round"/>
<path d="M26.6271 56.9622L34.6731 57.0962C40.0505 57.1851 45.2683 58.8764 49.6903 61.9639C54.4818 65.3084 60.1972 67.0074 66.0246 66.8195L66.7289 66.7984C67.7295 66.7667 68.6948 66.393 69.4715 65.7367C70.2482 65.0805 70.7916 64.1795 71.0153 63.1769L76.2747 39.5908C76.4046 39.0074 76.4036 38.4028 76.2715 37.8229C76.1395 37.2431 75.8801 36.7032 75.5129 36.2443C75.1457 35.7854 74.6804 35.4195 74.1523 35.1743C73.6241 34.9291 73.0471 34.8112 72.4648 34.8293C67.0925 35.0013 61.8236 33.4337 57.407 30.3491L56.8295 29.9481C52.4082 26.8616 47.1916 25.1706 41.8154 25.0811L33.7663 24.9464" stroke="#878787" stroke-width="3.71" stroke-linecap="round"/>
<path d="M60.9604 42.5174C60.8897 42.8341 60.7189 43.0786 60.4477 43.2509L49.931 49.9325L47.9555 51.1877C47.6844 51.3599 47.3905 51.4108 47.0737 51.3401C46.757 51.2695 46.5125 51.0986 46.3402 50.8275L45.0851 48.852L41.7443 43.5936C41.572 43.3225 41.5212 43.0285 41.5918 42.7118C41.6625 42.3951 41.8333 42.1506 42.1045 41.9783L44.08 40.7232C44.3511 40.5509 44.6451 40.5001 44.9618 40.5707C45.2785 40.6414 45.523 40.8122 45.6953 41.0834L48.4059 45.3659L57.9375 39.2999C58.2086 39.1276 58.5026 39.0768 58.8193 39.1474C59.136 39.2181 59.3805 39.3889 59.5528 39.6601L60.8079 41.6356C60.9802 41.9067 61.031 42.2007 60.9604 42.5174Z" fill="#07BEB8"/>
<rect x="140.985" y="31.2572" width="6.66232" height="19.4514" rx="1.40541" transform="rotate(59.4876 140.985 31.2572)" fill="#C7FFEB" stroke="#878787" stroke-width="3"/>
<rect x="117.988" y="15.8181" width="7.01173" height="13.8595" rx="1.40541" transform="rotate(27.182 117.988 15.8181)" fill="#FFE9BF" stroke="#878787" stroke-width="3"/>
</g>
<defs>
<clipPath id="clip0_2894_30750">
<rect width="160" height="160" fill="white" transform="translate(0.5)"/>
</clipPath>
</defs>
</svg>
