<svg width="current" height="current" viewBox="0 0 25 25" fill="none" xmlns="http://www.w3.org/2000/svg">
<circle cx="12.5" cy="12.6079" r="9.75" fill="#6CDB95"/>
<path d="M8.00019 10.7329C8.00019 10.5104 8.06617 10.2929 8.18978 10.1079C8.3134 9.92289 8.4891 9.77869 8.69467 9.69355C8.90024 9.6084 9.12644 9.58612 9.34466 9.62953C9.56289 9.67294 9.76335 9.78008 9.92068 9.93742C10.078 10.0947 10.1852 10.2952 10.2286 10.5134C10.272 10.7317 10.2497 10.9579 10.1646 11.1634C10.0794 11.369 9.93521 11.5447 9.7502 11.6683C9.5652 11.7919 9.34769 11.8579 9.12519 11.8579C8.82682 11.8579 8.54067 11.7394 8.32969 11.5284C8.11871 11.3174 8.00019 11.0313 8.00019 10.7329ZM17.0002 10.7329C17.0002 10.9554 16.9342 11.1729 16.8106 11.3579C16.687 11.5429 16.5113 11.6871 16.3057 11.7723C16.1001 11.8574 15.8739 11.8797 15.6557 11.8363C15.4375 11.7929 15.237 11.6857 15.0797 11.5284C14.9224 11.3711 14.8152 11.1706 14.7718 10.9524C14.7284 10.7342 14.7507 10.508 14.8358 10.3024C14.921 10.0968 15.0652 9.92112 15.2502 9.79751C15.4352 9.67389 15.6527 9.60791 15.8752 9.60791C16.1736 9.60791 16.4597 9.72644 16.6707 9.93742C16.8817 10.1484 17.0002 10.4345 17.0002 10.7329ZM16.8999 15.2329C15.9352 16.9007 14.3311 17.8579 12.5002 17.8579C10.6692 17.8579 9.06613 16.9017 8.10144 15.2329C8.04717 15.1475 8.01074 15.0521 7.99432 14.9523C7.9779 14.8525 7.98185 14.7504 8.00591 14.6521C8.02998 14.5539 8.07366 14.4615 8.13435 14.3806C8.19504 14.2997 8.27147 14.2318 8.35904 14.1812C8.44662 14.1306 8.54352 14.0982 8.64394 14.086C8.74435 14.0738 8.84619 14.0821 8.94334 14.1103C9.04049 14.1384 9.13093 14.186 9.20922 14.25C9.28752 14.3141 9.35205 14.3933 9.39894 14.4829C10.0993 15.6932 11.1999 16.3579 12.5002 16.3579C13.8005 16.3579 14.9011 15.6923 15.6005 14.4829C15.7 14.3106 15.8638 14.1849 16.056 14.1333C16.2481 14.0818 16.4529 14.1088 16.6252 14.2082C16.7975 14.3077 16.9232 14.4715 16.9748 14.6637C17.0263 14.8558 16.9993 15.0606 16.8999 15.2329Z" fill="#FFFDFA"/>
</svg>
