<svg width="33" height="32" viewBox="0 0 33 32" fill="none" xmlns="http://www.w3.org/2000/svg">
<g clip-path="url(#clip0_4008_39334)">
<path d="M10.2785 6.47727L10.3623 7.00314L10.2785 6.47727C9.91313 6.53546 9.63068 6.76161 9.46182 7.03604C7.21233 10.6921 2.81311 17.7999 1.94529 19.0425C1.42445 19.7883 1.33314 20.4833 1.65035 21.0481C1.92935 21.5449 2.44478 21.7853 2.80139 21.8745C5.80322 22.8146 10.353 24.2221 14.2681 25.3955C16.2288 25.9832 18.0328 26.513 19.4042 26.8961C20.0894 27.0876 20.6704 27.2434 21.1105 27.3518C21.3302 27.4059 21.5192 27.4493 21.6708 27.4795C21.807 27.5067 21.9561 27.5325 22.0721 27.5325C22.6821 27.5325 23.2009 27.2611 23.5795 26.9679C23.9593 26.6738 24.2445 26.3227 24.3997 26.0725C24.4147 26.0485 24.4276 26.0233 24.4386 25.9972C25.4078 23.6805 26.8898 20.1146 28.186 16.9462C29.4752 13.7949 30.5978 10.9954 30.8318 10.2417C31.1345 9.26645 30.713 8.42262 30.1878 7.82817C29.6635 7.2347 28.968 6.80252 28.483 6.57932C28.4655 6.57123 28.446 6.56196 28.4246 6.5518C28.3353 6.50932 28.2133 6.45126 28.0605 6.39851C27.8661 6.3314 27.6232 6.2713 27.2702 6.21583C26.5721 6.10615 25.3943 6.0074 23.2169 5.92677C19.5493 5.79095 17.3345 6.94145 16.3072 7.9651C16.2227 7.8781 16.1279 7.79235 16.0235 7.70905C15.5782 7.35386 14.9141 7.00658 13.959 6.75014C12.3558 6.31973 11.0051 6.36155 10.2785 6.47727Z" fill="#72E8B2" stroke="#65E6AC" stroke-width="1.065" stroke-linecap="round" stroke-linejoin="round"/>
<path d="M8.00372 19.9443C7.10424 19.6222 6.12304 19.5311 4.99869 19.5311C3.87435 19.5311 2.75 19.743 2.75 19.743C3.62871 18.4847 7.68521 11.3617 9.91032 7.71841C10.0102 7.55488 10.1676 7.43622 10.3569 7.4061C11.0137 7.30151 12.2875 7.25772 13.8128 7.66726C15.6118 8.15029 16.1864 8.94192 16.2489 9.27736C16.7486 8.40523 18.8349 6.70121 23.1824 6.86222C27.5298 7.02323 28.3669 7.33183 28.242 7.466L24.5878 16.0196L20.9337 24.5733C20.434 24.1708 18.8349 23.1645 16.4363 22.3594C13.4381 21.3531 11.002 21.9569 10.8146 21.7556C10.6272 21.5544 9.12807 20.3468 8.00372 19.9443Z" fill="#FFFDFA"/>
<path d="M8.37561 16.9204C7.43798 16.0821 6.33418 15.9135 5.37518 15.9135C4.41618 15.9135 2.14452 16.0821 2.14452 16.0821C2.89036 15.086 6.31273 9.40466 8.21598 6.49047C8.31868 6.33321 8.47644 6.22347 8.66256 6.19824C9.54187 6.07902 11.9179 5.9132 13.2513 6.2471C14.7857 6.63133 15.3355 8.11127 15.3888 8.37809C15.815 7.68435 17.9818 4.55095 21.69 4.67903C25.3981 4.80711 26.976 4.57237 26.8695 4.6791L23.7527 11.4831L19.7127 20.0911C19.2864 19.7709 17.9225 18.9705 15.8767 18.3301C13.3193 17.5296 10.9733 21.9137 10.8135 21.7536C10.6536 21.5935 9.1474 17.6105 8.37561 16.9204Z" fill="#FFFDFA" stroke="#EAE5DE" stroke-width="0.5325" stroke-linecap="round" stroke-linejoin="round"/>
<path d="M15.3971 8.37891L11.3984 17.5098" stroke="#F0EAE2" stroke-width="0.5325" stroke-linecap="round" stroke-linejoin="round"/>
<path d="M23.7602 4.42594C23.2505 4.5001 22.9319 4.43079 22.7453 4.54397L18.5384 12.2152L19.8464 10.8612L20.1309 12.2852L24.4358 4.65001C24.4229 4.60888 24.2699 4.35178 23.7602 4.42594Z" fill="#FA5E53" stroke="#FA5E53" stroke-width="0.284" stroke-linecap="round" stroke-linejoin="round"/>
</g>
<defs>
<clipPath id="clip0_4008_39334">
<rect width="32" height="32" fill="white" transform="translate(0.5)"/>
</clipPath>
</defs>
</svg>
